<svg width="22" height="25" viewBox="0 0 22 25" fill="none" xmlns="http://www.w3.org/2000/svg">
<path d="M21.1293 18.2054L19.6639 16.0972C19.4638 15.8106 19.3562 15.4697 19.3553 15.1202V9.06989C19.3553 6.79702 18.4525 4.61723 16.8453 3.01006C15.2381 1.4029 13.0583 0.5 10.7855 0.5C8.51258 0.5 6.33279 1.4029 4.72563 3.01006C3.11846 4.61723 2.21556 6.79702 2.21556 9.06989V15.1202C2.21473 15.4697 2.10708 15.8106 1.90704 16.0972L0.441593 18.2054C0.219701 18.4513 0.073788 18.7561 0.021499 19.0832C-0.03079 19.4102 0.0127845 19.7454 0.146953 20.0481C0.281122 20.3509 0.500138 20.6084 0.777517 20.7893C1.0549 20.9703 1.37876 21.067 1.70994 21.0677H6.58621C6.7829 22.0364 7.30842 22.9073 8.07372 23.5328C8.83902 24.1583 9.79704 24.5 10.7855 24.5C11.7739 24.5 12.7319 24.1583 13.4972 23.5328C14.2625 22.9073 14.788 22.0364 14.9847 21.0677H19.861C20.1922 21.067 20.516 20.9703 20.7934 20.7893C21.0708 20.6084 21.2898 20.3509 21.424 20.0481C21.5581 19.7454 21.6017 19.4102 21.5494 19.0832C21.4971 18.7561 21.3512 18.4513 21.1293 18.2054ZM10.7855 22.7817C10.255 22.7802 9.73804 22.6147 9.30538 22.3079C8.87272 22.001 8.54555 21.5678 8.36875 21.0677H13.2022C13.0254 21.5678 12.6982 22.001 12.2655 22.3079C11.8329 22.6147 11.3159 22.7802 10.7855 22.7817ZM1.70994 19.3538C1.74867 19.3178 1.78318 19.2776 1.81278 19.2338L3.31251 17.0742C3.71259 16.501 3.92788 15.8192 3.92954 15.1202V9.06989C3.92954 7.25159 4.65186 5.50776 5.93759 4.22203C7.22332 2.9363 8.96715 2.21398 10.7855 2.21398C12.6038 2.21398 14.3476 2.9363 15.6333 4.22203C16.9191 5.50776 17.6414 7.25159 17.6414 9.06989V15.1202C17.643 15.8192 17.8583 16.501 18.2584 17.0742L19.7581 19.2338C19.7877 19.2776 19.8222 19.3178 19.861 19.3538H1.70994Z" fill="#18283D"/>
</svg>
