<svg width="17" height="24" viewBox="0 0 17 24" fill="none" xmlns="http://www.w3.org/2000/svg">
<path d="M13.8828 0H2.58591C1.16002 0 0 1.16006 0 2.58595V22.3246C0 23.5612 0.683625 24 1.269 24C1.69092 24 2.1157 23.7891 2.53158 23.3732L8.23425 17.6705L13.937 23.3732C14.3528 23.7891 14.7777 24 15.1996 24H15.1997C15.6182 24 15.9876 23.7854 16.213 23.4112C16.3827 23.1296 16.4687 22.764 16.4687 22.3245V2.58595C16.4687 1.16006 15.3087 0 13.8828 0ZM15.0624 22.3246C15.0624 22.39 15.0593 22.4448 15.0545 22.4904C15.0181 22.461 14.9768 22.4243 14.9314 22.3789L8.73141 16.179C8.59955 16.0471 8.42072 15.973 8.23425 15.973C8.04778 15.973 7.86891 16.047 7.73709 16.179L1.53717 22.3789C1.491 22.4251 1.45003 22.4617 1.41445 22.4905C1.40948 22.444 1.40625 22.3889 1.40625 22.3246V2.58595C1.40625 1.93547 1.93542 1.40625 2.58591 1.40625H13.8828C14.5333 1.40625 15.0624 1.93547 15.0624 2.58595V22.3246Z" fill="#18283D" style="fill:#18283D;fill:color(display-p3 0.0941 0.1569 0.2392);fill-opacity:1;"/>
</svg>
