<svg width="24" height="19" viewBox="0 0 24 19" fill="none" xmlns="http://www.w3.org/2000/svg">
<path d="M22.8043 17.936H6.7561C6.09468 17.936 5.55859 17.3942 5.55859 16.7258C5.55859 16.0574 6.09468 15.5156 6.7561 15.5156H22.8039C23.4653 15.5156 24.0014 16.0574 24.0014 16.7258C24.0014 17.3942 23.4657 17.936 22.8043 17.936Z" fill="black" style="fill:black;fill-opacity:1;"/>
<path d="M22.8043 10.3383H6.7561C6.09468 10.3383 5.55859 9.79657 5.55859 9.12815C5.55859 8.45973 6.09468 7.91797 6.7561 7.91797H22.8039C23.4653 7.91797 24.0014 8.45973 24.0014 9.12815C24.0018 9.79657 23.4657 10.3383 22.8043 10.3383Z" fill="black" style="fill:black;fill-opacity:1;"/>
<path d="M22.8043 2.74068H6.7561C6.09468 2.74068 5.55859 2.19892 5.55859 1.53049C5.55859 0.862071 6.09468 0.320312 6.7561 0.320312H22.8039C23.4653 0.320312 24.0014 0.862071 24.0014 1.53049C24.0014 2.19892 23.4657 2.74068 22.8043 2.74068Z" fill="black" style="fill:black;fill-opacity:1;"/>
<path d="M1.60825 3.25055C2.49647 3.25055 3.21651 2.52289 3.21651 1.62527C3.21651 0.72766 2.49647 0 1.60825 0C0.720039 0 0 0.72766 0 1.62527C0 2.52289 0.720039 3.25055 1.60825 3.25055Z" fill="black" style="fill:black;fill-opacity:1;"/>
<path d="M1.60825 10.7545C2.49647 10.7545 3.21651 10.0268 3.21651 9.12918C3.21651 8.23157 2.49647 7.50391 1.60825 7.50391C0.720039 7.50391 0 8.23157 0 9.12918C0 10.0268 0.720039 10.7545 1.60825 10.7545Z" fill="black" style="fill:black;fill-opacity:1;"/>
<path d="M1.60825 18.2584C2.49647 18.2584 3.21651 17.5307 3.21651 16.6331C3.21651 15.7355 2.49647 15.0078 1.60825 15.0078C0.720039 15.0078 0 15.7355 0 16.6331C0 17.5307 0.720039 18.2584 1.60825 18.2584Z" fill="black" style="fill:black;fill-opacity:1;"/>
</svg>
