<svg width="20" height="20" viewBox="0 0 20 20" fill="none" xmlns="http://www.w3.org/2000/svg">
<path d="M10.0504 20C8.06255 19.9997 6.11941 19.41 4.46666 18.3054C2.8139 17.2009 1.52576 15.6311 0.765077 13.7945C0.00439538 11.958 -0.194664 9.93711 0.193066 7.98742C0.580797 6.03774 1.53791 4.2468 2.94339 2.84101C4.83758 1.00139 7.37957 -0.0190282 10.02 0.000268788C12.6604 0.0195658 15.1872 1.07703 17.0543 2.94414C18.9214 4.81125 19.9789 7.33805 19.9982 9.97847C20.0175 12.6189 18.9971 15.1609 17.1574 17.0551C16.2264 17.9914 15.1188 18.7339 13.8989 19.2393C12.679 19.7448 11.3709 20.0034 10.0504 20ZM10.0504 1.07407C5.15717 1.07407 1.17645 5.05479 1.17645 9.94804C1.17645 14.8413 5.15717 18.822 10.0504 18.822C14.9437 18.822 18.9244 14.8413 18.9244 9.94804C18.9244 5.05479 14.9437 1.07407 10.0504 1.07407Z" fill="#18283D"/>
<path d="M13.5603 14.0438C13.483 14.044 13.4064 14.0288 13.335 13.9992C13.2636 13.9697 13.1987 13.9262 13.1441 13.8715L6.13408 6.86143C6.0268 6.75035 5.96743 6.60157 5.96877 6.44714C5.97011 6.29271 6.03206 6.14499 6.14126 6.03579C6.25046 5.92659 6.39818 5.86465 6.55261 5.8633C6.70704 5.86196 6.85582 5.92133 6.9669 6.02862L13.9769 13.0387C14.0592 13.121 14.1153 13.226 14.1379 13.3402C14.1606 13.4544 14.1489 13.5728 14.1043 13.6804C14.0597 13.7879 13.9843 13.8799 13.8874 13.9446C13.7906 14.0093 13.6768 14.0438 13.5603 14.0438Z" fill="#18283D"/>
<path d="M6.54979 14.0438C6.43334 14.0438 6.31952 14.0093 6.2227 13.9446C6.12587 13.8799 6.0504 13.7879 6.00582 13.6804C5.96123 13.5728 5.94954 13.4544 5.97221 13.3402C5.99488 13.226 6.0509 13.121 6.13319 13.0387L13.1432 6.02862C13.2543 5.92133 13.4031 5.86196 13.5575 5.8633C13.7119 5.86465 13.8597 5.92659 13.9689 6.03579C14.0781 6.14499 14.14 6.29271 14.1414 6.44714C14.1427 6.60157 14.0833 6.75035 13.976 6.86143L6.966 13.8715C6.91142 13.9262 6.84655 13.9697 6.77512 13.9992C6.70369 14.0288 6.62711 14.044 6.54979 14.0438Z" fill="#18283D"/>
</svg>
