<svg width="16" height="21" viewBox="0 0 16 21" fill="none" xmlns="http://www.w3.org/2000/svg">
<path d="M15.9791 18.3863L13.6743 12.3264C13.902 12.1903 14.0999 12.0096 14.2562 11.7952C14.4242 11.5644 14.5391 11.2994 14.5929 11.0191C14.6466 10.7388 14.6379 10.4501 14.5673 10.1735C14.5076 9.93171 14.5177 9.67793 14.5962 9.44158C14.6748 9.20523 14.8188 8.99598 15.0113 8.83804C15.2343 8.6553 15.4138 8.42531 15.537 8.16469C15.6601 7.90407 15.7238 7.61933 15.7235 7.33108C15.7231 7.04282 15.6587 6.75825 15.5349 6.49794C15.4111 6.23762 15.231 6.00808 15.0076 5.8259C14.8157 5.66734 14.6726 5.4577 14.5949 5.22123C14.5172 4.98475 14.508 4.7311 14.5684 4.48962C14.6384 4.21355 14.6468 3.92544 14.5928 3.64577C14.5389 3.3661 14.424 3.10175 14.2564 2.87151C14.0844 2.635 13.8625 2.43932 13.6063 2.29839C13.3501 2.15746 13.066 2.07476 12.7742 2.05617C12.5232 2.03927 12.2818 1.95287 12.0771 1.80663C11.8723 1.66038 11.7123 1.46007 11.6149 1.22808C11.5059 0.962504 11.3402 0.723918 11.1295 0.528963C10.9188 0.334008 10.668 0.187379 10.3948 0.0993063C10.1177 0.00868663 9.82408 -0.0204004 9.53454 0.0140726C9.245 0.0485456 8.96646 0.145749 8.71834 0.298908C8.50199 0.431089 8.25337 0.501027 7.99984 0.501027C7.74631 0.501027 7.49769 0.431089 7.28134 0.298908C7.03322 0.145743 6.75468 0.048536 6.46514 0.0140629C6.1756 -0.0204103 5.88202 0.00868016 5.60487 0.0993063C5.33173 0.187451 5.0811 0.334107 4.87045 0.529051C4.6598 0.723995 4.4942 0.962536 4.3852 1.22804C4.28752 1.46047 4.12703 1.66108 3.92171 1.8074C3.7164 1.95372 3.47439 2.03995 3.22282 2.05642C2.93152 2.07531 2.64796 2.15815 2.39232 2.29908C2.13668 2.44 1.91524 2.63553 1.74376 2.87176C1.57583 3.10256 1.46089 3.36756 1.40712 3.64787C1.35335 3.92818 1.36208 4.2169 1.43269 4.49345C1.49236 4.73527 1.48233 4.98905 1.40374 5.2254C1.32516 5.46175 1.18124 5.67102 0.988652 5.82896C0.765719 6.0117 0.586182 6.24169 0.463022 6.5023C0.339863 6.76292 0.27616 7.04765 0.27652 7.33591C0.27688 7.62416 0.341294 7.90873 0.465104 8.16904C0.588915 8.42935 0.769026 8.65889 0.992414 8.84107C1.18429 8.99962 1.32736 9.20924 1.40509 9.4457C1.48281 9.68215 1.49202 9.93578 1.43163 10.1773C1.3616 10.4533 1.35324 10.7414 1.40717 11.0211C1.46109 11.3008 1.57597 11.5651 1.74363 11.7954C1.89999 12.0096 2.09795 12.1902 2.32566 12.3262L0.0209016 18.3863C-0.000817939 18.4433 -0.00573487 18.5053 0.00673409 18.565C0.019203 18.6247 0.0485344 18.6796 0.0912472 18.7231C0.13396 18.7666 0.188261 18.7969 0.247705 18.8105C0.307149 18.8241 0.36924 18.8203 0.42661 18.7997L2.93697 17.8973L4.2127 20.24C4.24008 20.2903 4.28053 20.3323 4.32979 20.3616C4.37905 20.3909 4.43531 20.4064 4.49262 20.4064C4.49979 20.4064 4.50694 20.4061 4.51411 20.4056C4.57495 20.4015 4.63334 20.38 4.68235 20.3438C4.73136 20.3075 4.76893 20.2579 4.79062 20.2009L6.94846 14.5304C7.0643 14.4866 7.17584 14.4322 7.28166 14.3678C7.49798 14.2357 7.74653 14.1658 8 14.1658C8.25347 14.1658 8.50202 14.2357 8.71834 14.3678L8.71866 14.368C8.8242 14.4315 8.93536 14.4851 9.05075 14.5282L11.2094 20.2006C11.2311 20.2576 11.2686 20.3072 11.3177 20.3435C11.3667 20.3798 11.425 20.4012 11.4859 20.4053C11.4931 20.4058 11.5002 20.4061 11.5074 20.4061C11.5647 20.4061 11.6209 20.3906 11.6702 20.3614C11.7195 20.3321 11.7599 20.29 11.7873 20.2397L13.063 17.897L15.5734 18.7994C15.6308 18.82 15.6929 18.8238 15.7523 18.8102C15.8117 18.7966 15.866 18.7663 15.9088 18.7228C15.9515 18.6793 15.9808 18.6244 15.9933 18.5647C16.0057 18.505 16.0008 18.4433 15.9791 18.3863ZM4.44125 19.3262L3.36637 17.3525C3.32996 17.2857 3.27088 17.2342 3.1998 17.2071C3.12872 17.1801 3.05031 17.1793 2.97871 17.2049L0.863183 17.9652L2.9179 12.5631C3.0192 12.5868 3.12218 12.6027 3.22591 12.6107C3.47695 12.6276 3.71833 12.714 3.92306 12.8602C4.1278 13.0065 4.28781 13.2068 4.3852 13.4388C4.49422 13.7044 4.65986 13.9429 4.87057 14.1379C5.08128 14.3328 5.33198 14.4795 5.60519 14.5675C5.80224 14.6312 6.00791 14.6641 6.21497 14.665L4.44125 19.3262ZM6.94629 13.8253C6.77703 13.9298 6.587 13.9961 6.38946 14.0196C6.19192 14.0431 5.99163 14.0231 5.80259 13.9612C5.61749 13.9017 5.4476 13.8025 5.30476 13.6706C5.16192 13.5386 5.04957 13.3772 4.97555 13.1974C4.83232 12.8548 4.59652 12.559 4.29458 12.343C3.99264 12.1269 3.63651 11.9993 3.26609 11.9743C3.06803 11.9616 2.87521 11.9054 2.70132 11.8097C2.52744 11.7141 2.37676 11.5813 2.26001 11.4208C2.14708 11.2656 2.0698 11.0874 2.03369 10.8989C1.99758 10.7104 2.00352 10.5162 2.0511 10.3303C2.14 9.97137 2.12553 9.59461 2.00939 9.24355C1.89324 8.89249 1.68014 8.58145 1.39471 8.34637C1.24423 8.22345 1.12304 8.06856 1.03992 7.89293C0.956809 7.71731 0.913871 7.52538 0.914229 7.33108C0.914586 7.13679 0.95823 6.94501 1.04199 6.7697C1.12575 6.59438 1.24751 6.43993 1.39844 6.31757C1.68318 6.08192 1.89546 5.77054 2.01079 5.41938C2.12612 5.06823 2.13978 4.69162 2.05021 4.33303C2.00318 4.14756 1.9976 3.954 2.03388 3.76612C2.07015 3.57824 2.14738 3.40067 2.26008 3.24603C2.37728 3.08519 2.52852 2.95218 2.70301 2.85648C2.87751 2.76078 3.07097 2.70475 3.2696 2.69238C3.63943 2.6669 3.99488 2.53902 4.29618 2.32305C4.59747 2.10707 4.83273 1.81151 4.97562 1.46945C5.04957 1.28963 5.1619 1.12813 5.30475 0.996231C5.4476 0.86433 5.61753 0.76521 5.80266 0.705796C5.99176 0.6439 6.19208 0.623994 6.38966 0.647464C6.58725 0.670935 6.77733 0.737217 6.94667 0.841691C7.26394 1.03543 7.62848 1.13794 8.00022 1.13794C8.37197 1.13794 8.73651 1.03543 9.05378 0.841691C9.22306 0.737244 9.4131 0.670976 9.61062 0.647505C9.80815 0.624035 10.0084 0.643927 10.1975 0.705796C10.3826 0.765313 10.5525 0.864488 10.6953 0.996407C10.8381 1.12833 10.9505 1.28981 11.0245 1.46961C11.1677 1.81212 11.4035 2.10798 11.7055 2.32401C12.0074 2.54004 12.3636 2.6677 12.734 2.6927C12.932 2.70541 13.1249 2.76159 13.2987 2.85725C13.4726 2.95291 13.6233 3.08571 13.7401 3.24619C13.853 3.40138 13.9303 3.57958 13.9664 3.76808C14.0025 3.95658 13.9965 4.15073 13.949 4.33667C13.8601 4.6956 13.8745 5.07236 13.9907 5.42342C14.1068 5.77448 14.3199 6.08552 14.6054 6.3206C14.7558 6.44351 14.877 6.59841 14.9601 6.77403C15.0433 6.94966 15.0862 7.14159 15.0858 7.33589C15.0855 7.53018 15.0418 7.72196 14.9581 7.89727C14.8743 8.07259 14.7525 8.22704 14.6016 8.3494C14.3169 8.58504 14.1046 8.8964 13.9893 9.24753C13.8739 9.59867 13.8602 9.97526 13.9498 10.3338C13.9968 10.5193 14.0024 10.7129 13.9661 10.9008C13.9299 11.0886 13.8526 11.2662 13.7399 11.4208C13.6227 11.5817 13.4715 11.7147 13.297 11.8104C13.1225 11.9061 12.929 11.9621 12.7304 11.9745C12.3606 12 12.0051 12.1278 11.7038 12.3438C11.4025 12.5598 11.1673 12.8554 11.0244 13.1974C10.9504 13.3772 10.8381 13.5387 10.6952 13.6706C10.5524 13.8025 10.3825 13.9017 10.1973 13.9611C10.0083 14.0232 9.80792 14.0432 9.6103 14.0197C9.41269 13.9962 9.22259 13.9298 9.05333 13.8252C8.73606 13.6315 8.37152 13.529 7.99979 13.529C7.62806 13.529 7.26354 13.6315 6.94629 13.8253ZM13.0213 17.2048C12.9497 17.1791 12.8713 17.1799 12.8002 17.2069C12.7291 17.234 12.67 17.2856 12.6336 17.3524L11.5587 19.3261L9.78529 14.6658C9.99229 14.6646 10.1979 14.6315 10.3948 14.5677C10.6681 14.4796 10.9188 14.3329 11.1296 14.1379C11.3403 13.943 11.506 13.7044 11.6151 13.4388C11.7127 13.2064 11.8731 13.0057 12.0784 12.8594C12.2836 12.7131 12.5256 12.6269 12.7772 12.6104C12.8799 12.6026 12.9819 12.5868 13.0822 12.5633L15.1368 17.9651L13.0213 17.2048Z" fill="#18283D" style="fill:#18283D;fill:color(display-p3 0.0941 0.1569 0.2392);fill-opacity:1;"/>
<path d="M12.7843 7.33357C12.7843 6.38763 12.5038 5.46292 11.9783 4.6764C11.4527 3.88987 10.7058 3.27685 9.83184 2.91485C8.9579 2.55285 7.99624 2.45814 7.06847 2.64268C6.1407 2.82723 5.28848 3.28275 4.6196 3.95163C3.95071 4.62052 3.4952 5.47273 3.31065 6.4005C3.12611 7.32827 3.22082 8.28993 3.58282 9.16387C3.94482 10.0378 4.55784 10.7848 5.34437 11.3103C6.13089 11.8359 7.0556 12.1164 8.00154 12.1164C9.26959 12.115 10.4853 11.6106 11.3819 10.714C12.2786 9.81732 12.7829 8.60162 12.7843 7.33357ZM8.00154 11.4787C7.18172 11.4787 6.38031 11.2356 5.69866 10.7801C5.017 10.3246 4.48572 9.67725 4.17198 8.91983C3.85825 8.16241 3.77617 7.32898 3.9361 6.52491C4.09604 5.72084 4.49082 4.98226 5.07052 4.40256C5.65023 3.82286 6.38881 3.42807 7.19288 3.26814C7.99694 3.1082 8.83038 3.19028 9.5878 3.50401C10.3452 3.81775 10.9926 4.34903 11.4481 5.03069C11.9035 5.71234 12.1466 6.51375 12.1466 7.33357C12.1454 8.43254 11.7083 9.48614 10.9312 10.2632C10.1541 11.0403 9.10051 11.4774 8.00154 11.4787Z" fill="#18283D" style="fill:#18283D;fill:color(display-p3 0.0941 0.1569 0.2392);fill-opacity:1;"/>
<path d="M10.5364 6.27441L8.98164 6.0485L8.28635 4.63981C8.25702 4.59009 8.21522 4.54888 8.16509 4.52025C8.11496 4.49162 8.05823 4.47656 8.0005 4.47656C7.94277 4.47656 7.88604 4.49162 7.83591 4.52025C7.78578 4.54888 7.74398 4.59009 7.71465 4.63981L7.01936 6.0485L5.46463 6.27441C5.40572 6.28292 5.35037 6.30776 5.30485 6.34611C5.25932 6.38445 5.22544 6.43478 5.20703 6.49138C5.18863 6.54799 5.18643 6.60862 5.2007 6.66641C5.21497 6.72419 5.24513 6.77683 5.28776 6.81837L6.41309 7.9149L6.14749 9.46325C6.13747 9.52185 6.14403 9.58209 6.16644 9.63715C6.18884 9.69222 6.22619 9.73992 6.27428 9.77488C6.32236 9.80984 6.37926 9.83066 6.43856 9.83499C6.49785 9.83932 6.55717 9.82699 6.60982 9.79939L8.0005 9.06842L9.39111 9.79939C9.44376 9.82699 9.50309 9.83932 9.56238 9.83499C9.62167 9.83066 9.67857 9.80984 9.72665 9.77488C9.77474 9.73992 9.81209 9.69222 9.8345 9.63715C9.8569 9.58209 9.86347 9.52185 9.85345 9.46325L9.58784 7.9149L10.7132 6.81837C10.7558 6.77683 10.786 6.72419 10.8002 6.66641C10.8145 6.60862 10.8123 6.54799 10.7939 6.49138C10.7755 6.43478 10.7416 6.38445 10.6961 6.34611C10.6506 6.30776 10.5953 6.28292 10.5364 6.27441ZM9.02277 7.57533C8.9858 7.61144 8.95815 7.656 8.9422 7.70516C8.92625 7.75433 8.92247 7.80663 8.9312 7.85757L9.11585 8.93434L8.1487 8.42599C8.10298 8.40195 8.05209 8.38939 8.00043 8.38939C7.94878 8.38939 7.89789 8.40195 7.85217 8.42599L6.88515 8.93421L7.0698 7.85745C7.07852 7.8065 7.07475 7.7542 7.0588 7.70504C7.04285 7.65587 7.0152 7.61132 6.97822 7.5752L6.19579 6.81263L7.27693 6.65553C7.3281 6.64811 7.3767 6.62834 7.41853 6.59793C7.46036 6.56752 7.49415 6.52739 7.51699 6.48099L8.0005 5.50148L8.48407 6.48105C8.50691 6.52745 8.54071 6.56758 8.58253 6.59799C8.62436 6.6284 8.67296 6.64817 8.72414 6.65559L9.80527 6.81269L9.02277 7.57533Z" fill="#18283D" style="fill:#18283D;fill:color(display-p3 0.0941 0.1569 0.2392);fill-opacity:1;"/>
</svg>
