<svg width="25" height="24" viewBox="0 0 25 24" fill="none" xmlns="http://www.w3.org/2000/svg">
<path d="M12.6406 24C6.02362 24 0.640625 18.617 0.640625 12C0.640625 5.383 6.02362 0 12.6406 0C19.2576 0 24.6406 5.383 24.6406 12C24.6406 18.617 19.2576 24 12.6406 24ZM12.6406 2C7.12663 2 2.64062 6.486 2.64062 12C2.64062 17.514 7.12663 22 12.6406 22C18.1546 22 22.6406 17.514 22.6406 12C22.6406 6.486 18.1546 2 12.6406 2ZM13.1406 12.866L16.6046 10.866C17.0836 10.59 17.2466 9.978 16.9706 9.5C16.6936 9.021 16.0816 8.856 15.6046 9.134L13.6406 10.268V6C13.6406 5.447 13.1926 5 12.6406 5C12.0886 5 11.6406 5.447 11.6406 6V12C11.6406 12.357 11.8306 12.688 12.1406 12.866C12.2956 12.955 12.4676 13 12.6406 13C12.8136 13 12.9856 12.955 13.1406 12.866Z" fill="#18283D"/>
</svg>
