<svg width="17" height="16" viewBox="0 0 17 16" fill="none" xmlns="http://www.w3.org/2000/svg">
<path d="M2.77604 0H13.4427C14.15 0 14.8282 0.280956 15.3283 0.78106C15.8284 1.28116 16.1094 1.95945 16.1094 2.6667V10.6668C16.1094 11.3741 15.8284 12.0524 15.3283 12.5525C14.8282 13.0526 14.15 13.3335 13.4427 13.3335H11.5094L8.54204 15.8422C8.42166 15.9441 8.26907 16 8.11137 16C7.95368 16 7.80108 15.9441 7.68071 15.8422L4.70937 13.3335H2.77604C2.0688 13.3335 1.39052 13.0526 0.890424 12.5525C0.390326 12.0524 0.109375 11.3741 0.109375 10.6668V2.6667C0.109375 1.95945 0.390326 1.28116 0.890424 0.78106C1.39052 0.280956 2.0688 0 2.77604 0ZM11.4427 3.33338H8.10938C7.93256 3.33338 7.76299 3.40362 7.63797 3.52865C7.51295 3.65367 7.44271 3.82324 7.44271 4.00006C7.44271 4.17687 7.51295 4.34644 7.63797 4.47147C7.76299 4.59649 7.93256 4.66673 8.10938 4.66673H11.4427C11.6195 4.66673 11.7891 4.59649 11.9141 4.47147C12.0391 4.34644 12.1094 4.17687 12.1094 4.00006C12.1094 3.82324 12.0391 3.65367 11.9141 3.52865C11.7891 3.40362 11.6195 3.33338 11.4427 3.33338ZM4.77604 10.0001H11.4427C11.6195 10.0001 11.7891 9.9299 11.9141 9.80488C12.0391 9.67985 12.1094 9.51028 12.1094 9.33346C12.1094 9.15665 12.0391 8.98708 11.9141 8.86205C11.7891 8.73703 11.6195 8.66679 11.4427 8.66679H4.77604C4.59923 8.66679 4.42966 8.73703 4.30464 8.86205C4.17961 8.98708 4.10938 9.15665 4.10938 9.33346C4.10938 9.51028 4.17961 9.67985 4.30464 9.80488C4.42966 9.9299 4.59923 10.0001 4.77604 10.0001ZM4.77604 7.33344H11.4427C11.6195 7.33344 11.7891 7.2632 11.9141 7.13817C12.0391 7.01315 12.1094 6.84357 12.1094 6.66676C12.1094 6.48995 12.0391 6.32038 11.9141 6.19535C11.7891 6.07032 11.6195 6.00008 11.4427 6.00008H4.77604C4.59923 6.00008 4.42966 6.07032 4.30464 6.19535C4.17961 6.32038 4.10938 6.48995 4.10938 6.66676C4.10938 6.84357 4.17961 7.01315 4.30464 7.13817C4.42966 7.2632 4.59923 7.33344 4.77604 7.33344Z" fill="white"/>
</svg>
