<svg width="27" height="24" viewBox="0 0 27 24" fill="none" xmlns="http://www.w3.org/2000/svg">
<path d="M22.5 0H3.5864C1.60891 0 0 1.60859 0 3.5864V15.1611C0 17.1345 1.6019 18.7405 3.57367 18.7475V24L11.1221 18.7475H22.5C24.4775 18.7475 26.0864 17.1386 26.0864 15.1611V3.5864C26.0864 1.60859 24.4775 0 22.5 0ZM24.5579 15.1611C24.5579 16.2957 23.6348 17.219 22.5 17.219H10.6425L5.10217 21.0744V17.219H3.5864C2.45165 17.219 1.5285 16.2957 1.5285 15.1611V3.5864C1.5285 2.45149 2.45165 1.5285 3.5864 1.5285H22.5C23.6348 1.5285 24.5579 2.45149 24.5579 3.5864V15.1611Z" fill="#18283D"/>
<path d="M6.98047 5.39844H19.1031V6.92694H6.98047V5.39844Z" fill="#18283D"/>
<path d="M6.98047 8.66406H19.1031V10.1926H6.98047V8.66406Z" fill="#18283D"/>
<path d="M6.98047 11.9219H19.1031V13.4504H6.98047V11.9219Z" fill="#18283D"/>
</svg>
