<svg width="30" height="30" viewBox="0 0 30 30" fill="none" xmlns="http://www.w3.org/2000/svg">
<circle cx="15" cy="15" r="15" fill="#FFC7C7"/>
<path d="M21.6167 8.92157H19.4706C19.3099 8.14024 18.8848 7.4382 18.2668 6.93376C17.6489 6.42933 16.876 6.15335 16.0783 6.15234L14.6937 6.15234C13.896 6.15335 13.123 6.42933 12.5051 6.93376C11.8872 7.4382 11.462 8.14024 11.3014 8.92157H9.1552C8.97159 8.92157 8.7955 8.99451 8.66566 9.12435C8.53583 9.25418 8.46289 9.43027 8.46289 9.61388C8.46289 9.79749 8.53583 9.97358 8.66566 10.1034C8.7955 10.2333 8.97159 10.3062 9.1552 10.3062H9.84751V19.3062C9.84861 20.2239 10.2137 21.1037 10.8626 21.7527C11.5115 22.4016 12.3913 22.7666 13.309 22.7677H17.4629C18.3806 22.7666 19.2604 22.4016 19.9094 21.7527C20.5583 21.1037 20.9233 20.2239 20.9244 19.3062V10.3062H21.6167C21.8003 10.3062 21.9764 10.2333 22.1063 10.1034C22.2361 9.97358 22.309 9.79749 22.309 9.61388C22.309 9.43027 22.2361 9.25418 22.1063 9.12435C21.9764 8.99451 21.8003 8.92157 21.6167 8.92157ZM14.6937 7.53696H16.0783C16.5077 7.53748 16.9264 7.67083 17.2771 7.91873C17.6277 8.16662 17.8931 8.51691 18.0368 8.92157H12.7351C12.8788 8.51691 13.1442 8.16662 13.4949 7.91873C13.8455 7.67083 14.2642 7.53748 14.6937 7.53696ZM19.5398 19.3062C19.5398 19.857 19.321 20.3853 18.9315 20.7748C18.542 21.1643 18.0137 21.3831 17.4629 21.3831H13.309C12.7582 21.3831 12.2299 21.1643 11.8404 20.7748C11.4509 20.3853 11.2321 19.857 11.2321 19.3062V10.3062H19.5398V19.3062Z" fill="#FD003A"/>
<path d="M14.0009 18.6127C14.1845 18.6127 14.3606 18.5397 14.4904 18.4099C14.6203 18.2801 14.6932 18.104 14.6932 17.9204V13.7665C14.6932 13.5829 14.6203 13.4068 14.4904 13.277C14.3606 13.1472 14.1845 13.0742 14.0009 13.0742C13.8173 13.0742 13.6412 13.1472 13.5114 13.277C13.3815 13.4068 13.3086 13.5829 13.3086 13.7665V17.9204C13.3086 18.104 13.3815 18.2801 13.5114 18.4099C13.6412 18.5397 13.8173 18.6127 14.0009 18.6127Z" fill="#FD003A"/>
<path d="M16.7704 18.6127C16.954 18.6127 17.1301 18.5397 17.26 18.4099C17.3898 18.2801 17.4627 18.104 17.4627 17.9204V13.7665C17.4627 13.5829 17.3898 13.4068 17.26 13.277C17.1301 13.1472 16.954 13.0742 16.7704 13.0742C16.5868 13.0742 16.4107 13.1472 16.2809 13.277C16.1511 13.4068 16.0781 13.5829 16.0781 13.7665V17.9204C16.0781 18.104 16.1511 18.2801 16.2809 18.4099C16.4107 18.5397 16.5868 18.6127 16.7704 18.6127Z" fill="#FD003A"/>
</svg>
