<svg width="20" height="23" viewBox="0 0 20 23" fill="none" xmlns="http://www.w3.org/2000/svg">
<path d="M18.362 3.74479H15.5203C15.3076 2.71025 14.7446 1.78069 13.9265 1.11278C13.1083 0.444874 12.0848 0.0794583 11.0286 0.078125L9.19531 0.078125C8.13913 0.0794583 7.11569 0.444874 6.2975 1.11278C5.47931 1.78069 4.9164 2.71025 4.70365 3.74479H1.86198C1.61886 3.74479 1.38571 3.84137 1.2138 4.01328C1.04189 4.18519 0.945313 4.41834 0.945312 4.66146C0.945313 4.90457 1.04189 5.13773 1.2138 5.30964C1.38571 5.48155 1.61886 5.57812 1.86198 5.57812H2.77865V17.4948C2.7801 18.7099 3.26345 19.8749 4.12268 20.7341C4.98191 21.5933 6.14685 22.0767 7.36198 22.0781H12.862C14.0771 22.0767 15.2421 21.5933 16.1013 20.7341C16.9605 19.8749 17.4439 18.7099 17.4453 17.4948V5.57812H18.362C18.6051 5.57812 18.8383 5.48155 19.0102 5.30964C19.1821 5.13773 19.2786 4.90457 19.2786 4.66146C19.2786 4.41834 19.1821 4.18519 19.0102 4.01328C18.8383 3.84137 18.6051 3.74479 18.362 3.74479ZM9.19531 1.91146H11.0286C11.5972 1.91215 12.1517 2.08872 12.616 2.41695C13.0802 2.74518 13.4316 3.20899 13.6219 3.74479H6.60206C6.79235 3.20899 7.14372 2.74518 7.608 2.41695C8.07228 2.08872 8.62673 1.91215 9.19531 1.91146ZM15.612 17.4948C15.612 18.2241 15.3223 18.9236 14.8065 19.4393C14.2908 19.9551 13.5913 20.2448 12.862 20.2448H7.36198C6.63263 20.2448 5.93316 19.9551 5.41744 19.4393C4.90171 18.9236 4.61198 18.2241 4.61198 17.4948V5.57812H15.612V17.4948Z" fill="#18283D"/>
<path d="M8.27604 16.5833C8.51916 16.5833 8.75231 16.4868 8.92422 16.3148C9.09613 16.1429 9.19271 15.9098 9.19271 15.6667V10.1667C9.19271 9.92355 9.09613 9.69039 8.92422 9.51849C8.75231 9.34658 8.51916 9.25 8.27604 9.25C8.03293 9.25 7.79977 9.34658 7.62786 9.51849C7.45595 9.69039 7.35938 9.92355 7.35938 10.1667V15.6667C7.35938 15.9098 7.45595 16.1429 7.62786 16.3148C7.79977 16.4868 8.03293 16.5833 8.27604 16.5833Z" fill="#18283D"/>
<path d="M11.9479 16.5833C12.191 16.5833 12.4242 16.4868 12.5961 16.3148C12.768 16.1429 12.8646 15.9098 12.8646 15.6667V10.1667C12.8646 9.92355 12.768 9.69039 12.5961 9.51849C12.4242 9.34658 12.191 9.25 11.9479 9.25C11.7048 9.25 11.4716 9.34658 11.2997 9.51849C11.1278 9.69039 11.0312 9.92355 11.0312 10.1667V15.6667C11.0312 15.9098 11.1278 16.1429 11.2997 16.3148C11.4716 16.4868 11.7048 16.5833 11.9479 16.5833Z" fill="#18283D"/>
</svg>
