<svg width="16" height="21" viewBox="0 0 16 21" fill="none" xmlns="http://www.w3.org/2000/svg">
<path d="M15.3169 5.64605L9.79244 0.12157C9.71459 0.0437227 9.60906 0 9.49893 0H1.71445C0.769084 0 0 0.769084 0 1.71445V19.2855C0 20.2309 0.769084 21 1.71445 21H13.724C14.6694 21 15.4384 20.2309 15.4384 19.2855V5.93951C15.4384 5.82947 15.3947 5.72385 15.3169 5.64605ZM9.91401 1.41705L14.0214 5.52439H10.7983C10.3107 5.52439 9.91405 5.12769 9.91405 4.64002V1.41705H9.91401ZM14.6084 19.2855C14.6084 19.7732 14.2117 20.1699 13.724 20.1699H1.71445C1.22682 20.1699 0.830074 19.7732 0.830074 19.2855V1.71445C0.830074 1.22682 1.22682 0.830074 1.71445 0.830074H9.08389V4.6401C9.08389 5.58547 9.85294 6.35455 10.7983 6.35455H14.6084V19.2855Z" fill="#18283D" style="fill:#18283D;fill:color(display-p3 0.0941 0.1569 0.2392);fill-opacity:1;"/>
<path d="M11.0437 10.542H4.40332C4.17412 10.542 3.98828 10.7278 3.98828 10.957C3.98828 11.1862 4.17412 11.3721 4.40332 11.3721H11.0437C11.2729 11.3721 11.4587 11.1862 11.4587 10.957C11.4587 10.7278 11.2729 10.542 11.0437 10.542Z" fill="#18283D" style="fill:#18283D;fill:color(display-p3 0.0941 0.1569 0.2392);fill-opacity:1;"/>
<path d="M11.0437 12.3955H4.40332C4.17412 12.3955 3.98828 12.5813 3.98828 12.8105C3.98828 13.0397 4.17412 13.2256 4.40332 13.2256H11.0437C11.2729 13.2256 11.4587 13.0397 11.4587 12.8105C11.4587 12.5813 11.2729 12.3955 11.0437 12.3955Z" fill="#18283D" style="fill:#18283D;fill:color(display-p3 0.0941 0.1569 0.2392);fill-opacity:1;"/>
<path d="M11.0437 14.2495H4.40332C4.17412 14.2495 3.98828 14.4354 3.98828 14.6645C3.98828 14.8937 4.17412 15.0796 4.40332 15.0796H11.0437C11.2729 15.0796 11.4587 14.8937 11.4587 14.6645C11.4587 14.4354 11.2729 14.2495 11.0437 14.2495Z" fill="#18283D" style="fill:#18283D;fill:color(display-p3 0.0941 0.1569 0.2392);fill-opacity:1;"/>
<path d="M8.88555 16.1021H4.40332C4.17412 16.1021 3.98828 16.2879 3.98828 16.5171C3.98828 16.7463 4.17412 16.9321 4.40332 16.9321H8.88555C9.11482 16.9321 9.30058 16.7463 9.30058 16.5171C9.30058 16.2879 9.11482 16.1021 8.88555 16.1021Z" fill="#18283D" style="fill:#18283D;fill:color(display-p3 0.0941 0.1569 0.2392);fill-opacity:1;"/>
</svg>
