<svg width="35" height="35" viewBox="0 0 35 35" fill="none" xmlns="http://www.w3.org/2000/svg">
<rect x="0.5" y="0.5" width="34" height="34" rx="1.5" stroke="#1D5BBF" style="stroke:#1D5BBF;stroke:color(display-p3 0.1137 0.3569 0.7490);stroke-opacity:1;"/>
<path d="M15.3041 18.418C15.2215 18.418 13.4043 18.418 12.5782 18.418C12.1377 18.418 12 18.2528 12 17.8398C12 16.7384 12 15.6095 12 14.5081C12 14.0676 12.1652 13.9299 12.5782 13.9299H15.3041C15.3041 13.8473 15.3041 12.2503 15.3041 11.5069C15.3041 10.4055 15.4969 9.3592 16.0476 8.39549C16.6258 7.40425 17.4518 6.74343 18.4981 6.35795C19.1865 6.11014 19.8748 6 20.6183 6H23.3166C23.7021 6 23.8673 6.16521 23.8673 6.55069V9.68961C23.8673 10.0751 23.7021 10.2403 23.3166 10.2403C22.5732 10.2403 21.8298 10.2403 21.0864 10.2678C20.3429 10.2678 19.9574 10.6258 19.9574 11.3967C19.9299 12.2228 19.9574 13.0213 19.9574 13.8748H23.1514C23.592 13.8748 23.7572 14.04 23.7572 14.4806V17.8123C23.7572 18.2528 23.6195 18.3905 23.1514 18.3905C22.1602 18.3905 20.04 18.3905 19.9574 18.3905V27.3667C19.9574 27.8348 19.8198 28 19.3242 28C18.1677 28 17.0388 28 15.8824 28C15.4693 28 15.3041 27.8348 15.3041 27.4218C15.3041 24.5307 15.3041 18.5006 15.3041 18.418Z" fill="#1D5BBF" style="fill:#1D5BBF;fill:color(display-p3 0.1137 0.3569 0.7490);fill-opacity:1;"/>
</svg>
