<svg width="20" height="20" viewBox="0 0 20 20" fill="none" xmlns="http://www.w3.org/2000/svg">
<path d="M5.84698 20C4.69178 20.0027 3.56179 19.6625 2.60024 19.0225C1.6387 18.3824 0.888911 17.4714 0.445928 16.4049C0.0029451 15.3384 -0.113283 14.1644 0.111979 13.0318C0.33724 11.8992 0.893847 10.8589 1.71124 10.0429L10.5444 1.22533C11.3262 0.442014 12.3873 0.00125244 13.4942 2.66501e-06C14.6011 -0.00124711 15.6632 0.437118 16.4467 1.21866C17.2303 2.00021 17.6712 3.06091 17.6725 4.16743C17.6738 5.27395 17.2352 6.33565 16.4534 7.11896L7.61944 15.9357C7.14167 16.3909 6.50698 16.6448 5.84698 16.6448C5.18698 16.6448 4.55229 16.3909 4.07452 15.9357C3.84208 15.7036 3.65769 15.428 3.53188 15.1246C3.40607 14.8212 3.34132 14.496 3.34132 14.1676C3.34132 13.8392 3.40607 13.514 3.53188 13.2106C3.65769 12.9072 3.84208 12.6316 4.07452 12.3995L12.3193 4.17256L13.501 5.35129L5.25616 13.5799C5.09994 13.7361 5.01218 13.9479 5.01218 14.1688C5.01218 14.3897 5.09994 14.6016 5.25616 14.7578C5.41535 14.9096 5.62694 14.9944 5.84698 14.9944C6.06702 14.9944 6.27861 14.9096 6.4378 14.7578L15.2776 5.94023C15.7467 5.4702 16.0098 4.83314 16.009 4.1692C16.0082 3.50525 15.7436 2.86881 15.2734 2.39989C14.8032 1.93096 14.166 1.66796 13.5018 1.66874C12.8376 1.66952 12.2009 1.93402 11.7319 2.40405L2.89288 11.2208C2.11095 12.004 1.67228 13.0656 1.67337 14.1721C1.67447 15.2786 2.11523 16.3394 2.89871 17.1211C3.68219 17.9027 4.7442 18.3412 5.8511 18.3401C6.95801 18.339 8.01915 17.8984 8.80108 17.1152L18.8184 7.11896L20 8.29769L9.98272 18.294C9.43959 18.8364 8.79468 19.2663 8.08498 19.5591C7.37527 19.8519 6.61473 20.0017 5.84698 20Z" fill="#18283D" style="fill:#18283D;fill:color(display-p3 0.0941 0.1569 0.2392);fill-opacity:1;"/>
</svg>
