<svg width="13" height="11" viewBox="0 0 13 11" fill="none" xmlns="http://www.w3.org/2000/svg">
<path d="M8.90625 0.015625C8.25509 0.015625 7.65809 0.221969 7.13187 0.628937C6.62738 1.0191 6.29149 1.51605 6.09375 1.87741C5.89601 1.51602 5.56012 1.0191 5.05563 0.628937C4.52941 0.221969 3.93241 0.015625 3.28125 0.015625C1.46409 0.015625 0.09375 1.50196 0.09375 3.47298C0.09375 5.60238 1.80335 7.05927 4.39146 9.26481C4.83096 9.63937 5.32912 10.0639 5.84691 10.5167C5.91516 10.5765 6.00281 10.6094 6.09375 10.6094C6.18469 10.6094 6.27234 10.5765 6.34059 10.5167C6.85842 10.0639 7.35656 9.63934 7.79632 9.26458C10.3841 7.05927 12.0938 5.60238 12.0938 3.47298C12.0938 1.50196 10.7234 0.015625 8.90625 0.015625Z" fill="#424242"/>
</svg>
