<svg width="15" height="13" viewBox="0 0 15 13" fill="none" xmlns="http://www.w3.org/2000/svg">
  <path d="M10.787 0C10.0931 0.0107932 9.41433 0.204498 8.81924 0.561552C8.22415 0.918607 7.73381 1.42637 7.39774 2.03356C7.06167 1.42637 6.57134 0.918607 5.97624 0.561552C5.38115 0.204498 4.70238 0.0107932 4.00848 0C2.90231 0.0480602 1.86012 0.531963 1.1096 1.34599C0.359078 2.16002 -0.0387667 3.238 0.00298323 4.34442C0.00298323 7.14642 2.95226 10.2066 5.42581 12.2815C5.97808 12.7456 6.67635 13 7.39774 13C8.11913 13 8.8174 12.7456 9.36968 12.2815C11.8432 10.2066 14.7925 7.14642 14.7925 4.34442C14.8342 3.238 14.4364 2.16002 13.6859 1.34599C12.9354 0.531963 11.8932 0.0480602 10.787 0Z" fill="#FF0000"/>
</svg>
