<svg width="24" height="24" viewBox="0 0 24 24" fill="none" xmlns="http://www.w3.org/2000/svg">
<path d="M10.1296 1.68899C10.596 1.68899 10.9741 1.31088 10.9741 0.844497C10.9741 0.378091 10.596 0 10.1296 0H3.65949C1.63839 0 0 1.63841 0 3.65948V20.0605C0 22.0815 1.63839 23.72 3.65946 23.72H10.1296C10.596 23.72 10.9741 23.3418 10.9741 22.8755C10.9741 22.409 10.596 22.031 10.1296 22.031H3.65946C2.57122 22.031 1.68897 21.1488 1.68897 20.0605L1.689 3.65948C1.689 2.57121 2.57122 1.68899 3.65949 1.68899H10.1296Z" fill="#18283D" style="fill:#18283D;fill:color(display-p3 0.0941 0.1569 0.2392);fill-opacity:1;"/>
<path d="M18.1983 5.3411C17.8685 5.0113 17.3338 5.0113 17.004 5.3411C16.6742 5.67091 16.6742 6.20558 17.004 6.53539L21.1843 10.7157H5.80543C5.33905 10.7157 4.96094 11.0938 4.96094 11.5602C4.96094 12.0266 5.33905 12.4047 5.80543 12.4047H21.126L17.0042 16.5267C16.6744 16.8564 16.6744 17.3911 17.0042 17.7209C17.3339 18.0507 17.8686 18.0507 18.1984 17.7209L23.751 12.1684C23.916 12.0034 23.9984 11.7872 23.9984 11.571L23.9984 11.5602C23.9984 11.5477 23.9981 11.5351 23.9976 11.5227C24.0061 11.2961 23.9239 11.0667 23.7508 10.8937L18.1983 5.3411Z" fill="#18283D" style="fill:#18283D;fill:color(display-p3 0.0941 0.1569 0.2392);fill-opacity:1;"/>
</svg>
