<svg width="50" height="50" viewBox="0 0 50 50" fill="none" xmlns="http://www.w3.org/2000/svg">
<circle cx="25" cy="25" r="25" fill="#04A6BE" style="fill:#04A6BE;fill:color(display-p3 0.0157 0.6510 0.7451);fill-opacity:1;"/>
<path d="M24.1296 14.689C24.596 14.689 24.9741 14.3109 24.9741 13.8445C24.9741 13.3781 24.596 13 24.1296 13H17.6595C15.6384 13 14 14.6384 14 16.6595V33.0605C14 35.0815 15.6384 36.72 17.6595 36.72H24.1296C24.596 36.72 24.9741 36.3418 24.9741 35.8755C24.9741 35.409 24.596 35.031 24.1296 35.031H17.6595C16.5712 35.031 15.689 34.1488 15.689 33.0605L15.689 16.6595C15.689 15.5712 16.5712 14.689 17.6595 14.689H24.1296Z" fill="white" style="fill:white;fill-opacity:1;"/>
<path d="M32.1983 18.3411C31.8685 18.0113 31.3338 18.0113 31.004 18.3411C30.6742 18.6709 30.6742 19.2056 31.004 19.5354L35.1843 23.7157H19.8054C19.339 23.7157 18.9609 24.0938 18.9609 24.5602C18.9609 25.0266 19.339 25.4047 19.8054 25.4047H35.126L31.0042 29.5267C30.6744 29.8564 30.6744 30.3911 31.0042 30.7209C31.3339 31.0507 31.8686 31.0507 32.1984 30.7209L37.751 25.1684C37.916 25.0034 37.9984 24.7872 37.9984 24.571L37.9984 24.5602C37.9984 24.5477 37.9981 24.5351 37.9976 24.5227C38.0061 24.2961 37.9239 24.0667 37.7508 23.8937L32.1983 18.3411Z" fill="white" style="fill:white;fill-opacity:1;"/>
</svg>
