<svg width="96" height="96" viewBox="0 0 96 96" fill="none" xmlns="http://www.w3.org/2000/svg">
<path d="M37.5054 10.294H45.0415C45.6655 10.294 46.1719 9.78769 46.1719 9.16361C46.1719 8.53954 45.6655 8.0332 45.0415 8.0332H37.5054C36.8813 8.0332 36.375 8.53954 36.375 9.16361C36.375 9.78769 36.8813 10.294 37.5054 10.294Z" fill="#1A1F25" style="fill:#1A1F25;fill:color(display-p3 0.1015 0.1218 0.1458);fill-opacity:1;"/>
<path d="M25.4429 10.294H32.979C33.603 10.294 34.1094 9.78769 34.1094 9.16361C34.1094 8.53954 33.603 8.0332 32.979 8.0332H25.4429C24.8188 8.0332 24.3125 8.53954 24.3125 9.16361C24.3125 9.78769 24.8188 10.294 25.4429 10.294Z" fill="#1A1F25" style="fill:#1A1F25;fill:color(display-p3 0.1015 0.1218 0.1458);fill-opacity:1;"/>
<path d="M49.5679 10.294H57.104C57.728 10.294 58.2344 9.78769 58.2344 9.16361C58.2344 8.53954 57.728 8.0332 57.104 8.0332H49.5679C48.9438 8.0332 48.4375 8.53954 48.4375 9.16361C48.4375 9.78769 48.9438 10.294 49.5679 10.294Z" fill="#1A1F25" style="fill:#1A1F25;fill:color(display-p3 0.1015 0.1218 0.1458);fill-opacity:1;"/>
<path d="M9.69832 45.0367C9.69832 44.4126 9.19199 43.9062 8.56791 43.9062C7.94383 43.9062 7.4375 44.4126 7.4375 45.0367V52.5727C7.4375 53.1968 7.94383 53.7031 8.56791 53.7031C9.19199 53.7031 9.69832 53.1968 9.69832 52.5727V45.0367Z" fill="#1A1F25" style="fill:#1A1F25;fill:color(display-p3 0.1015 0.1218 0.1458);fill-opacity:1;"/>
<path d="M80.4327 21.2203C80.4327 20.5962 79.9264 20.0898 79.3023 20.0898C78.6782 20.0898 78.1719 20.5962 78.1719 21.2203V28.7563C78.1719 29.3804 78.6782 29.8867 79.3023 29.8867C79.9264 29.8867 80.4327 29.3804 80.4327 28.7563V21.2203Z" fill="#1A1F25" style="fill:#1A1F25;fill:color(display-p3 0.1015 0.1218 0.1458);fill-opacity:1;"/>
<path d="M80.4327 45.3374C80.4327 44.7134 79.9264 44.207 79.3023 44.207C78.6782 44.207 78.1719 44.7134 78.1719 45.3374V52.8735C78.1719 53.4976 78.6782 54.0039 79.3023 54.0039C79.9264 54.0039 80.4327 53.4976 80.4327 52.8735V45.3374Z" fill="#1A1F25" style="fill:#1A1F25;fill:color(display-p3 0.1015 0.1218 0.1458);fill-opacity:1;"/>
<path d="M79.3023 56.2637C78.6782 56.2637 78.1719 56.77 78.1719 57.3941V64.9301C78.1719 65.5542 78.6782 66.0606 79.3023 66.0606C79.9264 66.0606 80.4327 65.5542 80.4327 64.9301V57.3941C80.4327 56.77 79.9264 56.2637 79.3023 56.2637Z" fill="#1A1F25" style="fill:#1A1F25;fill:color(display-p3 0.1015 0.1218 0.1458);fill-opacity:1;"/>
<path d="M80.4327 33.2788C80.4327 32.6548 79.9264 32.1484 79.3023 32.1484C78.6782 32.1484 78.1719 32.6548 78.1719 33.2788V40.8149C78.1719 41.439 78.6782 41.9453 79.3023 41.9453C79.9264 41.9453 80.4327 41.439 80.4327 40.8149V33.2788Z" fill="#1A1F25" style="fill:#1A1F25;fill:color(display-p3 0.1015 0.1218 0.1458);fill-opacity:1;"/>
<path d="M61.6226 10.2947H69.1587C69.4148 10.2947 69.6395 10.1941 69.8291 10.0504V14.4263C69.8291 16.247 71.3098 17.7277 73.1298 17.7277H78.8435C78.985 17.7914 79.1392 17.8308 79.3044 17.8308C79.4695 17.8308 79.6238 17.7914 79.7653 17.7277H84.1174C85.9374 17.7277 87.4181 16.247 87.4181 14.4263V3.43864C87.4181 1.61939 85.9374 0.138672 84.1174 0.138672H73.1298C71.3098 0.138672 69.8291 1.61939 69.8291 3.43864V8.27821C69.6395 8.13451 69.4148 8.03387 69.1587 8.03387H61.6226C60.9985 8.03387 60.4922 8.54021 60.4922 9.16428C60.4922 9.78836 60.9985 10.2947 61.6226 10.2947Z" fill="#1A1F25" style="fill:#1A1F25;fill:color(display-p3 0.1015 0.1218 0.1458);fill-opacity:1;"/>
<path d="M8.56791 55.9648C7.94383 55.9648 7.4375 56.4712 7.4375 57.0953V64.6313C7.4375 65.2554 7.94383 65.7617 8.56791 65.7617C9.19199 65.7617 9.69832 65.2554 9.69832 64.6313V57.0953C9.69832 56.4712 9.192 55.9648 8.56791 55.9648Z" fill="#1A1F25" style="fill:#1A1F25;fill:color(display-p3 0.1015 0.1218 0.1458);fill-opacity:1;"/>
<path d="M53.5883 78.7773H46.0523C45.4282 78.7773 44.9219 79.2837 44.9219 79.9078C44.9219 80.5318 45.4282 81.0382 46.0523 81.0382H53.5883C54.2124 81.0382 54.7188 80.5318 54.7188 79.9078C54.7188 79.2837 54.2124 78.7773 53.5883 78.7773Z" fill="#1A1F25" style="fill:#1A1F25;fill:color(display-p3 0.1015 0.1218 0.1458);fill-opacity:1;"/>
<path d="M29.4712 78.7773H21.9351C21.311 78.7773 20.8047 79.2837 20.8047 79.9078C20.8047 80.5318 21.311 81.0382 21.9351 81.0382H29.4712C30.0952 81.0382 30.6016 80.5318 30.6016 79.9078C30.6016 79.2837 30.0952 78.7773 29.4712 78.7773Z" fill="#1A1F25" style="fill:#1A1F25;fill:color(display-p3 0.1015 0.1218 0.1458);fill-opacity:1;"/>
<path d="M41.5258 78.7773H33.9898C33.3657 78.7773 32.8594 79.2837 32.8594 79.9078C32.8594 80.5318 33.3657 81.0382 33.9898 81.0382H41.5258C42.1499 81.0382 42.6563 80.5318 42.6563 79.9078C42.6563 79.2837 42.1499 78.7773 41.5258 78.7773Z" fill="#1A1F25" style="fill:#1A1F25;fill:color(display-p3 0.1015 0.1218 0.1458);fill-opacity:1;"/>
<path d="M9.69832 32.98C9.69832 32.3559 9.19199 31.8496 8.56791 31.8496C7.94383 31.8496 7.4375 32.3559 7.4375 32.98V40.5161C7.4375 41.1402 7.94383 41.6465 8.56791 41.6465C9.19199 41.6465 9.69832 41.1402 9.69832 40.5161V32.98Z" fill="#1A1F25" style="fill:#1A1F25;fill:color(display-p3 0.1015 0.1218 0.1458);fill-opacity:1;"/>
<path d="M65.643 78.7773H58.107C57.4829 78.7773 56.9766 79.2837 56.9766 79.9078C56.9766 80.5318 57.4829 81.0382 58.107 81.0382H65.643C66.2671 81.0382 66.7734 80.5318 66.7734 79.9078C66.7734 79.2837 66.2671 78.7773 65.643 78.7773Z" fill="#1A1F25" style="fill:#1A1F25;fill:color(display-p3 0.1015 0.1218 0.1458);fill-opacity:1;"/>
<path d="M9.69832 20.9214C9.69832 20.2973 9.19199 19.791 8.56791 19.791C7.94383 19.791 7.4375 20.2973 7.4375 20.9214V28.4575C7.4375 29.0816 7.94383 29.5879 8.56791 29.5879C9.19199 29.5879 9.69832 29.0816 9.69832 28.4575V20.9214Z" fill="#1A1F25" style="fill:#1A1F25;fill:color(display-p3 0.1015 0.1218 0.1458);fill-opacity:1;"/>
<path d="M17.589 78.8124V74.4114C17.589 72.5922 16.1083 71.1115 14.2883 71.1115H9.70416V69.1538C9.70416 68.5298 9.19782 68.0234 8.57375 68.0234C7.94967 68.0234 7.44334 68.5298 7.44334 69.1538V71.1115H3.3007C1.48072 71.1115 0 72.5922 0 74.4114V85.4005C0 87.2198 1.48072 88.7005 3.3007 88.7005H14.2883C16.1083 88.7005 17.589 87.2198 17.589 85.4005V81.0025C18.1268 80.9157 18.545 80.4697 18.545 79.9075C18.545 79.3452 18.1268 78.8992 17.589 78.8124Z" fill="#1A1F25" style="fill:#1A1F25;fill:color(display-p3 0.1015 0.1218 0.1458);fill-opacity:1;"/>
<path d="M3.30218 17.5861H14.2847C16.1054 17.5861 17.5868 16.1054 17.5868 14.2847V10.2929H20.9273C21.5514 10.2929 22.0577 9.78658 22.0577 9.16251C22.0577 8.53843 21.5514 8.0321 20.9273 8.0321H17.5868V3.30292C17.5868 1.48219 16.1054 0 14.2847 0H3.30218C1.48145 0 0 1.48219 0 3.30292V14.2847C1.50721e-05 16.1054 1.48147 17.5861 3.30218 17.5861Z" fill="#1A1F25" style="fill:#1A1F25;fill:color(display-p3 0.1015 0.1218 0.1458);fill-opacity:1;"/>
<path d="M94.0829 76.0339L80.4341 71.0904V69.4516C80.4341 68.8276 79.9278 68.3212 79.3037 68.3212C78.6796 68.3212 78.1733 68.8276 78.1733 69.4516V70.2715L72.118 68.0784C71.0457 67.6927 69.8792 67.9503 69.0726 68.7569C68.2675 69.562 68.0077 70.7292 68.3963 71.8008L70.9231 78.7775H70.1662C69.5421 78.7775 69.0358 79.2839 69.0358 79.9079C69.0358 80.532 69.5421 81.0383 70.1662 81.0383H71.742L76.3511 93.7643C77.2556 96.2685 80.7884 96.3409 81.7831 93.8526L84.7622 86.3872C85.114 85.5055 85.8227 84.7961 86.7051 84.4428L94.1697 81.4652C95.3009 81.0148 96.0184 79.9359 95.9986 78.7186C95.9787 77.5014 95.2266 76.4475 94.0829 76.0339Z" fill="#1D5BBF" style="fill:#1D5BBF;fill:color(display-p3 0.1137 0.3569 0.7490);fill-opacity:1;"/>
<path d="M43.9045 21.457C31.177 21.457 20.8594 31.7746 20.8594 44.5022C20.8594 57.2298 31.177 67.5473 43.9045 67.5473C56.632 67.5473 66.9498 57.2298 66.9498 44.5022C66.9498 31.7746 56.632 21.457 43.9045 21.457ZM50.5374 45.632H45.0348V51.1354C45.0348 51.7595 44.5284 52.2658 43.9043 52.2658C43.2803 52.2658 42.7739 51.7595 42.7739 51.1354V45.632H37.272C36.648 45.632 36.1416 45.1257 36.1416 44.5016C36.1416 43.8776 36.648 43.3712 37.272 43.3712H42.7739V37.8693C42.7739 37.2452 43.2803 36.7389 43.9043 36.7389C44.5284 36.7389 45.0348 37.2452 45.0348 37.8693V43.3712H50.5374C51.1615 43.3712 51.6678 43.8776 51.6678 44.5016C51.6678 45.1257 51.1615 45.632 50.5374 45.632Z" fill="#1D5BBF" style="fill:#1D5BBF;fill:color(display-p3 0.1137 0.3569 0.7490);fill-opacity:1;"/>
</svg>
