<svg width="152" height="125" viewBox="0 0 152 125" fill="none" xmlns="http://www.w3.org/2000/svg">
<path d="M74.8917 124.506C109.286 124.506 137.127 96.6296 137.127 62.2701C137.127 27.9106 109.251 0 74.8917 0C40.5322 0 12.6562 27.8759 12.6562 62.2701C12.6562 96.6643 40.4975 124.506 74.8917 124.506Z" fill="url(#paint0_linear_600_13384)" style=""/>
<path d="M127.036 42.1267L73.6764 79.364L20.3516 42.1267L69.1691 8.04458C70.4866 7.10845 72.0815 6.62305 73.6764 6.62305C75.306 6.62305 76.8662 7.10845 78.1837 8.04458L87.9264 14.8402L90.4921 16.6085L116.184 34.5336L118.888 36.4406L127.036 42.1267Z" fill="url(#paint1_linear_600_13384)" style=""/>
<path d="M65.0085 73.3294L20.3516 105.089V42.125L65.0085 73.3294Z" fill="url(#paint2_linear_600_13384)" style=""/>
<path d="M20.3516 105.089L69.1344 70.4171C70.4866 69.481 72.0815 68.9609 73.7111 68.9609C75.3406 68.9609 76.9355 69.481 78.2877 70.4171L127.071 105.089H20.3516Z" fill="url(#paint3_linear_600_13384)" style=""/>
<path d="M100.652 36.995C102.143 36.995 103.183 35.9895 103.183 34.568C103.183 33.1465 102.143 32.141 100.652 32.141C99.1959 32.141 98.121 33.1465 98.121 34.568C98.121 35.9895 99.1959 36.995 100.652 36.995ZM102.698 31.2395C102.698 29.5753 103.495 28.9512 104.743 28.2925C106.408 27.4257 107.621 26.0388 107.621 24.0625C107.621 21.1154 104.813 19.0352 101.033 19.0352C97.0462 19.0352 94.2378 21.3582 93.9258 24.6519L98.5024 25.4841C98.6758 23.9585 99.5772 22.849 100.825 22.849C101.831 22.849 102.628 23.5425 102.628 24.5133C102.628 25.4841 101.762 26.0388 100.999 26.5242C99.3345 27.599 98.6411 28.8472 98.6411 31.2049H102.698V31.2395Z" fill="white" style="fill:white;fill-opacity:1;"/>
<path d="M25.969 30.7539C17.7865 34.5678 9.0146 36.9254 0 37.7229C1.2135 40.5313 9.84672 54.6773 35.469 66.3269C36.1624 66.4309 52.1807 58.9765 60.9526 53.8798C60.7099 54.2959 33.7007 44.3798 25.969 30.7539Z" fill="url(#paint4_linear_600_13384)" style=""/>
<path d="M100.372 46.2175C110.219 46.2175 118.159 38.2431 118.159 28.431C118.159 18.619 110.184 10.6445 100.372 10.6445C90.5604 10.6445 82.5859 18.619 82.5859 28.431C82.5859 38.2431 90.5257 46.2175 100.372 46.2175Z" fill="#00AEBD" style="fill:#00AEBD;fill:color(display-p3 0.0000 0.6824 0.7412);fill-opacity:1;"/>
<path d="M100.201 39.0043C102.108 39.0043 103.425 37.7215 103.425 35.8839C103.425 34.081 102.108 32.7634 100.201 32.7634C98.3283 32.7634 96.9761 34.0463 96.9761 35.8839C96.9761 37.7215 98.3283 39.0043 100.201 39.0043ZM102.801 31.6886C102.801 29.5737 103.841 28.7762 105.401 27.9441C107.516 26.8693 109.077 25.0664 109.077 22.5353C109.077 18.7561 105.505 16.1211 100.686 16.1211C95.6239 16.1211 92.0181 19.1028 91.6367 23.2981L97.4615 24.3382C97.6696 22.3966 98.8137 21.0098 100.443 21.0098C101.726 21.0098 102.732 21.9112 102.732 23.1594C102.732 24.4076 101.622 25.101 100.651 25.7251C98.5364 27.112 97.6349 28.6722 97.6349 31.6886H102.801Z" fill="white" style="fill:white;fill-opacity:1;"/>
<path d="M26.6293 37.7581C26.2479 37.4807 25.7625 37.4114 25.3464 37.5847L11.0271 42.1961C10.507 42.3694 10.3337 42.9935 10.6804 43.4096C10.9578 43.7563 11.4085 43.8603 11.8245 43.7216L26.4906 38.6942C26.9067 38.5556 26.976 38.0355 26.6293 37.7581Z" fill="#C9DFFF" style="fill:#C9DFFF;fill:color(display-p3 0.7882 0.8745 1.0000);fill-opacity:1;"/>
<path d="M26.352 43.4769C26.0053 43.1302 25.4852 43.0262 24.9998 43.1649L15.0838 46.4934C14.633 46.6321 14.4943 47.1868 14.7717 47.5335C15.0144 47.8109 15.3958 47.9496 15.7772 47.8109L26.1787 44.2744C26.5254 44.1704 26.6294 43.7196 26.352 43.4769Z" fill="#C9DFFF" style="fill:#C9DFFF;fill:color(display-p3 0.7882 0.8745 1.0000);fill-opacity:1;"/>
<path d="M31.6885 46.2872C31.3071 45.9752 30.7871 45.9058 30.3363 46.0792L18.9294 50.2398C18.4787 50.4131 18.34 50.9679 18.6867 51.3146C18.9294 51.592 19.3108 51.6613 19.6575 51.5573L31.5498 47.1887C31.8966 47.0153 32.0006 46.5299 31.6885 46.2872Z" fill="#C9DFFF" style="fill:#C9DFFF;fill:color(display-p3 0.7882 0.8745 1.0000);fill-opacity:1;"/>
<path d="M35.6784 54.8502C35.3316 54.4688 34.7769 54.3301 34.2915 54.5035L27.7732 56.9998C27.3572 57.1385 27.2185 57.6586 27.4959 58.0053C27.7386 58.3174 28.1546 58.456 28.536 58.3173L35.5397 55.613C35.7824 55.4743 35.8864 55.0929 35.6784 54.8502Z" fill="#C9DFFF" style="fill:#C9DFFF;fill:color(display-p3 0.7882 0.8745 1.0000);fill-opacity:1;"/>
<path d="M120.52 50.4473C130.436 55.0933 141.08 57.9363 152.002 58.8725C150.546 62.3049 140.04 79.4327 108.974 93.5787C108.142 93.7174 88.7262 84.6681 78.082 78.4966C78.4287 79.0166 111.159 66.9856 120.52 50.4473Z" fill="url(#paint5_linear_600_13384)" style=""/>
<path d="M119.756 58.9766C120.207 58.6646 120.796 58.5605 121.317 58.7339L138.652 64.3507C139.276 64.5587 139.484 65.3215 139.068 65.8069C138.722 66.223 138.167 66.3616 137.682 66.1883L119.895 60.0861C119.41 59.9474 119.306 59.2886 119.756 58.9766Z" fill="#C9DFFF" style="fill:#C9DFFF;fill:color(display-p3 0.7882 0.8745 1.0000);fill-opacity:1;"/>
<path d="M114.867 63.622C115.318 63.2059 115.942 63.0672 116.497 63.2753L128.493 67.3318C129.013 67.5052 129.221 68.164 128.84 68.58C128.562 68.9267 128.077 69.0654 127.626 68.9267L115.041 64.6275C114.659 64.4541 114.555 63.8994 114.867 63.622Z" fill="#C9DFFF" style="fill:#C9DFFF;fill:color(display-p3 0.7882 0.8745 1.0000);fill-opacity:1;"/>
<path d="M109.908 67.4374C110.359 67.056 110.983 66.952 111.538 67.16L125.372 72.1874C125.927 72.3954 126.065 73.0889 125.684 73.5049C125.372 73.817 124.921 73.921 124.505 73.7823L110.047 68.5122C109.631 68.3389 109.527 67.7494 109.908 67.4374Z" fill="#C9DFFF" style="fill:#C9DFFF;fill:color(display-p3 0.7882 0.8745 1.0000);fill-opacity:1;"/>
<path d="M98.6743 75.0995C99.0904 74.6141 99.7838 74.4754 100.373 74.6835L108.278 77.6999C108.764 77.8732 108.937 78.4973 108.625 78.9134C108.348 79.2948 107.828 79.4681 107.377 79.2948L98.917 76.001C98.501 75.8623 98.397 75.4116 98.6743 75.0995Z" fill="#C9DFFF" style="fill:#C9DFFF;fill:color(display-p3 0.7882 0.8745 1.0000);fill-opacity:1;"/>
<path d="M103.806 71.0062C104.257 70.7288 104.846 70.6594 105.366 70.8328L123.569 77.4897C124.158 77.6978 124.297 78.4605 123.811 78.8766C123.499 79.154 123.083 79.2233 122.702 79.0846L103.91 72.1503C103.425 71.977 103.355 71.3182 103.806 71.0062Z" fill="#C9DFFF" style="fill:#C9DFFF;fill:color(display-p3 0.7882 0.8745 1.0000);fill-opacity:1;"/>
<path d="M39.6297 48.1593C39.2483 47.9166 38.7629 47.8819 38.3468 48.0206L23.334 53.4987C22.8486 53.672 22.7446 54.2961 23.126 54.6428C23.3687 54.8509 23.7501 54.9202 24.0622 54.8162L39.5603 49.0954C39.9417 48.9567 40.0111 48.402 39.6297 48.1593Z" fill="#C9DFFF" style="fill:#C9DFFF;fill:color(display-p3 0.7882 0.8745 1.0000);fill-opacity:1;"/>
<path d="M126.447 14.6668C126.447 16.0883 125.268 17.2671 123.846 17.2671C122.425 17.2671 121.246 16.0883 121.246 14.6668C121.246 13.2452 122.425 12.0664 123.846 12.0664C125.303 12.0664 126.447 13.2452 126.447 14.6668Z" stroke="#00AEBD" style="stroke:#00AEBD;stroke:color(display-p3 0.0000 0.6824 0.7412);stroke-opacity:1;" stroke-width="1.66"/>
<path d="M31.6902 113.689C33.1264 113.689 34.2906 112.525 34.2906 111.089C34.2906 109.653 33.1264 108.488 31.6902 108.488C30.2541 108.488 29.0898 109.653 29.0898 111.089C29.0898 112.525 30.2541 113.689 31.6902 113.689Z" stroke="url(#paint6_linear_600_13384)" style="" stroke-width="1.66"/>
<path d="M111.573 118.888C113.009 118.888 114.173 117.724 114.173 116.288C114.173 114.852 113.009 113.688 111.573 113.688C110.137 113.688 108.973 114.852 108.973 116.288C108.973 117.724 110.137 118.888 111.573 118.888Z" stroke="url(#paint7_linear_600_13384)" style="" stroke-width="1.66"/>
<path d="M40.4979 17.3347C40.7752 16.1905 42.4395 16.1905 42.7168 17.3347L43.653 21.2179C43.757 21.634 44.069 21.946 44.4851 22.05L48.3683 22.9861C49.5125 23.2635 49.5125 24.9278 48.3683 25.2051L44.4851 26.1413C44.069 26.2453 43.757 26.5573 43.653 26.9734L42.7168 30.8566C42.4395 32.0007 40.7752 32.0007 40.4979 30.8566L39.5617 26.9734C39.4577 26.5573 39.1457 26.2453 38.7296 26.1413L34.8464 25.2051C33.7022 24.9278 33.7022 23.2635 34.8464 22.9861L38.7296 22.05C39.1457 21.946 39.4577 21.634 39.5617 21.2179L40.4979 17.3347Z" fill="#00AEBD" style="fill:#00AEBD;fill:color(display-p3 0.0000 0.6824 0.7412);fill-opacity:1;"/>
<path d="M135.221 99.5417C135.498 98.3976 137.162 98.3976 137.44 99.5417L138.376 103.425C138.48 103.841 138.792 104.153 139.208 104.257L143.091 105.193C144.235 105.471 144.235 107.135 143.091 107.412L139.208 108.348C138.792 108.452 138.48 108.764 138.376 109.18L137.44 113.064C137.162 114.208 135.498 114.208 135.221 113.064L134.284 109.18C134.18 108.764 133.868 108.452 133.452 108.348L129.569 107.412C128.425 107.135 128.425 105.471 129.569 105.193L133.452 104.257C133.868 104.153 134.18 103.841 134.284 103.425L135.221 99.5417Z" fill="#00AEBD" style="fill:#00AEBD;fill:color(display-p3 0.0000 0.6824 0.7412);fill-opacity:1;"/>
<path d="M14.3875 90.4245C15.1157 90.3205 15.6704 91.0139 15.4277 91.7073L13.6594 96.284C13.4167 96.9774 12.5153 97.1161 12.0299 96.5267L8.94412 92.7128C8.49339 92.1581 8.80543 91.2913 9.53353 91.1872L14.3875 90.4245Z" fill="#00AEBD" style="fill:#00AEBD;fill:color(display-p3 0.0000 0.6824 0.7412);fill-opacity:1;"/>
<path d="M137.091 43.6519C136.917 42.9585 137.576 42.2997 138.269 42.5078L142.985 43.8253C143.678 44.0333 143.921 44.9001 143.401 45.4202L139.899 48.8527C139.379 49.3727 138.512 49.13 138.339 48.4019L137.091 43.6519Z" fill="#00AEBD" style="fill:#00AEBD;fill:color(display-p3 0.0000 0.6824 0.7412);fill-opacity:1;"/>
<defs>
<linearGradient id="paint0_linear_600_13384" x1="74.4052" y1="-20.2518" x2="75.6805" y2="198.349" gradientUnits="userSpaceOnUse">
<stop stop-color="#CAE0FF" stop-opacity="0" style="stop-color:none;stop-opacity:0;"/>
<stop offset="1" stop-color="#3E3E3E" stop-opacity="0.25" style="stop-color:#3E3E3E;stop-color:color(display-p3 0.2431 0.2431 0.2431);stop-opacity:0.25;"/>
</linearGradient>
<linearGradient id="paint1_linear_600_13384" x1="73.6857" y1="6.6349" x2="73.6857" y2="79.3689" gradientUnits="userSpaceOnUse">
<stop stop-color="#EDF4FF" style="stop-color:#EDF4FF;stop-color:color(display-p3 0.9294 0.9569 1.0000);stop-opacity:1;"/>
<stop offset="1" stop-color="#ABCCFF" style="stop-color:#ABCCFF;stop-color:color(display-p3 0.6706 0.8000 1.0000);stop-opacity:1;"/>
</linearGradient>
<linearGradient id="paint2_linear_600_13384" x1="42.6786" y1="42.1417" x2="42.6786" y2="105.077" gradientUnits="userSpaceOnUse">
<stop stop-color="#ABCCFF" style="stop-color:#ABCCFF;stop-color:color(display-p3 0.6706 0.8000 1.0000);stop-opacity:1;"/>
<stop offset="1" stop-color="#74A3EC" style="stop-color:#74A3EC;stop-color:color(display-p3 0.4548 0.6389 0.9250);stop-opacity:1;"/>
</linearGradient>
<linearGradient id="paint3_linear_600_13384" x1="73.6857" y1="68.9407" x2="73.6857" y2="105.077" gradientUnits="userSpaceOnUse">
<stop stop-color="#70A8FF" style="stop-color:#70A8FF;stop-color:color(display-p3 0.4392 0.6588 1.0000);stop-opacity:1;"/>
<stop offset="1" stop-color="#1D5BBF" style="stop-color:#1D5BBF;stop-color:color(display-p3 0.1137 0.3569 0.7490);stop-opacity:1;"/>
</linearGradient>
<linearGradient id="paint4_linear_600_13384" x1="7.89287" y1="52.9939" x2="47.8308" y2="45.195" gradientUnits="userSpaceOnUse">
<stop stop-color="#C6DDFF" style="stop-color:#C6DDFF;stop-color:color(display-p3 0.7765 0.8667 1.0000);stop-opacity:1;"/>
<stop offset="1" stop-color="white" style="stop-color:white;stop-opacity:1;"/>
</linearGradient>
<linearGradient id="paint5_linear_600_13384" x1="142.444" y1="77.4458" x2="94.0169" y2="67.9895" gradientUnits="userSpaceOnUse">
<stop stop-color="#C6DDFF" style="stop-color:#C6DDFF;stop-color:color(display-p3 0.7765 0.8667 1.0000);stop-opacity:1;"/>
<stop offset="1" stop-color="white" style="stop-color:white;stop-opacity:1;"/>
</linearGradient>
<linearGradient id="paint6_linear_600_13384" x1="28.3434" y1="108.188" x2="38.6826" y2="117.148" gradientUnits="userSpaceOnUse">
<stop stop-color="#94BFFF" style="stop-color:#94BFFF;stop-color:color(display-p3 0.5804 0.7490 1.0000);stop-opacity:1;"/>
<stop offset="1" stop-color="#4C94FE" style="stop-color:#4C94FE;stop-color:color(display-p3 0.2980 0.5804 0.9961);stop-opacity:1;"/>
</linearGradient>
<linearGradient id="paint7_linear_600_13384" x1="108.218" y1="113.385" x2="118.557" y2="122.346" gradientUnits="userSpaceOnUse">
<stop stop-color="#1D5BBF" style="stop-color:#1D5BBF;stop-color:color(display-p3 0.1137 0.3569 0.7490);stop-opacity:1;"/>
<stop offset="0.73" stop-color="#00AEBD" style="stop-color:#00AEBD;stop-color:color(display-p3 0.0000 0.6824 0.7412);stop-opacity:1;"/>
</linearGradient>
</defs>
</svg>
