<svg xmlns="http://www.w3.org/2000/svg" width="578" height="445" viewBox="0 0 578 445" fill="none">
<g opacity="0.2">
<path d="M129.253 111.334C121.983 107.916 109.96 113.474 106.126 121.609C98.8085 137.136 122.477 159.625 131.084 157.211C140.702 154.514 142.601 117.611 129.253 111.334Z" stroke="#0F31AC" style="stroke:#0F31AC;stroke:color(display-p3 0.0588 0.1922 0.6745);stroke-opacity:1;" stroke-width="20" stroke-miterlimit="10" stroke-linecap="round" stroke-dasharray="50 50 50 50 50 50"/>
<path d="M92.8962 146.504C90.3016 145.004 62.8183 129.106 47.2648 141.688C36.3439 150.522 36.2394 169.406 44.4462 180.019C60.7005 201.039 111.104 191.615 116.333 176.574C119.855 166.445 103.321 152.535 92.8962 146.504Z" stroke="#0F31AC" style="stroke:#0F31AC;stroke:color(display-p3 0.0588 0.1922 0.6745);stroke-opacity:1;" stroke-width="20" stroke-miterlimit="10" stroke-linecap="round" stroke-dasharray="50 50 50 50 50 50"/>
<path d="M128.256 406.068C195.153 389.464 271.165 372.56 389.197 375.439C455.208 377.049 470.166 356.564 520.194 331.094C564.786 308.395 586.686 263.255 573.236 237.672C559.656 211.845 518.295 222.128 484.421 183.682C468.995 166.172 471.709 153.899 462.803 134.482C434.599 72.9985 328.891 24.9421 276.765 50.3749C207.899 83.9738 266.773 229.15 189.794 268.808C141.101 293.895 104.297 245.736 56.2183 282.499C32.3958 300.715 3.26001 326.267 1.00672 354.011C1.00672 354.011 -2.14823 421.843 128.256 406.068Z" stroke="#0F31AC" style="stroke:#0F31AC;stroke:color(display-p3 0.0588 0.1922 0.6745);stroke-opacity:1;" stroke-miterlimit="10" stroke-linecap="round" stroke-dasharray="50 50 50 50 50 50"/>
<path d="M497.855 330.52C497.855 330.52 485.737 346.587 473.617 368.631C462.69 388.51 454.381 415.295 452.546 437.658C447.399 437.415 441.746 437.187 435.635 436.97C399.44 435.685 347.186 434.881 289.084 434.881C223.03 434.881 164.535 435.922 128.602 437.523C127.365 437.578 126.154 437.633 124.971 437.69C80.109 382.085 -10.2291 285.211 72.9065 245.359C72.9065 245.359 78.9968 243.504 88.1278 239.52C117.027 226.907 176.414 192.966 169.808 128.972C169.808 128.972 167.558 117.03 167.558 100.414C167.558 61.5609 179.858 -2.84215 261.976 0.097211C311.705 1.87976 357.503 27.1851 385.191 67.6894C412.35 107.417 455.775 156.296 491.14 128.391C499.303 121.947 510.097 119.559 520.175 122.392C545.63 129.542 574.547 166.556 497.855 330.52Z" fill="#ACBCF8" style="fill:#ACBCF8;fill:color(display-p3 0.6745 0.7373 0.9725);fill-opacity:1;"/>
</g>
<path opacity="0.15" d="M563.885 439.823C563.885 442.452 440.851 444.584 289.079 444.584C203.445 444.584 126.959 443.906 76.5595 442.841C64.951 442.596 54.728 442.331 46.096 442.049C40.4101 441.863 35.4145 441.669 31.1677 441.469C20.2412 440.957 14.2734 440.402 14.2734 439.823C14.2734 439.085 23.9594 438.386 41.2471 437.763C48.3269 437.508 56.6807 437.265 66.1666 437.039C116.079 435.841 197.328 435.062 289.079 435.062C369.785 435.062 442.366 435.664 492.642 436.624C536.91 437.47 563.885 438.592 563.885 439.823Z" fill="#040C2B" style="fill:#040C2B;fill:color(display-p3 0.0157 0.0471 0.1686);fill-opacity:1;"/>
<path d="M377.462 90.188L359.459 123.923C358.777 125.201 357.189 125.684 355.911 125.002L326.08 109.083C324.802 108.401 324.319 106.813 325.001 105.535L346.316 65.5906C346.998 64.3128 348.587 63.8295 349.865 64.5115L373.332 77.0343L373.406 77.2691L377.462 90.188Z" fill="#E3E9F7" style="fill:#E3E9F7;fill:color(display-p3 0.8902 0.9137 0.9686);fill-opacity:1;"/>
<path opacity="0.1" d="M377.457 90.1885L370.818 86.6455C369.777 86.0904 369.384 84.7971 369.939 83.7568L373.401 77.2695L377.457 90.1885Z" fill="black" style="fill:black;fill-opacity:1;"/>
<path d="M348.308 96.7771L348.873 95.7177C349.362 94.8014 349.982 94.109 350.736 93.6401C351.488 93.1714 352.589 92.8329 354.036 92.6244C355.421 92.4434 356.392 92.214 356.951 91.9359C357.51 91.658 357.938 91.2422 358.233 90.6887C358.564 90.0683 358.587 89.4738 358.302 88.9047C358.017 88.3359 357.464 87.8321 356.643 87.3943C355.212 86.6302 353.33 86.2272 350.999 86.1845L351.111 82.2166C353.876 82.1593 356.452 82.7673 358.838 84.0405C360.804 85.0897 362.115 86.3961 362.77 87.9598C363.425 89.5235 363.333 91.0927 362.492 92.6674C361.932 93.7173 361.21 94.4966 360.325 95.0054C359.44 95.5144 358.075 95.8896 356.23 96.1308C354.952 96.3196 354.097 96.5256 353.666 96.7487C353.234 96.972 352.865 97.3699 352.56 97.9426L352.101 98.8015L348.308 96.7771ZM345.237 101.429C345.664 100.627 346.203 100.136 346.851 99.9544C347.499 99.7734 348.234 99.9015 349.055 100.34C349.847 100.762 350.348 101.299 350.558 101.951C350.768 102.603 350.665 103.32 350.247 104.103C349.845 104.857 349.308 105.334 348.638 105.534C347.967 105.733 347.24 105.625 346.458 105.207C345.656 104.779 345.149 104.236 344.937 103.577C344.724 102.918 344.824 102.202 345.237 101.429Z" fill="#CDD7FB" style="fill:#CDD7FB;fill:color(display-p3 0.8039 0.8431 0.9843);fill-opacity:1;"/>
<path d="M132.264 269.351L110.983 302.004C110.177 303.241 108.521 303.59 107.284 302.784L78.4093 283.966C77.1724 283.16 76.8231 281.504 77.6292 280.267L102.827 241.604C103.633 240.367 105.289 240.017 106.526 240.824L129.24 255.627L129.294 255.872L132.264 269.351Z" fill="#E3E9F7" style="fill:#E3E9F7;fill:color(display-p3 0.8902 0.9137 0.9686);fill-opacity:1;"/>
<path opacity="0.1" d="M132.266 269.35L125.84 265.162C124.833 264.505 124.549 263.157 125.205 262.15L129.297 255.871L132.266 269.35Z" fill="black" style="fill:black;fill-opacity:1;"/>
<path d="M109.149 284.595L105.299 282.086L105.521 273.662L97.9037 277.266L94.293 274.913L104.912 270.15L104.992 259.232L108.712 261.656L108.41 269.61L115.498 266.079L119.131 268.447L109 273.078L109.149 284.595Z" fill="#CDD7FB" style="fill:#CDD7FB;fill:color(display-p3 0.8039 0.8431 0.9843);fill-opacity:1;"/>
<path d="M502.168 165.942L516.128 202.331C516.657 203.71 515.968 205.256 514.589 205.785L482.411 218.129C481.033 218.658 479.486 217.969 478.958 216.591L462.428 173.503C461.899 172.125 462.588 170.579 463.967 170.05L489.28 160.339L489.51 160.439L502.168 165.942Z" fill="#E3E9F7" style="fill:#E3E9F7;fill:color(display-p3 0.8902 0.9137 0.9686);fill-opacity:1;"/>
<path opacity="0.1" d="M502.173 165.941L495.011 168.689C493.889 169.119 492.63 168.558 492.2 167.436L489.516 160.438L502.173 165.941Z" fill="black" style="fill:black;fill-opacity:1;"/>
<path d="M498.902 197.293L496.177 198.338L492.369 196.235L490.944 200.346L488.389 201.326L490.496 195.658L485.477 193.021L488.109 192.011L491.667 194.036L492.911 190.169L495.482 189.183L493.512 194.611L498.902 197.293Z" fill="#CDD7FB" style="fill:#CDD7FB;fill:color(display-p3 0.8039 0.8431 0.9843);fill-opacity:1;"/>
<path d="M497.73 172.841L472.857 182.383C472.56 182.497 472.227 182.348 472.113 182.051C471.999 181.753 472.147 181.42 472.444 181.306L497.317 171.764C497.615 171.65 497.948 171.798 498.062 172.096C498.176 172.393 498.028 172.727 497.73 172.841Z" fill="#CDD7FB" style="fill:#CDD7FB;fill:color(display-p3 0.8039 0.8431 0.9843);fill-opacity:1;"/>
<path d="M498.805 175.528L473.932 185.07C473.634 185.184 473.301 185.036 473.187 184.738C473.073 184.441 473.221 184.108 473.519 183.993L498.392 174.452C498.689 174.337 499.022 174.486 499.136 174.783C499.251 175.081 499.102 175.414 498.805 175.528Z" fill="#CDD7FB" style="fill:#CDD7FB;fill:color(display-p3 0.8039 0.8431 0.9843);fill-opacity:1;"/>
<path d="M499.883 178.218L475.01 187.759C474.712 187.874 474.379 187.725 474.265 187.428C474.151 187.13 474.299 186.797 474.597 186.683L499.47 177.141C499.767 177.027 500.101 177.175 500.215 177.473C500.329 177.77 500.18 178.104 499.883 178.218Z" fill="#CDD7FB" style="fill:#CDD7FB;fill:color(display-p3 0.8039 0.8431 0.9843);fill-opacity:1;"/>
<path d="M500.953 180.908L476.08 190.45C475.783 190.564 475.449 190.415 475.335 190.118C475.221 189.821 475.37 189.487 475.667 189.373L500.54 179.831C500.837 179.717 501.171 179.866 501.285 180.163C501.399 180.461 501.25 180.794 500.953 180.908Z" fill="#CDD7FB" style="fill:#CDD7FB;fill:color(display-p3 0.8039 0.8431 0.9843);fill-opacity:1;"/>
<path d="M501.824 183.685L476.951 193.227C476.654 193.341 476.32 193.193 476.206 192.895C476.092 192.598 476.241 192.265 476.538 192.151L501.411 182.609C501.708 182.495 502.042 182.643 502.156 182.941C502.27 183.238 502.121 183.571 501.824 183.685Z" fill="#CDD7FB" style="fill:#CDD7FB;fill:color(display-p3 0.8039 0.8431 0.9843);fill-opacity:1;"/>
<path d="M138.013 364.858L153.713 400.531C154.308 401.883 153.694 403.46 152.343 404.055L120.798 417.938C119.446 418.533 117.869 417.92 117.274 416.568L98.6842 374.329C98.0895 372.977 98.7028 371.4 100.054 370.805L124.869 359.884L125.104 359.973L138.013 364.858Z" fill="#E3E9F7" style="fill:#E3E9F7;fill:color(display-p3 0.8902 0.9137 0.9686);fill-opacity:1;"/>
<path opacity="0.1" d="M138.014 364.858L130.993 367.948C129.893 368.432 128.609 367.933 128.125 366.833L125.105 359.973L138.014 364.858Z" fill="black" style="fill:black;fill-opacity:1;"/>
<path d="M136.26 396.326L133.589 397.502L129.684 395.585L128.459 399.76L125.954 400.862L127.786 395.099L122.645 392.707L125.225 391.572L128.876 393.423L129.933 389.5L132.453 388.391L130.747 393.908L136.26 396.326Z" fill="#CDD7FB" style="fill:#CDD7FB;fill:color(display-p3 0.8039 0.8431 0.9843);fill-opacity:1;"/>
<path d="M133.911 371.96L109.528 382.691C109.236 382.82 108.896 382.687 108.768 382.396C108.639 382.104 108.772 381.764 109.063 381.636L133.447 370.904C133.738 370.776 134.078 370.909 134.207 371.2C134.335 371.491 134.203 371.832 133.911 371.96Z" fill="#CDD7FB" style="fill:#CDD7FB;fill:color(display-p3 0.8039 0.8431 0.9843);fill-opacity:1;"/>
<path d="M135.114 374.594L110.731 385.325C110.439 385.453 110.099 385.321 109.971 385.029C109.843 384.738 109.975 384.398 110.266 384.27L134.65 373.538C134.941 373.41 135.282 373.542 135.41 373.834C135.538 374.125 135.406 374.465 135.114 374.594Z" fill="#CDD7FB" style="fill:#CDD7FB;fill:color(display-p3 0.8039 0.8431 0.9843);fill-opacity:1;"/>
<path d="M136.313 377.228L111.93 387.959C111.639 388.087 111.298 387.955 111.17 387.663C111.042 387.372 111.174 387.032 111.466 386.903L135.849 376.172C136.14 376.044 136.481 376.176 136.609 376.468C136.737 376.759 136.605 377.099 136.313 377.228Z" fill="#CDD7FB" style="fill:#CDD7FB;fill:color(display-p3 0.8039 0.8431 0.9843);fill-opacity:1;"/>
<path d="M137.517 379.862L113.133 390.594C112.842 390.722 112.501 390.59 112.373 390.298C112.245 390.007 112.377 389.667 112.669 389.538L137.052 378.807C137.344 378.679 137.684 378.811 137.812 379.102C137.94 379.394 137.808 379.734 137.517 379.862Z" fill="#CDD7FB" style="fill:#CDD7FB;fill:color(display-p3 0.8039 0.8431 0.9843);fill-opacity:1;"/>
<path d="M138.52 382.594L114.137 393.325C113.846 393.453 113.505 393.321 113.377 393.03C113.249 392.738 113.381 392.398 113.673 392.27L138.056 381.538C138.347 381.41 138.688 381.542 138.816 381.834C138.944 382.125 138.812 382.465 138.52 382.594Z" fill="#CDD7FB" style="fill:#CDD7FB;fill:color(display-p3 0.8039 0.8431 0.9843);fill-opacity:1;"/>
<path d="M246.989 107.333L262.689 143.007C263.284 144.358 262.671 145.936 261.319 146.531L229.774 160.414C228.423 161.009 226.845 160.395 226.251 159.044L207.661 116.804C207.066 115.453 207.679 113.875 209.031 113.281L233.846 102.359L234.081 102.448L246.989 107.333Z" fill="#E3E9F7" style="fill:#E3E9F7;fill:color(display-p3 0.8902 0.9137 0.9686);fill-opacity:1;"/>
<path opacity="0.1" d="M246.991 107.335L239.97 110.424C238.87 110.909 237.585 110.409 237.101 109.309L234.082 102.449L246.991 107.335Z" fill="black" style="fill:black;fill-opacity:1;"/>
<path d="M245.233 138.805L242.562 139.98L238.657 138.064L237.432 142.238L234.927 143.341L236.759 137.578L231.617 135.186L234.197 134.05L237.849 135.901L238.905 131.978L241.425 130.869L239.719 136.386L245.233 138.805Z" fill="#CDD7FB" style="fill:#CDD7FB;fill:color(display-p3 0.8039 0.8431 0.9843);fill-opacity:1;"/>
<path d="M242.88 114.439L218.496 125.171C218.205 125.299 217.865 125.167 217.736 124.875C217.608 124.584 217.741 124.244 218.032 124.115L242.415 113.384C242.707 113.256 243.047 113.388 243.175 113.679C243.304 113.971 243.171 114.311 242.88 114.439Z" fill="#CDD7FB" style="fill:#CDD7FB;fill:color(display-p3 0.8039 0.8431 0.9843);fill-opacity:1;"/>
<path d="M244.083 117.073L219.7 127.805C219.408 127.933 219.068 127.801 218.94 127.509C218.811 127.218 218.944 126.877 219.235 126.749L243.619 116.018C243.91 115.889 244.25 116.022 244.379 116.313C244.507 116.605 244.374 116.945 244.083 117.073Z" fill="#CDD7FB" style="fill:#CDD7FB;fill:color(display-p3 0.8039 0.8431 0.9843);fill-opacity:1;"/>
<path d="M245.282 119.707L220.899 130.438C220.607 130.567 220.267 130.434 220.139 130.143C220.011 129.851 220.143 129.511 220.434 129.383L244.818 118.652C245.109 118.523 245.449 118.656 245.578 118.947C245.706 119.238 245.574 119.579 245.282 119.707Z" fill="#CDD7FB" style="fill:#CDD7FB;fill:color(display-p3 0.8039 0.8431 0.9843);fill-opacity:1;"/>
<path d="M246.485 122.342L222.102 133.073C221.81 133.201 221.47 133.069 221.342 132.778C221.214 132.486 221.346 132.146 221.637 132.018L246.021 121.286C246.312 121.158 246.653 121.29 246.781 121.582C246.909 121.873 246.777 122.213 246.485 122.342Z" fill="#CDD7FB" style="fill:#CDD7FB;fill:color(display-p3 0.8039 0.8431 0.9843);fill-opacity:1;"/>
<path d="M247.489 125.073L223.106 135.805C222.814 135.933 222.474 135.8 222.346 135.509C222.218 135.218 222.35 134.877 222.641 134.749L247.025 124.018C247.316 123.889 247.656 124.022 247.785 124.313C247.913 124.605 247.781 124.945 247.489 125.073Z" fill="#CDD7FB" style="fill:#CDD7FB;fill:color(display-p3 0.8039 0.8431 0.9843);fill-opacity:1;"/>
<path d="M411.018 206.895H167.152V383.852H411.018V206.895Z" fill="#E3E9F7" style="fill:#E3E9F7;fill:color(display-p3 0.8902 0.9137 0.9686);fill-opacity:1;"/>
<path d="M411.01 184.68H167.238V206.943H411.01V184.68Z" fill="#ACBCF8" style="fill:#ACBCF8;fill:color(display-p3 0.6745 0.7373 0.9725);fill-opacity:1;"/>
<path d="M178.512 198.336C180.581 198.336 182.258 196.741 182.258 194.774C182.258 192.807 180.581 191.212 178.512 191.212C176.443 191.212 174.766 192.807 174.766 194.774C174.766 196.741 176.443 198.336 178.512 198.336Z" fill="#E3E9F7" style="fill:#E3E9F7;fill:color(display-p3 0.8902 0.9137 0.9686);fill-opacity:1;"/>
<path d="M189.438 198.336C191.507 198.336 193.184 196.741 193.184 194.774C193.184 192.807 191.507 191.212 189.438 191.212C187.369 191.212 185.691 192.807 185.691 194.774C185.691 196.741 187.369 198.336 189.438 198.336Z" fill="#E3E9F7" style="fill:#E3E9F7;fill:color(display-p3 0.8902 0.9137 0.9686);fill-opacity:1;"/>
<path d="M200.363 198.336C202.432 198.336 204.11 196.741 204.11 194.774C204.11 192.807 202.432 191.212 200.363 191.212C198.294 191.212 196.617 192.807 196.617 194.774C196.617 196.741 198.294 198.336 200.363 198.336Z" fill="#E3E9F7" style="fill:#E3E9F7;fill:color(display-p3 0.8902 0.9137 0.9686);fill-opacity:1;"/>
<path d="M403.679 216H174.488V374.327H403.679V216Z" fill="#F4F6FC" style="fill:#F4F6FC;fill:color(display-p3 0.9569 0.9647 0.9882);fill-opacity:1;"/>
<path d="M325.105 266.587V336.199C325.105 338.836 322.968 340.974 320.331 340.974H258.775C256.138 340.974 254 338.836 254 336.199V253.775C254 251.138 256.138 249 258.775 249H307.199L307.518 249.314L325.105 266.587Z" fill="#ACBCF8" style="fill:#ACBCF8;fill:color(display-p3 0.6745 0.7373 0.9725);fill-opacity:1;"/>
<path opacity="0.15" d="M325.099 266.587H311.398C309.252 266.587 307.512 264.846 307.512 262.7V249.313L325.099 266.587Z" fill="black" style="fill:black;fill-opacity:1;"/>
<path d="M268.86 299H266.473L262.618 292.297H262.564C262.64 293.481 262.679 294.325 262.679 294.831V299H261V290.14H263.37L267.218 296.776H267.26C267.2 295.624 267.17 294.81 267.17 294.334V290.14H268.861L268.86 299Z" fill="white" style="fill:white;fill-opacity:1;"/>
<path d="M279.135 294.557C279.135 296.024 278.772 297.151 278.044 297.939C277.317 298.727 276.275 299.121 274.917 299.121C273.56 299.121 272.517 298.727 271.79 297.939C271.063 297.151 270.699 296.02 270.699 294.545C270.699 293.071 271.064 291.945 271.793 291.167C272.523 290.389 273.568 290 274.929 290C276.291 290 277.332 290.392 278.054 291.176C278.775 291.96 279.135 293.087 279.135 294.557ZM272.669 294.557C272.669 295.547 272.857 296.293 273.233 296.794C273.608 297.295 274.17 297.545 274.917 297.545C276.416 297.545 277.166 296.549 277.166 294.557C277.166 292.562 276.42 291.564 274.929 291.564C274.182 291.564 273.618 291.815 273.238 292.318C272.859 292.821 272.669 293.568 272.669 294.557Z" fill="white" style="fill:white;fill-opacity:1;"/>
<path d="M291.547 294.485C291.547 295.943 291.131 297.061 290.301 297.836C289.471 298.612 288.272 299 286.704 299H284.195V290.14H286.977C288.423 290.14 289.547 290.522 290.347 291.285C291.147 292.049 291.547 293.115 291.547 294.485ZM289.595 294.533C289.595 292.63 288.755 291.679 287.074 291.679H286.074V297.448H286.88C288.69 297.448 289.595 296.477 289.595 294.533Z" fill="white" style="fill:white;fill-opacity:1;"/>
<path d="M298.801 298.999L298.159 296.89H294.928L294.286 298.999H292.262L295.389 290.103H297.686L300.825 298.999H298.801ZM297.71 295.315C297.116 293.403 296.782 292.323 296.707 292.072C296.632 291.822 296.579 291.624 296.547 291.478C296.413 291.995 296.031 293.274 295.401 295.315H297.71Z" fill="white" style="fill:white;fill-opacity:1;"/>
<path d="M305.359 299H303.48V291.703H301.074V290.14H307.765V291.703H305.359V299Z" fill="white" style="fill:white;fill-opacity:1;"/>
<path d="M314.555 298.999L313.912 296.89H310.682L310.04 298.999H308.016L311.143 290.103H313.44L316.579 298.999H314.555ZM313.464 295.315C312.87 293.403 312.536 292.323 312.461 292.072C312.386 291.822 312.333 291.624 312.3 291.478C312.167 291.995 311.785 293.274 311.155 295.315H313.464Z" fill="white" style="fill:white;fill-opacity:1;"/>
</svg>