<svg width="26" height="31" viewBox="0 0 26 31" fill="none" xmlns="http://www.w3.org/2000/svg">
<path d="M24.3904 21.487C22.5004 19.8895 21.4166 17.5545 21.4166 15.0807V11.5957C21.4166 7.19695 18.1491 3.5557 13.9166 2.9457V1.5957C13.9166 0.904453 13.3566 0.345703 12.6666 0.345703C11.9766 0.345703 11.4166 0.904453 11.4166 1.5957V2.9457C7.18288 3.5557 3.91663 7.19695 3.91663 11.5957V15.0807C3.91663 17.5545 2.83288 19.8895 0.931626 21.497C0.445376 21.9132 0.166626 22.5182 0.166626 23.1582C0.166626 24.3645 1.14788 25.3457 2.35413 25.3457H22.9791C24.1854 25.3457 25.1666 24.3645 25.1666 23.1582C25.1666 22.5182 24.8879 21.9132 24.3904 21.487Z" fill="#00AEBD" style="fill:#00AEBD;fill:color(display-p3 0.0000 0.6824 0.7412);fill-opacity:1;"/>
<path d="M12.6666 30.3457C14.9303 30.3457 16.8241 28.732 17.2591 26.5957H8.0741C8.5091 28.732 10.4028 30.3457 12.6666 30.3457Z" fill="#00AEBD" style="fill:#00AEBD;fill:color(display-p3 0.0000 0.6824 0.7412);fill-opacity:1;"/>
</svg>
