<svg width="23" height="21" viewBox="0 0 23 21" fill="none" xmlns="http://www.w3.org/2000/svg">
<path d="M18.5409 11.0391C17.4463 11.0391 16.5577 11.9278 16.5577 13.0224C16.5577 14.1169 17.4463 15.0056 18.5409 15.0056C19.6354 15.0056 20.5241 14.1169 20.5241 13.0224C20.5295 11.9278 19.6408 11.0391 18.5409 11.0391ZM16.6823 11.1584C17.7118 10.1288 19.3753 10.1288 20.4049 11.1584C21.4344 12.1879 21.4344 13.8514 20.4049 14.8809C19.3753 15.9105 17.7064 15.9105 16.6823 14.8809C15.6528 13.8568 15.6528 12.1879 16.6823 11.1584ZM22.1822 13.0224C22.1822 11.0121 20.5512 9.38106 18.5409 9.38106C17.132 9.38106 15.8478 10.1938 15.2464 11.4726C15.1922 11.5918 15.073 11.6569 14.9538 11.6569H8.47855L6.67416 13.044L8.47313 14.3933H9.26425L9.78443 13.4938C9.90906 13.277 10.2233 13.277 10.348 13.4992L10.8627 14.3933H11.7297L12.2499 13.4938C12.3745 13.277 12.6888 13.277 12.8134 13.4992L13.3282 14.3933H14.9538C15.0946 14.3933 15.2084 14.4799 15.2572 14.5992C15.5552 15.2169 16.0212 15.7371 16.5956 16.1055C18.0261 17.0158 19.9118 16.8099 21.1201 15.6016C21.7758 14.9405 22.1822 14.0302 22.1822 13.0224ZM21.5753 9.98794C23.2496 11.6677 23.2496 14.3824 21.5753 16.0622C20.4374 17.2001 18.7414 17.6173 17.1808 17.1025V18.1538C17.1808 18.3326 17.0345 18.4789 16.8557 18.4789H16.2217V20.1749C16.2217 20.3537 16.0754 20.5 15.8966 20.5H2.24176C2.06295 20.5 1.91664 20.3537 1.91664 20.1749V6.30331H0.832928C0.654114 6.30331 0.507812 6.157 0.507812 5.97819V2.32064C0.507812 1.31821 1.32602 0.5 2.32846 0.5H15.3656C16.368 0.5 17.1862 1.31821 17.1862 2.32064V8.95299C18.7468 8.42739 20.4428 8.85004 21.5753 9.98794ZM16.536 16.8208C15.7828 16.4198 15.1597 15.8021 14.7533 15.0435H13.144C13.0302 15.0435 12.9218 14.9839 12.8622 14.8809L12.5317 14.3066L12.2174 14.8538C12.1686 14.9676 12.0548 15.0435 11.9194 15.0435H10.6731C10.5593 15.0435 10.4509 14.9839 10.3913 14.8809L10.0608 14.3066L9.7465 14.8538C9.69773 14.9676 9.58394 15.0435 9.4539 15.0435H8.37018C8.30516 15.0435 8.23472 15.0218 8.17511 14.9785L5.95891 13.315C5.7801 13.1903 5.76384 12.9302 5.94265 12.7894L8.14802 11.0879C8.20762 11.0337 8.28348 11.0066 8.36476 11.0066H14.7479C15.1543 10.248 15.7774 9.63032 16.5306 9.22934V2.31523C16.5306 1.64332 15.9616 1.10688 15.2897 1.15023C15.268 1.15023 15.2518 1.15023 15.2301 1.15023H3.72103C3.99738 1.47535 4.1491 1.89258 4.1491 2.32064V17.8286H16.536V16.8208ZM11.9139 7.26781C12.0927 7.26781 12.2391 7.41411 12.2391 7.59293C12.2391 7.77174 12.0927 7.91804 11.9139 7.91804H6.17565C5.99684 7.91804 5.85054 7.77174 5.85054 7.59293C5.85054 7.41411 5.99684 7.26781 6.17565 7.26781H11.9139ZM10.4022 9.3919C10.581 9.3919 10.7273 9.5382 10.7273 9.71701C10.7273 9.89583 10.581 10.0421 10.4022 10.0421H6.17565C5.99684 10.0421 5.85054 9.89583 5.85054 9.71701C5.85054 9.5382 5.99684 9.3919 6.17565 9.3919H10.4022ZM13.5666 5.14915C13.7454 5.14915 13.8917 5.29545 13.8917 5.47426C13.8917 5.65307 13.7454 5.79938 13.5666 5.79938H6.17565C5.99684 5.79938 5.85054 5.65307 5.85054 5.47426C5.85054 5.29545 5.99684 5.14915 6.17565 5.14915H13.5666ZM14.775 3.02506C14.9538 3.02506 15.1001 3.17136 15.1001 3.35018C15.1001 3.52899 14.9538 3.67529 14.775 3.67529H6.17565C5.99684 3.67529 5.85054 3.52899 5.85054 3.35018C5.85054 3.17136 5.99684 3.02506 6.17565 3.02506H14.775ZM15.5769 18.4734H3.82399C3.64517 18.4734 3.49887 18.3271 3.49887 18.1483V2.91669H2.56688V19.8389H15.5715V18.4734H15.5769ZM1.91664 5.65307V2.59157C1.91664 2.41276 2.06295 2.26646 2.24176 2.26646H3.49345C3.46636 1.64874 2.96785 1.15023 2.32846 1.15023C1.68365 1.15023 1.15804 1.67583 1.15804 2.32064V5.65307H1.91664Z" fill="#18283D"/>
</svg>
