<svg width="118" height="45" viewBox="0 0 118 45" fill="none" xmlns="http://www.w3.org/2000/svg">
<path d="M57.5742 31.5003H71.0202V27.4503H62.3532V12.1953H57.5742V31.5003Z" fill="#340E0E" style="fill:#340E0E;fill:color(display-p3 0.2039 0.0549 0.0549);fill-opacity:1;"/>
<path d="M78.9882 28.7989C77.0712 28.7989 76.0722 27.1249 76.0722 24.6139C76.0722 22.1029 77.0712 20.4019 78.9882 20.4019C80.9052 20.4019 81.9312 22.1029 81.9312 24.6139C81.9312 27.1249 80.9052 28.7989 78.9882 28.7989ZM79.0152 31.9309C83.4702 31.9309 86.3862 28.7719 86.3862 24.6139C86.3862 20.4559 83.4702 17.2969 79.0152 17.2969C74.5872 17.2969 71.6172 20.4559 71.6172 24.6139C71.6172 28.7719 74.5872 31.9309 79.0152 31.9309Z" fill="#340E0E" style="fill:#340E0E;fill:color(display-p3 0.2039 0.0549 0.0549);fill-opacity:1;"/>
<path d="M94.0939 36.2775C96.1459 36.2775 97.9549 35.8185 99.1699 34.7385C100.277 33.7395 101.006 32.2275 101.006 30.1485V17.6745H96.7939V19.1595H96.7399C95.9299 17.9985 94.6879 17.2695 92.8519 17.2695C89.4229 17.2695 87.0469 20.1315 87.0469 24.1815C87.0469 28.4205 89.9359 30.7425 93.0409 30.7425C94.7149 30.7425 95.7679 30.0675 96.5779 29.1495H96.6859V30.5265C96.6859 32.2005 95.9029 33.1725 94.0399 33.1725C92.5819 33.1725 91.8529 32.5515 91.6099 31.8225H87.3439C87.7759 34.7115 90.2869 36.2775 94.0939 36.2775ZM94.0669 27.4755C92.4199 27.4755 91.3399 26.1255 91.3399 24.0465C91.3399 21.9405 92.4199 20.5905 94.0669 20.5905C95.9029 20.5905 96.8749 22.1565 96.8749 24.0195C96.8749 25.9635 95.9839 27.4755 94.0669 27.4755Z" fill="#340E0E" style="fill:#340E0E;fill:color(display-p3 0.2039 0.0549 0.0549);fill-opacity:1;"/>
<path d="M109.668 28.7989C107.751 28.7989 106.752 27.1249 106.752 24.6139C106.752 22.1029 107.751 20.4019 109.668 20.4019C111.585 20.4019 112.611 22.1029 112.611 24.6139C112.611 27.1249 111.585 28.7989 109.668 28.7989ZM109.695 31.9309C114.15 31.9309 117.066 28.7719 117.066 24.6139C117.066 20.4559 114.15 17.2969 109.695 17.2969C105.267 17.2969 102.297 20.4559 102.297 24.6139C102.297 28.7719 105.267 31.9309 109.695 31.9309Z" fill="#340E0E" style="fill:#340E0E;fill:color(display-p3 0.2039 0.0549 0.0549);fill-opacity:1;"/>
<path fill-rule="evenodd" clip-rule="evenodd" d="M22.5 45C34.9265 45 45.0001 34.9264 45.0001 22.5C45.0001 10.0736 34.9265 0 22.5 0C10.0736 0 0 10.0736 0 22.5C0 34.9264 10.0736 45 22.5 45ZM29.5193 10.4815C29.8609 9.26781 28.6832 8.55015 27.6075 9.31647L12.5923 20.0133C11.4258 20.8443 11.6092 22.5 12.8679 22.5H16.8218V22.4694H24.5279L18.2489 24.6848L15.4808 34.5186C15.1392 35.7322 16.3168 36.4499 17.3925 35.6835L32.4078 24.9868C33.5743 24.1558 33.3907 22.5 32.1322 22.5H26.1362L29.5193 10.4815Z" fill="#F15757" style="fill:#F15757;fill:color(display-p3 0.9451 0.3412 0.3412);fill-opacity:1;"/>
</svg>
