<svg width="24" height="23" viewBox="0 0 24 23" fill="none" xmlns="http://www.w3.org/2000/svg">
<path d="M12.0346 1.47474L15.3645 7.93999L22.5303 9.16844L17.4144 14.3344L18.4571 21.5267L11.9623 18.2602L5.44397 21.4736L6.54117 14.2887L1.47397 9.07996L8.64857 7.90754L12.0346 1.47474ZM12.0346 0C11.4875 0 10.986 0.303796 10.7294 0.78751L7.68557 6.56848L1.23801 7.62292C0.693831 7.71288 0.247006 8.09483 0.0744622 8.61689C-0.098082 9.13747 0.0346364 9.71262 0.416593 10.1078L4.97352 14.7916L3.98545 21.2524C3.90139 21.7951 4.1285 22.3393 4.57239 22.6638C4.83047 22.8525 5.13575 22.9484 5.44397 22.9484C5.66518 22.9484 5.89082 22.8982 6.09434 22.7965L11.9564 19.9075L17.7949 22.8437C18.0028 22.9484 18.2299 23 18.4571 23C18.7594 23 19.0617 22.9071 19.3183 22.7227C19.7651 22.4013 19.9952 21.8585 19.9156 21.3158L18.9791 14.8491L23.5773 10.2067C23.9637 9.81585 24.1009 9.24218 23.9342 8.71865C23.7661 8.19512 23.3207 7.80726 22.7795 7.71435L16.3364 6.60977L13.3456 0.799307C13.0934 0.311169 12.5906 0.00294947 12.0405 0C12.0405 0 12.0375 0 12.0346 0Z" fill="#FFBB00" style="fill:#FFBB00;fill:color(display-p3 1.0000 0.7333 0.0000);fill-opacity:1;"/>
</svg>
