<svg width="6" height="9" viewBox="0 0 6 9" fill="none" xmlns="http://www.w3.org/2000/svg">
<path d="M5.46282 4.52019C5.46332 4.60437 5.44703 4.68781 5.41492 4.76574C5.3828 4.84366 5.33547 4.91454 5.27565 4.97431L1.40317 8.8119C1.28164 8.93234 1.1168 9 0.944929 9C0.773055 9 0.60822 8.93234 0.486686 8.8119C0.365152 8.69146 0.296875 8.52811 0.296875 8.35778C0.296875 8.18746 0.365152 8.02411 0.486686 7.90367L3.90738 4.52019L0.49314 1.13671C0.387404 1.01436 0.332153 0.856966 0.338427 0.695994C0.344701 0.535023 0.412039 0.382324 0.526983 0.268415C0.641928 0.154507 0.796013 0.0877762 0.958449 0.0815592C1.12088 0.0753412 1.2797 0.130094 1.40317 0.234877L5.27565 4.07247C5.39489 4.1916 5.46211 4.3524 5.46282 4.52019Z" fill="black"/>
</svg>
