<svg width="18" height="20" viewBox="0 0 18 20" fill="none" xmlns="http://www.w3.org/2000/svg">
<path d="M14.1338 13.4529C13.1755 13.4529 12.3122 13.8667 11.713 14.525L6.32339 11.187C6.46729 10.8186 6.54709 10.4185 6.54709 10C6.54709 9.5813 6.46729 9.18121 6.32339 8.81302L11.713 5.47485C12.3122 6.13312 13.1755 6.54709 14.1338 6.54709C15.9389 6.54709 17.4074 5.07858 17.4074 3.27347C17.4074 1.46835 15.9389 0 14.1338 0C12.3286 0 10.8601 1.46851 10.8601 3.27362C10.8601 3.69217 10.9401 4.09225 11.0838 4.4606L5.69443 7.79861C5.09521 7.14035 4.23187 6.72638 3.27362 6.72638C1.46851 6.72638 0 8.19504 0 10C0 11.8051 1.46851 13.2736 3.27362 13.2736C4.23187 13.2736 5.09521 12.8598 5.69443 12.2014L11.0838 15.5394C10.9401 15.9077 10.8601 16.3078 10.8601 16.7265C10.8601 18.5315 12.3286 20 14.1338 20C15.9389 20 17.4074 18.5315 17.4074 16.7265C17.4074 14.9214 15.9389 13.4529 14.1338 13.4529ZM12.0538 3.27362C12.0538 2.12677 12.9869 1.1937 14.1338 1.1937C15.2806 1.1937 16.2137 2.12677 16.2137 3.27362C16.2137 4.42047 15.2806 5.35355 14.1338 5.35355C12.9869 5.35355 12.0538 4.42047 12.0538 3.27362ZM3.27362 12.0799C2.12662 12.0799 1.19354 11.1469 1.19354 10C1.19354 8.85315 2.12662 7.92007 3.27362 7.92007C4.42047 7.92007 5.35339 8.85315 5.35339 10C5.35339 11.1469 4.42047 12.0799 3.27362 12.0799ZM12.0538 16.7264C12.0538 15.5795 12.9869 14.6465 14.1338 14.6465C15.2806 14.6465 16.2137 15.5795 16.2137 16.7264C16.2137 17.8732 15.2806 18.8063 14.1338 18.8063C12.9869 18.8063 12.0538 17.8732 12.0538 16.7264Z" fill="#18283D"/>
</svg>
