<svg width="22" height="20" viewBox="0 0 22 20" fill="none" xmlns="http://www.w3.org/2000/svg">
<path d="M5.57418 9.55261C3.77131 9.55261 2.30469 8.09931 2.30469 6.31353C2.30469 4.52752 3.77131 3.07422 5.57418 3.07422C7.37683 3.07422 8.84323 4.5273 8.84323 6.31353C8.84323 8.09953 7.37683 9.55261 5.57418 9.55261ZM5.57418 3.98331C4.27246 3.98331 3.21378 5.02868 3.21378 6.31353C3.21378 7.59815 4.27246 8.64352 5.57418 8.64352C6.87545 8.64352 7.93413 7.59815 7.93413 6.31353C7.93413 5.02868 6.87545 3.98331 5.57418 3.98331Z" fill="#1D5BBF" style="fill:#1D5BBF;fill:color(display-p3 0.1137 0.3569 0.7490);fill-opacity:1;"/>
<path d="M6.88988 18.5216H1.18808C0.532893 18.5216 0 17.992 0 17.3411V15.8542C0 12.8105 2.50067 10.334 5.57463 10.334C6.78357 10.334 7.93436 10.7113 8.9016 11.4249C9.10357 11.574 9.14663 11.8585 8.99748 12.0607C8.84834 12.2625 8.56402 12.3055 8.36183 12.1566C7.55195 11.5591 6.58826 11.2431 5.57463 11.2431C3.00205 11.2431 0.909092 13.3118 0.909092 15.8542V17.3411C0.909092 17.4906 1.03427 17.6125 1.18808 17.6125H6.8901C7.1409 17.6125 7.34465 17.816 7.34465 18.067C7.34465 18.3178 7.1409 18.5216 6.88988 18.5216Z" fill="#1D5BBF" style="fill:#1D5BBF;fill:color(display-p3 0.1137 0.3569 0.7490);fill-opacity:1;"/>
<path d="M20.2623 19.9994H7.92387C7.10423 19.9994 6.4375 19.3376 6.4375 18.5239V16.4328C6.4375 12.2535 9.87145 8.85352 14.0931 8.85352C18.3147 8.85352 21.7487 12.2535 21.7487 16.4328V18.5239C21.7487 19.3376 21.082 19.9994 20.2623 19.9994ZM14.0931 9.76283C10.3731 9.76283 7.34659 12.7551 7.34659 16.433V18.5242C7.34659 18.8364 7.6056 19.0906 7.92387 19.0906H20.2621C20.5804 19.0906 20.8394 18.8364 20.8394 18.5242V16.433C20.8396 12.7551 17.8131 9.76283 14.0931 9.76283Z" fill="#1D5BBF" style="fill:#1D5BBF;fill:color(display-p3 0.1137 0.3569 0.7490);fill-opacity:1;"/>
<path d="M13.9354 8.32299C11.6191 8.32299 9.73438 6.4562 9.73438 4.16127C9.73438 1.86657 11.6189 0 13.9354 0C16.2521 0 18.1366 1.86679 18.1366 4.16149C18.1366 6.45642 16.2518 8.32299 13.9354 8.32299ZM13.9354 0.909092C12.1203 0.909092 10.6435 2.36817 10.6435 4.16149C10.6435 5.95504 12.1203 7.41412 13.9354 7.41412C15.7507 7.41412 17.2275 5.95504 17.2275 4.16149C17.2275 2.36817 15.7507 0.909092 13.9354 0.909092Z" fill="#1D5BBF" style="fill:#1D5BBF;fill:color(display-p3 0.1137 0.3569 0.7490);fill-opacity:1;"/>
</svg>
