<svg width="21" height="21" viewBox="0 0 21 21" fill="none" xmlns="http://www.w3.org/2000/svg">
<path fill-rule="evenodd" clip-rule="evenodd" d="M10.4609 0.976562C4.94181 0.976562 0.460938 5.45743 0.460938 10.9766C0.460938 16.4957 4.94181 20.9766 10.4609 20.9766C15.9801 20.9766 20.4609 16.4957 20.4609 10.9766C20.4609 5.45743 15.9801 0.976562 10.4609 0.976562ZM10.4609 1.84613C15.5001 1.84613 19.5914 5.93743 19.5914 10.9766C19.5914 16.0157 15.5001 20.107 10.4609 20.107C5.42181 20.107 1.3305 16.0157 1.3305 10.9766C1.3305 5.93743 5.42181 1.84613 10.4609 1.84613Z" fill="#18283D"/>
<path fill-rule="evenodd" clip-rule="evenodd" d="M14.6671 12.0631C15.0301 11.8214 15.248 11.414 15.248 10.9779C15.248 10.5418 15.0301 10.1344 14.6671 9.8927L9.4497 6.41444C9.0497 6.14748 8.53492 6.12271 8.11058 6.34966C7.68666 6.57662 7.42188 7.01879 7.42188 7.49966V14.4562C7.42188 14.937 7.68666 15.3792 8.11058 15.6062C8.53492 15.8331 9.0497 15.8084 9.4497 15.5414L14.6671 12.0631ZM14.1849 11.3397L8.96752 14.8179C8.83405 14.907 8.66232 14.9153 8.52101 14.8397C8.37971 14.764 8.29144 14.6166 8.29144 14.4562V7.49966C8.29144 7.33922 8.37971 7.19184 8.52101 7.11618C8.66232 7.04053 8.83405 7.04879 8.96752 7.13792L14.1849 10.6162C14.3058 10.6966 14.3784 10.8327 14.3784 10.9779C14.3784 11.1231 14.3058 11.2592 14.1849 11.3397Z" fill="#18283D"/>
</svg>
