<svg width="22" height="22" viewBox="0 0 22 22" fill="none" xmlns="http://www.w3.org/2000/svg">
<path d="M11.0555 22C8.86881 21.9996 6.73135 21.351 4.91332 20.136C3.0953 18.921 1.67833 17.1942 0.841585 15.174C0.00483491 13.1538 -0.21413 10.9308 0.212373 8.78617C0.638876 6.64152 1.6917 4.67148 3.23773 3.12512C5.32134 1.10153 8.11752 -0.0209311 11.022 0.000295667C13.9264 0.0215224 16.7059 1.18474 18.7597 3.23856C20.8136 5.29237 21.9768 8.07185 21.998 10.9763C22.0192 13.8808 20.8968 16.677 18.8732 18.7606C17.849 19.7906 16.6307 20.6072 15.2888 21.1633C13.9469 21.7193 12.508 22.0037 11.0555 22ZM11.0555 1.18148C5.67288 1.18148 1.29409 5.56027 1.29409 10.9428C1.29409 16.3254 5.67288 20.7042 11.0555 20.7042C16.438 20.7042 20.8168 16.3254 20.8168 10.9428C20.8168 5.56027 16.438 1.18148 11.0555 1.18148Z" fill="#18283D" style="fill:#18283D;fill:color(display-p3 0.0941 0.1569 0.2392);fill-opacity:1;"/>
<path d="M14.9113 15.4478C14.8262 15.448 14.742 15.4313 14.6634 15.3988C14.5849 15.3662 14.5135 15.3185 14.4535 15.2582L6.74241 7.54719C6.6244 7.42499 6.5591 7.26134 6.56057 7.09147C6.56205 6.9216 6.63018 6.7591 6.75031 6.63898C6.87043 6.51886 7.03292 6.45072 7.2028 6.44924C7.37267 6.44777 7.53632 6.51307 7.65851 6.63109L15.3696 14.3421C15.4601 14.4328 15.5217 14.5482 15.5466 14.6738C15.5716 14.7995 15.5587 14.9297 15.5097 15.048C15.4606 15.1664 15.3776 15.2675 15.2711 15.3387C15.1646 15.4098 15.0394 15.4478 14.9113 15.4478Z" fill="#18283D" style="fill:#18283D;fill:color(display-p3 0.0941 0.1569 0.2392);fill-opacity:1;"/>
<path d="M7.20047 15.4478C7.07238 15.4478 6.94717 15.4098 6.84067 15.3387C6.73416 15.2675 6.65115 15.1664 6.6021 15.048C6.55306 14.9297 6.54019 14.7995 6.56513 14.6738C6.59007 14.5482 6.65169 14.4328 6.74221 14.3421L14.4533 6.63109C14.5754 6.51307 14.7391 6.44777 14.909 6.44924C15.0788 6.45072 15.2413 6.51886 15.3615 6.63898C15.4816 6.7591 15.5497 6.9216 15.5512 7.09147C15.5527 7.26134 15.4874 7.42499 15.3694 7.54719L7.65831 15.2582C7.59827 15.3185 7.52691 15.3662 7.44833 15.3988C7.36976 15.4313 7.28552 15.448 7.20047 15.4478Z" fill="#18283D" style="fill:#18283D;fill:color(display-p3 0.0941 0.1569 0.2392);fill-opacity:1;"/>
</svg>
