<svg width="26" height="26" viewBox="0 0 26 26" fill="none" xmlns="http://www.w3.org/2000/svg">
<path d="M13.0064 0.0175781C10.5341 0.0175781 8.11734 0.75069 6.06172 2.12421C4.00611 3.49772 2.40395 5.44996 1.45786 7.73403C0.511764 10.0181 0.264222 12.5314 0.746537 14.9562C1.22885 17.381 2.41936 19.6083 4.16752 21.3564C5.91567 23.1046 8.14296 24.2951 10.5677 24.7774C12.9925 25.2597 15.5058 25.0122 17.7899 24.0661C20.074 23.12 22.0262 21.5178 23.3997 19.4622C24.7732 17.4066 25.5063 14.9898 25.5063 12.5176C25.5024 9.20357 24.1842 6.02642 21.8409 3.68306C19.4975 1.3397 16.3204 0.0214878 13.0064 0.0175781ZM18.6882 13.6539H14.1427V18.1994C14.1427 18.5008 14.023 18.7898 13.8099 19.0029C13.5968 19.216 13.3077 19.3358 13.0064 19.3358C12.705 19.3358 12.4159 19.216 12.2028 19.0029C11.9897 18.7898 11.87 18.5008 11.87 18.1994V13.6539H7.32453C7.02315 13.6539 6.73411 13.5342 6.521 13.3211C6.30789 13.108 6.18817 12.819 6.18817 12.5176C6.18817 12.2162 6.30789 11.9272 6.521 11.714C6.73411 11.5009 7.02315 11.3812 7.32453 11.3812H11.87V6.83576C11.87 6.53438 11.9897 6.24534 12.2028 6.03223C12.4159 5.81912 12.705 5.6994 13.0064 5.6994C13.3077 5.6994 13.5968 5.81912 13.8099 6.03223C14.023 6.24534 14.1427 6.53438 14.1427 6.83576V11.3812H18.6882C18.9896 11.3812 19.2786 11.5009 19.4917 11.714C19.7048 11.9272 19.8245 12.2162 19.8245 12.5176C19.8245 12.819 19.7048 13.108 19.4917 13.3211C19.2786 13.5342 18.9896 13.6539 18.6882 13.6539Z" fill="white"/>
</svg>
