<svg width="15" height="15" viewBox="0 0 15 15" fill="none" xmlns="http://www.w3.org/2000/svg">
<path d="M8.61997 1.12444V13.8756C8.61997 14.4966 8.11654 15 7.49553 15C6.87452 15 6.37109 14.4966 6.37109 13.8756V1.12444C6.37109 0.503428 6.87452 -9.53674e-07 7.49553 -9.53674e-07C8.11654 -9.53674e-07 8.61997 0.503428 8.61997 1.12444Z" fill="#1D5BBF"/>
<path d="M13.8756 8.62695H1.12444C0.503428 8.62695 0 8.12353 0 7.50252C0 6.88151 0.503428 6.37808 1.12444 6.37808H13.8756C14.4966 6.37808 15 6.88151 15 7.50252C15 8.12353 14.4966 8.62695 13.8756 8.62695Z" fill="#1D5BBF"/>
</svg>
