<svg width="28" height="28" viewBox="0 0 28 28" fill="none" xmlns="http://www.w3.org/2000/svg">
<path d="M27.7227 27.5312H25.6133V26.6875H26.8789V25H27.7227V27.5312ZM23.5039 27.5312H21.3945V26.6875H23.5039V27.5312ZM19.2852 27.5312H17.1758V26.6875H19.2852V27.5312ZM15.0664 27.5312H12.957V26.6875H15.0664V27.5312ZM10.8477 27.5312H8.73828V26.6875H10.8477V27.5312ZM6.62891 27.5312H4.51953V26.6875H6.62891V27.5312ZM2.41016 27.5312H0.722656V26.6875H2.41016V27.5312ZM1.56641 25H0.722656V22.8906H1.56641V25ZM1.56641 20.7812H0.722656V18.6719H1.56641V20.7812ZM1.56641 16.5625H0.722656V14.4531H1.56641V16.5625ZM1.56641 12.3438H0.722656V10.2344H1.56641V12.3438ZM1.56641 8.125H0.722656V6.01562H1.56641V8.125ZM1.56641 3.90625H0.722656V1.79688H1.56641V3.90625ZM3.67578 1.375H1.56641V0.53125H3.67578V1.375ZM7.89453 1.375H5.78516V0.53125H7.89453V1.375ZM12.1133 1.375H10.0039V0.53125H12.1133V1.375ZM16.332 1.375H14.2227V0.53125H16.332V1.375ZM20.5508 1.375H18.4414V0.53125H20.5508V1.375ZM24.7695 1.375H22.6602V0.53125H24.7695V1.375ZM27.7227 1.79688H26.8789V1.375V0.53125H27.7227V1.79688ZM27.7227 6.01562H26.8789V3.90625H27.7227V6.01562ZM27.7227 10.2344H26.8789V8.125H27.7227V10.2344ZM27.7227 14.4531H26.8789V12.3438H27.7227V14.4531ZM27.7227 18.6719H26.8789V16.5625H27.7227V18.6719ZM27.7227 22.8906H26.8789V20.7812H27.7227V22.8906Z" fill="#1D5BBF"/>
<path d="M14.8555 18.25H13.5898V9.80828H14.8555V18.25Z" fill="#1D5BBF"/>
<path d="M18.4456 14.6641H10.0039V13.3984H18.4456V14.6641Z" fill="#1D5BBF"/>
</svg>
