<svg width="20" height="21" viewBox="0 0 20 21" fill="none" xmlns="http://www.w3.org/2000/svg">
<mask id="path-1-inside-1_12010_43018" fill="white">
<path d="M14.1667 10.2475C14.1667 10.4832 13.98 10.6745 13.75 10.6745H10.4167V14.0903C10.4167 14.326 10.23 14.5173 10 14.5173C9.77 14.5173 9.58333 14.326 9.58333 14.0903V10.6745H6.25C6.02 10.6745 5.83333 10.4832 5.83333 10.2475C5.83333 10.0118 6.02 9.82051 6.25 9.82051H9.58333V6.40468C9.58333 6.16899 9.77 5.9777 10 5.9777C10.23 5.9777 10.4167 6.16899 10.4167 6.40468V9.82051H13.75C13.98 9.82051 14.1667 10.0118 14.1667 10.2475ZM20 3.84281V16.6522C20 18.7708 18.3175 20.495 16.25 20.495H3.75C1.6825 20.495 0 18.7708 0 16.6522V3.84281C0 1.72414 1.6825 0 3.75 0H16.25C18.3175 0 20 1.72414 20 3.84281ZM19.1667 3.84281C19.1667 2.19467 17.8583 0.853957 16.25 0.853957H3.75C2.14167 0.853957 0.833333 2.19467 0.833333 3.84281V16.6522C0.833333 18.3003 2.14167 19.641 3.75 19.641H16.25C17.8583 19.641 19.1667 18.3003 19.1667 16.6522V3.84281Z"/>
</mask>
<path d="M14.1667 10.2475C14.1667 10.4832 13.98 10.6745 13.75 10.6745H10.4167V14.0903C10.4167 14.326 10.23 14.5173 10 14.5173C9.77 14.5173 9.58333 14.326 9.58333 14.0903V10.6745H6.25C6.02 10.6745 5.83333 10.4832 5.83333 10.2475C5.83333 10.0118 6.02 9.82051 6.25 9.82051H9.58333V6.40468C9.58333 6.16899 9.77 5.9777 10 5.9777C10.23 5.9777 10.4167 6.16899 10.4167 6.40468V9.82051H13.75C13.98 9.82051 14.1667 10.0118 14.1667 10.2475ZM20 3.84281V16.6522C20 18.7708 18.3175 20.495 16.25 20.495H3.75C1.6825 20.495 0 18.7708 0 16.6522V3.84281C0 1.72414 1.6825 0 3.75 0H16.25C18.3175 0 20 1.72414 20 3.84281ZM19.1667 3.84281C19.1667 2.19467 17.8583 0.853957 16.25 0.853957H3.75C2.14167 0.853957 0.833333 2.19467 0.833333 3.84281V16.6522C0.833333 18.3003 2.14167 19.641 3.75 19.641H16.25C17.8583 19.641 19.1667 18.3003 19.1667 16.6522V3.84281Z" fill="white"/>
<path d="M10.4167 10.6745V6.67446H6.41667V10.6745H10.4167ZM9.58333 10.6745H13.5833V6.67446H9.58333V10.6745ZM9.58333 9.82051V13.8205H13.5833V9.82051H9.58333ZM10.4167 9.82051H6.41667V13.8205H10.4167V9.82051ZM10.1667 10.2475C10.1667 8.36679 11.6792 6.67446 13.75 6.67446V14.6745C16.2808 14.6745 18.1667 12.5996 18.1667 10.2475H10.1667ZM13.75 6.67446H10.4167V14.6745H13.75V6.67446ZM6.41667 10.6745V14.0903H14.4167V10.6745H6.41667ZM6.41667 14.0903C6.41667 12.2096 7.92924 10.5173 10 10.5173V18.5173C12.5308 18.5173 14.4167 16.4424 14.4167 14.0903H6.41667ZM10 10.5173C12.0708 10.5173 13.5833 12.2096 13.5833 14.0903H5.58333C5.58333 16.4424 7.46924 18.5173 10 18.5173V10.5173ZM13.5833 14.0903V10.6745H5.58333V14.0903H13.5833ZM9.58333 6.67446H6.25V14.6745H9.58333V6.67446ZM6.25 6.67446C8.32076 6.67446 9.83333 8.36679 9.83333 10.2475H1.83333C1.83333 12.5996 3.71924 14.6745 6.25 14.6745V6.67446ZM9.83333 10.2475C9.83333 12.1282 8.32076 13.8205 6.25 13.8205V5.82051C3.71924 5.82051 1.83333 7.8954 1.83333 10.2475H9.83333ZM6.25 13.8205H9.58333V5.82051H6.25V13.8205ZM13.5833 9.82051V6.40468H5.58333V9.82051H13.5833ZM13.5833 6.40468C13.5833 8.28538 12.0708 9.9777 10 9.9777V1.9777C7.46924 1.9777 5.58333 4.0526 5.58333 6.40468H13.5833ZM10 9.9777C7.92924 9.9777 6.41667 8.28538 6.41667 6.40468H14.4167C14.4167 4.0526 12.5308 1.9777 10 1.9777V9.9777ZM6.41667 6.40468V9.82051H14.4167V6.40468H6.41667ZM10.4167 13.8205H13.75V5.82051H10.4167V13.8205ZM13.75 13.8205C11.6792 13.8205 10.1667 12.1282 10.1667 10.2475H18.1667C18.1667 7.8954 16.2808 5.82051 13.75 5.82051V13.8205ZM16 3.84281V16.6522H24V3.84281H16ZM16 16.6522C16 16.6522 16 16.6519 16 16.6513C16.0001 16.6507 16.0001 16.6498 16.0002 16.6487C16.0005 16.6465 16.0009 16.6436 16.0015 16.6402C16.0029 16.6332 16.0052 16.6256 16.0084 16.6179C16.0144 16.6033 16.0236 16.5887 16.0375 16.5744C16.0515 16.5601 16.0759 16.5404 16.115 16.5235C16.157 16.5052 16.2056 16.495 16.25 16.495V24.495C20.6183 24.495 24 20.8872 24 16.6522H16ZM16.25 16.495H3.75V24.495H16.25V16.495ZM3.75 16.495C3.79444 16.495 3.84296 16.5052 3.88504 16.5235C3.92407 16.5404 3.94849 16.5601 3.96247 16.5744C3.97643 16.5887 3.98558 16.6033 3.99163 16.6179C3.99482 16.6256 3.99708 16.6332 3.99847 16.6402C3.99915 16.6436 3.99955 16.6465 3.99977 16.6487C3.99988 16.6498 3.99994 16.6507 3.99997 16.6513C4 16.6519 4 16.6522 4 16.6522H-4C-4 20.8872 -0.618261 24.495 3.75 24.495V16.495ZM4 16.6522V3.84281H-4V16.6522H4ZM4 3.84281C4 3.84279 4 3.84309 3.99997 3.84371C3.99994 3.84432 3.99988 3.84519 3.99977 3.84628C3.99955 3.84852 3.99915 3.8514 3.99847 3.8548C3.99708 3.86175 3.99482 3.86935 3.99163 3.87707C3.98558 3.8917 3.97643 3.90625 3.96247 3.92055C3.94849 3.93488 3.92407 3.95457 3.88504 3.97152C3.84296 3.98979 3.79444 4 3.75 4V-4C-0.618261 -4 -4 -0.392251 -4 3.84281H4ZM3.75 4H16.25V-4H3.75V4ZM16.25 4C16.2056 4 16.157 3.98979 16.115 3.97152C16.0759 3.95457 16.0515 3.93488 16.0375 3.92055C16.0236 3.90625 16.0144 3.8917 16.0084 3.87707C16.0052 3.86935 16.0029 3.86175 16.0015 3.8548C16.0009 3.8514 16.0005 3.84852 16.0002 3.84628C16.0001 3.84519 16.0001 3.84432 16 3.84371C16 3.84309 16 3.84279 16 3.84281H24C24 -0.392251 20.6183 -4 16.25 -4V4ZM23.1667 3.84281C23.1667 0.0782796 20.1591 -3.14604 16.25 -3.14604V4.85396C15.5576 4.85396 15.1667 4.31106 15.1667 3.84281H23.1667ZM16.25 -3.14604H3.75V4.85396H16.25V-3.14604ZM3.75 -3.14604C-0.159094 -3.14604 -3.16667 0.0782796 -3.16667 3.84281H4.83333C4.83333 4.31106 4.44243 4.85396 3.75 4.85396V-3.14604ZM-3.16667 3.84281V16.6522H4.83333V3.84281H-3.16667ZM-3.16667 16.6522C-3.16667 20.4167 -0.159094 23.641 3.75 23.641V15.641C4.44243 15.641 4.83333 16.1839 4.83333 16.6522H-3.16667ZM3.75 23.641H16.25V15.641H3.75V23.641ZM16.25 23.641C20.1591 23.641 23.1667 20.4167 23.1667 16.6522H15.1667C15.1667 16.1839 15.5576 15.641 16.25 15.641V23.641ZM23.1667 16.6522V3.84281H15.1667V16.6522H23.1667Z" fill="white" mask="url(#path-1-inside-1_12010_43018)"/>
</svg>
