<svg width="36" height="36" viewBox="0 0 36 36" fill="none" xmlns="http://www.w3.org/2000/svg">
<path d="M30.6517 0.175781H9.58811C8.4291 0.177381 7.30802 0.589991 6.42325 1.3406C5.53848 2.0912 4.94707 3.13141 4.75366 4.27714C3.58818 4.44817 2.52287 5.03357 1.75204 5.92655C0.981217 6.81952 0.556259 7.96057 0.554688 9.14154L0.554688 30.26C0.556063 31.5633 1.07307 32.8129 1.99226 33.7345C2.91146 34.656 4.15776 35.1744 5.4577 35.1758H26.5213C27.6803 35.1742 28.8013 34.7616 29.6861 34.011C30.5709 33.2604 31.1623 32.2201 31.3556 31.0744C32.5211 30.9034 33.5865 30.318 34.3573 29.425C35.1281 28.5321 35.5531 27.391 35.5547 26.21V5.09158C35.5533 3.78825 35.0363 2.5387 34.1171 1.61711C33.1979 0.695516 31.9516 0.17716 30.6517 0.175781ZM29.6914 30.26C29.6905 31.1027 29.3562 31.9106 28.7619 32.5065C28.1676 33.1025 27.3618 33.4377 26.5213 33.4386H5.4577C4.61716 33.4377 3.81133 33.1025 3.21699 32.5066C2.62265 31.9107 2.28833 31.1027 2.28739 30.26V9.14154C2.28826 8.29877 2.62254 7.49077 3.2169 6.89481C3.81125 6.29886 4.61712 5.96363 5.4577 5.96269H26.5213C27.3618 5.96365 28.1676 6.29885 28.7619 6.89474C29.3562 7.49064 29.6905 8.29856 29.6914 9.14126V30.26ZM23.4052 19.7008C23.4052 19.9311 23.3139 20.152 23.1515 20.3149C22.9891 20.4778 22.7688 20.5693 22.5391 20.5694H16.8557V26.2672C16.8557 26.4975 16.7645 26.7185 16.602 26.8814C16.4395 27.0443 16.2192 27.1358 15.9894 27.1358C15.7597 27.1358 15.5393 27.0443 15.3768 26.8814C15.2144 26.7185 15.1231 26.4975 15.1231 26.2672V20.5694H9.44011C9.32634 20.5694 9.21369 20.5469 9.10858 20.5033C9.00348 20.4596 8.90797 20.3956 8.82753 20.315C8.74708 20.2343 8.68327 20.1386 8.63973 20.0332C8.5962 19.9278 8.57379 19.8149 8.57379 19.7008C8.57379 19.5867 8.5962 19.4738 8.63973 19.3684C8.68327 19.263 8.74708 19.1673 8.82753 19.0866C8.90797 19.006 9.00348 18.942 9.10858 18.8983C9.21369 18.8547 9.32634 18.8322 9.44011 18.8322H15.1231V13.1343C15.1231 12.904 15.2144 12.683 15.3768 12.5202C15.5393 12.3573 15.7597 12.2658 15.9894 12.2658C16.2192 12.2658 16.4395 12.3573 16.602 12.5202C16.7645 12.683 16.8557 12.904 16.8557 13.1343V18.8322H22.5391C22.7688 18.8323 22.9891 18.9238 23.1515 19.0867C23.3139 19.2496 23.4052 19.4705 23.4052 19.7008Z" fill="#1D5BBF"/>
</svg>
