<svg width="46" height="45" viewBox="0 0 46 45" fill="none" xmlns="http://www.w3.org/2000/svg">
<path fill-rule="evenodd" clip-rule="evenodd" d="M22.6798 44.1731C35.2055 44.1731 45.3595 34.2846 45.3595 22.0865C45.3595 9.8885 35.2055 0 22.6798 0C10.1541 0 0 9.8885 0 22.0865C0 34.2846 10.1541 44.1731 22.6798 44.1731ZM29.7551 10.2889C30.0995 9.09752 28.9123 8.39304 27.8281 9.14528L12.6929 19.6455C11.517 20.4613 11.702 22.0865 12.9707 22.0865H16.9562V22.0565H24.7238L18.3947 24.2313L15.6045 33.8843C15.2601 35.0757 16.4472 35.7801 17.5315 35.0278L32.6667 24.5277C33.8425 23.7119 33.6575 22.0865 32.3889 22.0865H26.3449L29.7551 10.2889Z" fill="#00AEBD"/>
</svg>
