<svg width="11" height="6" viewBox="0 0 11 6" fill="none" xmlns="http://www.w3.org/2000/svg">
<path d="M0.790785 0H9.62731C9.78372 3.33974e-05 9.93661 0.0464399 10.0667 0.133353C10.1967 0.220267 10.298 0.343785 10.3579 0.488291C10.4177 0.632798 10.4334 0.791806 10.4029 0.945213C10.3724 1.09862 10.2971 1.23954 10.1865 1.35016L5.76825 5.76842C5.61993 5.9167 5.41878 6 5.20905 6C4.99931 6 4.79817 5.9167 4.64984 5.76842L0.231581 1.35016C0.120998 1.23954 0.0456941 1.09862 0.015189 0.945213C-0.0153161 0.791806 0.000347325 0.632798 0.0601988 0.488291C0.12005 0.343785 0.221402 0.220267 0.351443 0.133353C0.481483 0.0464399 0.634373 3.33974e-05 0.790785 0Z" fill="#18283D"/>
</svg>
