<svg width="6" height="9" viewBox="0 0 6 9" fill="none" xmlns="http://www.w3.org/2000/svg">
<path d="M5.54095 4.52019C5.54144 4.60437 5.52516 4.68781 5.49304 4.76574C5.46092 4.84366 5.4136 4.91454 5.35378 4.97431L1.4813 8.8119C1.35976 8.93234 1.19493 9 1.02305 9C0.85118 9 0.686345 8.93234 0.564811 8.8119C0.443277 8.69146 0.375 8.52811 0.375 8.35778C0.375 8.18746 0.443277 8.02411 0.564811 7.90367L3.9855 4.52019L0.571265 1.13671C0.465529 1.01436 0.410278 0.856966 0.416552 0.695994C0.422826 0.535023 0.490164 0.382324 0.605108 0.268415C0.720053 0.154507 0.874138 0.0877762 1.03657 0.0815592C1.19901 0.0753412 1.35783 0.130094 1.4813 0.234877L5.35378 4.07247C5.47302 4.1916 5.54024 4.3524 5.54095 4.52019Z" fill="black"/>
</svg>
