<svg width="60" height="61" viewBox="0 0 60 61" fill="none" xmlns="http://www.w3.org/2000/svg">
<path d="M1 13.4688C1.553 13.4688 2 13.0217 2 12.4688V2.46875H12C12.553 2.46875 13 2.02175 13 1.46875C13 0.91575 12.553 0.46875 12 0.46875H2C0.897 0.46875 0 1.36575 0 2.46875V12.4688C0 13.0217 0.447 13.4688 1 13.4688Z" fill="#C6C6C6"/>
<path d="M12 58.4688H2V48.4688C2 47.9158 1.553 47.4688 1 47.4688C0.447 47.4688 0 47.9158 0 48.4688V58.4688C0 59.5717 0.897 60.4688 2 60.4688H12C12.553 60.4688 13 60.0217 13 59.4688C13 58.9158 12.553 58.4688 12 58.4688Z" fill="#C6C6C6"/>
<path d="M59 47.4688C58.447 47.4688 58 47.9158 58 48.4688V58.4688H48C47.447 58.4688 47 58.9158 47 59.4688C47 60.0217 47.447 60.4688 48 60.4688H58C59.103 60.4688 60 59.5717 60 58.4688V48.4688C60 47.9158 59.553 47.4688 59 47.4688Z" fill="#C6C6C6"/>
<path d="M58 0.46875H48C47.447 0.46875 47 0.91575 47 1.46875C47 2.02175 47.447 2.46875 48 2.46875H58V12.4688C58 13.0217 58.447 13.4688 59 13.4688C59.553 13.4688 60 13.0217 60 12.4688V2.46875C60 1.36575 59.103 0.46875 58 0.46875Z" fill="#C6C6C6"/>
<path d="M4 31.4688C4 32.0217 4.447 32.4688 5 32.4688C5.553 32.4688 6 32.0217 6 31.4688V29.4688C6 28.9158 5.553 28.4688 5 28.4688C4.447 28.4688 4 28.9158 4 29.4688V31.4688Z" fill="#C6C6C6"/>
<path d="M4 25.4688C4 26.0217 4.447 26.4688 5 26.4688C5.553 26.4688 6 26.0217 6 25.4688V23.4688C6 22.9158 5.553 22.4688 5 22.4688C4.447 22.4688 4 22.9158 4 23.4688V25.4688Z" fill="#C6C6C6"/>
<path d="M4 19.4688C4 20.0217 4.447 20.4688 5 20.4688C5.553 20.4688 6 20.0217 6 19.4688V17.4688C6 16.9158 5.553 16.4688 5 16.4688C4.447 16.4688 4 16.9158 4 17.4688V19.4688Z" fill="#C6C6C6"/>
<path d="M5 14.4688C5.553 14.4688 6 14.0217 6 13.4688V11.4688C6 10.9158 5.553 10.4688 5 10.4688C4.447 10.4688 4 10.9158 4 11.4688V13.4688C4 14.0217 4.447 14.4688 5 14.4688Z" fill="#C6C6C6"/>
<path d="M29 6.46875H31C31.553 6.46875 32 6.02175 32 5.46875C32 4.91575 31.553 4.46875 31 4.46875H29C28.447 4.46875 28 4.91575 28 5.46875C28 6.02175 28.447 6.46875 29 6.46875Z" fill="#C6C6C6"/>
<path d="M23 6.46875H25C25.553 6.46875 26 6.02175 26 5.46875C26 4.91575 25.553 4.46875 25 4.46875H23C22.447 4.46875 22 4.91575 22 5.46875C22 6.02175 22.447 6.46875 23 6.46875Z" fill="#C6C6C6"/>
<path d="M17 6.46875H19C19.553 6.46875 20 6.02175 20 5.46875C20 4.91575 19.553 4.46875 19 4.46875H17C16.447 4.46875 16 4.91575 16 5.46875C16 6.02175 16.447 6.46875 17 6.46875Z" fill="#C6C6C6"/>
<path d="M11 4.46875C10.447 4.46875 10 4.91575 10 5.46875C10 6.02175 10.447 6.46875 11 6.46875H13C13.553 6.46875 14 6.02175 14 5.46875C14 4.91575 13.553 4.46875 13 4.46875H11Z" fill="#C6C6C6"/>
<path d="M7 4.46875H5C4.447 4.46875 4 4.91575 4 5.46875V7.46875C4 8.02175 4.447 8.46875 5 8.46875C5.553 8.46875 6 8.02175 6 7.46875V6.46875H7C7.553 6.46875 8 6.02175 8 5.46875C8 4.91575 7.553 4.46875 7 4.46875Z" fill="#C6C6C6"/>
<path d="M25 54.4688H23C22.447 54.4688 22 54.9158 22 55.4688C22 56.0217 22.447 56.4688 23 56.4688H25C25.553 56.4688 26 56.0217 26 55.4688C26 54.9158 25.553 54.4688 25 54.4688Z" fill="#C6C6C6"/>
<path d="M19 54.4688H17C16.447 54.4688 16 54.9158 16 55.4688C16 56.0217 16.447 56.4688 17 56.4688H19C19.553 56.4688 20 56.0217 20 55.4688C20 54.9158 19.553 54.4688 19 54.4688Z" fill="#C6C6C6"/>
<path d="M13 54.4688H11C10.447 54.4688 10 54.9158 10 55.4688C10 56.0217 10.447 56.4688 11 56.4688H13C13.553 56.4688 14 56.0217 14 55.4688C14 54.9158 13.553 54.4688 13 54.4688Z" fill="#C6C6C6"/>
<path d="M4 37.4688C4 38.0217 4.447 38.4688 5 38.4688C5.553 38.4688 6 38.0217 6 37.4688V35.4688C6 34.9158 5.553 34.4688 5 34.4688C4.447 34.4688 4 34.9158 4 35.4688V37.4688Z" fill="#C6C6C6"/>
<path d="M4 43.4688C4 44.0217 4.447 44.4688 5 44.4688C5.553 44.4688 6 44.0217 6 43.4688V41.4688C6 40.9158 5.553 40.4688 5 40.4688C4.447 40.4688 4 40.9158 4 41.4688V43.4688Z" fill="#C6C6C6"/>
<path d="M4 49.4688C4 50.0217 4.447 50.4688 5 50.4688C5.553 50.4688 6 50.0217 6 49.4688V47.4688C6 46.9158 5.553 46.4688 5 46.4688C4.447 46.4688 4 46.9158 4 47.4688V49.4688Z" fill="#C6C6C6"/>
<path d="M4 55.4688C4 56.0217 4.447 56.4688 5 56.4688H7C7.553 56.4688 8 56.0217 8 55.4688C8 54.9158 7.553 54.4688 7 54.4688H6V53.4688C6 52.9158 5.553 52.4688 5 52.4688C4.447 52.4688 4 52.9158 4 53.4688V55.4688Z" fill="#C6C6C6"/>
<path d="M56 35.4688C56 34.9158 55.553 34.4688 55 34.4688C54.447 34.4688 54 34.9158 54 35.4688V37.4688C54 38.0217 54.447 38.4688 55 38.4688C55.553 38.4688 56 38.0217 56 37.4688V35.4688Z" fill="#C6C6C6"/>
<path d="M56 41.4688C56 40.9158 55.553 40.4688 55 40.4688C54.447 40.4688 54 40.9158 54 41.4688V43.4688C54 44.0217 54.447 44.4688 55 44.4688C55.553 44.4688 56 44.0217 56 43.4688V41.4688Z" fill="#C6C6C6"/>
<path d="M55 46.4688C54.447 46.4688 54 46.9158 54 47.4688V49.4688C54 50.0217 54.447 50.4688 55 50.4688C55.553 50.4688 56 50.0217 56 49.4688V47.4688C56 46.9158 55.553 46.4688 55 46.4688Z" fill="#C6C6C6"/>
<path d="M37 54.4688H35C34.447 54.4688 34 54.9158 34 55.4688C34 56.0217 34.447 56.4688 35 56.4688H37C37.553 56.4688 38 56.0217 38 55.4688C38 54.9158 37.553 54.4688 37 54.4688Z" fill="#C6C6C6"/>
<path d="M43 54.4688H41C40.447 54.4688 40 54.9158 40 55.4688C40 56.0217 40.447 56.4688 41 56.4688H43C43.553 56.4688 44 56.0217 44 55.4688C44 54.9158 43.553 54.4688 43 54.4688Z" fill="#C6C6C6"/>
<path d="M49 56.4688C49.553 56.4688 50 56.0217 50 55.4688C50 54.9158 49.553 54.4688 49 54.4688H47C46.447 54.4688 46 54.9158 46 55.4688C46 56.0217 46.447 56.4688 47 56.4688H49Z" fill="#C6C6C6"/>
<path d="M53 56.4688H55C55.553 56.4688 56 56.0217 56 55.4688V53.4688C56 52.9158 55.553 52.4688 55 52.4688C54.447 52.4688 54 52.9158 54 53.4688V54.4688H53C52.447 54.4688 52 54.9158 52 55.4688C52 56.0217 52.447 56.4688 53 56.4688Z" fill="#C6C6C6"/>
<path d="M35 6.46875H37C37.553 6.46875 38 6.02175 38 5.46875C38 4.91575 37.553 4.46875 37 4.46875H35C34.447 4.46875 34 4.91575 34 5.46875C34 6.02175 34.447 6.46875 35 6.46875Z" fill="#C6C6C6"/>
<path d="M41 6.46875H43C43.553 6.46875 44 6.02175 44 5.46875C44 4.91575 43.553 4.46875 43 4.46875H41C40.447 4.46875 40 4.91575 40 5.46875C40 6.02175 40.447 6.46875 41 6.46875Z" fill="#C6C6C6"/>
<path d="M47 6.46875H49C49.553 6.46875 50 6.02175 50 5.46875C50 4.91575 49.553 4.46875 49 4.46875H47C46.447 4.46875 46 4.91575 46 5.46875C46 6.02175 46.447 6.46875 47 6.46875Z" fill="#C6C6C6"/>
<path d="M56 23.4688C56 22.9158 55.553 22.4688 55 22.4688C54.447 22.4688 54 22.9158 54 23.4688V25.4688C54 26.0217 54.447 26.4688 55 26.4688C55.553 26.4688 56 26.0217 56 25.4688V23.4688Z" fill="#C6C6C6"/>
<path d="M56 17.4688C56 16.9158 55.553 16.4688 55 16.4688C54.447 16.4688 54 16.9158 54 17.4688V19.4688C54 20.0217 54.447 20.4688 55 20.4688C55.553 20.4688 56 20.0217 56 19.4688V17.4688Z" fill="#C6C6C6"/>
<path d="M56 11.4688C56 10.9158 55.553 10.4688 55 10.4688C54.447 10.4688 54 10.9158 54 11.4688V13.4688C54 14.0217 54.447 14.4688 55 14.4688C55.553 14.4688 56 14.0217 56 13.4688V11.4688Z" fill="#C6C6C6"/>
<path d="M56 5.46875C56 4.91575 55.553 4.46875 55 4.46875H53C52.447 4.46875 52 4.91575 52 5.46875C52 6.02175 52.447 6.46875 53 6.46875H54V7.46875C54 8.02175 54.447 8.46875 55 8.46875C55.553 8.46875 56 8.02175 56 7.46875V5.46875Z" fill="#C6C6C6"/>
<path d="M31 54.4688H29C28.447 54.4688 28 54.9158 28 55.4688C28 56.0217 28.447 56.4688 29 56.4688H31C31.553 56.4688 32 56.0217 32 55.4688C32 54.9158 31.553 54.4688 31 54.4688Z" fill="#C6C6C6"/>
<path d="M56 29.4688C56 28.9158 55.553 28.4688 55 28.4688C54.447 28.4688 54 28.9158 54 29.4688V31.4688C54 32.0217 54.447 32.4688 55 32.4688C55.553 32.4688 56 32.0217 56 31.4688V29.4688Z" fill="#C6C6C6"/>
<path d="M31 28.4688V21.4688H29V28.4688C29 29.0217 28.553 29.4688 28 29.4688H21V31.4688H28C28.553 31.4688 29 31.9158 29 32.4688V39.4688H31V32.4688C31 31.9158 31.447 31.4688 32 31.4688H39V29.4718L32 29.4688C31.447 29.4688 31 29.0217 31 28.4688Z" fill="#C6C6C6"/>
<path d="M30 13.4688C20.626 13.4688 13 21.0948 13 30.4688C13 39.8428 20.626 47.4688 30 47.4688C39.374 47.4688 47 39.8428 47 30.4688C47 21.0948 39.374 13.4688 30 13.4688ZM41 31.4688C41 32.5718 40.103 33.4688 39 33.4688H33V39.4688C33 40.5718 32.103 41.4688 31 41.4688H29C27.897 41.4688 27 40.5718 27 39.4688V33.4688H21C19.897 33.4688 19 32.5718 19 31.4688V29.4688C19 28.3658 19.897 27.4688 21 27.4688H27V21.4688C27 20.3657 27.897 19.4688 29 19.4688H31C32.103 19.4688 33 20.3657 33 21.4688V27.4688H39C40.103 27.4688 41 28.3658 41 29.4688V31.4688Z" fill="#C6C6C6"/>
</svg>
