<svg width="40" height="40" viewBox="0 0 40 40" fill="none" xmlns="http://www.w3.org/2000/svg">
<rect width="40" height="40" rx="3" fill="#EEF5FF"/>
<path d="M23.8994 29C23.4344 31.279 21.4144 33 19.0004 33C16.5864 33 14.5654 31.279 14.1014 29H23.8994ZM27.9234 17.988C27.8404 17.991 27.7594 18 27.6754 18C24.5424 18 21.9944 15.533 21.9944 12.5C21.9944 11.596 22.2254 10.744 22.6264 9.991C21.4054 9.356 20.0174 9 18.5604 9C14.5314 9 11.0434 11.709 10.1694 15.516L8.19141 21.707C7.35141 24.335 9.38141 27 12.2234 27H25.2764C28.2024 27 30.2404 24.188 29.2444 21.525L27.9234 17.988Z" fill="#00AEBD"/>
<circle cx="27" cy="12" r="4" fill="#FD003A"/>
</svg>
