<svg width="318" height="203" viewBox="0 0 318 203" fill="none" xmlns="http://www.w3.org/2000/svg">
<path opacity="0.1" d="M122.494 17.2041C129.605 31.9983 118.449 52.1238 97.5779 62.1556C76.7062 72.1875 54.0221 68.3268 46.9114 53.5326C39.8007 38.7383 50.9564 18.6129 71.828 8.58102C92.6996 -1.45087 115.384 2.40987 122.494 17.2041Z" fill="url(#paint0_linear_742_29273)"/>
<path opacity="0.1" d="M66.3751 202.999C66.3751 202.999 6.25845 169.604 42.7801 113.991C79.3018 58.3777 161.144 60.928 171.343 24.1051C181.542 -12.7174 277.824 48.8955 230.293 105.158C182.761 161.42 211.78 201.076 211.78 201.076L66.3751 202.999Z" fill="url(#paint1_linear_742_29273)"/>
<g opacity="0.1">
<path d="M24.3966 110.295C22.0466 110.295 19.7116 109.944 17.4625 109.232C10.7938 107.122 5.32602 101.975 2.46084 95.1105C-0.254546 88.6052 -0.510054 81.1035 1.74191 73.9873C3.99355 66.8714 8.51824 60.8823 14.4817 57.1235C20.7742 53.157 28.2075 52.0928 34.8762 54.2027C41.5449 56.3128 47.0127 61.4604 49.8782 68.3246C52.5936 74.8298 52.8491 82.3312 50.5975 89.4478C48.3455 96.5637 43.8208 102.553 37.8573 106.312C33.6865 108.94 29.0143 110.295 24.3966 110.295ZM27.9175 68.9187C23.3893 68.9187 18.6283 72.9458 16.7915 78.7503C14.6536 85.5066 17.1416 92.5733 22.2248 94.182C27.3091 95.7924 33.4083 91.4417 35.5463 84.6854C37.6842 77.9292 35.1959 70.8624 30.1129 69.2537C29.3972 69.0266 28.6601 68.9187 27.9175 68.9187Z" fill="url(#paint2_linear_742_29273)"/>
</g>
<path fill-rule="evenodd" clip-rule="evenodd" d="M147.692 141.352C145.957 139.617 143.559 138.544 140.914 138.544C138.266 138.544 135.87 139.617 134.136 141.352C132.399 143.086 131.328 145.483 131.328 148.13C131.328 150.778 132.399 153.174 134.136 154.909C135.87 156.644 138.267 157.717 140.914 157.717C143.559 157.717 145.957 156.644 147.692 154.909C149.426 153.175 150.5 150.778 150.5 148.13C150.5 145.483 149.426 143.086 147.692 141.352ZM145.621 131.85C146.949 132.233 148.21 132.773 149.378 133.45C150.577 134.143 151.685 134.979 152.675 135.935C152.868 136.12 153.157 136.148 153.377 136.019L157.831 133.447L157.856 133.433C158.111 133.295 158.401 133.27 158.667 133.341C158.941 133.414 159.187 133.591 159.339 133.853L159.359 133.883L162.491 139.311C162.642 139.573 162.672 139.874 162.599 140.149C162.525 140.423 162.349 140.669 162.086 140.821L162.056 140.839L157.638 143.39C157.406 143.524 157.299 143.792 157.36 144.039V144.04C157.523 144.697 157.647 145.372 157.731 146.065C157.812 146.74 157.855 147.428 157.855 148.129C157.855 148.831 157.812 149.521 157.731 150.195C157.647 150.887 157.523 151.563 157.36 152.221C157.292 152.494 157.427 152.769 157.67 152.888L162.087 155.438L162.086 155.439C162.349 155.59 162.525 155.836 162.599 156.11C162.672 156.386 162.642 156.686 162.491 156.949L159.34 162.407L159.339 162.407C159.187 162.669 158.941 162.846 158.669 162.92C158.393 162.993 158.092 162.963 157.831 162.812L157.798 162.795L153.376 160.24C153.143 160.107 152.858 160.149 152.675 160.325C151.685 161.281 150.577 162.117 149.378 162.809C148.202 163.489 146.934 164.033 145.596 164.417C145.337 164.49 145.169 164.726 145.169 164.983V170.121C145.169 170.424 145.045 170.7 144.844 170.899C144.646 171.099 144.367 171.223 144.066 171.223H137.76C137.457 171.223 137.183 171.099 136.983 170.899C136.783 170.7 136.658 170.424 136.658 170.121V164.983C136.658 164.704 136.466 164.471 136.205 164.409C134.876 164.027 133.617 163.486 132.448 162.81C131.249 162.117 130.142 161.281 129.152 160.325C128.95 160.13 128.644 160.109 128.42 160.258L123.997 162.812C123.735 162.963 123.432 162.992 123.159 162.92C122.885 162.846 122.639 162.669 122.487 162.407L122.469 162.376L119.333 156.947L119.335 156.947C119.183 156.685 119.155 156.384 119.228 156.109C119.302 155.835 119.478 155.589 119.737 155.439L124.189 152.869C124.42 152.736 124.528 152.468 124.466 152.22H124.467C124.305 151.563 124.18 150.887 124.096 150.195C124.012 149.52 123.972 148.831 123.972 148.129C123.972 147.427 124.012 146.739 124.096 146.063C124.18 145.372 124.305 144.695 124.467 144.039C124.536 143.765 124.398 143.49 124.158 143.372L119.737 140.82C119.478 140.67 119.302 140.424 119.228 140.149C119.155 139.876 119.183 139.574 119.335 139.313L119.354 139.28L122.487 133.852V133.853C122.64 133.59 122.885 133.413 123.159 133.34C123.432 133.266 123.735 133.296 123.996 133.446L123.994 133.447L128.45 136.019C128.688 136.157 128.982 136.109 129.165 135.922C130.151 134.971 131.254 134.139 132.449 133.449C133.626 132.769 134.893 132.227 136.23 131.843C136.489 131.769 136.658 131.532 136.658 131.276V126.137C136.658 125.835 136.783 125.559 136.983 125.359C137.183 125.159 137.457 125.035 137.76 125.035H144.066C144.367 125.035 144.645 125.159 144.844 125.359C145.045 125.559 145.169 125.835 145.169 126.137V131.276C145.169 131.555 145.363 131.789 145.621 131.85Z" fill="#BDBEFF"/>
<path d="M92.5879 136.881V194.032C92.5879 195.659 93.9008 196.976 95.5284 196.976H96.9147C97.315 196.976 97.694 196.899 98.0383 196.753C99.1061 196.313 99.8549 195.259 99.8549 194.032V152.578C99.8549 150.942 101.181 149.616 102.817 149.616H128.544V144.329C128.544 144.088 128.574 143.855 128.631 143.631C128.816 142.848 129.315 142.185 129.991 141.789C130.435 141.518 130.951 141.367 131.507 141.367H164.307V136.881C164.307 135.039 162.913 133.519 161.118 133.33C160.992 133.321 160.868 133.312 160.739 133.312H96.1572C94.6804 133.312 93.4146 134.208 92.8726 135.482C92.6913 135.912 92.5879 136.386 92.5879 136.881Z" fill="#FFC15A"/>
<path d="M146.119 125.617H98.0391V196.975H146.119V125.617Z" fill="white"/>
<path d="M106.629 134.903H137.831C138.15 134.903 138.408 134.645 138.408 134.327V132.928C138.408 132.61 138.15 132.352 137.831 132.352H106.629C106.311 132.352 106.053 132.61 106.053 132.928V134.327C106.053 134.645 106.311 134.903 106.629 134.903Z" fill="#EEEFFF"/>
<path d="M106.629 139.267H137.831C138.15 139.267 138.408 139.008 138.408 138.69V137.291C138.408 136.973 138.15 136.715 137.831 136.715H106.629C106.311 136.715 106.053 136.973 106.053 137.291V138.69C106.053 139.008 106.311 139.267 106.629 139.267Z" fill="#EEEFFF"/>
<path d="M106.629 143.63H137.831C138.15 143.63 138.408 143.372 138.408 143.053V141.655C138.408 141.336 138.15 141.078 137.831 141.078H106.629C106.311 141.078 106.053 141.336 106.053 141.655V143.053C106.053 143.372 106.311 143.63 106.629 143.63Z" fill="#EEEFFF"/>
<path d="M106.629 147.989H137.831C138.15 147.989 138.408 147.731 138.408 147.413V146.014C138.408 145.696 138.15 145.438 137.831 145.438H106.629C106.311 145.438 106.053 145.696 106.053 146.014V147.413C106.053 147.731 106.311 147.989 106.629 147.989Z" fill="#EEEFFF"/>
<path d="M106.629 152.349H137.831C138.15 152.349 138.408 152.09 138.408 151.772V150.374C138.408 150.055 138.15 149.797 137.831 149.797H106.629C106.311 149.797 106.053 150.055 106.053 150.374V151.772C106.053 152.09 106.311 152.349 106.629 152.349Z" fill="#EEEFFF"/>
<path d="M106.629 156.712H137.831C138.15 156.712 138.408 156.454 138.408 156.135V154.737C138.408 154.418 138.15 154.16 137.831 154.16H106.629C106.311 154.16 106.053 154.418 106.053 154.737V156.135C106.053 156.454 106.311 156.712 106.629 156.712Z" fill="#EEEFFF"/>
<path d="M106.629 161.071H137.831C138.15 161.071 138.408 160.813 138.408 160.495V159.096C138.408 158.778 138.15 158.52 137.831 158.52H106.629C106.311 158.52 106.053 158.778 106.053 159.096V160.495C106.053 160.813 106.311 161.071 106.629 161.071Z" fill="#EEEFFF"/>
<path d="M106.629 165.435H137.831C138.15 165.435 138.408 165.176 138.408 164.858V163.459C138.408 163.141 138.15 162.883 137.831 162.883H106.629C106.311 162.883 106.053 163.141 106.053 163.459V164.858C106.053 165.176 106.311 165.435 106.629 165.435Z" fill="#EEEFFF"/>
<path d="M106.629 169.794H137.831C138.15 169.794 138.408 169.536 138.408 169.217V167.819C138.408 167.5 138.15 167.242 137.831 167.242H106.629C106.311 167.242 106.053 167.5 106.053 167.819V169.217C106.053 169.536 106.311 169.794 106.629 169.794Z" fill="#EEEFFF"/>
<path d="M106.629 174.157H137.831C138.15 174.157 138.408 173.899 138.408 173.581V172.182C138.408 171.864 138.15 171.605 137.831 171.605H106.629C106.311 171.605 106.053 171.864 106.053 172.182V173.581C106.053 173.899 106.311 174.157 106.629 174.157Z" fill="#EEEFFF"/>
<path d="M106.629 178.517H137.831C138.15 178.517 138.408 178.258 138.408 177.94V176.541C138.408 176.223 138.15 175.965 137.831 175.965H106.629C106.311 175.965 106.053 176.223 106.053 176.541V177.94C106.053 178.258 106.311 178.517 106.629 178.517Z" fill="#EEEFFF"/>
<path opacity="0.1" d="M159.096 125.617H111.02V188.4H159.096V125.617Z" fill="#19468E"/>
<path d="M113.043 180.387H161.119V117.604H113.043V180.387Z" fill="white"/>
<path d="M121.578 126.892H152.886C153.175 126.892 153.41 126.657 153.41 126.368V124.864C153.41 124.574 153.175 124.34 152.886 124.34H121.578C121.289 124.34 121.055 124.574 121.055 124.864V126.368C121.055 126.657 121.289 126.892 121.578 126.892Z" fill="#EEEFFF"/>
<path d="M121.578 131.251H152.886C153.175 131.251 153.41 131.016 153.41 130.727V129.223C153.41 128.934 153.175 128.699 152.886 128.699H121.578C121.289 128.699 121.055 128.934 121.055 129.223V130.727C121.055 131.016 121.289 131.251 121.578 131.251Z" fill="#EEEFFF"/>
<path d="M121.578 135.614H152.886C153.175 135.614 153.41 135.38 153.41 135.09V133.586C153.41 133.297 153.175 133.062 152.886 133.062H121.578C121.289 133.062 121.055 133.297 121.055 133.586V135.09C121.055 135.38 121.289 135.614 121.578 135.614Z" fill="#EEEFFF"/>
<path d="M121.578 139.977H152.886C153.175 139.977 153.41 139.743 153.41 139.454V137.95C153.41 137.66 153.175 137.426 152.886 137.426H121.578C121.289 137.426 121.055 137.66 121.055 137.95V139.454C121.055 139.743 121.289 139.977 121.578 139.977Z" fill="#EEEFFF"/>
<path d="M121.578 144.337H152.886C153.175 144.337 153.41 144.102 153.41 143.813V142.309C153.41 142.02 153.175 141.785 152.886 141.785H121.578C121.289 141.785 121.055 142.02 121.055 142.309V143.813C121.055 144.102 121.289 144.337 121.578 144.337Z" fill="#EEEFFF"/>
<path d="M121.578 148.696H152.886C153.175 148.696 153.41 148.462 153.41 148.172V146.668C153.41 146.379 153.175 146.145 152.886 146.145H121.578C121.289 146.145 121.055 146.379 121.055 146.668V148.172C121.055 148.462 121.289 148.696 121.578 148.696Z" fill="#EEEFFF"/>
<path d="M121.578 153.06H152.886C153.175 153.06 153.41 152.825 153.41 152.536V151.032C153.41 150.742 153.175 150.508 152.886 150.508H121.578C121.289 150.508 121.055 150.742 121.055 151.032V152.536C121.055 152.825 121.289 153.06 121.578 153.06Z" fill="#EEEFFF"/>
<path d="M121.578 157.423H152.886C153.175 157.423 153.41 157.188 153.41 156.899V155.395C153.41 155.106 153.175 154.871 152.886 154.871H121.578C121.289 154.871 121.055 155.106 121.055 155.395V156.899C121.055 157.188 121.289 157.423 121.578 157.423Z" fill="#EEEFFF"/>
<path d="M121.578 161.782H152.886C153.175 161.782 153.41 161.548 153.41 161.258V159.754C153.41 159.465 153.175 159.23 152.886 159.23H121.578C121.289 159.23 121.055 159.465 121.055 159.754V161.258C121.055 161.548 121.289 161.782 121.578 161.782Z" fill="#EEEFFF"/>
<path d="M121.578 166.145H152.886C153.175 166.145 153.41 165.911 153.41 165.622V164.118C153.41 163.828 153.175 163.594 152.886 163.594H121.578C121.289 163.594 121.055 163.828 121.055 164.118V165.622C121.055 165.911 121.289 166.145 121.578 166.145Z" fill="#EEEFFF"/>
<path d="M121.578 170.505H152.886C153.175 170.505 153.41 170.27 153.41 169.981V168.477C153.41 168.188 153.175 167.953 152.886 167.953H121.578C121.289 167.953 121.055 168.188 121.055 168.477V169.981C121.055 170.27 121.289 170.505 121.578 170.505Z" fill="#EEEFFF"/>
<path d="M96.9141 196.976H167.949C169.576 196.976 170.889 195.659 170.889 194.032V144.329C170.889 142.693 169.563 141.367 167.927 141.367H131.506C130.951 141.367 130.434 141.518 129.99 141.789C129.315 142.185 128.815 142.848 128.63 143.632C128.574 143.855 128.544 144.088 128.544 144.329V149.616H102.816C101.18 149.616 99.8542 150.942 99.8542 152.578V194.032C99.8542 195.259 99.1054 196.314 98.0377 196.753C97.6933 196.899 97.3143 196.976 96.9141 196.976Z" fill="#FFD35A"/>
<path d="M236.892 0H152.692C145.752 0 140.104 5.64432 140.104 12.5883V184.387C140.104 191.327 145.752 196.975 152.692 196.975H236.892C243.831 196.975 249.481 191.327 249.481 184.387V12.5883C249.48 5.64432 243.831 0 236.892 0ZM244.517 184.387C244.517 188.597 241.102 192.012 236.892 192.012H152.692C149.84 192.012 147.354 190.447 146.046 188.128C146.046 188.123 146.041 188.123 146.046 188.118C145.419 187.017 145.067 185.745 145.067 184.387V12.5883C145.067 11.2301 145.419 9.95331 146.046 8.8525V8.84793C147.354 6.52885 149.84 4.96316 152.692 4.96316H236.892C241.102 4.96316 244.517 8.37431 244.517 12.5883V184.387Z" fill="#B5DEFF"/>
<path d="M254.85 12.5883V184.387C254.85 191.327 249.205 196.975 242.266 196.975H236.893C243.832 196.975 249.481 191.327 249.481 184.387V12.5883C249.481 5.64432 243.832 0 236.893 0H242.266C249.205 0 254.85 5.64432 254.85 12.5883Z" fill="#B5DEFF"/>
<path d="M236.892 4.96094H152.691C149.84 4.96094 147.354 6.52663 146.046 8.84571V8.85027C145.418 9.95147 145.066 11.2279 145.066 12.586V184.385C145.066 185.743 145.418 187.015 146.046 188.116C146.041 188.121 146.046 188.121 146.046 188.125C147.354 190.444 149.84 192.01 152.691 192.01H236.892C241.102 192.01 244.518 188.594 244.518 184.385V12.5864C244.518 8.37247 241.102 4.96094 236.892 4.96094Z" fill="white"/>
<path d="M226.089 63.3366V105.235C226.089 108.107 225.289 110.921 223.786 113.366C222.578 115.33 221.384 116.848 220.399 117.979C218.486 120.173 216.497 121.812 212.519 125.096C211.304 126.1 209.256 127.786 206.446 129.852C202.413 132.815 198.494 135.337 194.793 137.487C191.092 135.337 187.169 132.815 183.14 129.852C180.33 127.786 178.282 126.1 177.067 125.096C174.753 123.187 173.111 121.833 171.768 120.607C170.801 119.72 169.987 118.895 169.187 117.979C169.166 117.958 169.147 117.936 169.126 117.91C168.151 116.79 166.983 115.29 165.797 113.366C164.294 110.921 163.494 108.107 163.494 105.235V63.3366L180.728 60.5956C190.045 59.114 199.538 59.114 208.859 60.5956L222.914 62.833L226.089 63.3366Z" fill="#B5DEFF"/>
<path d="M194.792 132.867C191.61 130.939 188.49 128.854 185.493 126.65C182.734 124.622 180.691 122.937 179.594 122.031C175.802 118.903 173.893 117.328 172.199 115.389C172.166 115.35 172.132 115.312 172.097 115.273C171.045 114.059 170.064 112.716 169.181 111.282C168.06 109.459 167.467 107.366 167.467 105.233V66.7256L181.35 64.5191C185.782 63.8143 190.305 63.457 194.793 63.457C199.28 63.457 203.803 63.8143 208.235 64.5191L222.118 66.7264V105.234C222.118 107.367 221.525 109.459 220.403 111.284C219.504 112.745 218.496 114.119 217.407 115.366C215.706 117.318 213.796 118.893 209.992 122.031C208.893 122.937 206.85 124.624 204.093 126.65C201.094 128.854 197.974 130.939 194.792 132.867Z" fill="#E1F2FF"/>
<path d="M194.791 130.076C192.096 128.4 189.447 126.607 186.901 124.734C184.196 122.746 182.186 121.088 181.107 120.198C177.41 117.148 175.555 115.618 173.99 113.825C173.963 113.795 173.923 113.748 173.879 113.699C172.916 112.586 172.016 111.353 171.205 110.035C170.315 108.587 169.844 106.927 169.844 105.234V68.7564L181.722 66.8683C186.032 66.1834 190.429 65.8359 194.791 65.8359C199.154 65.8359 203.551 66.1834 207.86 66.8683L219.739 68.7567V105.234C219.739 106.927 219.267 108.588 218.376 110.038C217.546 111.387 216.616 112.654 215.614 113.801C214.04 115.607 212.181 117.141 208.478 120.195C207.396 121.088 205.387 122.746 202.683 124.733C200.134 126.607 197.485 128.401 194.791 130.076Z" fill="white"/>
<path d="M208.109 91.5407C208.109 97.9563 203.572 103.311 197.533 104.578C196.649 104.76 195.73 104.859 194.791 104.859C187.436 104.859 181.473 98.8956 181.473 91.5407C181.473 84.1829 187.436 78.2227 194.791 78.2227C201.978 78.2227 207.836 83.9134 208.1 91.0394C208.106 91.2043 208.109 91.3723 208.109 91.5407Z" fill="#1D5BBF"/>
<path d="M203.193 86.133C202.344 85.2838 200.967 85.2838 200.118 86.133L192.677 93.5741L189.538 90.4347C188.689 89.5856 187.312 89.5856 186.463 90.4347C185.614 91.2839 185.614 92.6603 186.463 93.5095L191.14 98.1864C191.547 98.5943 192.101 98.8231 192.677 98.8231C193.254 98.8231 193.807 98.5939 194.215 98.1864L203.193 89.2077C204.042 88.3586 204.042 86.9822 203.193 86.133Z" fill="white"/>
<path d="M242.149 80.3055C242.195 80.209 241.983 79.7703 241.943 79.6559C241.859 79.4161 241.766 79.1789 241.663 78.9462C241.459 78.481 241.218 78.0309 240.937 77.6075C240.383 76.7743 239.668 76.0399 238.788 75.5518C238.48 75.3808 238.125 75.1553 237.758 75.1728C237.391 75.1903 236.975 75.5807 237.216 75.9559C237.309 76.1015 237.461 76.1969 237.604 76.2949C238.27 76.7518 238.843 77.3589 239.222 78.075C239.598 78.7839 239.623 79.6035 239.876 80.3534C240.127 81.0984 240.652 81.7135 241.258 82.1996C241.555 81.5683 241.852 80.9369 242.149 80.3055Z" fill="#FF95A9"/>
<path d="M242.241 79.6556C241.86 79.3823 241.282 78.9615 240.589 78.4301C239.342 77.4753 239.299 77.3715 238.639 76.926C237.038 75.8473 236.172 75.7032 235.742 75.6633C235.401 75.6317 235.116 75.6458 234.925 75.6633C234.529 76.6721 234.133 77.6813 233.736 78.6901C234.148 79.2193 234.694 79.8202 235.408 80.3984C236.296 81.1187 237.093 81.5186 238.583 82.2552C239.234 82.5768 239.979 82.9242 240.811 83.2766C241.288 82.0697 241.765 80.8629 242.241 79.6556Z" fill="#FF95A9"/>
<path d="M275.357 187.38C275.44 188.343 275.475 189.436 275.413 190.633C275.371 191.444 275.291 192.199 275.188 192.891C277.038 192.891 278.887 192.891 280.737 192.891C280.685 192.154 280.657 191.369 280.661 190.54C280.667 189.294 280.747 188.141 280.868 187.098C279.031 187.192 277.194 187.286 275.357 187.38Z" fill="#FF95A9"/>
<path d="M297.453 186.669C297.553 187.207 297.639 187.791 297.697 188.414C297.802 189.547 297.797 190.579 297.737 191.48C299.666 191.48 301.594 191.48 303.522 191.48C303.514 190.871 303.501 190.255 303.482 189.633C303.445 188.435 303.39 187.264 303.319 186.121C301.364 186.304 299.408 186.486 297.453 186.669Z" fill="#FF95A9"/>
<path d="M304.811 188.936C304.811 188.936 296.587 188.936 296.581 188.936C295.656 188.855 295.058 177.854 294.939 176.659C294.246 169.738 293.336 162.842 292.489 155.938C291.688 149.402 291.363 142.812 290.167 136.326C289.719 133.902 289.296 131.945 289.029 130.751C288.407 134.253 287.598 139.03 286.756 144.717C285.619 152.397 284.709 160.112 283.887 167.83C283.269 173.649 282.584 180.756 281.948 188.936H274.377C274.377 170.737 273.095 152.402 273.71 134.111C273.771 132.319 274.263 114.402 273.781 114.402C283.464 114.8 293.148 115.198 302.833 115.595C303.177 116.758 303.65 118.599 303.915 120.9C304.608 126.921 304.23 133.142 304.335 139.198C304.625 155.775 305.055 172.355 304.811 188.936Z" fill="#1D5BBF"/>
<path d="M305.556 196.977H295.965C295.944 196.396 295.954 195.766 296.013 195.097C296.162 193.399 296.575 191.958 297.006 190.836C297.709 190.702 298.498 190.592 299.366 190.533C301.323 190.401 303.013 190.581 304.307 190.817C304.703 191.559 305.114 192.521 305.366 193.677C305.636 194.918 305.648 196.042 305.556 196.977Z" fill="#122A4F"/>
<path d="M282.195 194.965C282.144 195.496 282.111 196.174 282.147 196.98H265.282C265.024 195.513 265.255 193.871 266.616 193.148C268.07 192.376 269.747 192.004 271.366 191.766C272.43 191.608 273.401 191.341 274.133 190.492C274.847 190.763 275.822 191.043 276.998 191.136C278.909 191.285 280.452 190.873 281.364 190.547C281.681 190.986 282.074 191.654 282.248 192.528C282.429 193.428 282.281 194.06 282.195 194.965Z" fill="#122A4F"/>
<path d="M317.756 97.2028C317.559 94.1683 316.854 91.0092 316.015 88.0987C315.173 85.1775 314.036 82.3289 312.522 79.6879C308.868 73.313 302.736 69.4556 295.523 68.343C291.374 67.7032 287.13 67.9393 283.013 68.6919C279.354 69.3624 275.721 71.4759 272.566 73.3772C269.3 75.3439 266.163 77.5231 262.821 79.3576C261.167 80.2653 259.566 81.0373 257.74 81.4866C255.875 81.9454 253.944 82.1297 252.027 82.0214C247.784 81.7808 244.287 80.3892 241.808 79.0466C241.277 80.5059 240.748 81.9667 240.217 83.4259C241.293 84.0444 242.773 84.8734 244.565 85.8062C246.266 86.6926 247.714 87.4456 249.7 88.3043C251.42 89.0478 252.965 89.7088 255.113 90.3033C257.189 90.8777 258.646 91.2669 260.554 91.1635C262.343 91.067 263.646 90.5835 264.551 90.2475C267.728 89.0706 271.31 87.7528 275.378 86.2232C275.094 89.5385 274.826 92.879 274.572 96.2434C274.054 103.115 273.612 109.898 273.24 116.591C275.281 117.27 278.07 118.055 281.442 118.59C285.481 119.23 288.57 119.227 291.186 119.214C294.432 119.197 298.744 118.972 303.802 118.131C303.793 114.103 303.773 110.075 303.743 106.048C303.735 105.192 303.728 104.337 303.721 103.482C306.449 103.994 309.201 104.313 311.982 104.316C313.103 104.316 314.274 104.251 315.246 103.695C317.418 102.454 317.902 99.4709 317.756 97.2028ZM306.85 95.1452C306.36 95.5421 305.358 95.2061 304.811 95.1392C304.418 95.0901 304.024 95.0403 303.631 94.9879C303.597 92.0979 303.556 89.2086 303.51 86.3197C303.513 86.552 303.813 86.9534 303.913 87.1682C304.069 87.4981 304.224 87.8292 304.377 88.1606C304.688 88.8361 304.992 89.5127 305.292 90.1931C305.779 91.2996 306.243 92.4172 306.703 93.5358C306.88 93.9661 307.332 94.7545 306.85 95.1452Z" fill="#D9EDFF"/>
<path d="M303.744 106.178L291.293 100.234L303.721 103.483C303.728 104.338 303.735 105.194 303.742 106.049C303.742 106.092 303.744 106.135 303.744 106.178Z" fill="#F2A222"/>
<path d="M287.845 92.007L287.731 93.581L287.403 98.1223L287.253 100.19C287.217 100.676 286.829 101.052 286.361 101.052H282.072C281.604 101.052 281.215 100.676 281.18 100.19L281.03 98.1223L280.702 93.581L280.588 92.007L284.216 91.6094L287.845 92.007Z" fill="#EEEFFF"/>
<path d="M287.844 92.0065L287.73 93.5802L287.402 98.1215L287.252 100.189C287.217 100.675 286.828 101.051 286.36 101.051H285.75C286.218 101.051 286.607 100.675 286.642 100.189L286.792 98.1215L287.12 93.5802L287.234 92.0065L287.579 91.8477L287.844 92.0065Z" fill="#B0B7F7"/>
<path d="M288.145 90.5155C288.056 90.5155 287.976 90.46 287.945 90.3764L287.636 89.5447C287.592 89.4284 287.485 89.3486 287.361 89.3406L281.256 88.9498C281.118 88.9411 280.99 89.024 280.942 89.154L280.488 90.3764C280.457 90.46 280.377 90.5155 280.288 90.5155C280.117 90.5155 279.979 90.6539 279.979 90.8246V91.6924C279.979 91.8661 280.12 92.0071 280.293 92.0071H288.139C288.313 92.0071 288.454 91.8661 288.454 91.6924V90.8246C288.454 90.6539 288.316 90.5155 288.145 90.5155Z" fill="#7A7DFF"/>
<path d="M288.454 90.8227V91.6905C288.454 91.8642 288.313 92.0052 288.139 92.0052H287.53C287.703 92.0052 287.844 91.8642 287.844 91.6905V90.8227C287.844 90.652 287.706 90.5136 287.535 90.5136C287.446 90.5136 287.366 90.4581 287.335 90.3745L287.026 89.5428C286.983 89.4265 286.829 89.3045 286.705 89.2969L287.361 89.3387C287.485 89.3463 287.592 89.4265 287.635 89.5428L287.944 90.3745C287.975 90.4585 288.055 90.5136 288.145 90.5136C288.315 90.5136 288.454 90.652 288.454 90.8227Z" fill="#414BF7"/>
<path d="M287.973 93.7827L287.68 97.9488C287.673 98.0469 287.592 98.1233 287.493 98.1233H280.939C280.841 98.1233 280.759 98.0472 280.752 97.9488L280.459 93.7827C280.452 93.6744 280.538 93.582 280.646 93.582H287.786C287.894 93.582 287.98 93.6744 287.973 93.7827Z" fill="#FF397C"/>
<path d="M287.974 93.7827L287.681 97.9492C287.674 98.0472 287.592 98.1236 287.494 98.1236H286.893C286.991 98.1236 287.073 98.0476 287.08 97.9492L287.372 93.7827C287.38 93.6744 287.294 93.582 287.185 93.582H287.787C287.895 93.582 287.981 93.6744 287.974 93.7827Z" fill="#DD1B65"/>
<path d="M296.902 70.1371C296.481 68.8363 296.099 67.363 295.826 65.7323C295.142 61.6529 295.392 58.0969 295.824 55.457C293.545 56.5936 291.265 57.7301 288.986 58.867C289.034 60.0188 288.984 61.3857 288.712 62.8959C288.045 66.5914 286.378 69.2925 285.211 70.8536C286.129 71.3527 287.912 72.1585 290.275 72.2022C293.649 72.2646 296.057 70.7335 296.902 70.1371Z" fill="#FF95A9"/>
<path d="M295.726 60.8202C296.593 60.9939 297.609 59.3826 298.115 58.5801C298.462 58.0297 299.031 57.1053 299.223 55.738C299.44 54.1929 299.055 52.9446 298.785 52.2847C298.541 51.6883 298.253 51.2318 298.035 50.9265C298.115 50.8657 298.977 50.1937 298.922 49.1233C298.864 48.0053 297.858 47.4386 297.618 47.3158C296.331 46.6571 295.017 47.4679 294.946 47.5131C295.034 46.4621 294.594 45.4616 293.775 44.9219C292.96 44.384 292.094 44.5174 291.957 44.5406C290.729 44.7489 290.155 45.7862 290.086 45.9159C289.86 45.5711 288.817 44.0601 286.911 43.7199C285.919 43.5428 285.126 43.7606 284.863 43.8419C283.106 44.387 282.34 45.8801 282.231 46.1021C282.062 46.445 281.538 47.5082 281.84 48.7747C282.346 50.8965 284.844 52.225 286.372 51.7966C287.017 51.6161 287.342 51.1637 287.639 51.3275C288.099 51.5826 287.518 52.7861 287.65 54.1883C287.87 56.5154 290.003 58.8538 291.63 58.7117C292.628 58.6246 292.931 57.6489 293.676 57.8146C294.846 58.075 294.694 60.613 295.726 60.8202Z" fill="#3F327A"/>
<path d="M294.425 60.3728C293.775 62.1023 293.429 63.0222 292.461 63.7939C292.118 64.0706 290.747 65.084 288.983 64.8175C287.296 64.5617 286.328 63.3024 285.74 62.5319C284.414 60.8043 284.251 58.9383 284.187 58.0435C284.082 56.6253 284.33 55.5112 284.57 54.4366C284.814 53.3453 285.13 52.4387 285.409 51.7571C286.078 51.7286 286.916 51.5834 287.768 51.1459C288.047 51.0034 288.292 50.8471 288.509 50.6875C288.528 50.8677 288.645 51.8742 289.515 52.5227C290.597 53.3255 291.878 52.8618 292.075 52.7838C292.886 52.4748 293.361 51.8548 293.624 51.3371C294.038 51.848 294.612 52.6865 294.966 53.8478C295.359 55.1337 295.291 56.1904 295.229 57.0096C295.119 58.5008 294.722 59.5803 294.425 60.3728Z" fill="#FCB0AA"/>
<path d="M292.505 65.3079C291.322 66.5889 289.441 67.1222 287.572 66.7455C287.841 66.1001 288.093 65.4007 288.306 64.6518C288.517 64.7271 288.745 64.7845 288.985 64.8198C290.749 65.0863 292.12 64.0725 292.463 63.7962C293.068 63.3161 293.429 62.7771 293.771 62.0195C293.747 62.8638 293.523 64.2082 292.505 65.3079Z" fill="#3F327A"/>
<path d="M294.447 58.2917C294.551 58.0796 295.097 57.0214 296.319 56.6512C297.009 56.4421 297.876 56.4166 298.517 56.7891C299.281 57.2335 299.343 58.1682 299.079 58.9375C298.285 61.254 295.466 61.5949 293.576 60.4534C293.867 59.7331 294.157 59.0124 294.447 58.2917Z" fill="#FCB0AA"/>
<path d="M297.911 68.8221C297.483 69.9537 296.766 71.1381 295.565 72.0766C293.031 74.0578 288.617 74.7355 286.474 72.31C285.384 71.0769 285.241 69.4497 285.303 68.3298C288.693 67.8821 292.139 67.8213 295.524 68.3432C296.334 68.4682 297.131 68.6279 297.911 68.8221Z" fill="#FCB0AA"/>
<path d="M291.439 96.2413C291.391 97.5713 291.342 98.9017 291.294 100.232C290.574 100.153 289.969 100.101 289.516 100.066C288.78 100.01 288.605 100.011 288.379 100.046C287.696 100.151 287.669 100.389 286.993 100.521C286.7 100.579 286.302 100.559 285.505 100.521C284.942 100.494 284.923 100.476 284.306 100.438C283.314 100.378 283.097 100.41 282.383 100.335C281.305 100.223 281.091 100.077 280.957 99.9215C280.792 99.7315 280.614 99.3757 280.688 99.0325C280.748 98.7531 280.924 98.7162 280.936 98.4535C280.949 98.154 280.725 98.1019 280.688 97.7507C280.656 97.4485 280.815 97.4204 280.833 97.0479C280.85 96.6856 280.703 96.6476 280.667 96.2002C280.649 95.9699 280.612 95.4985 280.874 95.332C281.025 95.2363 281.217 95.2765 281.329 95.3115C285.913 95.2887 287.707 95.2925 287.821 95.3115C287.824 95.3119 287.832 95.3134 287.843 95.3115C287.915 95.2974 287.972 95.134 287.986 94.319C287.989 94.1598 287.991 93.9248 287.986 93.6367C288.631 93.8359 288.994 94.14 289.206 94.381C289.389 94.5878 289.777 95.1085 290.116 95.8076C290.236 96.0565 290.308 96.2409 290.508 96.345C290.816 96.5047 291.201 96.3599 291.439 96.2413Z" fill="#FF95A9"/>
<path d="M194.695 28.3477H115.42V46.4947H194.695V28.3477Z" fill="#B5DEFF"/>
<path d="M192.126 25.7773H112.852V43.9244H192.126V25.7773Z" fill="#E1F2FF"/>
<path d="M266.411 157.461H187.137V175.608H266.411V157.461Z" fill="#B5DEFF"/>
<path d="M263.843 154.891H184.568V173.038H263.843V154.891Z" fill="#E1F2FF"/>
<defs>
<linearGradient id="paint0_linear_742_29273" x1="80.7602" y1="27.1651" x2="109.541" y2="87.044" gradientUnits="userSpaceOnUse">
<stop stop-color="#F07295"/>
<stop offset="0.9895" stop-color="#F0324B"/>
</linearGradient>
<linearGradient id="paint1_linear_742_29273" x1="137.203" y1="78.8853" x2="137.203" y2="291.278" gradientUnits="userSpaceOnUse">
<stop stop-color="#F07295"/>
<stop offset="0.9895" stop-color="#F0324B"/>
</linearGradient>
<linearGradient id="paint2_linear_742_29273" x1="34.8763" y1="54.2026" x2="17.4624" y2="109.232" gradientUnits="userSpaceOnUse">
<stop stop-color="#F07295"/>
<stop offset="0.9895" stop-color="#F0324B"/>
</linearGradient>
</defs>
</svg>
