<svg width="24" height="25" viewBox="0 0 24 25" fill="none" xmlns="http://www.w3.org/2000/svg">
<path d="M2.64945 4.12745C2.64945 3.9465 2.79614 3.79981 2.97709 3.79981H9.2731C9.45405 3.79981 9.60074 3.9465 9.60074 4.12745C9.60074 4.3084 9.45405 4.45509 9.2731 4.45509H2.97709C2.79614 4.45509 2.64945 4.3084 2.64945 4.12745ZM2.97709 6.82776H9.2731C9.45405 6.82776 9.60074 6.68108 9.60074 6.50012C9.60074 6.31917 9.45405 6.17248 9.2731 6.17248H2.97709C2.79614 6.17248 2.64945 6.31917 2.64945 6.50012C2.64945 6.68108 2.79614 6.82776 2.97709 6.82776ZM2.97709 9.20044H13.7832C13.9642 9.20044 14.1109 9.05375 14.1109 8.8728C14.1109 8.69185 13.9642 8.54516 13.7832 8.54516H2.97709C2.79614 8.54516 2.64945 8.69185 2.64945 8.8728C2.64945 9.05375 2.79614 9.20044 2.97709 9.20044ZM23.355 22.8743C23.0948 23.1346 22.7529 23.2646 22.4111 23.2646C22.0693 23.2646 21.7274 23.1345 21.4672 22.8743L18.7529 20.16C18.528 19.9351 18.4634 19.6104 18.5574 19.3273C18.4038 19.207 18.1966 19.1921 18.0241 19.2946C17.582 19.5576 17.1026 19.7492 16.6041 19.8651V21.3273C16.6041 21.5082 16.4574 21.6549 16.2764 21.6549H10.3003C10.5632 22.1779 10.7283 22.7491 10.7818 23.3428C10.7827 23.3526 10.7831 23.3624 10.7831 23.3722V24.0984C10.7831 24.2793 10.6365 24.426 10.4555 24.426H1.71638C1.53543 24.426 1.38874 24.2793 1.38874 24.0984V23.3722C1.38874 23.3624 1.3892 23.3526 1.39005 23.3428C1.44355 22.7491 1.60872 22.1779 1.87158 21.6549H0.48389C0.302939 21.6549 0.15625 21.5082 0.15625 21.3273V1.16358C0.15625 1.07671 0.190746 0.993345 0.252248 0.931889C0.313657 0.87048 0.397018 0.835938 0.48389 0.835938H10.8747C11.2929 0.835938 11.6768 1.00411 11.9851 1.3223L16.0807 5.41788C16.0807 5.41788 16.0808 5.41807 16.0809 5.41817C16.081 5.41826 16.1177 5.45495 16.1177 5.45495C16.4359 5.76317 16.6041 6.14707 16.6041 6.56537V10.1051C18.8206 10.6218 20.4767 12.6138 20.4767 14.9853C20.4767 15.8874 20.2342 16.7719 19.7754 17.5433C19.6729 17.7157 19.6877 17.923 19.808 18.0767C20.0911 17.9826 20.4158 18.0473 20.6407 18.2722L23.355 20.9865C23.8755 21.507 23.8755 22.3539 23.355 22.8743ZM12.5028 4.93719H14.6733L12.5028 2.76676V4.93719ZM10.1278 23.3872C9.93175 21.2902 8.19657 19.7108 6.08592 19.7108C3.97526 19.7108 2.24013 21.2902 2.04406 23.3872V23.7707H10.1279L10.1278 23.3872ZM7.84797 17.2793C7.84797 16.3077 7.05751 15.5173 6.08592 15.5173C5.11433 15.5173 4.32387 16.3077 4.32387 17.2793C4.32387 18.2509 5.11433 19.0414 6.08592 19.0414C7.05751 19.0414 7.84797 18.2509 7.84797 17.2793ZM15.9488 19.9725C15.7888 19.9879 15.6277 19.996 15.4661 19.996C12.7032 19.996 10.4553 17.7482 10.4553 14.9853C10.4553 14.6289 10.493 14.2812 10.5641 13.9457H2.97709C2.79614 13.9457 2.64945 13.799 2.64945 13.6181C2.64945 13.4371 2.79614 13.2905 2.97709 13.2905H10.7507C10.9827 12.6469 11.3429 12.0642 11.8004 11.5731H2.97709C2.79614 11.5731 2.64945 11.4264 2.64945 11.2455C2.64945 11.0645 2.79614 10.9178 2.97709 10.9178H12.5434C13.3666 10.3247 14.3761 9.97465 15.4661 9.97465C15.6289 9.97465 15.7899 9.98275 15.9488 9.998V6.56537C15.9488 6.32128 15.8544 6.11154 15.6603 5.92413C15.6588 5.92282 15.6574 5.92147 15.6561 5.92011L15.6247 5.8887C15.4265 5.69774 15.1669 5.59252 14.8933 5.59252H12.1752C11.9943 5.59252 11.8476 5.44583 11.8476 5.26488V2.54678C11.8476 2.27311 11.7424 2.01338 11.5513 1.81521L11.5201 1.78399C11.5187 1.78263 11.5173 1.78127 11.516 1.77991C11.3285 1.58576 11.1188 1.49136 10.8747 1.49136H0.811529V20.9997H2.27168C2.45502 20.7479 2.6634 20.5122 2.89672 20.2978C3.42057 19.8165 4.03897 19.4662 4.7059 19.2623C4.0795 18.8251 3.66859 18.0995 3.66859 17.2794C3.66859 15.9464 4.75303 14.862 6.08592 14.862C7.4188 14.862 8.50324 15.9464 8.50324 17.2794C8.50324 18.0995 8.09234 18.8251 7.46594 19.2623C8.13287 19.4662 8.75127 19.8164 9.27512 20.2978C9.5084 20.5122 9.71682 20.7478 9.90011 20.9997H15.9488V19.9725ZM18.9553 18.807L19.2878 18.4746C19.0034 18.1092 18.9688 17.6174 19.2122 17.2084C19.6108 16.5383 19.8215 15.7695 19.8215 14.9853C19.8215 12.5837 17.8677 10.6299 15.4661 10.6299C13.0645 10.6299 11.1106 12.5837 11.1106 14.9853C11.1106 17.3869 13.0645 19.3408 15.4661 19.3408C16.2503 19.3408 17.019 19.1301 17.689 18.7315C18.0982 18.4882 18.59 18.5227 18.9553 18.8071V18.807ZM23.0895 21.9304C23.0895 21.7481 23.0193 21.5774 22.8917 21.4498L20.1774 18.7355C20.1465 18.7047 20.106 18.6892 20.0655 18.6892C20.0249 18.6892 19.9844 18.7047 19.9535 18.7355L19.2162 19.4728C19.1545 19.5345 19.1545 19.6349 19.2162 19.6967L21.9304 22.411C22.1955 22.676 22.6267 22.6759 22.8916 22.411C23.0192 22.2834 23.0895 22.1127 23.0895 21.9304L23.0895 21.9304ZM19.1051 14.9853C19.1051 16.9919 17.4727 18.6244 15.4661 18.6244C13.4595 18.6244 11.827 16.9919 11.827 14.9853C11.827 12.9787 13.4595 11.3462 15.4661 11.3462C17.4727 11.3462 19.1051 12.9787 19.1051 14.9853ZM18.4499 14.9853C18.4499 13.3401 17.1114 12.0015 15.4661 12.0015C13.8208 12.0015 12.4823 13.3401 12.4823 14.9853C12.4823 16.6306 13.8208 17.9691 15.4661 17.9691C17.1114 17.9691 18.4499 16.6306 18.4499 14.9853ZM17.6259 14.0099C17.6259 14.2265 17.5419 14.4298 17.3893 14.5823L15.1775 16.7943C15.0166 16.9552 14.8114 17.0404 14.5905 17.0404C14.5524 17.0404 14.5137 17.0379 14.4748 17.0328C14.2104 16.9979 13.9912 16.8515 13.8579 16.6205L13.1438 15.3837C12.9206 14.997 13.0535 14.5009 13.4402 14.2778C13.6268 14.17 13.8449 14.1415 14.0542 14.1976C14.2636 14.2537 14.4382 14.3874 14.546 14.5741L14.7517 14.9302L16.2444 13.4374C16.397 13.2848 16.6003 13.2009 16.8169 13.2009C17.0335 13.2009 17.2369 13.2848 17.3893 13.4374C17.5418 13.5899 17.6259 13.7932 17.6259 14.0098L17.6259 14.0099ZM16.9707 14.0099C16.9707 13.9858 16.9649 13.9396 16.9261 13.9007C16.8873 13.8619 16.8411 13.8561 16.817 13.8561C16.7929 13.8561 16.7467 13.8619 16.7079 13.9008L14.9131 15.6955C14.8412 15.7676 14.74 15.8019 14.6387 15.7886C14.5378 15.7753 14.4487 15.7158 14.3978 15.6276L13.9787 14.9017C13.9513 14.8544 13.9081 14.8368 13.8848 14.8305C13.8746 14.8278 13.8602 14.8251 13.8432 14.8251C13.8211 14.8251 13.7947 14.8298 13.7679 14.8452C13.6954 14.887 13.6696 14.9836 13.7114 15.0561L14.4255 16.2929C14.4568 16.3471 14.4984 16.3749 14.5605 16.383C14.6228 16.3912 14.67 16.3751 14.7143 16.3309L16.9261 14.1189C16.965 14.0801 16.9708 14.0339 16.9708 14.0098L16.9707 14.0099Z" fill="#18283D"/>
</svg>
