<svg width="26" height="26" viewBox="0 0 26 26" fill="none" xmlns="http://www.w3.org/2000/svg">
<path d="M12.6484 0.101562C10.1762 0.101562 7.75943 0.834674 5.70381 2.20819C3.6482 3.58171 2.04604 5.53394 1.09995 7.81802C0.153854 10.1021 -0.0936881 12.6154 0.388627 15.0402C0.870942 17.465 2.06145 19.6922 3.80961 21.4404C5.55776 23.1885 7.78505 24.3791 10.2098 24.8614C12.6346 25.3437 15.1479 25.0961 17.432 24.1501C19.7161 23.204 21.6683 21.6018 23.0418 19.5462C24.4153 17.4906 25.1484 15.0738 25.1484 12.6016C25.1445 9.28755 23.8263 6.1104 21.483 3.76705C19.1396 1.42369 15.9624 0.105472 12.6484 0.101562ZM17.4689 15.8163C17.5774 15.9212 17.664 16.0465 17.7236 16.1852C17.7831 16.3238 17.8145 16.4729 17.8158 16.6238C17.8171 16.7747 17.7883 16.9244 17.7312 17.064C17.6741 17.2037 17.5897 17.3305 17.483 17.4372C17.3763 17.5439 17.2494 17.6283 17.1098 17.6854C16.9701 17.7426 16.8205 17.7713 16.6696 17.77C16.5187 17.7687 16.3696 17.7374 16.2309 17.6778C16.0923 17.6183 15.9669 17.5317 15.8621 17.4231L12.6484 14.2084L9.4348 17.4231C9.22048 17.6301 8.93344 17.7447 8.63548 17.7421C8.33753 17.7395 8.05252 17.62 7.84183 17.4093C7.63114 17.1986 7.51163 16.9136 7.50904 16.6157C7.50645 16.3177 7.62099 16.0307 7.82799 15.8163L11.0416 12.6016L7.82799 9.38679C7.71945 9.28196 7.63288 9.15657 7.57333 9.01793C7.51377 8.87929 7.48242 8.73018 7.48111 8.57929C7.4798 8.4284 7.50855 8.27877 7.56569 8.13911C7.62283 7.99946 7.70721 7.87258 7.8139 7.76588C7.9206 7.65919 8.04747 7.57481 8.18713 7.51767C8.32679 7.46054 8.47642 7.43178 8.62731 7.43309C8.77819 7.43441 8.92731 7.46575 9.06595 7.52531C9.20459 7.58486 9.32998 7.67144 9.4348 7.77997L12.6484 10.9947L15.8621 7.77997C15.9669 7.67144 16.0923 7.58486 16.2309 7.52531C16.3696 7.46575 16.5187 7.43441 16.6696 7.43309C16.8205 7.43178 16.9701 7.46054 17.1098 7.51767C17.2494 7.57481 17.3763 7.65919 17.483 7.76588C17.5897 7.87258 17.6741 7.99946 17.7312 8.13911C17.7883 8.27877 17.8171 8.4284 17.8158 8.57929C17.8145 8.73018 17.7831 8.87929 17.7236 9.01793C17.664 9.15657 17.5774 9.28196 17.4689 9.38679L14.2553 12.6016L17.4689 15.8163Z" fill="#1D5BBF"/>
</svg>
