<svg width="26" height="26" viewBox="0 0 26 26" fill="none" xmlns="http://www.w3.org/2000/svg">
<path d="M12.9844 0.214844C10.5121 0.214844 8.09537 0.947956 6.03975 2.32147C3.98414 3.69499 2.38198 5.64722 1.43589 7.9313C0.489791 10.2154 0.242249 12.7287 0.724565 15.1535C1.20688 17.5782 2.39739 19.8055 4.14555 21.5537C5.8937 23.3018 8.12099 24.4923 10.5457 24.9747C12.9705 25.457 15.4838 25.2094 17.7679 24.2633C20.052 23.3172 22.0042 21.7151 23.3777 19.6595C24.7513 17.6039 25.4844 15.1871 25.4844 12.7148C25.4805 9.40084 24.1623 6.22368 21.8189 3.88033C19.4755 1.53697 16.2984 0.218753 12.9844 0.214844ZM17.8048 15.9296C17.9134 16.0344 17.9999 16.1598 18.0595 16.2985C18.119 16.4371 18.1504 16.5862 18.1517 16.7371C18.153 16.888 18.1243 17.0376 18.0671 17.1773C18.01 17.3169 17.9256 17.4438 17.8189 17.5505C17.7122 17.6572 17.5853 17.7416 17.4457 17.7987C17.306 17.8559 17.1564 17.8846 17.0055 17.8833C16.8546 17.882 16.7055 17.8506 16.5669 17.7911C16.4282 17.7315 16.3028 17.645 16.198 17.5364L12.9844 14.3217L9.77074 17.5364C9.55642 17.7434 9.26937 17.858 8.97142 17.8554C8.67347 17.8528 8.38846 17.7333 8.17777 17.5226C7.96708 17.3119 7.84757 17.0269 7.84498 16.7289C7.84239 16.431 7.95693 16.1439 8.16392 15.9296L11.3776 12.7148L8.16392 9.50007C8.05539 9.39524 7.96882 9.26985 7.90926 9.13121C7.84971 8.99257 7.81836 8.84346 7.81705 8.69257C7.81574 8.54169 7.84449 8.39205 7.90163 8.25239C7.95876 8.11274 8.04314 7.98586 8.14984 7.87917C8.25654 7.77247 8.38341 7.68809 8.52307 7.63095C8.66272 7.57382 8.81236 7.54506 8.96324 7.54638C9.11413 7.54769 9.26324 7.57903 9.40188 7.63859C9.54052 7.69815 9.66592 7.78472 9.77074 7.89325L12.9844 11.108L16.198 7.89325C16.3028 7.78472 16.4282 7.69815 16.5669 7.63859C16.7055 7.57903 16.8546 7.54769 17.0055 7.54638C17.1564 7.54506 17.306 7.57382 17.4457 7.63095C17.5853 7.68809 17.7122 7.77247 17.8189 7.87917C17.9256 7.98586 18.01 8.11274 18.0671 8.25239C18.1243 8.39205 18.153 8.54169 18.1517 8.69257C18.1504 8.84346 18.119 8.99257 18.0595 9.13121C17.9999 9.26985 17.9134 9.39524 17.8048 9.50007L14.5912 12.7148L17.8048 15.9296Z" fill="#1D5BBF"/>
</svg>
