<svg width="39" height="38" viewBox="0 0 39 38" fill="none" xmlns="http://www.w3.org/2000/svg">
<path d="M19.5014 0L25.5268 12.2104L39 14.1676L29.2507 23.6705L31.5522 37.0905L19.5014 30.7571L7.44777 37.0905L9.7493 23.6705L0 14.1676L13.4732 12.2104L19.5014 0Z" fill="#1D5BBF"/>
<g style="mix-blend-mode:multiply" opacity="0.5">
<path d="M19.5012 0L19.4844 21.1645L25.5266 12.2104L19.5012 0Z" fill="#1D5BBF"/>
</g>
<g style="mix-blend-mode:multiply" opacity="0.5">
<path d="M38.9998 14.1641L19.4844 21.161L29.2505 23.667L38.9998 14.1641Z" fill="#1D5BBF"/>
</g>
<g style="mix-blend-mode:multiply" opacity="0.5">
<path d="M19.5012 30.7566L31.552 37.09L19.4844 21.1641L19.5012 30.7566Z" fill="#1D5BBF"/>
</g>
<g style="mix-blend-mode:multiply" opacity="0.5">
<path d="M7.44531 37.09L19.4821 21.1641L9.74684 23.67L7.44531 37.09Z" fill="#1D5BBF"/>
</g>
<g style="mix-blend-mode:multiply" opacity="0.5">
<path d="M0 14.1681L19.4846 21.1651L13.4732 12.2109L0 14.1681Z" fill="#1D5BBF"/>
</g>
</svg>
