<svg width="6" height="9" viewBox="0 0 6 9" fill="none" xmlns="http://www.w3.org/2000/svg">
<path d="M5.20897 4.43089C5.21026 4.51582 5.19478 4.60017 5.1634 4.67911C5.13203 4.75804 5.08538 4.83001 5.02614 4.89088L1.19039 8.79975C1.07001 8.92243 0.90583 8.99226 0.733963 8.99388C0.562096 8.9955 0.396623 8.92879 0.273948 8.80841C0.151272 8.68802 0.0814412 8.52384 0.0798183 8.35197C0.0781953 8.18011 0.144913 8.01463 0.265294 7.89196L3.65359 4.44557L0.20727 1.06373C0.100373 0.941263 0.0436241 0.782971 0.0483642 0.620484C0.0531043 0.457997 0.118984 0.303282 0.232838 0.187257C0.346693 0.0712327 0.500135 0.00244368 0.662504 -0.00536405C0.824872 -0.0131718 0.984208 0.0405763 1.10867 0.145141L5.01754 3.98088C5.13791 4.09997 5.20666 4.26158 5.20897 4.43089Z" fill="#18283D"/>
</svg>
