<svg width="24" height="24" viewBox="0 0 24 24" fill="none" xmlns="http://www.w3.org/2000/svg">
<path d="M15.7129 0H21.2246C22.755 0 24 1.24505 24 2.77538V8.28713C24 9.81745 22.755 11.0625 21.2246 11.0625H15.7129C14.1825 11.0625 12.9375 9.81745 12.9375 8.28713V2.77538C12.9375 1.24505 14.1825 0 15.7129 0ZM14.8125 8.28713C14.8125 8.78358 15.2164 9.1875 15.7129 9.1875H21.2246C21.7211 9.1875 22.125 8.78358 22.125 8.28713V2.77538C22.125 2.27892 21.7211 1.875 21.2246 1.875H15.7129C15.2164 1.875 14.8125 2.27892 14.8125 2.77538V8.28713Z" fill="black" style="fill:black;fill-opacity:1;"/>
<path d="M2.8125 0H8.25C9.80081 0 11.0625 1.26169 11.0625 2.8125V8.25C11.0625 9.80081 9.80081 11.0625 8.25 11.0625H2.8125C1.26169 11.0625 0 9.80081 0 8.25V2.8125C0 1.26169 1.26169 0 2.8125 0ZM1.875 8.25C1.875 8.76694 2.29556 9.1875 2.8125 9.1875H8.25C8.76694 9.1875 9.1875 8.76694 9.1875 8.25V2.8125C9.1875 2.29556 8.76694 1.875 8.25 1.875H2.8125C2.29556 1.875 1.875 2.29556 1.875 2.8125V8.25Z" fill="black" style="fill:black;fill-opacity:1;"/>
<path d="M15.7129 12.9375H21.2246C22.755 12.9375 24 14.1825 24 15.7129V21.2246C24 22.755 22.755 24 21.2246 24H15.7129C14.1825 24 12.9375 22.755 12.9375 21.2246V15.7129C12.9375 14.1825 14.1825 12.9375 15.7129 12.9375ZM14.8125 21.2246C14.8125 21.7211 15.2164 22.125 15.7129 22.125H21.2246C21.7211 22.125 22.125 21.7211 22.125 21.2246V15.7129C22.125 15.2164 21.7211 14.8125 21.2246 14.8125H15.7129C15.2164 14.8125 14.8125 15.2164 14.8125 15.7129V21.2246Z" fill="black" style="fill:black;fill-opacity:1;"/>
<path d="M2.8125 12.9375H8.25C9.80081 12.9375 11.0625 14.1992 11.0625 15.75V21.1875C11.0625 22.7383 9.80081 24 8.25 24H2.8125C1.26169 24 0 22.7383 0 21.1875V15.75C0 14.1992 1.26169 12.9375 2.8125 12.9375ZM1.875 21.1875C1.875 21.7044 2.29556 22.125 2.8125 22.125H8.25C8.76694 22.125 9.1875 21.7044 9.1875 21.1875V15.75C9.1875 15.2331 8.76694 14.8125 8.25 14.8125H2.8125C2.29556 14.8125 1.875 15.2331 1.875 15.75V21.1875Z" fill="black" style="fill:black;fill-opacity:1;"/>
</svg>
