<svg width="27" height="26" viewBox="0 0 27 26" fill="none" xmlns="http://www.w3.org/2000/svg">
<path fill-rule="evenodd" clip-rule="evenodd" d="M18.8143 10.0138C14.5323 10.0138 11.0556 13.4906 11.0556 17.7725C11.0556 22.0549 14.5323 25.5312 18.8143 25.5312C23.0967 25.5312 26.573 22.0549 26.573 17.7725C26.573 13.4906 23.0967 10.0138 18.8143 10.0138ZM0.722656 12.6001V21.6056C0.722656 23.0257 1.87384 24.1769 3.294 24.1769H10.1937C10.6695 24.1769 11.0556 23.7904 11.0556 23.3145C11.0556 22.8387 10.6695 22.4526 10.1937 22.4526C10.1937 22.4526 5.80409 22.4526 3.294 22.4526C2.82599 22.4526 2.44695 22.0736 2.44695 21.6056V12.6001C2.44695 12.1246 2.06046 11.7381 1.5846 11.7381C1.10914 11.7381 0.722656 12.1246 0.722656 12.6001ZM17.9524 14.3136V17.7725C17.9524 18.099 18.1369 18.3978 18.4291 18.5439L21.1841 19.9214C21.6095 20.1341 22.128 19.9615 22.3407 19.5357C22.5534 19.1104 22.3808 18.5919 21.955 18.3792L19.6767 17.24V14.3136C19.6767 13.8377 19.2902 13.4513 18.8143 13.4513C18.3389 13.4513 17.9524 13.8377 17.9524 14.3136ZM5.45236 18.6349H8.0386C8.51405 18.6349 8.90054 18.2484 8.90054 17.7725C8.90054 17.2971 8.51405 16.9106 8.0386 16.9106H5.45236C4.9765 16.9106 4.59001 17.2971 4.59001 17.7725C4.59001 18.2484 4.9765 18.6349 5.45236 18.6349ZM5.45236 16.0487H8.0386C8.51405 16.0487 8.90054 15.6622 8.90054 15.1863C8.90054 14.7109 8.51405 14.3244 8.0386 14.3244H5.45236C4.9765 14.3244 4.59001 14.7109 4.59001 15.1863C4.59001 15.6622 4.9765 16.0487 5.45236 16.0487ZM5.45236 13.4624H8.0386C8.51405 13.4624 8.90054 13.0759 8.90054 12.6001C8.90054 12.1246 8.51405 11.7381 8.0386 11.7381H5.45236C4.9765 11.7381 4.59001 12.1246 4.59001 12.6001C4.59001 13.0759 4.9765 13.4624 5.45236 13.4624ZM12.7919 3.11749H7.61942V1.39319C7.61942 0.917323 7.23293 0.53125 6.75707 0.53125C6.28161 0.53125 5.89513 0.917323 5.89513 1.39319V3.11749H3.294C1.87384 3.11749 0.722656 4.26867 0.722656 5.68841V9.1519C0.722656 9.62776 1.10914 10.0138 1.5846 10.0138C2.06046 10.0138 2.44695 9.62776 2.44695 9.1519V8.28996H24.8607V10.0407C24.8607 10.5166 25.2472 10.9031 25.7231 10.9031C26.1989 10.9031 26.585 10.5166 26.585 10.0407V5.68841C26.585 5.00647 26.314 4.35267 25.8319 3.8706C25.3498 3.38811 24.696 3.11749 24.0141 3.11749H21.4125V1.39319C21.4125 0.917323 21.0265 0.53125 20.5506 0.53125C20.0747 0.53125 19.6882 0.917323 19.6882 1.39319V3.11749H14.5158V1.39319C14.5158 0.917323 14.1297 0.53125 13.6538 0.53125C13.178 0.53125 12.7919 0.917323 12.7919 1.39319V3.11749Z" fill="#9CC1FE"/>
</svg>
