<svg width="21" height="21" viewBox="0 0 21 21" fill="none" xmlns="http://www.w3.org/2000/svg">
<path d="M9.19803 16.9889H2.30758C1.94038 16.9889 1.58821 16.8438 1.32856 16.5855C1.06891 16.3271 0.923033 15.9768 0.923033 15.6114V5.96908H16.1531V8.87097C16.1531 8.99274 16.2017 9.10953 16.2883 9.19564C16.3748 9.28175 16.4922 9.33013 16.6146 9.33013C16.737 9.33013 16.8544 9.28175 16.9409 9.19564C17.0275 9.10953 17.0761 8.99274 17.0761 8.87097V3.67328C17.0754 3.06462 16.832 2.4811 16.3994 2.05071C15.9668 1.62032 15.3803 1.37821 14.7685 1.37748H13.8455C13.8455 1.01215 13.6996 0.661782 13.44 0.403454C13.1803 0.145127 12.8282 0 12.461 0C12.0937 0 11.7416 0.145127 11.4819 0.403454C11.2223 0.661782 11.0764 1.01215 11.0764 1.37748H5.99972C5.99972 1.01215 5.85385 0.661782 5.59419 0.403454C5.33454 0.145127 4.98237 0 4.61517 0C4.24796 0 3.8958 0.145127 3.63614 0.403454C3.37649 0.661782 3.23062 1.01215 3.23062 1.37748H2.30758C1.6958 1.37821 1.10928 1.62032 0.676685 2.05071C0.244088 2.4811 0.000732823 3.06462 0 3.67328V15.6114C0.000732823 16.2201 0.244088 16.8036 0.676685 17.234C1.10928 17.6644 1.6958 17.9065 2.30758 17.9072H9.19803C9.32043 17.9072 9.43782 17.8589 9.52437 17.7727C9.61092 17.6866 9.65954 17.5698 9.65954 17.4481C9.65954 17.3263 9.61092 17.2095 9.52437 17.1234C9.43782 17.0373 9.32043 16.9889 9.19803 16.9889ZM11.9994 1.37748C11.9994 1.2557 12.0481 1.13891 12.1346 1.0528C12.2212 0.966695 12.3385 0.918319 12.461 0.918319C12.5834 0.918319 12.7007 0.966695 12.7873 1.0528C12.8738 1.13891 12.9225 1.2557 12.9225 1.37748V2.2958C12.9225 2.41758 12.8738 2.53436 12.7873 2.62047C12.7007 2.70658 12.5834 2.75496 12.461 2.75496C12.3385 2.75496 12.2212 2.70658 12.1346 2.62047C12.0481 2.53436 11.9994 2.41758 11.9994 2.2958V1.37748ZM4.15365 1.37748C4.15365 1.2557 4.20227 1.13891 4.28883 1.0528C4.37538 0.966695 4.49276 0.918319 4.61517 0.918319C4.73757 0.918319 4.85496 0.966695 4.94151 1.0528C5.02806 1.13891 5.07668 1.2557 5.07668 1.37748V2.2958C5.07668 2.41758 5.02806 2.53436 4.94151 2.62047C4.85496 2.70658 4.73757 2.75496 4.61517 2.75496C4.49276 2.75496 4.37538 2.70658 4.28883 2.62047C4.20227 2.53436 4.15365 2.41758 4.15365 2.2958V1.37748ZM0.923033 3.67328C0.923033 3.30795 1.06891 2.95758 1.32856 2.69925C1.58821 2.44093 1.94038 2.2958 2.30758 2.2958H3.23062C3.23062 2.66113 3.37649 3.0115 3.63614 3.26982C3.8958 3.52815 4.24796 3.67328 4.61517 3.67328C4.98237 3.67328 5.33454 3.52815 5.59419 3.26982C5.85385 3.0115 5.99972 2.66113 5.99972 2.2958H11.0764C11.0764 2.66113 11.2223 3.0115 11.4819 3.26982C11.7416 3.52815 12.0937 3.67328 12.461 3.67328C12.8282 3.67328 13.1803 3.52815 13.44 3.26982C13.6996 3.0115 13.8455 2.66113 13.8455 2.2958H14.7685C15.1357 2.2958 15.4879 2.44093 15.7476 2.69925C16.0072 2.95758 16.1531 3.30795 16.1531 3.67328V5.05076H0.923033V3.67328Z" fill="#C6C6C6" style="fill:#C6C6C6;fill:color(display-p3 0.7783 0.7783 0.7783);fill-opacity:1;"/>
<path d="M5.53921 8.26598C5.53921 8.02242 5.44196 7.78884 5.26886 7.61663C5.09576 7.44441 4.86098 7.34766 4.61618 7.34766H3.23163C2.98682 7.34766 2.75205 7.44441 2.57894 7.61663C2.40584 7.78884 2.30859 8.02242 2.30859 8.26598V9.64346C2.30859 9.88701 2.40584 10.1206 2.57894 10.2928C2.75205 10.465 2.98682 10.5618 3.23163 10.5618H4.61618C4.86098 10.5618 5.09576 10.465 5.26886 10.2928C5.44196 10.1206 5.53921 9.88701 5.53921 9.64346V8.26598ZM3.23163 9.64346V8.26598H4.61618V9.64346H3.23163Z" fill="#C6C6C6" style="fill:#C6C6C6;fill:color(display-p3 0.7783 0.7783 0.7783);fill-opacity:1;"/>
<path d="M10.1525 8.26598C10.1525 8.02242 10.0552 7.78884 9.88214 7.61663C9.70904 7.44441 9.47426 7.34766 9.22946 7.34766H7.84491C7.6001 7.34766 7.36533 7.44441 7.19223 7.61663C7.01912 7.78884 6.92188 8.02242 6.92188 8.26598V9.64346C6.92188 9.88701 7.01912 10.1206 7.19223 10.2928C7.36533 10.465 7.6001 10.5618 7.84491 10.5618H9.22946C9.47426 10.5618 9.70904 10.465 9.88214 10.2928C10.0552 10.1206 10.1525 9.88701 10.1525 9.64346V8.26598ZM7.84491 9.64346V8.26598H9.22946V9.64346H7.84491Z" fill="#C6C6C6" style="fill:#C6C6C6;fill:color(display-p3 0.7783 0.7783 0.7783);fill-opacity:1;"/>
<path d="M14.3082 9.24858C14.4306 9.24858 14.548 9.2002 14.6345 9.11409C14.7211 9.02798 14.7697 8.91119 14.7697 8.78942V8.26598C14.7697 8.02242 14.6724 7.78884 14.4993 7.61663C14.3262 7.44441 14.0914 7.34766 13.8466 7.34766H12.4621C12.2173 7.34766 11.9825 7.44441 11.8094 7.61663C11.6363 7.78884 11.5391 8.02242 11.5391 8.26598V9.58836C11.5391 9.71013 11.5877 9.82692 11.6742 9.91303C11.7608 9.99914 11.8782 10.0475 12.0006 10.0475C12.123 10.0475 12.2404 9.99914 12.3269 9.91303C12.4135 9.82692 12.4621 9.71013 12.4621 9.58836V8.26598H13.8466V8.78942C13.8466 8.91119 13.8953 9.02798 13.9818 9.11409C14.0684 9.2002 14.1858 9.24858 14.3082 9.24858Z" fill="#C6C6C6" style="fill:#C6C6C6;fill:color(display-p3 0.7783 0.7783 0.7783);fill-opacity:1;"/>
<path d="M4.61618 11.9375H3.23163C2.98682 11.9375 2.75205 12.0343 2.57894 12.2065C2.40584 12.3787 2.30859 12.6123 2.30859 12.8558V14.2333C2.30859 14.4769 2.40584 14.7104 2.57894 14.8826C2.75205 15.0549 2.98682 15.1516 3.23163 15.1516H4.61618C4.86098 15.1516 5.09576 15.0549 5.26886 14.8826C5.44196 14.7104 5.53921 14.4769 5.53921 14.2333V12.8558C5.53921 12.6123 5.44196 12.3787 5.26886 12.2065C5.09576 12.0343 4.86098 11.9375 4.61618 11.9375ZM3.23163 14.2333V12.8558H4.61618V14.2333H3.23163Z" fill="#C6C6C6" style="fill:#C6C6C6;fill:color(display-p3 0.7783 0.7783 0.7783);fill-opacity:1;"/>
<path d="M9.5479 11.9977C9.44657 11.9576 9.33849 11.9372 9.22946 11.9375H7.84491C7.6001 11.9375 7.36533 12.0343 7.19223 12.2065C7.01912 12.3787 6.92188 12.6123 6.92188 12.8558V14.2333C6.92188 14.4769 7.01912 14.7104 7.19223 14.8827C7.36533 15.0549 7.6001 15.1516 7.84491 15.1516H8.7864C8.9088 15.1516 9.02619 15.1032 9.11274 15.0171C9.19929 14.931 9.24792 14.8142 9.24792 14.6925C9.24792 14.5707 9.19929 14.4539 9.11274 14.3678C9.02619 14.2817 8.9088 14.2333 8.7864 14.2333H7.84491V12.8558L9.20638 12.8508C9.31987 12.8947 9.44622 12.8923 9.55791 12.844C9.66959 12.7957 9.75755 12.7054 9.80261 12.5928C9.84767 12.4802 9.84619 12.3545 9.79848 12.243C9.75077 12.1315 9.6607 12.0433 9.5479 11.9977Z" fill="#C6C6C6" style="fill:#C6C6C6;fill:color(display-p3 0.7783 0.7783 0.7783);fill-opacity:1;"/>
<path d="M15.2329 10.1016C14.2289 10.1016 13.2473 10.3978 12.4125 10.9528C11.5776 11.5078 10.9269 12.2966 10.5427 13.2195C10.1584 14.1424 10.0579 15.1579 10.2538 16.1377C10.4497 17.1174 10.9332 18.0174 11.6432 18.7237C12.3532 19.4301 13.2577 19.9111 14.2425 20.106C15.2273 20.3009 16.2481 20.2009 17.1757 19.8186C18.1033 19.4363 18.8962 18.789 19.454 17.9584C20.0119 17.1278 20.3096 16.1513 20.3096 15.1523C20.308 13.8133 19.7727 12.5295 18.8209 11.5826C17.8692 10.6358 16.5789 10.1031 15.2329 10.1016ZM15.2329 19.2848C14.4114 19.2848 13.6084 19.0424 12.9253 18.5883C12.2422 18.1342 11.7098 17.4888 11.3955 16.7337C11.0811 15.9786 10.9988 15.1477 11.1591 14.3461C11.3194 13.5445 11.715 12.8082 12.2959 12.2302C12.8768 11.6523 13.6169 11.2587 14.4226 11.0993C15.2283 10.9398 16.0635 11.0217 16.8225 11.3344C17.5814 11.6472 18.2302 12.1769 18.6866 12.8565C19.143 13.536 19.3866 14.335 19.3866 15.1523C19.3854 16.2479 18.9474 17.2983 18.1687 18.0731C17.39 18.8478 16.3342 19.2835 15.2329 19.2848Z" fill="#C6C6C6" style="fill:#C6C6C6;fill:color(display-p3 0.7783 0.7783 0.7783);fill-opacity:1;"/>
<path d="M15.6887 14.9633V12.8576C15.6887 12.7358 15.64 12.619 15.5535 12.5329C15.4669 12.4468 15.3495 12.3984 15.2271 12.3984C15.1047 12.3984 14.9874 12.4468 14.9008 12.5329C14.8142 12.619 14.7656 12.7358 14.7656 12.8576V15.1534C14.7657 15.2752 14.8143 15.3919 14.9008 15.478L15.8239 16.3963C15.9109 16.48 16.0275 16.5263 16.1485 16.5252C16.2695 16.5242 16.3853 16.4759 16.4708 16.3907C16.5564 16.3056 16.605 16.1905 16.606 16.0701C16.6071 15.9497 16.5605 15.8337 16.4765 15.7471L15.6887 14.9633Z" fill="#C6C6C6" style="fill:#C6C6C6;fill:color(display-p3 0.7783 0.7783 0.7783);fill-opacity:1;"/>
</svg>
