<svg width="25" height="25" viewBox="0 0 25 25" fill="none" xmlns="http://www.w3.org/2000/svg">
<path d="M0 19.7891C0.00165402 21.1699 0.550919 22.4937 1.52731 23.4701C2.50371 24.4465 3.82751 24.9957 5.20833 24.9974H19.7917C21.1725 24.9957 22.4963 24.4465 23.4727 23.4701C24.4491 22.4937 24.9983 21.1699 25 19.7891V10.4141H0V19.7891ZM17.7083 15.1016C18.0174 15.1016 18.3195 15.1932 18.5764 15.3649C18.8334 15.5366 19.0336 15.7806 19.1519 16.0661C19.2702 16.3516 19.3011 16.6658 19.2408 16.9689C19.1805 17.272 19.0317 17.5504 18.8132 17.7689C18.5947 17.9874 18.3163 18.1363 18.0132 18.1965C17.7101 18.2568 17.3959 18.2259 17.1104 18.1076C16.8249 17.9894 16.5809 17.7891 16.4092 17.5321C16.2375 17.2752 16.1458 16.9731 16.1458 16.6641C16.1458 16.2497 16.3105 15.8522 16.6035 15.5592C16.8965 15.2662 17.2939 15.1016 17.7083 15.1016ZM12.5 15.1016C12.809 15.1016 13.1111 15.1932 13.3681 15.3649C13.625 15.5366 13.8253 15.7806 13.9436 16.0661C14.0618 16.3516 14.0928 16.6658 14.0325 16.9689C13.9722 17.272 13.8234 17.5504 13.6049 17.7689C13.3863 17.9874 13.1079 18.1363 12.8048 18.1965C12.5017 18.2568 12.1876 18.2259 11.9021 18.1076C11.6165 17.9894 11.3725 17.7891 11.2008 17.5321C11.0291 17.2752 10.9375 16.9731 10.9375 16.6641C10.9375 16.2497 11.1021 15.8522 11.3951 15.5592C11.6882 15.2662 12.0856 15.1016 12.5 15.1016ZM7.29167 15.1016C7.6007 15.1016 7.90279 15.1932 8.15975 15.3649C8.4167 15.5366 8.61697 15.7806 8.73523 16.0661C8.85349 16.3516 8.88443 16.6658 8.82414 16.9689C8.76385 17.272 8.61504 17.5504 8.39652 17.7689C8.178 17.9874 7.89959 18.1363 7.5965 18.1965C7.2934 18.2568 6.97923 18.2259 6.69372 18.1076C6.40821 17.9894 6.16419 17.7891 5.9925 17.5321C5.82081 17.2752 5.72917 16.9731 5.72917 16.6641C5.72917 16.2497 5.89379 15.8522 6.18681 15.5592C6.47984 15.2662 6.87727 15.1016 7.29167 15.1016Z" fill="#1D5BBF" fill-opacity="0.75"/>
<path d="M19.7917 2.08333H18.75V1.04167C18.75 0.7654 18.6403 0.500448 18.4449 0.305097C18.2496 0.109747 17.9846 0 17.7083 0C17.4321 0 17.1671 0.109747 16.9718 0.305097C16.7764 0.500448 16.6667 0.7654 16.6667 1.04167V2.08333H8.33333V1.04167C8.33333 0.7654 8.22359 0.500448 8.02824 0.305097C7.83289 0.109747 7.56793 0 7.29167 0C7.0154 0 6.75045 0.109747 6.5551 0.305097C6.35975 0.500448 6.25 0.7654 6.25 1.04167V2.08333H5.20833C3.82751 2.08499 2.50371 2.63425 1.52731 3.61065C0.550919 4.58704 0.00165402 5.91084 0 7.29167L0 8.33333H25V7.29167C24.9983 5.91084 24.4491 4.58704 23.4727 3.61065C22.4963 2.63425 21.1725 2.08499 19.7917 2.08333Z" fill="#1D5BBF" fill-opacity="0.75"/>
</svg>
