<svg width="18" height="18" viewBox="0 0 18 18" fill="none" xmlns="http://www.w3.org/2000/svg">
<path d="M9.19803 16.9889H2.30758C1.94038 16.9889 1.58821 16.8438 1.32856 16.5855C1.06891 16.3271 0.923033 15.9768 0.923033 15.6114V5.96908H16.1531V8.87097C16.1531 8.99274 16.2017 9.10953 16.2883 9.19564C16.3748 9.28175 16.4922 9.33012 16.6146 9.33012C16.737 9.33012 16.8544 9.28175 16.9409 9.19564C17.0275 9.10953 17.0761 8.99274 17.0761 8.87097V3.67328C17.0754 3.06462 16.832 2.4811 16.3994 2.05071C15.9668 1.62032 15.3803 1.37821 14.7685 1.37748H13.8455C13.8455 1.01215 13.6996 0.661782 13.44 0.403454C13.1803 0.145127 12.8282 0 12.4609 0C12.0937 0 11.7416 0.145127 11.4819 0.403454C11.2223 0.661782 11.0764 1.01215 11.0764 1.37748H5.99972C5.99972 1.01215 5.85385 0.661782 5.59419 0.403454C5.33454 0.145127 4.98237 0 4.61517 0C4.24796 0 3.8958 0.145127 3.63614 0.403454C3.37649 0.661782 3.23062 1.01215 3.23062 1.37748H2.30758C1.6958 1.37821 1.10928 1.62032 0.676685 2.05071C0.244088 2.4811 0.000732823 3.06462 0 3.67328V15.6114C0.000732823 16.2201 0.244088 16.8036 0.676685 17.234C1.10928 17.6644 1.6958 17.9065 2.30758 17.9072H9.19803C9.32043 17.9072 9.43782 17.8589 9.52437 17.7727C9.61092 17.6866 9.65954 17.5698 9.65954 17.4481C9.65954 17.3263 9.61092 17.2095 9.52437 17.1234C9.43782 17.0373 9.32043 16.9889 9.19803 16.9889ZM11.9994 1.37748C11.9994 1.2557 12.0481 1.13891 12.1346 1.0528C12.2212 0.966695 12.3385 0.918319 12.4609 0.918319C12.5834 0.918319 12.7007 0.966695 12.7873 1.0528C12.8738 1.13891 12.9225 1.2557 12.9225 1.37748V2.2958C12.9225 2.41758 12.8738 2.53436 12.7873 2.62047C12.7007 2.70658 12.5834 2.75496 12.4609 2.75496C12.3385 2.75496 12.2212 2.70658 12.1346 2.62047C12.0481 2.53436 11.9994 2.41758 11.9994 2.2958V1.37748ZM4.15365 1.37748C4.15365 1.2557 4.20227 1.13891 4.28883 1.0528C4.37538 0.966695 4.49276 0.918319 4.61517 0.918319C4.73757 0.918319 4.85496 0.966695 4.94151 1.0528C5.02806 1.13891 5.07668 1.2557 5.07668 1.37748V2.2958C5.07668 2.41758 5.02806 2.53436 4.94151 2.62047C4.85496 2.70658 4.73757 2.75496 4.61517 2.75496C4.49276 2.75496 4.37538 2.70658 4.28883 2.62047C4.20227 2.53436 4.15365 2.41758 4.15365 2.2958V1.37748ZM0.923033 3.67328C0.923033 3.30795 1.06891 2.95758 1.32856 2.69925C1.58821 2.44093 1.94038 2.2958 2.30758 2.2958H3.23062C3.23062 2.66113 3.37649 3.0115 3.63614 3.26982C3.8958 3.52815 4.24796 3.67328 4.61517 3.67328C4.98237 3.67328 5.33454 3.52815 5.59419 3.26982C5.85385 3.0115 5.99972 2.66113 5.99972 2.2958H11.0764C11.0764 2.66113 11.2223 3.0115 11.4819 3.26982C11.7416 3.52815 12.0937 3.67328 12.4609 3.67328C12.8282 3.67328 13.1803 3.52815 13.44 3.26982C13.6996 3.0115 13.8455 2.66113 13.8455 2.2958H14.7685C15.1357 2.2958 15.4879 2.44093 15.7476 2.69925C16.0072 2.95758 16.1531 3.30795 16.1531 3.67328V5.05076H0.923033V3.67328Z" fill="#C6C6C6" style="fill:#C6C6C6;fill:color(display-p3 0.7783 0.7783 0.7783);fill-opacity:1;"/>
</svg>
