<svg width="23" height="23" viewBox="0 0 23 23" fill="none" xmlns="http://www.w3.org/2000/svg">
<path d="M19.2782 3.36245C17.2153 1.29955 14.4174 0.140625 11.5 0.140625C8.58262 0.140625 5.78473 1.29955 3.72183 3.36245C1.65893 5.42535 0.5 8.22324 0.5 11.1406C0.5 14.058 1.65893 16.8559 3.72183 18.9188C5.78473 20.9817 8.58262 22.1406 11.5 22.1406C14.4174 22.1406 17.2153 20.9817 19.2782 18.9188C21.3411 16.8559 22.5 14.058 22.5 11.1406C22.5 8.22324 21.3411 5.42535 19.2782 3.36245ZM18.1704 17.811C16.8505 19.1263 15.1706 20.021 13.3426 20.3821C11.5146 20.7432 9.62061 20.5546 7.89976 19.8401C6.17891 19.1255 4.70837 17.9171 3.67385 16.3673C2.63932 14.8176 2.0872 12.9961 2.0872 11.1328C2.0872 9.26946 2.63932 7.44794 3.67385 5.8982C4.70837 4.34847 6.17891 3.14003 7.89976 2.42548C9.62061 1.71093 11.5146 1.52232 13.3426 1.88345C15.1706 2.24458 16.8505 3.13927 18.1704 4.45454C19.0493 5.33044 19.7467 6.37123 20.2226 7.51724C20.6984 8.66324 20.9434 9.8919 20.9434 11.1328C20.9434 12.3736 20.6984 13.6023 20.2226 14.7483C19.7467 15.8943 19.0493 16.9351 18.1704 17.811ZM14.8313 8.91717L12.6078 11.1406L14.8313 13.3641C14.9776 13.5113 15.0597 13.7104 15.0597 13.918C15.0597 14.1255 14.9776 14.3247 14.8313 14.4719C14.6841 14.6182 14.4849 14.7004 14.2774 14.7004C14.0698 14.7004 13.8707 14.6182 13.7235 14.4719L11.5 12.2484L9.27654 14.4719C9.12934 14.6182 8.93021 14.7004 8.72264 14.7004C8.51508 14.7004 8.31595 14.6182 8.16874 14.4719C8.02241 14.3247 7.94027 14.1255 7.94027 13.918C7.94027 13.7104 8.02241 13.5113 8.16874 13.3641L10.3922 11.1406L8.16874 8.91717C8.04003 8.76687 7.97277 8.57353 7.98041 8.3758C7.98804 8.17806 8.07002 7.99049 8.20994 7.85057C8.34986 7.71064 8.53744 7.62867 8.73517 7.62103C8.93291 7.61339 9.12624 7.68065 9.27654 7.80937L11.5 10.0328L13.7235 7.80937C13.8738 7.68065 14.0671 7.61339 14.2648 7.62103C14.4626 7.62867 14.6501 7.71064 14.7901 7.85057C14.93 7.99049 15.012 8.17806 15.0196 8.3758C15.0272 8.57353 14.96 8.76687 14.8313 8.91717Z" fill="#18283D"/>
</svg>
