<svg width="50" height="50" viewBox="0 0 50 50" fill="none" xmlns="http://www.w3.org/2000/svg">
<circle cx="25" cy="25" r="25" fill="#FFE7E7"/>
<path d="M32.7782 17.2218C30.7153 15.1589 27.9174 14 25 14C22.0826 14 19.2847 15.1589 17.2218 17.2218C15.1589 19.2847 14 22.0826 14 25C14 27.9174 15.1589 30.7153 17.2218 32.7782C19.2847 34.8411 22.0826 36 25 36C27.9174 36 30.7153 34.8411 32.7782 32.7782C34.8411 30.7153 36 27.9174 36 25C36 22.0826 34.8411 19.2847 32.7782 17.2218ZM31.6704 31.6704C30.3505 32.9856 28.6706 33.8803 26.8426 34.2415C25.0146 34.6026 23.1206 34.414 21.3998 33.6994C19.6789 32.9849 18.2084 31.7764 17.1738 30.2267C16.1393 28.677 15.5872 26.8554 15.5872 24.9921C15.5872 23.1288 16.1393 21.3073 17.1738 19.7576C18.2084 18.2078 19.6789 16.9994 21.3998 16.2849C23.1206 15.5703 25.0146 15.3817 26.8426 15.7428C28.6706 16.104 30.3505 16.9986 31.6704 18.3139C32.5493 19.1898 33.2467 20.2306 33.7226 21.3766C34.1984 22.5226 34.4434 23.7513 34.4434 24.9921C34.4434 26.233 34.1984 27.4617 33.7226 28.6077C33.2467 29.7537 32.5493 30.7945 31.6704 31.6704ZM28.3313 22.7765L26.1078 25L28.3313 27.2235C28.4776 27.3707 28.5597 27.5698 28.5597 27.7774C28.5597 27.9849 28.4776 28.1841 28.3313 28.3313C28.1841 28.4776 27.9849 28.5597 27.7774 28.5597C27.5698 28.5597 27.3707 28.4776 27.2235 28.3313L25 26.1078L22.7765 28.3313C22.6293 28.4776 22.4302 28.5597 22.2226 28.5597C22.0151 28.5597 21.8159 28.4776 21.6687 28.3313C21.5224 28.1841 21.4403 27.9849 21.4403 27.7774C21.4403 27.5698 21.5224 27.3707 21.6687 27.2235L23.8922 25L21.6687 22.7765C21.54 22.6262 21.4728 22.4329 21.4804 22.2352C21.488 22.0374 21.57 21.8499 21.7099 21.7099C21.8499 21.57 22.0374 21.488 22.2352 21.4804C22.4329 21.4728 22.6262 21.54 22.7765 21.6687L25 23.8922L27.2235 21.6687C27.3738 21.54 27.5671 21.4728 27.7648 21.4804C27.9626 21.488 28.1501 21.57 28.2901 21.7099C28.43 21.8499 28.512 22.0374 28.5196 22.2352C28.5272 22.4329 28.46 22.6262 28.3313 22.7765Z" fill="#E0382D"/>
</svg>
