<svg width="25" height="25" viewBox="0 0 25 25" fill="none" xmlns="http://www.w3.org/2000/svg">
<path d="M12.5 0C10.0277 0 7.61099 0.733112 5.55538 2.10663C3.49976 3.48015 1.89761 5.43238 0.951511 7.71646C0.0054161 10.0005 -0.242126 12.5139 0.24019 14.9386C0.722505 17.3634 1.91301 19.5907 3.66117 21.3388C5.40933 23.087 7.63661 24.2775 10.0614 24.7598C12.4861 25.2421 14.9995 24.9946 17.2835 24.0485C19.5676 23.1024 21.5199 21.5002 22.8934 19.4446C24.2669 17.389 25 14.9723 25 12.5C24.9961 9.18599 23.6779 6.00884 21.3345 3.66548C18.9912 1.32213 15.814 0.00390963 12.5 0ZM17.3205 15.7148C17.429 15.8196 17.5156 15.945 17.5751 16.0836C17.6347 16.2223 17.666 16.3714 17.6673 16.5223C17.6686 16.6732 17.6399 16.8228 17.5828 16.9624C17.5256 17.1021 17.4412 17.229 17.3345 17.3357C17.2278 17.4424 17.101 17.5267 16.9613 17.5839C16.8217 17.641 16.672 17.6698 16.5211 17.6685C16.3703 17.6672 16.2211 17.6358 16.0825 17.5762C15.9439 17.5167 15.8185 17.4301 15.7136 17.3216L12.5 14.1068L9.28637 17.3216C9.07205 17.5286 8.785 17.6431 8.48705 17.6405C8.1891 17.6379 7.90408 17.5184 7.69339 17.3077C7.4827 17.0971 7.36319 16.812 7.3606 16.5141C7.35801 16.2161 7.47255 15.9291 7.67955 15.7148L10.8932 12.5L7.67955 9.28522C7.57101 9.1804 7.48444 9.05501 7.42489 8.91637C7.36533 8.77773 7.33399 8.62861 7.33267 8.47773C7.33136 8.32684 7.36011 8.17721 7.41725 8.03755C7.47439 7.8979 7.55877 7.77102 7.66546 7.66432C7.77216 7.55763 7.89904 7.47325 8.03869 7.41611C8.17835 7.35897 8.32798 7.33022 8.47887 7.33153C8.62975 7.33284 8.77887 7.36419 8.91751 7.42375C9.05615 7.4833 9.18154 7.56987 9.28637 7.67841L12.5 10.8932L15.7136 7.67841C15.8185 7.56987 15.9439 7.4833 16.0825 7.42375C16.2211 7.36419 16.3703 7.33284 16.5211 7.33153C16.672 7.33022 16.8217 7.35897 16.9613 7.41611C17.101 7.47325 17.2278 7.55763 17.3345 7.66432C17.4412 7.77102 17.5256 7.8979 17.5828 8.03755C17.6399 8.17721 17.6686 8.32684 17.6673 8.47773C17.666 8.62861 17.6347 8.77773 17.5751 8.91637C17.5156 9.05501 17.429 9.1804 17.3205 9.28522L14.1068 12.5L17.3205 15.7148Z" fill="#1D5BBF" style="fill:#1D5BBF;fill:color(display-p3 0.1137 0.3569 0.7490);fill-opacity:1;"/>
</svg>
