<svg width="25" height="25" viewBox="0 0 25 25" fill="none" xmlns="http://www.w3.org/2000/svg">
<path d="M21.0712 4.38972C18.8208 2.13928 15.7685 0.875 12.5859 0.875C9.40334 0.875 6.35109 2.13928 4.10066 4.38972C1.85022 6.64015 0.585938 9.6924 0.585938 12.875C0.585938 16.0576 1.85022 19.1098 4.10066 21.3603C6.35109 23.6107 9.40334 24.875 12.5859 24.875C15.7685 24.875 18.8208 23.6107 21.0712 21.3603C23.3217 19.1098 24.5859 16.0576 24.5859 12.875C24.5859 9.6924 23.3217 6.64015 21.0712 4.38972ZM19.8627 20.1518C18.4229 21.5866 16.5902 22.5626 14.596 22.9566C12.6019 23.3506 10.5357 23.1448 8.6584 22.3653C6.78111 21.5858 5.17689 20.2675 4.04832 18.5769C2.91974 16.8862 2.31743 14.8991 2.31743 12.8664C2.31743 10.8337 2.91974 8.84661 4.04832 7.156C5.17689 5.46538 6.78111 4.14708 8.6584 3.36757C10.5357 2.58806 12.6019 2.3823 14.596 2.77626C16.5902 3.17023 18.4229 4.14625 19.8627 5.58109C20.8216 6.53662 21.5824 7.67203 22.1015 8.92221C22.6206 10.1724 22.8878 11.5128 22.8878 12.8664C22.8878 14.2201 22.6206 15.5605 22.1015 16.8106C21.5824 18.0608 20.8216 19.1962 19.8627 20.1518ZM16.22 10.4494L13.7944 12.875L16.22 15.3006C16.3797 15.4612 16.4693 15.6784 16.4693 15.9048C16.4693 16.1313 16.3797 16.3485 16.22 16.5091C16.0595 16.6687 15.8422 16.7583 15.6158 16.7583C15.3893 16.7583 15.1721 16.6687 15.0115 16.5091L12.5859 14.0835L10.1603 16.5091C9.99976 16.6687 9.78253 16.7583 9.55609 16.7583C9.32966 16.7583 9.11243 16.6687 8.95184 16.5091C8.7922 16.3485 8.7026 16.1313 8.7026 15.9048C8.7026 15.6784 8.7922 15.4612 8.95184 15.3006L11.3774 12.875L8.95184 10.4494C8.81142 10.2854 8.73805 10.0745 8.74638 9.85882C8.75471 9.64311 8.84414 9.43849 8.99678 9.28584C9.14943 9.1332 9.35405 9.04377 9.56976 9.03544C9.78547 9.02711 9.99638 9.10048 10.1603 9.2409L12.5859 11.6665L15.0115 9.2409C15.1755 9.10048 15.3864 9.02711 15.6021 9.03544C15.8178 9.04377 16.0225 9.1332 16.1751 9.28584C16.3277 9.43849 16.4172 9.64311 16.4255 9.85882C16.4338 10.0745 16.3605 10.2854 16.22 10.4494Z" fill="#18283D"/>
</svg>
