<svg width="52" height="52" viewBox="0 0 52 52" fill="none" xmlns="http://www.w3.org/2000/svg">
<circle cx="26.3579" cy="25.6626" r="25.6079" fill="#FFC7C7"/>
<path d="M26.4199 37.664C24.0344 37.6637 21.7027 36.956 19.7194 35.6306C17.7361 34.3051 16.1903 32.4214 15.2775 30.2175C14.3646 28.0136 14.1258 25.5886 14.5911 23.249C15.0563 20.9094 16.2049 18.7602 17.8914 17.0733C20.1645 14.8657 23.2149 13.6412 26.3834 13.6644C29.5519 13.6875 32.584 14.9565 34.8246 17.197C37.0651 19.4376 38.334 22.4697 38.3572 25.6382C38.3804 28.8067 37.1558 31.8571 34.9483 34.1301C33.831 35.2538 32.5019 36.1447 31.038 36.7513C29.5741 37.3579 28.0045 37.6681 26.4199 37.664ZM26.4199 14.953C20.548 14.953 15.7711 19.7298 15.7711 25.6017C15.7711 31.4736 20.548 36.2505 26.4199 36.2505C32.2918 36.2505 37.0686 31.4736 37.0686 25.6017C37.0686 19.7298 32.2918 14.953 26.4199 14.953Z" fill="#E50027"/>
<path d="M30.6255 30.5198C30.5328 30.52 30.4409 30.5018 30.3551 30.4663C30.2694 30.4308 30.1916 30.3787 30.1261 30.313L21.714 21.9009C21.5853 21.7676 21.514 21.5891 21.5157 21.4038C21.5173 21.2184 21.5916 21.0412 21.7226 20.9101C21.8537 20.7791 22.0309 20.7048 22.2163 20.7032C22.4016 20.7015 22.5801 20.7728 22.7134 20.9015L31.1255 29.3136C31.2242 29.4124 31.2914 29.5384 31.3186 29.6754C31.3458 29.8125 31.3318 29.9545 31.2783 30.0836C31.2248 30.2127 31.1342 30.3231 31.018 30.4007C30.9019 30.4783 30.7653 30.5198 30.6255 30.5198Z" fill="#E50027"/>
<path d="M22.2144 30.5198C22.0747 30.5198 21.9381 30.4783 21.8219 30.4007C21.7057 30.3231 21.6152 30.2127 21.5617 30.0836C21.5082 29.9545 21.4941 29.8125 21.5213 29.6754C21.5485 29.5384 21.6158 29.4124 21.7145 29.3136L30.1266 20.9015C30.2599 20.7728 30.4384 20.7015 30.6237 20.7032C30.809 20.7048 30.9863 20.7791 31.1173 20.9101C31.2484 21.0412 31.3227 21.2184 31.3243 21.4038C31.3259 21.5891 31.2547 21.7676 31.1259 21.9009L22.7139 30.313C22.6484 30.3787 22.5705 30.4308 22.4848 30.4663C22.3991 30.5018 22.3072 30.52 22.2144 30.5198Z" fill="#E50027"/>
</svg>
