<svg width="30" height="30" viewBox="0 0 30 30" fill="none" xmlns="http://www.w3.org/2000/svg">
<circle cx="15" cy="15" r="15" fill="#1D5BBF" style="fill:#1D5BBF;fill:color(display-p3 0.1137 0.3569 0.7490);fill-opacity:1;"/>
<path d="M15.0274 12C14.9141 11.9993 14.8019 12.0214 14.697 12.0649C14.5922 12.1085 14.4968 12.1726 14.4164 12.2536L9.25308 17.5009C9.09104 17.6656 9 17.889 9 18.1219C9 18.3548 9.09104 18.5781 9.25308 18.7428C9.41513 18.9075 9.63491 19 9.86407 19C10.0932 19 10.313 18.9075 10.4751 18.7428L15.0274 14.1077L19.5797 18.7341C19.7443 18.8773 19.9561 18.9522 20.1727 18.9437C20.3892 18.9352 20.5947 18.844 20.748 18.6882C20.9012 18.5324 20.991 18.3237 20.9994 18.1036C21.0077 17.8834 20.9341 17.6682 20.7931 17.5009L15.6298 12.2536C15.4695 12.0921 15.2531 12.001 15.0274 12Z" fill="white" style="fill:white;fill-opacity:1;"/>
</svg>
