<svg width="30" height="30" viewBox="0 0 30 30" fill="none" xmlns="http://www.w3.org/2000/svg">
<circle cx="15" cy="15" r="15" fill="#D6E2F4" style="fill:#D6E2F4;fill:color(display-p3 0.8385 0.8844 0.9583);fill-opacity:1;"/>
<path d="M15.0274 19C14.9141 19.0007 14.8019 18.9786 14.697 18.9351C14.5922 18.8915 14.4968 18.8274 14.4164 18.7464L9.25308 13.4991C9.09104 13.3344 9 13.111 9 12.8781C9 12.6452 9.09104 12.4219 9.25308 12.2572C9.41513 12.0925 9.63491 12 9.86407 12C10.0932 12 10.313 12.0925 10.4751 12.2572L15.0274 16.8923L19.5797 12.2659C19.7443 12.1227 19.9561 12.0478 20.1727 12.0563C20.3892 12.0648 20.5947 12.156 20.748 12.3118C20.9012 12.4676 20.991 12.6763 20.9994 12.8964C21.0077 13.1166 20.9341 13.3318 20.7931 13.4991L15.6298 18.7464C15.4695 18.9079 15.2531 18.999 15.0274 19Z" fill="#1D5BBF" style="fill:#1D5BBF;fill:color(display-p3 0.1137 0.3569 0.7490);fill-opacity:1;"/>
</svg>
