<svg width="21" height="21" viewBox="0 0 21 21" fill="none" xmlns="http://www.w3.org/2000/svg">
<path d="M1.32031 3.375C1.32031 1.99429 2.4396 0.875 3.82031 0.875H17.8203C19.201 0.875 20.3203 1.99429 20.3203 3.375V17.375C20.3203 18.7557 19.201 19.875 17.8203 19.875H3.82031C2.4396 19.875 1.32031 18.7557 1.32031 17.375V3.375Z" fill="white" stroke="#BEBCBC"/>
<g clip-path="url(#clip0_345_161931)">
<path d="M8.03899 16.2236L4.89983 13.1623C4.8489 13.1123 4.82031 13.0447 4.82031 12.9743C4.82031 12.9038 4.8489 12.8362 4.89983 12.7862L6.05623 11.6587C6.10745 11.6091 6.1767 11.5813 6.24888 11.5813C6.32105 11.5813 6.3903 11.6091 6.44152 11.6587L8.30943 13.4804L16.0906 4.46876C16.1372 4.41536 16.2036 4.38203 16.2752 4.37599C16.3469 4.36995 16.4181 4.39169 16.4734 4.43649L17.7242 5.46377C17.7789 5.50926 17.8131 5.57395 17.8193 5.64383C17.8255 5.71372 17.8032 5.78317 17.7573 5.83714L8.81913 16.191C8.77185 16.2458 8.71341 16.2904 8.64752 16.322C8.58164 16.3536 8.50974 16.3715 8.43639 16.3745C8.36304 16.3776 8.28984 16.3657 8.22143 16.3398C8.15302 16.3138 8.0909 16.2742 8.03899 16.2236Z" fill="#00AEBD"/>
</g>
<defs>
<clipPath id="clip0_345_161931">
<rect width="17.1503" height="13.7143" fill="white" transform="translate(2.25 3.23438)"/>
</clipPath>
</defs>
</svg>
