<svg width="26" height="27" viewBox="0 0 26 27" fill="none" xmlns="http://www.w3.org/2000/svg">
<circle cx="13" cy="13.8516" r="13" fill="#F1F6FF"/>
<path d="M8.58139 11.8516C8.40698 11.8516 8.26667 11.9154 8.16046 12.0431C8.05426 12.1707 8.00078 12.3196 8 12.4899C8 12.5324 8.05814 12.6814 8.17442 12.9367L12.3895 17.5643C12.4864 17.6707 12.5833 17.7452 12.6802 17.7877C12.7771 17.8303 12.8837 17.8516 13 17.8516C13.1163 17.8516 13.2229 17.8303 13.3198 17.7877C13.4167 17.7452 13.5135 17.6707 13.6104 17.5643L17.8256 12.9367C17.8837 12.8728 17.9275 12.8035 17.9569 12.7286C17.9864 12.6537 18.0007 12.5741 18 12.4899C18 12.3196 17.9469 12.1707 17.8407 12.0431C17.7345 11.9154 17.5938 11.8516 17.4186 11.8516H8.58139Z" fill="#252525"/>
</svg>
