<svg width="25" height="25" viewBox="0 0 25 25" fill="none" xmlns="http://www.w3.org/2000/svg">
<path d="M12.75 0.0546875C6.12258 0.0546875 0.75 5.42727 0.75 12.0547C0.75 18.6821 6.12258 24.0547 12.75 24.0547C19.3774 24.0547 24.75 18.6821 24.75 12.0547C24.7428 5.43022 19.3745 0.0618594 12.75 0.0546875ZM16.75 14.6417C17.1563 15.0157 17.1826 15.6483 16.8086 16.0547C16.4346 16.461 15.8019 16.4873 15.3956 16.1133C15.3752 16.0946 15.3557 16.075 15.337 16.0547L12.75 13.4687L10.164 16.0547C9.76673 16.4383 9.13369 16.4273 8.75002 16.0301C8.37577 15.6425 8.37577 15.0282 8.75002 14.6407L11.336 12.0547L8.75002 9.46869C8.36634 9.07142 8.37736 8.43838 8.77462 8.0547C9.16214 7.68045 9.77648 7.68045 10.164 8.0547L12.75 10.6407L15.337 8.0547C15.711 7.64834 16.3436 7.62209 16.75 7.99611C17.1563 8.37013 17.1826 9.00275 16.8086 9.40911C16.7899 9.42945 16.7703 9.44895 16.75 9.4677L14.164 12.0547L16.75 14.6417Z" fill="url(#paint0_linear_12507_28682)"/>
<defs>
<linearGradient id="paint0_linear_12507_28682" x1="12.75" y1="0.0546875" x2="12.75" y2="24.0547" gradientUnits="userSpaceOnUse">
<stop stop-color="#00AEBD"/>
<stop offset="1" stop-color="#1D5BBF"/>
</linearGradient>
</defs>
</svg>
