<svg width="24" height="25" viewBox="0 0 24 25" fill="none" xmlns="http://www.w3.org/2000/svg">
<path d="M12.2461 0.886719C5.82794 0.886719 0.625 6.08966 0.625 12.5078C0.625 18.926 5.82794 24.1289 12.2461 24.1289C18.6643 24.1289 23.8672 18.926 23.8672 12.5078C23.8602 6.09251 18.6614 0.893664 12.2461 0.886719ZM16.1198 15.0131C16.5133 15.3753 16.5387 15.988 16.1765 16.3815C15.8143 16.775 15.2017 16.8004 14.8081 16.4382C14.7884 16.4201 14.7696 16.4012 14.7514 16.3815L12.2461 13.8771L9.74175 16.3815C9.35703 16.7531 8.74397 16.7424 8.37241 16.3577C8.00998 15.9824 8.00998 15.3874 8.37241 15.0122L10.8768 12.5078L8.37241 10.0035C8.00085 9.61874 8.01152 9.00569 8.39624 8.63413C8.77152 8.2717 9.36647 8.2717 9.74175 8.63413L12.2461 11.1385L14.7514 8.63413C15.1136 8.2406 15.7262 8.21518 16.1198 8.57739C16.5133 8.93959 16.5387 9.55224 16.1765 9.94577C16.1584 9.96547 16.1395 9.98436 16.1198 10.0025L13.6154 12.5078L16.1198 15.0131Z" fill="url(#paint0_linear_12405_158982)"/>
<defs>
<linearGradient id="paint0_linear_12405_158982" x1="12.2461" y1="0.886719" x2="12.2461" y2="24.1289" gradientUnits="userSpaceOnUse">
<stop stop-color="#00AEBD"/>
<stop offset="1" stop-color="#1D5BBF"/>
</linearGradient>
</defs>
</svg>
