<svg width="22" height="23" viewBox="0 0 22 23" fill="none" xmlns="http://www.w3.org/2000/svg">
<path d="M18.7782 3.92157C16.7153 1.87084 13.9174 0.71875 11 0.71875C8.08262 0.71875 5.28473 1.87084 3.22183 3.92157C1.15893 5.9723 0 8.75368 0 11.6539C0 14.554 1.15893 17.3354 3.22183 19.3861C5.28473 21.4369 8.08262 22.589 11 22.589C13.9174 22.589 16.7153 21.4369 18.7782 19.3861C20.8411 17.3354 22 14.554 22 11.6539C22 8.75368 20.8411 5.9723 18.7782 3.92157ZM17.6704 18.2849C16.3505 19.5924 14.6706 20.4818 12.8426 20.8408C11.0146 21.1998 9.12061 21.0123 7.39976 20.302C5.67891 19.5916 4.20837 18.3903 3.17385 16.8497C2.13932 15.3091 1.5872 13.4984 1.5872 11.646C1.5872 9.79373 2.13932 7.98295 3.17385 6.44236C4.20837 4.90177 5.67891 3.70046 7.39976 2.99013C9.12061 2.27979 11.0146 2.09229 12.8426 2.45129C14.6706 2.81029 16.3505 3.6997 17.6704 5.00721C18.5493 5.87795 19.2467 6.9126 19.7226 8.05184C20.1984 9.19108 20.4434 10.4125 20.4434 11.646C20.4434 12.8796 20.1984 14.101 19.7226 15.2402C19.2467 16.3795 18.5493 17.4141 17.6704 18.2849ZM14.3313 9.44351L12.1078 11.6539L14.3313 13.8642C14.4776 14.0105 14.5597 14.2085 14.5597 14.4148C14.5597 14.6212 14.4776 14.8191 14.3313 14.9655C14.1841 15.1109 13.9849 15.1926 13.7774 15.1926C13.5698 15.1926 13.3707 15.1109 13.2235 14.9655L11 12.7551L8.77654 14.9655C8.62934 15.1109 8.43021 15.1926 8.22264 15.1926C8.01508 15.1926 7.81595 15.1109 7.66874 14.9655C7.52241 14.8191 7.44027 14.6212 7.44027 14.4148C7.44027 14.2085 7.52241 14.0105 7.66874 13.8642L9.8922 11.6539L7.66874 9.44351C7.54003 9.2941 7.47277 9.1019 7.48041 8.90534C7.48804 8.70877 7.57002 8.5223 7.70994 8.3832C7.84986 8.2441 8.03744 8.16262 8.23517 8.15502C8.43291 8.14743 8.62624 8.21429 8.77654 8.34225L11 10.5526L13.2235 8.34225C13.3738 8.21429 13.5671 8.14743 13.7648 8.15502C13.9626 8.16262 14.1501 8.2441 14.2901 8.3832C14.43 8.5223 14.512 8.70877 14.5196 8.90534C14.5272 9.1019 14.46 9.2941 14.3313 9.44351Z" fill="#18283D"/>
</svg>
