<svg width="18" height="25" viewBox="0 0 18 25" fill="none" xmlns="http://www.w3.org/2000/svg">
<path d="M8.78589 0C3.94135 0 0 3.94135 0 8.78589C0 10.5455 0.51578 12.2362 1.49326 13.6872L8.78589 25L16.0785 13.6872C17.056 12.2362 17.5718 10.5455 17.5718 8.78589C17.5718 3.94135 13.6304 0 8.78589 0ZM8.78589 13.1788C6.36362 13.1788 4.39294 11.2082 4.39294 8.78589C4.39294 6.36362 6.36362 4.39294 8.78589 4.39294C11.2082 4.39294 13.1788 6.36362 13.1788 8.78589C13.1788 11.2082 11.2082 13.1788 8.78589 13.1788Z" fill="#FF641A"/>
<path d="M8.78125 0V4.39294C11.2035 4.39294 13.1742 6.36362 13.1742 8.78589C13.1742 11.2082 11.2035 13.1788 8.78125 13.1788V25L16.0739 13.6872C17.0514 12.2362 17.5671 10.5455 17.5671 8.78589C17.5671 3.94135 13.6258 0 8.78125 0Z" fill="#F03800"/>
</svg>
