<svg width="16" height="16" viewBox="0 0 16 16" fill="none" xmlns="http://www.w3.org/2000/svg">
<path d="M2.66667 0H13.3333C14.0406 0 14.7189 0.280956 15.219 0.78106C15.719 1.28116 16 1.95945 16 2.6667V10.6668C16 11.3741 15.719 12.0524 15.219 12.5525C14.7189 13.0526 14.0406 13.3335 13.3333 13.3335H11.4L8.43267 15.8422C8.31229 15.9441 8.1597 16 8.002 16C7.8443 16 7.69171 15.9441 7.57133 15.8422L4.6 13.3335H2.66667C1.95942 13.3335 1.28115 13.0526 0.781049 12.5525C0.280952 12.0524 -4.76837e-07 11.3741 -4.76837e-07 10.6668V2.6667C-4.76837e-07 1.95945 0.280952 1.28116 0.781049 0.78106C1.28115 0.280956 1.95942 0 2.66667 0ZM11.3333 3.33338H8C7.82319 3.33338 7.65362 3.40362 7.5286 3.52865C7.40357 3.65367 7.33333 3.82324 7.33333 4.00006C7.33333 4.17687 7.40357 4.34644 7.5286 4.47147C7.65362 4.59649 7.82319 4.66673 8 4.66673H11.3333C11.5101 4.66673 11.6797 4.59649 11.8047 4.47147C11.9298 4.34644 12 4.17687 12 4.00006C12 3.82324 11.9298 3.65367 11.8047 3.52865C11.6797 3.40362 11.5101 3.33338 11.3333 3.33338ZM4.66667 10.0001H11.3333C11.5101 10.0001 11.6797 9.9299 11.8047 9.80488C11.9298 9.67985 12 9.51028 12 9.33346C12 9.15665 11.9298 8.98708 11.8047 8.86205C11.6797 8.73703 11.5101 8.66679 11.3333 8.66679H4.66667C4.48986 8.66679 4.32029 8.73703 4.19526 8.86205C4.07024 8.98708 4 9.15665 4 9.33346C4 9.51028 4.07024 9.67985 4.19526 9.80488C4.32029 9.9299 4.48986 10.0001 4.66667 10.0001ZM4.66667 7.33344H11.3333C11.5101 7.33344 11.6797 7.2632 11.8047 7.13817C11.9298 7.01315 12 6.84357 12 6.66676C12 6.48995 11.9298 6.32038 11.8047 6.19535C11.6797 6.07032 11.5101 6.00008 11.3333 6.00008H4.66667C4.48986 6.00008 4.32029 6.07032 4.19526 6.19535C4.07024 6.32038 4 6.48995 4 6.66676C4 6.84357 4.07024 7.01315 4.19526 7.13817C4.32029 7.2632 4.48986 7.33344 4.66667 7.33344Z" fill="#F3516D" style="fill:#F3516D;fill:color(display-p3 0.9542 0.3181 0.4264);fill-opacity:1;"/>
</svg>
