<svg width="50" height="50" viewBox="0 0 50 50" fill="none" xmlns="http://www.w3.org/2000/svg">
<circle cx="25" cy="25" r="25" fill="#04A6BE" style="fill:#04A6BE;fill:color(display-p3 0.0157 0.6510 0.7451);fill-opacity:1;"/>
<path d="M33.0925 18.9965C33.8132 18.2317 34.2202 17.2265 34.2202 16.1577C34.2202 13.868 32.3521 12 30.0625 12C27.7728 12 25.9048 13.8631 25.9048 16.1577C25.9048 17.2314 26.3117 18.2366 27.0374 19.0014C26.5422 19.2319 26.0764 19.5211 25.6498 19.8643C25.792 19.3887 25.8704 18.8886 25.8704 18.3738C25.8655 15.5252 23.5464 13.2061 20.6978 13.2061C17.8492 13.2061 15.535 15.5252 15.535 18.3689C15.535 19.7516 16.0744 21.0459 17.0353 22.0069C14.0004 23.3454 12 26.3607 12 29.7144C12 30.3272 12.0686 30.9499 12.2059 31.5677C12.6129 33.3818 14.1965 34.6467 16.0498 34.6467H25.3458C26.1744 34.6467 26.9834 34.382 27.66 33.8868C28.5229 34.6075 29.6065 35.0046 30.7489 35.0046C33.421 35.0046 35.593 32.8326 35.593 30.1605C35.593 29.6359 35.5047 29.126 35.343 28.6357C35.4753 28.5573 35.6028 28.4739 35.7156 28.3808C36.2794 27.9297 36.6766 27.2923 36.8334 26.5863C37.5395 23.4582 35.946 20.3056 33.0925 18.9965ZM26.6843 16.1577C26.6843 14.2946 28.1994 12.7845 30.0576 12.7845C31.9207 12.7845 33.4357 14.2995 33.4357 16.1577C33.4357 17.2069 32.9601 18.1777 32.1315 18.82C31.5334 19.2858 30.8175 19.5309 30.0576 19.5309C29.8664 19.5309 29.68 19.5162 29.4986 19.4868C29.2143 19.4378 28.9446 19.3544 28.6847 19.2417C28.4396 19.1338 28.2043 18.9916 27.9885 18.8249C27.1599 18.1777 26.6843 17.2069 26.6843 16.1577ZM16.3146 18.3689C16.3146 15.9518 18.2807 13.9906 20.6978 13.9906C23.115 13.9906 25.0811 15.9567 25.0811 18.3738C25.0811 19.7369 24.4633 20.9969 23.3896 21.8353C22.6149 22.4384 21.6833 22.7571 20.6978 22.7571C20.4527 22.7571 20.2075 22.7375 19.9722 22.6982C19.8055 22.6688 19.6388 22.6296 19.4721 22.5806C19.2809 22.5266 19.0946 22.458 18.9132 22.3795C18.5945 22.2374 18.2905 22.056 18.0061 21.8353C16.9324 20.992 16.3146 19.732 16.3146 18.3689ZM25.3458 33.8623H16.0498C14.5593 33.8623 13.2944 32.8473 12.9659 31.3961C12.8433 30.8371 12.7796 30.2684 12.7796 29.7144C12.7796 26.5471 14.7506 23.7033 17.7021 22.5806C17.7315 22.6051 17.7659 22.6198 17.7953 22.6443C17.8492 22.6786 17.8983 22.7129 17.9522 22.7473C18.0159 22.7865 18.0797 22.8257 18.1483 22.8649C18.2022 22.8944 18.2562 22.9287 18.3101 22.9532C18.3787 22.9875 18.4474 23.0218 18.516 23.0513C18.57 23.0758 18.6288 23.1052 18.6827 23.1297C18.7514 23.1591 18.8249 23.1885 18.8985 23.2131C18.9573 23.2327 19.0112 23.2572 19.0701 23.2768C19.1436 23.3013 19.222 23.3209 19.2956 23.3454C19.3495 23.3601 19.4084 23.3798 19.4623 23.3945C19.5407 23.4141 19.6241 23.4288 19.7025 23.4435C19.7565 23.4533 19.8104 23.468 19.8643 23.4729C19.9526 23.4876 20.0457 23.4974 20.1389 23.5072C20.183 23.5121 20.2321 23.5219 20.2762 23.5219C20.4135 23.5317 20.5556 23.5366 20.6929 23.5366C20.8351 23.5366 20.9724 23.5317 21.1097 23.5219C21.1538 23.517 21.2028 23.5121 21.247 23.5072C21.3401 23.4974 21.4333 23.4876 21.5215 23.4729C21.5755 23.4631 21.6294 23.4533 21.6833 23.4435C21.7667 23.4288 21.8451 23.4141 21.9285 23.3945C21.9873 23.3798 22.0412 23.365 22.0952 23.3454C22.1687 23.3258 22.2472 23.3013 22.3207 23.2768C22.3795 23.2572 22.4335 23.2376 22.4923 23.2131C22.5659 23.1885 22.6345 23.1591 22.708 23.1297C22.7669 23.1052 22.8208 23.0807 22.8747 23.0513C22.9434 23.0169 23.012 22.9875 23.0807 22.9532C23.1346 22.9238 23.1885 22.8944 23.2425 22.8649C23.3062 22.8257 23.3748 22.7914 23.4386 22.7473C23.4925 22.7129 23.5464 22.6786 23.5955 22.6443C23.6249 22.6247 23.6592 22.6051 23.6886 22.5806C23.7916 22.6198 23.8897 22.659 23.9877 22.7031C24.2034 22.7963 24.4094 22.8944 24.6104 23.0071C24.679 23.0463 24.7428 23.0856 24.8114 23.1248C24.9438 23.2032 25.0762 23.2768 25.2036 23.3601C25.2821 23.4092 25.3507 23.468 25.4243 23.5219C25.537 23.6004 25.6498 23.6837 25.7528 23.7671C25.8263 23.8259 25.8999 23.8946 25.9734 23.9583C26.0715 24.0466 26.1744 24.1299 26.2676 24.2231C26.3411 24.2917 26.4049 24.3652 26.4784 24.4388C26.5667 24.5319 26.6549 24.6251 26.7432 24.7232C26.8118 24.8016 26.8707 24.8801 26.9344 24.9585C27.0128 25.0566 27.0913 25.1595 27.1697 25.2625C27.2286 25.3458 27.2874 25.4341 27.3413 25.5174C27.41 25.6253 27.4786 25.7332 27.5473 25.841C27.6012 25.9293 27.6502 26.0224 27.6993 26.1156C27.7336 26.1793 27.763 26.2431 27.7973 26.3117C27.7483 26.346 27.7042 26.3853 27.66 26.4245C27.6355 26.4441 27.6159 26.4588 27.5914 26.4784C27.5178 26.5422 27.4443 26.6059 27.3757 26.6745C27.3609 26.6892 27.3462 26.704 27.3364 26.7187C27.2825 26.7726 27.2286 26.8265 27.1746 26.8854C27.1501 26.9099 27.1256 26.9393 27.1011 26.9687C27.0619 27.0128 27.0226 27.057 26.9834 27.106C26.9589 27.1354 26.9344 27.1697 26.9099 27.2041C26.8756 27.2482 26.8412 27.2923 26.8118 27.3364C26.7873 27.3708 26.7628 27.4051 26.7383 27.4394C26.7089 27.4835 26.6794 27.5276 26.65 27.5718C26.6255 27.6061 26.6059 27.6453 26.5814 27.6845C26.5569 27.7287 26.5274 27.7728 26.5029 27.8218C26.4833 27.861 26.4637 27.9003 26.4392 27.9395C26.4147 27.9836 26.3902 28.0326 26.3706 28.0768C26.3509 28.116 26.3313 28.1552 26.3166 28.1945C26.297 28.2435 26.2774 28.2876 26.2578 28.3366C26.2431 28.3759 26.2235 28.42 26.2088 28.4592C26.1891 28.5082 26.1744 28.5573 26.1548 28.6063C26.1401 28.6455 26.1254 28.6896 26.1156 28.7289C26.1009 28.7779 26.0862 28.8318 26.0715 28.8809C26.0617 28.9201 26.047 28.9642 26.0371 29.0034C26.0224 29.0574 26.0126 29.1113 26.0028 29.1652C25.993 29.2045 25.9832 29.2437 25.9783 29.2878C25.9685 29.3466 25.9587 29.4006 25.9538 29.4594C25.9489 29.4986 25.944 29.5379 25.9391 29.5771C25.9293 29.6408 25.9244 29.7046 25.9195 29.7683C25.9146 29.8026 25.9146 29.832 25.9097 29.8664C25.9048 29.9644 25.8999 30.0625 25.8999 30.1605C25.8999 30.3174 25.9097 30.4694 25.9244 30.6263C25.9293 30.6753 25.9391 30.7293 25.944 30.7783C25.9587 30.8813 25.9734 30.9842 25.993 31.0872C26.0028 31.146 26.0175 31.2049 26.0322 31.2637C26.0519 31.3569 26.0764 31.4451 26.1009 31.5334C26.1205 31.5971 26.1401 31.6559 26.1597 31.7148C26.1891 31.7981 26.2186 31.8864 26.2529 31.9697C26.2774 32.0286 26.3019 32.0923 26.3313 32.1511C26.3705 32.2345 26.4098 32.3129 26.449 32.3914C26.4784 32.4502 26.5078 32.509 26.5422 32.563C26.5863 32.6414 26.6353 32.7199 26.6843 32.7983C26.7187 32.8523 26.753 32.9062 26.7873 32.9552C26.8461 33.0386 26.9099 33.117 26.9736 33.1955C27.0079 33.2347 27.0374 33.2788 27.0717 33.318C27.0766 33.3229 27.0815 33.3278 27.0815 33.3327C26.5814 33.6759 25.9685 33.8623 25.3458 33.8623ZM30.7538 34.2251C29.6997 34.2251 28.7044 33.823 27.9444 33.0974C27.1452 32.3374 26.6843 31.2637 26.6843 30.1605C26.6843 28.7877 27.3708 27.5178 28.5131 26.7628C29.1799 26.3264 29.9546 26.0911 30.7489 26.0911C31.0578 26.0911 31.3618 26.1254 31.651 26.194C31.7834 26.2235 31.9109 26.2627 32.0384 26.3019C32.8523 26.5716 33.5632 27.0962 34.0633 27.7973C34.1221 27.8758 34.176 27.9591 34.2251 28.0474C34.328 28.219 34.4212 28.4004 34.4996 28.5916C34.7056 29.0868 34.8085 29.6114 34.8085 30.1556C34.8183 32.4012 32.9944 34.2251 30.7538 34.2251ZM36.0784 26.4147C35.9607 26.9491 35.6616 27.4296 35.2302 27.7728C35.1713 27.8218 35.1076 27.866 35.0439 27.9101C35.0145 27.8512 34.9801 27.7924 34.9458 27.7385C34.9262 27.7042 34.9115 27.6698 34.887 27.6404C34.8379 27.5571 34.784 27.4786 34.7252 27.3953C34.7154 27.3806 34.7056 27.3659 34.6958 27.3511C34.6271 27.258 34.5585 27.1648 34.4849 27.0766C34.4702 27.057 34.4506 27.0374 34.431 27.0177C34.3722 26.9491 34.3182 26.8854 34.2545 26.8216C34.2251 26.7922 34.1957 26.7628 34.1662 26.7383C34.1123 26.6843 34.0633 26.6353 34.0093 26.5863C33.975 26.5569 33.9407 26.5274 33.9064 26.498C33.8574 26.4539 33.8034 26.4098 33.7495 26.3656C33.7103 26.3362 33.671 26.3068 33.6367 26.2774C33.5828 26.2382 33.5338 26.1989 33.4798 26.1646C33.4406 26.1352 33.3965 26.1107 33.3573 26.0862C33.3033 26.0519 33.2494 26.0175 33.1955 25.9881C33.1513 25.9636 33.1072 25.9391 33.0631 25.9146C33.0091 25.8852 32.9503 25.8557 32.8964 25.8263C32.8523 25.8018 32.8081 25.7822 32.7591 25.7626C32.7003 25.7381 32.6414 25.7136 32.5826 25.689C32.5385 25.6694 32.4894 25.6498 32.4404 25.6351C32.3816 25.6106 32.3178 25.591 32.259 25.5714C32.21 25.5567 32.1658 25.542 32.1168 25.5272C32.0531 25.5076 31.9893 25.4929 31.9256 25.4782C31.8766 25.4684 31.8324 25.4537 31.7834 25.4439C31.7148 25.4292 31.6461 25.4194 31.5775 25.4047C31.5334 25.3949 31.4892 25.39 31.4402 25.3802C31.3618 25.3703 31.2882 25.3605 31.2098 25.3556C31.1705 25.3507 31.1313 25.3458 31.0921 25.3458C30.9744 25.336 30.8568 25.3311 30.7391 25.3311C30.6263 25.3311 30.5184 25.336 30.4106 25.3409C30.3763 25.3409 30.3419 25.3458 30.3027 25.3507C30.2292 25.3556 30.1556 25.3654 30.0821 25.3753C30.0429 25.3802 29.9987 25.39 29.9595 25.3949C29.8909 25.4047 29.8222 25.4194 29.7536 25.4341C29.7144 25.4439 29.6702 25.4537 29.631 25.4586C29.5624 25.4733 29.4937 25.4929 29.4251 25.5125C29.3859 25.5223 29.3515 25.5321 29.3123 25.5469C29.2339 25.5714 29.1554 25.6008 29.077 25.6253C29.0525 25.6351 29.0279 25.64 29.0034 25.6498C28.9005 25.689 28.8024 25.7332 28.7044 25.7773C28.6749 25.792 28.6455 25.8067 28.621 25.8214C28.5671 25.8508 28.5082 25.8754 28.4543 25.9048C28.4494 25.895 28.4396 25.8852 28.4347 25.8704C28.3415 25.6939 28.2484 25.5223 28.1454 25.3556C28.1307 25.336 28.1209 25.3115 28.1062 25.287C28.0032 25.1203 27.8905 24.9536 27.7728 24.7967C27.7483 24.7673 27.7287 24.733 27.7042 24.7035C27.5865 24.5467 27.4688 24.3947 27.3413 24.2476C27.3217 24.2231 27.2972 24.1985 27.2776 24.174C27.1452 24.022 27.0079 23.8749 26.8608 23.7328L26.8559 23.7279C26.7138 23.5857 26.5618 23.4533 26.4098 23.3209C26.3853 23.3013 26.3656 23.2817 26.3411 23.2621C26.1891 23.1395 26.0371 23.0169 25.8754 22.9042C25.8459 22.8846 25.8165 22.86 25.7871 22.8404C25.6253 22.7277 25.4586 22.6198 25.2919 22.5168C25.2723 22.5021 25.2478 22.4923 25.2233 22.4776C25.0517 22.3746 24.8751 22.2815 24.6986 22.1932C24.6888 22.1883 24.6839 22.1834 24.6741 22.1785C25.3458 21.0018 26.4196 20.0752 27.6747 19.5849C27.6943 19.5996 27.714 19.6094 27.7336 19.6241C27.7728 19.6486 27.812 19.678 27.8512 19.7025C27.9052 19.7369 27.9591 19.7712 28.013 19.8006C28.0523 19.8251 28.0964 19.8447 28.1405 19.8692C28.1944 19.8987 28.2533 19.9232 28.3072 19.9526C28.3513 19.9722 28.3955 19.9918 28.4396 20.0114C28.4984 20.0359 28.5573 20.0605 28.6161 20.0801C28.6602 20.0948 28.7044 20.1144 28.7485 20.1291C28.8073 20.1487 28.8711 20.1683 28.9299 20.183C28.974 20.1928 29.0181 20.2075 29.0623 20.2173C29.126 20.2321 29.1946 20.2468 29.2584 20.2566C29.3025 20.2664 29.3417 20.2762 29.3859 20.2811C29.4594 20.2909 29.533 20.3007 29.6065 20.3105C29.6408 20.3154 29.68 20.3203 29.7144 20.3252C29.8271 20.335 29.935 20.3399 30.0478 20.3399C30.1605 20.3399 30.2733 20.335 30.3812 20.3252C30.4155 20.3203 30.4547 20.3154 30.489 20.3105C30.5626 20.3007 30.6361 20.2958 30.7097 20.2811C30.7538 20.2762 30.793 20.2664 30.8371 20.2566C30.9009 20.2419 30.9695 20.2321 31.0333 20.2173C31.0774 20.2075 31.1215 20.1928 31.1656 20.183C31.2294 20.1634 31.2882 20.1487 31.3519 20.1291C31.3961 20.1144 31.4402 20.0997 31.4843 20.085C31.5432 20.0654 31.602 20.0408 31.6608 20.0163C31.705 19.9967 31.7491 19.9771 31.7883 19.9575C31.8471 19.933 31.9011 19.9036 31.9599 19.8741C32.004 19.8545 32.0433 19.83 32.0825 19.8055C32.1364 19.7761 32.1904 19.7418 32.2443 19.7074C32.2835 19.6829 32.3227 19.6584 32.3669 19.629C32.3865 19.6143 32.4061 19.6045 32.4257 19.5898C35.1664 20.6292 36.7256 23.5317 36.0784 26.4147ZM32.7787 28.8662H32.0482V28.1356C32.0482 27.4198 31.4647 26.8412 30.7538 26.8412C30.038 26.8412 29.4594 27.4247 29.4594 28.1356V28.8662H28.7289C28.013 28.8662 27.4345 29.4496 27.4345 30.1605C27.4345 30.8764 28.0179 31.4549 28.7289 31.4549H29.4545V32.1855C29.4545 32.9013 30.038 33.4798 30.7489 33.4798C31.4647 33.4798 32.0433 32.8964 32.0433 32.1855V31.4549H32.7738C33.4896 31.4549 34.0682 30.8715 34.0682 30.1605C34.0731 29.4447 33.4945 28.8662 32.7787 28.8662ZM32.7787 30.6753H31.2637V32.1904C31.2637 32.4747 31.0333 32.7052 30.7489 32.7052C30.4645 32.7052 30.2341 32.4747 30.2341 32.1904V30.6753H28.7191C28.4347 30.6753 28.2043 30.4449 28.2043 30.1605C28.2043 29.8762 28.4347 29.6457 28.7191 29.6457H30.239V28.1307C30.239 27.8463 30.4694 27.6159 30.7538 27.6159C31.0382 27.6159 31.2686 27.8463 31.2686 28.1307V29.6457H32.7836C33.068 29.6457 33.2984 29.8762 33.2984 30.1605C33.2935 30.4449 33.0631 30.6753 32.7787 30.6753Z" fill="white" style="fill:white;fill-opacity:1;"/>
</svg>
