<svg width="65" height="65" viewBox="0 0 65 65" fill="none" xmlns="http://www.w3.org/2000/svg">
<circle cx="32.5" cy="32.5" r="32.5" fill="#F2F2F2"/>
<path fill-rule="evenodd" clip-rule="evenodd" d="M24.6786 35.5312C28.9149 35.5312 32.3558 38.9722 32.3558 43.2099C32.3558 44.2968 31.6707 45.2443 30.4107 45.8959C29.0195 46.6159 26.8512 47.001 24.6786 47.001C22.5047 47.001 20.3363 46.6159 18.9451 45.8959C17.6851 45.2443 17 44.2968 17 43.2099C17 38.9722 20.4409 35.5312 24.6786 35.5312ZM24.6786 37.6243C21.5963 37.6243 19.093 40.1275 19.093 43.2099C19.093 43.5894 19.4656 43.8085 19.9065 44.0373C21.0619 44.6345 22.873 44.908 24.6786 44.908C26.4828 44.908 28.294 44.6345 29.4493 44.0373C29.8902 43.8085 30.2628 43.5894 30.2628 43.2099C30.2628 40.1275 27.7609 37.6243 24.6786 37.6243Z" fill="#18283D"/>
<path fill-rule="evenodd" clip-rule="evenodd" d="M39.3335 24.3672C43.5711 24.3672 47.0121 27.8081 47.0121 32.0458C47.0121 33.1328 46.3269 34.0802 45.0669 34.7318C43.6758 35.4518 41.5074 35.837 39.3335 35.837C37.1609 35.837 34.9925 35.4518 33.6014 34.7318C32.3414 34.0802 31.6562 33.1328 31.6562 32.0458C31.6562 27.8081 35.0972 24.3672 39.3335 24.3672ZM39.3335 26.4602C36.2511 26.4602 33.7493 28.9635 33.7493 32.0458C33.7493 32.4253 34.1218 32.6444 34.5628 32.8732C35.7181 33.4704 37.5293 33.7439 39.3335 33.7439C41.139 33.7439 42.9502 33.4704 44.1056 32.8732C44.5465 32.6444 44.919 32.4253 44.919 32.0458C44.919 28.9635 42.4158 26.4602 39.3335 26.4602Z" fill="#18283D"/>
<path fill-rule="evenodd" clip-rule="evenodd" d="M24.6848 28.1641C27.2955 28.1641 29.415 30.2836 29.415 32.8943C29.415 35.505 27.2955 37.6245 24.6848 37.6245C22.0741 37.6245 19.9531 35.505 19.9531 32.8943C19.9531 30.2836 22.0741 28.1641 24.6848 28.1641ZM24.6848 30.2571C23.228 30.2571 22.0461 31.4389 22.0461 32.8943C22.0461 34.3496 23.228 35.5315 24.6848 35.5315C26.1401 35.5315 27.322 34.3496 27.322 32.8943C27.322 31.4389 26.1401 30.2571 24.6848 30.2571Z" fill="#18283D"/>
<path fill-rule="evenodd" clip-rule="evenodd" d="M39.3396 17C41.9503 17 44.0712 19.1195 44.0712 21.7302C44.0712 24.3409 41.9503 26.4605 39.3396 26.4605C36.7289 26.4605 34.6094 24.3409 34.6094 21.7302C34.6094 19.1195 36.7289 17 39.3396 17ZM39.3396 19.093C37.8843 19.093 36.7024 20.2749 36.7024 21.7302C36.7024 23.1856 37.8843 24.3674 39.3396 24.3674C40.7964 24.3674 41.9782 23.1856 41.9782 21.7302C41.9782 20.2749 40.7964 19.093 39.3396 19.093Z" fill="#18283D"/>
</svg>
