<svg width="65" height="65" viewBox="0 0 65 65" fill="none" xmlns="http://www.w3.org/2000/svg">
<circle cx="32.5" cy="32.5" r="32.5" fill="#F2F2F2"/>
<path d="M23.4771 38.6455C23.2744 38.6455 23.07 38.5881 22.8883 38.4681C19.5236 36.2494 17.5938 32.9833 17.5938 29.5063C17.5938 23.0713 24.2078 17.8359 32.3382 17.8359C34.6083 17.8359 36.7825 18.2315 38.7997 19.0119C39.3517 19.2254 39.6264 19.8455 39.413 20.3975C39.1996 20.9495 38.579 21.2242 38.0275 21.0103C36.257 20.3255 34.3431 19.9788 32.3382 19.9788C25.3894 19.9788 19.7366 24.2529 19.7366 29.5067C19.7366 32.25 21.3154 34.8642 24.0677 36.6797C24.5618 37.0054 24.6986 37.6701 24.3724 38.1638C24.1667 38.4758 23.8251 38.6455 23.4771 38.6455Z" fill="#18283D"/>
<path d="M32.339 46.9652C31.9867 46.9652 31.6567 46.7921 31.4566 46.5019L27.2999 40.4754C27.0818 40.4128 26.8722 40.3477 26.6656 40.2778C26.3292 40.1643 26.0708 39.8908 25.9765 39.5484C25.8814 39.206 25.9628 38.8387 26.1934 38.5683L40.9931 21.1701C41.3587 20.7407 41.9938 20.6683 42.4468 21.003C43.6181 21.87 44.5935 22.8788 45.3461 24.0017C46.4813 25.6714 47.0839 27.5768 47.0839 29.5062C47.0839 34.4446 43.2011 38.8117 37.3786 40.4754L33.221 46.5019C33.0209 46.7921 32.6913 46.9652 32.339 46.9652ZM28.7712 38.8455C28.7961 38.8747 28.8192 38.9051 28.8415 38.9364L32.339 44.0068L35.8366 38.9368C35.9823 38.7255 36.1991 38.5734 36.4477 38.5083C41.528 37.1814 44.9406 33.5634 44.9406 29.5062C44.9406 27.9873 44.4795 26.5388 43.5697 25.2008C43.1235 24.5348 42.5805 23.9177 41.9484 23.3549L28.7712 38.8455Z" fill="#18283D"/>
<path d="M32.9232 27.5374H28.8214C28.2296 27.5374 27.75 27.0578 27.75 26.466C27.75 25.8741 28.2296 25.3945 28.8214 25.3945H32.9232C33.5151 25.3945 33.9947 25.8741 33.9947 26.466C33.9947 27.0578 33.5151 27.5374 32.9232 27.5374Z" fill="#18283D"/>
<path d="M28.6341 32.5803H25.6808C25.0889 32.5803 24.6094 32.1008 24.6094 31.5089C24.6094 30.9171 25.0889 30.4375 25.6808 30.4375H28.6345C29.2263 30.4375 29.7059 30.9171 29.7059 31.5089C29.7059 32.1008 29.2259 32.5803 28.6341 32.5803Z" fill="#18283D"/>
<path d="M38.9954 32.5803H33.6105C33.0186 32.5803 32.5391 32.1008 32.5391 31.5089C32.5391 30.9171 33.0186 30.4375 33.6105 30.4375H38.9954C39.5873 30.4375 40.0669 30.9171 40.0669 31.5089C40.0669 32.1008 39.5873 32.5803 38.9954 32.5803Z" fill="#18283D"/>
<path d="M24.1022 43.7588C23.8571 43.7588 23.6107 43.6752 23.4088 43.5038C22.958 43.1206 22.9031 42.4444 23.2862 41.9935L40.9947 21.1737L44.1279 17.3603C44.5034 16.903 45.1792 16.8365 45.6361 17.2124C46.0934 17.5878 46.1598 18.2633 45.7839 18.7205L42.6391 22.5481L24.9195 43.3812C24.7069 43.6306 24.4057 43.7588 24.1022 43.7588Z" fill="#18283D"/>
</svg>
