<svg width="22" height="22" viewBox="0 0 22 22" fill="none" xmlns="http://www.w3.org/2000/svg">
<path d="M16.0443 22.0026C12.7589 22.0026 10.0859 19.3296 10.0859 16.0443C10.0859 12.7589 12.7589 10.0859 16.0443 10.0859C19.3296 10.0859 22.0026 12.7589 22.0026 16.0443C22.0026 19.3296 19.3296 22.0026 16.0443 22.0026ZM16.0443 11.4609C13.517 11.4609 11.4609 13.517 11.4609 16.0443C11.4609 18.5715 13.517 20.6276 16.0443 20.6276C18.5715 20.6276 20.6276 18.5715 20.6276 16.0443C20.6276 13.517 18.5715 11.4609 16.0443 11.4609Z" fill="#18283D"/>
<path d="M16.0391 19.2526C15.6596 19.2526 15.3516 18.9446 15.3516 18.5651V13.5234C15.3516 13.1439 15.6596 12.8359 16.0391 12.8359C16.4186 12.8359 16.7266 13.1439 16.7266 13.5234V18.5651C16.7266 18.9446 16.4186 19.2526 16.0391 19.2526Z" fill="#18283D"/>
<path d="M18.5651 16.7266H13.5234C13.1439 16.7266 12.8359 16.4186 12.8359 16.0391C12.8359 15.6596 13.1439 15.3516 13.5234 15.3516H18.5651C18.9446 15.3516 19.2526 15.6596 19.2526 16.0391C19.2526 16.4186 18.9446 16.7266 18.5651 16.7266Z" fill="#18283D"/>
<path d="M8.42417 19.25H2.52083C1.13025 19.25 0 18.1198 0 16.7292V2.52083C0 1.13025 1.13025 0 2.52083 0H13.0625C14.4531 0 15.5833 1.13025 15.5833 2.52083V8.10333C15.5833 8.48283 15.2753 8.79083 14.8958 8.79083C14.5163 8.79083 14.2083 8.48283 14.2083 8.10333V2.52083C14.2083 1.88925 13.6941 1.375 13.0625 1.375H2.52083C1.88925 1.375 1.375 1.88925 1.375 2.52083V16.7292C1.375 17.3608 1.88925 17.875 2.52083 17.875H8.42417C8.80367 17.875 9.11167 18.183 9.11167 18.5625C9.11167 18.942 8.80367 19.25 8.42417 19.25Z" fill="#18283D"/>
<path d="M12.1458 8.71094H3.4375C3.058 8.71094 2.75 8.40294 2.75 8.02344C2.75 7.64394 3.058 7.33594 3.4375 7.33594H12.1458C12.5253 7.33594 12.8333 7.64394 12.8333 8.02344C12.8333 8.40294 12.5253 8.71094 12.1458 8.71094Z" fill="#18283D"/>
<path d="M8.47917 12.375H3.4375C3.058 12.375 2.75 12.067 2.75 11.6875C2.75 11.308 3.058 11 3.4375 11H8.47917C8.85867 11 9.16667 11.308 9.16667 11.6875C9.16667 12.067 8.85867 12.375 8.47917 12.375Z" fill="#18283D"/>
<path d="M7.5625 5.03906H3.4375C3.058 5.03906 2.75 4.73106 2.75 4.35156C2.75 3.97206 3.058 3.66406 3.4375 3.66406H7.5625C7.942 3.66406 8.25 3.97206 8.25 4.35156C8.25 4.73106 7.942 5.03906 7.5625 5.03906Z" fill="#18283D"/>
</svg>
