<svg width="12" height="10" viewBox="0 0 12 10" fill="none" xmlns="http://www.w3.org/2000/svg">
<path fill-rule="evenodd" clip-rule="evenodd" d="M11.1768 2.98523C11.2155 2.79295 11.1261 2.59826 10.9561 2.50151C10.7856 2.40537 10.5722 2.42895 10.4271 2.56077C10.4271 2.56077 9.79461 3.13579 9.08112 3.78458C8.74735 4.08812 8.28479 4.20602 7.84642 4.10021C7.40805 3.9944 7.0507 3.67816 6.89228 3.25551L6.01735 0.923371C5.95084 0.746209 5.78214 0.628906 5.59289 0.628906C5.40363 0.628906 5.23493 0.746209 5.16842 0.923371L4.29349 3.25551C4.13507 3.67816 3.77772 3.9944 3.33935 4.10021C2.90098 4.20602 2.43842 4.08812 2.10465 3.78458C1.39117 3.13579 0.758701 2.56077 0.758701 2.56077C0.613585 2.42895 0.400143 2.40537 0.229631 2.50151C0.0597241 2.59826 -0.0297643 2.79295 0.00893336 2.98523C0.00893336 2.98523 0.68191 6.35012 1.02354 8.05946C1.17893 8.83705 1.86158 9.39635 2.65428 9.39635H8.53149C9.32419 9.39635 10.0068 8.83705 10.1622 8.05946C10.5039 6.35012 11.1768 2.98523 11.1768 2.98523Z" fill="#FFD500"/>
</svg>
