<svg width="58" height="55" viewBox="0 0 58 55" fill="none" xmlns="http://www.w3.org/2000/svg">
<rect x="0.5" y="0.5" width="57" height="54" rx="2.5" fill="#FFC7C7" stroke="#FFC7C7" style="fill:#FFC7C7;fill:color(display-p3 1.0000 0.7804 0.7804);fill-opacity:1;stroke:#FFC7C7;stroke:color(display-p3 1.0000 0.7804 0.7804);stroke-opacity:1;"/>
<path d="M40.8467 16.4414H36.6296C36.3139 14.9061 35.4785 13.5266 34.2643 12.5355C33.0501 11.5443 31.5313 11.002 29.9639 11L27.2432 11C25.6758 11.002 24.157 11.5443 22.9428 12.5355C21.7285 13.5266 20.8932 14.9061 20.5774 16.4414H16.3604C15.9996 16.4414 15.6536 16.5847 15.3984 16.8398C15.1433 17.095 15 17.441 15 17.8018C15 18.1625 15.1433 18.5086 15.3984 18.7637C15.6536 19.0188 15.9996 19.1621 16.3604 19.1621H17.7207V36.8467C17.7229 38.6499 18.4402 40.3787 19.7153 41.6539C20.9904 42.929 22.7192 43.6463 24.5225 43.6484H32.6846C34.4878 43.6463 36.2166 42.929 37.4918 41.6539C38.7669 40.3787 39.4842 38.6499 39.4863 36.8467V19.1621H40.8467C41.2075 19.1621 41.5535 19.0188 41.8086 18.7637C42.0637 18.5086 42.207 18.1625 42.207 17.8018C42.207 17.441 42.0637 17.095 41.8086 16.8398C41.5535 16.5847 41.2075 16.4414 40.8467 16.4414ZM27.2432 13.7207H29.9639C30.8077 13.7217 31.6305 13.9838 32.3195 14.4709C33.0085 14.958 33.5299 15.6463 33.8123 16.4414H23.3947C23.6771 15.6463 24.1986 14.958 24.8876 14.4709C25.5766 13.9838 26.3994 13.7217 27.2432 13.7207ZM36.7656 36.8467C36.7656 37.929 36.3357 38.9671 35.5703 39.7324C34.805 40.4978 33.7669 40.9277 32.6846 40.9277H24.5225C23.4401 40.9277 22.4021 40.4978 21.6367 39.7324C20.8714 38.9671 20.4414 37.929 20.4414 36.8467V19.1621H36.7656V36.8467Z" fill="#FD003A" style="fill:#FD003A;fill:color(display-p3 0.9922 0.0000 0.2275);fill-opacity:1;"/>
<path d="M25.8838 35.4883C26.2446 35.4883 26.5906 35.345 26.8457 35.0898C27.1008 34.8347 27.2441 34.4887 27.2441 34.1279V25.9658C27.2441 25.605 27.1008 25.259 26.8457 25.0039C26.5906 24.7488 26.2446 24.6055 25.8838 24.6055C25.523 24.6055 25.177 24.7488 24.9219 25.0039C24.6668 25.259 24.5234 25.605 24.5234 25.9658V34.1279C24.5234 34.4887 24.6668 34.8347 24.9219 35.0898C25.177 35.345 25.523 35.4883 25.8838 35.4883Z" fill="#FD003A" style="fill:#FD003A;fill:color(display-p3 0.9922 0.0000 0.2275);fill-opacity:1;"/>
<path d="M31.3252 35.4883C31.686 35.4883 32.032 35.345 32.2871 35.0898C32.5422 34.8347 32.6855 34.4887 32.6855 34.1279V25.9658C32.6855 25.605 32.5422 25.259 32.2871 25.0039C32.032 24.7488 31.686 24.6055 31.3252 24.6055C30.9644 24.6055 30.6184 24.7488 30.3633 25.0039C30.1082 25.259 29.9648 25.605 29.9648 25.9658V34.1279C29.9648 34.4887 30.1082 34.8347 30.3633 35.0898C30.6184 35.345 30.9644 35.4883 31.3252 35.4883Z" fill="#FD003A" style="fill:#FD003A;fill:color(display-p3 0.9922 0.0000 0.2275);fill-opacity:1;"/>
</svg>
