<svg width="52" height="52" viewBox="0 0 52 52" fill="none" xmlns="http://www.w3.org/2000/svg">
<circle cx="25.936" cy="25.9321" r="25.6079" fill="#FFC7C7"/>
<path d="M37.2296 15.5577H33.5657C33.2914 14.2238 32.5656 13.0253 31.5107 12.1641C30.4557 11.3029 29.1362 10.8318 27.7744 10.8301L25.4106 10.8301C24.0488 10.8318 22.7292 11.3029 21.6743 12.1641C20.6193 13.0253 19.8936 14.2238 19.6192 15.5577H15.9553C15.6419 15.5577 15.3413 15.6822 15.1196 15.9039C14.898 16.1255 14.7734 16.4261 14.7734 16.7396C14.7734 17.0531 14.898 17.3537 15.1196 17.5753C15.3413 17.797 15.6419 17.9215 15.9553 17.9215H17.1372V33.2862C17.1391 34.853 17.7623 36.355 18.8702 37.4628C19.978 38.5707 21.48 39.1939 23.0468 39.1958H30.1382C31.7049 39.1939 33.2069 38.5707 34.3148 37.4628C35.4226 36.355 36.0458 34.853 36.0477 33.2862V17.9215H37.2296C37.5431 17.9215 37.8437 17.797 38.0653 17.5753C38.287 17.3537 38.4115 17.0531 38.4115 16.7396C38.4115 16.4261 38.287 16.1255 38.0653 15.9039C37.8437 15.6822 37.5431 15.5577 37.2296 15.5577ZM25.4106 13.1939H27.7744C28.5075 13.1948 29.2224 13.4224 29.821 13.8456C30.4196 14.2688 30.8726 14.8669 31.118 15.5577H22.067C22.3123 14.8669 22.7654 14.2688 23.364 13.8456C23.9626 13.4224 24.6775 13.1948 25.4106 13.1939ZM33.6839 33.2862C33.6839 34.2266 33.3103 35.1285 32.6454 35.7934C31.9804 36.4584 31.0786 36.832 30.1382 36.832H23.0468C22.1064 36.832 21.2045 36.4584 20.5396 35.7934C19.8746 35.1285 19.5011 34.2266 19.5011 33.2862V17.9215H33.6839V33.2862Z" fill="#FD003A"/>
<path d="M24.2288 32.1046C24.5422 32.1046 24.8429 31.9801 25.0645 31.7585C25.2862 31.5368 25.4107 31.2362 25.4107 30.9227V23.8313C25.4107 23.5179 25.2862 23.2172 25.0645 22.9956C24.8429 22.7739 24.5422 22.6494 24.2288 22.6494C23.9153 22.6494 23.6147 22.7739 23.393 22.9956C23.1714 23.2172 23.0469 23.5179 23.0469 23.8313V30.9227C23.0469 31.2362 23.1714 31.5368 23.393 31.7585C23.6147 31.9801 23.9153 32.1046 24.2288 32.1046Z" fill="#FD003A"/>
<path d="M28.9553 32.1046C29.2688 32.1046 29.5694 31.9801 29.7911 31.7585C30.0127 31.5368 30.1372 31.2362 30.1372 30.9227V23.8313C30.1372 23.5179 30.0127 23.2172 29.7911 22.9956C29.5694 22.7739 29.2688 22.6494 28.9553 22.6494C28.6419 22.6494 28.3413 22.7739 28.1196 22.9956C27.898 23.2172 27.7734 23.5179 27.7734 23.8313V30.9227C27.7734 31.2362 27.898 31.5368 28.1196 31.7585C28.3413 31.9801 28.6419 32.1046 28.9553 32.1046Z" fill="#FD003A"/>
</svg>
