<svg width="25" height="24" viewBox="0 0 25 24" fill="none" xmlns="http://www.w3.org/2000/svg">
<path fill-rule="evenodd" clip-rule="evenodd" d="M17.368 9.10328C13.2573 9.10328 9.91962 12.4409 9.91962 16.5516C9.91962 20.6627 13.2573 24 17.368 24C21.4791 24 24.8163 20.6627 24.8163 16.5516C24.8163 12.4409 21.4791 9.10328 17.368 9.10328ZM0 11.5861V20.2313C0 21.5947 1.10514 22.6998 2.46849 22.6998H9.09216C9.54899 22.6998 9.91962 22.3288 9.91962 21.872C9.91962 21.4151 9.54899 21.0445 9.09216 21.0445C9.09216 21.0445 4.87818 21.0445 2.46849 21.0445C2.0192 21.0445 1.65532 20.6806 1.65532 20.2313V11.5861C1.65532 11.1296 1.2843 10.7586 0.827463 10.7586C0.371028 10.7586 0 11.1296 0 11.5861ZM16.5405 13.2311V16.5516C16.5405 16.8651 16.7177 17.1519 16.9981 17.2921L19.643 18.6145C20.0514 18.8187 20.5491 18.6531 20.7533 18.2443C20.9575 17.8359 20.7918 17.3382 20.3831 17.134L18.1958 16.0404V13.2311C18.1958 12.7742 17.8248 12.4032 17.368 12.4032C16.9115 12.4032 16.5405 12.7742 16.5405 13.2311ZM4.54052 17.3795H7.02331C7.47974 17.3795 7.85077 17.0085 7.85077 16.5516C7.85077 16.0952 7.47974 15.7242 7.02331 15.7242H4.54052C4.08369 15.7242 3.71266 16.0952 3.71266 16.5516C3.71266 17.0085 4.08369 17.3795 4.54052 17.3795ZM4.54052 14.8967H7.02331C7.47974 14.8967 7.85077 14.5257 7.85077 14.0689C7.85077 13.6124 7.47974 13.2414 7.02331 13.2414H4.54052C4.08369 13.2414 3.71266 13.6124 3.71266 14.0689C3.71266 14.5257 4.08369 14.8967 4.54052 14.8967ZM4.54052 12.4139H7.02331C7.47974 12.4139 7.85077 12.0429 7.85077 11.5861C7.85077 11.1296 7.47974 10.7586 7.02331 10.7586H4.54052C4.08369 10.7586 3.71266 11.1296 3.71266 11.5861C3.71266 12.0429 4.08369 12.4139 4.54052 12.4139ZM11.5865 2.48279H6.6209V0.827463C6.6209 0.37063 6.24987 0 5.79304 0C5.3366 0 4.96557 0.37063 4.96557 0.827463V2.48279H2.46849C1.10514 2.48279 0 3.58792 0 4.95087V8.27582C0 8.73265 0.371028 9.10328 0.827463 9.10328C1.2843 9.10328 1.65532 8.73265 1.65532 8.27582V7.44836H23.1725V9.12911C23.1725 9.58594 23.5436 9.95697 24.0004 9.95697C24.4572 9.95697 24.8279 9.58594 24.8279 9.12911V4.95087C24.8279 4.29621 24.5677 3.66856 24.1049 3.20577C23.6421 2.74259 23.0144 2.48279 22.3598 2.48279H19.8623V0.827463C19.8623 0.37063 19.4917 0 19.0348 0C18.578 0 18.207 0.37063 18.207 0.827463V2.48279H13.2414V0.827463C13.2414 0.37063 12.8708 0 12.4139 0C11.9571 0 11.5865 0.37063 11.5865 0.827463V2.48279Z" fill="#9CC1FE" style="fill:#9CC1FE;fill:color(display-p3 0.6102 0.7575 0.9949);fill-opacity:1;"/>
</svg>
