<svg width="24" height="23" viewBox="0 0 24 23" fill="none" xmlns="http://www.w3.org/2000/svg">
<path d="M14.6823 7.60156H17.097C17.4918 7.60156 17.8123 7.9216 17.8123 8.31689V12.2517C17.8123 12.647 17.4918 12.9674 17.097 12.9674H11.8205L11.0189 13.7691C10.9595 13.8284 10.879 13.8616 10.7953 13.8616C10.6205 13.8616 10.4788 13.72 10.4788 13.5455V12.9674H10.0317C9.63689 12.9674 9.31641 12.647 9.31641 12.2517V10.2845" stroke="#18283D" style="stroke:#18283D;stroke:color(display-p3 0.0941 0.1569 0.2392);stroke-opacity:1;" stroke-width="0.8" stroke-miterlimit="10" stroke-linecap="round" stroke-linejoin="round"/>
<path d="M13.3433 6.26172H9.85547" stroke="#18283D" style="stroke:#18283D;stroke:color(display-p3 0.0941 0.1569 0.2392);stroke-opacity:1;" stroke-width="0.8" stroke-miterlimit="10" stroke-linecap="round" stroke-linejoin="round"/>
<path d="M10.9257 8.94141H7.52734" stroke="#18283D" style="stroke:#18283D;stroke:color(display-p3 0.0941 0.1569 0.2392);stroke-opacity:1;" stroke-width="0.8" stroke-miterlimit="10" stroke-linecap="round" stroke-linejoin="round"/>
<path d="M8.42164 6.26172H7.52734" stroke="#18283D" style="stroke:#18283D;stroke:color(display-p3 0.0941 0.1569 0.2392);stroke-opacity:1;" stroke-width="0.8" stroke-miterlimit="10" stroke-linecap="round" stroke-linejoin="round"/>
<path d="M7.52734 7.60156H13.3403" stroke="#18283D" style="stroke:#18283D;stroke:color(display-p3 0.0941 0.1569 0.2392);stroke-opacity:1;" stroke-width="0.8" stroke-miterlimit="10" stroke-linecap="round" stroke-linejoin="round"/>
<path d="M9.198 4.91797H13.9681C14.3629 4.91797 14.6834 5.23801 14.6834 5.6333V9.56807C14.6834 9.96336 14.3629 10.2838 13.9681 10.2838H13.521V10.862C13.521 11.0364 13.3793 11.178 13.2045 11.178C13.1208 11.178 13.0403 11.1448 12.9809 11.0855L12.1793 10.2838H6.90283C6.50798 10.2838 6.1875 9.96336 6.1875 9.56807V5.6333C6.1875 5.23801 6.50798 4.91797 6.90283 4.91797H7.64871" stroke="#18283D" style="stroke:#18283D;stroke:color(display-p3 0.0941 0.1569 0.2392);stroke-opacity:1;" stroke-width="0.8" stroke-miterlimit="10" stroke-linecap="round" stroke-linejoin="round"/>
<path d="M9.25156 18.9758C10.1628 18.9758 10.9016 18.2371 10.9016 17.3258C10.9016 16.4145 10.1628 15.6758 9.25156 15.6758C8.34029 15.6758 7.60156 16.4145 7.60156 17.3258C7.60156 18.2371 8.34029 18.9758 9.25156 18.9758Z" stroke="#18283D" style="stroke:#18283D;stroke:color(display-p3 0.0941 0.1569 0.2392);stroke-opacity:1;" stroke-width="0.8" stroke-miterlimit="10" stroke-linecap="round" stroke-linejoin="round"/>
<path d="M6.5 22.0015V20.3515C6.5 19.5922 7.1156 18.9766 7.87498 18.9766H10.625C11.3844 18.9766 12 19.5922 12 20.3515V22.0015H6.5Z" stroke="#18283D" style="stroke:#18283D;stroke:color(display-p3 0.0941 0.1569 0.2392);stroke-opacity:1;" stroke-width="0.8" stroke-miterlimit="10" stroke-linecap="round" stroke-linejoin="round"/>
<path d="M20.2516 18.9758C21.1628 18.9758 21.9016 18.2371 21.9016 17.3258C21.9016 16.4145 21.1628 15.6758 20.2516 15.6758C19.3403 15.6758 18.6016 16.4145 18.6016 17.3258C18.6016 18.2371 19.3403 18.9758 20.2516 18.9758Z" stroke="#18283D" style="stroke:#18283D;stroke:color(display-p3 0.0941 0.1569 0.2392);stroke-opacity:1;" stroke-width="0.8" stroke-miterlimit="10" stroke-linecap="round" stroke-linejoin="round"/>
<path d="M21.5304 22.0017H23V20.3519C23 19.5923 22.3843 18.9766 21.6251 18.9766H18.8749C18.1157 18.9766 17.5 19.5923 17.5 20.3519V22.0017H19.9811" stroke="#18283D" style="stroke:#18283D;stroke:color(display-p3 0.0941 0.1569 0.2392);stroke-opacity:1;" stroke-width="0.8" stroke-miterlimit="10" stroke-linecap="round" stroke-linejoin="round"/>
<path d="M14.7516 18.9758C15.6628 18.9758 16.4016 18.2371 16.4016 17.3258C16.4016 16.4145 15.6628 15.6758 14.7516 15.6758C13.8403 15.6758 13.1016 16.4145 13.1016 17.3258C13.1016 18.2371 13.8403 18.9758 14.7516 18.9758Z" stroke="#18283D" style="stroke:#18283D;stroke:color(display-p3 0.0941 0.1569 0.2392);stroke-opacity:1;" stroke-width="0.8" stroke-miterlimit="10" stroke-linecap="round" stroke-linejoin="round"/>
<path d="M12 22.0015V20.3515C12 19.5922 12.6156 18.9766 13.375 18.9766H16.125C16.8844 18.9766 17.5 19.5922 17.5 20.3515V22.0015H12Z" stroke="#18283D" style="stroke:#18283D;stroke:color(display-p3 0.0941 0.1569 0.2392);stroke-opacity:1;" stroke-width="0.8" stroke-miterlimit="10" stroke-linecap="round" stroke-linejoin="round"/>
<path d="M3.75156 18.9758C4.66283 18.9758 5.40156 18.2371 5.40156 17.3258C5.40156 16.4145 4.66283 15.6758 3.75156 15.6758C2.84029 15.6758 2.10156 16.4145 2.10156 17.3258C2.10156 18.2371 2.84029 18.9758 3.75156 18.9758Z" stroke="#18283D" style="stroke:#18283D;stroke:color(display-p3 0.0941 0.1569 0.2392);stroke-opacity:1;" stroke-width="0.8" stroke-miterlimit="10" stroke-linecap="round" stroke-linejoin="round"/>
<path d="M4.25618 22.0017H6.5V20.3519C6.5 19.5923 5.88427 18.9766 5.12511 18.9766H2.37489C1.61573 18.9766 1 19.5923 1 20.3519V22.0017H2.70688" stroke="#18283D" style="stroke:#18283D;stroke:color(display-p3 0.0941 0.1569 0.2392);stroke-opacity:1;" stroke-width="0.8" stroke-miterlimit="10" stroke-linecap="round" stroke-linejoin="round"/>
<circle cx="12" cy="10" r="9.6" stroke="#18283D" style="stroke:#18283D;stroke:color(display-p3 0.0941 0.1569 0.2392);stroke-opacity:1;" stroke-width="0.8" stroke-dasharray="1.6 1.6"/>
</svg>
