<svg width="22" height="21" viewBox="0 0 22 21" fill="none" xmlns="http://www.w3.org/2000/svg">
<path d="M13.4402 6.91797H15.6352C15.9941 6.91797 16.2855 7.20889 16.2855 7.56822V11.145C16.2855 11.5043 15.9941 11.7957 15.6352 11.7957H10.8388L10.1101 12.5244C10.0561 12.5783 9.98292 12.6085 9.90686 12.6085C9.74792 12.6085 9.61916 12.4797 9.61916 12.3212V11.7957H9.21275C8.85383 11.7957 8.5625 11.5043 8.5625 11.145V9.35682" stroke="#18283D" stroke-width="0.8" stroke-miterlimit="10" stroke-linecap="round" stroke-linejoin="round"/>
<path d="M12.2174 5.69531H9.04688" stroke="#18283D" stroke-width="0.8" stroke-miterlimit="10" stroke-linecap="round" stroke-linejoin="round"/>
<path d="M10.0267 8.13281H6.9375" stroke="#18283D" stroke-width="0.8" stroke-miterlimit="10" stroke-linecap="round" stroke-linejoin="round"/>
<path d="M7.75044 5.69531H6.9375" stroke="#18283D" stroke-width="0.8" stroke-miterlimit="10" stroke-linecap="round" stroke-linejoin="round"/>
<path d="M6.9375 6.91797H12.2216" stroke="#18283D" stroke-width="0.8" stroke-miterlimit="10" stroke-linecap="round" stroke-linejoin="round"/>
<path d="M8.45536 4.47461H12.7915C13.1504 4.47461 13.4417 4.76553 13.4417 5.12486V8.70165C13.4417 9.06098 13.1504 9.35231 12.7915 9.35231H12.385V9.87782C12.385 10.0364 12.2563 10.1651 12.0973 10.1651C12.0213 10.1651 11.9481 10.1349 11.8941 10.081L11.1654 9.35231H6.369C6.01008 9.35231 5.71875 9.06098 5.71875 8.70165V5.12486C5.71875 4.76553 6.01008 4.47461 6.369 4.47461H7.04702" stroke="#18283D" stroke-width="0.8" stroke-miterlimit="10" stroke-linecap="round" stroke-linejoin="round"/>
<path d="M8.49989 17.2537C9.32825 17.2537 9.99977 16.5822 9.99977 15.7538C9.99977 14.9254 9.32825 14.2539 8.49989 14.2539C7.67152 14.2539 7 14.9254 7 15.7538C7 16.5822 7.67152 17.2537 8.49989 17.2537Z" stroke="#18283D" stroke-width="0.8" stroke-miterlimit="10" stroke-linecap="round" stroke-linejoin="round"/>
<path d="M6 19.9998V18.4999C6 17.8096 6.5596 17.25 7.24988 17.25H9.74969C10.44 17.25 10.9996 17.8096 10.9996 18.4999V19.9998H6Z" stroke="#18283D" stroke-width="0.8" stroke-miterlimit="10" stroke-linecap="round" stroke-linejoin="round"/>
<path d="M18.4999 17.2537C19.3282 17.2537 19.9998 16.5822 19.9998 15.7538C19.9998 14.9254 19.3282 14.2539 18.4999 14.2539C17.6715 14.2539 17 14.9254 17 15.7538C17 16.5822 17.6715 17.2537 18.4999 17.2537Z" stroke="#18283D" stroke-width="0.8" stroke-miterlimit="10" stroke-linecap="round" stroke-linejoin="round"/>
<path d="M19.6637 19.9999H20.9996V18.5002C20.9996 17.8097 20.4399 17.25 19.7498 17.25H17.2498C16.5597 17.25 16 17.8097 16 18.5002V19.9999H18.2554" stroke="#18283D" stroke-width="0.8" stroke-miterlimit="10" stroke-linecap="round" stroke-linejoin="round"/>
<path d="M13.4999 17.2537C14.3282 17.2537 14.9998 16.5822 14.9998 15.7538C14.9998 14.9254 14.3282 14.2539 13.4999 14.2539C12.6715 14.2539 12 14.9254 12 15.7538C12 16.5822 12.6715 17.2537 13.4999 17.2537Z" stroke="#18283D" stroke-width="0.8" stroke-miterlimit="10" stroke-linecap="round" stroke-linejoin="round"/>
<path d="M11 19.9998V18.4999C11 17.8096 11.5596 17.25 12.2499 17.25H14.7497C15.44 17.25 15.9996 17.8096 15.9996 18.4999V19.9998H11Z" stroke="#18283D" stroke-width="0.8" stroke-miterlimit="10" stroke-linecap="round" stroke-linejoin="round"/>
<path d="M3.49989 17.2537C4.32825 17.2537 4.99977 16.5822 4.99977 15.7538C4.99977 14.9254 4.32825 14.2539 3.49989 14.2539C2.67152 14.2539 2 14.9254 2 15.7538C2 16.5822 2.67152 17.2537 3.49989 17.2537Z" stroke="#18283D" stroke-width="0.8" stroke-miterlimit="10" stroke-linecap="round" stroke-linejoin="round"/>
<path d="M3.95994 19.9999H5.99962V18.5002C5.99962 17.8097 5.4399 17.25 4.74982 17.25H2.2498C1.55972 17.25 1 17.8097 1 18.5002V19.9999H2.55159" stroke="#18283D" stroke-width="0.8" stroke-miterlimit="10" stroke-linecap="round" stroke-linejoin="round"/>
<path d="M19.6975 6.45057C19.8677 7.01228 19.985 7.59698 20.0435 8.19888L19.6454 8.23762C19.6727 8.51802 19.6867 8.80243 19.6867 9.09022C19.6867 9.37801 19.6727 9.66241 19.6454 9.94281L20.0435 9.98156C19.985 10.5835 19.8677 11.1682 19.6975 11.7299L19.3147 11.6139C19.1482 12.1633 18.9288 12.6897 18.6623 13.1872L19.0149 13.3761C18.7327 13.9029 18.4001 14.3988 18.0236 14.8571L17.7145 14.6031C17.3531 15.043 16.9493 15.4468 16.5094 15.8083L16.7633 16.1173C16.305 16.4939 15.8092 16.8265 15.2823 17.1087L15.0935 16.7561C14.5959 17.0226 14.0695 17.242 13.5201 17.4084L13.6361 17.7913C13.0744 17.9614 12.4897 18.0787 11.8878 18.1373L11.8491 17.7392C11.5687 17.7665 11.2843 17.7804 10.9965 17.7804C10.7087 17.7804 10.4243 17.7665 10.1439 17.7392L10.1051 18.1373C9.50323 18.0787 8.91853 17.9614 8.35682 17.7913L8.47281 17.4084C7.92343 17.242 7.39701 17.0226 6.89947 16.7561L6.71061 17.1087C6.18375 16.8265 5.68793 16.4939 5.22961 16.1173L5.48354 15.8083C5.04364 15.4468 4.63985 15.043 4.27843 14.6031L3.96937 14.8571C3.5928 14.3988 3.26019 13.9029 2.978 13.3761L3.3306 13.1872C3.06411 12.6897 2.84469 12.1633 2.67825 11.6139L2.29543 11.7299C2.12525 11.1682 2.00797 10.5835 1.9494 9.98156L2.34751 9.94281C2.32023 9.66242 2.30625 9.37801 2.30625 9.09022C2.30625 8.80243 2.32023 8.51802 2.34751 8.23762L1.9494 8.19888C2.00797 7.59698 2.12525 7.01228 2.29543 6.45057L2.67825 6.56655C2.84469 6.01718 3.06411 5.49076 3.3306 4.99322L2.978 4.80436C3.26019 4.27749 3.5928 3.78168 3.96937 3.32336L4.27843 3.57729C4.63985 3.13739 5.04364 2.7336 5.48354 2.37218L5.22961 2.06311C5.68793 1.68655 6.18375 1.35394 6.71061 1.07175L6.89947 1.42435C7.39701 1.15786 7.92343 0.938443 8.47281 0.771998L8.35682 0.389182C8.91853 0.219 9.50323 0.101722 10.1051 0.0431451L10.1439 0.441264C10.4243 0.413976 10.7087 0.4 10.9965 0.4C11.2843 0.4 11.5687 0.413976 11.8491 0.441264L11.8878 0.043145C12.4897 0.101722 13.0744 0.219 13.6361 0.389182L13.5201 0.771998C14.0695 0.938443 14.5959 1.15786 15.0935 1.42435L15.2823 1.07175C15.8092 1.35394 16.305 1.68655 16.7633 2.06312L16.5094 2.37218C16.9493 2.7336 17.3531 3.13739 17.7145 3.57729L18.0236 3.32336C18.4001 3.78168 18.7327 4.2775 19.0149 4.80436L18.6623 4.99322C18.9288 5.49076 19.1482 6.01718 19.3147 6.56655L19.6975 6.45057Z" stroke="#18283D" stroke-width="0.8" stroke-dasharray="1.6 1.6"/>
</svg>
