<svg width="25" height="25" viewBox="0 0 25 25" fill="none" xmlns="http://www.w3.org/2000/svg">
<g clip-path="url(#clip0_14915_69408)">
<path d="M17.9408 11.0974V6.55547C17.9408 6.42547 17.8807 6.30535 17.7958 6.21032L12.7036 0.863098C12.6086 0.763122 12.4734 0.708008 12.3385 0.708008H4.26501C2.77453 0.708008 1.58398 1.92346 1.58398 3.41412V18.6805C1.58398 20.1712 2.77453 21.3667 4.26501 21.3667H10.6378C11.8432 23.3675 14.0342 24.708 16.5301 24.708C20.3217 24.708 23.418 21.6267 23.418 17.8302C23.4231 14.5138 21.042 11.7427 17.9408 11.0974ZM12.8387 2.4638L16.2551 6.06017H14.0392C13.3789 6.06017 12.8387 5.51507 12.8387 4.85479V2.4638ZM4.26501 20.3662C3.32971 20.3662 2.58447 19.6158 2.58447 18.6805V3.41412C2.58447 2.47369 3.32971 1.70849 4.26501 1.70849H11.8382V4.85479C11.8382 6.07024 12.8237 7.06066 14.0392 7.06066H16.9403V10.9672C16.7903 10.9623 16.6702 10.9473 16.5402 10.9473C14.7945 10.9473 13.1888 11.6176 11.9783 12.6681H5.62567C5.35046 12.6681 5.12542 12.8931 5.12542 13.1681C5.12542 13.4433 5.35046 13.6684 5.62567 13.6684H11.048C10.6927 14.1686 10.3976 14.6689 10.1676 15.2191H5.62567C5.35046 15.2191 5.12542 15.4441 5.12542 15.7193C5.12542 15.9944 5.35046 16.2196 5.62567 16.2196H9.8424C9.71733 16.7198 9.65233 17.275 9.65233 17.8302C9.65233 18.7305 9.82738 19.6209 10.1425 20.3713H4.26501V20.3662ZM16.5353 23.7126C13.2939 23.7126 10.6578 21.0764 10.6578 17.8351C10.6578 14.5938 13.2888 11.9576 16.5353 11.9576C19.7815 11.9576 22.4126 14.5938 22.4126 17.8351C22.4126 21.0764 19.7766 23.7126 16.5353 23.7126Z" fill="#1D5BBF"/>
<path d="M5.6272 11.1616H10.6943C10.9695 11.1616 11.1945 10.9364 11.1945 10.6614C11.1945 10.3862 10.9695 10.1611 10.6943 10.1611H5.6272C5.35199 10.1611 5.12695 10.3862 5.12695 10.6614C5.12695 10.9364 5.35199 11.1616 5.6272 11.1616Z" fill="#1D5BBF"/>
<path d="M16.8914 14.1415C16.7964 14.0415 16.6664 13.9814 16.5263 13.9814C16.3862 13.9814 16.2562 14.0415 16.1612 14.1415L13.2299 17.2878C13.0398 17.4879 13.0548 17.808 13.255 17.9931C13.4551 18.1832 13.7801 18.1681 13.9702 17.9682L16.0411 15.7523V21.2145C16.0411 21.4897 16.2661 21.7147 16.5413 21.7147C16.8164 21.7147 17.0416 21.4897 17.0416 21.2145V15.7523L19.0973 17.9682C19.1975 18.0731 19.3275 18.1282 19.4626 18.1282C19.5825 18.1282 19.7026 18.0832 19.8026 17.9931C20.0027 17.803 20.0178 17.4879 19.8277 17.2878L16.8914 14.1415Z" fill="#1D5BBF"/>
</g>
<defs>
<clipPath id="clip0_14915_69408">
<rect width="24" height="24" fill="white" transform="translate(0.505859 0.708008)"/>
</clipPath>
</defs>
</svg>
