<svg width="21" height="21" viewBox="0 0 21 21" fill="none" xmlns="http://www.w3.org/2000/svg">
<path fill-rule="evenodd" clip-rule="evenodd" d="M16.7506 8.68322L18.7086 10.571L15.7254 13.7086L13.3286 14.3523C13.2426 14.3691 13.2086 14.3346 13.2226 14.2537L13.7658 11.8208L16.7506 8.68322ZM11.9842 14.3479C12.277 14.3398 12.5218 14.5718 12.5298 14.865C12.5378 15.1582 12.3062 15.4029 12.0134 15.4109C11.4762 15.4258 11.1022 15.7057 10.9454 16.0366C10.8818 16.1708 10.855 16.3126 10.8694 16.442C10.8818 16.5517 10.9274 16.6547 11.0094 16.736C11.2466 16.9723 11.7614 17.0756 12.6314 16.8645C12.769 16.8309 13.0466 16.738 13.3946 16.6214C15.0462 16.0682 18.0806 15.052 18.5534 16.464C18.6458 16.742 18.4962 17.044 18.2182 17.1369C17.9406 17.2299 17.639 17.0796 17.5466 16.8017C17.4114 16.3975 15.0286 17.1954 13.7314 17.6296C13.3598 17.7542 13.063 17.8539 12.881 17.898C11.5922 18.2108 10.7346 17.9633 10.2602 17.4902C9.99704 17.2278 9.85064 16.9022 9.81224 16.5585C9.77544 16.2345 9.83584 15.8948 9.98384 15.5828C10.2946 14.9267 10.9982 14.3751 11.9842 14.3479ZM4.29904 9.47231C4.01624 9.47231 3.78704 9.24279 3.78704 8.9596C3.78704 8.67681 4.01624 8.44729 4.29904 8.44729H10.7458C11.0286 8.44729 11.2578 8.67681 11.2578 8.9596C11.2578 9.24279 11.0286 9.47231 10.7458 9.47231H4.29904ZM4.29904 12.7845C4.01624 12.7845 3.78704 12.5554 3.78704 12.2722C3.78704 11.989 4.01624 11.7595 4.29904 11.7595H10.1946C10.4774 11.7595 10.7062 11.989 10.7062 12.2722C10.7062 12.5554 10.4774 12.7845 10.1946 12.7845H4.29904ZM4.29904 16.0971C4.01624 16.0971 3.78704 15.8676 3.78704 15.5844C3.78704 15.3016 4.01624 15.0721 4.29904 15.0721H7.79944C8.08184 15.0721 8.31104 15.3016 8.31104 15.5844C8.31104 15.8676 8.08184 16.0971 7.79944 16.0971H4.29904ZM9.99664 1.89702V3.62902C10.0366 4.15294 10.219 4.56471 10.539 4.83869C10.8714 5.12269 11.3674 5.28211 12.0242 5.29372L13.515 5.29212L9.99664 1.89702ZM13.865 6.31674L12.0162 6.31474C11.1058 6.30032 10.3894 6.05518 9.87544 5.61577C9.34024 5.15753 9.03864 4.50703 8.97744 3.70192L8.97304 3.63142V1.4508H2.70065C1.86305 1.4508 1.17985 2.13495 1.17985 2.97371V18.3947C1.17985 19.2298 1.86625 19.9176 2.70065 19.9176H12.345C12.973 19.9176 13.5462 19.5178 13.7682 18.9302C13.867 18.6662 14.1622 18.5329 14.4258 18.6318C14.6894 18.7311 14.8226 19.0263 14.7234 19.2903C14.3506 20.2753 13.399 20.943 12.345 20.943H2.70065C1.30385 20.943 0.15625 19.793 0.15625 18.3947V2.97371C0.15625 1.57417 1.30305 0.425781 2.70065 0.425781H9.73824C9.88984 0.425781 10.0266 0.491873 10.1198 0.597219L14.7306 5.04578C14.8346 5.14592 14.887 5.2801 14.887 5.41429L14.8886 8.37839C14.8886 8.66159 14.6594 8.8911 14.377 8.8911C14.0942 8.8911 13.865 8.66159 13.865 8.37839V6.31674ZM18.6998 7.2981C18.609 7.21078 18.503 7.16992 18.3814 7.17152C18.2602 7.17353 18.1566 7.22119 18.0706 7.31092L17.3722 8.03912L19.3322 9.93375L20.0378 9.19833C20.1222 9.11301 20.1574 9.00206 20.1562 8.87989C20.1542 8.75972 20.111 8.65077 20.0258 8.56826L18.6998 7.2981ZM15.1034 13.5948L13.6334 13.9894C13.5802 13.9998 13.5594 13.9789 13.5686 13.9293L13.9014 12.4368L15.1034 13.5948Z" fill="#18283D"/>
</svg>
