<svg width="30" height="25" viewBox="0 0 30 25" fill="none" xmlns="http://www.w3.org/2000/svg">
<path d="M14.4821 12.2764C16.3844 11.1876 17.6842 9.16024 17.6842 6.8158C17.6842 3.33328 14.8509 0.5 11.3684 0.5C7.88588 0.5 5.0526 3.33328 5.0526 6.8158C5.0526 9.16024 6.35239 11.1876 8.2547 12.2764C3.49644 13.5257 0 17.5489 0 22.3173V23.8684C0 24.217 0.282967 24.5 0.631598 24.5C0.980229 24.5 1.2632 24.217 1.2632 23.8684V22.3173C1.26314 17.2533 5.79664 13.1316 11.3684 13.1316C16.9402 13.1316 21.4737 17.2533 21.4737 22.3173V23.8684C21.4737 24.217 21.7566 24.5 22.1053 24.5C22.4539 24.5 22.7369 24.217 22.7369 23.8684V22.3173C22.7368 17.5489 19.2404 13.5245 14.4821 12.2764ZM6.3158 6.8158C6.3158 4.0293 8.5819 1.7632 11.3684 1.7632C14.1549 1.7632 16.421 4.0293 16.421 6.8158C16.421 9.6023 14.1549 11.8684 11.3684 11.8684C8.5819 11.8684 6.3158 9.60236 6.3158 6.8158Z" fill="#18283D"/>
<path d="M22.9861 12.2938C24.3553 11.3882 25.2623 9.8395 25.2623 8.07995C25.2623 5.29345 22.9962 3.02734 20.2097 3.02734C19.8611 3.02734 19.5781 3.31031 19.5781 3.65894C19.5781 4.00757 19.8611 4.29054 20.2097 4.29054C22.299 4.29054 23.9992 5.99077 23.9992 8.08001C23.9992 10.1692 22.299 11.8695 20.2097 11.8695C19.8611 11.8695 19.5781 12.1524 19.5781 12.5011C19.5781 12.8497 19.861 13.1326 20.2097 13.1326C24.3894 13.1326 27.7886 16.274 27.7886 20.1367V21.343C27.7886 21.6917 28.0716 21.9746 28.4202 21.9746C28.7688 21.9746 29.0518 21.6917 29.0518 21.343V20.1367C29.0518 16.4862 26.5053 13.3852 22.9861 12.2938Z" fill="#18283D"/>
</svg>
