<svg width="20" height="19" viewBox="0 0 20 19" fill="none" xmlns="http://www.w3.org/2000/svg">
<path d="M20 15.8333V12.5C20 12.279 19.9122 12.067 19.7559 11.9107C19.5996 11.7545 19.3877 11.6667 19.1667 11.6667C18.9457 11.6667 18.7337 11.7545 18.5774 11.9107C18.4211 12.067 18.3333 12.279 18.3333 12.5V15.8333C18.3333 16.0543 18.2455 16.2663 18.0893 16.4226C17.933 16.5789 17.721 16.6667 17.5 16.6667H2.5C2.27899 16.6667 2.06702 16.5789 1.91074 16.4226C1.75446 16.2663 1.66667 16.0543 1.66667 15.8333V12.5C1.66667 12.279 1.57887 12.067 1.42259 11.9107C1.26631 11.7545 1.05435 11.6667 0.833333 11.6667C0.61232 11.6667 0.400358 11.7545 0.244078 11.9107C0.0877975 12.067 0 12.279 0 12.5V15.8333C0 16.4964 0.263392 17.1323 0.732233 17.6011C1.20107 18.0699 1.83696 18.3333 2.5 18.3333H17.5C18.163 18.3333 18.7989 18.0699 19.2678 17.6011C19.7366 17.1323 20 16.4964 20 15.8333ZM14.6833 11.4833L10.5167 14.8167C10.3695 14.9329 10.1875 14.9962 10 14.9962C9.81249 14.9962 9.63046 14.9329 9.48333 14.8167L5.31667 11.4833C5.16485 11.34 5.07235 11.145 5.05747 10.9367C5.0426 10.7285 5.10643 10.5222 5.23633 10.3588C5.36624 10.1954 5.55276 10.0866 5.75899 10.0542C5.96522 10.0217 6.17613 10.0678 6.35 10.1833L9.16667 12.4333V0.833333C9.16667 0.61232 9.25446 0.400358 9.41074 0.244078C9.56702 0.0877975 9.77899 0 10 0C10.221 0 10.433 0.0877975 10.5893 0.244078C10.7455 0.400358 10.8333 0.61232 10.8333 0.833333V12.4333L13.65 10.1833C13.7339 10.1041 13.8334 10.0432 13.9421 10.0044C14.0507 9.96567 14.1663 9.9499 14.2814 9.95812C14.3965 9.96634 14.5086 9.99838 14.6107 10.0522C14.7128 10.106 14.8026 10.1805 14.8744 10.2708C14.9462 10.3611 14.9984 10.4654 15.0278 10.577C15.0572 10.6886 15.0632 10.805 15.0452 10.919C15.0272 11.033 14.9858 11.142 14.9235 11.2392C14.8612 11.3363 14.7794 11.4195 14.6833 11.4833Z" fill="#18283D" style="fill:#18283D;fill:color(display-p3 0.0941 0.1569 0.2392);fill-opacity:1;"/>
</svg>
