<svg width="25" height="25" viewBox="0 0 25 25" fill="none" xmlns="http://www.w3.org/2000/svg">
<circle cx="12.5059" cy="12.708" r="12" fill="#1D5BBF"/>
<path d="M19.5968 15.8714V13.6896C19.5968 13.545 19.5393 13.4062 19.437 13.3039C19.3347 13.2016 19.196 13.1442 19.0513 13.1442C18.9067 13.1442 18.7679 13.2016 18.6656 13.3039C18.5633 13.4062 18.5059 13.545 18.5059 13.6896V15.8714C18.5059 16.0161 18.4484 16.1549 18.3461 16.2571C18.2438 16.3594 18.1051 16.4169 17.9604 16.4169H8.14222C7.99756 16.4169 7.85882 16.3594 7.75653 16.2571C7.65424 16.1549 7.59677 16.0161 7.59677 15.8714V13.6896C7.59677 13.545 7.5393 13.4062 7.43701 13.3039C7.33472 13.2016 7.19598 13.1442 7.05131 13.1442C6.90665 13.1442 6.76791 13.2016 6.66562 13.3039C6.56333 13.4062 6.50586 13.545 6.50586 13.6896V15.8714C6.50586 16.3054 6.67826 16.7217 6.98514 17.0285C7.29202 17.3354 7.70823 17.5078 8.14222 17.5078H17.9604C18.3944 17.5078 18.8106 17.3354 19.1175 17.0285C19.4244 16.7217 19.5968 16.3054 19.5968 15.8714ZM16.1168 13.0242L13.3895 15.206C13.2932 15.2821 13.174 15.3235 13.0513 15.3235C12.9286 15.3235 12.8094 15.2821 12.7131 15.206L9.98586 13.0242C9.88649 12.9304 9.82594 12.8027 9.81621 12.6664C9.80647 12.5301 9.84825 12.3951 9.93328 12.2881C10.0183 12.1811 10.1404 12.11 10.2754 12.0887C10.4104 12.0674 10.5484 12.0976 10.6622 12.1733L12.5059 13.646V6.05327C12.5059 5.9086 12.5633 5.76987 12.6656 5.66757C12.7679 5.56528 12.9067 5.50781 13.0513 5.50781C13.196 5.50781 13.3347 5.56528 13.437 5.66757C13.5393 5.76987 13.5968 5.9086 13.5968 6.05327V13.646L15.4404 12.1733C15.4953 12.1214 15.5604 12.0815 15.6316 12.0562C15.7027 12.0308 15.7783 12.0205 15.8537 12.0259C15.929 12.0312 16.0024 12.0522 16.0692 12.0874C16.136 12.1227 16.1948 12.1714 16.2418 12.2305C16.2888 12.2896 16.323 12.3579 16.3423 12.4309C16.3615 12.504 16.3654 12.5802 16.3536 12.6548C16.3419 12.7294 16.3147 12.8008 16.274 12.8644C16.2332 12.9279 16.1797 12.9824 16.1168 13.0242Z" fill="white"/>
</svg>
