<svg width="25" height="26" viewBox="0 0 25 26" fill="none" xmlns="http://www.w3.org/2000/svg">
<circle cx="12.5" cy="13" r="12.5" fill="#FFF2B3"/>
<path fill-rule="evenodd" clip-rule="evenodd" d="M5.71875 18.8748V17.159C5.71875 15.8168 7.27155 14.6098 8.75641 14.2627C9.08468 14.186 9.41568 14.1215 9.74546 14.0508H14.5492C14.8788 14.1215 15.21 14.186 15.5382 14.2627C17.0231 14.6098 18.5759 15.8168 18.5759 17.159V18.8748C16.8823 20.4266 14.6255 21.374 12.1473 21.374C9.66915 21.374 7.4123 20.4266 5.71875 18.8748Z" fill="#18283D"/>
<path fill-rule="evenodd" clip-rule="evenodd" d="M13.652 12.8594L14.5495 14.048L13.6372 16.4418L12.8438 15.4877C13.2561 14.6417 13.5831 13.7226 13.652 12.8594Z" fill="#2F4057"/>
<path fill-rule="evenodd" clip-rule="evenodd" d="M10.6475 12.8594L9.75 14.048L10.6623 16.4418L11.4557 15.4877C11.0434 14.6417 10.7163 13.7226 10.6475 12.8594Z" fill="#2F4057"/>
<path fill-rule="evenodd" clip-rule="evenodd" d="M12.1475 16.7454C12.8708 15.5771 13.6097 14.05 13.6623 12.6875H10.6328C10.6855 14.05 11.4243 15.577 12.1475 16.7454Z" fill="white"/>
<path fill-rule="evenodd" clip-rule="evenodd" d="M13.6027 13.2618C13.6344 13.0682 13.6549 12.8762 13.6623 12.6875H10.6328C10.6401 12.8762 10.6607 13.0682 10.6924 13.2618C11.1035 13.578 11.6497 13.881 12.1475 13.881C12.6453 13.881 13.1916 13.578 13.6027 13.2618Z" fill="#D9E4F2"/>
<path fill-rule="evenodd" clip-rule="evenodd" d="M12.1476 13.3539C12.6699 13.3539 13.2454 13.0205 13.6623 12.6881C14.1146 12.3275 14.4628 11.8832 14.4914 11.4946C14.5507 10.6893 14.5839 9.87449 14.5417 9.15795V7.5625H9.75338V9.15795C9.71118 9.87449 9.74424 10.6893 9.80365 11.4946C9.83228 11.8832 10.1805 12.3275 10.6328 12.6881C11.0498 13.0205 11.6253 13.3539 12.1475 13.3539H12.1476Z" fill="white"/>
<path fill-rule="evenodd" clip-rule="evenodd" d="M14.3438 11.1953C14.3459 10.5511 14.3479 9.90704 14.35 9.26286H14.5442C15.1163 8.91632 15.6187 9.29241 15.6315 10.0345C15.6438 10.7506 15.0662 11.2909 14.5089 11.1954H14.3439L14.3438 11.1953Z" fill="white"/>
<path fill-rule="evenodd" clip-rule="evenodd" d="M9.95201 11.1953C9.94988 10.5511 9.9479 9.90704 9.94577 9.26286H9.75155C9.17942 8.91632 8.67705 9.29241 8.66426 10.0345C8.65192 10.7506 9.22953 11.2909 9.78689 11.1954H9.95186L9.95201 11.1953Z" fill="white"/>
<path fill-rule="evenodd" clip-rule="evenodd" d="M15.3834 7.9887C15.3768 8.39709 15.3462 8.80471 15.2798 9.22802C14.9311 9.25757 14.9715 9.59695 14.9436 10.3129C14.9339 10.5642 14.5919 10.7024 14.552 10.3822C14.5352 10.3654 14.5493 9.28545 14.5416 9.15704C14.5416 8.62938 14.3783 8.08924 14.1397 7.7625H10.1554C9.91675 8.08909 9.75345 8.62938 9.75345 9.15704C9.74584 9.28545 9.75985 10.3654 9.74309 10.3822C9.70319 10.7024 9.36122 10.5642 9.35147 10.3129C9.32359 9.59695 9.36411 9.25757 9.01529 9.22802C8.94887 8.80471 8.91826 8.39709 8.91171 7.9887C8.90302 7.4513 8.85672 7.48938 8.61025 6.98717C8.14003 6.02889 8.17765 5.36308 8.56181 4.78516C9.57219 5.6269 11.0147 4.78516 12.1477 4.78516C13.6499 4.78516 15.4172 5.91556 15.3835 7.98886L15.3834 7.9887Z" fill="#18283D"/>
</svg>
