<svg width="17" height="17" viewBox="0 0 17 17" fill="none" xmlns="http://www.w3.org/2000/svg">
<path d="M12.8639 8.11958C12.4895 8.11958 12.1869 8.42294 12.1869 8.79659V14.213C12.1869 14.5861 11.8836 14.8901 11.5099 14.8901H2.03115C1.65738 14.8901 1.35414 14.5861 1.35414 14.213V4.73428C1.35414 4.36125 1.65738 4.05727 2.03115 4.05727H7.44761C7.822 4.05727 8.12462 3.75391 8.12462 3.38026C8.12462 3.00648 7.822 2.70312 7.44761 2.70312H2.03115C0.911317 2.70312 0 3.61444 0 4.73428V14.213C0 15.3329 0.911317 16.2442 2.03115 16.2442H11.5099C12.6298 16.2442 13.5411 15.3329 13.5411 14.213V8.79659C13.5411 8.42219 13.2383 8.11958 12.8639 8.11958Z" fill="#18283D"/>
<path d="M6.3436 7.50526C6.29624 7.55262 6.26438 7.61287 6.25087 7.67783L5.77221 10.072C5.7499 10.1829 5.78511 10.2974 5.86495 10.3779C5.92929 10.4423 6.01594 10.4767 6.10471 10.4767C6.12628 10.4767 6.14872 10.4748 6.17103 10.47L8.56443 9.99139C8.63076 9.97776 8.69101 9.94602 8.73774 9.89854L14.0946 4.54171L11.7012 2.14844L6.3436 7.50526Z" fill="#18283D"/>
<path d="M15.7527 0.495184C15.0926 -0.165061 14.0186 -0.165061 13.359 0.495184L12.4219 1.4323L14.8156 3.82605L15.7527 2.88881C16.0724 2.56991 16.2484 2.14462 16.2484 1.69231C16.2484 1.23999 16.0724 0.814706 15.7527 0.495184Z" fill="#18283D"/>
</svg>
