<svg width="19" height="19" viewBox="0 0 19 19" fill="none" xmlns="http://www.w3.org/2000/svg">
<mask id="mask0_600_12513" style="mask-type:luminance" maskUnits="userSpaceOnUse" x="0" y="0" width="19" height="19">
<path d="M0 0H19V19H0V0Z" fill="white" style="fill:white;fill-opacity:1;"/>
</mask>
<g mask="url(#mask0_600_12513)">
<path d="M10.2031 3.60156H2.03906C1.21924 3.60156 0.554688 4.26612 0.554688 5.08594V16.9609C0.554688 17.7808 1.21924 18.4453 2.03906 18.4453H13.9141C14.7339 18.4453 15.3984 17.7808 15.3984 16.9609V8.79688" stroke="white" style="stroke:white;stroke-opacity:1;" stroke-width="1.2" stroke-miterlimit="10" stroke-linecap="round" stroke-linejoin="round"/>
<path d="M9.82717 11.272L18.2241 2.87519C18.5139 2.58533 18.5139 2.11541 18.2241 1.82558L17.1744 0.775947C16.8846 0.486122 16.4146 0.486122 16.1248 0.775947L7.72793 9.17283L7.20312 11.7969L9.82717 11.272Z" stroke="white" style="stroke:white;stroke-opacity:1;" stroke-width="1.2" stroke-miterlimit="10" stroke-linecap="round" stroke-linejoin="round"/>
<path d="M15.0742 1.82658L17.1734 3.92578Z" fill="white" style="fill:white;fill-opacity:1;"/>
<path d="M15.0742 1.82658L17.1734 3.92578" stroke="white" style="stroke:white;stroke-opacity:1;" stroke-width="1.2" stroke-miterlimit="10" stroke-linecap="round" stroke-linejoin="round"/>
</g>
</svg>
