<svg width="79" height="79" viewBox="0 0 79 79" fill="none" xmlns="http://www.w3.org/2000/svg">
<g clip-path="url(#clip0_397_24877)">
<path d="M68.6962 30.9133L39.5007 49.8045L10.3051 30.9133V1.71768C10.285 0.789326 11.0212 0.0205285 11.9496 0.000402951C11.9739 -8.00633e-05 11.9982 -8.00633e-05 12.0225 0.000402951H66.9787C67.9071 -0.0197226 68.676 0.716552 68.6962 1.6449C68.6967 1.66922 68.6967 1.69353 68.6962 1.71784V30.9133Z" fill="#F1F2F2"/>
<path d="M10.3043 30.9122L0 24.0426L10.3043 13.7383V30.9122Z" fill="#E35C4A"/>
<path d="M78.9996 24.0426L68.6953 30.9122V13.7383L78.9996 24.0426Z" fill="#F6B445"/>
<path d="M68.6937 30.758L78.998 24.043V72.1297C78.9948 73.9514 78.2726 75.6979 76.9886 76.99L65.259 65.2603L46.3676 46.369L45.8867 45.6305L68.6937 30.758Z" fill="#FE634E"/>
<path d="M65.2591 65.2625L76.9888 76.9922C75.6968 78.2762 73.9502 78.9983 72.1286 79.0015H6.86806C5.04645 78.9983 3.29988 78.2762 2.00781 76.9922L13.7375 65.2625L32.6286 46.3713L33.1096 45.6328L39.4982 49.8061L45.8869 45.6328L46.3678 46.3713L65.2591 65.2625Z" fill="#E35C4A"/>
<path d="M33.1111 45.6305L32.6302 46.369L13.739 65.2602L2.00934 76.9898C0.725326 75.6978 0.00322009 73.9512 0 72.1296V24.043L33.1111 45.6305Z" fill="#FE634E"/>
<path d="M58.3898 41.2172C69.7717 41.2172 78.9984 31.9904 78.9984 20.6086C78.9984 9.22678 69.7717 0 58.3898 0C47.008 0 37.7812 9.22678 37.7812 20.6086C37.7812 31.9904 47.008 41.2172 58.3898 41.2172Z" fill="#49AAEE"/>
<path d="M58.3896 30.9113C57.4411 30.9113 56.6721 30.1424 56.6721 29.1939V16.9454L54.1906 18.6011C53.4015 19.1275 52.335 18.9145 51.8085 18.1253C51.282 17.3362 51.495 16.2697 52.2843 15.7432L57.4364 12.3085C58.2253 11.782 59.2918 11.995 59.8182 12.784C60.0065 13.0662 60.107 13.398 60.107 13.7374V29.1939C60.107 30.1424 59.338 30.9113 58.3896 30.9113Z" fill="#F1F2F2"/>
</g>
<defs>
<clipPath id="clip0_397_24877">
<rect width="79" height="79" fill="white"/>
</clipPath>
</defs>
</svg>
