<svg width="24" height="24" viewBox="0 0 24 24" fill="none" xmlns="http://www.w3.org/2000/svg">
<path d="M12 0C5.38317 0 0 5.38317 0 12C0 18.6168 5.38317 24 12 24C18.6168 24 24 18.6168 24 12C24 5.38317 18.6168 0 12 0ZM12 22.875C6.00352 22.875 1.125 17.9965 1.125 12C1.125 6.00352 6.00352 1.125 12 1.125C17.9965 1.125 22.875 6.00352 22.875 12C22.875 17.9965 17.9965 22.875 12 22.875ZM17.6396 7.05469H6.36033C5.60592 7.05469 4.99214 7.66847 4.99214 8.42288V15.5772C4.99214 16.3316 5.60588 16.9454 6.36033 16.9454H17.6396C18.394 16.9454 19.0078 16.3316 19.0078 15.5772V8.42288C19.0078 7.66847 18.394 7.05469 17.6396 7.05469ZM16.7917 8.17969L12 11.9849L7.20825 8.17969H16.7917ZM17.6396 15.8203H6.36033C6.22627 15.8203 6.11714 15.7112 6.11714 15.5771V8.74978L11.6502 13.1436C11.7526 13.2249 11.8763 13.2656 12 13.2656C12.1236 13.2656 12.2474 13.225 12.3497 13.1436L17.8828 8.74978V15.5771C17.8828 15.7112 17.7737 15.8203 17.6396 15.8203Z" fill="#00AEBD"/>
</svg>
