<svg width="22" height="22" viewBox="0 0 22 22" fill="none" xmlns="http://www.w3.org/2000/svg">
<path fill-rule="evenodd" clip-rule="evenodd" d="M2.57447 22C1.15264 22 0 20.8473 0 19.4255V2.57447C0 1.15264 1.15264 0 2.57447 0H19.1915C20.6133 0 21.766 1.15264 21.766 2.57447V19.4255C21.766 20.8473 20.6133 22 19.1915 22H2.57447ZM20.3617 5.61702V2.57447C20.3617 1.92818 19.8377 1.40426 19.1915 1.40426H2.57447C1.92818 1.40426 1.40426 1.92818 1.40426 2.57447V5.61702H20.3617ZM1.40426 7.02128H20.3617V19.4255C20.3617 20.0717 19.8377 20.5957 19.1915 20.5957H2.57447C1.92818 20.5957 1.40426 20.0717 1.40426 19.4255V7.02128ZM5.61702 3.51064C5.61702 4.02766 5.19787 4.44681 4.68085 4.44681C4.16383 4.44681 3.74468 4.02766 3.74468 3.51064C3.74468 2.99361 4.16383 2.57447 4.68085 2.57447C5.19787 2.57447 5.61702 2.99361 5.61702 3.51064ZM17.3191 4.44681C17.8362 4.44681 18.2553 4.02766 18.2553 3.51064C18.2553 2.99361 17.8362 2.57447 17.3191 2.57447C16.8021 2.57447 16.383 2.99361 16.383 3.51064C16.383 4.02766 16.8021 4.44681 17.3191 4.44681ZM6.86065 13.7282C6.86065 13.3404 7.17502 13.0261 7.56278 13.0261H9.98358V10.6054C9.98358 10.2176 10.2979 9.90323 10.6857 9.90323C11.0735 9.90323 11.3878 10.2176 11.3878 10.6054V13.0261H13.8085C14.1963 13.0261 14.5106 13.3404 14.5106 13.7282C14.5106 14.116 14.1963 14.4303 13.8085 14.4303H11.3878V16.8511C11.3878 17.2388 11.0735 17.5532 10.6857 17.5532C10.2979 17.5532 9.98358 17.2388 9.98358 16.8511V14.4303H7.56278C7.17502 14.4303 6.86065 14.116 6.86065 13.7282Z" fill="#18283D" style="fill:#18283D;fill:color(display-p3 0.0941 0.1569 0.2392);fill-opacity:1;"/>
</svg>
