<svg width="27" height="20" viewBox="0 0 27 20" fill="none" xmlns="http://www.w3.org/2000/svg">
<path d="M0.198379 9.09C1.17393 6.95667 4.99949 0 13.3328 0C21.6662 0 25.4917 6.95667 26.4673 9.09C26.5982 9.37589 26.666 9.68665 26.666 10.0011C26.666 10.3156 26.5982 10.6263 26.4673 10.9122C25.4917 13.0433 21.6662 20 13.3328 20C4.99949 20 1.17393 13.0433 0.198379 10.91C0.0676811 10.6244 2.93521e-05 10.3141 2.93521e-05 10C2.93521e-05 9.68594 0.0676811 9.37557 0.198379 9.09ZM13.3328 17.7778C20.3406 17.7778 23.6106 11.8156 24.4439 10.0122C23.6106 8.18444 20.3406 2.22222 13.3328 2.22222C6.34171 2.22222 3.0706 8.15889 2.22171 10C3.0706 11.8411 6.34171 17.7778 13.3328 17.7778Z" fill="#1D5BBF" style="fill:#1D5BBF;fill:color(display-p3 0.1137 0.3569 0.7490);fill-opacity:1;"/>
<path d="M13.3331 4.44531C14.4319 4.44531 15.506 4.77114 16.4196 5.38159C17.3332 5.99204 18.0453 6.8597 18.4658 7.87485C18.8863 8.89 18.9963 10.007 18.7819 11.0847C18.5676 12.1624 18.0384 13.1523 17.2615 13.9292C16.4845 14.7062 15.4946 15.2353 14.4169 15.4497C13.3393 15.664 12.2222 15.554 11.2071 15.1335C10.1919 14.713 9.32429 14.001 8.71384 13.0874C8.10339 12.1738 7.77756 11.0997 7.77756 10.0009C7.77932 8.52799 8.3652 7.11593 9.40669 6.07445C10.4482 5.03296 11.8602 4.44708 13.3331 4.44531ZM13.3331 13.3342C13.9924 13.3342 14.6369 13.1387 15.185 12.7724C15.7332 12.4062 16.1604 11.8856 16.4127 11.2765C16.665 10.6674 16.731 9.99717 16.6024 9.35057C16.4738 8.70396 16.1563 8.11002 15.6901 7.64385C15.224 7.17767 14.63 6.8602 13.9834 6.73158C13.3368 6.60297 12.6666 6.66898 12.0575 6.92127C11.4484 7.17356 10.9278 7.6008 10.5615 8.14897C10.1953 8.69713 9.99978 9.3416 9.99978 10.0009C9.99978 10.8849 10.351 11.7328 10.9761 12.3579C11.6012 12.983 12.4491 13.3342 13.3331 13.3342Z" fill="#1D5BBF" style="fill:#1D5BBF;fill:color(display-p3 0.1137 0.3569 0.7490);fill-opacity:1;"/>
</svg>
