<svg width="23" height="14" viewBox="0 0 23 14" fill="none" xmlns="http://www.w3.org/2000/svg">
<path d="M22.0745 6.51286C21.8806 6.24759 17.2601 0.0175781 11.359 0.0175781C5.45794 0.0175781 0.837309 6.24759 0.643603 6.51261C0.459945 6.76427 0.459945 7.1056 0.643603 7.35726C0.837309 7.62253 5.45794 13.8525 11.359 13.8525C17.2601 13.8525 21.8806 7.62249 22.0745 7.35747C22.2584 7.10585 22.2584 6.76427 22.0745 6.51286ZM11.359 12.4213C7.01225 12.4213 3.24747 8.28636 2.13301 6.93457C3.24602 5.5816 7.00292 1.44877 11.359 1.44877C15.7056 1.44877 19.4702 5.58304 20.5851 6.93555C19.4721 8.28848 15.7152 12.4213 11.359 12.4213Z" fill="#18283D"/>
<path d="M11.3591 2.6416C8.9916 2.6416 7.06543 4.56777 7.06543 6.93523C7.06543 9.30269 8.9916 11.2289 11.3591 11.2289C13.7265 11.2289 15.6527 9.30269 15.6527 6.93523C15.6527 4.56777 13.7265 2.6416 11.3591 2.6416ZM11.3591 9.79762C9.78066 9.79762 8.49667 8.51358 8.49667 6.93523C8.49667 5.35688 9.78071 4.07284 11.3591 4.07284C12.9374 4.07284 14.2214 5.35688 14.2214 6.93523C14.2214 8.51358 12.9375 9.79762 11.3591 9.79762Z" fill="#18283D"/>
</svg>
