<svg width="25" height="25" viewBox="0 0 25 25" fill="none" xmlns="http://www.w3.org/2000/svg">
<path d="M20.9961 0H4.00391C1.79261 0 0 1.79261 0 4.00391V20.9961C0 23.2074 1.79261 25 4.00391 25H20.9961C23.2074 25 25 23.2074 25 20.9961V4.00391C25 1.79261 23.2074 0 20.9961 0Z" fill="#1D5BBF"/>
<path d="M18.3594 0H4.00391C1.79261 0 0 1.79261 0 4.00391V20.9961C0 23.2074 1.79261 25 4.00391 25H18.3594C20.5707 25 22.3633 23.2074 22.3633 20.9961V4.00391C22.3633 1.79261 20.5707 0 18.3594 0Z" fill="#CFE1FE"/>
<path d="M19.7392 12.4998C19.7392 12.7588 19.6363 13.0072 19.4531 13.1904C19.27 13.3735 19.0216 13.4764 18.7626 13.4764H8.28897L11.2943 16.4818C11.4612 16.6494 11.5616 16.872 11.5768 17.108C11.5919 17.3441 11.5209 17.5777 11.3769 17.7653C11.2328 17.953 11.0256 18.082 10.7936 18.1283C10.5616 18.1747 10.3207 18.1353 10.1156 18.0174C10.0416 17.9752 9.97359 17.9231 9.91348 17.8626L5.76309 13.7122C5.44202 13.3902 5.26172 12.9541 5.26172 12.4994C5.26172 12.0446 5.44202 11.6085 5.76309 11.2865L9.91348 7.13607C9.97386 7.07579 10.0418 7.0236 10.1156 6.9808C10.3208 6.86211 10.5622 6.82214 10.7948 6.86832C11.0273 6.91451 11.2351 7.0437 11.3794 7.2318C11.5237 7.4199 11.5946 7.65407 11.5789 7.89062C11.5633 8.12717 11.4621 8.34996 11.2943 8.51742L8.28897 11.5233H18.7626C19.0216 11.5233 19.27 11.6262 19.4531 11.8093C19.6363 11.9924 19.7392 12.2408 19.7392 12.4998Z" fill="#1D5BBF"/>
</svg>
