<svg width="20" height="21" viewBox="0 0 20 21" fill="none" xmlns="http://www.w3.org/2000/svg">
<path d="M3.7104 17.2572C3.31612 17.2572 2.99612 16.9379 2.99612 16.5429V4.67578H1.42969V18.8236H15.5775V17.2572H3.7104Z" fill="white"/>
<path d="M4.42188 15.8315H18.5697V1.68359H4.42188V15.8315ZM15.3904 13.365H7.60188C7.20759 13.365 6.88759 13.0457 6.88759 12.6507C6.88759 12.2557 7.20759 11.9365 7.60188 11.9365H15.3904C15.7854 11.9365 16.1047 12.2557 16.1047 12.6507C16.1047 13.0457 15.7854 13.365 15.3904 13.365ZM15.3904 9.47145H7.60188C7.20759 9.47145 6.88759 9.15145 6.88759 8.75717C6.88759 8.36288 7.20759 8.04288 7.60188 8.04288H15.3904C15.7854 8.04288 16.1047 8.36288 16.1047 8.75717C16.1047 9.15145 15.7854 9.47145 15.3904 9.47145ZM15.3904 5.57788H7.60188C7.20759 5.57788 6.88759 5.25788 6.88759 4.86359C6.88759 4.46931 7.20759 4.14931 7.60188 4.14931H15.3904C15.7854 4.14931 16.1047 4.46931 16.1047 4.86359C16.1047 5.25788 15.7854 5.57788 15.3904 5.57788Z" fill="white"/>
<path d="M19.2857 0.253906H3.70929C3.315 0.253906 2.995 0.573906 2.995 0.968192V3.24891H0.714286C0.32 3.24891 0 3.56891 0 3.96319V19.5396C0 19.9346 0.32 20.2539 0.714286 20.2539H16.2907C16.6857 20.2539 17.005 19.9346 17.005 19.5396V17.2589H19.2857C19.6807 17.2589 20 16.9396 20 16.5446V0.968192C20 0.573906 19.6807 0.253906 19.2857 0.253906ZM18.5714 15.8303H4.42357V1.68248H18.5714V15.8303ZM1.42857 18.8253V4.67748H2.995V16.5439C2.995 16.9389 3.315 17.2582 3.70929 17.2582H15.5757V18.8253H1.42857Z" fill="#18283D"/>
<path d="M15.3935 4.14844H7.60491C7.21062 4.14844 6.89062 4.46844 6.89062 4.86272C6.89062 5.25701 7.21062 5.57701 7.60491 5.57701H15.3935C15.7885 5.57701 16.1078 5.25701 16.1078 4.86272C16.1078 4.46844 15.7885 4.14844 15.3935 4.14844Z" fill="#18283D"/>
<path d="M15.3935 8.04297H7.60491C7.21062 8.04297 6.89062 8.36297 6.89062 8.75725C6.89062 9.15154 7.21062 9.47154 7.60491 9.47154H15.3935C15.7885 9.47154 16.1078 9.15154 16.1078 8.75725C16.1078 8.36297 15.7885 8.04297 15.3935 8.04297Z" fill="#18283D"/>
<path d="M15.3935 11.9336H7.60491C7.21062 11.9336 6.89062 12.2529 6.89062 12.6479C6.89062 13.0429 7.21062 13.3622 7.60491 13.3622H15.3935C15.7885 13.3622 16.1078 13.0429 16.1078 12.6479C16.1078 12.2529 15.7885 11.9336 15.3935 11.9336Z" fill="#18283D"/>
</svg>
