<svg width="20" height="20" viewBox="0 0 20 20" fill="none" xmlns="http://www.w3.org/2000/svg">
<path d="M12.6945 8.56845C12.6945 8.23512 12.4242 7.96484 12.0909 7.96484H5.45126C5.11794 7.96484 4.84766 8.23512 4.84766 8.56845C4.84766 8.90177 5.11794 9.17205 5.45126 9.17205H12.0909C12.4242 9.17205 12.6945 8.90177 12.6945 8.56845Z" fill="#18283D"/>
<path d="M5.45126 11.0156C5.11794 11.0156 4.84766 11.2859 4.84766 11.6192C4.84766 11.9526 5.11794 12.2228 5.45126 12.2228H8.97161C9.30493 12.2228 9.57521 11.9526 9.57521 11.6192C9.57521 11.2859 9.30493 11.0156 8.97161 11.0156H5.45126Z" fill="#18283D"/>
<path d="M16.6729 8.60297C16.3395 8.60297 16.0692 8.87325 16.0692 9.20657V14.0884C16.0692 15.0018 15.3261 15.7449 14.4127 15.7449H10.3753C10.2445 15.7449 10.1171 15.7872 10.0124 15.8663L6.52629 18.488C6.43776 18.5544 6.3546 18.5269 6.31301 18.5041C6.27076 18.4826 6.20101 18.4296 6.2037 18.3216L6.27076 16.37C6.27613 16.2064 6.2151 16.0474 6.10175 15.93C5.98841 15.812 5.83147 15.7456 5.66783 15.7456H2.86376C1.95031 15.7456 1.20721 15.0032 1.20721 14.089V6.10808C1.20721 5.19127 1.95031 4.44549 2.86376 4.44549H10.3015C10.6348 4.44549 10.9051 4.17521 10.9051 3.84188C10.9051 3.50856 10.6348 3.23828 10.3015 3.23828H2.86376C1.285 3.23828 0 4.52597 0 6.10875V14.089C0 15.6678 1.285 16.9535 2.86376 16.9535H5.04277L4.99716 18.2827C4.98106 18.8287 5.27146 19.325 5.75636 19.5765C5.9636 19.6844 6.18693 19.7374 6.40825 19.7374C6.70536 19.7374 6.99978 19.6415 7.25061 19.4544L10.5765 16.9535H14.412C15.9908 16.9535 17.2758 15.6685 17.2758 14.089V9.20724C17.2765 8.87325 17.0062 8.60297 16.6729 8.60297Z" fill="#18283D"/>
<path d="M19.934 2.85219C19.8247 2.51686 19.5558 2.26603 19.2144 2.18152L17.6719 1.79723L16.8295 0.449181C16.456 -0.150398 15.4808 -0.149056 15.1079 0.449181L14.2655 1.79723L12.723 2.18152C12.3816 2.26603 12.112 2.51686 12.0034 2.85219C11.8947 3.18753 11.9645 3.54902 12.1912 3.8193L13.2133 5.03589L13.1019 6.62136C13.0771 6.97279 13.2327 7.30611 13.5177 7.51335C13.6948 7.64212 13.9027 7.70851 14.1133 7.70851C14.2414 7.70851 14.3708 7.6837 14.4949 7.6334L15.969 7.03784L17.4425 7.6334C17.7691 7.76619 18.134 7.72058 18.4197 7.51402C18.7047 7.30678 18.8603 6.97346 18.8362 6.62136L18.7248 5.03589L19.7469 3.81863C19.9729 3.54902 20.0434 3.18753 19.934 2.85219ZM17.643 4.44637C17.5424 4.56642 17.4921 4.72068 17.5035 4.87761L17.6108 6.40003L16.1957 5.82795C16.1233 5.79844 16.0462 5.78369 15.9697 5.78369C15.8933 5.78369 15.8161 5.79844 15.7437 5.82795L14.3293 6.40003L14.4359 4.87761C14.4466 4.72135 14.3963 4.56642 14.2964 4.44637L13.3152 3.27807L14.796 2.90853C14.9476 2.8703 15.0791 2.77574 15.1616 2.64294L15.9704 1.34922L16.7792 2.64294C16.8624 2.77574 16.9932 2.87097 17.1447 2.90853L18.6256 3.27807L17.643 4.44637Z" fill="#18283D"/>
</svg>
