<svg width="20" height="20" viewBox="0 0 20 20" fill="none" xmlns="http://www.w3.org/2000/svg">
<path d="M15.7299 20C15.6304 20 15.5283 19.9753 15.4354 19.9274L9.96013 17.045L4.46657 19.8781C4.37492 19.926 4.27542 19.9493 4.17592 19.9493C4.03976 19.9493 3.90491 19.9055 3.7897 19.8164C3.59331 19.6657 3.4938 19.4123 3.52915 19.1602L4.45872 12.8228L0.18405 8.22796C0.0151582 8.04439 -0.0437547 7.77861 0.0334903 7.53476C0.109426 7.29228 0.307127 7.11419 0.549336 7.07309L6.59801 6.04014L9.44953 0.367151C9.56212 0.142478 9.786 0 10.0282 0H10.0308C10.2757 0.00136996 10.4969 0.143845 10.6095 0.371258L13.4165 6.07165L19.456 7.15665C19.6969 7.19912 19.8933 7.37859 19.9679 7.62244C20.0439 7.86629 19.9823 8.13206 19.8108 8.31289L15.5008 12.8694L16.3767 19.2136C16.4107 19.4671 16.3086 19.7178 16.1109 19.8685C15.9983 19.9575 15.8648 20 15.7299 20Z" fill="#1D5BBF"/>
</svg>
