<svg width="15" height="15" viewBox="0 0 15 15" fill="none" xmlns="http://www.w3.org/2000/svg">
<path d="M11.4119 14.5098C11.3397 14.5098 11.2656 14.4919 11.1982 14.4571L7.22598 12.366L3.24045 14.4213C3.17396 14.4561 3.10178 14.473 3.02959 14.473C2.9308 14.473 2.83297 14.4412 2.74939 14.3766C2.60691 14.2673 2.53472 14.0834 2.56036 13.9005L3.23476 9.30281L0.133526 5.9693C0.0109971 5.83612 -0.0317436 5.64331 0.0242969 5.4664C0.0793875 5.29048 0.222818 5.16127 0.398538 5.13146L4.78679 4.38206L6.85554 0.266364C6.93722 0.103366 7.09965 0 7.27537 0H7.27727C7.45489 0.00099389 7.61541 0.104358 7.6971 0.269344L9.73355 4.40492L14.1152 5.19208C14.2899 5.22289 14.4324 5.35309 14.4865 5.53C14.5416 5.70692 14.497 5.89973 14.3726 6.03092L11.2457 9.3366L11.8811 13.9393C11.9058 14.1232 11.8317 14.3051 11.6883 14.4144C11.6066 14.479 11.5097 14.5098 11.4119 14.5098Z" fill="#FEC125"/>
</svg>
