<svg width="25" height="25" viewBox="0 0 25 25" fill="none" xmlns="http://www.w3.org/2000/svg">
<rect width="25" height="25" rx="5" fill="#F0F6FF"/>
<path d="M6.77606 4V7.04419C5.75762 7.30891 5 8.2278 5 9.32819C5 10.4286 5.75762 11.3475 6.77606 11.6122V20.5766H7.96011V11.6122C8.97855 11.3475 9.73617 10.4286 9.73617 9.32819C9.73617 8.2278 8.97855 7.30891 7.96011 7.04419V4H6.77606ZM8.55213 9.32819C8.55213 9.98092 8.0211 10.5122 7.36809 10.5122C6.71507 10.5122 6.18404 9.98092 6.18404 9.32819C6.18404 8.67547 6.71507 8.14415 7.36809 8.14415C8.0211 8.14415 8.55213 8.67547 8.55213 9.32819Z" fill="#1D5BBF"/>
<path d="M11.9089 4V13.5564C10.8904 13.8211 10.1328 14.74 10.1328 15.8404C10.1328 16.9408 10.8904 17.8597 11.9089 18.1244V20.5766H13.0929V18.1244C14.1114 17.8597 14.869 16.9408 14.869 15.8404C14.869 14.74 14.1114 13.8211 13.0929 13.5564V4H11.9089ZM13.6849 15.8404C13.6849 16.4932 13.1539 17.0245 12.5009 17.0245C11.8479 17.0245 11.3169 16.4932 11.3169 15.8404C11.3169 15.1877 11.8479 14.6564 12.5009 14.6564C13.1539 14.6564 13.6849 15.1877 13.6849 15.8404Z" fill="#1D5BBF"/>
<path d="M17.0437 4V9.41163C16.0242 9.67562 15.2656 10.5952 15.2656 11.6963C15.2656 12.7974 16.0242 13.7169 17.0437 13.9809V20.5766H18.2278V13.9797C19.2451 13.7142 20.0018 12.7959 20.0018 11.6963C20.0018 10.5966 19.2451 9.67833 18.2278 9.41289V4H17.0437ZM18.8178 11.6963C18.8178 12.349 18.2867 12.8803 17.6337 12.8803C16.9807 12.8803 16.4497 12.349 16.4497 11.6963C16.4497 11.0436 16.9807 10.5122 17.6337 10.5122C18.2867 10.5122 18.8178 11.0436 18.8178 11.6963Z" fill="#1D5BBF"/>
</svg>
