<svg width="15" height="17" viewBox="0 0 15 17" fill="none" xmlns="http://www.w3.org/2000/svg">
<path d="M1.77606 0V3.04419C0.757624 3.30891 0 4.2278 0 5.32819C0 6.42859 0.757624 7.34748 1.77606 7.6122V16.5766H2.96011V7.6122C3.97855 7.34748 4.73617 6.42859 4.73617 5.32819C4.73617 4.2278 3.97855 3.30891 2.96011 3.04419V0H1.77606ZM3.55213 5.32819C3.55213 5.98092 3.0211 6.51224 2.36809 6.51224C1.71507 6.51224 1.18404 5.98092 1.18404 5.32819C1.18404 4.67547 1.71507 4.14415 2.36809 4.14415C3.0211 4.14415 3.55213 4.67547 3.55213 5.32819Z" fill="#1D5BBF" style="fill:#1D5BBF;fill:color(display-p3 0.1137 0.3569 0.7490);fill-opacity:1;"/>
<path d="M6.90888 0V9.55643C5.89044 9.82115 5.13281 10.74 5.13281 11.8404C5.13281 12.9408 5.89044 13.8597 6.90888 14.1244V16.5766H8.09292V14.1244C9.11136 13.8597 9.86899 12.9408 9.86899 11.8404C9.86899 10.74 9.11136 9.82115 8.09292 9.55643V0H6.90888ZM8.68494 11.8404C8.68494 12.4932 8.15391 13.0245 7.5009 13.0245C6.84788 13.0245 6.31686 12.4932 6.31686 11.8404C6.31686 11.1877 6.84788 10.6564 7.5009 10.6564C8.15391 10.6564 8.68494 11.1877 8.68494 11.8404Z" fill="#1D5BBF" style="fill:#1D5BBF;fill:color(display-p3 0.1137 0.3569 0.7490);fill-opacity:1;"/>
<path d="M12.0418 0V5.41163C11.0223 5.67562 10.2637 6.59517 10.2637 7.69628C10.2637 8.7974 11.0223 9.71694 12.0418 9.98093V16.5766H13.2258V9.97967C14.2432 9.71423 14.9998 8.79591 14.9998 7.69628C14.9998 6.59665 14.2432 5.67833 13.2258 5.41289V0H12.0418ZM13.8158 7.69628C13.8158 8.34901 13.2848 8.88032 12.6318 8.88032C11.9787 8.88032 11.4477 8.34901 11.4477 7.69628C11.4477 7.04355 11.9787 6.51224 12.6318 6.51224C13.2848 6.51224 13.8158 7.04355 13.8158 7.69628Z" fill="#1D5BBF" style="fill:#1D5BBF;fill:color(display-p3 0.1137 0.3569 0.7490);fill-opacity:1;"/>
</svg>
