<svg width="215" height="178" viewBox="0 0 215 178" fill="none" xmlns="http://www.w3.org/2000/svg">
<path d="M54.2271 0.96875L0.820312 54.3755L27.5237 70.9054L54.2271 54.3755L69.3066 27.6721L54.2271 0.96875Z" fill="#FF2820"/>
<path d="M54.2271 54.376H0.820312V123.805L27.5237 138.469L54.2271 123.805V54.376Z" fill="#0084FF"/>
<path d="M0.820312 123.805V159.409C0.820312 169.2 8.83133 177.211 18.6227 177.211H54.2271L69.3066 148.863L54.2271 123.805H0.820312Z" fill="#0066DD"/>
<path d="M203.421 19.9309L170.39 46.0965V46.3647L159.617 87.4921L170.39 129.113L203.274 155.579C207.686 159.281 214.451 156.172 214.451 150.396V25.1139C214.451 19.3384 207.833 16.2287 203.421 19.9309Z" fill="#00AD3C"/>
<path d="M170.386 46.0962V18.5667C170.386 8.88797 162.546 0.96875 152.962 0.96875H118.114H54.2266V54.3755H119.65V89.09L154.8 85.1741L170.386 46.0962Z" fill="#FFBA00"/>
<path d="M119.65 123.804H54.2266V177.211H118.114H152.962C162.546 177.211 170.386 169.304 170.386 159.639V129.145L152.949 93.3202L119.65 89.0898V123.804Z" fill="#00AD3C"/>
<path d="M119.648 89.0894L170.385 129.145V46.0957L119.648 89.0894Z" fill="#00831E"/>
</svg>
