<svg width="65" height="65" viewBox="0 0 65 65" fill="none" xmlns="http://www.w3.org/2000/svg">
<circle cx="32.5" cy="32.5" r="32.5" fill="#F2F2F2"/>
<path d="M36.4851 24.1958C36.6694 23.95 36.6548 23.7013 36.608 23.5345C36.5173 23.2156 36.2452 22.9375 35.8794 22.7941C35.142 22.5044 34.0651 22.7619 33.7432 23.3033C33.6027 23.5403 33.5852 23.8183 33.5647 24.1431C33.4447 26.0949 32.1952 25.9954 31.9699 26.1183C31.9699 26.1183 31.9611 26.1329 31.9465 26.1681C31.6831 26.806 32.0811 27.4264 32.5405 28.1491C32.8946 28.7022 33.2633 29.2757 33.3394 29.9195C33.4419 30.7389 32.9854 32.0586 31.9407 32.8926C30.8521 33.7617 29.5178 33.8348 28.1687 33.352C21.0843 30.8149 21.4325 30.9496 21.2979 30.8179C20.5224 30.3994 20.1186 29.7996 20.2064 29.1851C20.2737 28.7257 20.6775 27.9121 22.641 27.599C23.437 27.4703 24.4261 27.3854 24.9762 26.9553C25.6756 26.408 25.4971 25.8608 27.0626 25.5185C28.7452 25.1497 30.024 23.9061 30.1059 22.56C30.1967 21.0471 29.3276 20.377 28.558 19.7859C28.1629 19.4786 27.7855 19.1831 27.6011 18.8027C22.4011 20.9359 18.7316 26.0481 18.7316 32.003C18.7316 36.4801 20.8034 40.4774 24.0398 43.0964C24.9645 41.0597 27.4664 40.7847 30.1791 40.6823C30.8287 40.6559 31.0335 40.5886 31.3935 40.0092C31.9758 39.0758 32.1045 38.3735 32.2216 37.756C32.2977 37.3405 32.3708 36.9454 32.5581 36.5387C33.0438 35.494 34.1792 34.7595 35.8443 34.4113C38.4926 33.8582 40.3654 34.821 40.8541 36.9834C41.094 38.0252 40.8746 39.1606 40.2571 40.0999C40.2073 40.1789 40.1371 40.2696 40.0581 40.3779C39.6835 40.8841 39.0573 41.7298 39.0017 43.0964C38.9783 43.8368 39.1597 44.1762 39.8093 44.5273C43.4232 42.555 46.1359 39.0582 46.9816 34.818C47.0225 34.619 47.2157 34.4903 47.4117 34.5312C47.6108 34.5692 47.7395 34.7624 47.6985 34.9614C46.8031 39.4531 43.9178 43.149 40.0757 45.215C40.0523 45.2355 40.0259 45.256 39.9966 45.2706C37.8195 46.4206 35.3264 47 32.9971 47C29.8543 47 26.694 46.0314 23.9813 43.9889C23.9667 43.9801 23.9579 43.9655 23.9462 43.9509C20.3351 41.209 18 36.8752 18 32.003C18 25.6091 22.0236 20.14 27.6712 17.9863C27.6859 17.9775 27.7005 17.9687 27.7181 17.96C32.719 16.0813 38.2613 17.0119 42.3698 20.298C42.3757 20.3009 42.3786 20.3039 42.3815 20.3068C44.8367 22.2733 46.6802 25.0122 47.5142 28.2223C47.7981 29.3343 47.959 30.4727 47.9883 31.6051C47.9942 31.807 47.8332 31.9767 47.6313 31.9796C47.4264 31.9942 47.2625 31.8274 47.2567 31.6255C47.2275 30.5457 47.0782 29.463 46.8061 28.4067C46.2911 26.4314 45.381 24.6465 44.1695 23.1248C41.9983 28.1346 38.9579 28.4272 36.7544 27.76C36.0463 27.5463 35.4639 27.0693 35.2328 26.5163C34.7206 25.2873 36.0842 24.7225 36.4851 24.1958Z" fill="#18283D"/>
</svg>
