<svg width="92" height="103" viewBox="0 0 92 103" fill="none" xmlns="http://www.w3.org/2000/svg">
<path d="M28.1351 103.002L20.8929 92.4429L8.25 94.4675L27.2469 54.668L43.4923 61.7112L28.1351 103.002Z" fill="#0082C3"/>
<path opacity="0.2" d="M27.2459 54.668L15.4238 79.436C17.3731 80.3424 19.7802 80.6054 22.2417 80.796C23.8098 83.87 25.5128 86.833 28.407 88.0098C30.0341 88.6716 31.7864 88.6637 33.5893 88.3356L43.4914 61.7112L27.2459 54.668Z" fill="#004275"/>
<path d="M63.0697 103.002L70.3118 92.4429L82.9552 94.4675L63.9578 54.668L47.7129 61.7112L63.0697 103.002Z" fill="#0082C3"/>
<path opacity="0.2" d="M63.9578 54.668L47.7129 61.7112L57.4826 87.9801C59.5573 88.4328 61.5498 88.5401 63.3383 87.7858C66.0442 86.6448 67.6663 83.798 69.1824 80.7792C71.5667 80.5901 73.8892 80.3159 75.78 79.437L63.9578 54.668Z" fill="#004275"/>
<path d="M82.9974 45.7306C82.9974 46.6448 81.175 47.4856 81.109 48.3831C81.0416 49.294 82.7195 50.3942 82.5861 51.2851C82.4513 52.1877 80.5243 52.7483 80.3245 53.6276C80.1223 54.5163 81.6166 55.8549 81.3507 56.7179C81.0826 57.588 79.0933 57.8534 78.7633 58.6946C78.4305 59.5415 79.7073 61.0892 79.3141 61.9035C78.919 62.7224 76.9125 62.6866 76.4594 63.4698C76.0044 64.2562 77.0352 65.9773 76.5245 66.7251C76.0123 67.4748 74.0337 67.1406 73.4685 67.8485C72.9024 68.5577 73.6661 70.4131 73.0493 71.0773C72.4321 71.7419 70.5251 71.1182 69.8605 71.735C69.1958 72.3517 69.6764 74.2996 68.9676 74.8662C68.2598 75.4313 66.4662 74.532 65.7165 75.0437C64.9687 75.5545 65.1546 77.5526 64.3682 78.0076C63.585 78.4608 61.9457 77.3039 61.1268 77.699C60.3125 78.0917 60.1977 80.0954 59.3509 80.4277C58.5101 80.7582 57.0628 79.3685 56.1927 79.6367C55.3301 79.9025 54.916 81.8657 54.0268 82.0679C53.1475 82.2678 51.9251 80.6773 51.023 80.8121C50.132 80.945 49.4288 82.8246 48.5178 82.892C47.6203 82.9584 46.6475 81.2034 45.7333 81.2034C44.8191 81.2034 43.8463 82.958 42.9488 82.892C42.0379 82.8246 41.3347 80.945 40.4437 80.8121C39.5411 80.6773 38.3187 82.2678 37.4393 82.0679C36.5507 81.8657 36.1361 79.9025 35.2735 79.6367C34.4034 79.3685 32.9561 80.7577 32.1148 80.4272C31.268 80.0945 31.1532 78.0913 30.3389 77.6985C29.52 77.3035 27.8807 78.4603 27.0976 78.0071C26.3112 77.5521 26.4971 75.554 25.7492 75.0433C24.9995 74.5311 23.206 75.4309 22.4981 74.8652C21.7889 74.2991 22.2694 72.3508 21.6053 71.734C20.9406 71.1168 19.0336 71.7405 18.4164 71.0759C17.7997 70.4113 18.5633 68.5563 17.9972 67.8471C17.432 67.1392 15.4535 67.4734 14.9413 66.7237C14.4305 65.9759 15.4614 64.2548 15.0063 63.4684C14.5532 62.6852 12.5467 62.721 12.1517 61.9021C11.7589 61.0878 13.0352 59.5401 12.7029 58.6933C12.3724 57.8525 10.3837 57.5871 10.1155 56.717C9.84962 55.8544 11.3439 54.5158 11.1417 53.6272C10.9418 52.7478 9.01487 52.1873 8.88008 51.2847C8.74716 50.3937 10.4245 49.2936 10.3572 48.3826C10.2907 47.4851 8.46875 46.6443 8.46875 45.7301C8.46875 44.8159 10.2912 43.9751 10.3572 43.0776C10.4245 42.1667 8.74669 41.0665 8.88008 40.1755C9.01487 39.2729 10.9418 38.7124 11.1417 37.833C11.3439 36.9444 9.84962 35.6054 10.1155 34.7427C10.3837 33.8727 12.3724 33.6073 12.7029 32.766C13.0357 31.9192 11.7589 30.3715 12.1521 29.5572C12.5472 28.7383 14.5536 28.774 15.0068 27.9909C15.4618 27.2045 14.4309 25.4834 14.9417 24.7356C15.4539 23.9859 17.4325 24.3201 17.9981 23.6122C18.5642 22.903 17.8006 21.0476 18.4174 20.3834C19.0346 19.7188 20.9416 20.3425 21.6062 19.7253C22.2704 19.1085 21.7902 17.1606 22.4995 16.5941C23.2074 16.0289 25.0009 16.9282 25.7506 16.4165C26.4985 15.9057 26.3125 13.9076 27.0989 13.4526C27.8821 12.9994 29.5214 14.1563 30.3403 13.7612C31.1546 13.3685 31.2694 11.3648 32.1162 11.0325C32.957 10.702 34.4043 12.0917 35.2744 11.8236C36.137 11.5577 36.5512 9.59448 37.4403 9.39231C38.3196 9.19245 39.542 10.7829 40.4441 10.6481C41.3351 10.5152 42.0383 8.63564 42.9493 8.56825C43.8468 8.50178 44.8191 10.2568 45.7338 10.2568C46.6485 10.2568 47.6208 8.50225 48.5183 8.56825C49.4292 8.63564 50.1325 10.5152 51.0234 10.6481C51.926 10.7829 53.1484 9.19245 54.0278 9.39231C54.9164 9.59448 55.331 11.5577 56.1936 11.8236C57.0637 12.0917 58.511 10.7025 59.3523 11.033C60.1991 11.3658 60.3139 13.369 61.1282 13.7617C61.9471 14.1568 63.5864 12.9999 64.3696 13.4531C65.156 13.9081 64.9701 15.9062 65.7179 16.417C66.4676 16.9292 68.2612 16.0294 68.969 16.595C69.6783 17.1611 69.1977 19.1094 69.8618 19.7262C70.5265 20.3434 72.4335 19.7192 73.0507 20.3843C73.6675 21.049 72.9038 22.9039 73.4699 23.6131C74.0351 24.321 76.0137 23.9868 76.5258 24.7365C77.0366 25.4843 76.0058 27.2054 76.4608 27.9918C76.9139 28.775 78.9204 28.7392 79.3155 29.5581C79.7082 30.3724 78.4319 31.9201 78.7642 32.767C79.0947 33.6077 81.0835 33.8731 81.3516 34.7432C81.6175 35.6058 80.1232 36.9444 80.325 37.833C80.5248 38.7124 82.4518 39.2729 82.5866 40.1755C82.7195 41.0665 81.0421 42.1667 81.1095 43.0776C81.175 43.9756 82.9974 44.8163 82.9974 45.7306Z" fill="#FF9A78"/>
<path d="M68.5955 68.5956C81.2235 55.9675 81.2235 35.4934 68.5955 22.8653C55.9674 10.2372 35.4932 10.2372 22.8652 22.8653C10.2371 35.4934 10.2371 55.9675 22.8652 68.5956C35.4932 81.2237 55.9674 81.2237 68.5955 68.5956Z" fill="#FF6666"/>
<path d="M66.3618 66.3621C77.7564 54.9676 77.7564 36.4933 66.3618 25.0988C54.9673 13.7042 36.493 13.7042 25.0985 25.0988C13.7039 36.4933 13.7039 54.9676 25.0985 66.3621C36.493 77.7567 54.9673 77.7567 66.3618 66.3621Z" fill="#F8E4B2"/>
<path d="M45.7343 32.0703L49.7728 40.2518L58.8006 41.5634L52.2668 47.9314L53.8089 56.923L45.7343 52.6781L37.6597 56.923L39.2023 47.9314L32.668 41.5634L41.6963 40.2518L45.7343 32.0703Z" fill="white"/>
<path d="M45.7335 39.0781L47.646 42.953L51.9215 43.5739L48.827 46.5899L49.5577 50.8487L45.7335 48.838L41.9093 50.8487L42.6399 46.5899L39.5449 43.5739L43.8209 42.953L45.7335 39.0781Z" fill="#FFC978"/>
<path d="M23.8972 42.6914L24.2653 43.4378L25.0894 43.5578L24.4931 44.1387L24.6339 44.9591L23.8972 44.5719L23.1601 44.9591L23.3009 44.1387L22.7051 43.5578L23.5287 43.4378L23.8972 42.6914Z" fill="#FF9A78"/>
<path d="M24.9695 36.9375L25.3381 37.6839L26.1617 37.8039L25.5654 38.3848L25.7062 39.2052L24.9695 38.818L24.2328 39.2052L24.3737 38.3848L23.7773 37.8039L24.6009 37.6839L24.9695 36.9375Z" fill="#FF9A78"/>
<path d="M67.5652 42.6914L67.1966 43.4378L66.373 43.5578L66.9689 44.1387L66.8285 44.9591L67.5652 44.5719L68.3019 44.9591L68.161 44.1387L68.7574 43.5578L67.9333 43.4378L67.5652 42.6914Z" fill="#FF9A78"/>
<path d="M66.4929 36.9375L66.1248 37.6839L65.3008 37.8039L65.8971 38.3848L65.7563 39.2052L66.4929 38.818L67.2301 39.2052L67.0893 38.3848L67.6856 37.8039L66.8615 37.6839L66.4929 36.9375Z" fill="#FF9A78"/>
</svg>
