<svg width="22" height="22" viewBox="0 0 22 22" fill="none" xmlns="http://www.w3.org/2000/svg">
<mask id="mask0_3_7287" style="mask-type:luminance" maskUnits="userSpaceOnUse" x="0" y="0" width="22" height="22">
<path d="M0 0H22V22H0V0Z" fill="white" style="fill:white;fill-opacity:1;"/>
</mask>
<g mask="url(#mask0_3_7287)">
<path d="M9.82132 21.5703C4.66645 21.5703 0.472656 17.3767 0.472656 12.2221C0.472656 7.0675 4.66645 2.87396 9.82132 2.87396C14.9762 2.87396 19.1699 7.0675 19.1699 12.2221C19.1699 17.3767 14.9762 21.5703 9.82132 21.5703Z" stroke="#18283D" style="stroke:#18283D;stroke:color(display-p3 0.0941 0.1569 0.2392);stroke-opacity:1;" stroke-width="0.8" stroke-miterlimit="10" stroke-linecap="round" stroke-linejoin="round"/>
<path d="M7.42145 5.55684C8.17134 5.28596 8.97966 5.13823 9.82185 5.13823C13.7278 5.13823 16.9055 8.31577 16.9055 12.2215C16.9055 16.1271 13.7278 19.3047 9.82185 19.3047C5.91595 19.3047 2.73828 16.1271 2.73828 12.2215C2.73828 10.6644 3.24329 9.2231 4.09811 8.05267" stroke="#18283D" style="stroke:#18283D;stroke:color(display-p3 0.0941 0.1569 0.2392);stroke-opacity:1;" stroke-width="0.8" stroke-miterlimit="10" stroke-linecap="round" stroke-linejoin="round"/>
<path d="M12.0113 16.5146C11.3541 16.8511 10.61 17.041 9.82247 17.041C7.16549 17.041 5.00391 14.8796 5.00391 12.2228C5.00391 9.56591 7.16549 7.40446 9.82247 7.40446C12.4794 7.40446 14.6409 9.56591 14.6409 12.2228C14.6409 12.7521 14.5551 13.2618 14.3967 13.7386" stroke="#18283D" style="stroke:#18283D;stroke:color(display-p3 0.0941 0.1569 0.2392);stroke-opacity:1;" stroke-width="0.8" stroke-miterlimit="10" stroke-linecap="round" stroke-linejoin="round"/>
<path d="M12.3765 12.2221C12.3765 13.6322 11.2333 14.7754 9.82304 14.7754C8.4128 14.7754 7.26953 13.6322 7.26953 12.2221C7.26953 10.8119 8.4128 9.66873 9.82304 9.66873C11.2333 9.66873 12.3765 10.8119 12.3765 12.2221Z" stroke="#18283D" style="stroke:#18283D;stroke:color(display-p3 0.0941 0.1569 0.2392);stroke-opacity:1;" stroke-width="0.8" stroke-miterlimit="10" stroke-linecap="round" stroke-linejoin="round"/>
<path d="M17.9479 4.01543L9.87109 12.0918" stroke="#18283D" style="stroke:#18283D;stroke:color(display-p3 0.0941 0.1569 0.2392);stroke-opacity:1;" stroke-width="0.8" stroke-miterlimit="10" stroke-linecap="round" stroke-linejoin="round"/>
<path d="M18.616 0.429512L16.7435 2.30187C16.5111 2.53421 16.3753 2.8459 16.3633 3.17427L16.4057 5.55762L18.8188 3.14071L18.616 0.429512Z" stroke="#18283D" style="stroke:#18283D;stroke:color(display-p3 0.0941 0.1569 0.2392);stroke-opacity:1;" stroke-width="0.8" stroke-miterlimit="10" stroke-linecap="round" stroke-linejoin="round"/>
<path d="M21.5307 3.34315L18.8193 3.14034L16.4062 5.55725L18.7858 5.5957C19.1142 5.58371 19.4259 5.44785 19.6583 5.21552L21.5307 3.34315Z" stroke="#18283D" style="stroke:#18283D;stroke:color(display-p3 0.0941 0.1569 0.2392);stroke-opacity:1;" stroke-width="0.8" stroke-miterlimit="10" stroke-linecap="round" stroke-linejoin="round"/>
</g>
</svg>
