<svg width="35" height="35" viewBox="0 0 35 35" fill="none" xmlns="http://www.w3.org/2000/svg">
<g clip-path="url(#clip0_596_41)">
<path d="M33.6793 14.4577L19.4031 14.457C18.7727 14.457 18.2617 14.9679 18.2617 15.5984V20.159C18.2617 20.7892 18.7727 21.3003 19.403 21.3003H27.4425C26.5622 23.5849 24.9191 25.4982 22.8228 26.7139L26.2508 32.6481C31.7498 29.4679 35.0008 23.8878 35.0008 17.6412C35.0008 16.7518 34.9353 16.116 34.8041 15.4C34.7045 14.8561 34.2322 14.4577 33.6793 14.4577Z" fill="#167EE6" style="fill:#167EE6;fill:color(display-p3 0.0863 0.4941 0.9020);fill-opacity:1;"/>
<path d="M17.4992 28.1509C13.5649 28.1509 10.1302 26.0013 8.28557 22.8203L2.35156 26.2406C5.37134 31.4743 11.0283 34.9987 17.4992 34.9987C20.6737 34.9987 23.669 34.144 26.2492 32.6546V32.6464L22.8212 26.7121C21.2532 27.6216 19.4387 28.1509 17.4992 28.1509Z" fill="#12B347" style="fill:#12B347;fill:color(display-p3 0.0706 0.7020 0.2784);fill-opacity:1;"/>
<path d="M26.25 32.6573V32.6491L22.822 26.7148C21.254 27.6242 19.4396 28.1536 17.5 28.1536V35.0014C20.6744 35.0014 23.6698 34.1467 26.25 32.6573Z" fill="#0F993E" style="fill:#0F993E;fill:color(display-p3 0.0588 0.6000 0.2431);fill-opacity:1;"/>
<path d="M6.84783 17.4997C6.84783 15.5604 7.37707 13.7461 8.28632 12.1781L2.35231 8.75781C0.854629 11.33 0 14.3171 0 17.4997C0 20.6822 0.854629 23.6694 2.35231 26.2415L8.28632 22.8212C7.37707 21.2533 6.84783 19.439 6.84783 17.4997Z" fill="#FFD500" style="fill:#FFD500;fill:color(display-p3 1.0000 0.8353 0.0000);fill-opacity:1;"/>
<path d="M17.4992 6.84783C20.0648 6.84783 22.4215 7.75947 24.2622 9.27589C24.7163 9.64995 25.3763 9.62295 25.7923 9.20698L29.0236 5.97563C29.4956 5.50368 29.4619 4.73115 28.9578 4.29379C25.8737 1.61827 21.8611 0 17.4992 0C11.0283 0 5.37134 3.5244 2.35156 8.75813L8.28557 12.1784C10.1302 8.99746 13.5649 6.84783 17.4992 6.84783Z" fill="#FF4B26" style="fill:#FF4B26;fill:color(display-p3 1.0000 0.2941 0.1490);fill-opacity:1;"/>
<path d="M24.2629 9.27589C24.717 9.64995 25.3771 9.62295 25.793 9.20698L29.0244 5.97563C29.4962 5.50368 29.4626 4.73115 28.9585 4.29379C25.8745 1.6182 21.8618 0 17.5 0V6.84783C20.0655 6.84783 22.4222 7.75947 24.2629 9.27589Z" fill="#D93F21" style="fill:#D93F21;fill:color(display-p3 0.8510 0.2471 0.1294);fill-opacity:1;"/>
</g>
<defs>
<clipPath id="clip0_596_41">
<rect width="35" height="35" fill="white" style="fill:white;fill-opacity:1;"/>
</clipPath>
</defs>
</svg>
