<svg width="20" height="20" viewBox="0 0 20 20" fill="none" xmlns="http://www.w3.org/2000/svg">
<path fill-rule="evenodd" clip-rule="evenodd" d="M2.5 10C2.5 9.30962 3.05965 8.75 3.75 8.75H16.25C16.9403 8.75 17.5 9.30962 17.5 10C17.5 10.6904 16.9403 11.25 16.25 11.25H3.75C3.05965 11.25 2.5 10.6904 2.5 10Z" fill="#1D5BBF" style="fill:#1D5BBF;fill:color(display-p3 0.1137 0.3569 0.7490);fill-opacity:1;"/>
<path fill-rule="evenodd" clip-rule="evenodd" d="M3.75 0C4.44035 0 4.99999 0.559649 4.99999 1.25V18.75C4.99999 19.4403 4.44035 19.9999 3.75 19.9999C3.05965 19.9999 2.5 19.4403 2.5 18.75V1.25C2.5 0.559649 3.05965 0 3.75 0Z" fill="#1D5BBF" style="fill:#1D5BBF;fill:color(display-p3 0.1137 0.3569 0.7490);fill-opacity:1;"/>
<path fill-rule="evenodd" clip-rule="evenodd" d="M16.25 0C16.9404 0 17.5 0.559649 17.5 1.25V18.75C17.5 19.4403 16.9404 19.9999 16.25 19.9999C15.5596 19.9999 15 19.4403 15 18.75V1.25C15 0.559649 15.5596 0 16.25 0Z" fill="#1D5BBF" style="fill:#1D5BBF;fill:color(display-p3 0.1137 0.3569 0.7490);fill-opacity:1;"/>
<path fill-rule="evenodd" clip-rule="evenodd" d="M12.5 18.75C12.5 18.0596 13.0596 17.5 13.75 17.5H18.75C19.4404 17.5 20 18.0596 20 18.75C20 19.4404 19.4404 20 18.75 20H13.75C13.0596 20 12.5 19.4404 12.5 18.75Z" fill="#1D5BBF" style="fill:#1D5BBF;fill:color(display-p3 0.1137 0.3569 0.7490);fill-opacity:1;"/>
<path fill-rule="evenodd" clip-rule="evenodd" d="M12.5 1.25C12.5 0.559649 13.0596 0 13.75 0H18.75C19.4404 0 20 0.559649 20 1.25C20 1.94035 19.4404 2.49999 18.75 2.49999H13.75C13.0596 2.49999 12.5 1.94035 12.5 1.25Z" fill="#1D5BBF" style="fill:#1D5BBF;fill:color(display-p3 0.1137 0.3569 0.7490);fill-opacity:1;"/>
<path fill-rule="evenodd" clip-rule="evenodd" d="M0 18.75C0 18.0596 0.559649 17.5 1.25 17.5H6.24998C6.94033 17.5 7.49998 18.0596 7.49998 18.75C7.49998 19.4404 6.94033 20 6.24998 20H1.25C0.559649 20 0 19.4404 0 18.75Z" fill="#1D5BBF" style="fill:#1D5BBF;fill:color(display-p3 0.1137 0.3569 0.7490);fill-opacity:1;"/>
<path fill-rule="evenodd" clip-rule="evenodd" d="M0 1.25C0 0.559649 0.559649 0 1.25 0H6.24998C6.94033 0 7.49998 0.559649 7.49998 1.25C7.49998 1.94035 6.94033 2.49999 6.24998 2.49999H1.25C0.559649 2.49999 0 1.94035 0 1.25Z" fill="#1D5BBF" style="fill:#1D5BBF;fill:color(display-p3 0.1137 0.3569 0.7490);fill-opacity:1;"/>
</svg>
