<svg width="24" height="24" viewBox="0 0 24 24" fill="none" xmlns="http://www.w3.org/2000/svg">
<path d="M12 0C5.36761 0 0 5.367 0 12C0 18.6323 5.367 24 12 24C18.6324 24 24 18.633 24 12C24 5.36761 18.633 0 12 0ZM12 22.3256C6.30647 22.3256 1.67442 17.6936 1.67442 12C1.67442 6.30642 6.30647 1.67442 12 1.67442C17.6936 1.67442 22.3256 6.30642 22.3256 12C22.3256 17.6936 17.6936 22.3256 12 22.3256Z" fill="#18283D" style="fill:#18283D;fill:color(display-p3 0.0941 0.1569 0.2392);fill-opacity:1;"/>
<path d="M11.6419 15.1855C10.9785 15.1855 10.4414 15.7384 10.4414 16.4018C10.4414 17.0494 10.9627 17.6181 11.6419 17.6181C12.3211 17.6181 12.8581 17.0494 12.8581 16.4018C12.8581 15.7384 12.3053 15.1855 11.6419 15.1855Z" fill="#18283D" style="fill:#18283D;fill:color(display-p3 0.0941 0.1569 0.2392);fill-opacity:1;"/>
<path d="M11.85 5.97656C9.71759 5.97656 8.73828 7.24027 8.73828 8.0932C8.73828 8.70923 9.25953 8.99358 9.686 8.99358C10.539 8.99358 10.1915 7.77727 11.8026 7.77727C12.5924 7.77727 13.2243 8.1248 13.2243 8.85141C13.2243 9.70434 12.3397 10.194 11.8184 10.6363C11.3603 11.0311 10.7601 11.6788 10.7601 13.0372C10.7601 13.8585 10.9813 14.0955 11.6289 14.0955C12.4028 14.0955 12.5608 13.748 12.5608 13.4478C12.5608 12.6265 12.5766 12.1526 13.4454 11.4734C13.8718 11.1417 15.2144 10.0676 15.2144 8.58281C15.2144 7.09805 13.8718 5.97656 11.85 5.97656Z" fill="#18283D" style="fill:#18283D;fill:color(display-p3 0.0941 0.1569 0.2392);fill-opacity:1;"/>
</svg>
