<svg width="25" height="25" viewBox="0 0 25 25" fill="none" xmlns="http://www.w3.org/2000/svg">
<path d="M22.8027 0H2.19727C0.985693 0 0 0.985693 0 2.19727V22.8027C0 24.0143 0.985693 25 2.19727 25H22.8027C24.0143 25 25 24.0143 25 22.8027V2.19727C25 0.985693 24.0143 0 22.8027 0ZM23.5352 22.8027C23.5352 23.2066 23.2066 23.5352 22.8027 23.5352H2.19727C1.79341 23.5352 1.46484 23.2066 1.46484 22.8027V7.32422H23.5352V22.8027ZM23.5352 5.85938H1.46484V2.19727C1.46484 1.79341 1.79341 1.46484 2.19727 1.46484H22.8027C23.2066 1.46484 23.5352 1.79341 23.5352 2.19727V5.85938Z" fill="#00AEBD" style="fill:#00AEBD;fill:color(display-p3 0.0000 0.6824 0.7412);fill-opacity:1;"/>
<path d="M6.20769 15.4356L8.61946 13.0238C8.90549 12.7378 8.90549 12.274 8.61946 11.988C8.33347 11.7019 7.8697 11.7019 7.58367 11.988L4.65398 14.9177C4.36794 15.2037 4.36794 15.6674 4.65398 15.9534L7.58367 18.8831C7.86965 19.1691 8.33342 19.1692 8.61946 18.8831C8.90549 18.5971 8.90549 18.1334 8.61946 17.8473L6.20769 15.4356Z" fill="#1D5BBF" style="fill:#1D5BBF;fill:color(display-p3 0.1137 0.3569 0.7490);fill-opacity:1;"/>
<path d="M20.3383 14.9177L17.4085 11.988C17.1225 11.7019 16.6588 11.7019 16.3727 11.988C16.0867 12.274 16.0867 12.7377 16.3727 13.0238L18.7845 15.4356L16.3728 17.8473C16.0867 18.1334 16.0867 18.5971 16.3728 18.8831C16.6588 19.1691 17.1225 19.1692 17.4086 18.8831L20.3383 15.9534C20.6243 15.6674 20.6243 15.2037 20.3383 14.9177Z" fill="#1D5BBF" style="fill:#1D5BBF;fill:color(display-p3 0.1137 0.3569 0.7490);fill-opacity:1;"/>
<path d="M14.2006 10.3425C13.8167 10.2145 13.402 10.422 13.2741 10.8057L10.3444 19.5948C10.2165 19.9785 10.4239 20.3933 10.8077 20.5213C11.1915 20.6492 11.6062 20.4417 11.7341 20.058L14.6638 11.269C14.7917 10.8852 14.5843 10.4704 14.2006 10.3425Z" fill="#1D5BBF" style="fill:#1D5BBF;fill:color(display-p3 0.1137 0.3569 0.7490);fill-opacity:1;"/>
<path d="M5.17969 2.92969H3.71484C3.31035 2.92969 2.98242 3.25762 2.98242 3.66211C2.98242 4.0666 3.31035 4.39453 3.71484 4.39453H5.17969C5.58418 4.39453 5.91211 4.0666 5.91211 3.66211C5.91211 3.25762 5.58418 2.92969 5.17969 2.92969Z" fill="#1D5BBF" style="fill:#1D5BBF;fill:color(display-p3 0.1137 0.3569 0.7490);fill-opacity:1;"/>
<path d="M9.56641 2.92969H8.10156C7.69707 2.92969 7.36914 3.25762 7.36914 3.66211C7.36914 4.0666 7.69707 4.39453 8.10156 4.39453H9.56641C9.9709 4.39453 10.2988 4.0666 10.2988 3.66211C10.2988 3.25762 9.9709 2.92969 9.56641 2.92969Z" fill="#1D5BBF" style="fill:#1D5BBF;fill:color(display-p3 0.1137 0.3569 0.7490);fill-opacity:1;"/>
<path d="M13.9688 2.92969H12.5039C12.0994 2.92969 11.7715 3.25762 11.7715 3.66211C11.7715 4.0666 12.0994 4.39453 12.5039 4.39453H13.9688C14.3732 4.39453 14.7012 4.0666 14.7012 3.66211C14.7012 3.25762 14.3732 2.92969 13.9688 2.92969Z" fill="#1D5BBF" style="fill:#1D5BBF;fill:color(display-p3 0.1137 0.3569 0.7490);fill-opacity:1;"/>
</svg>
