<svg width="21" height="20" viewBox="0 0 21 20" fill="none" xmlns="http://www.w3.org/2000/svg">
<path d="M10.4879 20C8.50005 19.9997 6.55691 19.41 4.90416 18.3054C3.2514 17.2009 1.96326 15.6311 1.20258 13.7945C0.441895 11.958 0.242836 9.93711 0.630566 7.98742C1.0183 6.03774 1.97541 4.2468 3.38089 2.84101C5.27508 1.00139 7.81707 -0.0190282 10.4575 0.000268788C13.0979 0.0195658 15.6247 1.07703 17.4918 2.94414C19.3589 4.81125 20.4164 7.33805 20.4357 9.97847C20.455 12.6189 19.4346 15.1609 17.5949 17.0551C16.6639 17.9914 15.5563 18.7339 14.3364 19.2393C13.1165 19.7448 11.8084 20.0034 10.4879 20ZM10.4879 1.07407C5.59467 1.07407 1.61395 5.05479 1.61395 9.94804C1.61395 14.8413 5.59467 18.822 10.4879 18.822C15.3812 18.822 19.3619 14.8413 19.3619 9.94804C19.3619 5.05479 15.3812 1.07407 10.4879 1.07407Z" fill="#18283D"/>
<path d="M13.9978 14.0478C13.9205 14.0479 13.8439 14.0327 13.7725 14.0031C13.7011 13.9736 13.6362 13.9301 13.5816 13.8754L6.57158 6.86534C6.4643 6.75426 6.40493 6.60548 6.40627 6.45105C6.40761 6.29662 6.46956 6.1489 6.57876 6.0397C6.68796 5.93049 6.83568 5.86855 6.99011 5.86721C7.14454 5.86587 7.29332 5.92523 7.4044 6.03252L14.4144 13.0426C14.4967 13.125 14.5528 13.2299 14.5754 13.3441C14.5981 13.4583 14.5864 13.5767 14.5418 13.6843C14.4972 13.7919 14.4218 13.8838 14.3249 13.9485C14.2281 14.0132 14.1143 14.0477 13.9978 14.0478Z" fill="#18283D"/>
<path d="M6.97948 14.0478C6.86303 14.0477 6.74921 14.0132 6.65238 13.9485C6.55556 13.8838 6.48009 13.7919 6.4355 13.6843C6.39092 13.5767 6.37922 13.4583 6.40189 13.3441C6.42457 13.2299 6.48059 13.125 6.56287 13.0426L13.5729 6.03252C13.684 5.92523 13.8328 5.86587 13.9872 5.86721C14.1416 5.86855 14.2894 5.93049 14.3986 6.0397C14.5078 6.1489 14.5697 6.29662 14.571 6.45105C14.5724 6.60548 14.513 6.75426 14.4057 6.86534L7.39569 13.8754C7.34111 13.9301 7.27624 13.9736 7.2048 14.0031C7.13337 14.0327 7.0568 14.0479 6.97948 14.0478Z" fill="#18283D"/>
</svg>
