<svg width="22" height="22" viewBox="0 0 22 22" fill="none" xmlns="http://www.w3.org/2000/svg">
<path d="M17 0H5C3.6744 0.00156145 2.40353 0.528847 1.46619 1.46619C0.528847 2.40353 0.00156145 3.6744 0 5L0 17C0.00156145 18.3256 0.528847 19.5965 1.46619 20.5338C2.40353 21.4712 3.6744 21.9984 5 22H17C18.3256 21.9984 19.5965 21.4712 20.5338 20.5338C21.4712 19.5965 21.9984 18.3256 22 17V5C21.9984 3.6744 21.4712 2.40353 20.5338 1.46619C19.5965 0.528847 18.3256 0.00156145 17 0ZM5 2H17C17.7954 2.00087 18.5579 2.31722 19.1204 2.87964C19.6828 3.44206 19.9991 4.20462 20 5V9.7451L19.0283 8.7729C18.7715 8.51463 18.4637 8.31269 18.1245 8.17997C17.7853 8.04724 17.4222 7.98663 17.0583 8.002C16.6949 8.01649 16.3384 8.10566 16.0109 8.26394C15.6835 8.42222 15.3921 8.64622 15.155 8.922L11.21 13.5244C11.1118 13.6397 10.9759 13.7164 10.8264 13.7407C10.6769 13.765 10.5237 13.7354 10.394 13.6572L7.5605 11.9565C7.09751 11.6817 6.56201 11.554 6.02484 11.5902C5.48767 11.6264 4.97414 11.8248 4.5522 12.1592L2 14.201V5C2.00087 4.20462 2.31722 3.44206 2.87964 2.87964C3.44206 2.31722 4.20462 2.00087 5 2ZM17 20H5C4.20462 19.9991 3.44206 19.6828 2.87964 19.1204C2.31722 18.5579 2.00087 17.7954 2 17V16.7626L5.8018 13.7207C5.90442 13.64 6.02901 13.5922 6.15926 13.5835C6.28951 13.5748 6.41935 13.6056 6.5318 13.6719L9.3658 15.373C9.90048 15.6945 10.5319 15.8158 11.1476 15.7155C11.7634 15.6152 12.3236 15.2997 12.7286 14.8252L16.673 10.2246C16.7303 10.1571 16.8011 10.1024 16.8808 10.0638C16.9605 10.0252 17.0473 10.0036 17.1358 10.0005C17.2243 9.99536 17.3129 10.0094 17.3955 10.0417C17.4781 10.074 17.5528 10.1237 17.6144 10.1875L20 12.5741V17C19.9991 17.7954 19.6828 18.5579 19.1204 19.1204C18.5579 19.6828 17.7954 19.9991 17 20Z" fill="#1D5BBF" style="fill:#1D5BBF;fill:color(display-p3 0.1137 0.3569 0.7490);fill-opacity:1;"/>
<path d="M6.06641 9C7.17098 9 8.06641 8.10457 8.06641 7C8.06641 5.89543 7.17098 5 6.06641 5C4.96184 5 4.06641 5.89543 4.06641 7C4.06641 8.10457 4.96184 9 6.06641 9Z" fill="#1D5BBF" style="fill:#1D5BBF;fill:color(display-p3 0.1137 0.3569 0.7490);fill-opacity:1;"/>
</svg>
