<svg width="21" height="21" viewBox="0 0 21 21" fill="none" xmlns="http://www.w3.org/2000/svg">
<path d="M17.9502 0.708008H3.06152C1.6523 0.708008 0.505859 1.85449 0.505859 3.26371V18.1523C0.505859 19.5615 1.6523 20.708 3.06152 20.708H17.9502C19.3594 20.708 20.5059 19.5615 20.5059 18.1523V3.26371C20.5059 1.85449 19.3594 0.708008 17.9502 0.708008ZM19.3278 18.1523C19.3278 18.912 18.7098 19.53 17.9502 19.53H3.06152C2.30188 19.53 1.68387 18.912 1.68387 18.1523V16.0036L5.56102 12.7048C5.7025 12.5844 5.90891 12.5832 6.05172 12.7018L8.48039 14.7186C8.71457 14.913 9.05832 14.897 9.27352 14.6816L15.0442 8.90215C15.1485 8.79766 15.2701 8.7875 15.3336 8.79074C15.3968 8.79398 15.517 8.81656 15.61 8.93121L19.3279 13.5089L19.3278 18.1523ZM19.3278 11.6402L16.5245 8.18844C16.2464 7.84609 15.8344 7.6368 15.3939 7.61418C14.9537 7.59191 14.5221 7.75762 14.2105 8.06973L8.81961 13.469L6.80438 11.7956C6.22004 11.3104 5.37613 11.3154 4.79762 11.8076L1.68387 14.4569V3.26371C1.68387 2.50406 2.30188 1.88605 3.06152 1.88605H17.9502C18.7098 1.88605 19.3278 2.50406 19.3278 3.26371V11.6402Z" fill="#1D5BBF"/>
</svg>
