<svg width="46" height="46" viewBox="0 0 46 46" fill="none" xmlns="http://www.w3.org/2000/svg">
<path fill-rule="evenodd" clip-rule="evenodd" d="M23 0C35.7345 0 46 10.3421 46 23C46 29.3512 43.4255 35.1013 39.2634 39.2634C34.9514 43.5753 29.1406 46 23 46C16.8116 46 11.1125 43.6394 6.73664 39.2634C-2.24553 30.2813 -2.24553 15.7187 6.73654 6.73658C10.8987 2.57443 16.6488 0 23 0ZM30.0459 31.8692C30.0459 31.4843 30.358 31.1722 30.7429 31.1722C31.1278 31.1722 31.4399 31.4843 31.4399 31.8692V42.8955C34.1604 41.7399 36.5961 40.0432 38.6122 37.9358C38.196 31.3399 33.6076 25.7122 27.3231 23.8929C24.721 25.673 21.2788 25.6731 18.6767 23.8929C12.3922 25.7122 7.80385 31.3398 7.3876 37.9358C9.4047 40.0438 11.8383 41.7396 14.5601 42.8955V31.8692C14.5601 31.4843 14.8721 31.1722 15.257 31.1722C15.6419 31.1722 15.954 31.4843 15.954 31.8692V43.4308C20.5009 44.9985 25.499 44.9987 30.0458 43.4308L30.0459 31.8692ZM6.13868 36.5109C7.04247 30.2068 11.4524 24.9154 17.4322 22.8308C14.5771 19.8155 14.6425 15.0762 17.579 12.1397C20.573 9.14568 25.427 9.14568 28.4211 12.1397C31.3575 15.0761 31.423 19.8154 28.5679 22.8308C34.5479 24.9154 38.9576 30.2067 39.8614 36.5109C46.1575 28.6636 46.1873 17.4979 39.9724 9.62355C31.9705 -0.514866 16.8925 -1.44828 7.72209 7.72213C-0.0651122 15.5094 -0.75537 27.9184 6.13858 36.5108L6.13868 36.5109ZM27.4356 13.1253C24.9859 10.6758 21.0142 10.6758 18.5647 13.1253C16.1151 15.5749 16.1151 19.5468 18.5647 21.9963C21.0142 24.4459 24.986 24.446 27.4356 21.9963C29.8851 19.5468 29.8851 15.5749 27.4356 13.1253Z" fill="#232323"/>
</svg>
