<svg width="35" height="35" viewBox="0 0 35 35" fill="none" xmlns="http://www.w3.org/2000/svg">
<rect x="0.5" y="0.5" width="34" height="34" rx="1.5" stroke="#1D5BBF" style="stroke:#1D5BBF;stroke:color(display-p3 0.1137 0.3569 0.7490);stroke-opacity:1;"/>
<path d="M22.0448 6H11.9552C8.67145 6 6 8.67145 6 11.9552V22.045C6 25.3286 8.67145 28 11.9552 28H22.045C25.3286 28 28 25.3286 28 22.045V11.9552C28 8.67145 25.3286 6 22.0448 6ZM26.7103 22.045C26.7103 24.6174 24.6174 26.7103 22.0448 26.7103H11.9552C9.38261 26.7103 7.28973 24.6174 7.28973 22.045V11.9552C7.28973 9.38261 9.38261 7.28973 11.9552 7.28973H22.045C24.6174 7.28973 26.7103 9.38261 26.7103 11.9552V22.045Z" fill="#1D5BBF" style="fill:#1D5BBF;fill:color(display-p3 0.1137 0.3569 0.7490);fill-opacity:1;"/>
<path d="M16.9998 10.9844C13.6828 10.9844 10.9844 13.6828 10.9844 16.9998C10.9844 20.3168 13.6828 23.0153 16.9998 23.0153C20.3168 23.0153 23.0153 20.3168 23.0153 16.9998C23.0153 13.6828 20.3168 10.9844 16.9998 10.9844ZM16.9998 21.7256C14.3942 21.7256 12.2741 19.6057 12.2741 16.9998C12.2741 14.3942 14.3942 12.2741 16.9998 12.2741C19.6057 12.2741 21.7256 14.3942 21.7256 16.9998C21.7256 19.6057 19.6057 21.7256 16.9998 21.7256Z" fill="#1D5BBF" style="fill:#1D5BBF;fill:color(display-p3 0.1137 0.3569 0.7490);fill-opacity:1;"/>
<path d="M23.1584 8.84766C22.1781 8.84766 21.3809 9.6451 21.3809 10.6252C21.3809 11.6054 22.1781 12.4028 23.1584 12.4028C24.1386 12.4028 24.936 11.6054 24.936 10.6252C24.936 9.64493 24.1386 8.84766 23.1584 8.84766ZM23.1584 11.1129C22.8895 11.1129 22.6706 10.894 22.6706 10.6252C22.6706 10.3561 22.8895 10.1374 23.1584 10.1374C23.4274 10.1374 23.6463 10.3561 23.6463 10.6252C23.6463 10.894 23.4274 11.1129 23.1584 11.1129Z" fill="#1D5BBF" style="fill:#1D5BBF;fill:color(display-p3 0.1137 0.3569 0.7490);fill-opacity:1;"/>
</svg>
