<svg xmlns="http://www.w3.org/2000/svg" width="52" height="52" viewBox="0 0 52 52" fill="none">
<path d="M25.9993 8.66797C28.2979 8.66797 30.5023 9.58106 32.1276 11.2064C33.7529 12.8317 34.666 15.0361 34.666 17.3346C34.666 19.6332 33.7529 21.8376 32.1276 23.4629C30.5023 25.0882 28.2979 26.0013 25.9993 26.0013C23.7008 26.0013 21.4964 25.0882 19.8711 23.4629C18.2458 21.8376 17.3327 19.6332 17.3327 17.3346C17.3327 15.0361 18.2458 12.8317 19.8711 11.2064C21.4964 9.58106 23.7008 8.66797 25.9993 8.66797ZM25.9993 30.3346C35.576 30.3346 43.3327 34.213 43.3327 39.0013V43.3346H8.66602V39.0013C8.66602 34.213 16.4227 30.3346 25.9993 30.3346Z" fill="#1D5BBF"/>
</svg>