<svg width="22" height="25" viewBox="0 0 22 25" fill="none" xmlns="http://www.w3.org/2000/svg">
<path d="M17.0834 24.9992H2.50001C1.83757 24.9973 1.20283 24.7332 0.73442 24.2648C0.266006 23.7964 0.00197841 23.1617 0 22.4992C0.00103922 20.5811 0.511595 18.6977 1.47944 17.0417C2.44728 15.3857 3.83766 14.0165 5.50834 13.0742C7.00287 14.3202 8.8876 15.0015 10.8334 14.9992C12.223 15.0019 13.5907 14.6521 14.8084 13.9826C14.6575 14.3001 14.5806 14.6477 14.5834 14.9992V16.2492H13.3334C12.6703 16.2492 12.0344 16.5126 11.5656 16.9815C11.0967 17.4503 10.8334 18.0862 10.8334 18.7492C10.8334 19.4123 11.0967 20.0482 11.5656 20.517C12.0344 20.9858 12.6703 21.2492 13.3334 21.2492H14.5834V22.4992C14.5853 23.1617 14.8494 23.7964 15.3178 24.2648C15.7862 24.7332 16.4209 24.9973 17.0834 24.9992Z" fill="#1D5BBF" style="fill:#1D5BBF;fill:color(display-p3 0.1137 0.3569 0.7490);fill-opacity:1;"/>
<path d="M10.8346 13.3334C14.5166 13.3334 17.5013 10.3486 17.5013 6.66668C17.5013 2.98477 14.5166 0 10.8346 0C7.15274 0 4.16797 2.98477 4.16797 6.66668C4.16797 10.3486 7.15274 13.3334 10.8346 13.3334Z" fill="#1D5BBF" style="fill:#1D5BBF;fill:color(display-p3 0.1137 0.3569 0.7490);fill-opacity:1;"/>
<path d="M20.8333 17.916H17.9167V14.9994C17.9167 14.7783 17.8289 14.5664 17.6726 14.4101C17.5163 14.2538 17.3044 14.166 17.0833 14.166C16.8623 14.166 16.6504 14.2538 16.4941 14.4101C16.3378 14.5664 16.25 14.7783 16.25 14.9994V17.916H13.3333C13.1123 17.916 12.9004 18.0038 12.7441 18.1601C12.5878 18.3164 12.5 18.5283 12.5 18.7494C12.5 18.9704 12.5878 19.1823 12.7441 19.3386C12.9004 19.4949 13.1123 19.5827 13.3333 19.5827H16.25V22.4994C16.25 22.7204 16.3378 22.9323 16.4941 23.0886C16.6504 23.2449 16.8623 23.3327 17.0833 23.3327C17.3044 23.3327 17.5163 23.2449 17.6726 23.0886C17.8289 22.9323 17.9167 22.7204 17.9167 22.4994V19.5827H20.8333C21.0544 19.5827 21.2663 19.4949 21.4226 19.3386C21.5789 19.1823 21.6667 18.9704 21.6667 18.7494C21.6667 18.5283 21.5789 18.3164 21.4226 18.1601C21.2663 18.0038 21.0544 17.916 20.8333 17.916Z" fill="#1D5BBF" style="fill:#1D5BBF;fill:color(display-p3 0.1137 0.3569 0.7490);fill-opacity:1;"/>
</svg>
