<svg width="24" height="24" viewBox="0 0 24 24" fill="none" xmlns="http://www.w3.org/2000/svg">
<path d="M12 24C18.6274 24 24 18.6274 24 12C24 5.37258 18.6274 0 12 0C5.37258 0 0 5.37258 0 12C0 18.6274 5.37258 24 12 24Z" fill="#D9E4F2" style="fill:#D9E4F2;fill:color(display-p3 0.8510 0.8941 0.9490);fill-opacity:1;"/>
<path d="M21.6311 19.1532C20.5119 17.6548 19.0587 16.4382 17.3869 15.5999C15.7151 14.7616 13.8708 14.3248 12.0006 14.3242C10.1305 14.3236 8.28592 14.7593 6.6136 15.5965C4.94128 16.4337 3.48729 17.6495 2.36719 19.1471C3.4816 20.6524 4.93321 21.8756 6.60563 22.7186C8.27805 23.5616 10.1247 24.0011 11.9976 24.0016C13.8705 24.0022 15.7175 23.564 17.3904 22.722C19.0634 21.88 20.5157 20.6577 21.6311 19.1532Z" fill="#9CC1FE" style="fill:#9CC1FE;fill:color(display-p3 0.6118 0.7569 0.9961);fill-opacity:1;"/>
<path d="M12.0006 12.7747C14.5661 12.7747 16.6458 10.695 16.6458 8.12953C16.6458 5.56408 14.5661 3.48438 12.0006 3.48438C9.43518 3.48438 7.35547 5.56408 7.35547 8.12953C7.35547 10.695 9.43518 12.7747 12.0006 12.7747Z" fill="#9CC1FE" style="fill:#9CC1FE;fill:color(display-p3 0.6118 0.7569 0.9961);fill-opacity:1;"/>
</svg>
