<svg width="23" height="20" viewBox="0 0 23 20" fill="none" xmlns="http://www.w3.org/2000/svg">
<path d="M10.5062 3.61281L11.3811 5.19358L12.2561 3.6128C12.6879 2.83262 13.3179 2.1802 14.0826 1.72142C14.8388 1.26768 15.7002 1.01925 16.5815 1.00042C18.0084 1.07017 19.3511 1.69777 20.32 2.7486C21.2955 3.80669 21.8127 5.20786 21.7584 6.64602L21.7577 6.66486V6.68372C21.7577 8.51001 20.7827 10.5472 19.2177 12.6029C17.6707 14.635 15.6469 16.5559 13.7722 18.1284L13.7715 18.129C13.1021 18.6916 12.2556 19 11.3811 19C10.5067 19 9.66021 18.6916 8.99074 18.129L8.99005 18.1284C7.11535 16.5559 5.0916 14.635 3.54461 12.6029C1.9796 10.5472 1.00459 8.51001 1.00459 6.68372V6.66486L1.00388 6.64602C0.949611 5.20786 1.46674 3.80669 2.44228 2.7486C3.41113 1.69777 4.75392 1.07017 6.18074 1.00042C7.06211 1.01925 7.9235 1.26768 8.67973 1.72142C9.44436 2.1802 10.0744 2.83262 10.5062 3.61281Z" fill="white" stroke="#18283D" stroke-width="2"/>
</svg>
