<svg width="35" height="35" viewBox="0 0 35 35" fill="none" xmlns="http://www.w3.org/2000/svg">
<rect x="0.5" y="0.5" width="34" height="34" rx="1.5" stroke="#1D5BBF" style="stroke:#1D5BBF;stroke:color(display-p3 0.1137 0.3569 0.7490);stroke-opacity:1;"/>
<path d="M28.0007 27.9995V19.942C28.0007 15.982 27.1482 12.957 22.5282 12.957C20.3007 12.957 18.8157 14.167 18.2107 15.322H18.1557V13.3145H13.7832V27.9995H18.3482V20.712C18.3482 18.787 18.7057 16.9445 21.0707 16.9445C23.4082 16.9445 23.4357 19.117 23.4357 20.822V27.972H28.0007V27.9995Z" fill="#1D5BBF" style="fill:#1D5BBF;fill:color(display-p3 0.1137 0.3569 0.7490);fill-opacity:1;"/>
<path d="M6.35742 13.3164H10.9224V28.0014H6.35742V13.3164Z" fill="#1D5BBF" style="fill:#1D5BBF;fill:color(display-p3 0.1137 0.3569 0.7490);fill-opacity:1;"/>
<path d="M8.64 6C7.1825 6 6 7.1825 6 8.64C6 10.0975 7.1825 11.3075 8.64 11.3075C10.0975 11.3075 11.28 10.0975 11.28 8.64C11.28 7.1825 10.0975 6 8.64 6Z" fill="#1D5BBF" style="fill:#1D5BBF;fill:color(display-p3 0.1137 0.3569 0.7490);fill-opacity:1;"/>
</svg>
