<svg width="35" height="35" viewBox="0 0 35 35" fill="none" xmlns="http://www.w3.org/2000/svg">
<rect x="0.5" y="0.5" width="34" height="34" rx="1.5" stroke="#1D5BBF" style="stroke:#1D5BBF;stroke:color(display-p3 0.1137 0.3569 0.7490);stroke-opacity:1;"/>
<path d="M18.7993 17.0459C18.5821 17.0459 18.365 16.9632 18.1996 16.7973C16.8767 15.4745 14.7243 15.4741 13.401 16.7973C13.0702 17.1286 12.5324 17.1286 12.2016 16.7973C11.8703 16.4661 11.8703 15.9291 12.2016 15.5979C14.186 13.613 17.4149 13.6134 19.399 15.5979C19.7302 15.9291 19.7302 16.4661 19.399 16.7973C19.2336 16.9632 19.016 17.0459 18.7993 17.0459Z" fill="#1D5BBF" style="fill:#1D5BBF;fill:color(display-p3 0.1137 0.3569 0.7490);fill-opacity:1;"/>
<path d="M18.1968 21.8853C16.8934 21.8853 15.5901 21.3891 14.598 20.3971C14.2668 20.0658 14.2668 19.5289 14.598 19.1977C14.9289 18.8664 15.4667 18.8664 15.7975 19.1977C17.1203 20.5205 19.2728 20.5209 20.596 19.1977C20.9269 18.8664 21.4647 18.8664 21.7955 19.1977C22.1267 19.5289 22.1267 20.0658 21.7955 20.3971C20.803 21.3891 19.4997 21.8853 18.1968 21.8853Z" fill="#1D5BBF" style="fill:#1D5BBF;fill:color(display-p3 0.1137 0.3569 0.7490);fill-opacity:1;"/>
<path d="M21.1978 20.6496C20.9806 20.6496 20.7635 20.5669 20.598 20.4011C20.2668 20.0698 20.2668 19.5329 20.598 19.2016L25.3364 14.4633C25.6672 14.132 26.205 14.132 26.5358 14.4633C26.8671 14.7945 26.8671 15.3315 26.5358 15.6627L21.7975 20.4011C21.6321 20.5669 21.4149 20.6496 21.1978 20.6496Z" fill="#1D5BBF" style="fill:#1D5BBF;fill:color(display-p3 0.1137 0.3569 0.7490);fill-opacity:1;"/>
<path d="M14.061 27.7826C13.8439 27.7826 13.6267 27.6999 13.4613 27.534C13.1301 27.2028 13.1301 26.6658 13.4613 26.3346L16.11 23.6859C16.4408 23.3547 16.9786 23.3547 17.3094 23.6859C17.6407 24.0172 17.6407 24.5541 17.3094 24.8854L14.6608 27.534C14.4953 27.6999 14.2782 27.7826 14.061 27.7826Z" fill="#1D5BBF" style="fill:#1D5BBF;fill:color(display-p3 0.1137 0.3569 0.7490);fill-opacity:1;"/>
<path d="M8.06299 21.7898C7.84584 21.7898 7.62869 21.7071 7.46328 21.5413C7.13203 21.21 7.13203 20.6731 7.46328 20.3418L12.2016 15.6039C12.5329 15.2727 13.0702 15.2727 13.401 15.6039C13.7323 15.9351 13.7323 16.4721 13.401 16.8033L8.66271 21.5413C8.49687 21.7067 8.27972 21.7898 8.06299 21.7898Z" fill="#1D5BBF" style="fill:#1D5BBF;fill:color(display-p3 0.1137 0.3569 0.7490);fill-opacity:1;"/>
<path d="M17.2896 12.5603C17.0724 12.5603 16.8557 12.4776 16.6898 12.3122C16.3586 11.981 16.3586 11.444 16.6898 11.1124L19.3385 8.46328C19.6698 8.13203 20.2067 8.13203 20.5384 8.46328C20.8696 8.79452 20.8696 9.33146 20.5384 9.66313L17.8897 12.3122C17.7239 12.4772 17.5063 12.5603 17.2896 12.5603Z" fill="#1D5BBF" style="fill:#1D5BBF;fill:color(display-p3 0.1137 0.3569 0.7490);fill-opacity:1;"/>
<path d="M11.062 28.9994C9.75013 28.9994 8.4383 28.5116 7.46324 27.5361C5.51225 25.5851 5.51225 22.2893 7.46324 20.3383C7.79406 20.007 8.33185 20.007 8.66267 20.3383C8.99391 20.6695 8.99391 21.2065 8.66267 21.5377C7.36229 22.8381 7.36229 25.0359 8.66267 26.3363C9.96304 27.6366 12.1609 27.6366 13.4612 26.3363C13.7921 26.005 14.3298 26.005 14.6607 26.3363C14.9919 26.6675 14.9919 27.2045 14.6607 27.5357C13.6856 28.5116 12.3738 28.9994 11.062 28.9994Z" fill="#1D5BBF" style="fill:#1D5BBF;fill:color(display-p3 0.1137 0.3569 0.7490);fill-opacity:1;"/>
<path d="M25.936 15.9092C25.7188 15.9092 25.5017 15.8265 25.3363 15.6607C25.005 15.3294 25.005 14.7925 25.3363 14.4612C26.6366 13.1609 26.6366 10.963 25.3363 9.66267C24.0359 8.36229 21.8381 8.36229 20.5377 9.66267C20.2069 9.99391 19.6691 9.99391 19.3383 9.66267C19.007 9.33142 19.007 8.79448 19.3383 8.46324C21.2893 6.51225 24.5851 6.51225 26.5361 8.46324C28.4871 10.4142 28.4871 13.7101 26.5361 15.6611C26.3703 15.8265 26.1531 15.9092 25.936 15.9092Z" fill="#1D5BBF" style="fill:#1D5BBF;fill:color(display-p3 0.1137 0.3569 0.7490);fill-opacity:1;"/>
</svg>
