<svg width="27" height="25" viewBox="0 0 27 25" fill="none" xmlns="http://www.w3.org/2000/svg">
<path d="M24.1123 11.2718L20.1653 15.2037C18.9153 16.4508 17.2494 17.139 15.4803 17.139C13.7112 17.139 12.0454 16.4522 10.7953 15.2037C10.3865 14.7963 10.3865 14.1359 10.7953 13.7285C11.2041 13.3198 11.8668 13.3226 12.2756 13.7285C13.9903 15.4373 16.9759 15.4373 18.6878 13.7285L22.6348 9.79666C24.4025 8.03511 24.4025 5.16823 22.6348 3.40528C20.8643 1.64234 17.9888 1.64512 16.2212 3.40528L14.2484 5.37261C13.8396 5.77998 13.1769 5.77998 12.7681 5.37261C12.3593 4.96663 12.3593 4.30483 12.7681 3.89746L14.7409 1.93014C17.3247 -0.641988 21.5298 -0.644769 24.1137 1.93014C26.6976 4.50643 26.6976 8.69552 24.1137 11.2704L24.1123 11.2718ZM12.7667 19.6291L10.7939 21.5951C9.0262 23.3538 6.15073 23.3566 4.38025 21.5951C2.61255 19.8321 2.61255 16.9666 4.38025 15.2037L8.32722 11.2718C10.0391 9.56448 13.0276 9.56448 14.7395 11.2718C15.1483 11.6792 15.811 11.6792 16.2198 11.2718C16.6285 10.8658 16.6285 10.204 16.2198 9.79666C14.9697 8.54953 13.3038 7.8627 11.5347 7.8627C9.76565 7.8627 8.0998 8.54953 6.84972 9.79666L2.90275 13.7285C0.318875 16.3048 0.318875 20.4925 2.90275 23.0688C4.19469 24.3563 5.89262 25 7.58777 25C9.28292 25 10.9836 24.3563 12.2742 23.0688L14.247 21.1029C14.6558 20.6955 14.6558 20.0351 14.247 19.6277C13.8382 19.2204 13.1755 19.2204 12.7667 19.6277V19.6291Z" fill="#1D5BBF"/>
</svg>
