<svg width="13" height="17" viewBox="0 0 13 17" fill="none" xmlns="http://www.w3.org/2000/svg">
<path d="M6.53968 0.0244141C3.37581 0.0244141 0.804688 2.5956 0.804688 5.75941C0.804688 6.82994 1.10106 7.87183 1.66497 8.77032L6.15092 16.1116C6.22745 16.2358 6.34215 16.3123 6.47599 16.3314C6.65754 16.3601 6.85836 16.2836 6.96347 16.102L11.4623 8.69382C11.9975 7.81448 12.2747 6.79174 12.2747 5.75941C12.2747 2.5956 9.70355 0.0244141 6.53968 0.0244141ZM6.53968 8.62691C4.93395 8.62691 3.67219 7.32698 3.67219 5.75941C3.67219 4.18225 4.96253 2.89191 6.53968 2.89191C8.11684 2.89191 9.40718 4.18225 9.40718 5.75941C9.40718 7.31742 8.16457 8.62691 6.53968 8.62691Z" fill="white" style="fill:white;fill-opacity:1;"/>
<path d="M6.53906 0.0244141V2.89191C8.11622 2.89191 9.40656 4.18225 9.40656 5.75941C9.40656 7.31742 8.16395 8.62691 6.53906 8.62691V16.337C6.70216 16.3408 6.86988 16.2626 6.96281 16.102L11.4616 8.69382C11.9968 7.81448 12.2741 6.79174 12.2741 5.75941C12.2741 2.5956 9.70293 0.0244141 6.53906 0.0244141Z" fill="white" style="fill:white;fill-opacity:1;"/>
</svg>
