<svg width="16" height="23" viewBox="0 0 16 23" fill="none" xmlns="http://www.w3.org/2000/svg">
<path d="M8 0C3.58658 0 0 3.58667 0 8C0 9.49333 0.413422 10.9467 1.20004 12.2L7.45769 22.4407C7.56444 22.614 7.72444 22.7207 7.91116 22.7474C8.1644 22.7873 8.44453 22.6807 8.59116 22.4274L14.8667 12.0933C15.6133 10.8667 16 9.44004 16 8C16 3.58667 12.4134 0 8 0ZM8 12C5.76009 12 4 10.1867 4 8C4 5.79996 5.79996 4 8 4C10.2 4 12 5.79996 12 8C12 10.1733 10.2666 12 8 12Z" fill="#FD003A" style="fill:#FD003A;fill:color(display-p3 0.9922 0.0000 0.2275);fill-opacity:1;"/>
<path d="M8 0V4C10.2 4 12 5.79996 12 8C12 10.1733 10.2666 12 8 12V22.7552C8.22751 22.7604 8.46147 22.6514 8.59111 22.4274L14.8667 12.0933C15.6133 10.8667 16 9.44004 16 8C16 3.58667 12.4134 0 8 0Z" fill="#E50027" style="fill:#E50027;fill:color(display-p3 0.8980 0.0000 0.1529);fill-opacity:1;"/>
</svg>
