<svg width="35" height="35" viewBox="0 0 35 35" fill="none" xmlns="http://www.w3.org/2000/svg">
<rect width="35" height="35" rx="2" fill="#EEF5FF" style="fill:#EEF5FF;fill:color(display-p3 0.9333 0.9608 1.0000);fill-opacity:1;"/>
<path d="M30.0338 29H28.9702L12.478 27.6489L3 19.4794V7.02131C3 6.45724 3.45724 6 4.02131 6H30.0338C30.5978 6 31.0551 6.45724 31.0551 7.02131V27.9787C31.0551 28.5427 30.5977 29 30.0338 29Z" fill="#1D5BBF" style="fill:#1D5BBF;fill:color(display-p3 0.1137 0.3569 0.7490);fill-opacity:1;"/>
<path d="M4.0209 29.0003H28.9703L19.2069 19.237C18.8082 18.8383 18.1619 18.8383 17.7632 19.237L15.6214 21.3788C15.422 21.5781 15.0989 21.5781 14.8995 21.3788L8.72211 15.2013C8.32339 14.8026 7.6771 14.8027 7.27838 15.2013L3 19.4797V27.9795C3.0001 28.5433 3.45714 29.0003 4.0209 29.0003Z" fill="#6CB2F9" style="fill:#6CB2F9;fill:color(display-p3 0.4225 0.6987 0.9749);fill-opacity:1;"/>
<path d="M23.5145 15.2086C24.5893 15.2086 25.4606 14.3373 25.4606 13.2625C25.4606 12.1877 24.5893 11.3164 23.5145 11.3164C22.4397 11.3164 21.5684 12.1877 21.5684 13.2625C21.5684 14.3373 22.4397 15.2086 23.5145 15.2086Z" fill="#6CB2F9" style="fill:#6CB2F9;fill:color(display-p3 0.4225 0.6987 0.9749);fill-opacity:1;"/>
</svg>
