<svg width="9" height="6" viewBox="0 0 9 6" fill="none" xmlns="http://www.w3.org/2000/svg">
<path d="M4.37795 5.8222C4.44879 5.82269 4.51903 5.80641 4.58461 5.77429C4.6502 5.74217 4.70986 5.69485 4.76016 5.63503L7.99012 1.76255C8.09149 1.64101 8.14844 1.47618 8.14844 1.3043C8.14844 1.13243 8.09149 0.967595 7.99012 0.846061C7.88875 0.724527 7.75127 0.65625 7.60791 0.65625C7.46455 0.65625 7.32706 0.724527 7.2257 0.846061L4.37795 4.26675L1.5302 0.852515C1.42721 0.746779 1.29474 0.691528 1.15926 0.697802C1.02378 0.704076 0.895257 0.771414 0.799384 0.886358C0.703511 1.0013 0.647347 1.15539 0.642114 1.31782C0.63688 1.48026 0.682964 1.63908 0.771156 1.76255L4.00112 5.63503C4.10139 5.75427 4.23672 5.82149 4.37795 5.8222Z" fill="white"/>
</svg>
