<svg width="26" height="25" viewBox="0 0 26 25" fill="none" xmlns="http://www.w3.org/2000/svg">
<path d="M23.4 0H2.6C1.16653 0 0 1.16653 0 2.6V16.4667C0 17.9001 1.16653 19.0667 2.6 19.0667H5.2V23.4C5.2 23.7337 5.39153 24.0361 5.69053 24.1809C5.811 24.2381 5.93927 24.2667 6.06667 24.2667C6.25993 24.2667 6.45147 24.2025 6.60833 24.0769L12.8709 19.0667H23.4C24.8335 19.0667 26 17.9001 26 16.4667V2.6C26 1.16653 24.8335 0 23.4 0ZM13 12.1333H6.06667C5.5874 12.1333 5.2 11.7451 5.2 11.2667C5.2 10.7883 5.5874 10.4 6.06667 10.4H13C13.4793 10.4 13.8667 10.7883 13.8667 11.2667C13.8667 11.7451 13.4793 12.1333 13 12.1333ZM19.9333 8.66667H6.06667C5.5874 8.66667 5.2 8.2784 5.2 7.8C5.2 7.3216 5.5874 6.93333 6.06667 6.93333H19.9333C20.4126 6.93333 20.8 7.3216 20.8 7.8C20.8 8.2784 20.4126 8.66667 19.9333 8.66667Z" fill="white" style="fill:white;fill-opacity:1;"/>
</svg>
