<svg width="25" height="25" viewBox="0 0 25 25" fill="none" xmlns="http://www.w3.org/2000/svg">
<path d="M21.2499 7.49977C23.3211 7.49977 24.9998 5.82111 24.9998 3.74988C24.9998 1.67866 23.3205 0 21.2499 0C19.1792 0 17.5 1.67866 17.5 3.74988C17.5 5.82111 19.1787 7.49977 21.2499 7.49977Z" fill="#1D5BBF" style="fill:#1D5BBF;fill:color(display-p3 0.1137 0.3569 0.7490);fill-opacity:1;"/>
<path d="M22.2491 9.27475C22.2239 9.27475 22.1993 9.28705 22.1741 9.28705C22.0493 9.31225 21.9239 9.32455 21.7868 9.34975C21.2618 9.39955 20.6994 9.37494 20.1246 9.26245C19.9746 9.22495 19.8498 9.19975 19.7121 9.14995C19.2996 9.04976 18.9123 8.88746 18.5496 8.67477C18.3996 8.59977 18.2496 8.49958 18.1119 8.41228C17.512 7.99979 16.9993 7.48711 16.5868 6.88713C16.4995 6.74944 16.3993 6.59944 16.3243 6.44945C16.1116 6.08676 15.9493 5.69947 15.8491 5.28698C15.7993 5.14929 15.7741 5.02449 15.7366 4.8745C15.6241 4.29971 15.5989 3.73723 15.6493 3.21224C15.6745 3.07455 15.6868 2.94975 15.712 2.82495C15.712 2.79976 15.7243 2.77515 15.7243 2.74995C15.8743 1.97478 15.2995 1.25 14.4992 1.25H6.89979C6.7246 1.25 6.54999 1.2623 6.38711 1.27519C6.23711 1.2875 6.09942 1.30039 5.94942 1.325C5.79943 1.3373 5.64943 1.3625 5.51174 1.38769C2.50012 1.82537 0.574787 3.73781 0.137691 6.76233C0.112496 6.90002 0.0878879 7.05001 0.0749977 7.20001C0.0498031 7.35 0.0374988 7.4877 0.0251945 7.63769C0.0128902 7.79999 0 7.97518 0 8.15037V18.0999C0 18.2751 0.0123043 18.4497 0.0251945 18.6125C0.0374988 18.7625 0.0503891 18.9002 0.0749977 19.0502C0.087302 19.2002 0.112496 19.3502 0.137691 19.4879C0.575373 22.513 2.50012 24.4254 5.51233 24.8625C5.65002 24.8877 5.80001 24.9123 5.95001 24.9252C6.10001 24.9504 6.2377 24.9627 6.38769 24.975C6.54999 24.9873 6.72518 25.0002 6.90037 25.0002H16.8499C17.0251 25.0002 17.1997 24.9879 17.3625 24.975C17.5125 24.9627 17.6502 24.9498 17.8002 24.9252C17.9502 24.9129 18.1002 24.8877 18.2379 24.8625C21.2501 24.4249 23.1754 22.5124 23.6125 19.4879C23.6377 19.3502 23.6623 19.2002 23.6752 19.0502C23.7004 18.9002 23.7127 18.7625 23.725 18.6125C23.7373 18.4502 23.7502 18.2751 23.7502 18.0999V10.4999C23.7502 9.70013 23.0255 9.12475 22.2503 9.27475H22.2491ZM5.93712 13.1248H12.1871C12.6998 13.1248 13.1246 13.5496 13.1246 14.0623C13.1246 14.575 12.6998 14.9998 12.1871 14.9998H5.93712C5.42444 14.9998 4.99965 14.575 4.99965 14.0623C4.99965 13.5496 5.42444 13.1248 5.93712 13.1248ZM17.1868 19.9994H5.93712C5.42444 19.9994 4.99965 19.5746 4.99965 19.0619C4.99965 18.5493 5.42444 18.1245 5.93712 18.1245H17.1868C17.6994 18.1245 18.1242 18.5493 18.1242 19.0619C18.1242 19.5746 17.6994 19.9994 17.1868 19.9994Z" fill="#00AEBD" style="fill:#00AEBD;fill:color(display-p3 0.0000 0.6824 0.7412);fill-opacity:1;"/>
</svg>
