<svg width="39" height="36" viewBox="0 0 39 36" fill="none" xmlns="http://www.w3.org/2000/svg">
<path d="M15.0673 35.7363C23.3888 35.7363 30.1347 28.9904 30.1347 20.6689C30.1347 12.3474 23.3888 5.60156 15.0673 5.60156C6.74588 5.60156 0 12.3474 0 20.6689C0 28.9904 6.74588 35.7363 15.0673 35.7363Z" fill="#E8E8E8"/>
<path d="M15.2378 32.313L15.0467 31.9873C12.1274 27.0135 4.36995 16.4584 4.29159 16.3524L4.17969 16.2003L6.82262 13.5884L15.1887 19.4302C20.4562 12.5948 25.3704 7.89999 28.576 5.15838C32.0825 2.15934 34.3651 0.778676 34.3881 0.765445L34.44 0.734375H38.9232L38.4949 1.11575C27.4813 10.9256 15.5437 31.7754 15.4248 31.9849L15.2378 32.313Z" fill="url(#paint0_linear_18552_235562)"/>
<defs>
<linearGradient id="paint0_linear_18552_235562" x1="6.5" y1="24.7344" x2="39" y2="2.73438" gradientUnits="userSpaceOnUse">
<stop stop-color="#1D5BBF"/>
<stop offset="0.570223" stop-color="#00AEBD"/>
</linearGradient>
</defs>
</svg>
