<svg width="150" height="150" viewBox="0 0 150 150" fill="none" xmlns="http://www.w3.org/2000/svg">
<circle cx="75" cy="75" r="75" fill="#D1E2F4"/>
<path fill-rule="evenodd" clip-rule="evenodd" d="M37 109.179V99.1702C37 91.3411 46.058 84.3001 54.7197 82.2751C56.6346 81.8281 58.5654 81.4514 60.4891 81.0391H88.5109C90.4337 81.4514 92.3654 81.8281 94.2803 82.2751C102.942 84.3001 112 91.3411 112 99.1702V109.179C102.121 118.232 88.956 123.758 74.5 123.758C60.044 123.758 46.879 118.232 37 109.179Z" fill="#00AEBD"/>
<path fill-rule="evenodd" clip-rule="evenodd" d="M83.2772 74.1016L88.5126 81.035L83.191 94.9988L78.5625 89.4337C80.9678 84.4986 82.8756 79.137 83.2772 74.1016Z" fill="#065157"/>
<path fill-rule="evenodd" clip-rule="evenodd" d="M65.7237 74.1016L60.4883 81.035L65.8099 94.9988L70.4384 89.4337C68.0331 84.4986 66.1253 79.137 65.7237 74.1016Z" fill="#065157"/>
<path fill-rule="evenodd" clip-rule="evenodd" d="M74.4999 96.7572C78.7188 89.942 83.0292 81.0341 83.3358 73.0859H65.6641C65.9715 81.0341 70.281 89.9411 74.4999 96.7572Z" fill="white"/>
<path fill-rule="evenodd" clip-rule="evenodd" d="M82.9884 76.4358C83.1732 75.3065 83.2931 74.1869 83.3358 73.0859H65.6641C65.7067 74.1869 65.8267 75.3065 66.0115 76.4358C68.4097 78.2805 71.5961 80.0478 74.4999 80.0478C77.4038 80.0478 80.5901 78.2805 82.9884 76.4358Z" fill="#D9E4F2"/>
<path fill-rule="evenodd" clip-rule="evenodd" d="M74.5011 76.9706C77.548 76.9706 80.905 75.0256 83.337 73.0867C85.9751 70.9835 88.0064 68.3916 88.1734 66.1249C88.5191 61.427 88.7128 56.6741 88.4666 52.4943V43.1875H60.5347V52.4943C60.2886 56.6741 60.4814 61.427 60.8279 66.1249C60.995 68.3916 63.0262 70.9835 65.6644 73.0867C68.0972 75.0256 71.4542 76.9706 74.5002 76.9706H74.5011Z" fill="white"/>
<path fill-rule="evenodd" clip-rule="evenodd" d="M87.3301 64.3981C87.3425 60.6404 87.3541 56.8835 87.3665 53.1258H88.4994C91.8369 51.1043 94.7673 53.2982 94.842 57.6273C94.914 61.8044 91.5445 64.9561 88.2933 64.399H87.331L87.3301 64.3981Z" fill="white"/>
<path fill-rule="evenodd" clip-rule="evenodd" d="M61.6927 64.3981C61.6803 60.6404 61.6687 56.8835 61.6563 53.1258H60.5234C57.1859 51.1043 54.2555 53.2982 54.1808 57.6273C54.1088 61.8044 57.4783 64.9561 60.7295 64.399H61.6918L61.6927 64.3981Z" fill="white"/>
<path fill-rule="evenodd" clip-rule="evenodd" d="M93.3777 45.6874C93.3395 48.0696 93.1609 50.4474 92.7735 52.9167C90.7395 53.0891 90.975 55.0688 90.8124 59.245C90.7555 60.7112 88.7607 61.5171 88.5279 59.6493C88.4302 59.5516 88.5119 53.2517 88.4675 52.5026C88.4675 49.4246 87.515 46.2738 86.1226 44.3678H62.8813C61.489 46.2729 60.5364 49.4246 60.5364 52.5026C60.492 53.2517 60.5737 59.5516 60.476 59.6493C60.2432 61.5171 58.2484 60.7112 58.1915 59.245C58.0289 55.0688 58.2653 53.0891 56.2304 52.9167C55.843 50.4474 55.6644 48.0696 55.6262 45.6874C55.5756 42.5525 55.3055 42.7746 53.8678 39.8451C51.1248 34.2551 51.3442 30.3712 53.5852 27C59.479 31.9102 67.8937 27 74.5028 27C83.2658 27 93.5749 33.594 93.3786 45.6882L93.3777 45.6874Z" fill="#065157"/>
</svg>
