<svg width="32" height="30" viewBox="0 0 32 30" fill="none" xmlns="http://www.w3.org/2000/svg">
<path d="M31.3674 19.7081C31.5116 19.6984 31.6467 19.6341 31.7451 19.5283C31.8436 19.4224 31.8979 19.2831 31.8972 19.1386V17.6633C31.8965 16.7571 31.5362 15.8883 30.8954 15.2475C30.2546 14.6068 29.3858 14.2465 28.4796 14.2457H24.0824C24.0769 14.7804 24.0863 15.8408 24.0824 16.3703C24.0801 16.5064 24.0292 16.6372 23.9389 16.739C23.8486 16.8408 23.7249 16.907 23.5901 16.9256C23.4552 16.9442 23.3182 16.9139 23.2038 16.8403C23.0893 16.7666 23.0049 16.6545 22.966 16.5241C22.9059 15.9282 22.9615 14.8493 22.9432 14.2458C22.9432 14.2458 4.94699 14.2284 4.16372 14.2458C2.01388 14.0191 0.0322788 15.3406 0 17.6634V19.1272C0.000450755 19.2781 0.060606 19.4227 0.167328 19.5295C0.27405 19.6362 0.418666 19.6963 0.569593 19.6968C0.888939 19.6957 1.20536 19.7576 1.50071 19.8791C1.79606 20.0005 2.06454 20.1791 2.29073 20.4045C2.51693 20.63 2.69641 20.8978 2.81887 21.1927C2.94133 21.4877 3.00437 21.8039 3.00437 22.1232C3.00437 22.4426 2.94133 22.7588 2.81887 23.0537C2.69641 23.3487 2.51693 23.6165 2.29073 23.8419C2.06454 24.0674 1.79606 24.2459 1.50071 24.3674C1.20536 24.4888 0.888939 24.5508 0.569593 24.5497C0.418666 24.5501 0.27405 24.6103 0.167328 24.717C0.060606 24.8237 0.000450755 24.9684 0 25.1193V26.5831C0.000716536 27.4893 0.36101 28.3582 1.00177 28.9989C1.64253 29.6397 2.51138 30 3.41756 30.0007H22.9432C22.9432 30.0007 22.9088 27.8192 22.9716 27.7223C23.0068 27.6062 23.0784 27.5044 23.1758 27.4321C23.2733 27.3598 23.3914 27.3207 23.5128 27.3207C23.6341 27.3207 23.7522 27.3598 23.8497 27.4321C23.9471 27.5044 24.0187 27.6062 24.0539 27.7223C24.123 27.8835 24.0824 30.0007 24.0824 30.0007H28.4796C29.3858 29.9999 30.2546 29.6397 30.8954 28.9989C31.5362 28.3581 31.8965 27.4893 31.8972 26.5831V25.1079C31.897 24.9636 31.8423 24.8248 31.7441 24.7191C31.6458 24.6135 31.5113 24.5489 31.3674 24.5383C28.3863 24.2851 28.3977 19.9623 31.3674 19.7081ZM23.5128 18.6031C23.5876 18.6029 23.6618 18.6174 23.731 18.646C23.8003 18.6745 23.8632 18.7164 23.9161 18.7694C23.969 18.8223 24.011 18.8852 24.0395 18.9544C24.0681 19.0237 24.0826 19.0979 24.0824 19.1727V20.722C24.0824 20.8731 24.0223 21.018 23.9155 21.1248C23.8087 21.2316 23.6638 21.2916 23.5128 21.2916C23.3617 21.2916 23.2168 21.2316 23.11 21.1248C23.0032 21.018 22.9432 20.8731 22.9432 20.722V19.1727C22.9429 19.0979 22.9575 19.0237 22.986 18.9544C23.0145 18.8852 23.0565 18.8223 23.1094 18.7694C23.1624 18.7164 23.2253 18.6745 23.2945 18.646C23.3637 18.6174 23.4379 18.6029 23.5128 18.6031ZM14.3936 22.9093C14.5007 22.9938 14.5735 23.1142 14.5986 23.2482C14.6238 23.3822 14.5995 23.5208 14.5303 23.6384L13.6474 25.1649C13.5802 25.2823 13.4733 25.372 13.346 25.4179C13.2187 25.4638 13.0792 25.463 12.9525 25.4155L11.8589 24.994C11.8475 24.9997 11.7962 25.0111 11.7848 25.0168L11.5912 26.1958C11.5696 26.3297 11.5009 26.4514 11.3975 26.5391C11.2941 26.6268 11.1629 26.6748 11.0273 26.6743H9.26155C9.12597 26.6748 8.99468 26.6268 8.89131 26.5391C8.78793 26.4514 8.71926 26.3297 8.69765 26.1958L8.51538 25.0453C8.50968 25.0396 8.4812 25.0054 8.47551 24.9997L7.34202 25.4155C7.21443 25.463 7.07417 25.4639 6.94599 25.418C6.81781 25.3722 6.70994 25.2825 6.64142 25.1649L5.75855 23.6384C5.69206 23.5201 5.66932 23.3823 5.69432 23.249C5.71932 23.1157 5.79045 22.9954 5.89525 22.9093L6.8066 22.1688V22.0777L5.89525 21.3372C5.79079 21.2521 5.71977 21.1329 5.69475 21.0005C5.66974 20.8681 5.69233 20.7312 5.75855 20.6138L6.64142 19.0816C6.71139 18.9656 6.81967 18.8776 6.94758 18.8329C7.07549 18.7882 7.21499 18.7895 7.34202 18.8367L8.42994 19.2525C8.44133 19.2468 8.49829 19.2354 8.50968 19.2297L8.69765 18.0507C8.71926 17.9168 8.78793 17.7951 8.89131 17.7074C8.99468 17.6197 9.12597 17.5717 9.26155 17.5722H11.0273C11.1629 17.5717 11.2941 17.6197 11.3975 17.7074C11.5009 17.7951 11.5696 17.9168 11.5912 18.0507L11.7735 19.2012C11.7848 19.2069 11.8076 19.2411 11.819 19.2468L12.9525 18.8367C13.0787 18.7895 13.2174 18.7882 13.3444 18.833C13.4715 18.8778 13.5787 18.9658 13.6474 19.0816L14.5303 20.6138C14.5992 20.7304 14.6233 20.8682 14.5982 21.0013C14.573 21.1344 14.5003 21.2538 14.3936 21.3372C14.3879 21.3373 13.4899 22.0848 13.4822 22.0777C13.4719 22.0885 13.4658 22.1026 13.4651 22.1176L14.3936 22.9093ZM23.5128 25.649C23.3618 25.6486 23.2172 25.5884 23.1105 25.4817C23.0038 25.375 22.9436 25.2304 22.9432 25.0794V23.5244C22.9432 23.3734 23.0032 23.2285 23.11 23.1217C23.2168 23.0149 23.3617 22.9549 23.5128 22.9549C23.6638 22.9549 23.8087 23.0149 23.9155 23.1217C24.0223 23.2285 24.0824 23.3734 24.0824 23.5244V25.0794C24.0819 25.2304 24.0217 25.375 23.915 25.4817C23.8083 25.5884 23.6637 25.6486 23.5128 25.649Z" fill="#00AEBD"/>
<path d="M21.166 13.1059L20.0667 12.0066C19.9629 11.8994 19.9053 11.7557 19.9062 11.6065C19.9072 11.4572 19.9666 11.3143 20.0718 11.2084C20.1769 11.1025 20.3194 11.0421 20.4686 11.0401C20.6179 11.0381 20.7619 11.0947 20.8699 11.1978C21.1713 11.5011 21.8564 12.183 22.1629 12.4908L24.6121 10.0415C25.1507 9.50102 25.4536 8.7694 25.4547 8.00637C25.4557 7.24333 25.1549 6.51088 24.6177 5.96891L23.7748 5.12022C23.6732 5.01626 23.5356 4.95533 23.3903 4.95003C23.2451 4.94472 23.1033 4.99546 22.9944 5.09174C22.6375 5.3937 22.1802 5.55061 21.713 5.53141C21.2459 5.5122 20.803 5.31827 20.4721 4.98803C20.1411 4.65778 19.9462 4.2153 19.926 3.7482C19.9058 3.28111 20.0618 2.82345 20.363 2.46587C20.4587 2.35707 20.5095 2.21604 20.5053 2.07122C20.501 1.9264 20.442 1.78859 20.3401 1.68558L19.4914 0.84258C18.9498 0.303905 18.2173 0.00105789 17.4534 2.76626e-06C16.6896 -0.00105236 15.9562 0.29977 15.4131 0.836946L12.9639 3.29186C12.9639 3.29186 14.7309 4.87778 14.2569 5.38796C14.2043 5.44203 14.1414 5.48501 14.072 5.51435C14.0025 5.5437 13.9279 5.55882 13.8525 5.55882C13.777 5.55882 13.7024 5.5437 13.6329 5.51435C13.5635 5.48501 13.5006 5.44203 13.448 5.38796L12.1665 4.10638L3.67383 13.1059L21.166 13.1059ZM16.7574 7.89413C16.6503 7.99961 16.5061 8.05873 16.3558 8.05873C16.2055 8.05873 16.0613 7.99961 15.9543 7.89413L15.06 6.99987C15.0072 6.94719 14.9653 6.8846 14.9367 6.81569C14.9081 6.74678 14.8934 6.67291 14.8934 6.59831C14.8934 6.52371 14.9081 6.44984 14.9367 6.38093C14.9653 6.31203 15.0072 6.24944 15.06 6.19675C15.1675 6.09002 15.3129 6.03013 15.4644 6.03013C15.6159 6.03013 15.7613 6.09002 15.8688 6.19675L16.7574 7.08531C16.8641 7.19285 16.924 7.33821 16.924 7.48971C16.924 7.64122 16.8641 7.7866 16.7574 7.89413ZM19.2579 10.3946C19.2052 10.4474 19.1426 10.4892 19.0737 10.5178C19.0048 10.5463 18.9309 10.561 18.8563 10.561C18.7817 10.561 18.7079 10.5463 18.639 10.5178C18.5701 10.4892 18.5075 10.4474 18.4548 10.3946L17.5605 9.50039C17.5077 9.4477 17.4658 9.38511 17.4372 9.3162C17.4086 9.2473 17.3939 9.17343 17.3939 9.09882C17.3939 9.02422 17.4086 8.95035 17.4372 8.88144C17.4658 8.81254 17.5077 8.74995 17.5605 8.69726C17.668 8.59053 17.8134 8.53064 17.9649 8.53064C18.1164 8.53064 18.2618 8.59053 18.3693 8.69726L19.2579 9.59152C19.3119 9.64351 19.3549 9.70588 19.3843 9.77488C19.4136 9.84388 19.4288 9.91809 19.4288 9.99308C19.4288 10.0681 19.4136 10.1423 19.3843 10.2113C19.3549 10.2803 19.3119 10.3427 19.2579 10.3946Z" fill="#00AEBD"/>
<path d="M13.2999 20.7615L12.9012 20.0723C12.3952 20.2842 11.755 20.5728 11.238 20.2318C10.6788 19.9502 10.6197 19.2522 10.5431 18.7109H9.74567C9.67666 19.251 9.61484 19.95 9.06211 20.2261C8.53467 20.5773 7.89786 20.2807 7.38754 20.0722L6.98883 20.7615C7.42187 21.0965 8.00332 21.502 7.96277 22.1229C8.00549 22.7425 7.4186 23.1507 6.98877 23.4841L7.38749 24.1734C7.8921 23.9657 8.53629 23.6707 9.0507 24.0139C9.61809 24.2952 9.67433 24.9898 9.74555 25.5347H10.543L10.6513 24.8626C10.6817 24.6871 10.7504 24.5206 10.8526 24.3747C10.9547 24.2288 11.0877 24.1073 11.2421 24.0186C11.3966 23.93 11.5686 23.8765 11.7461 23.8619C11.9236 23.8473 12.1021 23.8719 12.2689 23.9341L12.9011 24.1734L13.2999 23.4842C12.8697 23.1519 12.2852 22.7419 12.3259 22.1285C12.2835 21.5015 12.8672 21.0976 13.2999 20.7615ZM10.1444 23.1994C9.86259 23.1949 9.59386 23.0798 9.39618 22.8789C9.1985 22.678 9.08771 22.4075 9.08772 22.1257C9.08772 21.8438 9.19852 21.5733 9.39621 21.3724C9.5939 21.1716 9.86263 21.0565 10.1444 21.052C10.4261 21.0566 10.6947 21.1718 10.8923 21.3726C11.0898 21.5735 11.2006 21.844 11.2006 22.1257C11.2006 22.4074 11.0898 22.6779 10.8922 22.8787C10.6947 23.0796 10.4261 23.1947 10.1444 23.1994Z" fill="#00AEBD"/>
</svg>
