<svg width="248" height="207" viewBox="0 0 248 207" fill="none" xmlns="http://www.w3.org/2000/svg">
<path opacity="0.1" d="M123.221 207.006C187.774 207.006 240.105 204.683 240.105 201.818C240.105 198.952 187.774 196.629 123.221 196.629C58.6684 196.629 6.33789 198.952 6.33789 201.818C6.33789 204.683 58.6684 207.006 123.221 207.006Z" fill="url(#paint0_linear_742_26944)"/>
<path opacity="0.1" d="M122.612 14.1963C129.722 28.9905 118.567 49.1159 97.695 59.1478C76.8234 69.1797 54.1393 65.319 47.0286 50.5247C39.9179 35.7305 51.0736 15.6051 71.9452 5.5732C92.8168 -4.45868 115.501 -0.597946 122.612 14.1963Z" fill="url(#paint1_linear_742_26944)"/>
<path opacity="0.1" d="M66.4923 199.992C66.4923 199.992 6.37564 166.596 42.8973 110.983C79.419 55.3699 161.261 57.9202 171.46 21.0973C181.66 -15.7252 277.941 45.8877 230.41 102.15C182.878 158.412 211.898 198.068 211.898 198.068L66.4923 199.992Z" fill="url(#paint2_linear_742_26944)"/>
<g opacity="0.1">
<path d="M24.5138 107.287C22.1638 107.287 19.8288 106.936 17.5797 106.225C10.911 104.114 5.4432 98.9669 2.57803 92.1027C-0.137359 85.5974 -0.392867 78.0957 1.8591 70.9795C4.11074 63.8636 8.63543 57.8745 14.5989 54.1156C20.8914 50.1492 28.3247 49.085 34.9934 51.1949C41.6621 53.305 47.1299 58.4526 49.9954 65.3168C52.7108 71.822 52.9663 79.3234 50.7147 86.44C48.4627 93.5559 43.938 99.545 37.9745 103.304C33.8037 105.933 29.1315 107.287 24.5138 107.287ZM28.0347 65.9108C23.5065 65.9108 18.7455 69.938 16.9087 75.7425C14.7708 82.4987 17.2587 89.5655 22.342 91.1742C27.4263 92.7845 33.5255 88.4339 35.6635 81.6776C37.8014 74.9213 35.3131 67.8546 30.2301 66.2459C29.5144 66.0188 28.7773 65.9108 28.0347 65.9108Z" fill="url(#paint3_linear_742_26944)"/>
</g>
<path d="M182.28 60.208L126.914 111.123L71.5527 60.208L122.079 24.6066C124.979 22.5635 128.849 22.5634 131.749 24.6064L182.28 60.208Z" fill="#E1F2FF"/>
<path d="M172.52 111.122H81.3145V39.413C81.3145 39.1978 81.4889 39.0234 81.704 39.0234H172.13C172.346 39.0234 172.52 39.1978 172.52 39.413V111.122Z" fill="white"/>
<path d="M182.278 60.2109V122.44C182.278 125.562 179.748 128.092 176.626 128.092H77.2028C74.0806 128.092 71.5508 125.562 71.5508 122.44V60.2109L126.917 98.4584L182.278 60.2109Z" fill="#E1F2FF"/>
<path d="M126.917 98.4593L88.8945 128.093L120.683 94.1523L126.917 98.4593Z" fill="#B5DEFF"/>
<path d="M166.983 46.4141H86.8457V53.6869H166.983V46.4141Z" fill="#E1F2FF"/>
<path d="M128.554 65.6776C128.751 65.875 128.876 66.1504 128.876 66.4517C128.876 67.0542 128.382 67.5477 127.78 67.5477H87.9405C87.6392 67.5477 87.3691 67.423 87.1716 67.2257C86.9743 67.0282 86.8496 66.753 86.8496 66.4517C86.8496 65.8491 87.3379 65.3555 87.9405 65.3555H127.78C128.081 65.3556 128.356 65.4802 128.554 65.6776Z" fill="#E1F2FF"/>
<path d="M87.1716 58.3076C86.9743 58.1102 86.8496 57.8349 86.8496 57.5336C86.8496 56.931 87.3379 56.4375 87.9405 56.4375H165.889C166.496 56.4375 166.985 56.931 166.985 57.5336C166.985 58.1362 166.497 58.6297 165.889 58.6297H87.9405C87.6392 58.6297 87.3691 58.505 87.1716 58.3076Z" fill="#E1F2FF"/>
<path d="M166.985 61.9854C166.985 62.5933 166.497 63.0816 165.889 63.0816H87.9405C87.6392 63.0816 87.3691 62.9621 87.1716 62.7594C86.9743 62.5621 86.8496 62.2868 86.8496 61.9854C86.8496 61.3829 87.3379 60.8945 87.9405 60.8945H165.889C166.497 60.8945 166.985 61.3829 166.985 61.9854Z" fill="#E1F2FF"/>
<path d="M19.8652 195.597L24.8403 196.254L26.8111 187.178L20.567 186.52L19.8652 195.597Z" fill="#FFA6BB"/>
<path d="M18.5778 201.105C19.8431 201.966 35.0959 204.369 34.8892 202.955C34.7018 201.674 27.0627 196.992 25.6305 196.125C25.4901 196.04 25.4157 195.87 25.439 195.694C25.4704 195.456 25.3203 195.24 25.1037 195.211L19.9771 194.534C19.7655 194.506 19.5766 194.669 19.5326 194.899C19.3171 196.027 18.2185 197.018 17.8493 197.947C17.44 198.985 17.3125 200.245 18.5778 201.105Z" fill="#0E0063"/>
<path d="M38.1125 196.676L43.1267 196.474L42.7556 187.246L36.8281 187.484L38.1125 196.676Z" fill="#FFA6BB"/>
<path d="M37.7815 202.32C39.175 202.952 54.6141 202.717 54.1692 201.359C53.7661 200.129 45.4401 196.82 43.881 196.209C43.7281 196.149 43.6259 195.995 43.6188 195.817C43.6091 195.577 43.4243 195.39 43.206 195.399L38.0391 195.607C37.8259 195.615 37.6675 195.808 37.6634 196.042C37.6435 197.19 36.7301 198.354 36.5248 199.332C36.2985 200.425 36.3879 201.688 37.7815 202.32Z" fill="#0E0063"/>
<path d="M17.6055 117.025L17.7311 121.901L19.4159 187.577C19.2935 188.391 23.74 189.492 26.2407 189.6C27.1789 189.642 27.844 189.543 27.8888 189.238L32.7841 144.024L33.4817 137.564L39.25 157.005L35.0686 188.72C35.2562 188.838 35.4479 188.941 35.6397 189.036C38.0425 190.231 40.8083 189.868 43.7577 188.72C43.7577 188.72 49.167 167.718 50.5173 162.519C51.8716 157.32 51.6922 154.408 51.0598 153.161C50.4398 151.937 42.9866 118.264 42.6848 116.914L17.6055 117.025Z" fill="#1D5BBF"/>
<path d="M18.125 130.925L19.8097 187.87C19.6873 188.576 24.1339 189.53 26.6346 189.624C26.2633 189.212 25.9492 188.743 25.7005 188.258C24.9049 186.683 24.6928 184.88 24.4929 183.126C22.4899 165.421 20.4829 147.716 18.4798 130.012C18.3576 130.318 18.2393 130.619 18.125 130.925Z" fill="#1D5BBF"/>
<path d="M82.9785 80.7457C83.0937 80.7523 83.2089 80.7523 83.3241 80.7585C85.7753 80.861 88.2522 80.9376 90.6586 80.477C93.1802 79.9907 95.657 78.8576 97.2891 76.8738C97.6666 76.4129 97.9995 75.8944 98.1531 75.3184C98.2747 74.8575 98.2683 74.3522 98.0826 73.9169C98.0378 73.8016 97.9803 73.6994 97.9099 73.5968C97.2507 72.6496 95.8555 72.6368 94.729 72.9121C93.3019 73.264 91.945 73.9168 90.7738 74.8193C90.409 75.0944 89.9161 75.4081 89.5385 75.1456C89.1481 74.8706 89.3082 74.2562 89.5449 73.8399C89.7753 73.4174 90.0377 72.8799 89.7434 72.5024C89.513 72.2015 89.0394 72.208 88.7193 72.4064C88.393 72.6049 88.1945 72.9439 88.0025 73.2768C87.5993 73.9808 87.1897 74.6849 86.7801 75.3887C86.6008 75.7024 86.4217 76.0096 86.2425 76.3231L83.1448 80.5216L82.9785 80.7457Z" fill="#FCB0AA"/>
<path d="M83.1445 80.5267C83.2021 80.6101 83.2597 80.6867 83.3237 80.7636C85.7749 80.866 88.2518 80.9426 90.6582 80.482C93.1798 79.9958 95.6566 78.8626 97.2887 76.8788C97.6662 76.4179 97.9991 75.8994 98.1527 75.3234C98.2743 74.8625 98.2679 74.3572 98.0822 73.9219C97.5318 75.266 96.5974 76.4501 95.407 77.2882C93.9094 78.3379 92.0214 78.8308 90.2037 78.6323C89.5702 78.5621 88.9174 78.4021 88.4245 77.9924C87.8805 77.538 87.6117 76.8467 87.2916 76.2067C87.1508 75.9251 86.9844 75.6374 86.7797 75.3939C86.6004 75.7076 86.4213 76.0149 86.2421 76.3283L83.1445 80.5267Z" fill="#FCB0AA"/>
<path d="M29.9783 80.0514L29.9892 80.0787C31.3071 82.2209 33.2109 83.9566 35.3966 85.1823C35.5051 85.2418 35.6136 85.3017 35.7166 85.3613C44.1993 90.0692 47.5783 90.7525 53.2569 91.0401C53.745 91.0618 54.244 91.0835 54.7701 91.1052C55.8549 91.1484 57.0372 91.1865 58.3497 91.2461C66.6155 91.6203 82.1489 84.8351 88.7063 80.8432C88.4693 79.2156 87.4278 77.567 86.1734 75.9132C79.1823 77.9958 61.6908 82.4108 59.4888 82.5734C57.2542 82.7416 47.6705 78.1586 42.3608 75.1431C41.0645 74.4108 40.0231 73.7707 39.4049 73.3152C37.7235 72.0839 34.8761 72.5559 32.5927 73.2717C32.4083 73.3313 32.2294 73.3965 32.0558 73.4834C29.5825 74.5951 28.5303 77.6486 29.9783 80.0514Z" fill="#D9EDFF"/>
<path d="M48.2363 87.5399C49.641 89.0478 51.3767 90.2031 53.2586 91.0383C53.7468 91.0601 54.2458 91.0818 54.7719 91.1035C55.8566 91.1467 57.0389 91.1848 58.3515 91.2444C66.6172 91.6185 82.1507 84.8334 88.708 80.8415L88.6429 80.7168L88.529 80.5703C82.8125 81.9697 77.5026 84.6763 71.8674 86.3738C64.2416 88.668 56.0519 89.0696 48.2363 87.5399Z" fill="#C5C2F2"/>
<path d="M32.3873 79.0805C33.0653 81.3639 34.2965 83.436 35.7175 85.3613C44.9269 90.4704 48.1215 90.8393 54.7709 91.1052C53.6265 89.6894 52.2218 88.4746 50.9146 87.1892C47.3892 83.718 44.4766 79.6177 42.3615 75.1431C41.0652 74.4108 40.0239 73.7707 39.4056 73.3152C37.7242 72.0839 34.8768 72.5559 32.5935 73.2717C32.409 73.3313 32.2301 73.3965 32.0565 73.4834C31.6877 75.3164 31.8504 77.2746 32.3873 79.0805Z" fill="#CEE8FF"/>
<path d="M91.7015 98.7971C91.916 98.3577 91.6262 97.8539 91.3153 97.4484C90.7591 96.7227 90.0899 96.0386 89.2304 95.5828C88.3709 95.127 87.2969 94.923 86.354 95.1882C85.7858 95.3481 85.3003 95.6631 84.7702 95.8981C83.6734 96.3844 82.365 96.5191 81.1466 96.2713C80.7768 96.1961 80.3471 96.0968 80.0552 96.2978C79.7686 96.4952 79.7826 96.8701 79.8218 97.1888C79.8665 97.5522 79.9193 97.9345 80.1685 98.2344C80.3928 98.5043 80.7456 98.6694 81.0854 98.8251C81.8043 99.1543 82.5454 99.4897 83.3485 99.5689C84.1518 99.6482 84.9501 99.464 85.7096 99.2455C86.469 99.027 87.2231 98.7704 88.0231 98.6977C88.8418 98.6234 89.4475 98.8215 90.1695 99.1278C90.6813 99.345 91.457 99.2983 91.7015 98.7971Z" fill="#FFA6BB"/>
<path d="M93.6484 99.2531C93.915 98.707 93.5547 98.0808 93.1684 97.5768C92.4771 96.675 91.6454 95.8247 90.5772 95.2581C89.509 94.6915 88.1741 94.438 87.0021 94.7677C86.296 94.9664 85.6926 95.3579 85.0337 95.65C83.6705 96.2543 82.0443 96.4218 80.53 96.1137C80.0704 96.0203 79.5363 95.8968 79.1736 96.1467C78.8174 96.392 78.8349 96.858 78.8836 97.254C78.9392 97.7057 79.0047 98.1809 79.3145 98.5536C79.5934 98.889 80.0318 99.0943 80.4543 99.2877C81.3477 99.697 82.2688 100.114 83.2669 100.212C84.2653 100.311 85.2575 100.082 86.2014 99.8102C87.1453 99.5386 88.0825 99.2198 89.0768 99.1295C90.0945 99.0371 90.8472 99.2832 91.7446 99.6641C92.3803 99.9341 93.3443 99.8759 93.6484 99.2531Z" fill="#FCB0AA"/>
<path d="M78.8984 97.3633C78.9524 97.7813 79.0333 98.2125 79.3164 98.5495C79.5928 98.8865 80.0309 99.0887 80.4556 99.2842C81.3455 99.6887 82.269 100.107 83.2667 100.208C84.2643 100.309 85.2552 100.08 86.199 99.8036C87.1428 99.5337 88.0797 99.2171 89.0774 99.1226C90.0952 99.035 90.8435 99.2776 91.7468 99.6617C91.9423 99.7496 92.1648 99.7967 92.3939 99.8102C92.2524 99.7766 92.1243 99.7226 92.003 99.6552C91.0728 99.1427 90.284 98.7924 89.1651 98.7787C88.0797 98.7655 87.0281 99.0012 85.9698 99.1967C84.9182 99.3857 83.8127 99.5203 82.7408 99.3047C81.669 99.0822 80.7185 98.5296 79.7951 97.9835C79.4782 97.7945 79.1546 97.6059 78.8984 97.3633Z" fill="#F58EA2"/>
<path d="M41.43 59.6924C41.8955 60.3047 42.6252 60.6821 43.3843 60.8165C43.9546 60.9129 44.5375 60.8793 45.1079 60.7661C45.3176 60.72 45.3637 60.4431 45.1834 60.3258C44.3069 59.7721 42.4197 58.5602 41.3587 57.7383C41.2161 57.6291 41.0063 57.7047 40.9728 57.8808C40.8596 58.5055 41.0399 59.1809 41.43 59.6924Z" fill="#AA6464"/>
<path d="M38.9568 72.7996C38.8429 72.6423 37.9046 70.8088 37.91 68.1026C37.9154 67.2999 38.0998 66.4863 38.3711 65.7271C39.0924 63.7093 40.405 62.0766 40.405 62.0766C40.405 62.0766 40.4647 62.0878 40.5731 62.0983C41.2619 62.1852 43.8761 62.4617 44.9609 61.9844C46.0781 60.5364 46.5283 58.6328 46.5555 56.4523V56.4468C46.5881 56.3763 46.626 56.3385 46.6802 56.322C47.0219 56.2299 47.765 56.3493 48.0037 56.0129C48.2423 55.6767 46.4416 52.8835 46.4416 52.8835C46.3983 52.764 46.3332 52.6501 46.2572 52.5201C46.0185 50.8548 45.6389 49.1029 45.2104 47.3079C42.9378 42.0576 38.3006 46.3802 37.0856 46.5267C35.8707 46.6731 31.0707 50.112 30.6205 51.5926C30.3493 52.4928 30.7399 55.72 31.087 58.4049C31.2443 59.5601 31.3853 60.6176 31.4721 61.3446C31.5154 61.7188 31.5426 62.0061 31.5426 62.1743C31.5588 63.438 27.3555 66.92 27.3555 66.92C27.3555 66.9362 38.447 72.5716 38.9568 72.7996Z" fill="#FCB0AA"/>
<path d="M31.0859 58.4062C31.2433 59.5615 31.3843 60.619 31.471 61.3459C31.8779 61.6606 32.3008 61.9587 32.7239 62.2461C34.3293 63.3364 35.9781 64.3669 37.6594 65.3321C37.8927 65.4677 38.1313 65.598 38.3699 65.7283C39.0913 63.7105 40.4039 62.0778 40.4039 62.0778C40.4039 62.0778 40.4636 62.0889 40.572 62.0995C40.0242 61.6657 39.3029 61.4597 38.6086 61.2807C36.6127 60.7653 34.5842 60.2828 32.7293 59.377C32.1652 59.0948 31.6066 58.7696 31.0859 58.4062Z" fill="#FCB0AA"/>
<path d="M14.5286 104.133C15.1686 112.111 17.3272 120.307 21.7638 120.751C21.7692 120.751 21.7692 120.751 21.7801 120.751C24.5299 121.012 28.1313 120.513 31.4831 119.802C36.6573 118.701 41.2512 117.123 41.2512 117.123C41.2512 117.123 39.3096 99.4035 39.597 92.8299C39.6188 92.304 39.6513 91.7668 39.6893 91.2136C39.9062 88.0245 40.2805 84.3526 40.3455 81.0332C40.4052 77.6273 40.1286 74.5952 38.9734 72.8164L27.2365 66.8828C27.2365 66.8828 23.9823 67.4577 23.2121 68.9925C22.8216 69.7738 20.9775 73.6895 19.09 78.4083C17.284 82.9155 15.4345 88.1655 14.7782 92.0977C14.2899 95.032 14.1598 99.5444 14.5286 104.133Z" fill="#D9EDFF"/>
<path d="M21.7656 120.748C21.7733 120.748 21.7733 120.748 21.7809 120.748C24.5298 121.01 28.1334 120.509 31.4829 119.801C36.6572 118.7 42.6879 116.913 42.6879 116.913C42.6879 116.913 39.3138 99.4034 39.5986 92.8275C39.6217 92.3039 39.6526 91.765 39.691 91.2105C39.9066 88.0225 40.2839 84.3496 40.3454 81.0312C38.7439 78.8828 36.8266 76.8574 34.3318 75.9258L27.887 77.8586C27.0399 79.8529 27.5635 82.1937 28.5953 84.0954C29.6194 86.0054 31.1055 87.6146 32.3298 89.4009C33.5541 91.1875 34.5474 93.2742 34.3703 95.4301C34.1162 98.4485 31.2595 101.02 28.2257 100.943C27.4249 100.928 26.6241 100.743 25.8233 100.782C25.0148 100.82 24.1601 101.136 23.7673 101.836C23.2592 102.738 23.7366 103.923 24.5451 104.57C25.3536 105.209 26.4008 105.448 27.4018 105.71C28.3951 105.971 29.4423 106.295 30.1352 107.057C31.1055 108.112 31.144 109.829 30.4048 111.053C29.6656 112.286 27.0552 111.816 26.8627 113.233C26.5548 115.504 33.1921 113.679 33.1768 115.981C33.146 119.939 25.8771 119.031 22.2273 120.555C22.0736 120.617 21.9196 120.686 21.7656 120.748Z" fill="#CEE8FF"/>
<path d="M37.3203 107.654L41.5996 112.606L41.7949 111.839C41.7949 111.839 41.7949 111.839 41.7949 111.833L43.026 106.98C43.026 106.98 41.323 103.718 41.0085 99.8569C40.6939 96.052 38.8606 78.1007 38.7956 77.5391L38.123 79.6786C38.0796 80.1339 38.0308 81.1631 37.9765 82.5665C37.6946 89.933 37.3203 107.654 37.3203 107.654Z" fill="#E8468A"/>
<path d="M37.3203 107.656L41.5991 112.611L41.7953 111.841C41.7953 111.841 41.7953 111.841 41.7916 111.833C40.9912 110.256 39.8893 108.762 39.4576 107.002C39.0895 105.514 39.2191 103.934 39.3045 102.391C39.6862 95.755 39.2365 89.0517 37.9747 82.5703C37.6923 89.9367 37.3203 107.656 37.3203 107.656Z" fill="#BD346C"/>
<path d="M26.5444 52.0306C26.0705 53.6453 26.4144 55.4233 27.1944 56.9163C28.0583 58.5645 29.4423 59.9316 31.0988 60.7788C31.2582 60.9844 31.4344 61.173 31.6314 61.345C32.1934 61.8356 32.9231 62.1545 33.6695 62.1293C34.7305 62.0916 35.6867 61.3324 36.1313 60.3679C36.1564 60.3093 36.1817 60.2506 36.2068 60.1918C36.9114 59.4286 36.3955 57.8644 36.3284 57.4995C36.2906 57.3191 36.2278 57.2102 36.1187 57.143C35.8378 56.9669 35.5735 56.7781 35.3303 56.5643C34.9613 56.2371 34.6552 55.8556 34.4622 55.3942C34.4119 55.2809 34.3616 55.1552 34.2986 55.0209C33.7619 53.834 34.5503 52.6515 35.3974 52.2573C35.8419 52.0476 36.6933 52.882 37.4062 53.7124C38.0395 54.459 38.572 55.2054 38.6098 55.2181C38.6769 55.239 38.7943 55.3482 38.8404 54.8657C38.8404 54.8657 38.8404 54.8616 38.8404 54.8575C38.9747 54.2997 39.113 52.6263 39.1843 51.276C39.1843 51.2717 39.1843 51.2717 39.1843 51.2717V51.2508C39.2388 50.2862 39.9056 49.4726 40.8367 49.2336C43.7094 48.4997 49.4506 46.7634 49.807 46.0716C51.17 43.4377 47.7688 41.2152 44.8164 41.5088C44.7452 41.5169 44.6781 41.5212 44.6151 41.5296C44.5773 41.2991 44.5229 41.0683 44.4516 40.8461C44.0993 39.76 43.269 38.8078 42.1912 38.4388C41.1092 38.0697 39.7966 38.3634 39.0711 39.244C38.2384 38.3903 37.2033 37.7475 36.0841 37.3494C36.0831 37.3491 36.082 37.3489 36.0809 37.3486C35.7622 37.3067 35.4436 37.2815 35.1206 37.2856C33.8331 37.2939 32.4828 37.7846 31.753 38.8458C31.4008 39.3657 31.2078 39.9907 30.8011 40.4686C30.1301 41.2656 28.9978 41.5005 27.9535 41.5046C27.9478 41.5046 27.9423 41.5047 27.9366 41.5047C26.8185 41.5113 25.849 42.288 25.6572 43.3895C25.3635 45.0762 25.609 46.8591 26.3892 48.3865C26.6492 48.8855 26.9638 49.3803 27.0267 49.9424C27.1023 50.6593 26.7499 51.3387 26.5444 52.0306Z" fill="#0E0063"/>
<path d="M26.5458 52.0309C26.0718 53.6456 26.4157 55.4236 27.1958 56.9166C28.0596 58.5648 29.4437 59.9319 31.1002 60.7791C31.2596 60.9847 31.4357 61.1733 31.6328 61.3453C32.1948 61.8359 32.9244 62.1547 33.6709 62.1296C33.9142 62.1212 34.1532 62.0751 34.3796 61.9953C33.7003 62.0163 33.0377 61.7228 32.5261 61.2741C32.3415 61.1189 32.1822 60.9428 32.0354 60.7539C30.5131 59.9782 29.2382 58.7201 28.4456 57.2019C27.7285 55.8305 27.4097 54.1951 27.8459 52.7104C28.0346 52.077 28.3617 51.4523 28.2904 50.7896C28.2316 50.2738 27.9423 49.8209 27.7032 49.3595C26.9861 47.9546 26.7596 46.3149 27.0322 44.7673C27.2084 43.7524 28.0974 43.0396 29.1249 43.0312H29.1417C30.1021 43.0312 31.1421 42.813 31.7628 42.0792C32.136 41.6431 32.3122 41.0684 32.6351 40.5903C33.3061 39.6133 34.5475 39.1603 35.7343 39.152C36.0278 39.152 36.3214 39.1729 36.615 39.2106H36.6192C37.6467 39.5798 38.5986 40.171 39.366 40.9552C40.0328 40.1459 41.2407 39.8732 42.2346 40.2129C43.2243 40.5526 43.9875 41.429 44.3105 42.4273C44.3776 42.6327 44.4279 42.8424 44.4615 43.0563C44.5201 43.0479 44.5831 43.0436 44.646 43.0353C47.0155 42.8006 49.6994 44.3269 49.5149 46.3317C49.6701 46.2309 49.7707 46.147 49.8085 46.0716C51.1714 43.4378 47.7703 41.2153 44.8179 41.5088C44.7466 41.517 44.6795 41.5213 44.6166 41.5297C44.5788 41.2992 44.5243 41.0684 44.453 40.8462C44.1008 39.76 43.2704 38.8079 42.1926 38.4389C41.1106 38.0698 39.798 38.3635 39.0725 39.2441C38.238 38.3886 37.2063 37.747 36.0866 37.3487H36.0824C35.7637 37.3067 35.445 37.2815 35.122 37.2856C33.8345 37.2939 32.4842 37.7846 31.7545 38.8458C31.4022 39.3657 31.2092 39.9907 30.8025 40.4686C30.1315 41.2656 28.9992 41.5005 27.9549 41.5046H27.9381C26.8184 41.5129 25.8496 42.2889 25.6568 43.3877C25.3632 45.0776 25.6106 46.86 26.3907 48.3866C26.6507 48.8856 26.9652 49.3804 27.0282 49.9425C27.1036 50.6596 26.7513 51.339 26.5458 52.0309Z" fill="#0E0063"/>
<path d="M42.6212 59.2512C42.917 59.5744 43.3503 59.7507 43.7879 59.7876C44.1164 59.8128 44.4452 59.7636 44.7628 59.6698C44.8794 59.6329 44.8912 59.4734 44.7829 59.4162C44.2571 59.1475 43.124 58.558 42.4797 58.1467C42.3932 58.0922 42.2782 58.1458 42.2682 58.2475C42.2363 58.6076 42.3735 58.9813 42.6212 59.2512Z" fill="white"/>
<path d="M43.6543 53.0025C43.6521 53.4277 43.8051 53.7733 43.996 53.7743C44.187 53.7754 44.3436 53.4315 44.3459 53.0062C44.3482 52.5809 44.1952 52.2354 44.0042 52.2344C43.8132 52.2334 43.6565 52.5773 43.6543 53.0025Z" fill="#0E0063"/>
<path d="M44.8929 51.5978C44.9592 51.2812 44.7523 50.9117 44.4301 50.7465C44.1009 50.5609 43.7019 50.5809 43.377 50.7043C42.7239 50.9596 42.299 51.665 42.4447 52.2938C42.7995 51.7839 43.1764 51.4621 43.6061 51.2903C43.8165 51.2017 44.0361 51.1708 44.2489 51.2014C44.4632 51.2457 44.7104 51.341 44.8929 51.5978Z" fill="#0E0063"/>
<path d="M38.0813 76.6861C38.1703 77.5672 38.8496 78.2204 39.5986 78.1449C40.3477 78.0694 40.8829 77.2939 40.794 76.4127C40.705 75.5315 39.0807 73.0117 39.0807 73.0117C39.0807 73.0117 37.9924 75.8048 38.0813 76.6861Z" fill="#E8468A"/>
<path d="M28.0893 79.1331L28.0947 79.1656C28.572 81.6333 29.7381 83.9275 31.349 85.8531C39.0235 94.9649 41.7082 95.838 49.3394 99.0653C49.7678 99.2496 50.2126 99.4395 50.6736 99.6346C51.5794 100.025 52.6098 100.351 53.7489 100.633C58.3482 101.761 64.5909 102.027 70.4485 101.837C75.2485 101.674 79.7447 101.197 82.7494 100.633C82.782 100.389 82.82 100.145 82.8579 99.9005C83.0803 98.4307 83.243 96.9392 82.1258 95.1222C74.8201 93.0774 56.9109 91.499 54.8066 91.9276C52.0784 92.4808 41.4317 79.4586 39.2893 76.1665C38.1503 74.4143 35.3246 73.8558 32.9327 73.7146C29.9496 73.5466 27.5523 76.1825 28.0893 79.1331Z" fill="#D9EDFF"/>
<path d="M53.7461 100.639C58.3454 101.767 64.5881 102.032 70.4457 101.842C75.2457 101.68 79.7419 101.203 82.7466 100.639C82.7792 100.394 82.8172 100.15 82.8551 99.9062C73.0166 101.333 63.3189 101.582 53.7461 100.639Z" fill="#C5C2F2"/>
<path d="M188.083 131.145L188.071 130.625C189.103 130.601 190.145 130.55 191.17 130.471L191.21 130.989C190.176 131.068 189.124 131.12 188.083 131.145ZM184.954 131.136C183.916 131.105 182.865 131.047 181.829 130.962L181.871 130.444C182.898 130.528 183.94 130.586 184.969 130.616L184.954 131.136ZM194.324 130.669L194.257 130.154C195.278 130.022 196.31 129.86 197.322 129.673L197.417 130.184C196.395 130.372 195.354 130.536 194.324 130.669ZM178.716 130.623C177.683 130.483 176.644 130.314 175.626 130.12L175.724 129.609C176.732 129.802 177.763 129.969 178.786 130.108L178.716 130.623ZM200.479 129.534L200.357 129.029C201.359 128.788 202.367 128.516 203.353 128.221L203.502 128.718C202.507 129.016 201.49 129.291 200.479 129.534ZM172.568 129.452C171.559 129.203 170.544 128.923 169.551 128.62L169.702 128.123C170.686 128.423 171.693 128.701 172.693 128.948L172.568 129.452ZM206.473 127.714L206.286 127.229C207.295 126.842 208.245 126.421 209.111 125.98L209.348 126.442C208.465 126.892 207.498 127.32 206.473 127.714ZM212.05 124.825L211.751 124.4C212.621 123.787 213.406 123.12 214.086 122.417L214.459 122.778C213.757 123.505 212.946 124.193 212.05 124.825ZM216.39 120.266L215.944 120L216.056 119.809C216.516 119.003 216.893 118.129 217.175 117.212L217.671 117.365C217.378 118.318 216.986 119.227 216.507 120.066L216.39 120.266ZM218.282 114.261L217.765 114.211C217.821 113.635 217.849 113.034 217.849 112.423C217.849 112.004 217.836 111.571 217.81 111.138L218.328 111.107C218.355 111.55 218.369 111.993 218.369 112.423C218.369 113.05 218.339 113.669 218.282 114.261ZM217.429 108.077C217.252 107.109 217.016 106.096 216.727 105.066L217.227 104.926C217.521 105.971 217.761 107 217.941 107.984L217.429 108.077ZM215.785 102.112C215.445 101.134 215.086 100.16 214.726 99.1861L215.213 99.006C215.574 99.9825 215.934 100.96 216.276 101.942L215.785 102.112ZM213.656 96.2544C213.415 95.5705 213.206 94.9531 213.018 94.371C212.28 94.2966 211.567 94.1741 210.892 94.0042L211.018 93.5004C211.602 93.6471 212.214 93.7572 212.848 93.8299C212.79 93.6445 212.735 93.4616 212.681 93.2803L213.179 93.1327C213.252 93.3792 213.328 93.6288 213.409 93.8845C213.619 93.901 213.832 93.9137 214.047 93.9223L214.026 94.4412C213.876 94.4351 213.727 94.4273 213.58 94.4177C213.748 94.9349 213.935 95.4822 214.147 96.0814L213.656 96.2544ZM217.178 94.314L217.119 93.7978C217.853 93.7147 218.626 93.5919 219.414 93.4329C219.662 93.3829 219.911 93.3286 220.158 93.2708L220.277 93.7766C220.023 93.836 219.769 93.8912 219.516 93.9423C218.714 94.1039 217.927 94.2292 217.178 94.314ZM207.933 92.8605C207.034 92.3788 206.159 91.7723 205.33 91.0583L205.669 90.6646C206.469 91.3541 207.313 91.9387 208.179 92.4024L207.933 92.8605ZM223.291 92.8585L223.106 92.373C224.101 91.9935 225.034 91.5501 225.881 91.055L226.143 91.5035C225.272 92.0128 224.312 92.4688 223.291 92.8585ZM211.911 90.2375C211.736 89.3788 211.604 88.5342 211.52 87.7276C211.499 87.5264 211.482 87.3243 211.467 87.1211L211.985 87.0846C211.999 87.2817 212.016 87.4782 212.037 87.6734C212.119 88.4637 212.249 89.2916 212.42 90.1341L211.911 90.2375ZM228.697 89.6312L228.345 89.2497C229.119 88.5346 229.767 87.7475 230.274 86.91L230.718 87.1789C230.187 88.0581 229.507 88.883 228.697 89.6312ZM203.129 88.7954C202.498 88.0354 201.89 87.2056 201.271 86.2576L201.706 85.9735C202.314 86.9044 202.911 87.7188 203.529 88.4636L203.129 88.7954ZM231.905 84.2202L231.396 84.1112C231.531 83.4842 231.6 82.8328 231.6 82.1752C231.6 81.8156 231.58 81.4521 231.539 81.0949L232.055 81.0365C232.098 81.413 232.119 81.7962 232.119 82.1752C232.119 82.8695 232.047 83.5575 231.905 84.2202ZM212.031 84.0153L211.514 83.9636C211.621 82.8964 211.821 81.8521 212.107 80.8593L212.606 81.0034C212.328 81.966 212.135 82.9794 212.031 84.0153ZM199.659 83.5676C199.216 82.7679 198.766 81.9151 198.2 80.802L198.664 80.5666C199.226 81.6738 199.673 82.5215 200.114 83.3154L199.659 83.5676ZM230.743 78.1771C230.319 77.2339 229.76 76.3869 229.08 75.6592L229.459 75.3044C230.179 76.074 230.77 76.969 231.216 77.9645L230.743 78.1771ZM213.749 78.1701L213.292 77.9237C213.815 76.9535 214.437 76.0856 215.143 75.3438L215.519 75.7019C214.846 76.4102 214.25 77.2406 213.749 78.1701ZM196.807 78.0082C196.299 76.9602 195.871 76.0303 195.501 75.1652L195.979 74.9607C196.346 75.8183 196.77 76.741 197.275 77.7815L196.807 78.0082ZM217.915 73.8623L217.668 73.405C217.818 73.3243 217.971 73.2472 218.126 73.1737C218.927 72.7958 219.79 72.5329 220.692 72.3924L220.772 72.9058C219.919 73.0386 219.103 73.2869 218.348 73.6435C218.201 73.7128 218.056 73.7859 217.915 73.8623ZM226.67 73.8526C225.775 73.3944 224.808 73.0797 223.795 72.9173L223.877 72.4044C224.944 72.5754 225.963 72.9071 226.906 73.3902L226.67 73.8526ZM194.372 72.2395C194.144 71.5681 193.942 70.8997 193.771 70.2529C193.68 69.9089 193.596 69.5623 193.519 69.2134L194.026 69.1016C194.101 69.4433 194.184 69.7829 194.273 70.12C194.441 70.7555 194.64 71.4125 194.864 72.0726L194.372 72.2395ZM193.05 66.0981C193.009 65.5755 192.988 65.0519 192.988 64.5418C192.988 64.001 193.012 63.4626 193.058 62.9415L193.576 62.9876C193.531 63.4934 193.508 64.0163 193.508 64.5418C193.508 65.0384 193.528 65.5484 193.568 66.0575L193.05 66.0981ZM194.144 59.9814L193.646 59.8332C193.715 59.6005 193.791 59.3693 193.873 59.1399C194.141 58.3826 194.481 57.6347 194.883 56.9173L195.337 57.1712C194.949 57.8631 194.621 58.5841 194.361 59.3139C194.283 59.5349 194.21 59.7574 194.144 59.9814ZM197.096 54.6673L196.701 54.3289C197.368 53.5517 198.128 52.8094 198.96 52.1229L199.291 52.5234C198.482 53.1912 197.743 53.9124 197.096 54.6673ZM201.804 50.7507L201.536 50.3056C202.422 49.7726 203.365 49.2888 204.339 48.8676L204.545 49.3445C203.593 49.7565 202.67 50.2297 201.804 50.7507ZM207.446 48.3002L207.299 47.8021C208.262 47.5167 209.288 47.2659 210.349 47.0568L210.449 47.5664C209.404 47.7725 208.394 48.0193 207.446 48.3002ZM213.509 47.0832L213.446 46.5675C214.42 46.4477 215.44 46.3505 216.561 46.2702L216.599 46.7884C215.485 46.8679 214.475 46.9644 213.509 47.0832ZM219.703 46.6197L219.681 46.1007C220.722 46.0584 221.763 46.0269 222.8 45.9961L222.815 46.5153C221.78 46.546 220.742 46.5775 219.703 46.6197Z" fill="#DADAF5"/>
<path d="M247.664 44.7478L213.062 44.7109L214.622 47.3595L247.664 44.7478Z" fill="#DADAF5"/>
<path d="M247.664 44.7461L203.74 55.2569L211.692 46.6648L247.664 44.7461Z" fill="#EAEAFA"/>
<path d="M247.662 44.7455L220.106 40.9375L213.061 44.7086L247.662 44.7455Z" fill="#EAEAFA"/>
<path d="M212.787 53.0872L215.547 57.1134L247.662 44.75L212.787 53.0872Z" fill="#DADAF5"/>
<path d="M212.787 53.0872L213.919 54.739L247.662 44.75L212.787 53.0872Z" fill="#C8C8EE"/>
<g opacity="0.5">
<mask id="mask0_742_26944" style="mask-type:luminance" maskUnits="userSpaceOnUse" x="110" y="151" width="20" height="12">
<path d="M125.328 151.82L129.823 154.349L110.963 162.763L125.328 151.82Z" fill="white"/>
</mask>
<g mask="url(#mask0_742_26944)">
<path d="M129.824 152.036L129.664 151.82H129.824V152.036Z" fill="#EAEAFA"/>
</g>
<mask id="mask1_742_26944" style="mask-type:luminance" maskUnits="userSpaceOnUse" x="110" y="151" width="20" height="12">
<path d="M125.328 151.82L129.823 154.349L110.963 162.763L125.328 151.82Z" fill="white"/>
</mask>
<g mask="url(#mask1_742_26944)">
<path d="M129.822 152.768L129.117 151.82H129.662L129.822 152.036V152.768Z" fill="#EAEAFA"/>
</g>
<mask id="mask2_742_26944" style="mask-type:luminance" maskUnits="userSpaceOnUse" x="110" y="151" width="20" height="12">
<path d="M125.328 151.82L129.823 154.349L110.963 162.763L125.328 151.82Z" fill="white"/>
</mask>
<g mask="url(#mask2_742_26944)">
<path d="M129.824 153.5L128.574 151.82H129.119L129.824 152.768V153.5Z" fill="#E9E9FA"/>
</g>
<mask id="mask3_742_26944" style="mask-type:luminance" maskUnits="userSpaceOnUse" x="110" y="151" width="20" height="12">
<path d="M125.328 151.82L129.823 154.349L110.963 162.763L125.328 151.82Z" fill="white"/>
</mask>
<g mask="url(#mask3_742_26944)">
<path d="M129.823 154.232L128.027 151.82H128.572L129.823 153.5V154.232Z" fill="#E8E8F9"/>
</g>
<mask id="mask4_742_26944" style="mask-type:luminance" maskUnits="userSpaceOnUse" x="110" y="151" width="20" height="12">
<path d="M125.328 151.82L129.823 154.349L110.963 162.763L125.328 151.82Z" fill="white"/>
</mask>
<g mask="url(#mask4_742_26944)">
<path d="M129.825 154.964L127.484 151.82H128.029L129.825 154.232V154.964Z" fill="#E7E7F9"/>
</g>
<mask id="mask5_742_26944" style="mask-type:luminance" maskUnits="userSpaceOnUse" x="110" y="151" width="20" height="12">
<path d="M125.328 151.82L129.823 154.349L110.963 162.763L125.328 151.82Z" fill="white"/>
</mask>
<g mask="url(#mask5_742_26944)">
<path d="M129.825 155.644L129.8 155.663L126.939 151.82H127.484L129.825 154.964V155.644Z" fill="#E6E7F9"/>
</g>
<mask id="mask6_742_26944" style="mask-type:luminance" maskUnits="userSpaceOnUse" x="110" y="151" width="20" height="12">
<path d="M125.328 151.82L129.823 154.349L110.963 162.763L125.328 151.82Z" fill="white"/>
</mask>
<g mask="url(#mask6_742_26944)">
<path d="M129.798 155.663L129.447 155.924L126.393 151.82H126.938L129.798 155.663Z" fill="#E5E6F8"/>
</g>
<mask id="mask7_742_26944" style="mask-type:luminance" maskUnits="userSpaceOnUse" x="110" y="151" width="20" height="12">
<path d="M125.328 151.82L129.823 154.349L110.963 162.763L125.328 151.82Z" fill="white"/>
</mask>
<g mask="url(#mask7_742_26944)">
<path d="M129.449 155.924L129.099 156.185L125.85 151.82H126.395L129.449 155.924Z" fill="#E4E5F8"/>
</g>
<mask id="mask8_742_26944" style="mask-type:luminance" maskUnits="userSpaceOnUse" x="110" y="151" width="20" height="12">
<path d="M125.328 151.82L129.823 154.349L110.963 162.763L125.328 151.82Z" fill="white"/>
</mask>
<g mask="url(#mask8_742_26944)">
<path d="M129.097 156.185L128.746 156.446L125.303 151.82H125.848L129.097 156.185Z" fill="#E3E4F7"/>
</g>
<mask id="mask9_742_26944" style="mask-type:luminance" maskUnits="userSpaceOnUse" x="110" y="151" width="20" height="12">
<path d="M125.328 151.82L129.823 154.349L110.963 162.763L125.328 151.82Z" fill="white"/>
</mask>
<g mask="url(#mask9_742_26944)">
<path d="M128.746 156.446L128.395 156.707L124.758 151.82H125.303L128.746 156.446Z" fill="#E2E3F7"/>
</g>
<mask id="mask10_742_26944" style="mask-type:luminance" maskUnits="userSpaceOnUse" x="110" y="151" width="20" height="12">
<path d="M125.328 151.82L129.823 154.349L110.963 162.763L125.328 151.82Z" fill="white"/>
</mask>
<g mask="url(#mask10_742_26944)">
<path d="M128.395 156.707L128.045 156.968L124.213 151.82H124.758L128.395 156.707Z" fill="#E1E2F7"/>
</g>
<mask id="mask11_742_26944" style="mask-type:luminance" maskUnits="userSpaceOnUse" x="110" y="151" width="20" height="12">
<path d="M125.328 151.82L129.823 154.349L110.963 162.763L125.328 151.82Z" fill="white"/>
</mask>
<g mask="url(#mask11_742_26944)">
<path d="M128.045 156.968L127.694 157.229L123.668 151.82H124.213L128.045 156.968Z" fill="#E0E1F6"/>
</g>
<mask id="mask12_742_26944" style="mask-type:luminance" maskUnits="userSpaceOnUse" x="110" y="151" width="20" height="12">
<path d="M125.328 151.82L129.823 154.349L110.963 162.763L125.328 151.82Z" fill="white"/>
</mask>
<g mask="url(#mask12_742_26944)">
<path d="M127.696 157.229L127.346 157.49L123.291 152.043L123.59 151.82H123.67L127.696 157.229Z" fill="#DFE0F6"/>
</g>
<mask id="mask13_742_26944" style="mask-type:luminance" maskUnits="userSpaceOnUse" x="118" y="151" width="11" height="19">
<path d="M123.461 152.325L128.577 151.67L118.471 169.68L123.461 152.325Z" fill="white"/>
</mask>
<g mask="url(#mask13_742_26944)">
<path d="M123.296 152.051L122.945 152.312L127 157.76L127.351 157.499L123.296 152.051Z" fill="#DEE0F6"/>
</g>
<mask id="mask14_742_26944" style="mask-type:luminance" maskUnits="userSpaceOnUse" x="118" y="151" width="11" height="19">
<path d="M123.238 152.173L128.354 151.518L118.249 169.528L123.238 152.173Z" fill="white"/>
</mask>
<g mask="url(#mask14_742_26944)">
<path d="M122.946 152.321L122.596 152.582L126.65 158.029L127.001 157.768L122.946 152.321Z" fill="#DDDFF5"/>
</g>
<mask id="mask15_742_26944" style="mask-type:luminance" maskUnits="userSpaceOnUse" x="118" y="151" width="11" height="19">
<path d="M123.01 152.013L128.126 151.357L118.02 169.368L123.01 152.013Z" fill="white"/>
</mask>
<g mask="url(#mask15_742_26944)">
<path d="M122.595 152.579L122.244 152.84L126.299 158.287L126.649 158.026L122.595 152.579Z" fill="#DCDEF5"/>
</g>
<mask id="mask16_742_26944" style="mask-type:luminance" maskUnits="userSpaceOnUse" x="117" y="151" width="11" height="19">
<path d="M122.785 151.852L127.901 151.197L117.796 169.208L122.785 151.852Z" fill="white"/>
</mask>
<g mask="url(#mask16_742_26944)">
<path d="M122.245 152.837L121.895 153.098L125.949 158.545L126.3 158.284L122.245 152.837Z" fill="#DBDDF4"/>
</g>
<mask id="mask17_742_26944" style="mask-type:luminance" maskUnits="userSpaceOnUse" x="117" y="151" width="11" height="19">
<path d="M122.559 151.7L127.674 151.045L117.569 169.055L122.559 151.7Z" fill="white"/>
</mask>
<g mask="url(#mask17_742_26944)">
<path d="M121.892 153.102L121.541 153.363L125.596 158.811L125.946 158.55L121.892 153.102Z" fill="#DADCF4"/>
</g>
<mask id="mask18_742_26944" style="mask-type:luminance" maskUnits="userSpaceOnUse" x="117" y="150" width="11" height="19">
<path d="M122.334 151.536L127.45 150.881L117.344 168.891L122.334 151.536Z" fill="white"/>
</mask>
<g mask="url(#mask18_742_26944)">
<path d="M121.542 153.356L121.191 153.617L125.246 159.065L125.597 158.804L121.542 153.356Z" fill="#D9DBF4"/>
</g>
<mask id="mask19_742_26944" style="mask-type:luminance" maskUnits="userSpaceOnUse" x="117" y="150" width="11" height="19">
<path d="M122.109 151.388L127.225 150.732L117.12 168.743L122.109 151.388Z" fill="white"/>
</mask>
<g mask="url(#mask19_742_26944)">
<path d="M121.191 153.626L120.84 153.887L124.894 159.334L125.245 159.073L121.191 153.626Z" fill="#D8DAF3"/>
</g>
<mask id="mask20_742_26944" style="mask-type:luminance" maskUnits="userSpaceOnUse" x="116" y="150" width="12" height="19">
<path d="M121.887 151.224L127.003 150.568L116.897 168.579L121.887 151.224Z" fill="white"/>
</mask>
<g mask="url(#mask20_742_26944)">
<path d="M120.843 153.883L120.492 154.145L124.547 159.592L124.897 159.331L120.843 153.883Z" fill="#D7D9F3"/>
</g>
<mask id="mask21_742_26944" style="mask-type:luminance" maskUnits="userSpaceOnUse" x="116" y="150" width="11" height="19">
<path d="M121.662 151.063L126.778 150.408L116.672 168.419L121.662 151.063Z" fill="white"/>
</mask>
<g mask="url(#mask21_742_26944)">
<path d="M120.493 154.141L120.143 154.402L124.197 159.85L124.548 159.589L120.493 154.141Z" fill="#D6D9F3"/>
</g>
<mask id="mask22_742_26944" style="mask-type:luminance" maskUnits="userSpaceOnUse" x="116" y="150" width="11" height="19">
<path d="M121.434 150.911L126.549 150.256L116.444 168.266L121.434 150.911Z" fill="white"/>
</mask>
<g mask="url(#mask22_742_26944)">
<path d="M120.14 154.407L119.789 154.668L123.844 160.115L124.194 159.854L120.14 154.407Z" fill="#D5D8F2"/>
</g>
<mask id="mask23_742_26944" style="mask-type:luminance" maskUnits="userSpaceOnUse" x="116" y="150" width="11" height="19">
<path d="M121.211 150.751L126.327 150.096L116.221 168.106L121.211 150.751Z" fill="white"/>
</mask>
<g mask="url(#mask23_742_26944)">
<path d="M119.792 154.665L119.441 154.926L123.496 160.373L123.847 160.112L119.792 154.665Z" fill="#D4D7F2"/>
</g>
<mask id="mask24_742_26944" style="mask-type:luminance" maskUnits="userSpaceOnUse" x="115" y="149" width="12" height="19">
<path d="M120.982 150.591L126.098 149.936L115.993 167.946L120.982 150.591Z" fill="white"/>
</mask>
<g mask="url(#mask24_742_26944)">
<path d="M119.437 154.926L119.086 155.188L123.141 160.635L123.491 160.374L119.437 154.926Z" fill="#D3D6F2"/>
</g>
<mask id="mask25_742_26944" style="mask-type:luminance" maskUnits="userSpaceOnUse" x="115" y="149" width="11" height="19">
<path d="M120.76 150.438L125.876 149.783L115.77 167.794L120.76 150.438Z" fill="white"/>
</mask>
<g mask="url(#mask25_742_26944)">
<path d="M119.089 155.192L118.738 155.453L122.793 160.9L123.144 160.639L119.089 155.192Z" fill="#D1D5F1"/>
</g>
<mask id="mask26_742_26944" style="mask-type:luminance" maskUnits="userSpaceOnUse" x="115" y="149" width="11" height="19">
<path d="M120.531 150.274L125.647 149.619L115.542 167.63L120.531 150.274Z" fill="white"/>
</mask>
<g mask="url(#mask26_742_26944)">
<path d="M118.735 155.446L118.385 155.707L122.439 161.154L122.79 160.893L118.735 155.446Z" fill="#D0D4F1"/>
</g>
<mask id="mask27_742_26944" style="mask-type:luminance" maskUnits="userSpaceOnUse" x="115" y="149" width="11" height="19">
<path d="M120.307 150.126L125.422 149.471L115.317 167.481L120.307 150.126Z" fill="white"/>
</mask>
<g mask="url(#mask27_742_26944)">
<path d="M118.386 155.716L118.035 155.977L122.09 161.424L122.44 161.163L118.386 155.716Z" fill="#CFD3F0"/>
</g>
<mask id="mask28_742_26944" style="mask-type:luminance" maskUnits="userSpaceOnUse" x="115" y="149" width="11" height="19">
<path d="M120.084 149.954L125.2 149.299L115.094 167.309L120.084 149.954Z" fill="white"/>
</mask>
<g mask="url(#mask28_742_26944)">
<path d="M118.038 155.966L117.688 156.227L121.742 161.674L122.093 161.413L118.038 155.966Z" fill="#CED3F0"/>
</g>
<mask id="mask29_742_26944" style="mask-type:luminance" maskUnits="userSpaceOnUse" x="114" y="149" width="11" height="19">
<path d="M119.855 149.802L124.971 149.146L114.866 167.157L119.855 149.802Z" fill="white"/>
</mask>
<g mask="url(#mask29_742_26944)">
<path d="M117.685 156.231L117.334 156.492L121.389 161.94L121.739 161.679L117.685 156.231Z" fill="#CDD2F0"/>
</g>
<mask id="mask30_742_26944" style="mask-type:luminance" maskUnits="userSpaceOnUse" x="114" y="148" width="11" height="20">
<path d="M119.631 149.649L124.747 148.994L114.641 167.005L119.631 149.649Z" fill="white"/>
</mask>
<g mask="url(#mask30_742_26944)">
<path d="M117.335 156.497L116.984 156.758L121.039 162.205L121.39 161.944L117.335 156.497Z" fill="#CCD1EF"/>
</g>
<mask id="mask31_742_26944" style="mask-type:luminance" maskUnits="userSpaceOnUse" x="114" y="148" width="11" height="19">
<path d="M119.408 149.489L124.524 148.834L114.419 166.845L119.408 149.489Z" fill="white"/>
</mask>
<g mask="url(#mask31_742_26944)">
<path d="M116.984 156.755L116.633 157.016L120.687 162.463L121.038 162.202L116.984 156.755Z" fill="#CBD0EF"/>
</g>
<mask id="mask32_742_26944" style="mask-type:luminance" maskUnits="userSpaceOnUse" x="114" y="148" width="11" height="19">
<path d="M119.18 149.337L124.295 148.682L114.19 166.692L119.18 149.337Z" fill="white"/>
</mask>
<g mask="url(#mask32_742_26944)">
<path d="M116.63 157.02L116.279 157.281L120.334 162.729L120.685 162.468L116.63 157.02Z" fill="#CACFEF"/>
</g>
<mask id="mask33_742_26944" style="mask-type:luminance" maskUnits="userSpaceOnUse" x="110" y="151" width="20" height="12">
<path d="M125.328 151.82L129.823 154.349L110.963 162.763L125.328 151.82Z" fill="white"/>
</mask>
<g mask="url(#mask33_742_26944)">
<path d="M120.329 162.713L120.26 162.765H119.823L115.924 157.527L116.275 157.266L120.329 162.713Z" fill="#C9CEEE"/>
</g>
<mask id="mask34_742_26944" style="mask-type:luminance" maskUnits="userSpaceOnUse" x="110" y="151" width="20" height="12">
<path d="M125.328 151.82L129.823 154.349L110.963 162.763L125.328 151.82Z" fill="white"/>
</mask>
<g mask="url(#mask34_742_26944)">
<path d="M119.277 162.765L115.572 157.788L115.923 157.527L119.822 162.765H119.277Z" fill="#C8CDEE"/>
</g>
<mask id="mask35_742_26944" style="mask-type:luminance" maskUnits="userSpaceOnUse" x="110" y="151" width="20" height="12">
<path d="M125.328 151.82L129.823 154.349L110.963 162.763L125.328 151.82Z" fill="white"/>
</mask>
<g mask="url(#mask35_742_26944)">
<path d="M118.733 162.766L115.223 158.05L115.573 157.789L119.278 162.766H118.733Z" fill="#C7CCED"/>
</g>
<mask id="mask36_742_26944" style="mask-type:luminance" maskUnits="userSpaceOnUse" x="110" y="151" width="20" height="12">
<path d="M125.328 151.82L129.823 154.349L110.963 162.763L125.328 151.82Z" fill="white"/>
</mask>
<g mask="url(#mask36_742_26944)">
<path d="M118.187 162.767L114.871 158.312L115.222 158.051L118.732 162.767H118.187Z" fill="#C6CCED"/>
</g>
<mask id="mask37_742_26944" style="mask-type:luminance" maskUnits="userSpaceOnUse" x="110" y="151" width="20" height="12">
<path d="M125.328 151.82L129.823 154.349L110.963 162.763L125.328 151.82Z" fill="white"/>
</mask>
<g mask="url(#mask37_742_26944)">
<path d="M117.643 162.763L114.521 158.57L114.872 158.309L118.188 162.763H117.643Z" fill="#C5CBED"/>
</g>
<mask id="mask38_742_26944" style="mask-type:luminance" maskUnits="userSpaceOnUse" x="110" y="151" width="20" height="12">
<path d="M125.328 151.82L129.823 154.349L110.963 162.763L125.328 151.82Z" fill="white"/>
</mask>
<g mask="url(#mask38_742_26944)">
<path d="M117.097 162.764L114.17 158.831L114.521 158.57L117.642 162.764H117.097Z" fill="#C4CAEC"/>
</g>
<mask id="mask39_742_26944" style="mask-type:luminance" maskUnits="userSpaceOnUse" x="110" y="151" width="20" height="12">
<path d="M125.328 151.82L129.823 154.349L110.963 162.763L125.328 151.82Z" fill="white"/>
</mask>
<g mask="url(#mask39_742_26944)">
<path d="M116.551 162.765L113.818 159.093L114.169 158.832L117.096 162.765H116.551Z" fill="#C3C9EC"/>
</g>
<mask id="mask40_742_26944" style="mask-type:luminance" maskUnits="userSpaceOnUse" x="110" y="151" width="20" height="12">
<path d="M125.328 151.82L129.823 154.349L110.963 162.763L125.328 151.82Z" fill="white"/>
</mask>
<g mask="url(#mask40_742_26944)">
<path d="M116.007 162.765L113.469 159.355L113.82 159.094L116.552 162.765H116.007Z" fill="#C2C8EC"/>
</g>
<mask id="mask41_742_26944" style="mask-type:luminance" maskUnits="userSpaceOnUse" x="110" y="151" width="20" height="12">
<path d="M125.328 151.82L129.823 154.349L110.963 162.763L125.328 151.82Z" fill="white"/>
</mask>
<g mask="url(#mask41_742_26944)">
<path d="M115.465 162.766L113.121 159.616L113.472 159.355L116.01 162.766H115.465Z" fill="#C1C7EB"/>
</g>
<mask id="mask42_742_26944" style="mask-type:luminance" maskUnits="userSpaceOnUse" x="110" y="151" width="20" height="12">
<path d="M125.328 151.82L129.823 154.349L110.963 162.763L125.328 151.82Z" fill="white"/>
</mask>
<g mask="url(#mask42_742_26944)">
<path d="M114.92 162.767L112.77 159.878L113.12 159.617L115.465 162.767H114.92Z" fill="#C0C6EB"/>
</g>
<mask id="mask43_742_26944" style="mask-type:luminance" maskUnits="userSpaceOnUse" x="110" y="151" width="20" height="12">
<path d="M125.328 151.82L129.823 154.349L110.963 162.763L125.328 151.82Z" fill="white"/>
</mask>
<g mask="url(#mask43_742_26944)">
<path d="M114.374 162.764L112.418 160.136L112.769 159.875L114.919 162.764H114.374Z" fill="#BFC5EA"/>
</g>
<mask id="mask44_742_26944" style="mask-type:luminance" maskUnits="userSpaceOnUse" x="110" y="151" width="20" height="12">
<path d="M125.328 151.82L129.823 154.349L110.963 162.763L125.328 151.82Z" fill="white"/>
</mask>
<g mask="url(#mask44_742_26944)">
<path d="M113.83 162.764L112.068 160.398L112.419 160.137L114.375 162.764H113.83Z" fill="#BEC5EA"/>
</g>
<mask id="mask45_742_26944" style="mask-type:luminance" maskUnits="userSpaceOnUse" x="110" y="151" width="20" height="12">
<path d="M125.328 151.82L129.823 154.349L110.963 162.763L125.328 151.82Z" fill="white"/>
</mask>
<g mask="url(#mask45_742_26944)">
<path d="M113.284 162.765L111.717 160.659L112.067 160.398L113.829 162.765H113.284Z" fill="#BDC4EA"/>
</g>
<mask id="mask46_742_26944" style="mask-type:luminance" maskUnits="userSpaceOnUse" x="110" y="151" width="20" height="12">
<path d="M125.328 151.82L129.823 154.349L110.963 162.763L125.328 151.82Z" fill="white"/>
</mask>
<g mask="url(#mask46_742_26944)">
<path d="M112.738 162.766L111.365 160.921L111.716 160.66L113.283 162.766H112.738Z" fill="#BCC3E9"/>
</g>
<mask id="mask47_742_26944" style="mask-type:luminance" maskUnits="userSpaceOnUse" x="110" y="151" width="20" height="12">
<path d="M125.328 151.82L129.823 154.349L110.963 162.763L125.328 151.82Z" fill="white"/>
</mask>
<g mask="url(#mask47_742_26944)">
<path d="M112.194 162.766L111.016 161.183L111.366 160.922L112.739 162.766H112.194Z" fill="#BBC2E9"/>
</g>
<mask id="mask48_742_26944" style="mask-type:luminance" maskUnits="userSpaceOnUse" x="110" y="151" width="20" height="12">
<path d="M125.328 151.82L129.823 154.349L110.963 162.763L125.328 151.82Z" fill="white"/>
</mask>
<g mask="url(#mask48_742_26944)">
<path d="M110.963 161.221L111.014 161.184L112.192 162.767H110.963V161.221Z" fill="#BBC2E9"/>
</g>
</g>
<path d="M121.846 151.353L125.619 153.062L139.708 147.934L121.846 151.353Z" fill="#EAEAFA"/>
<path d="M125.617 153.062L126.236 157.042L128.594 154.389L139.707 147.934L125.617 153.062Z" fill="#DADAF5"/>
<path d="M126.236 157.04L130.392 154.711L128.594 154.387L126.236 157.04Z" fill="#C8C8EE"/>
<path d="M139.706 147.934L128.594 154.389L133.958 156.629L139.706 147.934Z" fill="#EAEAFA"/>
<g opacity="0.5">
<mask id="mask49_742_26944" style="mask-type:luminance" maskUnits="userSpaceOnUse" x="58" y="17" width="20" height="12">
<path d="M63.1717 17.375L58.5469 20.5076L77.5364 28.3176L63.1717 17.375Z" fill="white"/>
</mask>
<g mask="url(#mask49_742_26944)">
<path d="M59.1783 17.375L58.5469 18.2233V17.375H59.1783Z" fill="#EAEAFA"/>
</g>
<mask id="mask50_742_26944" style="mask-type:luminance" maskUnits="userSpaceOnUse" x="58" y="17" width="20" height="12">
<path d="M63.1717 17.375L58.5469 20.5076L77.5364 28.3176L63.1717 17.375Z" fill="white"/>
</mask>
<g mask="url(#mask50_742_26944)">
<path d="M59.7164 17.375L58.5469 18.9461V18.2233L59.1783 17.375H59.7164Z" fill="#EAEAFA"/>
</g>
<mask id="mask51_742_26944" style="mask-type:luminance" maskUnits="userSpaceOnUse" x="58" y="17" width="20" height="12">
<path d="M63.1717 17.375L58.5469 20.5076L77.5364 28.3176L63.1717 17.375Z" fill="white"/>
</mask>
<g mask="url(#mask51_742_26944)">
<path d="M60.2545 17.375L58.5469 19.669V18.9461L59.7164 17.375H60.2545Z" fill="#E9E9FA"/>
</g>
<mask id="mask52_742_26944" style="mask-type:luminance" maskUnits="userSpaceOnUse" x="58" y="17" width="20" height="12">
<path d="M63.1717 17.375L58.5469 20.5076L77.5364 28.3176L63.1717 17.375Z" fill="white"/>
</mask>
<g mask="url(#mask52_742_26944)">
<path d="M60.7925 17.375L58.5469 20.392V19.669L60.2545 17.375H60.7925Z" fill="#E8E8F9"/>
</g>
<mask id="mask53_742_26944" style="mask-type:luminance" maskUnits="userSpaceOnUse" x="58" y="17" width="20" height="12">
<path d="M63.1717 17.375L58.5469 20.5076L77.5364 28.3176L63.1717 17.375Z" fill="white"/>
</mask>
<g mask="url(#mask53_742_26944)">
<path d="M61.3306 17.375L58.5469 21.1149V20.392L60.7925 17.375H61.3306Z" fill="#E7E7F9"/>
</g>
<mask id="mask54_742_26944" style="mask-type:luminance" maskUnits="userSpaceOnUse" x="58" y="17" width="20" height="12">
<path d="M63.1717 17.375L58.5469 20.5076L77.5364 28.3176L63.1717 17.375Z" fill="white"/>
</mask>
<g mask="url(#mask54_742_26944)">
<path d="M61.8687 17.375L58.5636 21.8153L58.5469 21.8028V21.1149L61.3306 17.375H61.8687Z" fill="#E6E7F9"/>
</g>
<mask id="mask55_742_26944" style="mask-type:luminance" maskUnits="userSpaceOnUse" x="58" y="17" width="20" height="12">
<path d="M63.1717 17.375L58.5469 20.5076L77.5364 28.3176L63.1717 17.375Z" fill="white"/>
</mask>
<g mask="url(#mask55_742_26944)">
<path d="M62.4056 17.375L58.9087 22.0729L58.5625 21.8153L61.8676 17.375H62.4056Z" fill="#E5E6F8"/>
</g>
<mask id="mask56_742_26944" style="mask-type:luminance" maskUnits="userSpaceOnUse" x="58" y="17" width="20" height="12">
<path d="M63.1717 17.375L58.5469 20.5076L77.5364 28.3176L63.1717 17.375Z" fill="white"/>
</mask>
<g mask="url(#mask56_742_26944)">
<path d="M62.9432 17.375L59.2544 22.3307L58.9082 22.0729L62.4051 17.375H62.9432Z" fill="#E4E5F8"/>
</g>
<mask id="mask57_742_26944" style="mask-type:luminance" maskUnits="userSpaceOnUse" x="58" y="17" width="20" height="12">
<path d="M63.1717 17.375L58.5469 20.5076L77.5364 28.3176L63.1717 17.375Z" fill="white"/>
</mask>
<g mask="url(#mask57_742_26944)">
<path d="M63.4827 17.375L59.6022 22.5885L59.2559 22.3307L62.9446 17.375H63.4827Z" fill="#E3E4F7"/>
</g>
<mask id="mask58_742_26944" style="mask-type:luminance" maskUnits="userSpaceOnUse" x="58" y="17" width="20" height="12">
<path d="M63.1717 17.375L58.5469 20.5076L77.5364 28.3176L63.1717 17.375Z" fill="white"/>
</mask>
<g mask="url(#mask58_742_26944)">
<path d="M64.0202 17.375L59.9478 22.8461L59.6016 22.5885L63.4821 17.375H64.0202Z" fill="#E2E3F7"/>
</g>
<mask id="mask59_742_26944" style="mask-type:luminance" maskUnits="userSpaceOnUse" x="58" y="17" width="20" height="12">
<path d="M63.1717 17.375L58.5469 20.5076L77.5364 28.3176L63.1717 17.375Z" fill="white"/>
</mask>
<g mask="url(#mask59_742_26944)">
<path d="M64.5577 17.375L60.2935 23.1039L59.9473 22.8461L64.0197 17.375H64.5577Z" fill="#E1E2F7"/>
</g>
<mask id="mask60_742_26944" style="mask-type:luminance" maskUnits="userSpaceOnUse" x="58" y="17" width="20" height="12">
<path d="M63.1717 17.375L58.5469 20.5076L77.5364 28.3176L63.1717 17.375Z" fill="white"/>
</mask>
<g mask="url(#mask60_742_26944)">
<path d="M64.9119 17.375L65.0312 17.4637L60.6412 23.3615L60.2949 23.1039L64.5592 17.375H64.9119Z" fill="#E0E1F6"/>
</g>
<mask id="mask61_742_26944" style="mask-type:luminance" maskUnits="userSpaceOnUse" x="60" y="13" width="18" height="12">
<path d="M60.5662 18.5165L60.3177 24.0971L77.9214 13.5269L60.5662 18.5165Z" fill="white"/>
</mask>
<g mask="url(#mask61_742_26944)">
<path d="M65.0327 17.4613L60.6426 23.3594L60.9888 23.6171L65.3789 17.719L65.0327 17.4613Z" fill="#DFE0F6"/>
</g>
<mask id="mask62_742_26944" style="mask-type:luminance" maskUnits="userSpaceOnUse" x="60" y="13" width="18" height="12">
<path d="M60.4978 18.8993L60.2493 24.4799L77.8531 13.9097L60.4978 18.8993Z" fill="white"/>
</mask>
<g mask="url(#mask62_742_26944)">
<path d="M65.3764 17.7152L60.9863 23.6133L61.3326 23.871L65.7226 17.9729L65.3764 17.7152Z" fill="#DEE0F6"/>
</g>
<mask id="mask63_742_26944" style="mask-type:luminance" maskUnits="userSpaceOnUse" x="60" y="14" width="18" height="11">
<path d="M60.4353 19.286L60.1868 24.8666L77.7906 14.2964L60.4353 19.286Z" fill="white"/>
</mask>
<g mask="url(#mask63_742_26944)">
<path d="M65.726 17.9769L61.3359 23.875L61.6822 24.1327L66.0722 18.2346L65.726 17.9769Z" fill="#DDDFF5"/>
</g>
<mask id="mask64_742_26944" style="mask-type:luminance" maskUnits="userSpaceOnUse" x="60" y="14" width="18" height="12">
<path d="M60.365 19.661L60.1165 25.2416L77.7203 14.6714L60.365 19.661Z" fill="white"/>
</mask>
<g mask="url(#mask64_742_26944)">
<path d="M66.0698 18.2347L61.6797 24.1328L62.0259 24.3905L66.416 18.4925L66.0698 18.2347Z" fill="#DCDEF5"/>
</g>
<mask id="mask65_742_26944" style="mask-type:luminance" maskUnits="userSpaceOnUse" x="60" y="15" width="18" height="11">
<path d="M60.2967 20.0438L60.0481 25.6244L77.6519 15.0543L60.2967 20.0438Z" fill="white"/>
</mask>
<g mask="url(#mask65_742_26944)">
<path d="M66.4155 18.4926L62.0254 24.3906L62.3716 24.6483L66.7617 18.7503L66.4155 18.4926Z" fill="#DBDDF4"/>
</g>
<mask id="mask66_742_26944" style="mask-type:luminance" maskUnits="userSpaceOnUse" x="59" y="15" width="19" height="12">
<path d="M60.2303 20.4305L59.9817 26.0111L77.5855 15.441L60.2303 20.4305Z" fill="white"/>
</mask>
<g mask="url(#mask66_742_26944)">
<path d="M66.7612 18.7504L62.3711 24.6484L62.7173 24.9061L67.1074 19.0081L66.7612 18.7504Z" fill="#DADCF4"/>
</g>
<mask id="mask67_742_26944" style="mask-type:luminance" maskUnits="userSpaceOnUse" x="59" y="15" width="19" height="12">
<path d="M60.1638 20.8055L59.9153 26.3861L77.5191 15.816L60.1638 20.8055Z" fill="white"/>
</mask>
<g mask="url(#mask67_742_26944)">
<path d="M67.1088 19.0043L62.7188 24.9023L63.065 25.1601L67.4551 19.262L67.1088 19.0043Z" fill="#D9DBF4"/>
</g>
<mask id="mask68_742_26944" style="mask-type:luminance" maskUnits="userSpaceOnUse" x="59" y="16" width="19" height="11">
<path d="M60.0955 21.1923L59.847 26.7728L77.4507 16.2027L60.0955 21.1923Z" fill="white"/>
</mask>
<g mask="url(#mask68_742_26944)">
<path d="M67.4545 19.2699L63.0645 25.168L63.4107 25.4257L67.8008 19.5276L67.4545 19.2699Z" fill="#D8DAF3"/>
</g>
<mask id="mask69_742_26944" style="mask-type:luminance" maskUnits="userSpaceOnUse" x="59" y="16" width="19" height="12">
<path d="M60.0291 21.5673L59.7806 27.1478L77.3843 16.5777L60.0291 21.5673Z" fill="white"/>
</mask>
<g mask="url(#mask69_742_26944)">
<path d="M67.8041 19.5199L63.4141 25.418L63.7603 25.6757L68.1504 19.7776L67.8041 19.5199Z" fill="#D7D9F3"/>
</g>
<mask id="mask70_742_26944" style="mask-type:luminance" maskUnits="userSpaceOnUse" x="59" y="16" width="19" height="12">
<path d="M59.9607 21.9501L59.7122 27.5307L77.316 16.9605L59.9607 21.9501Z" fill="white"/>
</mask>
<g mask="url(#mask70_742_26944)">
<path d="M68.1479 19.7777L63.7578 25.6758L64.104 25.9335L68.4941 20.0354L68.1479 19.7777Z" fill="#D6D9F3"/>
</g>
<mask id="mask71_742_26944" style="mask-type:luminance" maskUnits="userSpaceOnUse" x="59" y="17" width="19" height="11">
<path d="M59.8943 22.3368L59.6458 27.9174L77.2496 17.3472L59.8943 22.3368Z" fill="white"/>
</mask>
<g mask="url(#mask71_742_26944)">
<path d="M68.4955 20.0394L64.1055 25.9375L64.4517 26.1952L68.8418 20.2971L68.4955 20.0394Z" fill="#D5D8F2"/>
</g>
<mask id="mask72_742_26944" style="mask-type:luminance" maskUnits="userSpaceOnUse" x="59" y="17" width="19" height="12">
<path d="M59.8279 22.7118L59.5794 28.2924L77.1832 17.7222L59.8279 22.7118Z" fill="white"/>
</mask>
<g mask="url(#mask72_742_26944)">
<path d="M68.8432 20.2933L64.4531 26.1914L64.7994 26.4491L69.1894 20.551L68.8432 20.2933Z" fill="#D4D7F2"/>
</g>
<mask id="mask73_742_26944" style="mask-type:luminance" maskUnits="userSpaceOnUse" x="59" y="18" width="19" height="11">
<path d="M59.7596 23.0985L59.511 28.6791L77.1148 18.1089L59.7596 23.0985Z" fill="white"/>
</mask>
<g mask="url(#mask73_742_26944)">
<path d="M69.187 20.5551L64.7969 26.4531L65.1431 26.7108L69.5332 20.8128L69.187 20.5551Z" fill="#D3D6F2"/>
</g>
<mask id="mask74_742_26944" style="mask-type:luminance" maskUnits="userSpaceOnUse" x="59" y="18" width="19" height="12">
<path d="M59.6931 23.4735L59.4446 29.0541L77.0484 18.4839L59.6931 23.4735Z" fill="white"/>
</mask>
<g mask="url(#mask74_742_26944)">
<path d="M69.5346 20.809L65.1445 26.707L65.4908 26.9647L69.8808 21.0667L69.5346 20.809Z" fill="#D1D5F1"/>
</g>
<mask id="mask75_742_26944" style="mask-type:luminance" maskUnits="userSpaceOnUse" x="59" y="18" width="18" height="12">
<path d="M59.6267 23.8563L59.3782 29.4369L76.982 18.8668L59.6267 23.8563Z" fill="white"/>
</mask>
<g mask="url(#mask75_742_26944)">
<path d="M69.8803 21.0629L65.4902 26.9609L65.8365 27.2186L70.2265 21.3206L69.8803 21.0629Z" fill="#D0D4F1"/>
</g>
<mask id="mask76_742_26944" style="mask-type:luminance" maskUnits="userSpaceOnUse" x="59" y="19" width="18" height="11">
<path d="M59.5584 24.243L59.3099 29.8236L76.9136 19.2535L59.5584 24.243Z" fill="white"/>
</mask>
<g mask="url(#mask76_742_26944)">
<path d="M70.226 21.3285L65.8359 27.2266L66.1822 27.4843L70.5722 21.5862L70.226 21.3285Z" fill="#CFD3F0"/>
</g>
<mask id="mask77_742_26944" style="mask-type:luminance" maskUnits="userSpaceOnUse" x="59" y="19" width="18" height="12">
<path d="M59.492 24.6259L59.2435 30.2064L76.8472 19.6363L59.492 24.6259Z" fill="white"/>
</mask>
<g mask="url(#mask77_742_26944)">
<path d="M70.5717 21.5863L66.1816 27.4844L66.5279 27.7421L70.9179 21.844L70.5717 21.5863Z" fill="#CED3F0"/>
</g>
<mask id="mask78_742_26944" style="mask-type:luminance" maskUnits="userSpaceOnUse" x="59" y="20" width="18" height="11">
<path d="M59.4236 25.0048L59.1751 30.5853L76.7789 20.0152L59.4236 25.0048Z" fill="white"/>
</mask>
<g mask="url(#mask78_742_26944)">
<path d="M70.9174 21.8441L66.5273 27.7422L66.8736 27.9999L71.2637 22.1018L70.9174 21.8441Z" fill="#CDD2F0"/>
</g>
<mask id="mask79_742_26944" style="mask-type:luminance" maskUnits="userSpaceOnUse" x="59" y="20" width="18" height="11">
<path d="M59.3572 25.3876L59.1087 30.9682L76.7125 20.398L59.3572 25.3876Z" fill="white"/>
</mask>
<g mask="url(#mask79_742_26944)">
<path d="M71.2651 22.1019L66.875 28L67.2212 28.2577L71.6113 22.3596L71.2651 22.1019Z" fill="#CCD1EF"/>
</g>
<mask id="mask80_742_26944" style="mask-type:luminance" maskUnits="userSpaceOnUse" x="58" y="17" width="20" height="12">
<path d="M63.1717 17.375L58.5469 20.5076L77.5364 28.3176L63.1717 17.375Z" fill="white"/>
</mask>
<g mask="url(#mask80_742_26944)">
<path d="M71.6087 22.3633L71.9549 22.621L67.7126 28.3205H67.2984L67.2188 28.2612L71.6087 22.3633Z" fill="#CBD0EF"/>
</g>
<mask id="mask81_742_26944" style="mask-type:luminance" maskUnits="userSpaceOnUse" x="58" y="17" width="20" height="12">
<path d="M63.1717 17.375L58.5469 20.5076L77.5364 28.3176L63.1717 17.375Z" fill="white"/>
</mask>
<g mask="url(#mask81_742_26944)">
<path d="M71.9552 22.6172L72.3015 22.8749L68.251 28.3166H67.7129L71.9552 22.6172Z" fill="#CACFEF"/>
</g>
<mask id="mask82_742_26944" style="mask-type:luminance" maskUnits="userSpaceOnUse" x="58" y="17" width="20" height="12">
<path d="M63.1717 17.375L58.5469 20.5076L77.5364 28.3176L63.1717 17.375Z" fill="white"/>
</mask>
<g mask="url(#mask82_742_26944)">
<path d="M72.3025 22.875L72.6487 23.1327L68.79 28.3167H68.252L72.3025 22.875Z" fill="#C9CEEE"/>
</g>
<mask id="mask83_742_26944" style="mask-type:luminance" maskUnits="userSpaceOnUse" x="58" y="17" width="20" height="12">
<path d="M63.1717 17.375L58.5469 20.5076L77.5364 28.3176L63.1717 17.375Z" fill="white"/>
</mask>
<g mask="url(#mask83_742_26944)">
<path d="M72.6477 23.1367L72.9939 23.3945L69.3271 28.3207H68.7891L72.6477 23.1367Z" fill="#C8CDEE"/>
</g>
<mask id="mask84_742_26944" style="mask-type:luminance" maskUnits="userSpaceOnUse" x="58" y="17" width="20" height="12">
<path d="M63.1717 17.375L58.5469 20.5076L77.5364 28.3176L63.1717 17.375Z" fill="white"/>
</mask>
<g mask="url(#mask84_742_26944)">
<path d="M72.9949 23.3906L73.3412 23.6483L69.8662 28.3169H69.3281L72.9949 23.3906Z" fill="#C7CCED"/>
</g>
<mask id="mask85_742_26944" style="mask-type:luminance" maskUnits="userSpaceOnUse" x="58" y="17" width="20" height="12">
<path d="M63.1717 17.375L58.5469 20.5076L77.5364 28.3176L63.1717 17.375Z" fill="white"/>
</mask>
<g mask="url(#mask85_742_26944)">
<path d="M73.3383 23.6523L73.6845 23.9101L70.4013 28.321H69.8633L73.3383 23.6523Z" fill="#C6CCED"/>
</g>
<mask id="mask86_742_26944" style="mask-type:luminance" maskUnits="userSpaceOnUse" x="58" y="17" width="20" height="12">
<path d="M63.1717 17.375L58.5469 20.5076L77.5364 28.3176L63.1717 17.375Z" fill="white"/>
</mask>
<g mask="url(#mask86_742_26944)">
<path d="M73.6855 23.9062L74.0317 24.164L70.9404 28.3171H70.4023L73.6855 23.9062Z" fill="#C5CBED"/>
</g>
<mask id="mask87_742_26944" style="mask-type:luminance" maskUnits="userSpaceOnUse" x="58" y="17" width="20" height="12">
<path d="M63.1717 17.375L58.5469 20.5076L77.5364 28.3176L63.1717 17.375Z" fill="white"/>
</mask>
<g mask="url(#mask87_742_26944)">
<path d="M74.0327 24.1641L74.3789 24.4217L71.4795 28.3172H70.9414L74.0327 24.1641Z" fill="#C4CAEC"/>
</g>
<mask id="mask88_742_26944" style="mask-type:luminance" maskUnits="userSpaceOnUse" x="58" y="17" width="20" height="12">
<path d="M63.1717 17.375L58.5469 20.5076L77.5364 28.3176L63.1717 17.375Z" fill="white"/>
</mask>
<g mask="url(#mask88_742_26944)">
<path d="M74.378 24.4258L74.7243 24.6835L72.0166 28.3212H71.4785L74.378 24.4258Z" fill="#C3C9EC"/>
</g>
<mask id="mask89_742_26944" style="mask-type:luminance" maskUnits="userSpaceOnUse" x="58" y="17" width="20" height="12">
<path d="M63.1717 17.375L58.5469 20.5076L77.5364 28.3176L63.1717 17.375Z" fill="white"/>
</mask>
<g mask="url(#mask89_742_26944)">
<path d="M74.7253 24.6797L75.0715 24.9374L72.5556 28.3174H72.0176L74.7253 24.6797Z" fill="#C2C8EC"/>
</g>
<mask id="mask90_742_26944" style="mask-type:luminance" maskUnits="userSpaceOnUse" x="58" y="17" width="20" height="12">
<path d="M63.1717 17.375L58.5469 20.5076L77.5364 28.3176L63.1717 17.375Z" fill="white"/>
</mask>
<g mask="url(#mask90_742_26944)">
<path d="M75.0725 24.9414L75.4187 25.1992L73.0947 28.3214H72.5566L75.0725 24.9414Z" fill="#C1C7EB"/>
</g>
<mask id="mask91_742_26944" style="mask-type:luminance" maskUnits="userSpaceOnUse" x="58" y="17" width="20" height="12">
<path d="M63.1717 17.375L58.5469 20.5076L77.5364 28.3176L63.1717 17.375Z" fill="white"/>
</mask>
<g mask="url(#mask91_742_26944)">
<path d="M75.4177 25.1953L75.7639 25.4531L73.6318 28.3176H73.0938L75.4177 25.1953Z" fill="#C0C6EB"/>
</g>
<mask id="mask92_742_26944" style="mask-type:luminance" maskUnits="userSpaceOnUse" x="58" y="17" width="20" height="12">
<path d="M63.1717 17.375L58.5469 20.5076L77.5364 28.3176L63.1717 17.375Z" fill="white"/>
</mask>
<g mask="url(#mask92_742_26944)">
<path d="M75.7649 25.4531L76.1112 25.7108L74.1709 28.3176H73.6328L75.7649 25.4531Z" fill="#BFC5EA"/>
</g>
<mask id="mask93_742_26944" style="mask-type:luminance" maskUnits="userSpaceOnUse" x="58" y="17" width="20" height="12">
<path d="M63.1717 17.375L58.5469 20.5076L77.5364 28.3176L63.1717 17.375Z" fill="white"/>
</mask>
<g mask="url(#mask93_742_26944)">
<path d="M76.1083 25.7148L76.4545 25.9726L74.706 28.3217H74.168L76.1083 25.7148Z" fill="#BEC5EA"/>
</g>
<mask id="mask94_742_26944" style="mask-type:luminance" maskUnits="userSpaceOnUse" x="58" y="17" width="20" height="12">
<path d="M63.1717 17.375L58.5469 20.5076L77.5364 28.3176L63.1717 17.375Z" fill="white"/>
</mask>
<g mask="url(#mask94_742_26944)">
<path d="M76.4555 25.9688L76.8018 26.2264L75.2451 28.3178H74.707L76.4555 25.9688Z" fill="#BDC4EA"/>
</g>
<mask id="mask95_742_26944" style="mask-type:luminance" maskUnits="userSpaceOnUse" x="58" y="17" width="20" height="12">
<path d="M63.1717 17.375L58.5469 20.5076L77.5364 28.3176L63.1717 17.375Z" fill="white"/>
</mask>
<g mask="url(#mask95_742_26944)">
<path d="M76.8027 26.2227L77.1491 26.4804L75.7842 28.314H75.2461L76.8027 26.2227Z" fill="#BCC3E9"/>
</g>
<mask id="mask96_742_26944" style="mask-type:luminance" maskUnits="userSpaceOnUse" x="58" y="17" width="20" height="12">
<path d="M63.1717 17.375L58.5469 20.5076L77.5364 28.3176L63.1717 17.375Z" fill="white"/>
</mask>
<g mask="url(#mask96_742_26944)">
<path d="M77.1481 26.4844L77.4943 26.7421L76.3213 28.318H75.7832L77.1481 26.4844Z" fill="#BBC2E9"/>
</g>
<mask id="mask97_742_26944" style="mask-type:luminance" maskUnits="userSpaceOnUse" x="58" y="17" width="20" height="12">
<path d="M63.1717 17.375L58.5469 20.5076L77.5364 28.3176L63.1717 17.375Z" fill="white"/>
</mask>
<g mask="url(#mask97_742_26944)">
<path d="M77.4953 26.7422L77.5361 26.7725V28.3181H76.3223L77.4953 26.7422Z" fill="#BBC2E9"/>
</g>
</g>
<path d="M66.6587 16.9055L62.8858 18.6151L46.9844 10.6992L66.6587 16.9055Z" fill="#EAEAFA"/>
<path d="M62.8858 18.6151L62.2668 22.5943L59.9087 19.9415L46.9844 10.6992L62.8858 18.6151Z" fill="#DADAF5"/>
<path d="M62.2655 22.5904L58.1094 20.2617L59.9074 19.9375L62.2655 22.5904Z" fill="#C8C8EE"/>
<path d="M46.9844 10.6992L59.9087 19.9415L54.5441 22.1817L46.9844 10.6992Z" fill="#EAEAFA"/>
<defs>
<linearGradient id="paint0_linear_742_26944" x1="123.221" y1="200.229" x2="123.221" y2="211.827" gradientUnits="userSpaceOnUse">
<stop stop-color="#F07295"/>
<stop offset="0.9895" stop-color="#F0324B"/>
</linearGradient>
<linearGradient id="paint1_linear_742_26944" x1="80.8774" y1="24.1573" x2="109.658" y2="84.0362" gradientUnits="userSpaceOnUse">
<stop stop-color="#F07295"/>
<stop offset="0.9895" stop-color="#F0324B"/>
</linearGradient>
<linearGradient id="paint2_linear_742_26944" x1="137.32" y1="75.8775" x2="137.32" y2="288.27" gradientUnits="userSpaceOnUse">
<stop stop-color="#F07295"/>
<stop offset="0.9895" stop-color="#F0324B"/>
</linearGradient>
<linearGradient id="paint3_linear_742_26944" x1="34.9935" y1="51.1948" x2="17.5796" y2="106.224" gradientUnits="userSpaceOnUse">
<stop stop-color="#F07295"/>
<stop offset="0.9895" stop-color="#F0324B"/>
</linearGradient>
</defs>
</svg>
