<svg width="412" height="336" viewBox="0 0 412 336" fill="none" xmlns="http://www.w3.org/2000/svg">
<path d="M411.787 37.4756H0.390625V336H411.787V37.4756Z" fill="#E3E9F7" style="fill:#E3E9F7;fill:color(display-p3 0.8902 0.9137 0.9686);fill-opacity:1;"/>
<path d="M411.773 0H0.535156V37.5579H411.773V0Z" fill="#BBC9FF" style="fill:#BBC9FF;fill:color(display-p3 0.7333 0.7895 1.0000);fill-opacity:1;"/>
<path d="M19.5542 23.0392C23.0446 23.0392 25.874 20.3487 25.874 17.0298C25.874 13.711 23.0446 11.0205 19.5542 11.0205C16.0639 11.0205 13.2344 13.711 13.2344 17.0298C13.2344 20.3487 16.0639 23.0392 19.5542 23.0392Z" fill="#E3E9F7" style="fill:#E3E9F7;fill:color(display-p3 0.8902 0.9137 0.9686);fill-opacity:1;"/>
<path d="M37.98 23.0392C41.4703 23.0392 44.2998 20.3487 44.2998 17.0298C44.2998 13.711 41.4703 11.0205 37.98 11.0205C34.4896 11.0205 31.6602 13.711 31.6602 17.0298C31.6602 20.3487 34.4896 23.0392 37.98 23.0392Z" fill="#E3E9F7" style="fill:#E3E9F7;fill:color(display-p3 0.8902 0.9137 0.9686);fill-opacity:1;"/>
<path d="M56.4136 23.0392C59.9039 23.0392 62.7334 20.3487 62.7334 17.0298C62.7334 13.711 59.9039 11.0205 56.4136 11.0205C52.9232 11.0205 50.0938 13.711 50.0938 17.0298C50.0938 20.3487 52.9232 23.0392 56.4136 23.0392Z" fill="#E3E9F7" style="fill:#E3E9F7;fill:color(display-p3 0.8902 0.9137 0.9686);fill-opacity:1;"/>
<path d="M399.405 52.8379H12.7656V319.932H399.405V52.8379Z" fill="#F4F6FC" style="fill:#F4F6FC;fill:color(display-p3 0.9569 0.9647 0.9882);fill-opacity:1;"/>
<path d="M266.848 138.177V255.611C266.848 260.06 263.241 263.666 258.793 263.666H154.949C150.501 263.666 146.895 260.06 146.895 255.611V116.563C146.895 112.114 150.501 108.508 154.949 108.508H236.639L237.179 109.037L266.848 138.177Z" fill="#ACBCF8" style="fill:#ACBCF8;fill:color(display-p3 0.6745 0.7373 0.9725);fill-opacity:1;"/>
<path opacity="0.15" d="M266.837 138.176H243.725C240.104 138.176 237.168 135.241 237.168 131.62V109.037L266.837 138.176Z" fill="black" style="fill:black;fill-opacity:1;"/>
<path d="M171.971 192.857H167.943L161.441 181.549H161.349C161.478 183.546 161.543 184.971 161.543 185.823V192.857H158.711V177.909H162.708L169.201 189.104H169.272C169.17 187.162 169.119 185.788 169.119 184.984V177.909H171.972L171.971 192.857Z" fill="white" style="fill:white;fill-opacity:1;"/>
<path d="M189.306 185.362C189.306 187.836 188.693 189.738 187.465 191.067C186.239 192.396 184.48 193.061 182.19 193.061C179.9 193.061 178.141 192.396 176.914 191.067C175.688 189.738 175.074 187.83 175.074 185.342C175.074 182.854 175.689 180.954 176.92 179.642C178.15 178.33 179.914 177.674 182.211 177.674C184.507 177.674 186.264 178.335 187.481 179.657C188.698 180.98 189.306 182.881 189.306 185.362ZM178.397 185.362C178.397 187.032 178.714 188.29 179.348 189.135C179.982 189.98 180.929 190.403 182.19 190.403C184.719 190.403 185.983 188.723 185.983 185.362C185.983 181.995 184.726 180.311 182.21 180.311C180.949 180.311 179.998 180.736 179.358 181.584C178.717 182.433 178.397 183.692 178.397 185.362Z" fill="white" style="fill:white;fill-opacity:1;"/>
<path d="M210.241 185.24C210.241 187.7 209.541 189.585 208.14 190.893C206.74 192.202 204.717 192.857 202.072 192.857H197.84V177.909H202.533C204.972 177.909 206.867 178.553 208.217 179.841C209.567 181.129 210.241 182.929 210.241 185.24ZM206.949 185.321C206.949 182.111 205.532 180.506 202.696 180.506H201.009V190.239H202.369C205.422 190.239 206.949 188.6 206.949 185.321Z" fill="white" style="fill:white;fill-opacity:1;"/>
<path d="M222.481 192.855L221.397 189.297H215.948L214.864 192.855H211.449L216.725 177.847H220.6L225.896 192.855H222.481ZM220.641 186.639C219.639 183.415 219.075 181.592 218.949 181.169C218.822 180.747 218.732 180.413 218.678 180.167C218.453 181.04 217.809 183.197 216.745 186.639H220.641Z" fill="white" style="fill:white;fill-opacity:1;"/>
<path d="M233.545 192.857H230.375V180.547H226.316V177.909H237.604V180.547H233.545V192.857Z" fill="white" style="fill:white;fill-opacity:1;"/>
<path d="M249.055 192.855L247.971 189.297H242.522L241.438 192.855H238.023L243.299 177.847H247.174L252.47 192.855H249.055ZM247.215 186.639C246.213 183.415 245.649 181.592 245.523 181.169C245.397 180.747 245.306 180.413 245.252 180.167C245.027 181.04 244.383 183.197 243.32 186.639H247.215Z" fill="white" style="fill:white;fill-opacity:1;"/>
</svg>
