<svg width="58" height="58" viewBox="0 0 58 58" fill="none" xmlns="http://www.w3.org/2000/svg">
<path fill-rule="evenodd" clip-rule="evenodd" d="M4.15388 6.51764L1.54013 3.90389C0.804334 3.1681 0.804334 1.97514 1.54013 1.23935C2.27593 0.503551 3.46889 0.503551 4.20467 1.23935L56.96 53.9947C57.6959 54.7305 57.6959 55.9235 56.96 56.6593C56.2243 57.3951 55.0313 57.3951 54.2955 56.6593L51.6818 54.0455C49.1294 56.0296 45.9221 57.2111 42.4389 57.2111H16.0612C7.73667 57.2111 0.988281 50.4628 0.988281 42.1382V15.7605C0.988281 12.2773 2.16978 9.07005 4.15388 6.51764ZM48.9892 51.3529L6.84648 9.21022C5.5305 11.0583 4.75652 13.3189 4.75652 15.7605V42.1382C4.75652 42.5007 4.77358 42.8591 4.80694 43.2129L9.07964 36.3766C13.816 28.7983 24.5593 28.0252 30.3319 34.8475L45.6701 52.9744C46.8725 52.6164 47.9911 52.0637 48.9892 51.3529ZM41.1303 53.4429L27.4553 37.2815C23.332 32.4086 15.6582 32.9607 12.275 38.3738L6.35426 47.847C6.34529 47.8614 6.33616 47.8756 6.32687 47.8896C8.29522 51.2139 11.918 53.4429 16.0612 53.4429H41.1303Z" fill="#7B7979"/>
<path d="M53.7418 42.1382C53.7418 43.3256 53.5588 44.4702 53.2193 45.5455L56.1273 48.4534C57.0149 46.5326 57.5101 44.3932 57.5101 42.1382V15.7605C57.5101 7.43589 50.7617 0.6875 42.4371 0.6875H16.0594C13.8044 0.6875 11.665 1.1827 9.74414 2.0703L12.6521 4.97828C13.7274 4.63882 14.872 4.45574 16.0594 4.45574H42.4371C48.6805 4.45574 53.7418 9.51706 53.7418 15.7605V42.1382Z" fill="#7B7979"/>
<path fill-rule="evenodd" clip-rule="evenodd" d="M39.6133 14.8203C36.4916 14.8203 33.9609 17.351 33.9609 20.4727C33.9609 23.5944 36.4916 26.125 39.6133 26.125C42.735 26.125 45.2657 23.5944 45.2657 20.4727C45.2657 17.351 42.735 14.8203 39.6133 14.8203ZM37.7292 20.4727C37.7292 19.4321 38.5727 18.5886 39.6133 18.5886C40.6539 18.5886 41.4974 19.4321 41.4974 20.4727C41.4974 21.5133 40.6539 22.3568 39.6133 22.3568C38.5727 22.3568 37.7292 21.5133 37.7292 20.4727Z" fill="#7B7979"/>
</svg>
