<svg xmlns="http://www.w3.org/2000/svg" width="42" height="42" viewBox="0 0 42 42" fill="none">
<circle cx="21" cy="21" r="20.5" fill="white" stroke="#35A462"/>
<path fill-rule="evenodd" clip-rule="evenodd" d="M21.0001 6C29.2843 6 36.0005 12.7139 36.0005 21.0021C36.0005 29.2859 29.2843 36 21.0001 36C12.7158 36 6 29.2859 6 21.0021C6.00006 12.7139 12.7163 6 21.0001 6ZM28.2079 13.9578C28.1659 13.9162 28.1091 13.893 28.0499 13.8933C27.9908 13.8936 27.9342 13.9174 27.8926 13.9593L18.8293 23.0949L14.0844 18.3821C14.0422 18.3408 13.9855 18.3176 13.9265 18.3172C13.8971 18.3173 13.8681 18.3231 13.841 18.3345C13.8139 18.3458 13.7894 18.3624 13.7687 18.3833L11.5435 20.6309C11.5018 20.6729 11.4785 20.7297 11.4787 20.7888C11.4789 20.8479 11.5026 20.9046 11.5445 20.9463L18.6955 28.0421C18.7372 28.0834 18.7936 28.1066 18.8524 28.1065H18.8534C18.9127 28.1062 18.9694 28.0824 19.0111 28.0404L30.4571 16.499C30.4778 16.4782 30.4942 16.4535 30.5053 16.4264C30.5164 16.3992 30.522 16.3701 30.5219 16.3408C30.5217 16.3115 30.5158 16.2824 30.5044 16.2554C30.493 16.2284 30.4764 16.2038 30.4555 16.1832L28.2079 13.9578Z" fill="#35A462"/>
</svg>