<svg xmlns="http://www.w3.org/2000/svg" width="24" height="28" viewBox="0 0 24 28" fill="none">
<path d="M22.3786 19.4208C20.7039 18.0053 19.7435 15.9362 19.7435 13.7442V10.6562C19.7435 6.75847 16.8482 3.53198 13.0978 2.99146V1.79524C13.0978 1.18273 12.6016 0.687622 11.9902 0.687622C11.3788 0.687622 10.8826 1.18273 10.8826 1.79524V2.99146C7.13112 3.53198 4.23692 6.75847 4.23692 10.6562V13.7442C4.23692 15.9362 3.27661 18.0053 1.59192 19.4297C1.16106 19.7984 0.914062 20.3345 0.914062 20.9016C0.914062 21.9705 1.78355 22.84 2.8524 22.84H21.128C22.1969 22.84 23.0664 21.9705 23.0664 20.9016C23.0664 20.3345 22.8194 19.7984 22.3786 19.4208Z" fill="#00AEBD" style="fill:#00AEBD;fill:color(display-p3 0.0000 0.6824 0.7412);fill-opacity:1;"/>
<path d="M11.9913 27.2704C13.9971 27.2704 15.6752 25.8405 16.0606 23.9475H7.92188C8.30733 25.8405 9.98532 27.2704 11.9913 27.2704Z" fill="#00AEBD" style="fill:#00AEBD;fill:color(display-p3 0.0000 0.6824 0.7412);fill-opacity:1;"/>
</svg>