<svg width="25" height="25" viewBox="0 0 25 25" fill="none" xmlns="http://www.w3.org/2000/svg">
<path d="M21.3388 3.66116C18.9779 1.30021 15.8388 0 12.5 0C9.16116 0 6.02211 1.30021 3.66116 3.66116C1.30021 6.02211 0 9.16116 0 12.5C0 15.8388 1.30021 18.9779 3.66116 21.3388C6.02211 23.6998 9.16116 25 12.5 25C15.8388 25 18.9779 23.6998 21.3388 21.3388C23.6998 18.9779 25 15.8388 25 12.5C25 9.16116 23.6998 6.02211 21.3388 3.66116ZM12.5 23.6842C6.333 23.6842 1.31579 18.667 1.31579 12.5C1.31579 6.333 6.333 1.31579 12.5 1.31579C18.667 1.31579 23.6842 6.333 23.6842 12.5C23.6842 18.667 18.667 23.6842 12.5 23.6842ZM10.5921 7.76395V17.2361C10.5921 17.5994 10.2975 17.894 9.93421 17.894C9.57089 17.894 9.27632 17.5994 9.27632 17.2361V7.76395C9.27632 7.40063 9.57089 7.10605 9.93421 7.10605C10.2975 7.10605 10.5921 7.40058 10.5921 7.76395ZM15.7237 7.76395V17.2361C15.7237 17.5994 15.4291 17.894 15.0658 17.894C14.7025 17.894 14.4079 17.5994 14.4079 17.2361V7.76395C14.4079 7.40063 14.7025 7.10605 15.0658 7.10605C15.4291 7.10605 15.7237 7.40058 15.7237 7.76395Z" fill="#1D5BBF" style="fill:#1D5BBF;fill:color(display-p3 0.1137 0.3569 0.7490);fill-opacity:1;"/>
</svg>
