<svg width="22" height="22" viewBox="0 0 22 22" fill="none" xmlns="http://www.w3.org/2000/svg">
<path d="M18.7782 3.22182C16.7005 1.14419 13.9382 0 11 0C8.06182 0 5.29945 1.14419 3.22182 3.22182C1.14419 5.29945 0 8.06182 0 11C0 13.9382 1.14419 16.7005 3.22182 18.7782C5.29945 20.8558 8.06182 22 11 22C13.9382 22 16.7005 20.8558 18.7782 18.7782C20.8558 16.7005 22 13.9382 22 11C22 8.06182 20.8558 5.29945 18.7782 3.22182ZM11 20.8421C5.57304 20.8421 1.15789 16.427 1.15789 11C1.15789 5.57304 5.57304 1.15789 11 1.15789C16.427 1.15789 20.8421 5.57304 20.8421 11C20.8421 16.427 16.427 20.8421 11 20.8421ZM9.32105 6.83227V15.1678C9.32105 15.4875 9.06182 15.7467 8.74211 15.7467C8.42239 15.7467 8.16316 15.4875 8.16316 15.1678V6.83227C8.16316 6.51256 8.42239 6.25333 8.74211 6.25333C9.06182 6.25333 9.32105 6.51251 9.32105 6.83227ZM13.8368 6.83227V15.1678C13.8368 15.4875 13.5776 15.7467 13.2579 15.7467C12.9382 15.7467 12.6789 15.4875 12.6789 15.1678V6.83227C12.6789 6.51256 12.9382 6.25333 13.2579 6.25333C13.5776 6.25333 13.8368 6.51251 13.8368 6.83227Z" fill="#18283D" style="fill:#18283D;fill:color(display-p3 0.0941 0.1569 0.2392);fill-opacity:1;"/>
</svg>
