<svg width="22" height="24" viewBox="0 0 22 24" fill="none" xmlns="http://www.w3.org/2000/svg">
<path d="M16.4349 10.3894V5.84746C16.4349 5.71746 16.3749 5.59734 16.2899 5.50231L11.1977 0.15509C11.1027 0.0551147 10.9676 0 10.8326 0H2.75915C1.26868 0 0.078125 1.21545 0.078125 2.70611V17.9725C0.078125 19.4632 1.26868 20.6587 2.75915 20.6587H9.13195C10.3373 22.6595 12.5284 24 15.0243 24C18.8158 24 21.9121 20.9187 21.9121 17.1222C21.9173 13.8058 19.5362 11.0347 16.4349 10.3894ZM11.3329 1.7558L14.7492 5.35217H12.5333C11.873 5.35217 11.3329 4.80706 11.3329 4.14678V1.7558ZM2.75915 19.6582C1.82385 19.6582 1.07861 18.9078 1.07861 17.9725V2.70611C1.07861 1.76568 1.82385 1.00049 2.75915 1.00049H10.3324V4.14678C10.3324 5.36224 11.3179 6.35265 12.5333 6.35265H15.4344V10.2592C15.2845 10.2543 15.1643 10.2392 15.0343 10.2392C13.2886 10.2392 11.683 10.9096 10.4725 11.9601H4.11981C3.8446 11.9601 3.61956 12.1851 3.61956 12.4601C3.61956 12.7353 3.8446 12.9604 4.11981 12.9604H9.5421C9.18688 13.4606 8.89171 13.9609 8.66173 14.5111H4.11981C3.8446 14.5111 3.61956 14.7361 3.61956 15.0113C3.61956 15.2864 3.8446 15.5116 4.11981 15.5116H8.33654C8.21148 16.0118 8.14647 16.567 8.14647 17.1222C8.14647 18.0225 8.32152 18.9129 8.63665 19.6633H2.75915V19.6582ZM15.0294 23.0046C11.7881 23.0046 9.1519 20.3684 9.1519 17.1271C9.1519 13.8858 11.7829 11.2496 15.0294 11.2496C18.2757 11.2496 20.9067 13.8858 20.9067 17.1271C20.9067 20.3684 18.2707 23.0046 15.0294 23.0046Z" fill="#1D5BBF" style="fill:#1D5BBF;fill:color(display-p3 0.1137 0.3569 0.7490);fill-opacity:1;"/>
<path d="M4.12134 10.4536H9.18841C9.46361 10.4536 9.68865 10.2284 9.68865 9.95337C9.68865 9.67816 9.46361 9.45312 9.18841 9.45312H4.12134C3.84613 9.45312 3.62109 9.67816 3.62109 9.95337C3.62109 10.2284 3.84613 10.4536 4.12134 10.4536Z" fill="#1D5BBF" style="fill:#1D5BBF;fill:color(display-p3 0.1137 0.3569 0.7490);fill-opacity:1;"/>
<path d="M15.3856 13.4354C15.2905 13.3354 15.1605 13.2754 15.0205 13.2754C14.8804 13.2754 14.7504 13.3354 14.6553 13.4354L11.724 16.5817C11.5339 16.7819 11.549 17.1019 11.7491 17.287C11.9492 17.4771 12.2742 17.4621 12.4643 17.2621L14.5352 15.0462V20.5084C14.5352 20.7836 14.7603 21.0087 15.0355 21.0087C15.3105 21.0087 15.5357 20.7836 15.5357 20.5084V15.0462L17.5914 17.2621C17.6916 17.3671 17.8216 17.4222 17.9567 17.4222C18.0767 17.4222 18.1968 17.3771 18.2968 17.287C18.4969 17.097 18.5119 16.7819 18.3218 16.5817L15.3856 13.4354Z" fill="#1D5BBF" style="fill:#1D5BBF;fill:color(display-p3 0.1137 0.3569 0.7490);fill-opacity:1;"/>
</svg>
