<svg width="23" height="20" viewBox="0 0 23 20" fill="none" xmlns="http://www.w3.org/2000/svg">
<path d="M18.0331 10.5391C16.9385 10.5391 16.0499 11.4278 16.0499 12.5224C16.0499 13.6169 16.9385 14.5056 18.0331 14.5056C19.1276 14.5056 20.0163 13.6169 20.0163 12.5224C20.0217 11.4278 19.133 10.5391 18.0331 10.5391ZM16.1745 10.6584C17.204 9.62883 18.8675 9.62883 19.897 10.6584C20.9266 11.6879 20.9266 13.3514 19.897 14.3809C18.8675 15.4105 17.1986 15.4105 16.1745 14.3809C15.1449 13.3568 15.1449 11.6879 16.1745 10.6584ZM21.6743 12.5224C21.6743 10.5121 20.0434 8.88106 18.0331 8.88106C16.6242 8.88106 15.34 9.69385 14.7386 10.9726C14.6844 11.0918 14.5652 11.1569 14.446 11.1569H7.97074L6.16635 12.544L7.96532 13.8933H8.75644L9.27662 12.9938C9.40125 12.777 9.71552 12.777 9.84015 12.9992L10.3549 13.8933H11.2219L11.7421 12.9938C11.8667 12.777 12.181 12.777 12.3056 12.9992L12.8204 13.8933H14.446C14.5868 13.8933 14.7006 13.9799 14.7494 14.0992C15.0474 14.7169 15.5134 15.2371 16.0878 15.6055C17.5183 16.5158 19.404 16.3099 20.6123 15.1016C21.268 14.4405 21.6743 13.5302 21.6743 12.5224ZM21.0675 9.48794C22.7418 11.1677 22.7418 13.8824 21.0675 15.5622C19.9296 16.7001 18.2335 17.1173 16.673 16.6025V17.6538C16.673 17.8326 16.5267 17.9789 16.3479 17.9789H15.7139V19.6749C15.7139 19.8537 15.5676 20 15.3888 20H1.73395C1.55513 20 1.40883 19.8537 1.40883 19.6749V5.80331H0.325115C0.146302 5.80331 0 5.657 0 5.47819V1.82064C0 0.818206 0.818206 0 1.82064 0H14.8578C15.8602 0 16.6784 0.818206 16.6784 1.82064V8.45299C18.239 7.92739 19.935 8.35004 21.0675 9.48794ZM16.0282 16.3208C15.275 15.9198 14.6519 15.3021 14.2455 14.5435H12.6361C12.5224 14.5435 12.414 14.4839 12.3544 14.3809L12.0238 13.8066L11.7096 14.3538C11.6608 14.4676 11.547 14.5435 11.4115 14.5435H10.1653C10.0515 14.5435 9.9431 14.4839 9.8835 14.3809L9.55297 13.8066L9.23869 14.3538C9.18992 14.4676 9.07613 14.5435 8.94609 14.5435H7.86237C7.79735 14.5435 7.7269 14.5218 7.6673 14.4785L5.4511 12.815C5.27228 12.6903 5.25603 12.4302 5.43484 12.2894L7.64021 10.5879C7.69981 10.5337 7.77567 10.5066 7.85695 10.5066H14.24C14.6464 9.74804 15.2696 9.13032 16.0228 8.72934V1.81523C16.0228 1.14332 15.4538 0.606882 14.7819 0.65023C14.7602 0.65023 14.744 0.65023 14.7223 0.65023H3.21322C3.48957 0.975345 3.64129 1.39258 3.64129 1.82064V17.3286H16.0282V16.3208ZM11.4061 6.76781C11.5849 6.76781 11.7312 6.91411 11.7312 7.09293C11.7312 7.27174 11.5849 7.41804 11.4061 7.41804H5.66784C5.48903 7.41804 5.34273 7.27174 5.34273 7.09293C5.34273 6.91411 5.48903 6.76781 5.66784 6.76781H11.4061ZM9.89434 8.8919C10.0732 8.8919 10.2195 9.0382 10.2195 9.21701C10.2195 9.39583 10.0732 9.54213 9.89434 9.54213H5.66784C5.48903 9.54213 5.34273 9.39583 5.34273 9.21701C5.34273 9.0382 5.48903 8.8919 5.66784 8.8919H9.89434ZM13.0588 4.64915C13.2376 4.64915 13.3839 4.79545 13.3839 4.97426C13.3839 5.15307 13.2376 5.29938 13.0588 5.29938H5.66784C5.48903 5.29938 5.34273 5.15307 5.34273 4.97426C5.34273 4.79545 5.48903 4.64915 5.66784 4.64915H13.0588ZM14.2671 2.52506C14.446 2.52506 14.5923 2.67136 14.5923 2.85018C14.5923 3.02899 14.446 3.17529 14.2671 3.17529H5.66784C5.48903 3.17529 5.34273 3.02899 5.34273 2.85018C5.34273 2.67136 5.48903 2.52506 5.66784 2.52506H14.2671ZM15.0691 17.9734H3.31617C3.13736 17.9734 2.99106 17.8271 2.99106 17.6483V2.41669H2.05906V19.3389H15.0637V17.9734H15.0691ZM1.40883 5.15307V2.09157C1.40883 1.91276 1.55513 1.76646 1.73395 1.76646H2.98564C2.95855 1.14874 2.46004 0.65023 1.82064 0.65023C1.17583 0.65023 0.65023 1.17583 0.65023 1.82064V5.15307H1.40883Z" fill="#18283D"/>
</svg>
