<svg width="22" height="22" viewBox="0 0 22 22" fill="none" xmlns="http://www.w3.org/2000/svg">
<path d="M16.735 11C16.735 11.1823 16.6625 11.3572 16.5336 11.4861C16.4047 11.6151 16.2298 11.6875 16.0475 11.6875H11.6875V16.0474C11.6875 16.2297 11.6151 16.4046 11.4861 16.5335C11.3572 16.6625 11.1823 16.7349 11 16.7349C10.8177 16.7349 10.6428 16.6625 10.5139 16.5335C10.3849 16.4046 10.3125 16.2297 10.3125 16.0474V11.6875H5.95259C5.77025 11.6875 5.59539 11.6151 5.46645 11.4861C5.33752 11.3572 5.26509 11.1823 5.26509 11C5.26509 10.8177 5.33752 10.6428 5.46645 10.5139C5.59539 10.3849 5.77025 10.3125 5.95259 10.3125H10.3125V5.95259C10.3125 5.77025 10.3849 5.59539 10.5139 5.46645C10.6428 5.33752 10.8177 5.26509 11 5.26509C11.1823 5.26509 11.3572 5.33752 11.4861 5.46645C11.6151 5.59539 11.6875 5.77025 11.6875 5.95259V10.3125H16.0475C16.2298 10.3125 16.4047 10.3849 16.5336 10.5139C16.6625 10.6428 16.735 10.8177 16.735 11ZM22 3.87501V18.125C21.9988 19.1524 21.5902 20.1373 20.8638 20.8638C20.1373 21.5902 19.1524 21.9988 18.125 22H3.87505C2.84769 21.9988 1.86273 21.5902 1.13627 20.8638C0.409812 20.1373 0.0011714 19.1524 0 18.125L0 3.87501C0.0011714 2.84764 0.409812 1.86269 1.13627 1.13624C1.86273 0.40979 2.84769 0.00116 3.87505 0L18.125 0C19.1524 0.00116002 20.1373 0.409791 20.8638 1.13624C21.5902 1.8627 21.9988 2.84765 22 3.87501ZM20.625 3.87501C20.6242 3.21219 20.3606 2.57674 19.8919 2.10806C19.4233 1.63938 18.7878 1.37575 18.125 1.375H3.87505C3.21223 1.37574 2.57677 1.63937 2.10808 2.10805C1.63939 2.57673 1.37575 3.21219 1.375 3.87501V18.125C1.37575 18.7878 1.63939 19.4233 2.10808 19.892C2.57677 20.3606 3.21223 20.6243 3.87505 20.625H18.125C18.7878 20.6242 19.4233 20.3606 19.8919 19.8919C20.3606 19.4233 20.6242 18.7878 20.625 18.125V3.87501Z" fill="#18283D"/>
</svg>
