<svg width="22" height="22" viewBox="0 0 22 22" fill="none" xmlns="http://www.w3.org/2000/svg">
<path d="M11 0C8.82441 0 6.69767 0.645139 4.88873 1.85383C3.07979 3.06253 1.66989 4.78049 0.83733 6.79048C0.00476623 8.80047 -0.213071 11.0122 0.211367 13.146C0.635804 15.2798 1.68345 17.2398 3.22183 18.7782C4.76021 20.3165 6.72022 21.3642 8.85401 21.7886C10.9878 22.2131 13.1995 21.9952 15.2095 21.1627C17.2195 20.3301 18.9375 18.9202 20.1462 17.1113C21.3549 15.3023 22 13.1756 22 11C22 8.08262 20.8411 5.28472 18.7782 3.22182C16.7153 1.15892 13.9174 0 11 0ZM11 20.5333C9.11449 20.5333 7.27132 19.9742 5.70357 18.9267C4.13582 17.8791 2.91391 16.3902 2.19235 14.6482C1.4708 12.9063 1.28201 10.9894 1.64985 9.14014C2.0177 7.29085 2.92566 5.59217 4.25892 4.25891C5.59218 2.92565 7.29086 2.01769 9.14014 1.64985C10.9894 1.282 12.9063 1.47079 14.6483 2.19235C16.3902 2.9139 17.8791 4.13581 18.9267 5.70356C19.9742 7.27131 20.5333 9.11448 20.5333 11C20.5333 13.5284 19.5289 15.9532 17.7411 17.7411C15.9532 19.5289 13.5284 20.5333 11 20.5333Z" fill="#18283D"/>
<path d="M11.8968 17H10.0977V5H11.8968V17Z" fill="#18283D"/>
<path d="M17 11.9062H5V10.1071H17V11.9062Z" fill="#18283D"/>
</svg>
