<svg width="52" height="52" viewBox="0 0 52 52" fill="none" xmlns="http://www.w3.org/2000/svg">
<circle cx="25.7876" cy="26.2759" r="25.6079" fill="#D9E4F2"/>
<path d="M39.1647 16.7565C39.1635 16.7476 39.1625 16.7388 39.1612 16.7299C39.1572 16.7019 39.1525 16.674 39.147 16.6463C39.1439 16.6298 39.1401 16.6136 39.1365 16.5973C39.1314 16.575 39.1265 16.5528 39.1206 16.5307C39.1101 16.4915 39.0985 16.4526 39.0852 16.4144C39.0812 16.4029 39.0774 16.3913 39.0732 16.3799C39.0699 16.3711 39.0663 16.3623 39.0628 16.3535C39.0556 16.3349 39.0482 16.3165 39.0403 16.2982C39.0382 16.2933 39.0359 16.2885 39.0338 16.2836C39.0241 16.2618 39.014 16.2402 39.0034 16.2188C39.002 16.216 39.0005 16.2132 38.9992 16.2104C38.9876 16.1873 38.9755 16.1646 38.9628 16.142C38.9617 16.1401 38.9606 16.1382 38.9595 16.1363C38.9465 16.1134 38.933 16.0908 38.9188 16.0684C38.9176 16.0665 38.9165 16.0647 38.9153 16.0628C38.9013 16.0409 38.8868 16.0193 38.8718 15.9981C38.8701 15.9957 38.8685 15.9934 38.8669 15.9911C38.8523 15.9707 38.8373 15.9507 38.8218 15.9309C38.8194 15.9279 38.8171 15.9248 38.8147 15.9217C38.7998 15.9031 38.7845 15.8848 38.7688 15.8667C38.7656 15.863 38.7625 15.8591 38.7591 15.8553C38.7437 15.8378 38.7277 15.8207 38.7114 15.8038C38.7078 15.8 38.7044 15.7961 38.7008 15.7924C38.6809 15.7721 38.6607 15.7523 38.6398 15.7329L36.6813 13.9235L34.7228 12.1139C34.696 12.089 34.6681 12.0655 34.6399 12.0426C34.6342 12.0379 34.6284 12.0333 34.6226 12.0287C34.5631 11.9819 34.5009 11.9391 34.436 11.9009C34.4341 11.8997 34.4322 11.8985 34.4303 11.8975C34.3905 11.8742 34.3495 11.8532 34.308 11.8333C34.2997 11.8294 34.2913 11.8256 34.283 11.8218C34.2454 11.8045 34.2073 11.7886 34.1687 11.7742C34.1643 11.7726 34.16 11.7708 34.1556 11.7692C34.0639 11.7359 33.9693 11.7108 33.8727 11.6939C33.8715 11.6937 33.8704 11.6934 33.8693 11.6931C33.8681 11.6929 33.8669 11.6929 33.8658 11.6927C33.7729 11.677 33.6786 11.668 33.583 11.668H23.1314C22.0728 11.668 21.2116 12.5291 21.2116 13.5877V26.3168C21.1785 26.3163 21.1455 26.3155 21.1123 26.3155C16.7383 26.3155 13.1797 29.8741 13.1797 34.2481C13.1797 38.6222 16.7381 42.1808 21.1123 42.1808C24.6498 42.1808 27.6535 39.8531 28.6733 36.6491H37.26C38.3185 36.6491 39.1797 35.7879 39.1797 34.7294V16.9665C39.1797 16.8959 39.1736 16.8259 39.1647 16.7565ZM34.3635 13.4048L37.4949 16.2978H34.6576C34.4955 16.2978 34.3635 16.1659 34.3635 16.0038V13.4048ZM27.7443 35.4572C27.6695 35.8687 27.5569 36.2671 27.4108 36.6491C26.4413 39.1839 23.9838 40.9889 21.1123 40.9889C17.3955 40.9889 14.3716 37.9651 14.3716 34.2482C14.3716 30.5314 17.3955 27.5075 21.1123 27.5075C21.1455 27.5075 21.1785 27.5083 21.2116 27.5087C21.6186 27.5146 22.0169 27.5568 22.4035 27.6321C25.5047 28.2362 27.853 30.973 27.853 34.2483C27.853 34.6608 27.8156 35.0648 27.7443 35.4572ZM37.9878 34.7294H37.9878C37.9878 35.1307 37.6613 35.4572 37.26 35.4572H28.953C29.0135 35.0629 29.0449 34.6591 29.0449 34.2482C29.0449 30.3138 26.1656 27.0397 22.4035 26.4212V13.5877C22.4035 13.1863 22.73 12.8599 23.1314 12.8599H33.1717V16.0037C33.1717 16.8231 33.8383 17.4897 34.6577 17.4897H37.9878V34.7294Z" fill="#1D5BBF"/>
<path d="M22.4092 28.7422C22.0254 28.6493 21.6268 28.595 21.2173 28.5841C21.1666 28.5828 21.1156 28.582 21.0645 28.582C17.9122 28.582 15.3477 31.1466 15.3477 34.2989C15.3477 35.3372 15.6289 36.3541 16.1611 37.2398C16.3307 37.5219 16.6967 37.6132 16.9789 37.4436C17.261 37.274 17.3523 36.9079 17.1828 36.6258C16.762 35.9256 16.5396 35.121 16.5396 34.2989C16.5396 31.8038 18.5695 29.7739 21.0645 29.7739C21.1158 29.7739 21.1665 29.7761 21.2173 29.7778C21.6308 29.7916 22.0308 29.8599 22.4092 29.9779C24.2496 30.552 25.5894 32.2719 25.5894 34.299C25.5894 34.6982 25.5369 35.0853 25.4394 35.4543C25.3271 35.8791 25.1549 36.2798 24.9317 36.6462C24.1369 37.9509 22.7007 38.8239 21.0645 38.8239C20.8559 38.8239 20.6462 38.8096 20.4416 38.7814C20.1154 38.7369 19.8148 38.9645 19.7699 39.2906C19.7249 39.6166 19.9529 39.9173 20.2789 39.9623C20.5373 39.9978 20.8017 40.0158 21.0645 40.0158C23.3807 40.0158 25.3796 38.6313 26.277 36.6462C26.4476 36.2688 26.5784 35.8698 26.664 35.4543C26.7409 35.0811 26.7814 34.6946 26.7814 34.299C26.7813 31.6097 24.9148 29.3486 22.4092 28.7422Z" fill="#1D5BBF"/>
<path d="M25.7483 19.1016C25.4192 19.1016 25.1523 19.3684 25.1523 19.6975C25.1523 20.0267 25.4192 20.2935 25.7483 20.2935H34.6416C34.9707 20.2935 35.2376 20.0267 35.2376 19.6975C35.2376 19.3684 34.9707 19.1016 34.6416 19.1016H25.7483Z" fill="#1D5BBF"/>
<path d="M32.8537 23.4905C32.8537 23.1613 32.5869 22.8945 32.2578 22.8945H25.7483C25.4192 22.8945 25.1523 23.1613 25.1523 23.4905C25.1523 23.8196 25.4192 24.0864 25.7483 24.0864H32.2578C32.5869 24.0864 32.8537 23.8196 32.8537 23.4905Z" fill="#1D5BBF"/>
<path d="M34.6449 26.6875H28.9006C28.5716 26.6875 28.3047 26.9543 28.3047 27.2835C28.3047 27.6126 28.5716 27.8794 28.9006 27.8794H34.6449C34.974 27.8794 35.2409 27.6126 35.2409 27.2835C35.2409 26.9543 34.974 26.6875 34.6449 26.6875Z" fill="#1D5BBF"/>
<path d="M34.6457 30.4766H30.4944C30.1653 30.4766 29.8984 30.7434 29.8984 31.0725C29.8984 31.4017 30.1653 31.6685 30.4944 31.6685H34.6457C34.9748 31.6685 35.2416 31.4017 35.2416 31.0725C35.2416 30.7434 34.9748 30.4766 34.6457 30.4766Z" fill="#1D5BBF"/>
<path d="M21.0535 34.8964H21.2141H22.4187H23.0556C23.3847 34.8964 23.6515 34.6296 23.6515 34.3004C23.6515 33.9713 23.3847 33.7045 23.0556 33.7045H22.3982H21.3968L21.2063 33.3759L20.0101 31.3127C19.8449 31.028 19.4804 30.931 19.1955 31.0961C18.9108 31.2612 18.8139 31.6258 18.9789 31.9106L20.5379 34.5993C20.6445 34.7832 20.8409 34.8964 21.0535 34.8964Z" fill="#1D5BBF"/>
<path d="M18.7359 38.3172C18.721 38.2809 18.7024 38.2463 18.681 38.2141C18.6596 38.1813 18.6346 38.1509 18.6071 38.1235C18.5797 38.0961 18.5493 38.0711 18.5166 38.0496C18.4844 38.0282 18.4498 38.0097 18.4135 37.9948C18.3777 37.9799 18.3402 37.968 18.302 37.9608C18.2251 37.9453 18.1459 37.9453 18.069 37.9608C18.0314 37.968 17.9939 37.9799 17.9575 37.9948C17.9218 38.0097 17.8872 38.0282 17.855 38.0496C17.8223 38.0711 17.7919 38.0961 17.7645 38.1235C17.7364 38.1509 17.712 38.1813 17.69 38.2141C17.6685 38.2463 17.65 38.2809 17.6351 38.3172C17.6202 38.353 17.6089 38.3905 17.6012 38.4287C17.5934 38.4668 17.5898 38.5061 17.5898 38.5449C17.5898 38.5836 17.5935 38.6229 17.6012 38.6617C17.6089 38.6992 17.6202 38.7368 17.6351 38.7731C17.65 38.8089 17.6685 38.8434 17.69 38.8756C17.712 38.9084 17.7364 38.9388 17.7645 38.9662C17.7919 38.9936 17.8223 39.0187 17.855 39.0401C17.8872 39.0616 17.9218 39.08 17.9575 39.0949C17.9939 39.1098 18.0314 39.1218 18.069 39.1289C18.1077 39.1367 18.1471 39.1408 18.1858 39.1408C18.2245 39.1408 18.2639 39.1367 18.302 39.1289C18.3402 39.1218 18.3778 39.1098 18.4135 39.0949C18.4498 39.08 18.4844 39.0616 18.5166 39.0401C18.5493 39.0187 18.5797 38.9936 18.6071 38.9662C18.6346 38.9388 18.6596 38.9084 18.681 38.8756C18.7024 38.8434 18.721 38.8089 18.7359 38.7731C18.7508 38.7368 18.762 38.6992 18.7698 38.6617C18.7776 38.6229 18.7817 38.5836 18.7817 38.5449C18.7817 38.5061 18.7776 38.4668 18.7698 38.4287C18.7621 38.3905 18.7508 38.353 18.7359 38.3172Z" fill="#1D5BBF"/>
<path d="M35.1928 23.2274C35.1779 23.191 35.1594 23.1565 35.1379 23.1243C35.1166 23.0915 35.0915 23.0611 35.0641 23.0337C35.0367 23.0063 35.0062 22.9812 34.9735 22.9598C34.9413 22.9383 34.9061 22.9199 34.8704 22.905C34.8346 22.8901 34.7971 22.8787 34.759 22.871C34.6821 22.8555 34.6028 22.8555 34.526 22.871C34.4878 22.8787 34.4502 22.8901 34.4145 22.905C34.3788 22.9199 34.3442 22.9383 34.3115 22.9598C34.2793 22.9812 34.2488 23.0063 34.2214 23.0337C34.1934 23.0611 34.169 23.0915 34.1469 23.1243C34.1255 23.1565 34.107 23.191 34.0921 23.2274C34.0772 23.2631 34.0659 23.3007 34.0582 23.3388C34.0504 23.377 34.0469 23.4163 34.0469 23.455C34.0469 23.4938 34.0505 23.5331 34.0582 23.5718C34.0659 23.6094 34.0772 23.6469 34.0921 23.6833C34.107 23.719 34.1255 23.7536 34.1469 23.7858C34.169 23.8186 34.1934 23.849 34.2214 23.8764C34.2488 23.9038 34.2793 23.9288 34.3115 23.9509C34.3443 23.9723 34.3788 23.9908 34.4145 24.0057C34.4502 24.0206 34.4878 24.0319 34.526 24.0397C34.5647 24.0474 34.604 24.051 34.6428 24.051C34.6815 24.051 34.7208 24.0474 34.759 24.0397C34.7971 24.0319 34.8347 24.0206 34.8704 24.0057C34.9062 23.9908 34.9413 23.9723 34.9735 23.9509C35.0062 23.9288 35.0367 23.9038 35.0641 23.8764C35.0915 23.849 35.1166 23.8186 35.1379 23.7858C35.1594 23.7536 35.1779 23.719 35.1928 23.6833C35.2077 23.6469 35.219 23.6094 35.2267 23.5718C35.2345 23.5331 35.2387 23.4938 35.2387 23.455C35.2387 23.4163 35.2345 23.377 35.2267 23.3388C35.2191 23.3007 35.2077 23.2631 35.1928 23.2274Z" fill="#1D5BBF"/>
</svg>
