<svg width="20" height="20" viewBox="0 0 20 20" fill="none" xmlns="http://www.w3.org/2000/svg">
<path d="M10 0C4.49341 0 0 4.49417 0 10C0 15.5066 4.49417 20 10 20C15.5066 20 20 15.5058 20 10C20 4.49326 15.5058 0 10 0ZM10 18.8281C5.13214 18.8281 1.17188 14.8679 1.17188 10C1.17188 5.13214 5.13214 1.17188 10 1.17188C14.8679 1.17188 18.8281 5.13214 18.8281 10C18.8281 14.8679 14.8679 18.8281 10 18.8281Z" fill="#18283D"/>
<path d="M9.41406 4.72656H10.5859V10.5859H9.41406V4.72656Z" fill="#18283D"/>
<path d="M12.6372 5.42969L12.0503 6.44409C13.3156 7.1759 14.1016 8.53745 14.1016 9.99725C14.1016 12.2589 12.2617 14.0988 10 14.0988C7.73834 14.0988 5.89844 12.2589 5.89844 9.99725C5.89844 8.53745 6.68442 7.1759 7.94968 6.44409L7.36282 5.42969C5.73669 6.37039 4.72656 8.12057 4.72656 9.99725C4.72656 12.905 7.09229 15.2707 10 15.2707C12.9077 15.2707 15.2734 12.905 15.2734 9.99725C15.2734 8.12057 14.2633 6.37039 12.6372 5.42969Z" fill="#18283D"/>
</svg>
