<svg width="21" height="24" viewBox="0 0 21 24" fill="none" xmlns="http://www.w3.org/2000/svg">
<path d="M9.85874 11.5609C11.447 11.5609 12.8221 10.9912 13.946 9.86733C15.0695 8.74361 15.6394 7.36868 15.6394 5.78025C15.6394 4.19236 15.0697 2.81725 13.9458 1.69317C12.8219 0.569639 11.4468 0 9.85874 0C8.27031 0 6.89537 0.569639 5.77166 1.69335C4.64795 2.81706 4.07812 4.19218 4.07812 5.78025C4.07812 7.36868 4.64795 8.7438 5.77166 9.86751C6.89574 10.991 8.27086 11.5609 9.85874 11.5609ZM6.76628 2.68779C7.62852 1.82555 8.63999 1.40643 9.85874 1.40643C11.0773 1.40643 12.089 1.82555 12.9514 2.68779C13.8136 3.55022 14.2329 4.56187 14.2329 5.78025C14.2329 6.99899 13.8136 8.01046 12.9514 8.87288C12.089 9.73531 11.0773 10.1544 9.85874 10.1544C8.64036 10.1544 7.62889 9.73512 6.76628 8.87288C5.90386 8.01064 5.48455 6.99899 5.48455 5.78025C5.48455 4.56187 5.90386 3.55022 6.76628 2.68779Z" fill="#18283D" style="fill:#18283D;fill:color(display-p3 0.0941 0.1569 0.2392);fill-opacity:1;"/>
<path d="M19.9747 18.4556C19.9423 17.9879 19.8767 17.4778 19.7802 16.9391C19.6828 16.3964 19.5574 15.8833 19.4073 15.4144C19.252 14.9297 19.0412 14.4511 18.7803 13.9924C18.5099 13.5163 18.192 13.1018 17.8353 12.7607C17.4623 12.4038 17.0057 12.1169 16.4776 11.9076C15.9513 11.6994 15.3682 11.5939 14.7443 11.5939C14.4993 11.5939 14.2624 11.6945 13.8048 11.9924C13.5232 12.176 13.1938 12.3884 12.8261 12.6233C12.5117 12.8237 12.0858 13.0113 11.5598 13.1813C11.0465 13.3473 10.5254 13.4316 10.0109 13.4316C9.49672 13.4316 8.97561 13.3473 8.462 13.1813C7.93649 13.0115 7.5104 12.8238 7.19656 12.6235C6.83237 12.3908 6.50278 12.1784 6.21695 11.9922C5.75974 11.6943 5.5228 11.5938 5.27781 11.5938C4.65379 11.5938 4.07078 11.6994 3.54472 11.9078C3.01702 12.1167 2.56017 12.4036 2.18682 12.7609C1.83013 13.1022 1.51226 13.5165 1.242 13.9924C0.981441 14.4511 0.770504 14.9296 0.615232 15.4146C0.465269 15.8835 0.339842 16.3964 0.242431 16.9391C0.145751 17.4771 0.080383 17.9874 0.0479734 18.4561C0.0161132 18.9145 0 19.3914 0 19.8734C0 21.1262 0.398253 22.1404 1.18359 22.8884C1.95922 23.6265 2.98534 24.0007 4.23356 24.0007H15.7897C17.0375 24.0007 18.0636 23.6265 18.8395 22.8884C19.625 22.1409 20.0232 21.1264 20.0232 19.8732C20.023 19.3896 20.0067 18.9126 19.9747 18.4556ZM17.8697 21.8694C17.3572 22.3572 16.6768 22.5943 15.7895 22.5943H4.23356C3.34605 22.5943 2.66564 22.3572 2.15331 21.8696C1.65069 21.3911 1.40643 20.738 1.40643 19.8734C1.40643 19.4237 1.42126 18.9796 1.45092 18.5534C1.47985 18.1352 1.53899 17.6758 1.6267 17.1876C1.71331 16.7055 1.82354 16.253 1.95464 15.8434C2.08044 15.4507 2.252 15.0618 2.46477 14.6871C2.66783 14.3301 2.90148 14.0237 3.15929 13.7769C3.40044 13.546 3.70439 13.357 4.06254 13.2153C4.39378 13.0842 4.76603 13.0124 5.17014 13.0016C5.2194 13.0278 5.30711 13.0778 5.44919 13.1705C5.73832 13.3589 6.07157 13.5738 6.43997 13.8091C6.85526 14.0739 7.39029 14.313 8.02951 14.5194C8.68301 14.7307 9.34951 14.838 10.0111 14.838C10.6726 14.838 11.3393 14.7307 11.9924 14.5196C12.6322 14.3129 13.1671 14.0739 13.5829 13.8088C13.9599 13.5678 14.2838 13.3591 14.5729 13.1705C14.715 13.078 14.8027 13.0278 14.852 13.0016C15.2563 13.0124 15.6285 13.0842 15.96 13.2153C16.3179 13.357 16.6219 13.5462 16.863 13.7769C17.1208 14.0235 17.3545 14.3299 17.5575 14.6873C17.7705 15.0618 17.9422 15.4508 18.0679 15.8432C18.1991 16.2534 18.3095 16.7057 18.396 17.1874C18.4835 17.6765 18.5428 18.1361 18.5718 18.5536V18.5539C18.6016 18.9785 18.6166 19.4224 18.6168 19.8734C18.6166 20.7382 18.3724 21.3911 17.8697 21.8694Z" fill="#18283D" style="fill:#18283D;fill:color(display-p3 0.0941 0.1569 0.2392);fill-opacity:1;"/>
</svg>
