<svg xmlns="http://www.w3.org/2000/svg" width="31" height="31" viewBox="0 0 31 31" fill="none">
<path d="M15.2031 0.472656C6.91885 0.472656 0.203125 7.18838 0.203125 15.4727C0.203125 23.7569 6.91885 30.4727 15.2031 30.4727C23.4874 30.4727 30.2031 23.7569 30.2031 15.4727C30.1942 7.19207 23.4837 0.481621 15.2031 0.472656ZM20.2031 18.7064C20.7111 19.1739 20.7439 19.9647 20.2763 20.4726C19.8088 20.9806 19.018 21.0134 18.5101 20.5459C18.4847 20.5225 18.4603 20.4981 18.4369 20.4726L15.2031 17.2401L11.9706 20.4726C11.474 20.9522 10.6827 20.9385 10.2031 20.4419C9.73533 19.9575 9.73533 19.1896 10.2031 18.7052L13.4356 15.4727L10.2031 12.2402C9.72356 11.7436 9.73732 10.9523 10.2339 10.4727C10.7183 10.0049 11.4862 10.0049 11.9706 10.4727L15.2031 13.7052L18.4369 10.4727C18.9044 9.96473 19.6952 9.93191 20.2031 10.3994C20.7111 10.867 20.7439 11.6577 20.2763 12.1657C20.253 12.1911 20.2285 12.2155 20.2031 12.2389L16.9706 15.4727L20.2031 18.7064Z" fill="#E0382D" style="fill:#E0382D;fill:color(display-p3 0.8784 0.2196 0.1765);fill-opacity:1;"/>
</svg>