<svg width="24" height="21" viewBox="0 0 24 21" fill="none" xmlns="http://www.w3.org/2000/svg">
<path d="M16.3985 15.1289C16.1803 15.1289 16.0349 15.2744 16.0349 15.4925C16.0349 16.438 15.2712 17.238 14.2894 17.238C14.0712 17.238 13.9258 17.3835 13.9258 17.6016C13.9258 17.8198 14.0712 17.9653 14.2894 17.9653C15.6349 17.9653 16.7621 16.8744 16.7621 15.4925C16.7621 15.3107 16.6167 15.1289 16.3985 15.1289Z" fill="#18283D"/>
<path d="M23.2724 14.6182H22.1451V0.363636C22.1451 0.145455 21.9996 0 21.7815 0H2.21783C1.99964 0 1.85419 0.145455 1.85419 0.363636V14.6182H0.726918C0.508736 14.6182 0.363281 14.7636 0.363281 14.9818C0.363281 16.6545 1.70874 17.9636 3.3451 17.9636H8.47237L9.41783 19.1636C9.89055 19.7818 10.5815 20.1091 11.3815 20.1091H16.1451C17.4178 20.1091 18.436 19.1636 18.5815 17.9273H20.6542C22.2906 17.9273 23.636 16.5818 23.636 14.9455C23.636 14.7636 23.4906 14.6182 23.2724 14.6182ZM2.58146 0.727273H21.4178V14.6182H18.5815V11.8182C18.5815 10.7636 17.4178 9.96364 16.3633 10.5818C16.1815 9.41818 14.7996 9.09091 13.9996 9.70909C13.636 9.09091 12.836 8.72727 11.9996 9.2V6.72727C11.9996 5.92727 11.3451 5.27273 10.5451 5.27273C9.7451 5.27273 9.09055 5.92727 9.09055 6.72727V13.3455C9.05419 13.3091 7.70874 11.2364 5.81783 12.6909C5.30874 13.0909 5.19965 13.8545 5.59965 14.3636L5.81783 14.6182H2.58146V0.727273ZM3.3451 17.2364C2.21783 17.2364 1.27237 16.4 1.09055 15.3455H6.39965L7.89055 17.2364H3.3451ZM17.8542 17.6727C17.8542 18.6182 17.0906 19.4182 16.1087 19.4182H11.3815C10.836 19.4182 10.3269 19.1636 9.99965 18.7636L6.21783 13.8909C6.07237 13.6727 6.10874 13.3818 6.29055 13.2364C7.81783 12.0364 8.83601 14.3273 9.19965 14.6182C9.41783 14.9091 9.85419 14.7273 9.85419 14.4V6.72727C9.85419 6.32727 10.1815 6 10.5815 6C10.9815 6 11.3087 6.32727 11.3087 6.72727V12.2182C11.3087 12.4364 11.4542 12.5818 11.6724 12.5818C11.8906 12.5818 12.036 12.4364 12.036 12.2182V10.4364C12.036 9.45455 13.4906 9.45455 13.4906 10.4364V12.2182C13.4906 12.4364 13.636 12.5818 13.8542 12.5818C14.0724 12.5818 14.2178 12.4364 14.2178 12.2182V10.8364C14.2178 9.85455 15.6724 9.85455 15.6724 10.8364V12.2182C15.6724 12.4364 15.8178 12.5818 16.036 12.5818C16.2542 12.5818 16.3996 12.4364 16.3996 12.2182V11.8182C16.3996 10.8364 17.8542 10.9091 17.8542 11.8182V17.6727ZM20.6542 17.2364H18.6178V15.3455H21.8178H22.9087C22.6906 16.4364 21.7815 17.2364 20.6542 17.2364Z" fill="#18283D"/>
<path d="M10.473 3.96513C10.6912 3.96513 10.8366 3.81967 10.8366 3.60149V2.43786C10.8366 2.21967 10.6912 2.07422 10.473 2.07422C10.2548 2.07422 10.1094 2.21967 10.1094 2.43786V3.60149C10.1094 3.81967 10.2548 3.96513 10.473 3.96513Z" fill="#18283D"/>
<path d="M8.68897 4.00161C8.79806 4.18343 9.01624 4.25616 9.19806 4.14707C9.37988 4.03798 9.45261 3.81979 9.34351 3.63797L8.72533 2.58343C8.61624 2.40161 8.39806 2.32888 8.21624 2.43797C8.03442 2.54707 7.9617 2.76525 8.07079 2.94707L8.68897 4.00161Z" fill="#18283D"/>
<path d="M11.7436 4.14707C11.9254 4.25616 12.1436 4.18343 12.2527 4.00161L12.8345 2.94707C12.9436 2.76525 12.8709 2.54707 12.689 2.43797C12.5072 2.32888 12.289 2.40161 12.1799 2.58343L11.5981 3.63797C11.489 3.81979 11.5618 4.03798 11.7436 4.14707Z" fill="#18283D"/>
<path d="M20.0004 5.5625H15.5277C15.3095 5.5625 15.1641 5.70795 15.1641 5.92614C15.1641 6.14432 15.3095 6.28977 15.5277 6.28977H20.0004C20.2186 6.28977 20.3641 6.14432 20.3641 5.92614C20.3641 5.74432 20.2186 5.5625 20.0004 5.5625Z" fill="#18283D"/>
<path d="M14.8011 3.7468H20.0011C20.2193 3.7468 20.3648 3.60135 20.3648 3.38317C20.3648 3.16499 20.2193 3.01953 20.0011 3.01953H14.8011C14.583 3.01953 14.4375 3.16499 14.4375 3.38317C14.4375 3.60135 14.6193 3.7468 14.8011 3.7468Z" fill="#18283D"/>
<path d="M19.999 8.10938H16.9808C16.7626 8.10938 16.6172 8.25483 16.6172 8.47301C16.6172 8.69119 16.7626 8.83665 16.9808 8.83665H19.999C20.2172 8.83665 20.3626 8.69119 20.3626 8.47301C20.3626 8.29119 20.2172 8.10938 19.999 8.10938Z" fill="#18283D"/>
<path d="M4.58239 6.28977H7.12784C7.34602 6.28977 7.49148 6.14432 7.49148 5.92614C7.49148 5.70795 7.34602 5.5625 7.12784 5.5625H4.58239C4.3642 5.5625 4.21875 5.70795 4.21875 5.92614C4.21875 6.14432 4.3642 6.28977 4.58239 6.28977Z" fill="#18283D"/>
<path d="M7.49148 8.47301C7.49148 8.25483 7.34602 8.10938 7.12784 8.10938H4.58239C4.3642 8.10938 4.21875 8.25483 4.21875 8.47301C4.21875 8.69119 4.3642 8.83665 4.58239 8.83665H7.12784C7.34602 8.83665 7.49148 8.69119 7.49148 8.47301Z" fill="#18283D"/>
</svg>
