<svg width="117" height="95" viewBox="0 0 117 95" fill="none" xmlns="http://www.w3.org/2000/svg">
<path fill-rule="evenodd" clip-rule="evenodd" d="M49.0197 3.99612C48.3909 3.45531 47.5864 3.07477 46.8032 3.02001C46.3935 2.99663 47.7523 4.84118 47.9132 5.07621C49.4064 7.33299 50.4723 9.20923 51.1433 12.2234C52.1338 15.3781 54.7924 26.4224 55.9285 27.5455C56.8215 26.9527 54.382 18.2736 56.3105 14.9001C57.8548 12.5981 58.5959 12.1772 58.8602 12.6448C59.4708 13.6194 58.4559 18.7464 58.6325 19.3278C59.2721 19.5404 64.2043 8.11376 59.704 9.16985C57.9674 9.607 56.2749 11.3679 55.998 11.514C55.9429 9.01635 56.2687 7.51757 57.1467 5.22049C58.3227 2.5681 60.0006 0.89059 60.5183 0C58.0228 0.778613 56.5428 3.68972 55.1003 5.52443C52.2172 9.80696 52.0812 6.22275 49.0197 3.99612ZM51.9274 5.74654C53.0752 7.97286 55.7091 4.44342 54.7985 3.6808C54.0252 2.96587 51.2263 3.71156 51.9274 5.74654Z" fill="#FAAF3A" style="fill:#FAAF3A;fill:color(display-p3 0.9804 0.6863 0.2275);fill-opacity:1;"/>
<path fill-rule="evenodd" clip-rule="evenodd" d="M32.7806 18.0161C31.9488 18.0583 31.0958 18.3225 30.5011 18.8347C30.1929 19.0913 32.485 19.4872 32.7647 19.5481C35.4327 20.1428 37.5311 20.763 40.1616 22.4534C43.1158 24.0076 52.9129 29.9802 54.5329 29.9848C54.7415 28.9561 46.7738 24.5102 45.7183 20.7873C45.1705 18.0657 45.3769 17.2563 45.91 17.4021C47.0215 17.6648 49.9858 22.0126 50.5488 22.3054C51.1545 22.0049 46.3905 10.4343 44.0073 14.3384C43.0881 15.8615 43.1653 18.2893 43.0737 18.5871C41.2534 16.8367 40.4087 15.5483 39.3799 13.2882C38.3128 10.5767 38.2829 8.20119 38.0045 7.20508C36.8238 9.4837 37.8642 12.6194 38.1673 14.9266C39.1901 19.9951 36.5405 17.5042 32.7806 18.0161ZM36.0772 17.2855C38.4804 18.0912 37.8141 13.7395 36.6291 13.8142C35.5733 13.8397 34.1342 16.2817 36.0772 17.2855Z" fill="#00ADDC" style="fill:#00ADDC;fill:color(display-p3 0.0000 0.6784 0.8627);fill-opacity:1;"/>
<path fill-rule="evenodd" clip-rule="evenodd" d="M31.1596 39.1807C30.5908 39.783 30.1853 40.5607 30.1106 41.3264C30.0786 41.7285 31.9967 40.4371 32.2406 40.2842C34.5764 38.8746 36.5096 37.8696 39.5905 37.2663C42.8179 36.3428 54.0858 33.7953 55.2514 32.6752C54.6699 31.7988 45.8025 34.1728 42.3961 32.2575C40.0649 30.7215 39.6422 29.9924 40.1202 29.7377C41.1145 29.1535 46.3322 30.1893 46.9253 30.0198C47.1456 29.3925 35.5104 24.4357 36.5853 28.8609C37.0215 30.5664 38.8005 32.2479 38.9454 32.5193C36.3985 32.5303 34.877 32.1852 32.5393 31.2774C29.8368 30.0635 28.1276 28.3786 27.2148 27.8467C27.9978 30.308 30.9682 31.8299 32.8279 33.28C37.1519 36.1791 33.4945 36.2404 31.1596 39.1807ZM33.0063 36.3806C35.2969 35.3067 31.7309 32.6614 30.9359 33.5317C30.1936 34.2691 30.9116 37.0178 33.0063 36.3806Z" fill="#92298D" style="fill:#92298D;fill:color(display-p3 0.5725 0.1608 0.5529);fill-opacity:1;"/>
<path fill-rule="evenodd" clip-rule="evenodd" d="M45.0834 55.3687C45.1163 56.1892 45.375 57.0355 45.8887 57.6273C46.1465 57.934 46.5729 55.68 46.6384 55.4038C47.2799 52.7849 47.9437 50.7266 49.7074 48.1603C51.3443 45.2723 57.6239 35.664 57.6741 34.0647C56.641 33.8552 51.9408 41.6822 48.1498 42.6854C45.3836 43.1915 44.569 42.977 44.7281 42.4568C45.0237 41.3727 49.4994 38.5084 49.8089 37.9587C49.5203 37.36 37.6695 41.8813 41.5798 44.2774C43.101 45.2018 45.5602 45.16 45.8617 45.2544C44.047 47.0261 42.7211 47.8247 40.4062 48.8017C37.6304 49.808 35.2109 49.7975 34.1914 50.0547C36.4885 51.2551 39.6968 50.2907 42.0434 50.0196C47.1989 49.0866 44.6247 51.6593 45.0834 55.3687ZM44.3934 52.1118C45.2563 49.7585 40.8304 50.3482 40.8833 51.5166C40.8898 52.5564 43.344 54.0121 44.3934 52.1118Z" fill="#8BC53F" style="fill:#8BC53F;fill:color(display-p3 0.5451 0.7725 0.2471);fill-opacity:1;"/>
<path fill-rule="evenodd" clip-rule="evenodd" d="M66.5685 57.0936C67.1761 57.6514 67.9615 58.0599 68.7416 58.1205C69.1468 58.1636 67.848 56.267 67.6951 56.0265C66.2803 53.7294 65.2793 51.8282 64.7052 48.7907C63.8186 45.6129 61.4969 34.493 60.4006 33.3418C59.502 33.9229 61.6821 42.6765 59.6761 46.0297C58.0779 48.3188 57.331 48.731 57.0831 48.2597C56.5099 47.2784 57.6685 42.1493 57.51 41.5635C56.8822 41.347 51.6334 52.7545 56.1362 51.7322C57.8721 51.3145 59.6038 49.569 59.8825 49.4284C59.8585 51.9341 59.4881 53.4322 58.5446 55.7281C57.291 58.3811 55.5695 60.053 55.0247 60.9458C57.531 60.1915 59.0937 57.277 60.5824 55.4506C63.5698 51.1964 63.5959 54.7984 66.5685 57.0936ZM63.7356 55.2798C62.665 53.0234 59.9437 56.5291 60.8229 57.3139C61.5692 58.0445 64.3656 57.3514 63.7356 55.2798Z" fill="#8552A1" style="fill:#8552A1;fill:color(display-p3 0.5216 0.3216 0.6314);fill-opacity:1;"/>
<path fill-rule="evenodd" clip-rule="evenodd" d="M83.0521 43.256C83.8787 43.2191 84.7321 42.961 85.3313 42.4488C85.6414 42.1925 83.3748 41.7739 83.0989 41.7099C80.4659 41.0845 78.401 40.4387 75.8385 38.7071C72.9569 37.1074 63.4308 30.9468 61.841 30.9277C61.6103 31.9485 69.365 36.5506 70.3125 40.304C70.7813 43.0401 70.5534 43.8485 70.0313 43.6956C68.9402 43.4114 66.1318 39.0036 65.5842 38.7003C64.9779 38.991 69.361 50.6724 71.8297 46.7959C72.7816 45.2842 72.7689 42.8484 72.868 42.5512C74.6338 44.3321 75.4275 45.6408 76.391 47.9259C77.384 50.6681 77.3557 53.0587 77.6095 54.0655C78.8403 51.7906 77.8891 48.6196 77.6341 46.2976C76.7435 41.1903 79.3098 43.7273 83.0521 43.256ZM79.7645 43.955C77.4006 43.1127 77.9556 47.4961 79.136 47.4386C80.1856 47.4266 81.6715 44.9864 79.7645 43.955Z" fill="#EF413D" style="fill:#EF413D;fill:color(display-p3 0.9373 0.2549 0.2392);fill-opacity:1;"/>
<path fill-rule="evenodd" clip-rule="evenodd" d="M84.8492 21.8462C85.4041 21.2349 85.809 20.448 85.8616 19.6691C85.9028 19.2652 84.0142 20.568 83.7758 20.7215C81.4843 22.1425 79.585 23.1518 76.5514 23.744C73.3764 24.6506 62.2672 27.0796 61.125 28.1886C61.7089 29.0826 70.4453 26.8135 73.7911 28.7913C76.0712 30.3682 76.4813 31.109 76.0082 31.3618C75.0222 31.9411 69.9042 30.8355 69.3184 30.9979C69.0945 31.6295 80.4737 36.7558 79.4539 32.2549C79.0679 30.5512 77.3294 28.8337 77.1882 28.5578C79.6945 28.5652 81.193 28.9254 83.4897 29.8575C86.1486 31.0994 87.8224 32.8117 88.7185 33.3556C87.9651 30.857 85.0442 29.3038 83.2178 27.8259C78.958 24.8622 82.5628 24.8204 84.8492 21.8462ZM83.0431 24.6786C80.7875 25.7577 84.2966 28.4587 85.0826 27.5801C85.8154 26.8314 85.1174 24.0436 83.0431 24.6786Z" fill="#F58220" style="fill:#F58220;fill:color(display-p3 0.9608 0.5098 0.1255);fill-opacity:1;"/>
<path fill-rule="evenodd" clip-rule="evenodd" d="M70.6822 5.47766C70.6222 4.65752 70.334 3.814 69.799 3.2255C69.5301 2.92125 69.181 5.17034 69.125 5.44506C68.57 8.06761 67.9707 10.1303 66.2849 12.7057C64.7302 15.6021 58.676 25.2014 58.6797 26.786C59.7099 26.9964 64.2315 19.1958 67.9938 18.2059C70.7342 17.71 71.5503 17.9324 71.4014 18.456C71.1301 19.5484 66.7424 22.3967 66.4443 22.9471C66.7408 23.5525 78.3988 19.0786 74.4867 16.6339C72.9574 15.6935 70.5127 15.7255 70.2112 15.6307C71.9736 13.8621 73.2694 13.05 75.5443 12.072C78.2739 11.0664 80.671 11.083 81.672 10.8274C79.366 9.60914 76.2106 10.5828 73.8846 10.8427C68.7672 11.7746 71.2618 9.19168 70.6822 5.47766ZM71.4777 8.73824C70.6887 11.1018 75.0816 10.5139 74.9949 9.33843C74.9567 8.29279 72.4646 6.83277 71.4777 8.73824Z" fill="#EC1E79" style="fill:#EC1E79;fill:color(display-p3 0.9255 0.1176 0.4745);fill-opacity:1;"/>
<path d="M13.1214 83.7001C11.5992 85.2921 9.74512 86.0442 7.36529 86.0442C2.51919 86.0442 0 83.1226 0 78.8715C0 74.62 2.62409 71.5234 7.38283 71.5234C9.77958 71.5234 11.5992 72.2584 13.1038 73.8153L11.2842 75.6525C10.2872 74.4102 9.16739 73.8328 7.40036 73.8328C4.02381 73.8328 2.58933 76.0198 2.58933 78.8715C2.58933 81.6531 3.93644 83.7354 7.38283 83.7354C9.14986 83.7354 10.2872 83.158 11.3017 81.8983L13.1214 83.7001Z" fill="#001F30" style="fill:#001F30;fill:color(display-p3 0.0000 0.1216 0.1882);fill-opacity:1;"/>
<path d="M20.0669 86.0434C16.288 86.0434 14.4336 83.5769 14.4336 80.3578C14.4336 77.1385 16.288 74.6719 20.0669 74.6719C23.8459 74.6719 25.7178 77.1212 25.7178 80.3578C25.7178 83.5593 23.8283 86.0434 20.0669 86.0434ZM20.0669 76.8585C17.8627 76.8585 16.9177 78.3105 16.9177 80.3578C16.9177 82.3869 17.88 83.8565 20.0845 83.8565C22.2889 83.8565 23.2334 82.4045 23.2334 80.3578C23.2334 78.3284 22.2714 76.8585 20.0669 76.8585Z" fill="#001F30" style="fill:#001F30;fill:color(display-p3 0.0000 0.1216 0.1882);fill-opacity:1;"/>
<path d="M43.456 85.871H40.9718V79.7826C40.9718 77.8584 40.7267 76.8608 39.1347 76.8608C37.7349 76.8608 37.0003 77.9455 37.0179 79.3098V85.8707H34.5162V79.3975C34.5162 77.7354 34.1837 76.8608 32.6966 76.8608C31.5242 76.8608 30.5798 77.8406 30.5798 79.3273V85.8707H28.0781V74.831H30.5798V75.6709H30.6148C31.2446 75.0414 32.2594 74.6738 33.1863 74.6738C34.5334 74.6738 35.688 75.426 36.1956 76.4409H36.2303C36.8604 75.4611 38.1023 74.6738 39.4321 74.6738C42.1611 74.6738 43.4735 76.4233 43.4735 79.3975L43.456 85.871Z" fill="#001F30" style="fill:#001F30;fill:color(display-p3 0.0000 0.1216 0.1882);fill-opacity:1;"/>
<path d="M61.7366 85.871H59.2525V79.7826C59.2525 77.8584 59.0073 76.8608 57.4156 76.8608C56.0159 76.8608 55.2813 77.9455 55.2988 79.3098V85.8707H52.7972V79.3975C52.7972 77.7354 52.4646 76.8608 50.9778 76.8608C49.8055 76.8608 48.861 77.8406 48.861 79.3273V85.8707H46.3594V74.831H48.861V75.6709H48.8961C49.5258 75.0414 50.5407 74.6738 51.4676 74.6738C52.8147 74.6738 53.9692 75.426 54.4768 76.4409H54.5119C55.1416 75.4611 56.3838 74.6738 57.7134 74.6738C60.4424 74.6738 61.7547 76.4233 61.7547 79.3975L61.7366 85.871Z" fill="#001F30" style="fill:#001F30;fill:color(display-p3 0.0000 0.1216 0.1882);fill-opacity:1;"/>
<path d="M74.9643 85.8873H72.4796V84.8727H72.4445C71.6923 85.6249 70.4855 86.0445 69.2608 86.0445C65.9719 86.0445 64.5547 84.3128 64.5547 81.6183V74.8477H67.0388V81.5306C67.0388 82.8956 67.4233 83.8575 69.6106 83.8575C71.2903 83.8575 72.4796 82.9826 72.4796 81.3208V74.8477H74.9643V85.8873Z" fill="#001F30" style="fill:#001F30;fill:color(display-p3 0.0000 0.1216 0.1882);fill-opacity:1;"/>
<path d="M88.4871 85.871H86.003V79.2581C86.003 77.8061 85.6003 76.8611 83.361 76.8611C81.6814 76.8611 80.4222 77.7535 80.4222 79.3978V85.871H77.9375V74.8313H80.4222V75.8462H80.4567C81.2267 75.1288 82.5212 74.6738 83.6936 74.6738C86.5102 74.6738 88.4874 76.2307 88.4874 78.9779V85.871H88.4871Z" fill="#001F30" style="fill:#001F30;fill:color(display-p3 0.0000 0.1216 0.1882);fill-opacity:1;"/>
<path d="M92.6322 73.9204C91.7923 73.9204 91.25 73.3255 91.25 72.5032C91.25 71.6809 91.8099 71.0859 92.6322 71.0859C93.472 71.0859 94.0319 71.6809 94.0319 72.5032C94.0319 73.3255 93.4545 73.9204 92.6322 73.9204ZM93.8566 85.8694H91.3724V74.8473H93.8566V85.8694Z" fill="#001F30" style="fill:#001F30;fill:color(display-p3 0.0000 0.1216 0.1882);fill-opacity:1;"/>
<path d="M104.161 84.4866C103.129 85.5713 101.992 86.0435 100.785 86.0435C98.3878 86.0435 97.1631 84.7139 97.1631 82.2648V77.1736L97.3034 76.9287H95.7812V74.8642H97.3034L97.1631 74.6193V73.115L99.6472 71.7676V74.6193L99.5076 74.8642H102.954V76.9287H99.5076L99.6472 77.1736V82.2473C99.6472 83.2794 100.137 83.8568 100.889 83.8568C101.502 83.8568 102.009 83.5944 102.621 82.9469L104.161 84.4866Z" fill="#001F30" style="fill:#001F30;fill:color(display-p3 0.0000 0.1216 0.1882);fill-opacity:1;"/>
<path d="M116.809 74.8477L111.578 86.9545C110.878 88.5464 109.601 89.6315 107.991 89.6315C107.116 89.6315 106.346 89.4912 105.489 89.054V86.6745C106.556 87.2344 107.186 87.3744 107.781 87.3744C108.411 87.3744 108.988 86.9194 109.548 85.6599L104.422 74.8477H107.186L110.265 81.5482L110.772 83.1229H110.807L111.297 81.5482L114.044 74.8477H116.809Z" fill="#001F30" style="fill:#001F30;fill:color(display-p3 0.0000 0.1216 0.1882);fill-opacity:1;"/>
<path d="M6.48596 89.2363L4.5968 91.8709V93.777H4.05876V91.8709L2.16406 89.2363H2.83654L4.01384 90.9009L4.32209 91.422H4.33347L4.63618 90.9009L5.81902 89.2363H6.48596Z" fill="#001F30" style="fill:#001F30;fill:color(display-p3 0.0000 0.1216 0.1882);fill-opacity:1;"/>
<path d="M8.03599 93.833C6.92606 93.833 6.37109 93.0707 6.37109 92.0112C6.37109 90.9573 6.92575 90.1895 8.03599 90.1895C9.15145 90.1895 9.70642 90.9465 9.70642 92.0112C9.70673 93.0597 9.14038 93.833 8.03599 93.833ZM8.03599 90.6826C7.22323 90.6826 6.88668 91.26 6.88668 92.0112C6.88668 92.7569 7.22846 93.3399 8.04153 93.3399C8.85428 93.3399 9.19053 92.7569 9.19053 92.0112C9.19083 91.2656 8.84875 90.6826 8.03599 90.6826Z" fill="#001F30" style="fill:#001F30;fill:color(display-p3 0.0000 0.1216 0.1882);fill-opacity:1;"/>
<path d="M13.5476 93.7761H13.0317V93.3331H13.0206C12.7403 93.6524 12.3703 93.832 11.9162 93.832C10.9186 93.832 10.4922 93.2992 10.4922 92.4415V90.2441H11.0081V92.4136C11.0081 92.935 11.1594 93.3386 11.9722 93.3386C12.5665 93.3386 13.0317 93.0079 13.0317 92.3406V90.2441H13.5476V93.7761Z" fill="#001F30" style="fill:#001F30;fill:color(display-p3 0.0000 0.1216 0.1882);fill-opacity:1;"/>
<path d="M16.3205 90.7529H16.1525C15.6425 90.7529 15.0706 91.095 15.0706 92.0311V93.7744H14.5547V90.2428H15.0706V90.8538H15.0817C15.2835 90.4219 15.7544 90.2031 16.2085 90.2031H16.3205V90.7529Z" fill="#001F30" style="fill:#001F30;fill:color(display-p3 0.0000 0.1216 0.1882);fill-opacity:1;"/>
<path d="M20.8022 93.7766H18.6719V89.2363H20.7518C21.6934 89.2363 22.1309 89.8138 22.1309 90.4579C22.1309 90.8843 21.9795 91.1587 21.6208 91.3774V91.3888C22.0918 91.5962 22.3271 91.9829 22.3271 92.4874C22.3268 93.2777 21.7999 93.7766 20.8022 93.7766ZM20.6955 89.7402H19.1484L19.2044 89.7962V91.1304L19.1484 91.1864H20.6955C21.3458 91.1864 21.5811 90.8615 21.5811 90.4573C21.5814 89.9762 21.2787 89.7402 20.6955 89.7402ZM20.7964 91.6915H19.1484L19.2044 91.7475V93.2158L19.1484 93.2718H20.8022C21.4975 93.2718 21.7777 92.9916 21.7777 92.4874C21.7774 91.9942 21.4692 91.6915 20.7964 91.6915Z" fill="#001F30" style="fill:#001F30;fill:color(display-p3 0.0000 0.1216 0.1882);fill-opacity:1;"/>
<path d="M26.1101 93.7761H25.5942V93.3331H25.5831C25.3029 93.6524 24.9328 93.832 24.4787 93.832C23.4811 93.832 23.0547 93.2992 23.0547 92.4415V90.2441H23.5706V92.4136C23.5706 92.935 23.7219 93.3386 24.5347 93.3386C25.129 93.3386 25.5942 93.0079 25.5942 92.3406V90.2441H26.1101V93.7761Z" fill="#001F30" style="fill:#001F30;fill:color(display-p3 0.0000 0.1216 0.1882);fill-opacity:1;"/>
<path d="M28.4523 93.8372C27.8974 93.8372 27.3144 93.6634 26.9219 93.2318L27.303 92.8507C27.6956 93.2093 28.0207 93.3438 28.4354 93.3438C29.0633 93.3438 29.3435 93.1081 29.3435 92.8279C29.3435 92.5984 29.2091 92.4467 28.7271 92.3178C28.6486 92.2954 28.1721 92.1554 28.0992 92.133C27.4768 91.9591 27.0228 91.718 27.0228 91.1741C27.0228 90.6585 27.4658 90.1875 28.4133 90.1875C28.9679 90.1875 29.4448 90.3838 29.7865 90.7591L29.4054 91.1402C29.1642 90.8489 28.8446 90.6806 28.4133 90.6806C27.8023 90.6806 27.5445 90.9273 27.5445 91.1571C27.5445 91.37 27.7463 91.5103 28.3237 91.6672C28.3967 91.69 28.8117 91.8189 28.8901 91.841C29.5909 92.0314 29.8653 92.3514 29.8653 92.8051C29.8647 93.321 29.4724 93.8372 28.4523 93.8372Z" fill="#001F30" style="fill:#001F30;fill:color(display-p3 0.0000 0.1216 0.1882);fill-opacity:1;"/>
<path d="M30.9342 89.7731C30.7099 89.7731 30.5977 89.622 30.5977 89.403C30.5977 89.1843 30.7155 89.0332 30.9342 89.0332C31.1585 89.0332 31.2704 89.1843 31.2704 89.403C31.2704 89.622 31.1529 89.7731 30.9342 89.7731ZM31.192 93.7756H30.6761V90.244H31.192V93.7756Z" fill="#001F30" style="fill:#001F30;fill:color(display-p3 0.0000 0.1216 0.1882);fill-opacity:1;"/>
<path d="M35.2995 93.777H34.7836V91.6359C34.7836 91.0751 34.6098 90.6826 33.7971 90.6826C33.2027 90.6826 32.7151 91.0133 32.7151 91.6805V93.777H32.1992V90.2454H32.7151V90.6884H32.7262C32.9674 90.3857 33.3987 90.1895 33.853 90.1895C34.7836 90.1895 35.2992 90.666 35.2992 91.524V93.777H35.2995Z" fill="#001F30" style="fill:#001F30;fill:color(display-p3 0.0000 0.1216 0.1882);fill-opacity:1;"/>
<path d="M39.406 92.2449H36.5527L36.6142 92.3009C36.7041 92.9402 37.0741 93.3383 37.7915 93.3383C38.1782 93.3383 38.5092 93.2038 38.7612 92.9571L39.1257 93.3158C38.784 93.6517 38.324 93.8314 37.786 93.8314C36.6201 93.8314 36.082 93.0635 36.082 92.0376C36.082 90.9556 36.6985 90.1875 37.7639 90.1875C38.8793 90.1875 39.4174 90.9726 39.4174 92.0376C39.4171 92.1216 39.4115 92.172 39.406 92.2449ZM38.9464 91.7743L38.8849 91.7183C38.8009 91.1125 38.4532 90.6809 37.7635 90.6809C37.0572 90.6809 36.7096 91.1295 36.6201 91.7183L36.5582 91.7743H38.9464Z" fill="#001F30" style="fill:#001F30;fill:color(display-p3 0.0000 0.1216 0.1882);fill-opacity:1;"/>
<path d="M41.5656 93.8372C41.0107 93.8372 40.4277 93.6634 40.0352 93.2318L40.4163 92.8507C40.8089 93.2093 41.1337 93.3438 41.5487 93.3438C42.1763 93.3438 42.4568 93.1081 42.4568 92.8279C42.4568 92.5984 42.3224 92.4467 41.8403 92.3178C41.7619 92.2954 41.2854 92.1554 41.2125 92.133C40.5901 91.9591 40.1361 91.718 40.1361 91.1741C40.1361 90.6585 40.579 90.1875 41.5265 90.1875C42.0812 90.1875 42.558 90.3838 42.8998 90.7591L42.5187 91.1402C42.2775 90.8489 41.9578 90.6806 41.5265 90.6806C40.9153 90.6806 40.6575 90.9273 40.6575 91.1571C40.6575 91.37 40.8593 91.5103 41.4367 91.6672C41.5096 91.69 41.9246 91.8189 42.0031 91.841C42.7039 92.0314 42.9786 92.3514 42.9786 92.8051C42.9783 93.321 42.586 93.8372 41.5656 93.8372Z" fill="#001F30" style="fill:#001F30;fill:color(display-p3 0.0000 0.1216 0.1882);fill-opacity:1;"/>
<path d="M45.1242 93.8372C44.5692 93.8372 43.9863 93.6634 43.5938 93.2318L43.9749 92.8507C44.3674 93.2093 44.6923 93.3438 45.1073 93.3438C45.7349 93.3438 46.0154 93.1081 46.0154 92.8279C46.0154 92.5984 45.881 92.4467 45.3989 92.3178C45.3205 92.2954 44.844 92.1554 44.7711 92.133C44.1487 91.9591 43.6947 91.718 43.6947 91.1741C43.6947 90.6585 44.1376 90.1875 45.0851 90.1875C45.6398 90.1875 46.1166 90.3838 46.4584 90.7591L46.0773 91.1402C45.8361 90.8489 45.5164 90.6806 45.0851 90.6806C44.4742 90.6806 44.2164 90.9273 44.2164 91.1571C44.2164 91.37 44.4182 91.5103 44.9956 91.6672C45.0685 91.69 45.4835 91.8189 45.5617 91.841C46.2624 92.0314 46.5372 92.3514 46.5372 92.8051C46.5368 93.321 46.1446 93.8372 45.1242 93.8372Z" fill="#001F30" style="fill:#001F30;fill:color(display-p3 0.0000 0.1216 0.1882);fill-opacity:1;"/>
<path d="M51.1564 93.4381C50.8367 93.7018 50.506 93.8307 50.1363 93.8307C49.5478 93.8307 49.1663 93.4381 49.1663 92.7429V90.7697L49.1943 90.7137H48.7461V90.2427H49.1943L49.1663 90.1868V89.626L49.6822 89.3457V90.1868L49.6542 90.2427H50.7755V90.7137H49.6542L49.6822 90.7697V92.7204C49.6822 93.1354 49.8674 93.3428 50.1643 93.3428C50.411 93.3428 50.5959 93.264 50.7921 93.0791L51.1564 93.4381Z" fill="#001F30" style="fill:#001F30;fill:color(display-p3 0.0000 0.1216 0.1882);fill-opacity:1;"/>
<path d="M54.6345 93.7754H54.1189V93.4613H54.1075C53.7993 93.736 53.3732 93.8372 52.9641 93.8372C52.2522 93.8372 51.5234 93.5625 51.5234 92.7495C51.5234 91.6395 52.9247 91.6005 53.7827 91.6005C53.9116 91.6005 54.1078 91.6115 54.1752 91.6229L54.1192 91.5611V91.4826C54.1192 90.8772 53.6762 90.681 53.1493 90.681C52.7678 90.681 52.3254 90.7649 52.0393 91.0341L51.6806 90.681C52.1122 90.3164 52.5888 90.1934 53.1496 90.1934C53.9005 90.1934 54.6351 90.4902 54.6351 91.4768V93.7754H54.6345ZM54.1752 92.0714C54.1078 92.0659 53.9285 92.0542 53.8165 92.0542C53.1997 92.0542 52.0393 92.0431 52.0393 92.7495C52.0393 93.2205 52.5832 93.349 52.9699 93.349C53.3286 93.349 54.1192 93.2481 54.1192 92.7436V92.1216L54.1752 92.0714Z" fill="#001F30" style="fill:#001F30;fill:color(display-p3 0.0000 0.1216 0.1882);fill-opacity:1;"/>
<path d="M58.6859 90.2438V93.4671C58.6859 94.4257 58.17 94.9807 57.0884 94.9807C56.5276 94.9807 56.0514 94.8238 55.6475 94.5045L56.0175 94.1344C56.2867 94.3587 56.7069 94.4931 57.0884 94.4931C57.8003 94.4931 58.1703 94.1178 58.1703 93.4616V93.03H58.1593C57.8735 93.3552 57.4979 93.4951 57.0269 93.4951C55.9505 93.4951 55.418 92.8393 55.418 91.8527C55.418 90.939 55.9674 90.1875 57.0269 90.1875C57.5034 90.1875 57.9239 90.3724 58.1593 90.6751H58.1703V90.2435H58.6859V90.2438ZM57.0487 90.6809C56.2864 90.6809 55.9333 91.1855 55.9333 91.8527C55.9333 92.5473 56.3033 93.0017 57.0487 93.0017C57.8618 93.0017 58.2149 92.5193 58.2149 91.8527C58.2149 91.1633 57.8058 90.6809 57.0487 90.6809Z" fill="#001F30" style="fill:#001F30;fill:color(display-p3 0.0000 0.1216 0.1882);fill-opacity:1;"/>
<path d="M60.207 93.775H59.6914V89.0664H60.207V93.775Z" fill="#001F30" style="fill:#001F30;fill:color(display-p3 0.0000 0.1216 0.1882);fill-opacity:1;"/>
<path d="M61.4733 89.7731C61.249 89.7731 61.1367 89.622 61.1367 89.403C61.1367 89.1843 61.2545 89.0332 61.4733 89.0332C61.6975 89.0332 61.8098 89.1843 61.8098 89.403C61.8095 89.622 61.6917 89.7731 61.4733 89.7731ZM61.7311 93.7756H61.2152V90.244H61.7311V93.7756Z" fill="#001F30" style="fill:#001F30;fill:color(display-p3 0.0000 0.1216 0.1882);fill-opacity:1;"/>
<path d="M65.8422 93.777H65.3266V91.6359C65.3266 91.0751 65.1528 90.6826 64.3397 90.6826C63.7457 90.6826 63.2581 91.0133 63.2581 91.6805V93.777H62.7422V90.2454H63.2581V90.6884H63.2692C63.51 90.3857 63.9419 90.1895 64.396 90.1895C65.3269 90.1895 65.8425 90.666 65.8425 91.524V93.777H65.8422Z" fill="#001F30" style="fill:#001F30;fill:color(display-p3 0.0000 0.1216 0.1882);fill-opacity:1;"/>
<path d="M69.9486 92.2449H67.0957L67.1575 92.3009C67.247 92.9402 67.6171 93.3383 68.3345 93.3383C68.7212 93.3383 69.0522 93.2038 69.3045 92.9571L69.669 93.3158C69.3269 93.6517 68.8673 93.8314 68.329 93.8314C67.1627 93.8314 66.625 93.0635 66.625 92.0376C66.625 90.9556 67.2415 90.1875 68.3068 90.1875C69.422 90.1875 69.9606 90.9726 69.9606 92.0376C69.96 92.1216 69.9542 92.172 69.9486 92.2449ZM69.489 91.7743L69.4272 91.7183C69.3432 91.1125 68.9956 90.6809 68.3062 90.6809C67.5996 90.6809 67.2523 91.1295 67.1624 91.7183L67.1012 91.7743H69.489Z" fill="#001F30" style="fill:#001F30;fill:color(display-p3 0.0000 0.1216 0.1882);fill-opacity:1;"/>
<path d="M75.5805 90.2438V93.4671C75.5805 94.4257 75.0649 94.9807 73.9829 94.9807C73.4227 94.9807 72.9462 94.8238 72.5423 94.5045L72.9124 94.1344C73.1812 94.3587 73.6018 94.4931 73.9829 94.4931C74.6948 94.4931 75.0649 94.1178 75.0649 93.4616V93.03H75.0538C74.7677 93.3552 74.3918 93.4951 73.9214 93.4951C72.845 93.4951 72.3125 92.8393 72.3125 91.8527C72.3125 90.939 72.8619 90.1875 73.9214 90.1875C74.3976 90.1875 74.8181 90.3724 75.0538 90.6751H75.0649V90.2435H75.5805V90.2438ZM73.9439 90.6809C73.1813 90.6809 72.8281 91.1855 72.8281 91.8527C72.8281 92.5473 73.1982 93.0017 73.9439 93.0017C74.7566 93.0017 75.1095 92.5193 75.1095 91.8527C75.1098 91.1633 74.7006 90.6809 73.9439 90.6809Z" fill="#001F30" style="fill:#001F30;fill:color(display-p3 0.0000 0.1216 0.1882);fill-opacity:1;"/>
<path d="M78.0558 93.833C76.9459 93.833 76.3906 93.0707 76.3906 92.0112C76.3906 90.9573 76.9456 90.1895 78.0558 90.1895C79.171 90.1895 79.7263 90.9465 79.7263 92.0112C79.726 93.0597 79.1596 93.833 78.0558 93.833ZM78.0558 90.6826C77.2428 90.6826 76.9062 91.26 76.9062 92.0112C76.9062 92.7569 77.2483 93.3399 78.0611 93.3399C78.8741 93.3399 79.2107 92.7569 79.2107 92.0112C79.2104 91.2656 78.8683 90.6826 78.0558 90.6826Z" fill="#001F30" style="fill:#001F30;fill:color(display-p3 0.0000 0.1216 0.1882);fill-opacity:1;"/>
<path d="M83.6674 92.2449H80.8144L80.8763 92.3009C80.9655 92.9402 81.3359 93.3383 82.0533 93.3383C82.4399 93.3383 82.7707 93.2038 83.0232 92.9571L83.3878 93.3158C83.0457 93.6517 82.5861 93.8314 82.0477 93.8314C80.8815 93.8314 80.3438 93.0635 80.3438 92.0376C80.3438 90.9556 80.9602 90.1875 82.0256 90.1875C83.1407 90.1875 83.6791 90.9726 83.6791 92.0376C83.6788 92.1216 83.6729 92.172 83.6674 92.2449ZM83.2078 91.7743L83.146 91.7183C83.062 91.1125 82.7144 90.6809 82.025 90.6809C81.3183 90.6809 80.971 91.1295 80.8812 91.7183L80.82 91.7743H83.2078Z" fill="#001F30" style="fill:#001F30;fill:color(display-p3 0.0000 0.1216 0.1882);fill-opacity:1;"/>
<path d="M85.8231 93.8372C85.2682 93.8372 84.6855 93.6634 84.293 93.2318L84.6741 92.8507C85.0667 93.2093 85.3918 93.3438 85.8065 93.3438C86.4344 93.3438 86.7146 93.1081 86.7146 92.8279C86.7146 92.5984 86.5802 92.4467 86.0978 92.3178C86.0194 92.2954 85.5432 92.1554 85.47 92.133C84.8479 91.9591 84.3936 91.718 84.3936 91.1741C84.3936 90.6585 84.8365 90.1875 85.784 90.1875C86.339 90.1875 86.8152 90.3838 87.1573 90.7591L86.7762 91.1402C86.5353 90.8489 86.2153 90.6806 85.784 90.6806C85.1731 90.6806 84.915 90.9273 84.915 91.1571C84.915 91.37 85.1168 91.5103 85.6942 91.6672C85.7668 91.69 86.1818 91.8189 86.2606 91.841C86.961 92.0314 87.2358 92.3514 87.2358 92.8051C87.2358 93.321 86.8432 93.8372 85.8231 93.8372Z" fill="#001F30" style="fill:#001F30;fill:color(display-p3 0.0000 0.1216 0.1882);fill-opacity:1;"/>
<path d="M92.8848 93.775H92.3693V91.6056C92.3693 91.0838 92.1954 90.6805 91.3827 90.6805C90.7883 90.6805 90.3007 91.0112 90.3007 91.6785V93.775H89.7852V89.0664H90.3007V90.6864H90.3121C90.5755 90.3665 90.996 90.1874 91.4445 90.1874C92.4366 90.1874 92.8848 90.731 92.8848 91.5219V93.775Z" fill="#001F30" style="fill:#001F30;fill:color(display-p3 0.0000 0.1216 0.1882);fill-opacity:1;"/>
<path d="M96.9916 92.2449H94.1387L94.2005 92.3009C94.29 92.9402 94.6601 93.3383 95.3775 93.3383C95.7642 93.3383 96.0952 93.2038 96.3474 92.9571L96.712 93.3158C96.3699 93.6517 95.9103 93.8314 95.3719 93.8314C94.2057 93.8314 93.668 93.0635 93.668 92.0376C93.668 90.9556 94.2845 90.1875 95.3498 90.1875C96.4653 90.1875 97.0036 90.9726 97.0036 92.0376C97.003 92.1216 96.9975 92.172 96.9916 92.2449ZM96.5323 91.7743L96.4705 91.7183C96.3865 91.1125 96.0389 90.6809 95.3495 90.6809C94.6429 90.6809 94.2955 91.1295 94.2057 91.7183L94.1445 91.7743H96.5323Z" fill="#001F30" style="fill:#001F30;fill:color(display-p3 0.0000 0.1216 0.1882);fill-opacity:1;"/>
<path d="M99.5783 90.7529H99.41C98.8997 90.7529 98.3281 91.095 98.3281 92.0311V93.7744H97.8125V90.2428H98.3281V90.8538H98.3395C98.541 90.4219 99.012 90.2031 99.466 90.2031H99.5783V90.7529Z" fill="#001F30" style="fill:#001F30;fill:color(display-p3 0.0000 0.1216 0.1882);fill-opacity:1;"/>
<path d="M103.324 92.2449H100.471L100.532 92.3009C100.622 92.9402 100.992 93.3383 101.71 93.3383C102.096 93.3383 102.427 93.2038 102.679 92.9571L103.044 93.3158C102.702 93.6517 102.242 93.8314 101.704 93.8314C100.538 93.8314 100 93.0635 100 92.0376C100 90.9556 100.616 90.1875 101.682 90.1875C102.797 90.1875 103.335 90.9726 103.335 92.0376C103.335 92.1216 103.329 92.172 103.324 92.2449ZM102.864 91.7743L102.802 91.7183C102.718 91.1125 102.371 90.6809 101.681 90.6809C100.975 90.6809 100.627 91.1295 100.537 91.7183L100.476 91.7743H102.864Z" fill="#001F30" style="fill:#001F30;fill:color(display-p3 0.0000 0.1216 0.1882);fill-opacity:1;"/>
</svg>
