<svg width="299" height="229" viewBox="0 0 299 229" fill="none" xmlns="http://www.w3.org/2000/svg">
<path d="M280.757 98.0391C280.757 98.0391 280.306 101.909 276.795 102.176C280.305 102.444 280.757 106.314 280.757 106.314C280.757 106.314 281.208 102.444 284.718 102.176C281.208 101.909 280.757 98.0391 280.757 98.0391Z" fill="#FEE5DE"/>
<path d="M107.49 42.4297C107.49 42.4297 107.184 45.0528 104.805 45.2341C107.184 45.4157 107.49 48.0385 107.49 48.0385C107.49 48.0385 107.795 45.4154 110.175 45.2341C107.795 45.0528 107.49 42.4297 107.49 42.4297Z" fill="#FEE5DE"/>
<path d="M291.238 174.953C291.238 174.953 290.922 177.666 288.461 177.854C290.922 178.041 291.238 180.754 291.238 180.754C291.238 180.754 291.555 178.041 294.015 177.854C291.555 177.666 291.238 174.953 291.238 174.953Z" fill="#FEE5DE"/>
<path d="M254.211 134.868C256.084 134.868 256.087 132.336 254.211 132.336C252.338 132.336 252.336 134.868 254.211 134.868Z" fill="#FEE5DE"/>
<path d="M219.612 149.992C220.548 149.992 220.549 148.727 219.612 148.727C218.675 148.726 218.674 149.992 219.612 149.992Z" fill="#FEE5DE"/>
<path d="M272.967 122.985C273.903 122.985 273.905 121.719 272.967 121.719C272.031 121.719 272.029 122.985 272.967 122.985Z" fill="#FEE5DE"/>
<path d="M244.511 94.8442C245.447 94.8442 245.448 93.5781 244.511 93.5781C243.574 93.5785 243.572 94.8442 244.511 94.8442Z" fill="#FEE5DE"/>
<path d="M91.8819 61.0939C92.8183 61.0939 92.8196 59.8281 91.8819 59.8281C90.9458 59.8281 90.9441 61.0939 91.8819 61.0939Z" fill="#FEE5DE"/>
<path d="M119.368 77.1959C121.24 77.1959 121.244 74.6641 119.368 74.6641C117.495 74.6641 117.492 77.1959 119.368 77.1959Z" fill="#FEE5DE"/>
<path d="M120.662 57.7189C121.598 57.7189 121.6 56.4531 120.662 56.4531C119.725 56.4531 119.724 57.7189 120.662 57.7189Z" fill="#FEE5DE"/>
<path d="M92.8522 45.0548C93.7886 45.0548 93.7903 43.7891 92.8522 43.7891C91.9158 43.7891 91.9145 45.0548 92.8522 45.0548Z" fill="#FEE5DE"/>
<path d="M82.181 44.7424C82.6492 44.7424 82.6502 44.1094 82.181 44.1094C81.7128 44.1094 81.7121 44.7424 82.181 44.7424Z" fill="#FEE5DE"/>
<path d="M37.2332 98.7581C37.7014 98.7581 37.7021 98.125 37.2332 98.125C36.765 98.125 36.7644 98.7581 37.2332 98.7581Z" fill="#FEE5DE"/>
<path d="M63.7492 96.5707C65.1538 96.5707 65.1558 94.6719 63.7492 94.6719C62.3446 94.6715 62.3422 96.5707 63.7492 96.5707Z" fill="#FEE5DE"/>
<path d="M11.0407 130.852C11.9771 130.852 11.9785 129.586 11.0407 129.586C10.1043 129.586 10.1029 130.852 11.0407 130.852Z" fill="#FEE5DE"/>
<path d="M239.337 59.356C241.444 59.356 241.447 56.5078 239.337 56.5078C237.23 56.5075 237.227 59.356 239.337 59.356Z" fill="#FEE5DE"/>
<path d="M202.797 38.6253C204.201 38.6253 204.204 36.7266 202.797 36.7266C201.392 36.7266 201.39 38.6253 202.797 38.6253Z" fill="#FEE5DE"/>
<path d="M170.137 45.8986C171.073 45.8986 171.074 44.6328 170.137 44.6328C169.2 44.6325 169.198 45.8986 170.137 45.8986Z" fill="#FEE5DE"/>
<path d="M226.725 50.5275C227.427 50.5275 227.429 49.5781 226.725 49.5781C226.023 49.5781 226.022 50.5275 226.725 50.5275Z" fill="#FEE5DE"/>
<path d="M255.182 65.4338C255.884 65.4338 255.885 64.4844 255.182 64.4844C254.48 64.4844 254.478 65.4338 255.182 65.4338Z" fill="#FEE5DE"/>
<path d="M228.019 93.8478C228.721 93.8478 228.722 92.8984 228.019 92.8984C227.317 92.8984 227.316 93.8478 228.019 93.8478Z" fill="#FEE5DE"/>
<path d="M112.577 95.5353C113.28 95.5353 113.281 94.5859 112.577 94.5859C111.875 94.5859 111.874 95.5353 112.577 95.5353Z" fill="#FEE5DE"/>
<path d="M297.062 228.914H3.51779C2.67203 228.914 1.98633 228.229 1.98633 227.383C1.98633 226.537 2.67203 225.852 3.51779 225.852H297.062C297.907 225.852 298.593 226.537 298.593 227.383C298.593 228.229 297.908 228.914 297.062 228.914Z" fill="#18283D"/>
<path d="M173.734 74.2437C173.734 74.2437 154.551 62.155 150.181 59.7374C145.812 57.3198 131.611 46.0639 131.073 45.6091C130.536 45.1542 131.026 36.0693 129.92 36.3432C128.814 36.6175 129.91 41.0033 128.612 41.0878C127.314 41.1723 119.047 33.5467 118.715 34.3118C118.094 35.7437 123.596 39.1706 123.18 39.7845C122.763 40.398 117.764 35.6808 116.7 36.4513C115.635 37.2218 121.847 40.4804 121.774 41.0919C121.702 41.7038 115.526 38.8019 115.466 40.1381C115.433 40.8635 121.02 42.5865 120.528 43.277C120.035 43.9674 115.562 43.3077 115.605 44.1477C115.649 44.9876 119.426 44.2004 121.42 45.487C123.414 46.7732 125.514 46.684 128.092 49.6474C130.669 52.6108 138.533 64.0976 145.472 68.2563C152.412 72.415 167.72 81.6449 167.72 81.6449L173.734 74.2437Z" fill="#F7A491"/>
<path d="M195.096 77.1462C195.096 77.1462 213.603 64.0462 217.837 61.3978C222.07 58.7493 235.647 46.7485 236.159 46.2653C236.672 45.7824 235.696 36.7365 236.815 36.9512C237.934 37.1657 237.074 41.6042 238.375 41.6189C239.676 41.6336 247.522 33.5757 247.894 34.3223C248.592 35.7187 243.281 39.4359 243.729 40.0265C244.178 40.6171 248.917 35.6387 250.021 36.3507C251.126 37.0631 245.097 40.65 245.202 41.2567C245.308 41.8637 251.319 38.6349 251.451 39.966C251.522 40.6886 246.036 42.7085 246.565 43.3716C247.094 44.0348 251.525 43.136 251.527 43.9773C251.528 44.8186 247.715 44.2348 245.793 45.6261C243.87 47.0173 241.768 47.0406 239.353 50.1381C236.938 53.2352 229.702 65.1273 222.995 69.6519C216.289 74.1766 201.497 84.2139 201.497 84.2139L195.096 77.1462Z" fill="#F7A491"/>
<path d="M189.735 212.555C189.735 212.555 190.356 219.329 190.359 219.343C190.531 220.2 191.161 222.309 191.189 223.093C191.292 226.036 178.006 221.053 180.896 219.646C181.157 219.519 182.907 217.896 182.959 216.891C183.039 215.343 182.882 212.89 182.882 212.89L189.735 212.555Z" fill="#F7A491"/>
<path d="M180.927 219.616C180.927 219.616 184.033 220.409 185.616 220.578C187.198 220.748 189.208 218.781 190.339 219.253C191.377 219.687 191.766 224.26 191.867 225.776C191.885 226.043 191.681 226.271 191.414 226.284C188.617 226.415 174.472 227.022 170.723 226.078C168.85 225.606 174.715 221.933 180.927 219.616Z" fill="#2F4566"/>
<path d="M164.487 213.445C164.487 213.445 165.109 220.22 165.112 220.233C165.283 221.09 165.914 223.2 165.941 223.983C166.045 226.927 152.759 221.944 155.648 220.537C155.91 220.409 157.659 218.786 157.711 217.782C157.792 216.234 157.635 213.781 157.635 213.781L164.487 213.445Z" fill="#F7A491"/>
<path d="M155.68 220.507C155.68 220.507 158.786 221.299 160.368 221.469C161.951 221.639 163.96 219.671 165.092 220.144C166.133 220.579 166.471 224.437 166.554 225.691C166.569 225.909 166.404 226.095 166.187 226.109C163.747 226.262 150.55 227.035 146.774 226.084C144.901 225.612 149.468 222.824 155.68 220.507Z" fill="#2F4566"/>
<path d="M182.919 126.313C182.919 126.313 164.732 174.214 164.147 178.494C163.72 181.616 165.652 216.906 165.652 216.906L156.266 217.084L151.56 176.858L162.123 125.547L182.919 126.313Z" fill="#C6C6C6"/>
<path d="M191.714 128.222L184.511 180.968L191.648 215.837L180.965 216.211L171.253 178.786L168.65 137.494L172.512 124.039L191.714 128.222Z" fill="#C6C6C6"/>
<path d="M169.543 70.4504C166.647 68.6979 163.11 69.7458 162.294 73.0303C161.544 76.0496 162.549 80.7567 164.981 82.6965C166.834 84.1748 168.472 85.7872 168.333 86.7854C168.106 88.4186 164.064 111.212 161.907 123.348C161.263 126.978 160.94 128.793 161.84 130.366C162.741 131.939 164.362 132.541 167.605 133.745C172.006 135.378 177.861 137.212 183.326 137.844C186.196 138.176 187.631 138.342 189.236 137.116C190.841 135.889 191.107 134.133 191.64 130.619C193.669 117.237 198.015 89.6648 199.633 87.9294C200.589 86.9037 202.468 85.5868 204.254 84.4432C206.574 82.9579 207.974 80.8968 206.671 78.4699C204.956 75.2764 199.289 72.3029 196.121 74.0659C193.044 75.779 189.895 77.66 188.959 78.6639C187.332 80.4092 184.304 79.079 182.716 78.3276C182.194 78.081 181.933 77.9576 181.818 77.8955C181.703 77.8334 181.51 77.7164 181.126 77.4823C179.165 76.2895 173.83 73.0455 169.543 70.4504Z" fill="url(#paint0_linear_614_51723)"/>
<path d="M187.008 69.1007L188.901 78.7464C188.901 78.7464 185.068 85.6658 181.775 84.7694C179.011 84.0174 179.059 78.6586 179.059 78.6586C179.059 78.6586 180.355 73.0706 179.811 70.3158C179.267 67.5613 187.008 69.1007 187.008 69.1007Z" fill="#F7A491"/>
<path d="M179.812 70.316C179.268 67.5615 187.008 69.1005 187.008 69.1005L187.16 69.9076C186.954 70.4582 186.696 70.9326 186.375 71.3006C184.725 73.1939 182.083 74.3888 179.769 74.5533C179.948 73.0513 180.035 71.4456 179.812 70.316Z" fill="#F47458"/>
<path d="M187.782 55.2184C187.996 55.1325 189.911 66.3012 187.131 69.4904C184.35 72.6792 178.758 73.8871 176.654 71.526C174.327 68.9141 174.017 56.849 178.396 53.5156C182.776 50.1814 187.782 55.2184 187.782 55.2184Z" fill="#F7A491"/>
<path d="M194.058 54.8251C196.748 59.3214 193.708 64.817 190.627 67.3601C187.546 69.9029 187.71 72.7158 187.71 72.7158L187.137 71.275C186.729 70.1871 186.537 69.0253 186.62 67.8663C186.67 67.1706 186.793 66.4165 187.061 65.7907C187.765 64.1398 185.33 63.145 184.61 61.8173C184.056 60.7951 184.648 56.4048 180.288 55.819C179.001 55.6459 176.423 56.1627 176.423 56.1627C173.796 56.4859 170.396 50.0922 176.091 48.5792C179.768 46.8712 189.332 46.9246 194.058 54.8251Z" fill="#18283D"/>
<path d="M184.828 63.8114C184.853 65.1814 185.519 66.2803 186.315 66.2659C187.111 66.2515 187.737 65.1291 187.712 63.7594C187.687 62.3893 187.021 61.2905 186.225 61.3048C185.428 61.3192 184.803 62.4413 184.828 63.8114Z" fill="#F7A491"/>
<path d="M77.4456 126.032C77.4456 126.032 91.7655 162.951 91.8602 168.541C91.9416 173.333 89.8123 195.097 90.5603 217.487C90.5873 218.295 91.6113 219.37 93.1014 220.053C93.9399 220.437 97.8931 222.375 97.8931 222.375L98.546 223.694L84.5989 222.701L84.314 219.467L84.4002 218.893C84.4002 218.893 78.2979 190.522 78.8639 181.049C78.9528 179.561 79.6761 170.653 79.6761 170.653L60.9653 138.363L74.0044 119.289L77.4456 126.032Z" fill="#FFA97A"/>
<path d="M84.1815 225.841H102.478C103.13 225.782 103.298 224.961 102.931 224.593C102.355 224.018 100.204 223.436 97.893 222.373C93.8403 222.794 84.9541 220.389 84.3142 219.461C83.9455 221.32 83.8193 225.761 84.1815 225.841Z" fill="#35130D"/>
<path d="M27.9256 154.651C28.4735 155.218 31.399 161.871 33.5604 166.572C35.6859 165.322 36.7379 163.795 39.095 162.982C37.3368 160.266 33.9452 153.757 33.6965 152.225C33.1066 148.589 32.3019 148.031 32.3019 148.031C32.3019 148.031 20.061 151.765 19.2186 152.889C18.377 154.014 25.7276 152.374 27.9256 154.651Z" fill="#FFA97A"/>
<path d="M33.8136 153.027C34.7538 153.058 33.8605 148.779 33.6744 147.793C33.4651 146.685 32.8379 146.336 32.6802 146.292C32.2534 146.173 18.649 150.322 16.3244 151.889C16.1671 151.995 15.8802 152.337 15.8354 152.415C14.5187 154.703 25.6077 155.48 27.2359 154.512C28.684 153.651 29.5855 152.888 33.8136 153.027Z" fill="#35130D"/>
<path d="M81.2141 121.877L64.6781 117.398C64.7373 117.427 65.6853 128.027 65.6723 128.072C64.0926 133.527 56.623 131.178 53.2252 140.633C50.8254 147.313 46.8455 172.448 46.8455 172.448C46.8455 172.448 43.3353 168.018 37.0691 159.51C36.5791 158.844 31.3984 161.732 31.3984 161.732C37.2097 175.887 47.3808 189.274 49.1301 188.535C60.95 183.538 77.7941 141.734 77.7764 141.736C79.1796 139.195 81.2141 121.877 81.2141 121.877Z" fill="#FFA97A"/>
<path d="M57.0403 94.9975C57.0403 94.9975 38.1369 94.8973 33.9785 95.1121C29.8208 95.3269 14.8108 93.6203 14.2297 93.5348C13.6483 93.4496 9.9913 86.8053 9.32919 87.4865C8.66742 88.1678 11.3764 90.7882 10.4951 91.4202C9.61339 92.0519 0.402653 90.2991 0.504569 90.9869C0.696089 92.2742 6.10106 92.2745 6.07643 92.8921C6.05181 93.5101 0.435485 92.3747 0.0209808 93.3894C-0.392497 94.4041 5.43997 93.9722 5.65782 94.437C5.8767 94.9014 0.226185 95.5703 0.773385 96.542C1.07024 97.0697 5.78265 95.8269 5.73888 96.5324C5.6951 97.2386 2.23781 98.7427 2.63898 99.3183C3.04049 99.8936 5.36577 97.6716 7.34424 97.7027C9.32271 97.7345 10.7694 96.7455 13.8993 97.7065C17.03 98.6678 27.6573 103.331 34.4016 103.216C41.1451 103.1 56.0474 102.885 56.0474 102.885L57.0403 94.9975Z" fill="#FFA97A"/>
<path d="M81.2144 93.4763C81.2144 93.4763 88.2982 75.9499 90.0752 72.1848C91.8526 68.4197 95.972 53.8857 96.1136 53.3156C96.2555 52.7455 91.4966 46.8399 92.3786 46.4859C93.26 46.1323 94.656 49.6333 95.5753 49.0577C96.4946 48.4818 98.3698 39.2953 98.9669 39.6507C100.085 40.3165 98.0336 45.3169 98.6143 45.529C99.1954 45.741 100.277 40.1141 101.373 40.1158C102.469 40.1185 99.8551 45.3504 100.203 45.7284C100.549 46.1069 103.313 41.1336 104.004 42.0088C104.38 42.4838 101.441 46.3713 102.11 46.5988C102.78 46.8265 105.484 44.1993 105.864 44.7889C106.244 45.3785 103.306 46.6863 102.584 48.5287C101.862 50.371 100.397 51.3341 100.099 54.5944C99.7997 57.8557 100.079 69.4577 97.4122 75.653C94.7449 81.848 88.8885 95.5526 88.8885 95.5526L81.2144 93.4763Z" fill="#FFA97A"/>
<path d="M31.053 76.6107C29.9562 86.7439 40.881 88.7723 40.881 88.7723C41.1444 88.9344 41.7203 90.1379 42.4081 90.9056C45.3222 94.1594 49.836 96.5247 54.0921 95.2805C58.9089 99.7775 67.3299 98.4694 70.0779 93.747C74.6487 93.7333 76.5229 90.2764 77.5715 85.8875C81.7394 81.6511 78.6963 73.751 73.6385 70.8939C71.0745 69.4455 67.8272 69.0844 64.9312 69.9017C61.6965 65.8046 55.9365 64.7618 51.1349 67.1931C43.802 58.7891 32.2007 66.0053 31.053 76.6107Z" fill="#18283D"/>
<path d="M80.0612 130.579C88.8707 140.773 99.1615 166.429 99.7532 192.184C62.1137 209.89 40.1706 170.479 40.0752 162.014C46.0164 159.989 46.4186 157.138 48.4309 146.289C50.4429 135.44 61.6113 126.562 65.506 126.102C75.0324 132.52 80.0612 130.579 80.0612 130.579Z" fill="#C6C6C6"/>
<path d="M85.636 112.584C85.8757 110.465 85.5905 107.276 85.3503 105.132C85.2292 104.05 85.1686 103.51 85.2971 102.793C85.4256 102.077 85.5937 101.743 85.9298 101.076C86.3996 100.143 86.9719 99.1724 87.5534 98.2478C88.2373 97.1603 88.5793 96.6165 88.7722 95.8339C89.063 94.6546 88.757 92.8889 88.0863 91.8762C87.6413 91.2042 87.5622 91.142 87.4041 91.0178C86.559 90.3535 86.1365 90.0213 85.4047 89.7489C84.4217 89.383 82.4549 89.4703 81.5082 89.9217C80.8033 90.2579 80.3571 90.6776 79.4647 91.5171C78.729 92.2092 77.9317 92.8954 77.1583 93.4398C76.4008 93.973 75.4683 94.5861 74.5425 94.5503C73.4609 94.51 71.2731 94.3923 68.9491 94.2995C65.7623 94.1721 64.169 94.1084 62.6216 95.653C61.0742 97.1976 61.1396 98.9136 61.2706 102.346L61.4171 106.189C61.4366 106.7 61.3879 105.422 61.3913 105.479C61.3948 105.535 61.5477 107.365 61.8535 111.024C62.1067 114.054 62.3524 118.918 63.0479 119.898C64.0264 121.276 81.8114 125.292 83.1856 122.71C83.4776 122.161 84.9253 118.866 85.636 112.584Z" fill="url(#paint1_linear_614_51723)"/>
<path d="M63.4327 101.714C64.0413 99.9091 64.3456 99.0067 63.8457 97.4427C63.6216 96.7416 62.8401 95.5847 62.2733 95.115C61.009 94.0673 59.9495 94.0065 57.8306 93.8848C55.7078 93.7629 54.6464 93.7019 53.4263 94.3362C52.7962 94.6637 52.0401 95.3272 51.6335 95.9094C50.8461 97.0367 50.7675 98.1124 50.6103 100.264C50.5753 100.742 50.5579 100.981 51.1158 102.167C51.2851 102.527 52.0517 103.543 52.3511 103.804C53.3383 104.666 53.7959 104.762 54.7113 104.952C57.8535 105.606 61.8263 106.547 61.6196 107.091L63.4327 101.714Z" fill="url(#paint2_linear_614_51723)"/>
<path d="M68.6899 89.1193C68.6899 89.1193 69.4957 94.0875 69.2457 96.0294C68.9957 97.9723 69.7255 104.279 73.8487 104.424C77.9722 104.569 74.8723 96.4651 74.5422 94.5441C74.2115 92.6238 74.2977 86.7109 74.2977 86.7109L68.6899 89.1193Z" fill="#FFA97A"/>
<path d="M74.2936 89.6785C74.2782 88.0598 74.2977 86.7109 74.2977 86.7109L68.6899 89.1196C68.6899 89.1196 68.8548 90.1354 69.0121 91.4285C71.4174 91.9876 73.1989 91.1446 74.2936 89.6785Z" fill="#F47458"/>
<path d="M67.0803 75.4279C67.0803 75.4279 64.9141 76.5459 64.0574 79.0845C63.201 81.6232 63.8881 88.2621 69.3444 90.0231C74.8006 91.7847 77.3431 86.6215 76.3331 82.4946C75.3229 78.3666 73.014 73.1091 67.0803 75.4279Z" fill="#FFA97A"/>
<path d="M77.0694 80.9281C76.9288 82.0239 76.2964 82.8461 75.6579 82.764C75.0191 82.6816 74.6162 81.7264 74.7571 80.6303C74.898 79.5338 75.53 78.7123 76.1682 78.7948C76.8077 78.8768 77.2106 79.8317 77.0694 80.9281Z" fill="#FFA97A"/>
<path d="M67.7361 75.1172C67.7361 75.1172 66.5159 82.4626 64.0907 83.7212C61.6656 84.9798 62.5654 88.2825 62.5654 88.2825C62.5654 88.2825 60.6324 80.6199 62.5911 78.2369C64.55 75.8535 67.7361 75.1172 67.7361 75.1172Z" fill="#35130D"/>
<path d="M65.4703 84.8231C66.0887 85.8032 66.0517 86.9362 65.389 87.3538C64.7262 87.7714 63.6882 87.3152 63.0709 86.3343C62.4529 85.3545 62.4898 84.2208 63.1523 83.8032C63.8147 83.3856 64.853 83.8422 65.4703 84.8231Z" fill="#FFA97A"/>
<path d="M251.186 201.158H249.885V196.861C249.885 196.502 250.176 196.211 250.535 196.211C250.894 196.211 251.186 196.502 251.186 196.861V201.158Z" fill="#2F4566"/>
<path d="M228.659 224.4C228.659 225.256 227.977 225.949 227.135 225.949C226.294 225.949 225.612 225.256 225.612 224.4C225.612 223.545 226.294 222.852 227.135 222.852C227.977 222.852 228.659 223.545 228.659 224.4Z" fill="#2F4566"/>
<path d="M239.845 224.4C239.845 225.256 239.163 225.949 238.321 225.949C237.48 225.949 236.798 225.256 236.798 224.4C236.798 223.545 237.48 222.852 238.321 222.852C239.163 222.852 239.845 223.545 239.845 224.4Z" fill="#2F4566"/>
<path d="M256.549 224.4C256.549 225.256 255.867 225.949 255.025 225.949C254.184 225.949 253.501 225.256 253.501 224.4C253.501 223.545 254.184 222.852 255.025 222.852C255.866 222.852 256.549 223.545 256.549 224.4Z" fill="#2F4566"/>
<path d="M278.26 224.4C278.26 225.256 277.578 225.949 276.736 225.949C275.895 225.949 275.213 225.256 275.213 224.4C275.213 223.545 275.895 222.852 276.736 222.852C277.578 222.852 278.26 223.545 278.26 224.4Z" fill="#2F4566"/>
<path d="M252.644 200.07H248.686C248.158 200.594 247.829 201.324 247.829 202.134C247.829 203.726 249.099 205.017 250.665 205.017C252.232 205.017 253.501 203.726 253.501 202.134C253.501 201.324 253.172 200.594 252.644 200.07Z" fill="#2F4566"/>
<path d="M271.586 194.011C271.6 193.906 271.628 193.809 271.663 193.716C270.958 193.202 270.431 192.428 269.826 191.781C269.684 192.138 269.588 192.541 269.552 192.996C269.274 196.503 272.749 200.212 272.875 205.868C273.001 211.571 268.844 216.024 263.631 213.674C261.712 212.809 259.426 213.521 259.149 216.008C258.731 219.759 264.125 220.946 267.435 219.862C274.131 217.669 278.187 210.177 276.025 202.638C274.95 198.887 271.32 196.021 271.586 194.011Z" fill="#2F4566"/>
<path d="M278.922 220.86H225.63L222.408 202.555H278.922V220.86Z" fill="#18283D"/>
<path d="M222.408 202.555L225.63 220.86H254.894L258.381 202.555H222.408Z" fill="#C6C6C6"/>
<path d="M280.535 201.711H219.962V202.557H280.535V201.711Z" fill="#18283D"/>
<path d="M280.535 220.859H219.962V221.706H280.535V220.859Z" fill="#18283D"/>
<path d="M280.535 221.711H219.962V224.981H280.535V221.711Z" fill="#18283D"/>
<path d="M280.535 221.711H253.057V224.981H280.535V221.711Z" fill="#18283D"/>
<path d="M280.535 200.922H219.962V201.716H280.535V200.922Z" fill="#D1E2F4"/>
<path d="M276.736 197.953H224.646V199.891H276.736V197.953Z" fill="#18283D"/>
<path d="M275.926 165.102C268.52 160.877 255.211 152.902 244.412 141.588C233.613 130.274 234.95 114.516 234.95 114.516C225.205 115.336 222.682 135.906 222.682 135.906C211.024 142.287 215.113 160.274 215.113 160.274C215.113 160.274 213.547 161.732 211.197 169.389C208.848 177.046 210.619 184.997 210.619 184.997C218.697 170.547 249.192 168.892 262.53 170.027C275.721 171.149 283.946 173.06 284.455 180.581C284.957 188.013 271.32 190.965 271.066 191.018C271.455 191.397 271.421 192.224 271.647 192.78C272.984 192.567 289.074 191.018 287.761 178.777C287.013 171.803 281.947 168.537 275.926 165.102Z" fill="#0B91BE"/>
<path d="M271.949 192.368C271.949 194.491 270.256 196.212 268.167 196.212C266.079 196.212 264.386 194.491 264.386 192.368C264.386 190.244 266.079 188.523 268.167 188.523C270.256 188.523 271.949 190.244 271.949 192.368Z" fill="#2F4566"/>
<path d="M267.742 195.547L268.145 197.954L268.549 195.547H267.742Z" fill="#2F4566"/>
<path d="M239.937 147.14C239.958 147.162 241.209 148.404 241.13 148.326C241.151 148.345 242.454 149.535 242.373 149.462C242.816 149.8 245.643 152.445 250.665 155.28C244.421 152.177 240.42 148.553 240.71 148.791C240.689 148.771 239.35 147.574 239.435 147.651C228.876 137.544 229.338 128.082 229.201 127.46C229.198 126.932 229.624 126.502 230.151 126.5C230.704 126.497 231.143 126.962 231.109 127.515C230.816 132.299 233.294 140.071 239.937 147.14Z" fill="white"/>
<path d="M252.529 158.545L220.35 147.641C219.155 147.235 219.766 145.426 220.963 145.832C220.979 145.838 219.634 145.296 252.529 158.545Z" fill="white"/>
<path d="M238.648 162.573C246.92 161.615 251.891 162.753 253.501 162.982C251.666 162.849 245.036 161.52 233.937 164.3C223.254 167.009 215.718 172.004 215.942 171.859C214.88 172.543 213.845 170.938 214.908 170.254C214.92 170.246 229.765 163.567 238.648 162.573Z" fill="white"/>
<path d="M86.3787 34.6307C84.8109 33.9741 82.9467 33.591 80.9634 33.5698C79.1238 30.7955 74.8351 28.9436 69.961 28.9436C67.0358 28.9436 64.2622 29.631 62.1233 30.8099C59.743 27.3625 54.2765 24.9531 48.0822 24.9531C44.0134 24.9531 40.1539 25.9713 37.2935 27.7736C36.8841 27.7326 36.4703 27.7117 36.0561 27.7117C31.6238 27.7117 28.0181 29.997 28.0181 32.8061C28.0181 33.4371 28.2024 34.0537 28.5533 34.6307H86.3787Z" fill="#D9E4F2"/>
<path d="M144.87 7.83145C143.678 7.29999 142.261 6.99013 140.752 6.97303C139.354 4.7278 136.093 3.22915 132.387 3.22915C130.163 3.22915 128.054 3.7856 126.428 4.73978C124.618 1.94975 120.462 0 115.752 0C112.659 0 109.725 0.823861 107.55 2.28249C107.239 2.24932 106.924 2.23223 106.609 2.23223C103.239 2.23223 100.498 4.08176 100.498 6.35503C100.498 6.86564 100.638 7.36496 100.905 7.83179L144.87 7.83145Z" fill="#D9E4F2"/>
<path d="M235.5 25.6417C233.644 24.8141 231.437 24.3315 229.088 24.3048C226.91 20.8082 221.832 18.4744 216.06 18.4744C212.597 18.4744 209.313 19.3411 206.78 20.8267C203.962 16.4819 197.489 13.4453 190.155 13.4453C185.337 13.4453 180.768 14.7285 177.381 16.9997C176.896 16.9477 176.406 16.9217 175.915 16.9217C170.667 16.9217 166.398 19.8021 166.398 23.3425C166.398 24.1376 166.616 24.915 167.032 25.6421H235.5V25.6417Z" fill="#D9E4F2"/>
<defs>
<linearGradient id="paint0_linear_614_51723" x1="142.32" y1="18.3706" x2="263.884" y2="24.4212" gradientUnits="userSpaceOnUse">
<stop stop-color="#00AEBD"/>
<stop offset="1" stop-color="#1D5BBF"/>
</linearGradient>
<linearGradient id="paint1_linear_614_51723" x1="50.1612" y1="64.269" x2="124.093" y2="68.7932" gradientUnits="userSpaceOnUse">
<stop stop-color="#00AEBD"/>
<stop offset="1" stop-color="#1D5BBF"/>
</linearGradient>
<linearGradient id="paint2_linear_614_51723" x1="44.9909" y1="84.4308" x2="82.9429" y2="87.5595" gradientUnits="userSpaceOnUse">
<stop stop-color="#00AEBD"/>
<stop offset="1" stop-color="#1D5BBF"/>
</linearGradient>
</defs>
</svg>
