<svg width="46" height="36" viewBox="0 0 46 36" fill="none" xmlns="http://www.w3.org/2000/svg">
<path d="M4.13483 32.3034C1.55056 29.4607 0 26.3596 0 21.191C0 12.1461 6.46068 4.13483 15.5056 0L17.8315 3.35955C9.30337 8.01124 7.49438 13.9551 6.97753 17.8315C8.26966 17.0562 10.0787 16.7978 11.8876 17.0562C16.5393 17.573 20.1573 21.191 20.1573 26.1011C20.1573 28.427 19.1236 30.7528 17.573 32.5618C15.764 34.3708 13.6966 35.1461 11.1124 35.1461C8.26966 35.1461 5.68539 33.8539 4.13483 32.3034ZM29.9775 32.3034C27.3933 29.4607 25.8427 26.3596 25.8427 21.191C25.8427 12.1461 32.3034 4.13483 41.3483 0L43.6742 3.35955C35.1461 8.01124 33.3371 13.9551 32.8202 17.8315C34.1124 17.0562 35.9214 16.7978 37.7303 17.0562C42.382 17.573 46 21.191 46 26.1011C46 28.427 44.9663 30.7528 43.4157 32.5618C41.8652 34.3708 39.5393 35.1461 36.9551 35.1461C34.1124 35.1461 31.5281 33.8539 29.9775 32.3034Z" fill="#1D5BBF" style="fill:#1D5BBF;fill:color(display-p3 0.1137 0.3569 0.7490);fill-opacity:1;"/>
</svg>
