<svg xmlns="http://www.w3.org/2000/svg" width="20" height="20" viewBox="0 0 20 20" fill="none">
<path d="M13.5707 7.47143L11.0064 10L13.5707 12.5286C13.6421 12.5954 13.699 12.6761 13.7378 12.7658C13.7767 12.8555 13.7968 12.9522 13.7968 13.05C13.7968 13.1478 13.7767 13.2445 13.7378 13.3342C13.699 13.4239 13.6421 13.5046 13.5707 13.5714C13.504 13.6376 13.4248 13.69 13.3378 13.7255C13.2507 13.7611 13.1576 13.7791 13.0636 13.7786C12.8762 13.7778 12.6966 13.7034 12.5636 13.5714L9.99927 11.0071L7.4707 13.5714C7.33766 13.7034 7.15809 13.7778 6.9707 13.7786C6.8767 13.7791 6.78351 13.7611 6.69649 13.7255C6.60946 13.69 6.5303 13.6376 6.46356 13.5714C6.33052 13.4376 6.25585 13.2566 6.25585 13.0679C6.25585 12.8792 6.33052 12.6981 6.46356 12.5643L8.99213 10L6.46356 7.47143C6.34654 7.33479 6.2854 7.15902 6.29234 6.97925C6.29928 6.79948 6.37381 6.62895 6.50102 6.50174C6.62823 6.37453 6.79875 6.30001 6.97852 6.29307C7.15829 6.28612 7.33406 6.34727 7.4707 6.46429L9.99927 8.99286L12.5278 6.46429C12.594 6.39581 12.6729 6.34103 12.7602 6.30308C12.8475 6.26512 12.9415 6.24473 13.0366 6.24307C13.1318 6.24142 13.2264 6.25852 13.315 6.29341C13.4035 6.3283 13.4844 6.3803 13.5528 6.44643C13.6213 6.51256 13.6761 6.59153 13.7141 6.67883C13.752 6.76613 13.7724 6.86005 13.7741 6.95523C13.7757 7.05041 13.7586 7.14499 13.7237 7.23356C13.6888 7.32212 13.6368 7.40296 13.5707 7.47143ZM17.0707 17.0714C15.6721 18.4698 13.8903 19.4222 11.9505 19.8079C10.0107 20.1937 8.00013 19.9956 6.17293 19.2387C4.34573 18.4818 2.784 17.2001 1.68523 15.5556C0.586464 13.9111 0 11.9778 0 10C0 8.02223 0.586464 6.08887 1.68523 4.44441C2.784 2.79994 4.34573 1.51821 6.17293 0.761307C8.00013 0.00440052 10.0107 -0.193692 11.9505 0.192077C13.8903 0.577846 15.6721 1.53015 17.0707 2.92857C17.9994 3.85717 18.7361 4.95961 19.2387 6.17293C19.7413 7.38625 20 8.6867 20 10C20 11.3133 19.7413 12.6137 19.2387 13.8271C18.7361 15.0404 17.9994 16.1428 17.0707 17.0714ZM16.0636 3.93572C14.8636 2.73996 13.3363 1.92656 11.6744 1.59825C10.0126 1.26993 8.29065 1.4414 6.72616 2.09103C5.16167 2.74065 3.82476 3.83929 2.88423 5.24821C1.94371 6.65713 1.44175 8.31314 1.44175 10.0071C1.44175 11.7011 1.94371 13.3572 2.88423 14.7661C3.82476 16.175 5.16167 17.2736 6.72616 17.9233C8.29065 18.5729 10.0126 18.7444 11.6744 18.416C13.3363 18.0877 14.8636 17.2743 16.0636 16.0786C16.8626 15.2823 17.4967 14.336 17.9293 13.2942C18.3619 12.2523 18.5846 11.1353 18.5846 10.0071C18.5846 8.87902 18.3619 7.762 17.9293 6.72013C17.4967 5.67826 16.8626 4.73203 16.0636 3.93572Z" fill="#18283D"/>
</svg>