<svg width="21" height="21" viewBox="0 0 21 21" fill="none" xmlns="http://www.w3.org/2000/svg">
<path d="M17.5769 2.94651C15.7016 1.07115 13.158 0.0175781 10.5059 0.0175781C7.85369 0.0175781 5.31016 1.07115 3.43479 2.94651C1.55943 4.82187 0.505859 7.36541 0.505859 10.0176C0.505859 12.6697 1.55943 15.2133 3.43479 17.0886C5.31016 18.964 7.85369 20.0176 10.5059 20.0176C13.158 20.0176 15.7016 18.964 17.5769 17.0886C19.4523 15.2133 20.5059 12.6697 20.5059 10.0176C20.5059 7.36541 19.4523 4.82187 17.5769 2.94651ZM16.5698 16.0816C15.37 17.2773 13.8427 18.0906 12.1809 18.4189C10.5191 18.7472 8.79732 18.5757 7.23291 17.9261C5.6685 17.2766 4.33165 16.178 3.39118 14.7691C2.4507 13.3603 1.94877 11.7044 1.94877 10.0104C1.94877 8.31652 2.4507 6.66059 3.39118 5.25174C4.33165 3.84289 5.6685 2.74431 7.23291 2.09472C8.79732 1.44513 10.5191 1.27366 12.1809 1.60196C13.8427 1.93027 15.37 2.74362 16.5698 3.93932C17.3689 4.73559 18.0029 5.68177 18.4355 6.72359C18.8681 7.76541 19.0908 8.88237 19.0908 10.0104C19.0908 11.1385 18.8681 12.2555 18.4355 13.2973C18.0029 14.3391 17.3689 15.2853 16.5698 16.0816ZM13.5343 7.99625L11.513 10.0176L13.5343 12.0389C13.6673 12.1727 13.742 12.3538 13.742 12.5424C13.742 12.7311 13.6673 12.9122 13.5343 13.046C13.4005 13.179 13.2194 13.2537 13.0307 13.2537C12.842 13.2537 12.661 13.179 12.5272 13.046L10.5059 11.0247L8.48453 13.046C8.35071 13.179 8.16968 13.2537 7.98099 13.2537C7.79229 13.2537 7.61127 13.179 7.47744 13.046C7.34441 12.9122 7.26974 12.7311 7.26974 12.5424C7.26974 12.3538 7.34441 12.1727 7.47744 12.0389L9.49877 10.0176L7.47744 7.99625C7.36043 7.85962 7.29929 7.68386 7.30623 7.5041C7.31317 7.32434 7.38769 7.15382 7.5149 7.02661C7.6421 6.89941 7.81262 6.82489 7.99238 6.81795C8.17214 6.811 8.3479 6.87215 8.48453 6.98916L10.5059 9.01049L12.5272 6.98916C12.6638 6.87215 12.8396 6.811 13.0193 6.81795C13.1991 6.82489 13.3696 6.89941 13.4968 7.02661C13.624 7.15382 13.6985 7.32434 13.7055 7.5041C13.7124 7.68386 13.6513 7.85962 13.5343 7.99625Z" fill="#18283D"/>
</svg>
