<svg width="50" height="50" viewBox="0 0 50 50" fill="none" xmlns="http://www.w3.org/2000/svg">
<circle cx="25" cy="25" r="25" fill="#FFE7E7"/>
<path d="M32.253 20.5898C32.9584 19.8412 33.3567 18.8575 33.3567 17.8114C33.3567 15.5705 31.5284 13.7422 29.2875 13.7422C27.0465 13.7422 25.2183 15.5657 25.2183 17.8114C25.2183 18.8623 25.6165 19.846 26.3267 20.5946C25.8421 20.8202 25.3862 21.1033 24.9687 21.4392C25.1079 20.9737 25.1847 20.4842 25.1847 19.9804C25.1799 17.1924 22.9101 14.9226 20.1221 14.9226C17.3341 14.9226 15.0692 17.1924 15.0692 19.9756C15.0692 21.3288 15.597 22.5956 16.5376 23.5362C13.5672 24.8462 11.6094 27.7973 11.6094 31.0796C11.6094 31.6794 11.6766 32.2889 11.8109 32.8935C12.2092 34.669 13.7592 35.907 15.573 35.907H24.6712C25.4822 35.907 26.274 35.6479 26.9362 35.1632C27.7807 35.8686 28.8412 36.2573 29.9593 36.2573C32.5745 36.2573 34.7003 34.1315 34.7003 31.5163C34.7003 31.0028 34.614 30.5038 34.4556 30.0239C34.5852 29.9471 34.7099 29.8656 34.8203 29.7744C35.3721 29.3329 35.7608 28.7091 35.9144 28.0181C36.6054 24.9566 35.0458 21.8711 32.253 20.5898ZM25.9812 17.8114C25.9812 15.9879 27.464 14.51 29.2827 14.51C31.1062 14.51 32.5889 15.9927 32.5889 17.8114C32.5889 18.8383 32.1235 19.7884 31.3125 20.4171C30.7271 20.8729 30.0265 21.1129 29.2827 21.1129C29.0955 21.1129 28.9132 21.0985 28.7356 21.0697C28.4573 21.0217 28.1934 20.9401 27.9391 20.8298C27.6991 20.7242 27.4688 20.585 27.2577 20.4219C26.4467 19.7884 25.9812 18.8383 25.9812 17.8114ZM15.8322 19.9756C15.8322 17.6099 17.7564 15.6904 20.1221 15.6904C22.4878 15.6904 24.4121 17.6147 24.4121 19.9804C24.4121 21.3144 23.8075 22.5477 22.7566 23.3682C21.9984 23.9585 21.0866 24.2704 20.1221 24.2704C19.8822 24.2704 19.6423 24.2512 19.4119 24.2128C19.2488 24.184 19.0856 24.1456 18.9225 24.0976C18.7353 24.0448 18.553 23.9776 18.3754 23.9009C18.0635 23.7617 17.766 23.5842 17.4877 23.3682C16.4368 22.5429 15.8322 21.3096 15.8322 19.9756ZM24.6712 35.1392H15.573C14.1143 35.1392 12.8762 34.1459 12.5547 32.7255C12.4347 32.1785 12.3724 31.6218 12.3724 31.0796C12.3724 27.9797 14.3014 25.1965 17.1902 24.0976C17.219 24.1216 17.2526 24.136 17.2813 24.16C17.3341 24.1936 17.3821 24.2272 17.4349 24.2608C17.4973 24.2992 17.5597 24.3375 17.6268 24.3759C17.6796 24.4047 17.7324 24.4383 17.7852 24.4623C17.8524 24.4959 17.9196 24.5295 17.9867 24.5583C18.0395 24.5823 18.0971 24.6111 18.1499 24.6351C18.2171 24.6638 18.2891 24.6926 18.361 24.7166C18.4186 24.7358 18.4714 24.7598 18.529 24.779C18.601 24.803 18.6777 24.8222 18.7497 24.8462C18.8025 24.8606 18.8601 24.8798 18.9129 24.8942C18.9897 24.9134 19.0712 24.9278 19.148 24.9422C19.2008 24.9518 19.2536 24.9662 19.3064 24.971C19.3927 24.9854 19.4839 24.995 19.5751 25.0045C19.6183 25.0093 19.6663 25.0189 19.7094 25.0189C19.8438 25.0285 19.983 25.0333 20.1173 25.0333C20.2565 25.0333 20.3908 25.0285 20.5252 25.0189C20.5684 25.0141 20.6164 25.0093 20.6596 25.0045C20.7507 24.995 20.8419 24.9854 20.9283 24.971C20.9811 24.9614 21.0339 24.9518 21.0866 24.9422C21.1682 24.9278 21.245 24.9134 21.3266 24.8942C21.3842 24.8798 21.4369 24.8654 21.4897 24.8462C21.5617 24.827 21.6385 24.803 21.7105 24.779C21.7681 24.7598 21.8208 24.7406 21.8784 24.7166C21.9504 24.6926 22.0176 24.6638 22.0896 24.6351C22.1471 24.6111 22.1999 24.5871 22.2527 24.5583C22.3199 24.5247 22.3871 24.4959 22.4543 24.4623C22.507 24.4335 22.5598 24.4047 22.6126 24.3759C22.675 24.3375 22.7422 24.304 22.8046 24.2608C22.8573 24.2272 22.9101 24.1936 22.9581 24.16C22.9869 24.1408 23.0205 24.1216 23.0493 24.0976C23.1501 24.136 23.246 24.1744 23.342 24.2176C23.5531 24.3087 23.7547 24.4047 23.9514 24.5151C24.0186 24.5535 24.081 24.5919 24.1482 24.6303C24.2777 24.707 24.4073 24.779 24.5321 24.8606C24.6088 24.9086 24.676 24.9662 24.748 25.0189C24.8584 25.0957 24.9687 25.1773 25.0695 25.2589C25.1415 25.3165 25.2135 25.3836 25.2854 25.446C25.3814 25.5324 25.4822 25.614 25.5734 25.7051C25.6453 25.7723 25.7077 25.8443 25.7797 25.9163C25.8661 26.0075 25.9524 26.0986 26.0388 26.1946C26.106 26.2714 26.1636 26.3482 26.226 26.4249C26.3027 26.5209 26.3795 26.6217 26.4563 26.7225C26.5139 26.804 26.5715 26.8904 26.6243 26.972C26.6914 27.0776 26.7586 27.1831 26.8258 27.2887C26.8786 27.3751 26.9266 27.4662 26.9746 27.5574C27.0081 27.6198 27.0369 27.6822 27.0705 27.7494C27.0225 27.7829 26.9794 27.8213 26.9362 27.8597C26.9122 27.8789 26.893 27.8933 26.869 27.9125C26.797 27.9749 26.725 28.0373 26.6578 28.1045C26.6435 28.1189 26.6291 28.1332 26.6195 28.1476C26.5667 28.2004 26.5139 28.2532 26.4611 28.3108C26.4371 28.3348 26.4131 28.3636 26.3891 28.3924C26.3507 28.4356 26.3123 28.4788 26.274 28.5267C26.25 28.5555 26.226 28.5891 26.202 28.6227C26.1684 28.6659 26.1348 28.7091 26.106 28.7523C26.082 28.7859 26.058 28.8195 26.034 28.853C26.0052 28.8962 25.9764 28.9394 25.9476 28.9826C25.9237 29.0162 25.9045 29.0546 25.8805 29.093C25.8565 29.1362 25.8277 29.1793 25.8037 29.2273C25.7845 29.2657 25.7653 29.3041 25.7413 29.3425C25.7173 29.3857 25.6933 29.4337 25.6741 29.4769C25.6549 29.5153 25.6357 29.5536 25.6213 29.592C25.6021 29.64 25.583 29.6832 25.5638 29.7312C25.5494 29.7696 25.5302 29.8128 25.5158 29.8512C25.4966 29.8991 25.4822 29.9471 25.463 29.9951C25.4486 30.0335 25.4342 30.0767 25.4246 30.1151C25.4102 30.1631 25.3958 30.2159 25.3814 30.2638C25.3718 30.3022 25.3574 30.3454 25.3478 30.3838C25.3334 30.4366 25.3238 30.4894 25.3142 30.5422C25.3046 30.5805 25.295 30.6189 25.2902 30.6621C25.2806 30.7197 25.271 30.7725 25.2662 30.8301C25.2614 30.8685 25.2566 30.9069 25.2519 30.9452C25.2423 31.0076 25.2375 31.07 25.2327 31.1324C25.2279 31.166 25.2279 31.1948 25.2231 31.2284C25.2183 31.3243 25.2135 31.4203 25.2135 31.5163C25.2135 31.6698 25.2231 31.8186 25.2375 31.9721C25.2423 32.0201 25.2519 32.0729 25.2566 32.1209C25.271 32.2217 25.2854 32.3224 25.3046 32.4232C25.3142 32.4808 25.3286 32.5384 25.343 32.596C25.3622 32.6871 25.3862 32.7735 25.4102 32.8599C25.4294 32.9223 25.4486 32.9799 25.4678 33.0374C25.4966 33.119 25.5254 33.2054 25.559 33.287C25.583 33.3446 25.6069 33.4069 25.6357 33.4645C25.6741 33.5461 25.7125 33.6229 25.7509 33.6996C25.7797 33.7572 25.8085 33.8148 25.8421 33.8676C25.8853 33.9444 25.9333 34.0212 25.9812 34.0979C26.0148 34.1507 26.0484 34.2035 26.082 34.2515C26.1396 34.3331 26.202 34.4098 26.2644 34.4866C26.2979 34.525 26.3267 34.5682 26.3603 34.6066C26.3651 34.6114 26.3699 34.6162 26.3699 34.621C25.8805 34.9569 25.2806 35.1392 24.6712 35.1392ZM29.9641 35.4943C28.9324 35.4943 27.9583 35.1008 27.2145 34.3907C26.4323 33.6469 25.9812 32.596 25.9812 31.5163C25.9812 30.1727 26.653 28.9298 27.7711 28.1908C28.4237 27.7638 29.1819 27.5334 29.9593 27.5334C30.2616 27.5334 30.5591 27.567 30.8422 27.6342C30.9718 27.663 31.0966 27.7014 31.2213 27.7398C32.0179 28.0037 32.7137 28.5171 33.2032 29.2033C33.2607 29.2801 33.3135 29.3617 33.3615 29.4481C33.4623 29.616 33.5535 29.7936 33.6302 29.9807C33.8318 30.4654 33.9326 30.9788 33.9326 31.5115C33.9422 33.7092 32.1571 35.4943 29.9641 35.4943ZM35.1754 27.8501C35.0602 28.3732 34.7675 28.8434 34.3452 29.1793C34.2876 29.2273 34.2253 29.2705 34.1629 29.3137C34.1341 29.2561 34.1005 29.1985 34.0669 29.1458C34.0477 29.1122 34.0333 29.0786 34.0093 29.0498C33.9613 28.9682 33.9086 28.8914 33.851 28.8099C33.8414 28.7955 33.8318 28.7811 33.8222 28.7667C33.755 28.6755 33.6878 28.5843 33.6158 28.4979C33.6014 28.4788 33.5823 28.4596 33.5631 28.4404C33.5055 28.3732 33.4527 28.3108 33.3903 28.2484C33.3615 28.2196 33.3327 28.1908 33.3039 28.1668C33.2512 28.1141 33.2032 28.0661 33.1504 28.0181C33.1168 27.9893 33.0832 27.9605 33.0496 27.9317C33.0016 27.8885 32.9488 27.8453 32.8961 27.8021C32.8577 27.7734 32.8193 27.7446 32.7857 27.7158C32.7329 27.6774 32.6849 27.639 32.6321 27.6054C32.5937 27.5766 32.5506 27.5526 32.5122 27.5286C32.4594 27.495 32.4066 27.4614 32.3538 27.4327C32.3106 27.4087 32.2674 27.3847 32.2242 27.3607C32.1715 27.3319 32.1139 27.3031 32.0611 27.2743C32.0179 27.2503 31.9747 27.2311 31.9267 27.2119C31.8691 27.1879 31.8116 27.1639 31.754 27.1399C31.7108 27.1207 31.6628 27.1015 31.6148 27.0872C31.5572 27.0632 31.4949 27.044 31.4373 27.0248C31.3893 27.0104 31.3461 26.996 31.2981 26.9816C31.2357 26.9624 31.1733 26.948 31.111 26.9336C31.063 26.924 31.0198 26.9096 30.9718 26.9C30.9046 26.8856 30.8374 26.876 30.7703 26.8616C30.7271 26.852 30.6839 26.8472 30.6359 26.8376C30.5591 26.828 30.4871 26.8184 30.4104 26.8136C30.372 26.8088 30.3336 26.804 30.2952 26.804C30.18 26.7944 30.0649 26.7896 29.9497 26.7896C29.8393 26.7896 29.7338 26.7944 29.6282 26.7992C29.5946 26.7992 29.561 26.804 29.5226 26.8088C29.4506 26.8136 29.3787 26.8232 29.3067 26.8328C29.2683 26.8376 29.2251 26.8472 29.1867 26.852C29.1195 26.8616 29.0524 26.876 28.9852 26.8904C28.9468 26.9 28.9036 26.9096 28.8652 26.9144C28.798 26.9288 28.7309 26.948 28.6637 26.9672C28.6253 26.9768 28.5917 26.9864 28.5533 27.0008C28.4765 27.0248 28.3997 27.0536 28.323 27.0776C28.299 27.0871 28.275 27.0919 28.251 27.1015C28.1502 27.1399 28.0542 27.1831 27.9583 27.2263C27.9295 27.2407 27.9007 27.2551 27.8767 27.2695C27.8239 27.2983 27.7663 27.3223 27.7135 27.3511C27.7087 27.3415 27.6991 27.3319 27.6943 27.3175C27.6032 27.1447 27.512 26.9768 27.4112 26.8136C27.3968 26.7944 27.3872 26.7704 27.3728 26.7464C27.2721 26.5833 27.1617 26.4201 27.0465 26.2666C27.0225 26.2378 27.0033 26.2042 26.9794 26.1754C26.8642 26.0219 26.749 25.8731 26.6243 25.7291C26.6051 25.7051 26.5811 25.6812 26.5619 25.6572C26.4323 25.5084 26.2979 25.3644 26.154 25.2253L26.1492 25.2205C26.01 25.0813 25.8613 24.9518 25.7125 24.8222C25.6885 24.803 25.6693 24.7838 25.6453 24.7646C25.4966 24.6447 25.3478 24.5247 25.1895 24.4143C25.1607 24.3951 25.1319 24.3711 25.1031 24.3519C24.9447 24.2416 24.7816 24.136 24.6184 24.0352C24.5992 24.0208 24.5752 24.0112 24.5513 23.9968C24.3833 23.8961 24.2105 23.8049 24.0378 23.7185C24.0282 23.7137 24.0234 23.7089 24.0138 23.7041C24.6712 22.5525 25.7221 21.6455 26.9506 21.1657C26.9698 21.18 26.989 21.1896 27.0081 21.204C27.0465 21.228 27.0849 21.2568 27.1233 21.2808C27.1761 21.3144 27.2289 21.348 27.2817 21.3768C27.3201 21.4008 27.3632 21.42 27.4064 21.444C27.4592 21.4728 27.5168 21.4968 27.5696 21.5255C27.6128 21.5447 27.656 21.5639 27.6991 21.5831C27.7567 21.6071 27.8143 21.6311 27.8719 21.6503C27.9151 21.6647 27.9583 21.6839 28.0015 21.6983C28.059 21.7175 28.1214 21.7367 28.179 21.7511C28.2222 21.7607 28.2654 21.7751 28.3086 21.7847C28.371 21.7991 28.4381 21.8135 28.5005 21.8231C28.5437 21.8327 28.5821 21.8423 28.6253 21.8471C28.6973 21.8567 28.7692 21.8663 28.8412 21.8758C28.8748 21.8806 28.9132 21.8854 28.9468 21.8902C29.0572 21.8998 29.1627 21.9046 29.2731 21.9046C29.3835 21.9046 29.4938 21.8998 29.5994 21.8902C29.633 21.8854 29.6714 21.8806 29.705 21.8758C29.7769 21.8663 29.8489 21.8615 29.9209 21.8471C29.9641 21.8423 30.0025 21.8327 30.0457 21.8231C30.1081 21.8087 30.1752 21.7991 30.2376 21.7847C30.2808 21.7751 30.324 21.7607 30.3672 21.7511C30.4296 21.7319 30.4871 21.7175 30.5495 21.6983C30.5927 21.6839 30.6359 21.6695 30.6791 21.6551C30.7367 21.6359 30.7943 21.6119 30.8518 21.5879C30.895 21.5687 30.9382 21.5495 30.9766 21.5303C31.0342 21.5064 31.087 21.4776 31.1446 21.4488C31.1877 21.4296 31.2261 21.4056 31.2645 21.3816C31.3173 21.3528 31.3701 21.3192 31.4229 21.2856C31.4613 21.2616 31.4997 21.2376 31.5428 21.2088C31.562 21.1944 31.5812 21.1848 31.6004 21.1705C34.2829 22.1878 35.8088 25.0285 35.1754 27.8501Z" fill="#E0382D"/>
<path d="M27.1259 31.5425V30.6925H30.8759V31.5425H27.1259Z" fill="#E0382D"/>
</svg>
