<svg width="24" height="20" viewBox="0 0 24 20" fill="none" xmlns="http://www.w3.org/2000/svg">
<path d="M18.3376 6.0827C18.9642 5.41773 19.318 4.5439 19.318 3.61466C19.318 1.62404 17.6939 0 15.7033 0C13.7127 0 12.0887 1.61978 12.0887 3.61466C12.0887 4.54817 12.4425 5.422 13.0733 6.08696C12.6428 6.2873 12.2379 6.53879 11.867 6.83717C11.9906 6.4237 12.0588 5.98892 12.0588 5.54135C12.0546 3.06479 10.0384 1.04859 7.56181 1.04859C5.08525 1.04859 3.07332 3.06479 3.07332 5.53708C3.07332 6.73913 3.5422 7.86445 4.37766 8.69991C1.73913 9.8636 0 12.4851 0 15.4007C0 15.9335 0.059676 16.4749 0.179028 17.0119C0.532822 18.5891 1.90963 19.6888 3.52089 19.6888H11.6027C12.3231 19.6888 13.0264 19.4587 13.6147 19.0281C14.3649 19.6547 15.3069 20 16.3001 20C18.6232 20 20.5115 18.1117 20.5115 15.7886C20.5115 15.3325 20.4348 14.8892 20.2941 14.4629C20.4092 14.3947 20.52 14.3223 20.6181 14.2413C21.1083 13.8491 21.4535 13.295 21.5899 12.6812C22.2038 9.96164 20.8184 7.2208 18.3376 6.0827ZM12.7664 3.61466C12.7664 1.99488 14.0835 0.682012 15.6991 0.682012C17.3188 0.682012 18.636 1.99915 18.636 3.61466C18.636 4.52685 18.2225 5.37084 17.5021 5.92924C16.9821 6.33419 16.3598 6.54731 15.6991 6.54731C15.5328 6.54731 15.3708 6.53453 15.2131 6.50895C14.9659 6.46633 14.7315 6.39386 14.5055 6.29582C14.2924 6.20205 14.0878 6.07843 13.9003 5.9335C13.1799 5.37084 12.7664 4.52685 12.7664 3.61466ZM3.75107 5.53708C3.75107 3.43564 5.46036 1.73061 7.56181 1.73061C9.66326 1.73061 11.3725 3.4399 11.3725 5.54135C11.3725 6.72634 10.8355 7.82183 9.90196 8.55072C9.22847 9.07502 8.41858 9.35209 7.56181 9.35209C7.34868 9.35209 7.13555 9.33504 6.93095 9.30094C6.78602 9.27536 6.64109 9.24126 6.49616 9.19864C6.32992 9.15175 6.16794 9.09207 6.01023 9.02387C5.73316 8.90026 5.46888 8.74254 5.22165 8.55072C4.28815 7.81756 3.75107 6.72208 3.75107 5.53708ZM11.6027 19.0068H3.52089C2.22506 19.0068 1.12532 18.1245 0.839727 16.8627C0.733163 16.3768 0.677749 15.8824 0.677749 15.4007C0.677749 12.6471 2.3913 10.1748 4.95737 9.19864C4.98295 9.21995 5.01279 9.23274 5.03836 9.25405C5.08525 9.28389 5.12788 9.31373 5.17477 9.34356C5.23018 9.37767 5.28559 9.41177 5.34527 9.44587C5.39216 9.47144 5.43904 9.50128 5.48593 9.52259C5.54561 9.55243 5.60529 9.58227 5.66496 9.60784C5.71185 9.62916 5.763 9.65473 5.80989 9.67605C5.86956 9.70162 5.9335 9.7272 5.99744 9.74851C6.04859 9.76556 6.09548 9.78687 6.14663 9.80392C6.21057 9.82524 6.27877 9.84229 6.34271 9.8636C6.3896 9.87639 6.44075 9.89344 6.48764 9.90622C6.55584 9.92327 6.6283 9.93606 6.6965 9.94885C6.74339 9.95738 6.79028 9.97016 6.83717 9.97443C6.9139 9.98721 6.99488 9.99574 7.07587 10.0043C7.11424 10.0085 7.15686 10.017 7.19523 10.017C7.31458 10.0256 7.43819 10.0298 7.55754 10.0298C7.68116 10.0298 7.80051 10.0256 7.91986 10.017C7.95823 10.0128 8.00085 10.0085 8.03922 10.0043C8.1202 9.99574 8.20119 9.98721 8.27792 9.97443C8.32481 9.9659 8.3717 9.95738 8.41858 9.94885C8.49105 9.93606 8.55925 9.92327 8.63171 9.90622C8.68286 9.89344 8.72975 9.88065 8.77664 9.8636C8.84058 9.84655 8.90878 9.82524 8.97272 9.80392C9.02387 9.78687 9.07076 9.76982 9.12191 9.74851C9.18585 9.7272 9.24552 9.70162 9.30946 9.67605C9.36061 9.65473 9.4075 9.63342 9.45439 9.60784C9.51407 9.57801 9.57374 9.55243 9.63342 9.52259C9.68031 9.49702 9.72719 9.47144 9.77408 9.44587C9.8295 9.41177 9.88917 9.38193 9.94459 9.34356C9.99147 9.31373 10.0384 9.28389 10.081 9.25405C10.1066 9.237 10.1364 9.21995 10.162 9.19864C10.2515 9.23274 10.3367 9.26684 10.422 9.3052C10.6095 9.38619 10.7886 9.47144 10.9633 9.56948C11.023 9.60358 11.0784 9.63768 11.1381 9.67178C11.2532 9.73998 11.3683 9.80392 11.4791 9.87639C11.5473 9.91901 11.607 9.97016 11.6709 10.017C11.769 10.0853 11.867 10.1577 11.9565 10.2302C12.0205 10.2813 12.0844 10.341 12.1483 10.3964C12.2336 10.4731 12.3231 10.5456 12.4041 10.6266C12.468 10.6863 12.5234 10.7502 12.5874 10.8142C12.6641 10.8951 12.7408 10.9761 12.8176 11.0614C12.8772 11.1296 12.9284 11.1978 12.9838 11.266C13.052 11.3512 13.1202 11.4408 13.1884 11.5303C13.2396 11.6027 13.2907 11.6795 13.3376 11.7519C13.3973 11.8457 13.4569 11.9395 13.5166 12.0332C13.5635 12.11 13.6061 12.191 13.6488 12.272C13.6786 12.3274 13.7042 12.3828 13.734 12.4425C13.6914 12.4723 13.653 12.5064 13.6147 12.5405C13.5933 12.5575 13.5763 12.5703 13.555 12.5874C13.491 12.6428 13.4271 12.6982 13.3674 12.7579C13.3546 12.7707 13.3419 12.7835 13.3333 12.7962C13.2864 12.8431 13.2396 12.89 13.1927 12.9412C13.1714 12.9625 13.15 12.9881 13.1287 13.0136C13.0946 13.052 13.0605 13.0904 13.0264 13.133C13.0051 13.1586 12.9838 13.1884 12.9625 13.2182C12.9327 13.2566 12.9028 13.295 12.8772 13.3333C12.8559 13.3632 12.8346 13.393 12.8133 13.4228C12.7877 13.4612 12.7621 13.4996 12.7366 13.5379C12.7153 13.5678 12.6982 13.6019 12.6769 13.636C12.6556 13.6743 12.63 13.7127 12.6087 13.7553C12.5916 13.7894 12.5746 13.8235 12.5533 13.8576C12.532 13.896 12.5107 13.9386 12.4936 13.977C12.4766 14.0111 12.4595 14.0452 12.4467 14.0793C12.4297 14.1219 12.4126 14.1603 12.3956 14.2029C12.3828 14.237 12.3657 14.2754 12.3529 14.3095C12.3359 14.3521 12.3231 14.3947 12.3061 14.4373C12.2933 14.4714 12.2805 14.5098 12.272 14.5439C12.2592 14.5865 12.2464 14.6334 12.2336 14.676C12.2251 14.7101 12.2123 14.7485 12.2037 14.7826C12.191 14.8295 12.1824 14.8764 12.1739 14.9233C12.1654 14.9574 12.1569 14.9915 12.1526 15.0298C12.1441 15.081 12.1355 15.1279 12.1313 15.179C12.127 15.2131 12.1228 15.2472 12.1185 15.2813C12.11 15.3367 12.1057 15.3922 12.1014 15.4476C12.0972 15.4774 12.0972 15.503 12.0929 15.5328C12.0887 15.6181 12.0844 15.7033 12.0844 15.7886C12.0844 15.925 12.0929 16.0571 12.1057 16.1935C12.11 16.2361 12.1185 16.283 12.1228 16.3257C12.1355 16.4152 12.1483 16.5047 12.1654 16.5942C12.1739 16.6454 12.1867 16.6965 12.1995 16.7477C12.2165 16.8286 12.2379 16.9054 12.2592 16.9821C12.2762 17.0375 12.2933 17.0887 12.3103 17.1398C12.3359 17.2123 12.3615 17.289 12.3913 17.3615C12.4126 17.4126 12.4339 17.468 12.4595 17.5192C12.4936 17.5916 12.5277 17.6598 12.5618 17.728C12.5874 17.7792 12.613 17.8303 12.6428 17.8772C12.6812 17.9454 12.7238 18.0136 12.7664 18.0818C12.7962 18.1287 12.8261 18.1756 12.8559 18.2182C12.9071 18.2907 12.9625 18.3589 13.0179 18.4271C13.0477 18.4612 13.0733 18.4996 13.1032 18.5337C13.1074 18.5379 13.1117 18.5422 13.1117 18.5465C12.6769 18.8448 12.1441 19.0068 11.6027 19.0068ZM16.3043 19.3223C15.3879 19.3223 14.5226 18.9727 13.8619 18.3419C13.1671 17.6812 12.7664 16.7477 12.7664 15.7886C12.7664 14.5951 13.3632 13.491 14.3563 12.8346C14.9361 12.4552 15.6095 12.2506 16.3001 12.2506C16.5686 12.2506 16.8329 12.2805 17.0844 12.3402C17.1995 12.3657 17.3103 12.3998 17.4211 12.4339C18.1287 12.6684 18.7468 13.1245 19.1816 13.734C19.2327 13.8022 19.2796 13.8747 19.3222 13.9514C19.4118 14.1006 19.4928 14.2583 19.561 14.4246C19.74 14.8551 19.8295 15.3112 19.8295 15.7843C19.838 17.7366 18.2523 19.3223 16.3043 19.3223ZM20.9335 12.532C20.8312 12.9966 20.5712 13.4143 20.1961 13.7127C20.1449 13.7553 20.0895 13.7937 20.0341 13.8321C20.0085 13.7809 19.9787 13.7298 19.9488 13.6829C19.9318 13.653 19.919 13.6232 19.8977 13.5976C19.8551 13.5252 19.8082 13.4569 19.757 13.3845C19.7485 13.3717 19.74 13.3589 19.7315 13.3461C19.6718 13.2651 19.6121 13.1841 19.5482 13.1074C19.5354 13.0904 19.5183 13.0733 19.5013 13.0563C19.4501 12.9966 19.4032 12.9412 19.3478 12.8858C19.3222 12.8602 19.2967 12.8346 19.2711 12.8133C19.2242 12.7664 19.1816 12.7238 19.1347 12.6812C19.1049 12.6556 19.075 12.63 19.0452 12.6044C19.0026 12.5661 18.9557 12.5277 18.9088 12.4893C18.8747 12.4638 18.8406 12.4382 18.8107 12.4126C18.7639 12.3785 18.7212 12.3444 18.6743 12.3146C18.6402 12.289 18.6019 12.2677 18.5678 12.2464C18.5209 12.2165 18.474 12.1867 18.4271 12.1611C18.3887 12.1398 18.3504 12.1185 18.312 12.0972C18.2651 12.0716 18.214 12.046 18.1671 12.0205C18.1287 11.9991 18.0904 11.9821 18.0477 11.965C17.9966 11.9437 17.9454 11.9224 17.8943 11.9011C17.8559 11.8841 17.8133 11.867 17.7707 11.8542C17.7195 11.8329 17.6641 11.8159 17.613 11.7988C17.5703 11.786 17.532 11.7732 17.4893 11.7604C17.4339 11.7434 17.3785 11.7306 17.3231 11.7178C17.2805 11.7093 17.2421 11.6965 17.1995 11.688C17.1398 11.6752 17.0801 11.6667 17.0205 11.6539C16.9821 11.6454 16.9437 11.6411 16.9011 11.6326C16.8329 11.624 16.769 11.6155 16.7008 11.6113C16.6667 11.607 16.6326 11.6027 16.5985 11.6027C16.4962 11.5942 16.3939 11.5899 16.2916 11.5899C16.1935 11.5899 16.0997 11.5942 16.006 11.5985C15.9761 11.5985 15.9463 11.6027 15.9122 11.607C15.8483 11.6113 15.7843 11.6198 15.7204 11.6283C15.6863 11.6326 15.6479 11.6411 15.6138 11.6454C15.5541 11.6539 15.4945 11.6667 15.4348 11.6795C15.4007 11.688 15.3623 11.6965 15.3282 11.7008C15.2685 11.7136 15.2089 11.7306 15.1492 11.7477C15.1151 11.7562 15.0853 11.7647 15.0512 11.7775C14.9829 11.7988 14.9147 11.8244 14.8465 11.8457C14.8252 11.8542 14.8039 11.8585 14.7826 11.867C14.6931 11.9011 14.6078 11.9395 14.5226 11.9778C14.497 11.9906 14.4714 12.0034 14.4501 12.0162C14.4032 12.0418 14.3521 12.0631 14.3052 12.0887C14.3009 12.0801 14.2924 12.0716 14.2881 12.0588C14.2072 11.9054 14.1262 11.7562 14.0367 11.6113C14.0239 11.5942 14.0153 11.5729 14.0026 11.5516C13.913 11.4066 13.815 11.2617 13.7127 11.1253C13.6914 11.0997 13.6743 11.0699 13.653 11.0443C13.5507 10.9079 13.4484 10.7758 13.3376 10.6479C13.3205 10.6266 13.2992 10.6053 13.2822 10.584C13.1671 10.4518 13.0477 10.324 12.9199 10.2003L12.9156 10.1961C12.792 10.0725 12.6598 9.95737 12.5277 9.84229C12.5064 9.82523 12.4893 9.80819 12.468 9.79113C12.3359 9.68457 12.2038 9.57801 12.0631 9.47997C12.0375 9.46292 12.0119 9.4416 11.9864 9.42455C11.8457 9.32651 11.7008 9.23274 11.5558 9.14322C11.5388 9.13043 11.5175 9.12191 11.4962 9.10912C11.347 9.01961 11.1935 8.93862 11.0401 8.86189C11.0315 8.85763 11.0273 8.85337 11.0188 8.8491C11.6027 7.82609 12.5362 7.02046 13.6275 6.5942C13.6445 6.60699 13.6616 6.61552 13.6786 6.6283C13.7127 6.64962 13.7468 6.67519 13.7809 6.69651C13.8278 6.72634 13.8747 6.75618 13.9216 6.78176C13.9557 6.80307 13.994 6.82012 14.0324 6.84143C14.0793 6.86701 14.1304 6.88832 14.1773 6.9139C14.2157 6.93095 14.254 6.948 14.2924 6.96505C14.3436 6.98636 14.3947 7.00767 14.4459 7.02472C14.4842 7.03751 14.5226 7.05456 14.561 7.06735C14.6121 7.0844 14.6675 7.10145 14.7187 7.11424C14.757 7.12276 14.7954 7.13555 14.8338 7.14408C14.8892 7.15686 14.9488 7.16965 15.0043 7.17818C15.0426 7.1867 15.0767 7.19523 15.1151 7.19949C15.179 7.20801 15.243 7.21654 15.3069 7.22506C15.3367 7.22933 15.3708 7.23359 15.4007 7.23785C15.4987 7.24638 15.5925 7.25064 15.6905 7.25064C15.7886 7.25064 15.8866 7.24638 15.9804 7.23785C16.0102 7.23359 16.0443 7.22933 16.0742 7.22506C16.1381 7.21654 16.202 7.21228 16.266 7.19949C16.3043 7.19523 16.3384 7.1867 16.3768 7.17818C16.4322 7.16539 16.4919 7.15686 16.5473 7.14408C16.5857 7.13555 16.624 7.12276 16.6624 7.11424C16.7178 7.09719 16.769 7.0844 16.8244 7.06735C16.8627 7.05456 16.9011 7.04177 16.9395 7.02899C16.9906 7.01194 17.0418 6.99062 17.0929 6.96931C17.1313 6.95226 17.1696 6.93521 17.2038 6.91816C17.2549 6.89685 17.3018 6.87127 17.3529 6.8457C17.3913 6.82865 17.4254 6.80733 17.4595 6.78602C17.5064 6.76044 17.5533 6.73061 17.6002 6.70077C17.6343 6.67946 17.6684 6.65814 17.7067 6.63257C17.7238 6.61978 17.7408 6.61125 17.7579 6.59847C20.1407 7.50213 21.4962 10.0256 20.9335 12.532Z" fill="black"/>
<path d="M13.8759 16.0034V15.1534H17.6259V16.0034H13.8759Z" fill="black"/>
</svg>
