<svg width="26" height="20" viewBox="0 0 26 20" fill="none" xmlns="http://www.w3.org/2000/svg">
<path fill-rule="evenodd" clip-rule="evenodd" d="M13.2272 1.81818C8.95106 1.81818 5.44108 5.09864 5.07665 9.28027L5.90886 8.44809C6.26388 8.09309 6.83949 8.09309 7.19451 8.44809C7.54954 8.80309 7.54954 9.37873 7.19451 9.73373L4.62321 12.305C4.26819 12.6601 3.69258 12.6601 3.33756 12.305L0.766264 9.73373C0.411245 9.37873 0.411245 8.80309 0.766264 8.44809C1.12129 8.09309 1.69689 8.09309 2.05192 8.44809L3.23396 9.63009C3.42854 4.27864 7.82825 0 13.2272 0C16.9298 0 20.1612 2.01271 21.8889 4.99936C22.1402 5.43391 21.9918 5.99009 21.5572 6.24145C21.1225 6.49282 20.5664 6.34436 20.3151 5.90973C18.899 3.46183 16.2545 1.81818 13.2272 1.81818ZM20.2337 12.305L21.3187 11.22C20.7297 15.16 17.3313 18.1818 13.2272 18.1818C10.5514 18.1818 8.17561 16.8983 6.68134 14.9094C6.37975 14.508 5.80985 14.427 5.40845 14.7286C5.00705 15.0302 4.92612 15.6001 5.22771 16.0015C7.05063 18.4278 9.95543 20 13.2272 20C18.2919 20 22.4771 16.235 23.1367 11.3512L24.0906 12.305C24.4457 12.6601 25.0212 12.6601 25.3762 12.305C25.7313 11.95 25.7313 11.3744 25.3762 11.0194L22.805 8.44809C22.45 8.09309 21.8743 8.09309 21.5193 8.44809L18.9481 11.0194C18.593 11.3744 18.593 11.95 18.9481 12.305C19.3031 12.6601 19.8787 12.6601 20.2337 12.305ZM15.0454 10C15.0454 11.0042 14.2314 11.8182 13.2272 11.8182C12.2231 11.8182 11.4091 11.0042 11.4091 10C11.4091 8.99582 12.2231 8.18182 13.2272 8.18182C14.2314 8.18182 15.0454 8.99582 15.0454 10Z" fill="#18283D"/>
</svg>
