<svg width="22" height="22" viewBox="0 0 22 22" fill="none" xmlns="http://www.w3.org/2000/svg">
<path d="M18.7782 3.22182C16.7005 1.14419 13.9382 0 11 0C8.06182 0 5.29945 1.14419 3.22187 3.22182C1.14419 5.29945 0 8.06182 0 11C0 13.9382 1.14419 16.7005 3.22187 18.7782C5.29945 20.8558 8.06182 22 11 22C13.9382 22 16.7005 20.8558 18.7782 18.7781C20.8558 16.7005 22 13.9382 22 11C22 8.06182 20.8558 5.29945 18.7782 3.22182ZM11 20.8421C5.57304 20.8421 1.15789 16.427 1.15789 11C1.15789 5.57304 5.57304 1.15789 11 1.15789C16.427 1.15789 20.8421 5.57304 20.8421 11C20.8421 16.427 16.427 20.8421 11 20.8421ZM16.9966 11C16.9966 14.3065 14.3065 16.9966 11 16.9966C7.69347 16.9966 5.0034 14.3065 5.0034 11C5.0034 9.11194 5.90818 7.31248 7.42373 6.18649C7.68041 5.99576 8.04301 6.04926 8.23374 6.30594C8.42443 6.56262 8.37093 6.92523 8.1143 7.11591C6.89137 8.02449 6.1613 9.47644 6.1613 11C6.1613 13.668 8.33193 15.8387 11 15.8387C13.6681 15.8387 15.8387 13.668 15.8387 11C15.8387 8.56328 14.0281 6.54187 11.6817 6.20956L12.4304 6.78832C12.6833 6.98386 12.7299 7.34749 12.5343 7.60047C12.4203 7.74803 12.249 7.82533 12.0759 7.82533C11.9523 7.82533 11.8277 7.78587 11.7222 7.7044L9.56963 6.04041C9.42776 5.93078 9.34477 5.76164 9.34477 5.58235C9.34477 5.40306 9.42781 5.23396 9.56963 5.12429L11.7222 3.4603C11.9752 3.26475 12.3389 3.31135 12.5343 3.56428C12.7299 3.81725 12.6833 4.18088 12.4304 4.37643L11.5826 5.03179C14.6167 5.32567 16.9966 7.88999 16.9966 11Z" fill="#18283D" style="fill:#18283D;fill:color(display-p3 0.0941 0.1569 0.2392);fill-opacity:1;"/>
</svg>
