<svg width="14" height="14" viewBox="0 0 14 14" fill="none" xmlns="http://www.w3.org/2000/svg">
<path d="M11.0822 4.66765H4.98859L8.61873 1.03693C8.84682 0.80884 8.84682 0.440168 8.61873 0.212081C8.39064 -0.0160061 8.02197 -0.0160061 7.79388 0.212081L3.59907 4.40748C3.14406 4.8619 3.14406 5.60275 3.59907 6.05717L7.79388 10.2514C7.90764 10.3652 8.05697 10.4223 8.20631 10.4223C8.35564 10.4223 8.50498 10.3652 8.61873 10.2514C8.84682 10.0233 8.84682 9.65465 8.61873 9.42656L5.02592 5.83434H11.0822C12.047 5.83434 12.8322 6.61951 12.8322 7.58436V13.4178C12.8322 13.7404 13.0936 14.0011 13.4156 14.0011C13.7376 14.0011 13.9989 13.7404 13.9989 13.4178V7.58436C13.9989 5.97609 12.6905 4.66765 11.0822 4.66765Z" fill="#33A15A"/>
<path d="M1.50736 6.01557C1.05235 5.56057 1.05235 4.8203 1.50736 4.3653L4.87674 0.995911C5.10483 0.767825 5.10483 0.399152 4.87674 0.171065C4.64866 -0.0570217 4.27998 -0.0570217 4.0519 0.171065L0.682511 3.54045C-0.227504 4.45047 -0.227504 5.93099 0.682511 6.84042L4.0519 10.2098C4.16565 10.3236 4.31498 10.3807 4.46432 10.3807C4.61366 10.3807 4.76299 10.3236 4.87674 10.2098C5.10483 9.98172 5.10483 9.61305 4.87674 9.38496L1.50736 6.01557Z" fill="#33A15A"/>
</svg>
