<svg width="15" height="20" viewBox="0 0 15 20" fill="none" xmlns="http://www.w3.org/2000/svg">
<path d="M12.4194 11.5332H6.5168C6.35496 11.5332 6.22383 11.6644 6.22383 11.8262C6.22383 11.988 6.35496 12.1191 6.5168 12.1191H12.4194C12.5812 12.1191 12.7123 11.988 12.7123 11.8262C12.7123 11.6644 12.5812 11.5332 12.4194 11.5332ZM12.4194 15.9473H6.5168C6.35496 15.9473 6.22383 16.0784 6.22383 16.2402C6.22383 16.402 6.35496 16.5332 6.5168 16.5332H12.4194C12.5812 16.5332 12.7123 16.402 12.7123 16.2402C12.7123 16.0784 12.5812 15.9473 12.4194 15.9473ZM12.4194 14.7754H6.5168C6.35496 14.7754 6.22383 14.9066 6.22383 15.0684C6.22383 15.2302 6.35496 15.3613 6.5168 15.3613H12.4194C12.5812 15.3613 12.7123 15.2302 12.7123 15.0684C12.7123 14.9066 12.5812 14.7754 12.4194 14.7754ZM12.4194 10.3613H6.5168C6.35496 10.3613 6.22383 10.4925 6.22383 10.6543C6.22383 10.8161 6.35496 10.9473 6.5168 10.9473H12.4194C12.5812 10.9473 12.7123 10.8161 12.7123 10.6543C12.7123 10.4925 12.5812 10.3613 12.4194 10.3613ZM14.3838 11.4146C14.5457 11.4146 14.6768 11.2835 14.6768 11.1217V5.10672C14.6756 5.04734 14.6561 4.9616 14.591 4.89957L9.77726 0.0858203C9.72855 0.0420312 9.66691 0 9.57008 0H1.46484C0.657109 0 0 0.657109 0 1.46484V18.5352C0 19.3429 0.657109 20 1.46484 20H13.212C14.0197 20 14.6768 19.3429 14.6768 18.5352V12.4889C14.6768 12.3271 14.5457 12.1959 14.3839 12.1959C14.222 12.1959 14.0909 12.3271 14.0909 12.4889V18.5352C14.0909 19.0198 13.6966 19.4141 13.212 19.4141H1.46484C0.980234 19.4141 0.585937 19.0198 0.585937 18.5352V1.46484C0.585937 0.980195 0.980234 0.585938 1.46484 0.585938H9.27711V1.75781H2.49348C2.11656 1.75781 1.80988 2.06449 1.80988 2.44141V3.86719C1.80988 4.2441 2.11656 4.55078 2.49348 4.55078H8.26129C8.42312 4.55078 8.55426 4.41961 8.55426 4.25781C8.55426 4.09602 8.42312 3.96484 8.26129 3.96484H2.49348C2.43961 3.96484 2.39582 3.92102 2.39582 3.86719V2.44141C2.39582 2.38758 2.43961 2.34375 2.49348 2.34375H9.27711V3.93484C9.27711 4.74258 9.93422 5.39969 10.742 5.39969H14.0909V11.1217C14.0909 11.2835 14.222 11.4146 14.3838 11.4146ZM10.742 4.81375C10.2573 4.81375 9.86305 4.41949 9.86305 3.93484V1.00023L13.6766 4.81371L10.742 4.81375ZM4.48555 14.7754H2.37617C2.06387 14.7754 1.80977 15.0295 1.80977 15.3418V17.4512C1.80977 17.7635 2.06387 18.0176 2.37617 18.0176H4.48555C4.79785 18.0176 5.05195 17.7635 5.05195 17.4512V15.3418C5.05195 15.0295 4.79785 14.7754 4.48555 14.7754ZM4.46601 17.4316H2.3957V15.3613H4.46601V17.4316ZM5.05195 6.51367C5.05195 6.20137 4.79785 5.94727 4.48555 5.94727H2.37617C2.06387 5.94727 1.80977 6.20137 1.80977 6.51367V8.62305C1.80977 8.93535 2.06387 9.18945 2.37617 9.18945H4.48555C4.79785 9.18945 5.05195 8.93535 5.05195 8.62305V6.51367ZM4.46601 8.60352H2.3957V6.5332H4.46601V8.60352ZM12.4194 5.94727H6.5168C6.35496 5.94727 6.22383 6.07844 6.22383 6.24023C6.22383 6.40203 6.35496 6.5332 6.5168 6.5332H12.4194C12.5812 6.5332 12.7123 6.40203 12.7123 6.24023C12.7123 6.07844 12.5812 5.94727 12.4194 5.94727ZM12.4194 7.11914H6.5168C6.35496 7.11914 6.22383 7.25031 6.22383 7.41211C6.22383 7.57391 6.35496 7.70508 6.5168 7.70508H12.4194C12.5812 7.70508 12.7123 7.57391 12.7123 7.41211C12.7123 7.25031 12.5812 7.11914 12.4194 7.11914ZM5.05195 10.9277C5.05195 10.6154 4.79785 10.3613 4.48555 10.3613H2.37617C2.06387 10.3613 1.80977 10.6154 1.80977 10.9277V13.0371C1.80977 13.3494 2.06387 13.6035 2.37617 13.6035H4.48555C4.79785 13.6035 5.05195 13.3494 5.05195 13.0371V10.9277ZM4.46601 13.0176H2.3957V10.9473H4.46601V13.0176Z" fill="#18283D" style="fill:#18283D;fill:color(display-p3 0.0941 0.1569 0.2392);fill-opacity:1;"/>
</svg>
