<svg width="18" height="24" viewBox="0 0 18 24" fill="none" xmlns="http://www.w3.org/2000/svg">
<path d="M17.5999 2.89598C17.3835 2.77012 17.1163 2.77012 16.8999 2.89598C16.0623 3.3623 15.1186 3.60478 14.16 3.6C12.7588 3.63098 11.404 3.09773 10.4 2.12002C9.24084 0.985406 7.67362 0.365438 6.05198 0.400031C4.746 0.388734 3.46912 0.785906 2.4 1.53605V1.2C2.4 0.537281 1.86277 0 1.2 0C0.537234 0 0 0.537234 0 1.2V22.8C0 23.4627 0.537234 24 1.2 24C1.86272 24 2.4 23.4628 2.4 22.8V12.4C2.53256 12.3876 2.65884 12.3376 2.76398 12.256C3.71564 11.5552 4.87022 11.1844 6.05198 11.2C7.4557 11.1677 8.81344 11.701 9.81998 12.68C10.9769 13.8129 12.541 14.4328 14.16 14.4C15.4007 14.4144 16.6177 14.0594 17.656 13.38C17.8782 13.226 18.0076 12.9702 18 12.6999V3.6C18.004 3.31022 17.8509 3.04087 17.5999 2.89598ZM1.59994 22.8C1.59994 23.0209 1.42087 23.2 1.19995 23.2C0.979031 23.2 0.799969 23.0209 0.799969 22.8V1.2C0.799969 0.979078 0.979031 0.800016 1.19995 0.800016C1.42087 0.800016 1.59994 0.979078 1.59994 1.2V22.8ZM17.1999 12.716C16.2944 13.3005 15.2377 13.6078 14.16 13.6C12.7588 13.631 11.404 13.0978 10.4 12.12C9.24084 10.9854 7.67362 10.3655 6.05198 10.4001C4.74684 10.3861 3.46997 10.7805 2.4 11.5281V2.568C3.399 1.66406 4.70498 1.17488 6.05198 1.2C7.4557 1.16775 8.81344 1.70105 9.81998 2.67998C10.9769 3.81295 12.541 4.43283 14.16 4.39997C15.2193 4.40737 16.2638 4.15172 17.2 3.65597L17.1999 12.716Z" fill="#18283D"/>
</svg>
