<svg width="22" height="22" viewBox="0 0 22 22" fill="none" xmlns="http://www.w3.org/2000/svg">
<path d="M16.1333 10.2667C12.8993 10.2667 10.2667 12.8993 10.2667 16.1333C10.2667 19.3673 12.8993 22 16.1333 22C19.3673 22 22 19.3673 22 16.1333C22 12.8993 19.3673 10.2667 16.1333 10.2667ZM16.1333 20.5333C13.706 20.5333 11.7333 18.5607 11.7333 16.1333C11.7333 13.706 13.706 11.7333 16.1333 11.7333C18.5607 11.7333 20.5333 13.706 20.5333 16.1333C20.5333 18.5607 18.5607 20.5333 16.1333 20.5333ZM19.0667 16.1333C19.0667 16.5367 18.7367 16.8667 18.3333 16.8667H16.1333C15.73 16.8667 15.4 16.5367 15.4 16.1333V13.2C15.4 12.7967 15.73 12.4667 16.1333 12.4667C16.5367 12.4667 16.8667 12.7967 16.8667 13.2V15.4H18.3333C18.7367 15.4 19.0667 15.73 19.0667 16.1333ZM9.90733 20.5333H3.66667C2.45667 20.5333 1.46667 19.5433 1.46667 18.3333V7.33333H19.0667V8.94667C19.0667 9.35 19.3967 9.68 19.8 9.68C20.2033 9.68 20.5333 9.35 20.5333 8.94667V5.13333C20.5333 3.10933 18.8907 1.46667 16.8667 1.46667V0.733333C16.8667 0.33 16.5367 0 16.1333 0C15.73 0 15.4 0.33 15.4 0.733333V1.46667H5.13333V0.733333C5.13333 0.33 4.80333 0 4.4 0C3.99667 0 3.66667 0.33 3.66667 0.733333V1.46667C1.64267 1.46667 0 3.10933 0 5.13333V18.3333C0 20.3573 1.64267 22 3.66667 22H9.90733C10.3107 22 10.6407 21.67 10.6407 21.2667C10.6407 20.8633 10.3107 20.5333 9.90733 20.5333ZM3.66667 2.93333V3.66667C3.66667 4.07 3.99667 4.4 4.4 4.4C4.80333 4.4 5.13333 4.07 5.13333 3.66667V2.93333H15.4V3.66667C15.4 4.07 15.73 4.4 16.1333 4.4C16.5367 4.4 16.8667 4.07 16.8667 3.66667V2.93333C18.0767 2.93333 19.0667 3.92333 19.0667 5.13333V5.86667H1.46667V5.13333C1.46667 3.92333 2.45667 2.93333 3.66667 2.93333ZM6.6 11.7333C6.6 12.1367 6.27 12.4667 5.86667 12.4667C5.46333 12.4667 5.13333 12.1367 5.13333 11.7333C5.13333 11.33 5.46333 11 5.86667 11C6.27 11 6.6 11.33 6.6 11.7333ZM6.6 16.1333C6.6 16.5367 6.27 16.8667 5.86667 16.8667C5.46333 16.8667 5.13333 16.5367 5.13333 16.1333C5.13333 15.73 5.46333 15.4 5.86667 15.4C6.27 15.4 6.6 15.73 6.6 16.1333Z" fill="#18283D" style="fill:#18283D;fill:color(display-p3 0.0941 0.1569 0.2392);fill-opacity:1;"/>
</svg>
