<svg width="25" height="25" viewBox="0 0 25 25" fill="none" xmlns="http://www.w3.org/2000/svg">
<path d="M12.5 25C19.3917 25 25 19.3917 25 12.5C25 5.60835 19.3917 0 12.5 0C5.60828 0 0 5.60835 0 12.5C0 19.3917 5.60835 25 12.5 25ZM12.5 1.66664C18.475 1.66664 23.3334 6.52496 23.3334 12.5C23.3334 18.475 18.475 23.3334 12.5 23.3334C6.52496 23.3334 1.66664 18.475 1.66664 12.5C1.66664 6.52496 6.52502 1.66664 12.5 1.66664Z" fill="#8BB4F7" style="fill:#8BB4F7;fill:color(display-p3 0.5455 0.7073 0.9683);fill-opacity:1;"/>
<path d="M16.1452 16.4833C16.2994 16.6083 16.4827 16.6667 16.666 16.6667C16.9118 16.6667 17.1535 16.5583 17.316 16.3542C17.6035 15.9958 17.5451 15.4708 17.1868 15.1833L13.3327 12.1V5.83332C13.3327 5.37498 12.9577 5 12.4993 5C12.041 5 11.666 5.37498 11.666 5.83332V12.5C11.666 12.7542 11.7827 12.9917 11.9785 13.15L16.1452 16.4833Z" fill="#8BB4F7" style="fill:#8BB4F7;fill:color(display-p3 0.5455 0.7073 0.9683);fill-opacity:1;"/>
</svg>
