<svg width="22" height="22" viewBox="0 0 22 22" fill="none" xmlns="http://www.w3.org/2000/svg">
<path d="M11 0C4.93423 0 0 4.9347 0 11C0 17.0653 4.93423 22 11 22C17.0658 22 22 17.0653 22 11C22 4.9347 17.0658 0 11 0ZM11 21.0833C5.44002 21.0833 0.916652 16.56 0.916652 11C0.916652 5.44002 5.44002 0.916652 11 0.916652C16.56 0.916652 21.0833 5.44002 21.0833 11C21.0833 16.56 16.56 21.0833 11 21.0833Z" fill="#18283D" style="fill:#18283D;fill:color(display-p3 0.0941 0.1569 0.2392);fill-opacity:1;"/>
<path d="M15.373 10.616L8.95632 6.49102C8.81577 6.39928 8.63405 6.39434 8.48904 6.474C8.34131 6.55457 8.25 6.70857 8.25 6.8764V15.1264C8.25 15.2942 8.34131 15.4482 8.48904 15.5288C8.55705 15.566 8.63315 15.5847 8.70835 15.5847C8.79429 15.5847 8.88113 15.5606 8.95632 15.5118L15.373 11.3868C15.5037 11.3027 15.5833 11.1572 15.5833 11.0014C15.5833 10.8456 15.5037 10.7002 15.373 10.616ZM9.16665 14.2867V7.7161L14.2773 11.0014L9.16665 14.2867Z" fill="#18283D" style="fill:#18283D;fill:color(display-p3 0.0941 0.1569 0.2392);fill-opacity:1;"/>
</svg>
