<svg width="244" height="201" viewBox="0 0 244 201" fill="none" xmlns="http://www.w3.org/2000/svg">
<path opacity="0.1" d="M122.629 14.7041C129.74 29.4983 118.584 49.6238 97.7126 59.6556C76.841 69.6875 54.1569 65.8268 47.0462 51.0326C39.9355 36.2383 51.0912 16.1129 71.9628 6.08102C92.8344 -3.95087 115.519 -0.0901334 122.629 14.7041Z" fill="url(#paint0_linear_742_26722)"/>
<path opacity="0.1" d="M66.5118 200.499C66.5118 200.499 6.39517 167.104 42.9168 111.491C79.4385 55.8777 161.281 58.428 171.48 21.6051C181.679 -15.2174 277.961 46.3955 230.429 102.658C182.898 158.92 211.917 198.576 211.917 198.576L66.5118 200.499Z" fill="url(#paint1_linear_742_26722)"/>
<g opacity="0.1">
<path d="M24.5314 107.795C22.1814 107.795 19.8464 107.444 17.5973 106.732C10.9286 104.622 5.46078 99.4747 2.59561 92.6105C-0.119781 86.1052 -0.375289 78.6035 1.87667 71.4873C4.12832 64.3714 8.65301 58.3823 14.6165 54.6235C20.909 50.657 28.3423 49.5928 35.011 51.7027C41.6797 53.8128 47.1475 58.9604 50.013 65.8246C52.7284 72.3298 52.9839 79.8312 50.7322 86.9478C48.4803 94.0637 43.9556 100.053 37.9921 103.812C33.8213 106.44 29.149 107.795 24.5314 107.795ZM28.0523 66.4187C23.5241 66.4187 18.763 70.4458 16.9263 76.2503C14.7883 83.0066 17.2763 90.0733 22.3596 91.682C27.4439 93.2924 33.5431 88.9417 35.681 82.1854C37.819 75.4292 35.3307 68.3624 30.2477 66.7537C29.532 66.5266 28.7948 66.4187 28.0523 66.4187Z" fill="url(#paint2_linear_742_26722)"/>
</g>
<path d="M214.563 160.578C193.182 172.507 167.735 177.295 143.613 172.863C129.545 170.279 115.928 164.792 102.76 159.483C85.8141 152.653 68.2933 145.589 49.8626 144.81C43.1816 144.528 36.5166 145.113 30.0297 146.49C29.9313 146.429 29.8328 146.373 29.7344 146.32C36.3968 144.868 43.1763 144.262 49.8733 144.544C68.3492 145.325 85.894 152.397 102.859 159.235C116.016 164.539 129.62 170.024 143.661 172.603C167.753 177.029 193.176 172.233 214.521 160.299C214.534 160.392 214.55 160.485 214.563 160.578Z" fill="white"/>
<path d="M175.088 116.568C175.221 116.376 175.357 116.185 175.487 115.991C175.428 116.222 175.372 116.456 175.325 116.693C175.319 116.701 175.311 116.711 175.306 116.719C169.609 124.865 162.774 131.568 155.537 136.103C148.587 140.458 141.595 142.651 134.685 142.651C133.123 142.651 131.567 142.54 130.018 142.316C120.554 140.95 111.172 135.207 102.134 125.254C98.7574 121.537 95.6098 117.509 92.5687 113.614C88.8943 108.911 85.0974 104.048 80.8696 99.7043C79.0044 97.7874 77.0461 95.969 75 94.2514C75.0612 94.1876 75.1224 94.1212 75.181 94.0547C77.2296 95.7748 79.1932 97.5986 81.0611 99.5181C85.297 103.873 89.1017 108.741 92.7788 113.449C95.8173 117.342 98.9597 121.364 102.331 125.075C111.327 134.984 120.655 140.695 130.055 142.053C145.53 144.292 162.364 134.763 175.088 116.568Z" fill="white"/>
<path d="M243.644 70.7995C239.538 71.076 235.446 71.528 231.388 72.2298C216.294 74.8379 203.675 80.7772 194.892 89.4071C190.31 93.9108 186.614 99.2733 183.15 104.66C183.147 104.66 183.147 104.66 183.147 104.662C182.94 104.811 182.737 104.963 182.535 105.12C186.122 99.5206 189.932 93.9083 194.705 89.2185C203.526 80.5488 216.196 74.5854 231.343 71.9668C235.385 71.2702 239.461 70.8182 243.548 70.5391C243.582 70.6267 243.614 70.7117 243.644 70.7995Z" fill="white"/>
<path d="M196.154 23.1863C195.286 23.2581 194.419 23.3405 193.552 23.4389C177.944 25.1935 164.944 31.5715 156.951 41.4004C155.011 43.7825 153.306 46.4411 151.656 49.012C148.833 53.412 145.914 57.9609 141.75 61.231C137.262 64.7536 131.477 66.6067 124.99 66.6067C124.764 66.6067 124.535 66.604 124.304 66.5987C118.219 66.479 111.716 64.7218 105.99 61.651C96.9466 56.8017 89.5019 49.3948 82.3047 42.2326C80.679 40.6135 78.9975 38.9412 77.3265 37.3274C68.8149 29.1043 58.3849 20.4133 45.5577 18.3129C42.2611 17.7732 38.9485 17.6988 35.6758 17.9381C35.8301 17.8343 35.9871 17.736 36.1441 17.6403H36.1468C39.2785 17.4409 42.4447 17.534 45.6003 18.0497C58.5766 20.1739 69.4695 29.3674 77.5129 37.1359C79.1838 38.7524 80.8653 40.4246 82.4938 42.0437C89.6777 49.1927 97.1063 56.5863 106.116 61.417C116.458 66.9602 131.435 68.9888 141.585 61.0209C145.715 57.7801 148.62 53.2497 151.433 48.8683C153.085 46.2922 154.793 43.6282 156.744 41.2302C164.782 31.3508 177.843 24.9381 193.523 23.1755C194.339 23.0824 195.156 23.0027 195.976 22.9363C196.037 23.0187 196.095 23.1011 196.154 23.1863Z" fill="white"/>
<path d="M66.6821 37.0195H59.4258V47.0335H66.6821V37.0195Z" fill="white"/>
<path d="M77.9282 29.9883H70.6719V47.0393H77.9282V29.9883Z" fill="white"/>
<path d="M89.1587 19.957H81.9023V47.022H89.1587V19.957Z" fill="white"/>
<path d="M35.6071 100.547C34.9925 106.771 29.7402 111.628 23.3519 111.628C17.4663 111.628 12.544 107.502 11.3254 101.985C10.5671 102.288 9.83274 102.636 9.125 103.03C10.5751 108.605 15.2207 112.891 20.9891 113.821V133.631C20.9891 134.963 25.7172 134.963 25.7172 133.631V113.821C32.3185 112.755 37.4456 107.3 38.0044 100.547H35.6071Z" fill="white"/>
<path d="M38.0558 99.3178C38.0558 99.7299 38.0399 100.139 38.0053 100.543H35.608C35.648 100.142 35.6692 99.7326 35.6692 99.3178C35.6692 92.5223 30.1562 87.0111 23.3527 87.0111C16.552 87.0111 11.0363 92.5224 11.0363 99.3178C11.0363 100.232 11.1375 101.126 11.3264 101.982C10.568 102.285 9.83367 102.633 9.12593 103.027C8.81725 101.843 8.65234 100.599 8.65234 99.3178C8.65234 91.2037 15.2349 84.6289 23.3528 84.6289C31.4732 84.629 38.0558 91.2037 38.0558 99.3178Z" fill="#F0F8FF"/>
<path d="M209.453 127.016L212.082 128.06L213.484 125.186L211.042 123.782C211.187 123.154 211.254 122.514 211.244 121.878L213.93 120.989L213.155 117.887L210.381 118.38C210.094 117.815 209.736 117.281 209.312 116.79L210.797 114.386L208.207 112.507L206.399 114.666C205.801 114.412 205.183 114.236 204.557 114.135L204.149 111.34L200.956 111.563L200.96 114.381C200.351 114.566 199.762 114.825 199.208 115.155L197.097 113.276L194.795 115.497L196.61 117.653C196.253 118.201 195.973 118.778 195.766 119.372L192.94 119.289L192.605 122.469L195.384 122.955C195.462 123.589 195.615 124.213 195.843 124.812L193.624 126.564L195.413 129.216L197.853 127.803C198.088 128.023 198.339 128.23 198.606 128.424C198.864 128.611 199.129 128.78 199.401 128.931L198.827 131.699L201.904 132.58L202.864 129.932C203.506 129.965 204.147 129.921 204.776 129.801L206.117 132.29L209.041 130.989L208.073 128.345C208.576 127.966 209.04 127.523 209.453 127.016ZM200.706 125.535C198.745 124.112 198.31 121.371 199.734 119.412C201.159 117.452 203.903 117.018 205.863 118.441C207.824 119.864 208.259 122.606 206.834 124.565C205.41 126.524 202.667 126.959 200.706 125.535Z" fill="#B5DEFF"/>
<path d="M218.264 141.698L219.623 142.237L220.348 140.752L219.085 140.026C219.16 139.701 219.195 139.37 219.19 139.041L220.578 138.582L220.178 136.978L218.743 137.233C218.595 136.941 218.41 136.665 218.191 136.411L218.959 135.169L217.62 134.197L216.685 135.313C216.376 135.182 216.057 135.091 215.733 135.039L215.522 133.594L213.872 133.709L213.874 135.166C213.559 135.262 213.255 135.395 212.968 135.566L211.876 134.595L210.687 135.743L211.625 136.858C211.44 137.141 211.295 137.439 211.188 137.746L209.728 137.703L209.555 139.347L210.991 139.598C211.031 139.926 211.111 140.249 211.228 140.558L210.081 141.464L211.006 142.835L212.267 142.105C212.389 142.218 212.519 142.325 212.657 142.425C212.79 142.522 212.927 142.609 213.067 142.688L212.771 144.119L214.361 144.574L214.858 143.205C215.189 143.222 215.521 143.199 215.846 143.138L216.54 144.424L218.051 143.752L217.551 142.385C217.81 142.188 218.05 141.959 218.264 141.698ZM213.742 140.932C212.728 140.196 212.504 138.779 213.24 137.766C213.976 136.754 215.395 136.529 216.408 137.265C217.422 138 217.647 139.418 216.91 140.431C216.174 141.443 214.756 141.668 213.742 140.932Z" fill="#B5DEFF"/>
<path d="M217.463 110.401L218.252 110.714L218.672 109.852L217.94 109.431C217.983 109.243 218.003 109.051 218.001 108.86L218.806 108.594L218.574 107.663L217.742 107.811C217.656 107.641 217.548 107.481 217.421 107.334L217.866 106.613L217.09 106.049L216.547 106.697C216.368 106.621 216.183 106.568 215.995 106.538L215.873 105.699L214.915 105.766L214.916 106.611C214.733 106.667 214.557 106.744 214.39 106.843L213.757 106.28L213.067 106.946L213.611 107.593C213.504 107.757 213.42 107.93 213.358 108.108L212.511 108.083L212.41 109.037L213.243 109.183C213.267 109.373 213.313 109.56 213.381 109.74L212.716 110.266L213.252 111.061L213.984 110.637C214.055 110.703 214.13 110.765 214.21 110.823C214.287 110.879 214.367 110.93 214.448 110.976L214.276 111.806L215.199 112.07L215.487 111.276C215.679 111.286 215.872 111.272 216.06 111.237L216.463 111.983L217.34 111.593L217.05 110.8C217.2 110.686 217.339 110.553 217.463 110.401ZM214.84 109.957C214.252 109.53 214.121 108.708 214.548 108.12C214.976 107.533 215.798 107.402 216.387 107.829C216.975 108.256 217.105 109.078 216.678 109.666C216.251 110.254 215.428 110.384 214.84 109.957Z" fill="#B5DEFF"/>
<path d="M100.156 27.6857V179.166C100.156 181.292 101.88 183.015 104.006 183.015H176.67C178.799 183.015 180.523 181.292 180.523 179.166V27.6857C180.523 25.5587 178.799 23.836 176.67 23.836H160.36C157.785 23.836 155.699 25.9204 155.699 28.4939C155.699 29.7781 155.177 30.9451 154.334 31.7879C153.49 32.6334 152.322 33.1544 151.034 33.1544H129.64C127.064 33.1544 124.978 31.0647 124.978 28.4938C124.978 27.2071 124.457 26.0399 123.61 25.1998C122.767 24.357 121.599 23.8359 120.314 23.8359H104.006C101.88 23.836 100.156 25.5587 100.156 27.6857Z" fill="white"/>
<path d="M180.403 19.6758H101.221C98.7677 19.6758 96.7773 21.6617 96.7773 24.1156V182.112C96.7773 184.568 98.7675 186.554 101.221 186.554H180.403C182.857 186.554 184.847 184.568 184.847 182.112V24.1156C184.847 21.6617 182.857 19.6758 180.403 19.6758ZM180.997 178.855C180.997 180.982 179.273 182.705 177.144 182.705H104.48C102.354 182.705 100.63 180.982 100.63 178.855V27.3725C100.63 25.2482 102.354 23.5254 104.48 23.5254H120.788C122.073 23.5254 123.241 24.0465 124.084 24.8893C124.93 25.7294 125.452 26.8966 125.452 28.1807C125.452 30.7543 127.538 32.8413 130.113 32.8413H151.508C152.796 32.8413 153.964 32.3202 154.807 31.4774C155.651 30.6346 156.172 29.4674 156.172 28.1807C156.172 25.6098 158.258 23.5255 160.834 23.5255H177.144C179.273 23.5255 180.997 25.2483 180.997 27.3726L180.997 178.855Z" fill="#E1F2FF"/>
<path d="M149.308 175.067C150.395 175.067 151.277 174.186 151.277 173.1C151.277 172.013 150.395 171.133 149.308 171.133C148.221 171.133 147.34 172.013 147.34 173.1C147.34 174.186 148.221 175.067 149.308 175.067Z" fill="#F0F8FF"/>
<path d="M140.347 175.067C141.434 175.067 142.315 174.186 142.315 173.1C142.315 172.013 141.434 171.133 140.347 171.133C139.26 171.133 138.379 172.013 138.379 173.1C138.379 174.186 139.26 175.067 140.347 175.067Z" fill="#B5DEFF"/>
<path d="M131.379 175.067C132.466 175.067 133.347 174.186 133.347 173.1C133.347 172.013 132.466 171.133 131.379 171.133C130.291 171.133 129.41 172.013 129.41 173.1C129.41 174.186 130.291 175.067 131.379 175.067Z" fill="#E1F2FF"/>
<path d="M187.775 25.9051V180.942C187.775 184.212 185.119 186.863 181.849 186.863H179.934C182.387 186.863 184.377 184.877 184.377 182.42V24.4242C184.377 21.9703 182.387 19.9844 179.934 19.9844H181.849C185.119 19.9844 187.775 22.635 187.775 25.9051Z" fill="#B5DEFF"/>
<path d="M114.765 56.8895H166.213C169.983 56.8895 173.04 53.8353 173.04 50.0678C173.04 46.3003 169.983 43.2461 166.213 43.2461H114.765C110.994 43.2461 107.938 46.3003 107.938 50.0678C107.937 53.8354 110.994 56.8895 114.765 56.8895Z" fill="#B5DEFF"/>
<path d="M121.172 53.1687V46.7031H122.022V53.1687H121.172Z" fill="white"/>
<path d="M123.365 53.1687V48.4909H124.155V49.4022L124.024 49.3241C124.14 49.029 124.325 48.8005 124.58 48.6385C124.84 48.4707 125.144 48.3868 125.491 48.3868C125.827 48.3868 126.125 48.462 126.385 48.6124C126.651 48.7629 126.859 48.9711 127.01 49.2373C127.166 49.5034 127.244 49.8043 127.244 50.1399V53.1687H126.428V50.4002C126.428 50.1399 126.382 49.92 126.29 49.7406C126.197 49.5613 126.064 49.4224 125.89 49.3241C125.723 49.2199 125.529 49.1679 125.309 49.1679C125.089 49.1679 124.892 49.2199 124.719 49.3241C124.551 49.4224 124.418 49.5642 124.319 49.7493C124.221 49.9287 124.172 50.1457 124.172 50.4002V53.1687H123.365Z" fill="white"/>
<path d="M128.46 51.1987V50.461H131.715V51.1987H128.46Z" fill="white"/>
<path d="M133.018 53.1687V48.4909H133.808V49.3501L133.721 49.2286C133.831 48.9625 133.999 48.7657 134.225 48.6385C134.45 48.5054 134.725 48.4389 135.049 48.4389H135.336V49.2026H134.928C134.598 49.2026 134.332 49.3067 134.129 49.515C133.927 49.7175 133.825 50.0068 133.825 50.3829V53.1687H133.018Z" fill="white"/>
<path d="M138.205 53.2729C137.754 53.2729 137.351 53.1658 136.999 52.9517C136.646 52.7377 136.368 52.4455 136.165 52.0752C135.963 51.6991 135.862 51.2797 135.862 50.8168C135.862 50.3482 135.96 49.9316 136.157 49.5671C136.359 49.2026 136.631 48.9162 136.972 48.7079C137.32 48.4938 137.707 48.3868 138.135 48.3868C138.483 48.3868 138.789 48.4504 139.055 48.5777C139.327 48.6992 139.556 48.867 139.741 49.0811C139.932 49.2894 140.077 49.5295 140.175 49.8014C140.279 50.0675 140.331 50.3453 140.331 50.6345C140.331 50.6982 140.325 50.7705 140.314 50.8515C140.308 50.9267 140.299 50.9991 140.288 51.0685H136.452V50.3742H139.819L139.437 50.6866C139.489 50.3858 139.46 50.1167 139.351 49.8795C139.241 49.6423 139.079 49.4543 138.864 49.3154C138.65 49.1765 138.407 49.1071 138.135 49.1071C137.864 49.1071 137.615 49.1765 137.389 49.3154C137.163 49.4543 136.987 49.6539 136.86 49.9142C136.738 50.1688 136.689 50.4725 136.712 50.8255C136.689 51.1668 136.741 51.4677 136.868 51.7281C137.001 51.9826 137.187 52.1822 137.424 52.3269C137.667 52.4657 137.93 52.5352 138.214 52.5352C138.526 52.5352 138.789 52.4628 139.003 52.3182C139.217 52.1736 139.391 51.9884 139.524 51.7628L140.201 52.1099C140.108 52.324 139.964 52.5207 139.767 52.7001C139.576 52.8736 139.348 53.0125 139.081 53.1166C138.821 53.2208 138.529 53.2729 138.205 53.2729Z" fill="white"/>
<path d="M142.601 53.1687L140.769 48.4909H141.672L143.139 52.4484H142.826L144.302 48.4909H145.204L143.364 53.1687H142.601Z" fill="white"/>
<path d="M145.926 53.1687V48.4909H146.734V53.1687H145.926ZM145.926 47.7446V46.7031H146.734V47.7446H145.926Z" fill="white"/>
<path d="M150.138 53.2729C149.687 53.2729 149.285 53.1658 148.932 52.9517C148.579 52.7377 148.301 52.4455 148.099 52.0752C147.896 51.6991 147.795 51.2797 147.795 50.8168C147.795 50.3482 147.893 49.9316 148.09 49.5671C148.293 49.2026 148.565 48.9162 148.906 48.7079C149.253 48.4938 149.641 48.3868 150.069 48.3868C150.416 48.3868 150.723 48.4504 150.989 48.5777C151.261 48.6992 151.489 48.867 151.674 49.0811C151.865 49.2894 152.01 49.5295 152.108 49.8014C152.213 50.0675 152.265 50.3453 152.265 50.6345C152.265 50.6982 152.259 50.7705 152.247 50.8515C152.242 50.9267 152.233 50.9991 152.221 51.0685H148.385V50.3742H151.753L151.371 50.6866C151.423 50.3858 151.394 50.1167 151.284 49.8795C151.174 49.6423 151.012 49.4543 150.798 49.3154C150.584 49.1765 150.341 49.1071 150.069 49.1071C149.797 49.1071 149.548 49.1765 149.323 49.3154C149.097 49.4543 148.92 49.6539 148.793 49.9142C148.672 50.1688 148.622 50.4725 148.646 50.8255C148.622 51.1668 148.674 51.4677 148.802 51.7281C148.935 51.9826 149.12 52.1822 149.357 52.3269C149.6 52.4657 149.864 52.5352 150.147 52.5352C150.459 52.5352 150.723 52.4628 150.937 52.3182C151.151 52.1736 151.324 51.9884 151.458 51.7628L152.134 52.1099C152.042 52.324 151.897 52.5207 151.701 52.7001C151.51 52.8736 151.281 53.0125 151.015 53.1166C150.755 53.2208 150.462 53.2729 150.138 53.2729Z" fill="white"/>
<path d="M154.393 53.1687L152.788 48.4909H153.682L154.957 52.405L154.645 52.3963L155.895 48.4909H156.658L157.908 52.3963L157.596 52.405L158.88 48.4909H159.765L158.16 53.1687H157.387L156.155 49.2633H156.398L155.166 53.1687H154.393Z" fill="white"/>
<path d="M124.469 91.4094H109.69C108.638 91.4094 107.785 90.5575 107.785 89.5066V74.7388C107.785 73.6879 108.638 72.8359 109.69 72.8359H124.469C125.521 72.8359 126.373 73.6879 126.373 74.7388V89.5066C126.373 90.5575 125.521 91.4094 124.469 91.4094Z" fill="#E1F2FF"/>
<path d="M171.296 76.0168H134.357C133.478 76.0168 132.766 75.3048 132.766 74.4264C132.766 73.548 133.478 72.8359 134.357 72.8359H171.296C172.175 72.8359 172.887 73.548 172.887 74.4264C172.887 75.3047 172.175 76.0168 171.296 76.0168Z" fill="#E1F2FF"/>
<path d="M171.296 83.7199H134.357C133.478 83.7199 132.766 83.0078 132.766 82.1295C132.766 81.2511 133.478 80.5391 134.357 80.5391H171.296C172.175 80.5391 172.887 81.2511 172.887 82.1295C172.887 83.0079 172.175 83.7199 171.296 83.7199Z" fill="#E1F2FF"/>
<path d="M153.791 91.4113H134.357C133.478 91.4113 132.766 90.6993 132.766 89.8209C132.766 88.9425 133.478 88.2305 134.357 88.2305H153.791C154.671 88.2305 155.383 88.9426 155.383 89.8209C155.383 90.6993 154.671 91.4113 153.791 91.4113Z" fill="#E1F2FF"/>
<path d="M124.469 122.937H109.69C108.638 122.937 107.785 122.085 107.785 121.034V106.266C107.785 105.215 108.638 104.363 109.69 104.363H124.469C125.521 104.363 126.373 105.215 126.373 106.266V121.034C126.373 122.085 125.521 122.937 124.469 122.937Z" fill="#E1F2FF"/>
<path d="M171.296 107.544H134.357C133.478 107.544 132.766 106.832 132.766 105.954C132.766 105.075 133.478 104.363 134.357 104.363H171.296C172.175 104.363 172.887 105.075 172.887 105.954C172.887 106.832 172.175 107.544 171.296 107.544Z" fill="#E1F2FF"/>
<path d="M171.296 115.247H134.357C133.478 115.247 132.766 114.535 132.766 113.657C132.766 112.778 133.478 112.066 134.357 112.066H171.296C172.175 112.066 172.887 112.778 172.887 113.657C172.887 114.535 172.175 115.247 171.296 115.247Z" fill="#E1F2FF"/>
<path d="M153.791 122.939H134.357C133.478 122.939 132.766 122.227 132.766 121.348C132.766 120.47 133.478 119.758 134.357 119.758H153.791C154.671 119.758 155.383 120.47 155.383 121.348C155.383 122.227 154.671 122.939 153.791 122.939Z" fill="#E1F2FF"/>
<path d="M124.469 154.472H109.69C108.638 154.472 107.785 153.62 107.785 152.569V137.801C107.785 136.75 108.638 135.898 109.69 135.898H124.469C125.521 135.898 126.373 136.75 126.373 137.801V152.569C126.373 153.62 125.521 154.472 124.469 154.472Z" fill="#E1F2FF"/>
<path d="M171.296 139.079H134.357C133.478 139.079 132.766 138.367 132.766 137.489C132.766 136.61 133.478 135.898 134.357 135.898H171.296C172.175 135.898 172.887 136.61 172.887 137.489C172.887 138.367 172.175 139.079 171.296 139.079Z" fill="#E1F2FF"/>
<path d="M171.296 146.782H134.357C133.478 146.782 132.766 146.07 132.766 145.192C132.766 144.314 133.478 143.602 134.357 143.602H171.296C172.175 143.602 172.887 144.314 172.887 145.192C172.887 146.07 172.175 146.782 171.296 146.782Z" fill="#E1F2FF"/>
<path d="M153.791 154.474H134.357C133.478 154.474 132.766 153.762 132.766 152.883C132.766 152.005 133.478 151.293 134.357 151.293H153.791C154.671 151.293 155.383 152.005 155.383 152.883C155.383 153.762 154.671 154.474 153.791 154.474Z" fill="#E1F2FF"/>
<path d="M62.5898 56.7638L64.1626 58.8027L64.0169 57.388L63.9844 57.0729L63.775 55.0407L62.5898 54.7539V55.4429V56.7638Z" fill="#0E185F"/>
<path d="M74.9617 82.5901H87.4801C87.8602 82.5901 88.1683 82.2822 88.1683 81.9025C88.1683 81.6967 88.0758 81.514 87.9324 81.388L87.7566 81.7937C87.6915 81.9439 87.5171 82.0129 87.3669 81.9479C87.2168 81.8829 87.1476 81.7085 87.2127 81.5585L87.3615 81.2148H74.9617C74.7553 81.2148 74.5723 81.3074 74.4462 81.4512C74.34 81.5721 74.2734 81.729 74.2734 81.9024C74.2735 82.2823 74.5816 82.5901 74.9617 82.5901Z" fill="#6F759F"/>
<path d="M64.027 57.3864L64.2713 57.448L65.5061 57.7592L63.7852 55.0391L63.9945 57.0712L64.027 57.3864Z" fill="#59B6FF"/>
<path d="M88.1845 81.9034C88.1845 82.2832 87.8764 82.591 87.4964 82.591H74.9779C74.5978 82.591 74.2898 82.2831 74.2898 81.9034C74.2898 81.7298 74.3564 81.5731 74.4626 81.4522H73.4401L71.6875 82.2046C71.7647 82.98 71.8101 83.6542 71.8164 84.1857C71.8255 84.9491 71.8565 85.9922 71.9 87.1722L87.0022 85.0785C87.7292 84.9776 88.3401 84.4821 88.5884 83.792L90.5986 78.2033C90.7172 77.8582 90.5505 77.48 90.2158 77.3344C90.0499 77.2622 89.872 77.2616 89.7131 77.3153L87.9487 81.3889C88.0921 81.5149 88.1845 81.6975 88.1845 81.9034Z" fill="#FCB0AA"/>
<path d="M53.8722 53.3137V52.6406C53.8061 52.6731 53.735 52.7169 53.682 52.7719C53.6344 52.8213 53.6021 52.8798 53.6016 52.9475C53.6006 53.049 53.6718 53.1709 53.8722 53.3137Z" fill="#29ABE2"/>
<path d="M71.6896 82.2188L52.6305 90.4023C51.038 91.0862 49.3727 91.0615 47.9223 90.5174L47.4258 98.8694C47.4258 100.57 72.4569 100.57 72.4569 98.8694C72.4569 98.8694 72.0772 91.9215 71.9022 87.1863C71.8586 86.0062 71.8277 84.9631 71.8187 84.1998C71.8122 83.6682 71.7669 82.9941 71.6896 82.2188Z" fill="#D9EDFF"/>
<path d="M94.0332 66.5909C93.8829 66.5259 93.7085 66.5949 93.6435 66.745L87.3765 81.2195L87.2276 81.5631C87.1625 81.7131 87.2317 81.8875 87.3818 81.9525C87.5321 82.0175 87.7066 81.9484 87.7715 81.7984L87.9473 81.3926L89.7116 77.319L94.1874 66.9803C94.2524 66.8302 94.1834 66.6559 94.0332 66.5909Z" fill="#9FA3BF"/>
<path d="M53.8796 55.43C55.4501 57.1784 59.8752 59.7921 59.8752 59.7921C60.1032 58.6304 62.5994 56.7625 62.5994 56.7625C62.5994 56.7625 56.4785 54.439 54.6091 53.6873C54.2691 53.5505 54.0356 53.4267 53.8796 53.3155C53.6793 53.1725 53.6081 53.0506 53.6089 52.9492C53.482 53.2505 53.3802 53.6291 53.3459 54.0757C53.3364 54.1998 53.3303 54.3272 53.3325 54.4616C53.3364 54.7222 53.5444 55.0569 53.8796 55.43Z" fill="#59B6FF"/>
<path d="M53.8073 66.8942L54.2414 79.8919L54.2664 80.6395L70.7524 75.9532C69.954 71.6493 68.794 66.8464 67.577 63.7051C66.4834 60.8822 65.239 58.8216 64.2675 57.4662L64.0231 57.4046L64.1688 58.8195L62.5959 56.7803C62.5959 56.7803 60.0996 58.6482 59.8716 59.81C59.8716 59.81 55.4465 57.1964 53.876 55.4478C53.5409 55.0747 53.333 54.74 53.3289 54.4797C53.3269 54.3453 53.3329 54.2178 53.3424 54.0938C52.1819 54.8612 46.8113 58.415 45.2588 59.4797C43.5148 60.6756 43.3438 62.6573 43.3096 66.6209C43.2913 68.7407 43.5273 76.4398 43.7509 83.1451L54.2415 79.892L53.8073 66.8942Z" fill="#D9EDFF"/>
<path d="M52.6247 90.3752L71.6838 82.1916L73.4364 81.4391L78.1845 79.4004L80.6607 80.9506C80.8797 81.0877 81.1599 81.079 81.3699 80.9286C81.561 80.7918 81.6459 80.5746 81.6301 80.3633L82.1887 80.8131C82.4676 81.0377 82.8684 81.0267 83.1346 80.7871C83.3076 80.6313 83.3847 80.4141 83.3717 80.2016C83.3602 80.0117 83.2777 79.8254 83.1193 79.6907C83.2777 79.8255 83.3602 80.0117 83.3717 80.2016L83.4649 80.2807C83.7796 80.548 84.2449 80.5367 84.5462 80.2544C84.9005 79.9225 84.8859 79.3561 84.5149 79.0428L84.2837 78.8476C84.424 78.8498 84.5644 78.7971 84.6673 78.6878C84.8763 78.4657 84.8473 78.112 84.6052 77.9269L79.9498 74.3666C79.3124 73.8791 78.4818 73.7212 77.7097 73.9407L70.7477 75.9196L54.2617 80.6059L54.2367 79.8584L43.7461 83.1115C43.7649 83.6762 43.7837 84.2346 43.8022 84.7812C43.8941 87.4981 45.6397 89.6363 47.9163 90.4905C49.3669 91.0345 51.0322 91.059 52.6247 90.3752Z" fill="#FCB0AA"/>
<path d="M71.68 82.3383C71.6284 82.3383 71.5793 82.3082 71.5577 82.2578C71.5287 82.1905 71.5599 82.1122 71.6275 82.0833L73.3797 81.3309C73.4469 81.3024 73.5253 81.3332 73.5544 81.4007C73.5834 81.468 73.5521 81.5463 73.4846 81.5752L71.7324 82.3276C71.7153 82.3349 71.6975 82.3383 71.68 82.3383Z" fill="#0E185F"/>
<path d="M81.6275 80.5123C81.5584 80.5123 81.5002 80.4591 81.495 80.3893C81.4845 80.2478 81.4202 80.1224 81.314 80.0365L79.7914 78.8024C79.7345 78.7563 79.7255 78.6726 79.7719 78.6155C79.818 78.5586 79.9018 78.5499 79.959 78.596L81.4816 79.8299C81.6453 79.9626 81.7443 80.1541 81.7604 80.3694C81.7658 80.4426 81.7108 80.5064 81.6376 80.5118C81.634 80.5122 81.6307 80.5123 81.6275 80.5123Z" fill="#0E185F"/>
<path d="M83.3728 80.3272C83.303 80.3272 83.2444 80.2729 83.2401 80.2024C83.2301 80.0375 83.1571 79.8892 83.0342 79.7849L80.3397 77.492C80.2838 77.4443 80.2771 77.3605 80.3246 77.3045C80.3723 77.2485 80.4562 77.2421 80.5122 77.2895L83.2067 79.5824C83.3851 79.7341 83.4913 79.9487 83.5056 80.1862C83.5101 80.2596 83.4542 80.3226 83.3809 80.3269C83.3783 80.3271 83.3756 80.3272 83.3728 80.3272Z" fill="#0E185F"/>
<path d="M84.2948 78.9958C84.2646 78.9958 84.234 78.9856 84.2091 78.9644L80.7776 76.0667C80.7215 76.0193 80.7145 75.9354 80.7619 75.8793C80.8093 75.8232 80.8931 75.8159 80.9494 75.8636L84.3809 78.7614C84.437 78.8087 84.444 78.8925 84.3966 78.9487C84.3703 78.9799 84.3326 78.9958 84.2948 78.9958Z" fill="#0E185F"/>
<path d="M52.1564 81.3705C52.0984 81.3705 52.0453 81.3326 52.0286 81.274C52.0084 81.2034 52.0495 81.1299 52.1201 81.1098L54.2197 80.5129C54.2898 80.4928 54.3639 80.5336 54.3841 80.6044C54.4042 80.675 54.3632 80.7485 54.2925 80.7686L52.1929 81.3655C52.1808 81.3689 52.1684 81.3705 52.1564 81.3705Z" fill="#0E185F"/>
<path d="M54.231 80.0214C54.1597 80.0214 54.1006 79.9648 54.0982 79.8929L53.6641 66.8953C53.6617 66.8219 53.7192 66.7605 53.7926 66.7581C53.8602 66.7531 53.9276 66.813 53.93 66.8865L54.364 79.8841C54.3665 79.9575 54.309 80.019 54.2355 80.0213C54.2341 80.0214 54.2325 80.0214 54.231 80.0214Z" fill="#0E185F"/>
<path d="M87.5107 82.109C87.454 82.109 87.3963 82.0977 87.3408 82.0738C87.1236 81.9796 87.0234 81.7266 87.1173 81.5095L87.2661 81.1659C87.2955 81.0987 87.3731 81.0679 87.4411 81.0968C87.5085 81.1259 87.5394 81.2042 87.5103 81.2716L87.3615 81.6152C87.3257 81.6977 87.364 81.794 87.4466 81.8297C87.5295 81.8653 87.6254 81.8274 87.6612 81.7447L87.8369 81.339C87.8661 81.2717 87.944 81.2404 88.0119 81.2698C88.0793 81.2989 88.1102 81.3773 88.0812 81.4446L87.9054 81.8504C87.8354 82.0121 87.6769 82.109 87.5107 82.109Z" fill="#0E185F"/>
<path d="M65.6028 57.6829L63.8817 54.9624C63.8785 54.9573 63.8735 54.9544 63.8697 54.9499C63.8681 54.948 63.8663 54.9461 63.8646 54.9443C63.8599 54.9393 63.8563 54.9336 63.851 54.9294C63.8495 54.9283 63.8482 54.927 63.8466 54.9258C63.84 54.921 63.8324 54.919 63.8251 54.9157C63.8182 54.9124 63.812 54.9083 63.8046 54.9062C63.8032 54.9058 63.8021 54.9047 63.8007 54.9044L62.7468 54.6494C62.6761 54.6323 62.6035 54.6759 62.5862 54.7472C62.569 54.8186 62.6127 54.8904 62.6842 54.9077L63.6467 55.1405L63.8464 57.0797L63.8789 57.395L63.9768 58.3448L62.6906 56.6775L62.6905 56.6773L62.6902 56.6771L62.6893 56.6759C62.6826 56.6672 62.6736 56.6617 62.6654 56.6552C62.6602 56.6511 62.6561 56.6454 62.6505 56.6421C62.6364 56.634 62.6209 56.6289 62.605 56.6263C62.6043 56.6262 62.6035 56.6257 62.6028 56.6256C62.5887 56.6235 62.5743 56.625 62.5601 56.6276C62.5573 56.6281 62.5544 56.6275 62.5516 56.6281C62.542 56.6305 62.5335 56.6363 62.5245 56.641C62.5177 56.6444 62.5105 56.6459 62.5041 56.6505C62.4056 56.7244 60.1946 58.3893 59.7782 59.5827C58.9941 59.1101 55.3402 56.8689 53.9631 55.3357C53.543 54.8682 53.4522 54.5984 53.4501 54.4543C53.4482 54.3381 53.4524 54.2193 53.4632 54.0807C53.4689 54.0075 53.4141 53.9436 53.3409 53.9379C53.2662 53.9321 53.2036 53.9871 53.1979 54.0602C53.1865 54.2073 53.1821 54.3339 53.184 54.4585C53.1883 54.7379 53.3784 55.0829 53.7651 55.5134C55.3313 57.2571 59.6106 59.794 59.792 59.9011C59.8127 59.9133 59.8361 59.9196 59.8596 59.9196C59.8781 59.9196 59.8966 59.9157 59.914 59.9078C59.9534 59.8902 59.9818 59.8544 59.9901 59.8121C60.1802 58.8434 62.0933 57.3058 62.5596 56.9434L64.0514 58.8773C64.0772 58.9107 64.1165 58.9291 64.1568 58.9291C64.1733 58.9291 64.19 58.926 64.206 58.9196C64.2614 58.8976 64.2952 58.8416 64.2891 58.7825L64.1629 57.5566L64.2231 57.5718L65.458 57.8829C65.4687 57.8856 65.4796 57.8869 65.4905 57.8869C65.5325 57.8869 65.5729 57.867 65.5982 57.832C65.63 57.788 65.6318 57.7289 65.6028 57.6829ZM64.288 57.3139L64.1338 57.2752L64.1109 57.0525L63.9596 55.5832L65.1999 57.5437L64.288 57.3139Z" fill="#0E185F"/>
<path d="M43.6799 81.048C43.6232 81.048 43.5708 81.0116 43.553 80.9548C43.531 80.8847 43.57 80.8101 43.6401 80.7883L54.1288 77.5064C54.1991 77.4838 54.2737 77.5234 54.2955 77.5934C54.3174 77.6635 54.2784 77.7381 54.2083 77.76L43.7196 81.0421C43.7064 81.0461 43.693 81.048 43.6799 81.048Z" fill="white"/>
<path d="M63.3139 180.426C60.2591 180.426 60.6238 177.738 60.6238 177.738H60.1276H59.7461L59.9057 186.896H60.3846H77.8584H83.6032V186.203C83.6032 184.679 82.6433 183.32 81.2062 182.81C80.317 182.494 79.5873 181.842 79.1737 180.994L77.5848 177.738H77.2939H67.1894C67.1894 177.738 66.3687 180.426 63.3139 180.426Z" fill="#303562"/>
<path d="M60.1254 177.728H60.6216C60.6216 177.728 60.2569 180.416 63.3117 180.416C66.3664 180.416 67.1872 177.728 67.1872 177.728H77.2917L77.1105 174.789H60.043L60.1254 177.728Z" fill="#FCB0AA"/>
<path d="M30.4805 177.728H30.91C30.91 177.728 30.5453 180.416 33.6001 180.416C36.6549 180.416 37.4756 177.728 37.4756 177.728H47.871H47.8789L49.0519 174.789H31.5131L30.4805 177.728Z" fill="#FCB0AA"/>
<path d="M37.4731 177.738C37.4731 177.738 36.6524 180.426 33.5977 180.426C30.5429 180.426 30.9076 177.738 30.9076 177.738H30.478H30.0299L26.6445 186.896H27.2601H44.2211H53.887V186.203C53.887 184.679 52.927 183.32 51.49 182.81C50.6009 182.494 49.8711 181.842 49.4575 180.995L47.873 177.747L47.8687 177.738L37.4731 177.738Z" fill="#303562"/>
<path d="M47.8526 177.748L47.8566 177.738H47.8477L47.8526 177.748Z" fill="#29ABE2"/>
<path d="M47.4176 98.8633L46.1409 133.169L31.5156 174.786H49.0544L59.3383 149.024L60.061 174.786H77.1286L72.4485 98.8633C72.4486 100.564 47.4176 100.564 47.4176 98.8633Z" fill="#1D5BBF"/>
<path d="M76.9327 171.849H63.443L62.8314 140.592L63.7505 138.29C63.7557 138.277 63.7588 138.263 63.7598 138.249L65.5361 111.475L67.4277 107.696C67.4606 107.631 67.434 107.551 67.3683 107.518C67.3026 107.485 67.2227 107.512 67.1898 107.578L65.2863 111.38C65.2783 111.396 65.2737 111.413 65.2725 111.43L63.4958 138.21L62.5746 140.518C62.5745 140.518 62.5745 140.519 62.5744 140.519L59.1931 148.989C59.1659 149.058 59.1991 149.135 59.2674 149.162C59.2836 149.169 59.3002 149.172 59.3167 149.172C59.3694 149.172 59.4194 149.14 59.4402 149.088L62.5778 141.228L63.1771 171.849H59.9602C59.8867 171.849 59.8272 171.908 59.8272 171.982C59.8272 172.055 59.8867 172.115 59.9602 172.115H63.3127H63.3153H76.933C77.0065 172.115 77.066 172.055 77.066 171.982C77.066 171.908 77.0063 171.849 76.9327 171.849Z" fill="white"/>
<path d="M72.5399 101.186C53.4881 104.011 47.4844 100.489 47.426 100.454C47.3631 100.415 47.2813 100.434 47.243 100.497C47.2044 100.559 47.2237 100.641 47.286 100.68C47.3894 100.744 48.536 101.42 51.3283 101.944C51.2749 101.962 51.2355 102.01 51.2355 102.069V131.068C51.2355 132.85 50.9097 134.595 50.2671 136.257L36.5049 171.839H32.508C32.4345 171.839 32.375 171.898 32.375 171.972C32.375 172.045 32.4345 172.105 32.508 172.105H50.1813C50.2549 172.105 50.3143 172.045 50.3143 171.972C50.3143 171.898 50.2549 171.839 50.1813 171.839H36.7901L50.5152 136.353C51.1697 134.661 51.5016 132.883 51.5016 131.068V102.069C51.5016 102.027 51.4809 101.991 51.4505 101.967C53.2675 102.3 55.7598 102.567 59.0929 102.567C62.5991 102.567 67.0334 102.272 72.5788 101.449C72.6515 101.438 72.7017 101.371 72.6909 101.298C72.6802 101.226 72.6127 101.176 72.5399 101.186Z" fill="white"/>
<path d="M53.8649 185.684H26.9651C26.8915 185.684 26.832 185.624 26.832 185.551C26.832 185.477 26.8915 185.418 26.9651 185.418H53.8649C53.9385 185.418 53.9979 185.477 53.9979 185.551C53.9979 185.624 53.9385 185.684 53.8649 185.684Z" fill="white"/>
<path d="M83.5493 185.684H59.8869C59.8134 185.684 59.7539 185.624 59.7539 185.551C59.7539 185.477 59.8134 185.418 59.8869 185.418H83.5493C83.6229 185.418 83.6824 185.477 83.6824 185.551C83.6824 185.624 83.6228 185.684 83.5493 185.684Z" fill="#303562"/>
<path d="M60.307 49.7554C61.1077 49.7554 61.8737 49.6084 62.581 49.3418C65.0185 48.4231 66.7528 46.0717 66.7528 43.3145V37.1596C64.5033 38.2293 57.4858 35.8828 57.4858 35.8828C56.9729 37.147 55.3657 37.0787 55.3657 37.0787C55.3657 38.0685 54.8612 38.9644 54.4364 39.5448C54.1279 39.9661 53.8611 40.2222 53.8611 40.2222V39.1617C53.7125 39.1056 53.5569 39.0729 53.3954 39.0729C52.8211 39.0729 52.3118 39.4539 51.9867 40.0425C51.7559 40.4604 51.6172 40.9822 51.6172 41.5502C51.6172 42.9183 52.4133 44.0274 53.3953 44.0274C53.5568 44.0274 53.7124 43.9948 53.861 43.9386C53.871 43.9349 53.8811 43.932 53.8909 43.928C54.2002 47.1973 56.9542 49.7554 60.307 49.7554Z" fill="#FCB0AA"/>
<path d="M53.3945 39.072C53.556 39.072 53.7116 39.1046 53.8603 39.1608V40.2213C53.8603 40.2213 54.1271 39.9652 54.4355 39.5438C54.8604 38.9634 55.3648 38.0676 55.3648 37.0778C55.3648 37.0778 56.972 37.1461 57.4849 35.8819C57.4849 35.8819 64.5024 38.2284 66.7519 37.1587C66.9143 37.0814 67.054 36.9879 67.1623 36.8728C68.7695 35.1644 68.7011 28.5356 60.3061 29.4924C56.018 29.9811 54.0478 31.1826 53.1437 32.2416C52.4247 32.0238 50.371 31.6354 49.8935 34.1051C49.4445 36.4277 51.1747 38.9934 51.9858 40.0416C52.3109 39.453 52.8201 39.072 53.3945 39.072Z" fill="#0E185F"/>
<path d="M54.5889 53.6864C56.4582 54.4381 62.5792 56.7616 62.5792 56.7616V55.4404V54.7513V49.3435C61.8719 49.6101 61.1059 49.7571 60.3052 49.7571C56.9524 49.7571 54.1984 47.199 53.8892 43.9297C53.8794 43.9337 53.8693 43.9367 53.8594 43.9403V52.4527V52.6415V53.3146C54.0153 53.4258 54.2487 53.5496 54.5889 53.6864Z" fill="#FCB0AA"/>
<path d="M60.3068 49.9021C56.8942 49.9021 54.0791 47.3451 53.7584 43.9543C53.7514 43.8812 53.8052 43.8164 53.8783 43.8095C53.9497 43.8007 54.0162 43.8562 54.0232 43.9293C54.331 47.1827 57.0323 49.6363 60.3068 49.6363C61.0712 49.6363 61.8206 49.5 62.5338 49.2313C62.6026 49.205 62.6793 49.2399 62.7052 49.3088C62.7312 49.3774 62.6964 49.4542 62.6277 49.48C61.8843 49.76 61.1035 49.9021 60.3068 49.9021Z" fill="#0E185F"/>
<path d="M53.7947 41.8345C53.7953 41.8293 53.7945 41.8243 53.7944 41.8191C53.7776 41.264 53.3741 40.853 53.3678 40.8467C53.3157 40.7956 53.2318 40.7957 53.1801 40.8479C53.1284 40.9 53.1288 40.9839 53.1807 41.0357C53.1982 41.053 53.4275 41.2886 53.5044 41.6268C53.3734 41.5965 53.1993 41.5818 53.0247 41.6438C52.8187 41.7167 52.6605 41.8762 52.5542 42.1177C52.5247 42.185 52.5554 42.2633 52.6226 42.2929C52.64 42.3005 52.6582 42.3041 52.676 42.3041C52.7271 42.3041 52.776 42.2745 52.798 42.2247C52.8731 42.0536 52.9788 41.9427 53.1119 41.8949C53.2692 41.8388 53.4342 41.8776 53.5272 41.9094C53.5116 42.1257 53.4178 42.365 53.1794 42.6077C53.1279 42.66 53.1288 42.7442 53.1812 42.7956C53.2071 42.8209 53.2407 42.8336 53.2744 42.8336C53.3089 42.8336 53.3432 42.8204 53.3694 42.7938C53.6979 42.4594 53.7997 42.1278 53.7947 41.8345Z" fill="#0E185F"/>
<defs>
<linearGradient id="paint0_linear_742_26722" x1="80.895" y1="24.6651" x2="109.675" y2="84.544" gradientUnits="userSpaceOnUse">
<stop stop-color="#F07295"/>
<stop offset="0.9895" stop-color="#F0324B"/>
</linearGradient>
<linearGradient id="paint1_linear_742_26722" x1="137.34" y1="76.3853" x2="137.34" y2="288.778" gradientUnits="userSpaceOnUse">
<stop stop-color="#F07295"/>
<stop offset="0.9895" stop-color="#F0324B"/>
</linearGradient>
<linearGradient id="paint2_linear_742_26722" x1="35.0111" y1="51.7026" x2="17.5972" y2="106.732" gradientUnits="userSpaceOnUse">
<stop stop-color="#F07295"/>
<stop offset="0.9895" stop-color="#F0324B"/>
</linearGradient>
</defs>
</svg>
