<svg xmlns="http://www.w3.org/2000/svg" width="22" height="23" viewBox="0 0 22 23" fill="none">
<path d="M20.6524 19.5351L17.8087 16.6914C18.5189 14.866 17.9789 12.6246 16.3633 11.3385V3.28516H12.9903V1.73828H10.5122L9.26772 0.835938H7.14189L5.81145 1.73828H3.4082V3.28516H0.0351562V22.8359H16.3633V20.715L17.9179 22.2696C18.2949 22.6465 18.79 22.835 19.2852 22.835C20.9834 22.8466 21.8697 20.7466 20.6524 19.5351ZM15.8228 17.44C12.4684 20.5277 7.87932 15.9371 10.9667 12.5839C11.6361 11.9144 12.5155 11.5798 13.3947 11.5798C16.4108 11.5595 17.9844 15.2883 15.8228 17.44ZM4.69727 3.02734H6.20736L7.53784 2.125H8.84951L10.094 3.02734H11.7012V4.57422H4.69727V3.02734ZM15.0742 21.5469H1.32422V4.57422H3.4082V5.86328H12.9902V4.57422H15.0742V10.5981C10.3443 8.85648 6.498 14.6845 10.0553 18.3515C11.4029 19.6937 13.3558 20.0708 15.0742 19.4259L15.0742 19.4259V21.5469ZM19.7409 21.3581C19.501 21.6081 19.0694 21.6081 18.8294 21.3581L16.2474 18.776C16.5857 18.5205 16.9034 18.2029 17.1588 17.8645L19.7409 20.4466C19.991 20.6865 19.991 21.1182 19.7409 21.3581Z" fill="#353F4F"/>
</svg>