<svg width="22" height="11" viewBox="0 0 22 11" fill="none" xmlns="http://www.w3.org/2000/svg">
<path d="M20.8961 4.94775L16.1155 0.167113C15.9437 -0.0334156 15.6419 -0.056792 15.4414 0.114978C15.2409 0.286707 15.2175 0.588506 15.3893 0.789034C15.4053 0.807727 15.4227 0.825187 15.4414 0.841169L19.4045 4.80909H0.478047C0.214045 4.80909 0 5.02313 0 5.28718C0 5.55122 0.214045 5.76523 0.478047 5.76523H19.4045L15.4414 9.72834C15.2409 9.90007 15.2175 10.2019 15.3893 10.4024C15.5611 10.6029 15.8628 10.6263 16.0633 10.4545C16.082 10.4385 16.0995 10.4211 16.1155 10.4024L20.8961 5.62176C21.0814 5.43537 21.0814 5.13422 20.8961 4.94775Z" fill="white"/>
</svg>
