<svg width="26" height="14" viewBox="0 0 26 14" fill="none" xmlns="http://www.w3.org/2000/svg">
<path d="M25.0494 4.55678L20.8565 0.320483C20.7557 0.218933 20.6359 0.13833 20.5039 0.0833247C20.3718 0.0283193 20.2302 0 20.0872 0C19.9442 0 19.8026 0.0283193 19.6705 0.0833247C19.5385 0.13833 19.4187 0.218933 19.318 0.320483C19.1162 0.523482 19.0029 0.798085 19.0029 1.08432C19.0029 1.37055 19.1162 1.64515 19.318 1.84815L23.175 5.73775H1.08345C0.796103 5.73775 0.520523 5.8519 0.317336 6.05508C0.114149 6.25827 0 6.53385 0 6.8212C0 7.10855 0.114149 7.38413 0.317336 7.58732C0.520523 7.7905 0.796103 7.90465 1.08345 7.90465H23.2401L19.318 11.8159C19.2164 11.9166 19.1358 12.0365 19.0808 12.1685C19.0258 12.3005 18.9975 12.4421 18.9975 12.5852C18.9975 12.7282 19.0258 12.8698 19.0808 13.0018C19.1358 13.1339 19.2164 13.2537 19.318 13.3544C19.4187 13.456 19.5385 13.5366 19.6705 13.5916C19.8026 13.6466 19.9442 13.6749 20.0872 13.6749C20.2302 13.6749 20.3718 13.6466 20.5039 13.5916C20.6359 13.5366 20.7557 13.456 20.8565 13.3544L25.0494 9.15062C25.6581 8.54118 26 7.71505 26 6.8537C26 5.99235 25.6581 5.16623 25.0494 4.55678Z" fill="#1D5BBF"/>
</svg>
