<svg width="25" height="25" viewBox="0 0 25 25" fill="none" xmlns="http://www.w3.org/2000/svg">
<path d="M6.89161 5.60204C6.52302 5.23942 5.92468 5.23942 5.55559 5.60204C4.1861 6.9475 3.51335 8.82144 3.70913 10.7439C3.75808 11.2229 4.16862 11.5801 4.64809 11.5801C4.67956 11.5801 4.71152 11.5786 4.74299 11.5752C5.26241 11.5241 5.64099 11.0688 5.58905 10.559C5.44971 9.1924 5.92468 7.86411 6.89161 6.91414C7.2607 6.55201 7.2607 5.96417 6.89161 5.60155V5.60204Z" fill="#00AEBD"/>
<path d="M24.7264 23.4076L17.9511 16.6326C17.5868 16.2683 16.9968 16.2683 16.6326 16.6326C16.2683 16.9963 16.2683 17.5868 16.6326 17.951L23.4079 24.726C23.5903 24.9084 23.8283 24.9991 24.0669 24.9991C24.3055 24.9991 24.544 24.9079 24.7259 24.726C25.0901 24.3623 25.0901 23.7718 24.7259 23.4076H24.7264Z" fill="#1D5BBF"/>
<path d="M10.5699 0C4.74148 0 0 4.74148 0 10.5699C0 16.3982 4.74148 21.1397 10.5699 21.1397C16.3982 21.1397 21.1397 16.3982 21.1397 10.5699C21.1397 4.74148 16.3977 0 10.5699 0ZM10.5699 19.2904C5.76093 19.2904 1.84928 15.3783 1.84928 10.5699C1.84928 5.76142 5.76093 1.8488 10.5699 1.8488C15.3788 1.8488 19.2904 5.76093 19.2904 10.5694C19.2904 15.3778 15.3783 19.2899 10.5699 19.2899V19.2904Z" fill="#1D5BBF"/>
</svg>
