<svg width="40" height="40" viewBox="0 0 40 40" fill="none" xmlns="http://www.w3.org/2000/svg">
<rect width="40" height="40" rx="3" fill="#EEF5FF"/>
<path d="M32.4439 17.3241L29.5764 16.6191C29.404 16.0756 29.1824 15.5483 28.9148 15.044C29.3454 14.3272 30.2502 12.819 30.2502 12.819C30.4235 12.5309 30.3776 12.1618 30.1398 11.9245L28.0686 9.85335C27.8314 9.61508 27.4627 9.56967 27.1737 9.743L24.9453 11.0784C24.4439 10.8133 23.9195 10.5935 23.3795 10.4227L22.6744 7.55514C22.5929 7.22899 22.3004 7 21.964 7H19.0345C18.6986 7 18.4052 7.22899 18.3241 7.55514C18.3241 7.55514 17.8354 9.55649 17.6196 10.4222C17.0439 10.6048 16.4873 10.8411 15.9575 11.1301L13.6466 9.74349C13.3576 9.57163 12.9899 9.61606 12.7522 9.85384L10.681 11.925C10.4437 12.1623 10.3978 12.5314 10.5707 12.82L11.9998 15.2065C11.7693 15.6606 11.5765 16.1333 11.4227 16.6176L8.55514 17.3251C8.22899 17.4066 8 17.6991 8 18.0355V20.965C8 21.3014 8.22899 21.5944 8.55514 21.6754L11.4231 22.3804C11.597 22.9317 11.823 23.4678 12.0969 23.9819L10.8182 26.1131C10.6454 26.4012 10.6908 26.7703 10.9285 27.0081L12.9997 29.0793C13.2365 29.3161 13.6056 29.361 13.8942 29.1896C13.8942 29.1896 15.3282 28.3298 16.0308 27.9094C16.5391 28.1804 17.0712 28.4045 17.62 28.5783L18.3246 31.4449C18.4052 31.771 18.6986 32 19.0345 32H21.964C22.3004 32 22.5929 31.771 22.6744 31.4449L23.379 28.5783C23.9434 28.3996 24.4868 28.1687 25.0039 27.8879C25.7255 28.3205 27.1737 29.1896 27.1737 29.1896C27.4618 29.362 27.8309 29.3175 28.0686 29.0793L30.1398 27.0081C30.3771 26.7708 30.423 26.4017 30.2502 26.1131L28.9333 23.9194C29.1931 23.4268 29.4084 22.9112 29.5764 22.3804L32.4439 21.6754C32.77 21.5939 32.999 21.3014 32.999 20.965V18.0355C32.999 17.6996 32.77 17.4066 32.4439 17.3251V17.3241ZM20.4998 24.6259C17.6733 24.6259 15.3731 22.3258 15.3731 19.4993C15.3731 16.6728 17.6733 14.3726 20.4998 14.3726C23.3263 14.3726 25.6264 16.6728 25.6264 19.4993C25.6264 22.3258 23.3263 24.6259 20.4998 24.6259Z" fill="#00AEBD"/>
<path d="M20.5022 23.1763C22.5314 23.1763 24.1763 21.5314 24.1763 19.5022C24.1763 17.4731 22.5314 15.8281 20.5022 15.8281C18.4731 15.8281 16.8281 17.4731 16.8281 19.5022C16.8281 21.5314 18.4731 23.1763 20.5022 23.1763Z" fill="#1D5BBF"/>
</svg>
