<svg width="20" height="19" viewBox="0 0 20 19" fill="none" xmlns="http://www.w3.org/2000/svg">
<path d="M15.1276 11.0837C14.5494 11.0858 13.9787 11.2154 13.4563 11.4632C12.9339 11.711 12.4725 12.071 12.105 12.5174L7.83002 10.5873C7.93877 10.235 7.99688 9.86903 8.0026 9.50037C7.99747 9.1357 7.94125 8.77355 7.83556 8.42449L12.1058 6.48491C12.705 7.19005 13.5334 7.66157 14.4456 7.81666C15.3579 7.97175 16.2956 7.8005 17.0941 7.33298C17.8927 6.86546 18.5009 6.13156 18.8122 5.26015C19.1234 4.38874 19.1177 3.43554 18.7961 2.56792C18.4744 1.7003 17.8574 0.973734 17.0533 0.515806C16.2492 0.0578781 15.3096 -0.102135 14.3992 0.0638642C13.4889 0.229864 12.6662 0.711263 12.0755 1.42353C11.4848 2.13579 11.164 3.03339 11.1693 3.9587C11.1693 4.07112 11.193 4.1772 11.2025 4.28724L6.49844 6.42237C5.80494 5.85724 4.93886 5.54657 4.04427 5.54203C2.99446 5.54203 1.98764 5.95907 1.24531 6.7014C0.502975 7.44373 0.0859375 8.45055 0.0859375 9.50037C0.0859375 10.5502 0.502975 11.557 1.24531 12.2993C1.98764 13.0417 2.99446 13.4587 4.04427 13.4587C4.93499 13.4551 5.79786 13.1479 6.49052 12.5879L11.2025 14.7151C11.193 14.8251 11.1693 14.9304 11.1693 15.042C11.1693 15.8249 11.4014 16.5902 11.8364 17.2412C12.2713 17.8921 12.8895 18.3995 13.6128 18.6991C14.3361 18.9987 15.132 19.077 15.8998 18.9243C16.6677 18.7716 17.373 18.3946 17.9266 17.841C18.4802 17.2874 18.8571 16.5821 19.0099 15.8143C19.1626 15.0464 19.0842 14.2505 18.7846 13.5272C18.485 12.804 17.9777 12.1857 17.3267 11.7508C16.6758 11.3159 15.9105 11.0837 15.1276 11.0837ZM15.1276 2.37537C15.4408 2.37537 15.7469 2.46823 16.0073 2.64221C16.2676 2.81618 16.4706 3.06347 16.5904 3.35278C16.7103 3.6421 16.7416 3.96046 16.6805 4.26759C16.6194 4.57473 16.4686 4.85685 16.2472 5.07829C16.0258 5.29972 15.7436 5.45052 15.4365 5.51161C15.1294 5.5727 14.811 5.54135 14.5217 5.42151C14.2324 5.30167 13.9851 5.09873 13.8111 4.83835C13.6371 4.57797 13.5443 4.27185 13.5443 3.9587C13.5443 3.53877 13.7111 3.13605 14.008 2.83911C14.305 2.54218 14.7077 2.37537 15.1276 2.37537ZM4.04427 11.0837C3.73112 11.0837 3.425 10.9908 3.16462 10.8169C2.90424 10.6429 2.7013 10.3956 2.58146 10.1063C2.46162 9.81696 2.43027 9.49861 2.49136 9.19147C2.55245 8.88434 2.70325 8.60221 2.92468 8.38078C3.14612 8.15935 3.42824 8.00855 3.73538 7.94746C4.04251 7.88636 4.36087 7.91772 4.65019 8.03756C4.9395 8.1574 5.18679 8.36034 5.36076 8.62071C5.53474 8.88109 5.6276 9.18721 5.6276 9.50037C5.6276 9.92029 5.46079 10.323 5.16386 10.62C4.86692 10.9169 4.4642 11.0837 4.04427 11.0837ZM15.1276 16.6254C14.8144 16.6254 14.5083 16.5325 14.2479 16.3585C13.9876 16.1845 13.7846 15.9373 13.6648 15.6479C13.545 15.3586 13.5136 15.0403 13.5747 14.7331C13.6358 14.426 13.7866 14.1439 14.008 13.9224C14.2295 13.701 14.5116 13.5502 14.8187 13.4891C15.1258 13.428 15.4442 13.4594 15.7335 13.5792C16.0228 13.6991 16.2701 13.902 16.4441 14.1624C16.6181 14.4228 16.7109 14.7289 16.7109 15.042C16.7109 15.462 16.5441 15.8647 16.2472 16.1616C15.9503 16.4585 15.5475 16.6254 15.1276 16.6254Z" fill="#18283D"/>
</svg>
