<svg width="14" height="15" viewBox="0 0 14 15" fill="none" xmlns="http://www.w3.org/2000/svg">
<path d="M11.1035 8.28232C10.6822 8.28389 10.2665 8.3783 9.88584 8.55885C9.50521 8.73939 9.16906 9.00163 8.90132 9.32689L5.78667 7.92068C5.8659 7.66399 5.90823 7.39735 5.91241 7.12875C5.90867 6.86306 5.8677 6.59921 5.7907 6.34489L8.9019 4.93177C9.33843 5.44552 9.94201 5.78905 10.6066 5.90204C11.2713 6.01504 11.9545 5.89027 12.5362 5.54965C13.118 5.20902 13.5612 4.67432 13.788 4.03944C14.0148 3.40455 14.0106 2.71007 13.7762 2.07795C13.5419 1.44582 13.0923 0.916468 12.5065 0.582834C11.9207 0.2492 11.2361 0.132618 10.5728 0.253561C9.9096 0.374504 9.31018 0.725239 8.87982 1.24418C8.44947 1.76312 8.2157 2.41708 8.21956 3.09124C8.21956 3.17314 8.23686 3.25043 8.24378 3.3306L4.81651 4.8862C4.31124 4.47446 3.68024 4.24811 3.02847 4.24481C2.2636 4.24481 1.53006 4.54865 0.989217 5.0895C0.448374 5.63034 0.144531 6.36388 0.144531 7.12875C0.144531 7.89362 0.448374 8.62716 0.989217 9.168C1.53006 9.70884 2.2636 10.0127 3.02847 10.0127C3.67742 10.01 4.30609 9.78623 4.81074 9.37822L8.24378 10.928C8.23686 11.0082 8.21956 11.0849 8.21956 11.1663C8.21956 11.7367 8.3887 12.2942 8.70559 12.7685C9.02248 13.2428 9.47289 13.6124 9.99986 13.8307C10.5268 14.049 11.1067 14.1061 11.6661 13.9948C12.2256 13.8835 12.7394 13.6088 13.1427 13.2055C13.5461 12.8022 13.8207 12.2883 13.932 11.7289C14.0433 11.1695 13.9862 10.5896 13.7679 10.0626C13.5496 9.53566 13.18 9.08525 12.7057 8.76836C12.2315 8.45146 11.6739 8.28232 11.1035 8.28232ZM11.1035 1.93766C11.3316 1.93766 11.5547 2.00532 11.7444 2.13207C11.9341 2.25883 12.0819 2.43899 12.1693 2.64978C12.2566 2.86057 12.2794 3.09252 12.2349 3.31629C12.1904 3.54006 12.0805 3.74561 11.9192 3.90694C11.7579 4.06827 11.5523 4.17813 11.3285 4.22265C11.1048 4.26716 10.8728 4.24431 10.662 4.157C10.4513 4.06969 10.2711 3.92183 10.1443 3.73213C10.0176 3.54242 9.94992 3.31939 9.94992 3.09124C9.94992 2.78529 10.0715 2.49187 10.2878 2.27554C10.5041 2.0592 10.7975 1.93766 11.1035 1.93766ZM3.02847 8.28232C2.80031 8.28232 2.57728 8.21467 2.38758 8.08791C2.19787 7.96115 2.05002 7.78099 1.9627 7.5702C1.87539 7.35941 1.85255 7.12747 1.89706 6.9037C1.94157 6.67993 2.05144 6.47438 2.21277 6.31305C2.3741 6.15172 2.57965 6.04185 2.80342 5.99734C3.02719 5.95283 3.25913 5.97567 3.46992 6.06298C3.68071 6.1503 3.86087 6.29815 3.98763 6.48786C4.11439 6.67756 4.18204 6.90059 4.18204 7.12875C4.18204 7.4347 4.06051 7.72811 3.84417 7.94445C3.62783 8.16079 3.33442 8.28232 3.02847 8.28232ZM11.1035 12.3198C10.8753 12.3198 10.6523 12.2522 10.4626 12.1254C10.2729 11.9987 10.125 11.8185 10.0377 11.6077C9.95042 11.3969 9.92757 11.165 9.97208 10.9412C10.0166 10.7174 10.1265 10.5119 10.2878 10.3506C10.4491 10.1892 10.6547 10.0794 10.8784 10.0349C11.1022 9.99034 11.3342 10.0132 11.5449 10.1005C11.7557 10.1878 11.9359 10.3357 12.0627 10.5254C12.1894 10.7151 12.2571 10.9381 12.2571 11.1663C12.2571 11.4722 12.1355 11.7656 11.9192 11.982C11.7029 12.1983 11.4094 12.3198 11.1035 12.3198Z" fill="#00AEBD"/>
</svg>
