<svg width="182" height="76" viewBox="0 0 182 76" fill="none" xmlns="http://www.w3.org/2000/svg">
<path d="M22.2613 22.9398C24.823 20.3781 30.3738 14.7213 37.8455 17.4963C43.5471 19.6139 55.5647 24.6482 63.4639 26.9965L65.3168 26.6469C61.2456 12.8318 48.4744 2.74414 33.34 2.74414C14.9269 2.74414 0 17.671 0 36.0846C0 54.4981 14.9269 69.4245 33.34 69.4245C45.8227 69.4245 56.6967 62.5601 62.4104 52.4045C51.7867 52.2369 49.1952 44.1201 46.7053 45.6758C45.8425 46.2147 43.9376 47.4314 41.6783 48.6087L44.2419 51.6683C49.3007 57.993 43.0622 62.1243 43.0622 62.1243L41.479 60.3427C40.4895 62.8904 38.2813 64.3571 38.2813 64.3571L35.7557 61.5157C35.0749 62.1836 34.537 62.5423 34.537 62.5423L26.8516 53.8962L28.7728 46.4241C28.7728 46.4241 28.9317 46.4853 29.3554 46.6519C31.0812 41.517 40.0836 34.0622 42.7569 31.9335L41.9022 31.4794H31.5483C31.5483 31.4794 31.0152 33.5075 26.5314 36.4963C31.868 51.1203 20.5539 53.4686 20.5539 53.4686C20.5539 53.4686 16.9449 40.5733 15.0035 35.7485C13.1097 31.0441 19.6992 25.5014 22.2613 22.9398Z" fill="#E56031" style="fill:#E56031;fill:color(display-p3 0.8980 0.3765 0.1922);fill-opacity:1;"/>
<path d="M38.6838 50.0215C38.4691 50.111 38.2538 50.1982 38.0391 50.282L38.445 50.7674L38.6838 50.0215Z" fill="#E56031" stroke="#E56031" style="fill:#E56031;fill:color(display-p3 0.8980 0.3765 0.1922);fill-opacity:1;stroke:#E56031;stroke:color(display-p3 0.8980 0.3765 0.1922);stroke-opacity:1;" stroke-width="0.481513" stroke-miterlimit="10"/>
<path d="M22.3118 42.0976C27.7558 50.7437 32.7197 45.7802 32.7197 45.7802L38.8036 28.3278L28.8768 27.3672L21.6719 39.0554L22.3118 42.0976Z" fill="#043730" stroke="white" style="fill:#043730;fill:color(display-p3 0.0157 0.2157 0.1882);fill-opacity:1;stroke:white;stroke-opacity:1;" stroke-width="0.481513" stroke-miterlimit="10"/>
<path d="M68.6934 26.0089L63.4617 26.996C55.563 24.6476 43.5454 19.6129 37.8433 17.4957C30.3717 14.7207 24.8208 20.3776 22.2591 22.9392C19.6975 25.5013 13.108 31.0435 15.0008 35.7484C16.9423 40.5732 20.5512 53.4686 20.5512 53.4686C20.5512 53.4686 31.8653 51.1202 26.5287 36.4962C31.0126 33.5075 31.5456 31.4793 31.5456 31.4793H41.8996L70.0671 46.4346" fill="white" style="fill:white;fill-opacity:1;"/>
<path d="M68.6934 26.0089L63.4617 26.996C55.563 24.6476 43.5454 19.6129 37.8433 17.4957C30.3717 14.7207 24.8208 20.3776 22.2591 22.9392C19.6975 25.5013 13.108 31.0435 15.0008 35.7484C16.9423 40.5732 20.5512 53.4686 20.5512 53.4686C20.5512 53.4686 31.8653 51.1202 26.5287 36.4962C31.0126 33.5075 31.5456 31.4793 31.5456 31.4793H41.8996L70.0671 46.4346" stroke="#E56031" style="stroke:#E56031;stroke:color(display-p3 0.8980 0.3765 0.1922);stroke-opacity:1;" stroke-width="0.481513" stroke-miterlimit="10" stroke-linecap="round" stroke-linejoin="round"/>
<path d="M36.9922 55.2946L43.0626 62.1249C43.0626 62.1249 49.3011 57.9935 44.2423 51.6688L39.8403 46.416L36.9922 55.2946Z" fill="white" stroke="#E56031" style="fill:white;fill-opacity:1;stroke:#E56031;stroke:color(display-p3 0.8980 0.3765 0.1922);stroke-opacity:1;" stroke-width="0.481513" stroke-miterlimit="10"/>
<path d="M35.3906 58.3048L37.7505 61.1607C38.7343 62.3529 40.499 62.5205 41.6917 61.5353C42.883 60.5506 43.0501 58.7864 42.0663 57.5946L39.7074 54.7383L35.3906 58.3048Z" fill="#E56031" style="fill:#E56031;fill:color(display-p3 0.8980 0.3765 0.1922);fill-opacity:1;"/>
<path d="M31.2266 56.4209L38.2802 64.3562C38.2802 64.3562 45.5299 59.5546 39.6516 52.2077L34.536 46.1035L31.2266 56.4209Z" fill="white" stroke="#E56031" style="fill:white;fill-opacity:1;stroke:#E56031;stroke:color(display-p3 0.8980 0.3765 0.1922);stroke-opacity:1;" stroke-width="0.481513" stroke-miterlimit="10"/>
<path d="M30.8125 59.1286L33.1724 61.9849C34.1561 63.1767 35.9209 63.3447 37.1136 62.3595C38.3048 61.3753 38.4719 59.6106 37.4882 58.4184L35.1288 55.5625L30.8125 59.1286Z" fill="#E56031" style="fill:#E56031;fill:color(display-p3 0.8980 0.3765 0.1922);fill-opacity:1;"/>
<path d="M26.8516 53.8955L34.537 62.5415C34.537 62.5415 42.4352 57.3108 36.0311 49.3057C30.1605 46.9569 28.7728 46.4238 28.7728 46.4238L26.8516 53.8955Z" fill="white" stroke="#E56031" style="fill:white;fill-opacity:1;stroke:#E56031;stroke:color(display-p3 0.8980 0.3765 0.1922);stroke-opacity:1;" stroke-width="0.481513" stroke-miterlimit="10"/>
<path d="M26.9609 57.298L29.3208 60.1534C30.3046 61.3461 32.0688 61.5132 33.2615 60.5275C34.4533 59.5433 34.6199 57.779 33.6362 56.5873L31.2767 53.7305L26.9609 57.298Z" fill="#E56031" style="fill:#E56031;fill:color(display-p3 0.8980 0.3765 0.1922);fill-opacity:1;"/>
<path d="M36.5664 50.1597C36.5664 50.1597 48.5219 58.5924 63.7849 52.4006C79.0493 46.2098 50.3353 38.418 50.3353 38.418L39.5542 44.0743L36.5664 50.1597Z" fill="#043730" stroke="#E56031" style="fill:#043730;fill:color(display-p3 0.0157 0.2157 0.1882);fill-opacity:1;stroke:#E56031;stroke:color(display-p3 0.8980 0.3765 0.1922);stroke-opacity:1;" stroke-width="0.481513" stroke-miterlimit="10"/>
<path d="M46.6899 11.8691L17.3359 65.3359C19.2663 66.3938 21.3118 67.2691 23.4507 67.9317L50.5704 18.5362" fill="#043730" style="fill:#043730;fill:color(display-p3 0.0157 0.2157 0.1882);fill-opacity:1;"/>
<path d="M50.5719 18.5362L56.8412 7.11757L51.0395 3.94922L46.6914 11.8691" fill="#043730" style="fill:#043730;fill:color(display-p3 0.0157 0.2157 0.1882);fill-opacity:1;"/>
<path d="M16.4852 67.8691L16.0234 75.1891L22.2167 70.5387C20.2107 69.8284 18.2943 68.9309 16.4852 67.8691Z" fill="#043730" style="fill:#043730;fill:color(display-p3 0.0157 0.2157 0.1882);fill-opacity:1;"/>
<path d="M77.768 46.2085C71.3634 47.4903 66.8795 52.1865 63.3577 52.3998C51.9362 52.7196 49.2677 44.0735 46.7056 45.675C44.1434 47.2765 32.4022 54.8541 29.4135 49.6249C26.4247 44.3947 43.5074 31.3438 43.5074 31.3438" fill="white" style="fill:white;fill-opacity:1;"/>
<path d="M77.768 46.2085C71.3634 47.4903 66.8795 52.1865 63.3577 52.3998C51.9362 52.7196 49.2677 44.0735 46.7056 45.675C44.1434 47.2765 32.4022 54.8541 29.4135 49.6249C26.4247 44.3947 43.5074 31.3438 43.5074 31.3438" stroke="#E56031" style="stroke:#E56031;stroke:color(display-p3 0.8980 0.3765 0.1922);stroke-opacity:1;" stroke-width="0.481513" stroke-miterlimit="10" stroke-linecap="round" stroke-linejoin="round"/>
<path d="M35.1481 42.7031L32.0848 44.7866C30.8063 45.6558 30.4746 47.3964 31.3447 48.6753C32.2133 49.9533 33.9545 50.2845 35.2329 49.4154L38.2963 47.3324L35.1481 42.7031Z" fill="#E56031" style="fill:#E56031;fill:color(display-p3 0.8980 0.3765 0.1922);fill-opacity:1;"/>
<path d="M15.7461 45.5199L16.6961 49.1009C17.0924 50.595 18.6251 51.4848 20.1197 51.0876C21.6138 50.6918 22.5032 49.1587 22.1069 47.665L21.1569 44.084L15.7461 45.5199Z" fill="#E56031" style="fill:#E56031;fill:color(display-p3 0.8980 0.3765 0.1922);fill-opacity:1;"/>
<path d="M20.9727 35.168C20.9727 35.168 23.3846 36.6322 26.5293 36.4955" stroke="#E56031" style="stroke:#E56031;stroke:color(display-p3 0.8980 0.3765 0.1922);stroke-opacity:1;" stroke-width="0.481513" stroke-miterlimit="10" stroke-linecap="round" stroke-linejoin="round"/>
<path d="M29.6758 28.666C29.6758 28.666 30.2136 30.4467 31.5474 31.48" stroke="#E56031" style="stroke:#E56031;stroke:color(display-p3 0.8980 0.3765 0.1922);stroke-opacity:1;" stroke-width="0.481513" stroke-miterlimit="10" stroke-linecap="round" stroke-linejoin="round"/>
<path d="M57.8522 5.77929L58.1825 5.18269C59.1171 3.49643 58.507 1.372 56.8203 0.43786C55.1345 -0.496275 53.0101 0.113321 52.0759 1.79958L51.7461 2.39617L57.8522 5.77929Z" fill="#E56031" style="fill:#E56031;fill:color(display-p3 0.8980 0.3765 0.1922);fill-opacity:1;"/>
<path d="M43.5078 31.3433C43.5078 31.3433 46.6116 29.3282 50.6246 29.4086" stroke="#E56031" style="stroke:#E56031;stroke:color(display-p3 0.8980 0.3765 0.1922);stroke-opacity:1;" stroke-width="0.481513" stroke-miterlimit="10" stroke-linecap="round"/>
<path d="M35.5741 31.5957L28.6523 44.3158" stroke="#E56031" style="stroke:#E56031;stroke:color(display-p3 0.8980 0.3765 0.1922);stroke-opacity:1;" stroke-width="0.481513" stroke-miterlimit="10" stroke-linecap="round"/>
<path d="M88.4304 34.5217C88.4304 35.0302 88.3071 35.9392 88.0606 37.249C87.8141 38.5433 87.5906 39.383 87.3903 39.7682C87.1438 39.7066 86.8202 39.5833 86.4196 39.3984H75.7185C75.3641 38.9362 75.1869 38.4508 75.1869 37.9423C75.7108 37.9423 76.096 37.8499 76.3425 37.665C76.589 37.4801 76.7123 37.1719 76.7123 36.7405V25.9007C76.7123 25.4846 76.589 25.1842 76.3425 24.9993C76.1114 24.8144 75.7339 24.7219 75.21 24.7219C75.21 24.2134 75.3872 23.7281 75.7416 23.2658H84.7093C84.9712 23.1426 85.2717 23.0501 85.6107 22.9885C85.9651 22.9114 86.2886 22.8729 86.5814 22.8729C86.8125 23.3198 87.0591 23.9361 87.321 24.7219C87.5983 25.5077 87.737 26.0779 87.737 26.4323C87.5521 26.6017 87.2362 26.7789 86.7894 26.9638C86.3426 27.1487 85.9574 27.272 85.6338 27.3336C85.4335 26.7635 85.1176 26.2705 84.6862 25.8544C84.2547 25.4384 83.7539 25.2304 83.1838 25.2304H80.5721V30.1072H82.2362C83.2378 30.1072 83.7385 29.5448 83.7385 28.4199C84.4319 28.4199 85.056 28.5817 85.6107 28.9053V33.2043C85.3641 33.3583 85.0791 33.4816 84.7555 33.5741C84.4319 33.6511 84.1006 33.6896 83.7617 33.6896C83.7617 33.1041 83.623 32.665 83.3456 32.3722C83.0683 32.0794 82.7062 31.9331 82.2593 31.9331H80.5721V37.3645H83.3687C84.0159 37.3645 84.5783 37.0949 85.056 36.5556C85.5336 36.0009 85.8341 35.3229 85.9574 34.5217H88.4304ZM101.656 38.8206C101.441 39.098 101.117 39.3137 100.686 39.4678C100.254 39.6219 99.7918 39.6989 99.2988 39.6989C98.8519 39.6989 98.4128 39.5987 97.9813 39.3984C97.5499 39.2135 97.2494 38.9516 97.0799 38.6126C96.7718 39.0132 96.3866 39.2906 95.9243 39.4447C95.4775 39.6142 94.9151 39.6989 94.2371 39.6989C93.3742 39.6989 92.5807 39.4832 91.8565 39.0517C91.1323 38.6049 90.5468 37.95 90.0999 37.0872C89.6685 36.2089 89.4528 35.138 89.4528 33.8745C89.4528 32.3799 89.7301 31.1087 90.2848 30.0609C90.8549 29.0132 91.6022 28.2273 92.5268 27.7034C93.4513 27.1796 94.4682 26.9176 95.5776 26.9176C95.8396 26.9176 96.3095 26.9484 96.9875 27.0101L96.9182 25.6233V24.4677C96.9182 24.0825 96.8103 23.7974 96.5946 23.6125C96.3789 23.4276 95.9705 23.3352 95.3696 23.3352V22.3875C95.9089 22.0948 96.61 21.8328 97.4729 21.6017C98.3357 21.3706 99.0137 21.255 99.5068 21.255C99.8612 21.255 100.115 21.3398 100.269 21.5093C100.439 21.6633 100.524 21.933 100.524 22.3182V36.8329C100.524 37.5879 100.894 38.0348 101.633 38.1735L101.656 38.8206ZM95.8319 37.7343C96.3095 37.7343 96.6716 37.5957 96.9182 37.3183V29.2289C96.5946 28.782 96.1631 28.5586 95.6238 28.5586C94.9459 28.5586 94.3989 28.913 93.9828 29.6218C93.5822 30.3306 93.3819 31.4785 93.3819 33.0656C93.3819 34.591 93.6053 35.7543 94.0522 36.5556C94.5144 37.3414 95.1077 37.7343 95.8319 37.7343ZM113.73 36.6943C113.73 37.0641 113.823 37.3722 114.008 37.6188C114.208 37.8653 114.485 38.004 114.84 38.0348V38.6819C114.593 38.9593 114.208 39.175 113.684 39.3291C113.176 39.4832 112.66 39.5602 112.136 39.5602C111.612 39.5602 111.165 39.4216 110.795 39.1442C110.425 38.8668 110.179 38.4816 110.056 37.9886C109.316 39.0363 108.26 39.5602 106.889 39.5602C105.81 39.5602 104.971 39.2289 104.37 38.5664C103.769 37.9038 103.468 37.0101 103.468 35.8853V29.5293C103.468 29.2674 103.368 29.0825 103.168 28.9746C102.983 28.8668 102.706 28.8129 102.336 28.8129V27.7959C102.567 27.611 103.006 27.4261 103.653 27.2412C104.316 27.0563 105.017 26.9638 105.757 26.9638C106.188 26.9638 106.504 26.9947 106.704 27.0563C106.904 27.1025 107.043 27.2104 107.12 27.3799C107.197 27.5494 107.236 27.819 107.236 28.1888V35.9547C107.236 36.4323 107.313 36.7944 107.467 37.0409C107.636 37.2721 107.906 37.3876 108.276 37.3876C108.584 37.3876 108.884 37.2952 109.177 37.1103C109.485 36.91 109.747 36.6711 109.963 36.3938V29.5293C109.963 29.0517 109.532 28.8129 108.669 28.8129V27.7959C108.915 27.5956 109.362 27.4107 110.009 27.2412C110.672 27.0563 111.396 26.9638 112.182 26.9638C112.814 26.9638 113.23 27.0409 113.43 27.195C113.63 27.3336 113.73 27.6649 113.73 28.1888V36.6943ZM124.877 36.4631C125 36.6018 125.1 36.7867 125.177 37.0178C125.27 37.249 125.316 37.4493 125.316 37.6188C125.316 37.9578 125.139 38.289 124.784 38.6126C124.43 38.9362 123.952 39.2058 123.351 39.4216C122.766 39.6373 122.126 39.7451 121.433 39.7451C120.308 39.7451 119.314 39.4909 118.452 38.9824C117.589 38.4739 116.918 37.742 116.441 36.7867C115.963 35.8314 115.724 34.6989 115.724 33.3892C115.724 32.0486 115.978 30.8853 116.487 29.8991C117.011 28.913 117.727 28.158 118.636 27.6341C119.561 27.1102 120.593 26.8483 121.734 26.8483C122.874 26.8483 123.76 27.1256 124.391 27.6803C125.039 28.2196 125.362 28.913 125.362 29.7605C125.362 30.4847 125.177 31.0548 124.808 31.4708C124.438 31.8714 123.96 32.0717 123.375 32.0717C122.897 32.0717 122.496 31.8945 122.173 31.5401C121.849 31.1858 121.687 30.7543 121.687 30.2458C121.687 29.9069 121.749 29.6218 121.872 29.3907C121.995 29.1595 122.165 28.9515 122.381 28.7666C122.134 28.628 121.911 28.5586 121.71 28.5586C121.187 28.5586 120.724 28.8745 120.324 29.5062C119.923 30.1226 119.723 31.1472 119.723 32.5802C119.723 34.2135 119.962 35.3922 120.439 36.1164C120.917 36.8252 121.618 37.1796 122.542 37.1796C122.974 37.1796 123.398 37.118 123.814 36.9947C124.245 36.8715 124.599 36.6943 124.877 36.4631ZM126.308 36.1396C126.308 35.1072 126.647 34.2905 127.325 33.6896C128.003 33.0887 129.004 32.7882 130.329 32.7882C130.792 32.7882 131.262 32.8345 131.739 32.9269C132.232 33.0194 132.633 33.1426 132.941 33.2967V30.2227C132.941 29.6064 132.787 29.1672 132.479 28.9053C132.171 28.628 131.755 28.4893 131.231 28.4893C130.722 28.4893 130.306 28.6125 129.983 28.8591C130.276 28.9515 130.491 29.1133 130.63 29.3444C130.784 29.5602 130.861 29.8067 130.861 30.084C130.861 30.5771 130.684 30.9777 130.329 31.2859C129.975 31.5941 129.528 31.7482 128.989 31.7482C128.403 31.7482 127.933 31.5787 127.579 31.2397C127.225 30.9007 127.047 30.4616 127.047 29.9223C127.047 29.383 127.232 28.8745 127.602 28.3968C127.972 27.9192 128.534 27.534 129.289 27.2412C130.06 26.9484 131.007 26.8021 132.132 26.8021C133.658 26.8021 134.813 27.1179 135.599 27.7497C136.385 28.366 136.778 29.2751 136.778 30.477V36.6018C136.778 37.3414 137.132 37.7883 137.841 37.9423V38.6819C137.641 38.9593 137.309 39.175 136.847 39.3291C136.385 39.4832 135.915 39.5602 135.437 39.5602C134.39 39.5602 133.65 39.1981 133.219 38.4739C132.864 38.7821 132.433 39.044 131.924 39.2598C131.416 39.4601 130.838 39.5602 130.191 39.5602C129.035 39.5602 128.095 39.2444 127.371 38.6126C126.662 37.9655 126.308 37.1411 126.308 36.1396ZM132.941 35.0764C132.772 34.9685 132.564 34.8761 132.317 34.799C132.086 34.722 131.863 34.6835 131.647 34.6835C131.215 34.6835 130.861 34.8221 130.584 35.0995C130.306 35.3614 130.168 35.7466 130.168 36.2551C130.168 36.6711 130.306 37.0178 130.584 37.2952C130.861 37.5571 131.231 37.6881 131.693 37.6881C131.924 37.6881 132.148 37.6573 132.363 37.5957C132.594 37.5186 132.787 37.4262 132.941 37.3183V35.0764ZM143.552 29.2058V35.7235C143.552 36.1858 143.645 36.5094 143.83 36.6943C144.015 36.8638 144.277 36.9485 144.616 36.9485C144.908 36.9485 145.217 36.8715 145.54 36.7174C145.864 36.5633 146.118 36.3707 146.303 36.1396C146.457 36.2628 146.565 36.4477 146.626 36.6943C146.703 36.9408 146.742 37.1642 146.742 37.3645C146.742 37.7189 146.619 38.0656 146.372 38.4046C146.126 38.7436 145.756 39.0209 145.263 39.2366C144.77 39.4524 144.176 39.5602 143.483 39.5602C142.404 39.5602 141.534 39.2521 140.871 38.6357C140.224 38.0194 139.901 36.9947 139.901 35.5617V29.2058H138.445V27.7959C138.845 27.7343 139.23 27.48 139.6 27.0332C139.985 26.5709 140.309 26.0008 140.571 25.3228C140.848 24.6295 141.025 23.9438 141.102 23.2658C141.38 23.2196 141.634 23.1965 141.865 23.1965C142.42 23.1965 142.828 23.3583 143.09 23.6819C143.367 23.99 143.506 24.3367 143.506 24.7219V27.1487H146.187C146.187 27.611 146.164 28.0116 146.118 28.3506C146.072 28.6742 145.972 28.9592 145.817 29.2058H143.552ZM152.843 23.0578C152.843 23.7204 152.635 24.252 152.219 24.6526C151.818 25.0378 151.279 25.2304 150.601 25.2304C149.938 25.2304 149.407 25.0378 149.006 24.6526C148.621 24.252 148.428 23.7204 148.428 23.0578C148.428 22.4107 148.628 21.8868 149.029 21.4862C149.445 21.0855 149.984 20.8852 150.647 20.8852C151.309 20.8852 151.841 21.0855 152.242 21.4862C152.642 21.8868 152.843 22.4107 152.843 23.0578ZM152.403 36.9023C152.403 37.3491 152.511 37.6727 152.727 37.873C152.958 38.0579 153.305 38.1504 153.767 38.1504C153.767 38.628 153.59 39.044 153.235 39.3984H148.012C147.658 39.044 147.48 38.628 147.48 38.1504C147.943 38.1504 148.274 38.0579 148.474 37.873C148.69 37.6727 148.798 37.3414 148.798 36.8792V30.1765C148.798 29.7451 148.69 29.4369 148.474 29.252C148.274 29.0671 147.873 28.9746 147.272 28.9746V27.9577C147.642 27.7266 148.266 27.4877 149.145 27.2412C150.038 26.9793 150.793 26.8483 151.41 26.8483C151.764 26.8483 152.018 26.933 152.172 27.1025C152.326 27.2566 152.403 27.5263 152.403 27.9115V36.9023ZM160.32 39.6989C158.625 39.6989 157.269 39.1673 156.252 38.1041C155.235 37.0255 154.727 35.4924 154.727 33.5047C154.727 32.0871 154.966 30.8776 155.443 29.876C155.936 28.8745 156.622 28.1195 157.5 27.611C158.379 27.1025 159.396 26.8483 160.551 26.8483C161.661 26.8483 162.631 27.0948 163.463 27.5879C164.311 28.0655 164.966 28.7743 165.428 29.7142C165.906 30.6542 166.144 31.7944 166.144 33.1349C166.144 34.5371 165.898 35.7312 165.405 36.7174C164.927 37.7035 164.249 38.4508 163.371 38.9593C162.493 39.4524 161.476 39.6989 160.32 39.6989ZM160.505 38.0348C161.044 38.0348 161.445 37.7266 161.707 37.1103C161.969 36.494 162.1 35.3537 162.1 33.6896C162.1 32.2875 162.03 31.2089 161.892 30.4539C161.753 29.6988 161.56 29.1827 161.314 28.9053C161.067 28.628 160.751 28.4893 160.366 28.4893C159.827 28.4893 159.419 28.7974 159.141 29.4138C158.879 30.0301 158.748 31.1858 158.748 32.8807C158.748 34.2674 158.818 35.3383 158.956 36.0933C159.095 36.8329 159.288 37.3414 159.534 37.6188C159.796 37.8961 160.12 38.0348 160.505 38.0348ZM180.426 38.7744C180.195 39.0055 179.779 39.1904 179.178 39.3291C178.592 39.4678 178.03 39.5371 177.49 39.5371C176.828 39.5371 176.335 39.4138 176.011 39.1673C175.703 38.9208 175.549 38.5279 175.549 37.9886V30.7774C175.549 30.1765 175.418 29.7451 175.156 29.4831C174.894 29.2212 174.547 29.0902 174.116 29.0902C173.484 29.0902 172.953 29.3444 172.521 29.8529V36.9023C172.521 37.3491 172.614 37.6727 172.799 37.873C172.999 38.0733 173.33 38.1735 173.792 38.1735C173.792 38.6357 173.615 39.044 173.261 39.3984H168.014C167.644 39.0286 167.46 38.6203 167.46 38.1735C167.922 38.1735 168.253 38.0733 168.453 37.873C168.654 37.6727 168.754 37.3491 168.754 36.9023V30.1534C168.754 29.7374 168.638 29.4446 168.407 29.2751C168.176 29.0902 167.775 28.9978 167.205 28.9978V27.9577C167.698 27.6803 168.392 27.4261 169.285 27.195C170.195 26.9638 170.88 26.8483 171.342 26.8483C171.697 26.8483 171.966 26.9638 172.151 27.195C172.352 27.4107 172.467 27.8267 172.498 28.4431C172.899 27.95 173.399 27.5648 174 27.2874C174.601 26.9947 175.279 26.8483 176.034 26.8483C177.144 26.8483 177.96 27.1333 178.484 27.7034C179.024 28.2582 179.293 29.175 179.293 30.4539V36.7636C179.293 37.5186 179.663 37.9655 180.403 38.1041L180.426 38.7744Z" fill="#043730" style="fill:#043730;fill:color(display-p3 0.0157 0.2157 0.1882);fill-opacity:1;"/>
<path d="M91.5964 47.3788L91.5755 46.6588H93.54C93.5633 46.6914 93.5842 46.7403 93.6029 46.8056C93.6215 46.8662 93.6308 46.9314 93.6308 47.0013C93.6308 47.1225 93.6029 47.2157 93.5469 47.281C93.491 47.3462 93.4141 47.3788 93.3162 47.3788H91.5964ZM92.2186 46.6588L92.2326 47.3788H90.2681C90.2448 47.3415 90.2238 47.2926 90.2052 47.232C90.1866 47.1714 90.1772 47.1039 90.1772 47.0293C90.1772 46.9034 90.2052 46.8102 90.2611 46.7496C90.3171 46.689 90.394 46.6588 90.4918 46.6588H92.2186ZM91.4566 47.1901H92.3375V50.8884C92.3002 50.9023 92.2419 50.914 92.1627 50.9233C92.0881 50.9373 92.0112 50.9443 91.932 50.9443C91.7596 50.9443 91.636 50.914 91.5615 50.8534C91.4916 50.7882 91.4566 50.681 91.4566 50.5318V47.1901ZM95.6724 47.3788H95.6374C95.5769 47.5466 95.5093 47.7377 95.4347 47.9521C95.3648 48.1665 95.2902 48.3902 95.211 48.6232C95.1318 48.8516 95.0572 49.073 94.9873 49.2874L94.8894 49.7208C94.8614 49.8094 94.8311 49.9073 94.7985 50.0145C94.7706 50.1217 94.7379 50.2312 94.7006 50.3431C94.668 50.4503 94.6354 50.5528 94.6028 50.6507C94.5748 50.7485 94.5492 50.8348 94.5259 50.9093C94.4793 50.9233 94.428 50.935 94.3721 50.9443C94.3208 50.9583 94.2579 50.9653 94.1833 50.9653C94.0342 50.9653 93.9153 50.9373 93.8268 50.8814C93.7429 50.8208 93.7009 50.7322 93.7009 50.6157C93.7009 50.5644 93.7079 50.5108 93.7219 50.4549C93.7405 50.399 93.7592 50.3361 93.7778 50.2662C93.8244 50.1124 93.8873 49.9213 93.9666 49.6929C94.0458 49.4598 94.132 49.2082 94.2252 48.9378C94.3185 48.6675 94.414 48.3949 94.5119 48.1199C94.6144 47.8449 94.71 47.5886 94.7985 47.3509C94.8871 47.1085 94.964 46.9058 95.0292 46.7426C95.0851 46.71 95.1714 46.6797 95.2879 46.6518C95.4044 46.6238 95.5233 46.6098 95.6444 46.6098C95.8029 46.6098 95.9474 46.6331 96.0779 46.6797C96.213 46.7263 96.2969 46.8009 96.3296 46.9034C96.4274 47.1598 96.5323 47.4534 96.6442 47.7843C96.756 48.1152 96.8702 48.4601 96.9867 48.819C97.1032 49.1779 97.2151 49.5274 97.3223 49.8677C97.4295 50.2079 97.525 50.5155 97.6089 50.7905C97.5623 50.8418 97.4971 50.8837 97.4132 50.9163C97.3339 50.949 97.2407 50.9653 97.1335 50.9653C96.9797 50.9653 96.8679 50.9373 96.798 50.8814C96.7327 50.8208 96.6814 50.7299 96.6442 50.6087L96.3575 49.6929L96.2666 49.2455C96.1921 49.0078 96.1175 48.7747 96.0429 48.5463C95.973 48.3133 95.9054 48.0966 95.8402 47.8962C95.7749 47.6958 95.719 47.5233 95.6724 47.3788ZM94.4979 49.8886L94.8265 49.1965H96.5743L96.7071 49.8886H94.4979ZM101.849 48.84V50.3221C101.849 50.4339 101.824 50.5225 101.773 50.5877C101.726 50.653 101.649 50.7136 101.542 50.7695C101.421 50.8348 101.246 50.8907 101.018 50.9373C100.794 50.9839 100.568 51.0072 100.339 51.0072C99.8966 51.0072 99.5005 50.9303 99.1509 50.7765C98.806 50.618 98.5334 50.3757 98.3329 50.0494C98.1325 49.7185 98.0323 49.2967 98.0323 48.784C98.0323 48.29 98.1349 47.8775 98.3399 47.5466C98.545 47.2157 98.8177 46.9664 99.1579 46.7986C99.5028 46.6308 99.8826 46.5469 100.297 46.5469C100.577 46.5469 100.819 46.5772 101.025 46.6378C101.234 46.6984 101.395 46.7776 101.507 46.8755C101.623 46.9734 101.682 47.0805 101.682 47.1971C101.682 47.2856 101.656 47.3649 101.605 47.4348C101.558 47.5047 101.505 47.5583 101.444 47.5956C101.318 47.5163 101.169 47.4441 100.997 47.3788C100.824 47.3089 100.612 47.274 100.36 47.274C100.09 47.274 99.8454 47.3322 99.6263 47.4487C99.4119 47.5653 99.2441 47.7377 99.1229 47.9661C99.0018 48.1898 98.9412 48.4625 98.9412 48.784C98.9412 49.1289 99.0018 49.4132 99.1229 49.637C99.2441 49.856 99.4119 50.0191 99.6263 50.1263C99.8407 50.2335 100.083 50.2871 100.353 50.2871C100.489 50.2871 100.612 50.2755 100.724 50.2522C100.84 50.2289 100.931 50.2009 100.997 50.1683V49.1755H100.088C100.069 49.1429 100.048 49.0963 100.025 49.0357C100.006 48.9705 99.9968 48.9052 99.9968 48.84C99.9968 48.7141 100.025 48.6232 100.081 48.5673C100.137 48.5067 100.214 48.4764 100.311 48.4764H101.486C101.593 48.4764 101.679 48.5091 101.745 48.5743C101.815 48.6396 101.849 48.7281 101.849 48.84ZM102.81 48.1269H103.698V50.8534L103.285 50.9093C103.141 50.9093 103.024 50.8674 102.936 50.7835C102.852 50.6949 102.81 50.5808 102.81 50.4409V48.1269ZM103.285 50.9093V50.1823H105.508C105.536 50.2195 105.56 50.2685 105.578 50.3291C105.602 50.3897 105.613 50.4572 105.613 50.5318C105.613 50.6577 105.583 50.7532 105.522 50.8185C105.466 50.879 105.39 50.9093 105.292 50.9093H103.285ZM103.698 49.1196H102.81V46.6588C102.852 46.6494 102.91 46.6378 102.985 46.6238C103.064 46.6098 103.143 46.6028 103.222 46.6028C103.39 46.6028 103.511 46.6331 103.586 46.6937C103.66 46.7496 103.698 46.8568 103.698 47.0153V49.1196ZM106.36 48.0989H107.241V50.8884C107.204 50.9023 107.148 50.914 107.073 50.9233C106.999 50.9373 106.919 50.9443 106.836 50.9443C106.668 50.9443 106.547 50.914 106.472 50.8534C106.397 50.7882 106.36 50.681 106.36 50.5318V48.0989ZM107.241 49.1196H106.36V46.6588C106.397 46.6494 106.456 46.6378 106.535 46.6238C106.614 46.6098 106.693 46.6028 106.773 46.6028C106.936 46.6028 107.055 46.6331 107.129 46.6937C107.204 46.7496 107.241 46.8568 107.241 47.0153V49.1196ZM108.333 47.6026L109.123 47.5816C109.142 47.7587 109.156 47.9451 109.165 48.1409C109.179 48.3366 109.186 48.53 109.186 48.7211C109.191 48.9122 109.193 49.0963 109.193 49.2734V50.8954C109.16 50.9047 109.104 50.914 109.025 50.9233C108.951 50.9373 108.876 50.9443 108.801 50.9443C108.634 50.9443 108.512 50.9163 108.438 50.8604C108.368 50.7998 108.333 50.6949 108.333 50.5458V47.6026ZM111.933 49.9446L111.136 49.9655C111.099 49.6067 111.078 49.2571 111.074 48.9169C111.069 48.572 111.067 48.2387 111.067 47.9171V46.6588C111.109 46.6494 111.164 46.6378 111.234 46.6238C111.309 46.6098 111.388 46.6028 111.472 46.6028C111.635 46.6028 111.752 46.6331 111.822 46.6937C111.896 46.7543 111.933 46.8568 111.933 47.0013V49.9446ZM111.933 49.6579V50.7905C111.878 50.8371 111.803 50.8744 111.71 50.9023C111.617 50.935 111.509 50.9513 111.388 50.9513C111.244 50.9513 111.113 50.928 110.997 50.8814C110.885 50.8348 110.789 50.7322 110.71 50.5738L109.682 48.7351C109.626 48.6232 109.566 48.5067 109.501 48.3856C109.44 48.2644 109.382 48.1455 109.326 48.029C109.27 47.9125 109.219 47.8053 109.172 47.7074L108.333 47.9032V46.8056C108.384 46.7403 108.459 46.6914 108.557 46.6588C108.659 46.6261 108.769 46.6098 108.885 46.6098C109.025 46.6098 109.153 46.6331 109.27 46.6797C109.386 46.7263 109.484 46.8265 109.563 46.9803L110.591 48.819C110.652 48.9309 110.712 49.0474 110.773 49.1686C110.838 49.2897 110.896 49.4086 110.948 49.5251C111.004 49.6416 111.053 49.7488 111.095 49.8467L111.933 49.6579ZM113.01 48.0919H113.877V50.8534C113.844 50.8627 113.79 50.8744 113.716 50.8884C113.641 50.9023 113.564 50.9093 113.485 50.9093C113.341 50.9093 113.224 50.8674 113.136 50.7835C113.052 50.6949 113.01 50.5808 113.01 50.4409V48.0919ZM113.877 49.4622L113.01 49.4552V47.1272C113.01 46.9827 113.052 46.8685 113.136 46.7846C113.224 46.7007 113.341 46.6588 113.485 46.6588C113.564 46.6588 113.641 46.6657 113.716 46.6797C113.79 46.6937 113.844 46.7054 113.877 46.7147V49.4622ZM113.485 49.0847V48.3856H115.589C115.613 48.4182 115.634 48.4648 115.652 48.5254C115.676 48.586 115.687 48.6512 115.687 48.7211C115.687 48.8423 115.659 48.9332 115.603 48.9938C115.547 49.0544 115.471 49.0847 115.373 49.0847H113.485ZM113.485 50.9093V50.2032H115.834C115.853 50.2359 115.871 50.2825 115.89 50.3431C115.913 50.4036 115.925 50.4712 115.925 50.5458C115.925 50.667 115.897 50.7579 115.841 50.8185C115.785 50.879 115.708 50.9093 115.61 50.9093H113.485ZM113.485 47.3718V46.6588H115.799C115.822 46.6914 115.843 46.738 115.862 46.7986C115.881 46.8592 115.89 46.9244 115.89 46.9943C115.89 47.1155 115.862 47.2087 115.806 47.274C115.755 47.3392 115.678 47.3718 115.575 47.3718H113.485ZM118.178 48.1059H119.066V50.8884C119.028 50.9023 118.97 50.914 118.891 50.9233C118.816 50.9373 118.737 50.9443 118.653 50.9443C118.486 50.9443 118.364 50.914 118.29 50.8534C118.215 50.7882 118.178 50.681 118.178 50.5318V48.1059ZM119.066 49.1196H118.178V46.6588C118.22 46.6494 118.278 46.6378 118.353 46.6238C118.432 46.6098 118.511 46.6028 118.59 46.6028C118.758 46.6028 118.879 46.6331 118.954 46.6937C119.028 46.7496 119.066 46.8568 119.066 47.0153V49.1196ZM120.849 48.1059H121.729V50.8884C121.692 50.9023 121.634 50.914 121.555 50.9233C121.48 50.9373 121.403 50.9443 121.324 50.9443C121.151 50.9443 121.028 50.914 120.953 50.8534C120.883 50.7882 120.849 50.681 120.849 50.5318V48.1059ZM121.729 49.1196H120.849V46.6588C120.886 46.6494 120.942 46.6378 121.016 46.6238C121.096 46.6098 121.175 46.6028 121.254 46.6028C121.422 46.6028 121.543 46.6331 121.618 46.6937C121.692 46.7543 121.729 46.8638 121.729 47.0223V49.1196ZM121.338 49.1196H118.611V48.4135H121.338V49.1196ZM122.814 48.0919H123.681V50.8534C123.648 50.8627 123.594 50.8744 123.52 50.8884C123.445 50.9023 123.368 50.9093 123.289 50.9093C123.145 50.9093 123.028 50.8674 122.939 50.7835C122.856 50.6949 122.814 50.5808 122.814 50.4409V48.0919ZM123.681 49.4622L122.814 49.4552V47.1272C122.814 46.9827 122.856 46.8685 122.939 46.7846C123.028 46.7007 123.145 46.6588 123.289 46.6588C123.368 46.6588 123.445 46.6657 123.52 46.6797C123.594 46.6937 123.648 46.7054 123.681 46.7147V49.4622ZM123.289 49.0847V48.3856H125.393C125.417 48.4182 125.438 48.4648 125.456 48.5254C125.48 48.586 125.491 48.6512 125.491 48.7211C125.491 48.8423 125.463 48.9332 125.407 48.9938C125.351 49.0544 125.274 49.0847 125.177 49.0847H123.289ZM123.289 50.9093V50.2032H125.638C125.657 50.2359 125.675 50.2825 125.694 50.3431C125.717 50.4036 125.729 50.4712 125.729 50.5458C125.729 50.667 125.701 50.7579 125.645 50.8185C125.589 50.879 125.512 50.9093 125.414 50.9093H123.289ZM123.289 47.3718V46.6588H125.603C125.626 46.6914 125.647 46.738 125.666 46.7986C125.685 46.8592 125.694 46.9244 125.694 46.9943C125.694 47.1155 125.666 47.2087 125.61 47.274C125.559 47.3392 125.482 47.3718 125.379 47.3718H123.289ZM127.463 48.7141H128.043C128.318 48.7141 128.537 48.6535 128.701 48.5324C128.864 48.4112 128.945 48.2317 128.945 47.9941C128.945 47.761 128.864 47.5839 128.701 47.4627C128.537 47.3415 128.297 47.281 127.98 47.281C127.887 47.281 127.796 47.2856 127.708 47.2949C127.619 47.2996 127.538 47.3089 127.463 47.3229V48.7141ZM128.106 49.4063H126.582V47.0083C126.582 46.9244 126.606 46.8592 126.652 46.8126C126.703 46.7659 126.769 46.7287 126.848 46.7007C126.997 46.6541 127.172 46.6191 127.372 46.5958C127.577 46.5725 127.785 46.5609 127.994 46.5609C128.61 46.5609 129.069 46.689 129.372 46.9454C129.679 47.1971 129.833 47.5443 129.833 47.9871C129.833 48.2667 129.761 48.5137 129.616 48.7281C129.477 48.9425 129.278 49.1103 129.022 49.2315C128.766 49.348 128.461 49.4063 128.106 49.4063ZM127.987 49.1825L128.742 48.9658C128.859 49.1196 128.978 49.2758 129.099 49.4342C129.225 49.588 129.344 49.7395 129.456 49.8886C129.572 50.0331 129.675 50.1659 129.763 50.2871C129.856 50.4083 129.929 50.5085 129.98 50.5877C129.947 50.7043 129.884 50.7951 129.791 50.8604C129.703 50.9256 129.605 50.9583 129.498 50.9583C129.358 50.9583 129.248 50.928 129.169 50.8674C129.094 50.8021 129.022 50.7159 128.952 50.6087L127.987 49.1825ZM126.582 49.0986H127.47V50.8884C127.433 50.9023 127.375 50.914 127.295 50.9233C127.221 50.9373 127.142 50.9443 127.058 50.9443C126.89 50.9443 126.769 50.914 126.694 50.8534C126.62 50.7882 126.582 50.681 126.582 50.5318V49.0986ZM130.767 48.0919H131.634V50.8534C131.602 50.8627 131.548 50.8744 131.473 50.8884C131.399 50.9023 131.322 50.9093 131.243 50.9093C131.098 50.9093 130.982 50.8674 130.893 50.7835C130.809 50.6949 130.767 50.5808 130.767 50.4409V48.0919ZM131.634 49.4622L130.767 49.4552V47.1272C130.767 46.9827 130.809 46.8685 130.893 46.7846C130.982 46.7007 131.098 46.6588 131.243 46.6588C131.322 46.6588 131.399 46.6657 131.473 46.6797C131.548 46.6937 131.602 46.7054 131.634 46.7147V49.4622ZM131.243 49.0847V48.3856H133.347C133.37 48.4182 133.391 48.4648 133.41 48.5254C133.433 48.586 133.445 48.6512 133.445 48.7211C133.445 48.8423 133.417 48.9332 133.361 48.9938C133.305 49.0544 133.228 49.0847 133.13 49.0847H131.243ZM131.243 50.9093V50.2032H133.592C133.61 50.2359 133.629 50.2825 133.648 50.3431C133.671 50.4036 133.683 50.4712 133.683 50.5458C133.683 50.667 133.655 50.7579 133.599 50.8185C133.543 50.879 133.466 50.9093 133.368 50.9093H131.243ZM131.243 47.3718V46.6588H133.557C133.58 46.6914 133.601 46.738 133.62 46.7986C133.638 46.8592 133.648 46.9244 133.648 46.9943C133.648 47.1155 133.62 47.2087 133.564 47.274C133.513 47.3392 133.436 47.3718 133.333 47.3718H131.243Z" fill="#E56031" style="fill:#E56031;fill:color(display-p3 0.8980 0.3765 0.1922);fill-opacity:1;"/>
</svg>
