<svg width="15" height="15" viewBox="0 0 15 15" fill="none" xmlns="http://www.w3.org/2000/svg">
<path d="M11.7972 15C11.7225 15 11.6459 14.9815 11.5762 14.9455L7.46991 12.7837L3.35181 14.9086C3.28307 14.9445 3.20845 14.962 3.13382 14.962C3.03171 14.962 2.93057 14.9291 2.84416 14.8623C2.69688 14.7503 2.62226 14.5602 2.64877 14.3702L3.34199 9.61709L0.13804 6.17097C0.0113743 6.03329 -0.0328168 5.83396 0.0251156 5.65107C0.082066 5.46921 0.230338 5.33564 0.41199 5.30482L4.94838 4.5301L7.08893 0.275363C7.17338 0.106858 7.34128 0 7.52294 0C7.52294 0 7.52392 0 7.52588 0C7.70851 0.00102747 7.87544 0.107884 7.9589 0.278444L10.0641 4.55374L14.5917 5.36749C14.7723 5.39934 14.9206 5.53394 14.9766 5.71683C15.0325 5.89972 14.9864 6.09904 14.8578 6.23467L11.6263 9.65203L12.2832 14.4102C12.3087 14.6003 12.2322 14.7883 12.0839 14.9014C11.9994 14.9681 11.8993 15 11.7972 15Z" fill="#FFBB00"/>
</svg>
