<svg width="21" height="21" viewBox="0 0 21 21" fill="none" xmlns="http://www.w3.org/2000/svg">
<path fill-rule="evenodd" clip-rule="evenodd" d="M10.5059 0.0175781C16.0249 0.0175781 20.5059 4.49851 20.5059 10.0176C20.5059 15.5366 16.0249 20.0176 10.5059 20.0176C4.98679 20.0176 0.505859 15.5366 0.505859 10.0176C0.505859 4.49851 4.98679 0.0175781 10.5059 0.0175781ZM10.5059 1.41293C5.75702 1.41293 1.90121 5.26874 1.90121 10.0176C1.90121 14.7664 5.75702 18.6222 10.5059 18.6222C15.2547 18.6222 19.1105 14.7664 19.1105 10.0176C19.1105 5.26874 15.2547 1.41293 10.5059 1.41293Z" fill="#18283D"/>
<path fill-rule="evenodd" clip-rule="evenodd" d="M14.6341 8.74608C15.1002 9.00003 15.3895 9.48747 15.3895 10.0177C15.3895 10.5479 15.1002 11.0354 14.635 11.2893L8.69457 14.5293C8.24527 14.774 7.70108 14.7647 7.26108 14.5033C6.82201 14.2428 6.55225 13.7693 6.55225 13.2577V6.77771C6.55225 6.26608 6.82201 5.79259 7.26108 5.53212C7.70108 5.27073 8.24527 5.26143 8.69457 5.50608L14.6341 8.74608ZM13.9662 9.97119L8.02573 6.73119C8.00992 6.72189 7.98946 6.72189 7.97364 6.73212C7.95783 6.74143 7.94759 6.7591 7.94759 6.77771V13.2577C7.94759 13.2763 7.95783 13.294 7.97364 13.3033C7.98946 13.3135 8.00992 13.3135 8.02666 13.3042L13.9662 10.0642C13.9839 10.0549 13.9941 10.0372 13.9941 10.0177C13.9941 9.99817 13.9839 9.9805 13.9662 9.97119Z" fill="#18283D"/>
</svg>
