<svg width="18" height="22" viewBox="0 0 18 22" fill="none" xmlns="http://www.w3.org/2000/svg">
<path d="M1.46667 22H16.1333C16.9434 22 17.6 21.3434 17.6 20.5333V3.2373C17.5996 3.08574 17.5678 2.93591 17.5065 2.7973C17.5036 2.7896 17.4988 2.78337 17.4951 2.77567C17.4417 2.65839 17.3681 2.55141 17.2777 2.4596L15.1408 0.322301C15.0486 0.230775 14.941 0.156292 14.8229 0.102301C14.8163 0.0993673 14.8108 0.0949673 14.8038 0.0924007C14.6649 0.0313027 14.5148 -0.00016685 14.3631 6.65271e-07L1.46667 1.60415e-09C0.656649 6.65271e-07 0 0.65665 0 1.46667V20.5333C0 21.3434 0.656649 22 1.46667 22ZM16.3482 2.56667H15.7667C15.3617 2.56667 15.0333 2.23834 15.0333 1.83333V1.2518L16.3482 2.56667ZM0.733333 1.46667C0.733333 1.06166 1.06166 0.733334 1.46667 0.733334H14.3V1.83333C14.3 2.64335 14.9567 3.3 15.7667 3.3H16.8667V20.5333C16.8667 20.9383 16.5383 21.2667 16.1333 21.2667H1.46667C1.06166 21.2667 0.733333 20.9383 0.733333 20.5333V1.46667Z" fill="#18283D"/>
<path d="M3.29922 8.43404H5.49922C6.10673 8.43404 6.59922 7.94155 6.59922 7.33404V5.28584L7.59179 4.29327C7.73074 4.1494 7.72875 3.9207 7.58732 3.77927C7.44588 3.63783 7.21719 3.63585 7.07332 3.7748L6.37372 4.47404C6.16771 4.19791 5.84372 4.0349 5.49922 4.03404H3.29922C2.69171 4.03404 2.19922 4.52652 2.19922 5.13404V7.33404C2.19922 7.94155 2.69171 8.43404 3.29922 8.43404ZM2.93255 5.13404C2.93255 4.93153 3.09671 4.76737 3.29922 4.76737H5.49922C5.65208 4.7681 5.78824 4.86415 5.84022 5.0079L4.76589 6.08224L4.29179 5.60814C4.14791 5.46918 3.91922 5.47117 3.77779 5.6126C3.63635 5.75404 3.63436 5.98273 3.77332 6.1266L4.50665 6.85994C4.64984 7.00308 4.88194 7.00308 5.02512 6.85994L5.86589 6.01917V7.33404C5.86589 7.53654 5.70172 7.7007 5.49922 7.7007H3.29922C3.09671 7.7007 2.93255 7.53654 2.93255 7.33404V5.13404Z" fill="#18283D"/>
<path d="M3.29922 13.568H5.49922C6.10673 13.568 6.59922 13.0755 6.59922 12.468V10.268C6.59922 9.66046 6.10673 9.16797 5.49922 9.16797H3.29922C2.69171 9.16797 2.19922 9.66046 2.19922 10.268V12.468C2.19922 13.0755 2.69171 13.568 3.29922 13.568ZM2.93255 10.268C2.93255 10.0655 3.09671 9.9013 3.29922 9.9013H5.49922C5.70172 9.9013 5.86589 10.0655 5.86589 10.268V12.468C5.86589 12.6705 5.70172 12.8346 5.49922 12.8346H3.29922C3.09671 12.8346 2.93255 12.6705 2.93255 12.468V10.268Z" fill="#18283D"/>
<path d="M3.29922 18.7008H5.49922C6.10673 18.7008 6.59922 18.2083 6.59922 17.6008V15.4008C6.59922 14.7933 6.10673 14.3008 5.49922 14.3008H3.29922C2.69171 14.3008 2.19922 14.7933 2.19922 15.4008V17.6008C2.19922 18.2083 2.69171 18.7008 3.29922 18.7008ZM2.93255 15.4008C2.93255 15.1983 3.09671 15.0341 3.29922 15.0341H5.49922C5.70172 15.0341 5.86589 15.1983 5.86589 15.4008V17.6008C5.86589 17.8033 5.70172 17.9674 5.49922 17.9674H3.29922C3.09671 17.9674 2.93255 17.8033 2.93255 17.6008V15.4008Z" fill="#18283D"/>
<path d="M8.80026 5.49896H15.0336C15.2361 5.49896 15.4003 5.3348 15.4003 5.13229C15.4003 4.92979 15.2361 4.76562 15.0336 4.76562H8.80026C8.59776 4.76562 8.43359 4.92979 8.43359 5.13229C8.43359 5.3348 8.59776 5.49896 8.80026 5.49896Z" fill="#18283D"/>
<path d="M8.80026 7.3349H12.4669C12.6694 7.3349 12.8336 7.17073 12.8336 6.96823C12.8336 6.76572 12.6694 6.60156 12.4669 6.60156H8.80026C8.59776 6.60156 8.43359 6.76572 8.43359 6.96823C8.43359 7.17073 8.59776 7.3349 8.80026 7.3349Z" fill="#18283D"/>
<path d="M8.80026 10.6318H15.0336C15.2361 10.6318 15.4003 10.4676 15.4003 10.2651C15.4003 10.0626 15.2361 9.89844 15.0336 9.89844H8.80026C8.59776 9.89844 8.43359 10.0626 8.43359 10.2651C8.43359 10.4676 8.59776 10.6318 8.80026 10.6318Z" fill="#18283D"/>
<path d="M8.80026 12.4677H12.4669C12.6694 12.4677 12.8336 12.3035 12.8336 12.101C12.8336 11.8985 12.6694 11.7344 12.4669 11.7344H8.80026C8.59776 11.7344 8.43359 11.8985 8.43359 12.101C8.43359 12.3035 8.59776 12.4677 8.80026 12.4677Z" fill="#18283D"/>
<path d="M8.80026 15.7685H15.0336C15.2361 15.7685 15.4003 15.6043 15.4003 15.4018C15.4003 15.1993 15.2361 15.0352 15.0336 15.0352H8.80026C8.59776 15.0352 8.43359 15.1993 8.43359 15.4018C8.43359 15.6043 8.59776 15.7685 8.80026 15.7685Z" fill="#18283D"/>
<path d="M8.80026 17.6005H12.4669C12.6694 17.6005 12.8336 17.4364 12.8336 17.2339C12.8336 17.0313 12.6694 16.8672 12.4669 16.8672H8.80026C8.59776 16.8672 8.43359 17.0313 8.43359 17.2339C8.43359 17.4364 8.59776 17.6005 8.80026 17.6005Z" fill="#18283D"/>
</svg>
