<svg width="18" height="22" viewBox="0 0 18 22" fill="none" xmlns="http://www.w3.org/2000/svg">
<path d="M1.46667 22H16.1333C16.9434 22 17.6 21.3434 17.6 20.5333V3.2373C17.5996 3.08574 17.5678 2.93591 17.5065 2.7973C17.5036 2.7896 17.4988 2.78337 17.4951 2.77567C17.4417 2.65839 17.3681 2.55141 17.2777 2.4596L15.1408 0.322301C15.0486 0.230775 14.941 0.156292 14.8229 0.102301C14.8163 0.0993673 14.8108 0.0949673 14.8038 0.0924007C14.6649 0.0313027 14.5148 -0.00016685 14.3631 6.65271e-07L1.46667 1.60415e-09C0.656649 6.65271e-07 0 0.65665 0 1.46667V20.5333C0 21.3434 0.656649 22 1.46667 22ZM16.3482 2.56667H15.7667C15.3617 2.56667 15.0333 2.23834 15.0333 1.83333V1.2518L16.3482 2.56667ZM0.733333 1.46667C0.733333 1.06166 1.06166 0.733334 1.46667 0.733334H14.3V1.83333C14.3 2.64335 14.9567 3.3 15.7667 3.3H16.8667V20.5333C16.8667 20.9383 16.5383 21.2667 16.1333 21.2667H1.46667C1.06166 21.2667 0.733333 20.9383 0.733333 20.5333V1.46667Z" fill="#18283D" style="fill:#18283D;fill:color(display-p3 0.0941 0.1569 0.2392);fill-opacity:1;"/>
<path d="M3.29922 8.43306H5.49922C6.10673 8.43306 6.59922 7.94057 6.59922 7.33306V5.28486L7.59179 4.29229C7.73074 4.14842 7.72875 3.91973 7.58732 3.77829C7.44588 3.63686 7.21719 3.63487 7.07332 3.77383L6.37372 4.47306C6.16771 4.19694 5.84372 4.03392 5.49922 4.03306H3.29922C2.69171 4.03306 2.19922 4.52555 2.19922 5.13306V7.33306C2.19922 7.94057 2.69171 8.43306 3.29922 8.43306ZM2.93255 5.13306C2.93255 4.93056 3.09671 4.76639 3.29922 4.76639H5.49922C5.65208 4.76713 5.78824 4.86317 5.84022 5.00693L4.76589 6.08126L4.29179 5.60716C4.14791 5.4682 3.91922 5.47019 3.77779 5.61163C3.63635 5.75306 3.63436 5.98175 3.77332 6.12563L4.50665 6.85896C4.64984 7.0021 4.88194 7.0021 5.02512 6.85896L5.86589 6.01819V7.33306C5.86589 7.53556 5.70172 7.69973 5.49922 7.69973H3.29922C3.09671 7.69973 2.93255 7.53556 2.93255 7.33306V5.13306Z" fill="#18283D" style="fill:#18283D;fill:color(display-p3 0.0941 0.1569 0.2392);fill-opacity:1;"/>
<path d="M3.29922 13.567H5.49922C6.10673 13.567 6.59922 13.0745 6.59922 12.467V10.267C6.59922 9.65948 6.10673 9.16699 5.49922 9.16699H3.29922C2.69171 9.16699 2.19922 9.65948 2.19922 10.267V12.467C2.19922 13.0745 2.69171 13.567 3.29922 13.567ZM2.93255 10.267C2.93255 10.0645 3.09671 9.90033 3.29922 9.90033H5.49922C5.70172 9.90033 5.86589 10.0645 5.86589 10.267V12.467C5.86589 12.6695 5.70172 12.8337 5.49922 12.8337H3.29922C3.09671 12.8337 2.93255 12.6695 2.93255 12.467V10.267Z" fill="#18283D" style="fill:#18283D;fill:color(display-p3 0.0941 0.1569 0.2392);fill-opacity:1;"/>
<path d="M3.29922 18.6998H5.49922C6.10673 18.6998 6.59922 18.2073 6.59922 17.5998V15.3998C6.59922 14.7923 6.10673 14.2998 5.49922 14.2998H3.29922C2.69171 14.2998 2.19922 14.7923 2.19922 15.3998V17.5998C2.19922 18.2073 2.69171 18.6998 3.29922 18.6998ZM2.93255 15.3998C2.93255 15.1973 3.09671 15.0331 3.29922 15.0331H5.49922C5.70172 15.0331 5.86589 15.1973 5.86589 15.3998V17.5998C5.86589 17.8023 5.70172 17.9665 5.49922 17.9665H3.29922C3.09671 17.9665 2.93255 17.8023 2.93255 17.5998V15.3998Z" fill="#18283D" style="fill:#18283D;fill:color(display-p3 0.0941 0.1569 0.2392);fill-opacity:1;"/>
<path d="M8.80026 5.49993H15.0336C15.2361 5.49993 15.4003 5.33577 15.4003 5.13327C15.4003 4.93076 15.2361 4.7666 15.0336 4.7666H8.80026C8.59776 4.7666 8.43359 4.93076 8.43359 5.13327C8.43359 5.33577 8.59776 5.49993 8.80026 5.49993Z" fill="#18283D" style="fill:#18283D;fill:color(display-p3 0.0941 0.1569 0.2392);fill-opacity:1;"/>
<path d="M8.80026 7.33294H12.4669C12.6694 7.33294 12.8336 7.16878 12.8336 6.96628C12.8336 6.76377 12.6694 6.59961 12.4669 6.59961H8.80026C8.59776 6.59961 8.43359 6.76377 8.43359 6.96628C8.43359 7.16878 8.59776 7.33294 8.80026 7.33294Z" fill="#18283D" style="fill:#18283D;fill:color(display-p3 0.0941 0.1569 0.2392);fill-opacity:1;"/>
<path d="M8.80026 10.6337H15.0336C15.2361 10.6337 15.4003 10.4696 15.4003 10.2671C15.4003 10.0646 15.2361 9.90039 15.0336 9.90039H8.80026C8.59776 9.90039 8.43359 10.0646 8.43359 10.2671C8.43359 10.4696 8.59776 10.6337 8.80026 10.6337Z" fill="#18283D" style="fill:#18283D;fill:color(display-p3 0.0941 0.1569 0.2392);fill-opacity:1;"/>
<path d="M8.80026 12.4667H12.4669C12.6694 12.4667 12.8336 12.3026 12.8336 12.1001C12.8336 11.8976 12.6694 11.7334 12.4669 11.7334H8.80026C8.59776 11.7334 8.43359 11.8976 8.43359 12.1001C8.43359 12.3026 8.59776 12.4667 8.80026 12.4667Z" fill="#18283D" style="fill:#18283D;fill:color(display-p3 0.0941 0.1569 0.2392);fill-opacity:1;"/>
<path d="M8.80026 15.7665H15.0336C15.2361 15.7665 15.4003 15.6024 15.4003 15.3999C15.4003 15.1974 15.2361 15.0332 15.0336 15.0332H8.80026C8.59776 15.0332 8.43359 15.1974 8.43359 15.3999C8.43359 15.6024 8.59776 15.7665 8.80026 15.7665Z" fill="#18283D" style="fill:#18283D;fill:color(display-p3 0.0941 0.1569 0.2392);fill-opacity:1;"/>
<path d="M8.80026 17.5995H12.4669C12.6694 17.5995 12.8336 17.4354 12.8336 17.2329C12.8336 17.0304 12.6694 16.8662 12.4669 16.8662H8.80026C8.59776 16.8662 8.43359 17.0304 8.43359 17.2329C8.43359 17.4354 8.59776 17.5995 8.80026 17.5995Z" fill="#18283D" style="fill:#18283D;fill:color(display-p3 0.0941 0.1569 0.2392);fill-opacity:1;"/>
</svg>
