<svg width="123" height="160" viewBox="0 0 123 160" fill="none" xmlns="http://www.w3.org/2000/svg">
<path d="M6.83502 118.75C5.69585 118.75 4.78452 118.408 4.10101 117.725C3.41751 117.041 3.07576 116.13 3.07576 114.991V93.3237C3.07576 92.5491 3.32638 91.9795 3.82761 91.615C4.37441 91.2504 4.944 91.0682 5.53637 91.0682C6.12874 91.0682 6.65275 91.2504 7.10842 91.615C7.60966 91.9795 7.86028 92.5491 7.86028 93.3237V112.735C7.86028 113.419 7.99698 113.897 8.27038 114.171C8.54378 114.398 8.99945 114.512 9.63738 114.512H16.6775C17.4065 114.512 17.9305 114.74 18.2495 115.196C18.614 115.651 18.7963 116.13 18.7963 116.631C18.7963 117.178 18.614 117.679 18.2495 118.135C17.9305 118.545 17.4065 118.75 16.6775 118.75H6.83502ZM31.7252 119.434C28.3077 119.434 25.642 118.454 23.7282 116.494C21.8144 114.535 20.8575 111.892 20.8575 108.566C20.8575 105.65 21.8144 103.257 23.7282 101.389C25.6876 99.5208 28.1938 98.5867 31.2467 98.5867C34.2086 98.5867 36.578 99.4525 38.3552 101.184C40.1323 102.87 41.0208 104.966 41.0208 107.472C41.0208 108.475 40.7474 109.227 40.2006 109.728C39.6994 110.229 39.0387 110.48 38.2185 110.48H26.3255C25.8698 110.48 25.7104 110.73 25.8471 111.231C26.2116 112.507 26.9407 113.51 28.0343 114.239C29.1734 114.922 30.4493 115.264 31.8619 115.264C32.9099 115.264 33.9124 115.127 34.8693 114.854C35.8718 114.581 36.7375 114.171 37.4666 113.624C37.6944 113.441 37.9906 113.35 38.3552 113.35C38.8564 113.35 39.3121 113.578 39.7222 114.034C40.1323 114.444 40.3373 114.945 40.3373 115.538C40.3373 115.811 40.2917 116.084 40.2006 116.358C40.1095 116.631 39.9044 116.905 39.5855 117.178C38.4007 118.044 37.1248 118.636 35.7578 118.955C34.4364 119.274 33.0922 119.434 31.7252 119.434ZM35.6895 106.925C35.9629 106.925 36.0996 106.789 36.0996 106.515C36.0996 105.467 35.6211 104.556 34.6642 103.781C33.7529 103.007 32.6137 102.619 31.2467 102.619C30.062 102.619 28.9228 102.938 27.8292 103.576C26.7812 104.214 26.1432 105.057 25.9154 106.105C25.9154 106.105 25.9154 106.128 25.9154 106.174C25.8698 106.356 25.8471 106.515 25.8471 106.652C25.8926 106.789 26.0977 106.857 26.4622 106.857L35.6895 106.925ZM54.6038 119.434C52.6444 119.434 50.8901 118.978 49.3408 118.066C47.7916 117.155 46.5841 115.902 45.7183 114.307C44.8525 112.667 44.4196 110.844 44.4196 108.839C44.4196 106.88 44.8525 105.126 45.7183 103.576C46.5841 102.027 47.7916 100.819 49.3408 99.9537C50.8901 99.0424 52.6444 98.5867 54.6038 98.5867C55.8797 98.5867 57.0189 98.8145 58.0213 99.2702C59.0238 99.6803 59.8896 100.227 60.6186 100.911C60.7098 100.273 60.9832 99.7942 61.4388 99.4752C61.8945 99.1107 62.3957 98.9284 62.9425 98.9284C63.5349 98.9284 64.0589 99.1335 64.5146 99.5436C65.0158 99.9081 65.2665 100.478 65.2665 101.252V117.315C65.2665 117.998 65.0158 118.522 64.5146 118.887C64.0589 119.251 63.5349 119.434 62.9425 119.434C62.3502 119.434 61.8034 119.251 61.3021 118.887C60.8465 118.522 60.6186 117.998 60.6186 117.315V117.041C59.8896 117.77 59.0238 118.34 58.0213 118.75C57.0189 119.206 55.8797 119.434 54.6038 119.434ZM55.0139 115.196C56.7455 115.196 58.1125 114.626 59.1149 113.487C60.1174 112.302 60.6186 110.753 60.6186 108.839C60.6186 107.017 60.1174 105.558 59.1149 104.465C58.1125 103.371 56.7455 102.824 55.0139 102.824C53.2368 102.824 51.8015 103.371 50.7079 104.465C49.6142 105.558 49.0674 107.017 49.0674 108.839C49.0674 110.753 49.6142 112.302 50.7079 113.487C51.8015 114.626 53.2368 115.196 55.0139 115.196ZM75.0646 108.634V117.315C75.0646 117.998 74.8139 118.522 74.3127 118.887C73.857 119.251 73.333 119.434 72.7407 119.434C72.1483 119.434 71.6015 119.251 71.1003 118.887C70.6446 118.522 70.4167 117.998 70.4167 117.315V101.252C70.4167 100.478 70.6446 99.9081 71.1003 99.5436C71.6015 99.1335 72.1483 98.9284 72.7407 98.9284C73.333 98.9284 73.857 99.1335 74.3127 99.5436C74.8139 99.9081 75.0646 100.478 75.0646 101.252V101.526C75.7025 100.66 76.5227 99.9537 77.5252 99.4069C78.5732 98.8601 79.6668 98.5867 80.806 98.5867C81.3528 98.5867 81.8996 98.655 82.4464 98.7917C82.9932 98.9284 83.4033 99.2018 83.6767 99.6119C83.9501 100.022 84.0868 100.478 84.0868 100.979C84.0868 101.571 83.8817 102.118 83.4716 102.619C83.1071 103.075 82.5603 103.303 81.8312 103.303C81.5123 103.303 81.1705 103.257 80.806 103.166C80.487 103.075 80.0769 103.029 79.5757 103.029C78.2542 103.029 77.1606 103.531 76.2949 104.533C75.4747 105.536 75.0646 106.903 75.0646 108.634ZM104.326 119.434C103.734 119.434 103.187 119.251 102.686 118.887C102.23 118.522 102.003 117.998 102.003 117.315V108.703C102.003 106.698 101.547 105.217 100.636 104.26C99.7698 103.303 98.6078 102.824 97.1497 102.824C95.2814 102.824 93.9144 103.44 93.0487 104.67C92.2285 105.855 91.8184 107.176 91.8184 108.634V117.315C91.8184 117.998 91.5678 118.522 91.0665 118.887C90.6108 119.251 90.0868 119.434 89.4945 119.434C88.9021 119.434 88.3553 119.251 87.8541 118.887C87.3984 118.522 87.1706 117.998 87.1706 117.315V101.252C87.1706 100.478 87.3984 99.9081 87.8541 99.5436C88.3553 99.1335 88.9021 98.9284 89.4945 98.9284C90.0868 98.9284 90.6108 99.1335 91.0665 99.5436C91.5678 99.9081 91.8184 100.478 91.8184 101.252C92.593 100.478 93.5955 99.8398 94.8258 99.3385C96.0561 98.8373 97.218 98.5867 98.3116 98.5867C100.863 98.5867 102.891 99.4069 104.395 101.047C105.899 102.688 106.65 105.103 106.65 108.292V117.315C106.65 117.998 106.4 118.522 105.899 118.887C105.397 119.251 104.873 119.434 104.326 119.434ZM115.97 110.685C115.514 110.685 115.104 110.525 114.74 110.206C114.421 109.842 114.238 109.363 114.193 108.771L113.373 92.982C113.327 92.1162 113.578 91.4783 114.125 91.0682C114.671 90.6125 115.287 90.3847 115.97 90.3847C116.608 90.3847 117.2 90.6125 117.747 91.0682C118.294 91.4783 118.545 92.1162 118.499 92.982L117.815 108.771C117.77 109.363 117.565 109.842 117.2 110.206C116.881 110.525 116.471 110.685 115.97 110.685ZM115.97 119.775C115.104 119.775 114.352 119.479 113.714 118.887C113.122 118.34 112.826 117.679 112.826 116.905C112.826 116.084 113.122 115.401 113.714 114.854C114.352 114.262 115.104 113.965 115.97 113.965C116.79 113.965 117.497 114.262 118.089 114.854C118.681 115.401 118.977 116.084 118.977 116.905C118.977 117.679 118.681 118.34 118.089 118.887C117.497 119.479 116.79 119.775 115.97 119.775Z" fill="#0B103F" style="fill:#0B103F;fill:color(display-p3 0.0431 0.0627 0.2471);fill-opacity:1;"/>
<path d="M84.6574 69.2282C97.4019 56.4838 97.4018 35.8209 84.6574 23.0764C71.9129 10.332 51.2501 10.332 38.5056 23.0764C25.7611 35.8209 25.7611 56.4838 38.5056 69.2282C51.2501 81.9727 71.9129 81.9727 84.6574 69.2282Z" fill="#AAB6F9" style="fill:#AAB6F9;fill:color(display-p3 0.6667 0.7137 0.9765);fill-opacity:1;"/>
<path d="M94.6429 54.3267L71.0275 56.7196C69.8236 56.8416 68.7484 55.9646 68.6264 54.7601L66.234 31.1447C66.112 29.9408 66.989 28.8656 68.1935 28.7436L91.8089 26.3512C93.0128 26.2292 94.088 27.1062 94.21 28.3106L96.6024 51.926C96.7244 53.13 95.8469 54.2047 94.6429 54.3267Z" fill="#FFBB22" style="fill:#FFBB22;fill:color(display-p3 1.0000 0.7333 0.1333);fill-opacity:1;"/>
<path d="M59.8828 43.864L35.9347 43.8722C34.7134 43.8727 33.7235 42.8833 33.723 41.6621L33.7148 17.714C33.7144 16.4927 34.7037 15.5028 35.925 15.5023L59.8731 15.4941C61.0944 15.4937 62.0843 16.483 62.0848 17.7043L62.0929 41.6524C62.0934 42.8732 61.1041 43.8636 59.8828 43.864Z" fill="#FF3636" style="fill:#FF3636;fill:color(display-p3 1.0000 0.2118 0.2118);fill-opacity:1;"/>
<path d="M65.222 76.4573L41.3351 76.4655C40.1172 76.4659 39.1293 75.479 39.1293 74.2611L39.1211 50.3742C39.1206 49.1563 40.1076 48.1688 41.3255 48.1684L65.2123 48.1602C66.4303 48.1597 67.4177 49.1466 67.4182 50.3646L67.4264 74.2514C67.4269 75.4693 66.4399 76.4568 65.222 76.4573Z" fill="#3939FF" style="fill:#3939FF;fill:color(display-p3 0.2235 0.2235 1.0000);fill-opacity:1;"/>
<path d="M61.1093 64.7905C61.1093 64.7905 57.2661 54.4536 57.2618 54.443C57.0467 53.9126 56.539 53.5703 55.9681 53.5703H55.9667C55.3953 53.5708 54.8876 53.9146 54.6736 54.4459C54.6702 54.4546 50.7932 64.7876 50.7932 64.7876C50.5675 65.3889 50.8722 66.0591 51.4735 66.2842C51.608 66.3348 51.7459 66.3585 51.8819 66.3585C52.3525 66.3585 52.7956 66.0706 52.9706 65.6039L53.6514 63.7891H58.2564L58.93 65.601C59.1537 66.2027 59.8229 66.5094 60.4247 66.2857C61.0264 66.0619 61.3331 65.3927 61.1093 64.7905ZM54.5236 61.4641L55.9643 57.6238L57.3919 61.4641H54.5236Z" fill="white" style="fill:white;fill-opacity:1;"/>
<path d="M51.2972 50.6625C51.2972 50.0202 50.7765 49.5 50.1347 49.5H46.6468C46.0046 49.5 45.4844 50.0202 45.4844 50.6625V54.1504C45.4844 54.7926 46.0051 55.3128 46.6468 55.3128C47.2891 55.3128 47.8093 54.7926 47.8093 54.1504V51.8254H50.1343C50.777 51.8249 51.2972 51.3047 51.2972 50.6625Z" fill="#0B103F" style="fill:#0B103F;fill:color(display-p3 0.0431 0.0627 0.2471);fill-opacity:1;"/>
<path d="M65.2475 64.6152C64.6053 64.6152 64.0851 65.1355 64.0851 65.7777V68.1026H61.7601C61.1179 68.1026 60.5977 68.6229 60.5977 69.2651C60.5977 69.9073 61.1179 70.4276 61.7601 70.4276H65.248C65.8903 70.4276 66.4105 69.9069 66.4105 69.2651V65.7772C66.4105 65.136 65.8898 64.6152 65.2475 64.6152Z" fill="#0B103F" style="fill:#0B103F;fill:color(display-p3 0.0431 0.0627 0.2471);fill-opacity:1;"/>
<path d="M43.1609 26.2495V23.9246H45.4858C46.1281 23.9246 46.6483 23.4043 46.6483 22.7621C46.6483 22.1199 46.1281 21.5996 45.4858 21.5996H41.9984C41.3562 21.5996 40.8359 22.1199 40.8359 22.7621V26.25C40.8359 26.8922 41.3562 27.4125 41.9984 27.4125C42.6406 27.4125 43.1609 26.8917 43.1609 26.2495Z" fill="#0B103F" style="fill:#0B103F;fill:color(display-p3 0.0431 0.0627 0.2471);fill-opacity:1;"/>
<path d="M56.5297 42.5257H60.0171C60.6593 42.5257 61.1795 42.0055 61.1795 41.3633V37.8754C61.1795 37.2331 60.6593 36.7129 60.0171 36.7129C59.3748 36.7129 58.8546 37.2331 58.8546 37.8754V40.2003H56.5297C55.8874 40.2003 55.3672 40.7205 55.3672 41.3628C55.3667 42.005 55.8874 42.5257 56.5297 42.5257Z" fill="#0B103F" style="fill:#0B103F;fill:color(display-p3 0.0431 0.0627 0.2471);fill-opacity:1;"/>
<path d="M48.1039 38.4556H48.1092C48.1371 38.4556 50.9172 38.4431 51.6781 38.4431C53.8738 38.4431 55.6602 36.6582 55.6602 34.4644C55.6602 33.1669 55.0353 32.0126 54.0705 31.286C54.4789 30.7055 54.7195 29.9996 54.7195 29.2378C54.7195 27.2692 53.1163 25.668 51.1467 25.668H48.1039C47.4616 25.668 46.9414 26.1882 46.9414 26.8304V37.2937C46.9414 37.6027 47.0648 37.8992 47.2837 38.1177C47.5012 38.3337 47.7963 38.4556 48.1039 38.4556ZM51.6781 36.1182C51.2384 36.1182 50.1333 36.122 49.2663 36.1259V32.814C49.5195 32.813 49.789 32.812 50.0465 32.8111H51.6781C52.5918 32.8111 53.3352 33.5531 53.3352 34.4649C53.3352 35.3761 52.5918 36.1182 51.6781 36.1182ZM51.1467 27.9924C51.8348 27.9924 52.3946 28.5508 52.3946 29.2374C52.3946 29.9239 51.8348 30.4823 51.1467 30.4823C50.923 30.4823 50.5021 30.4832 50.0431 30.4852H49.2663V27.9924H51.1467Z" fill="white" style="fill:white;fill-opacity:1;"/>
<path d="M73.9905 35.5243C73.9345 34.8844 73.3719 34.4115 72.7311 34.4674L69.2567 34.7711C68.6169 34.8271 68.1439 35.3912 68.1998 36.0305L68.5036 39.5049C68.5566 40.11 69.1154 40.5642 69.7118 40.5642C70.3517 40.5083 70.8762 39.9422 70.8198 39.3024L70.6173 36.9862L72.9336 36.7836C73.5729 36.7277 74.0464 36.1641 73.9905 35.5243Z" fill="#0B103F" style="fill:#0B103F;fill:color(display-p3 0.0431 0.0627 0.2471);fill-opacity:1;"/>
<path d="M90.6662 52.7388L90.3625 49.2644C90.3066 48.6251 89.7415 48.1521 89.1031 48.2075C88.4633 48.2635 87.9903 48.8276 88.0462 49.4669L88.2487 51.7832L85.9325 51.9857C85.2931 52.0416 84.8197 52.6057 84.8756 53.2451C84.9286 53.8502 85.4002 54.3053 86.0838 54.3044L89.6094 53.9982C90.2492 53.9418 90.7222 53.3782 90.6662 52.7388Z" fill="#0B103F" style="fill:#0B103F;fill:color(display-p3 0.0431 0.0627 0.2471);fill-opacity:1;"/>
<path d="M80.2991 40.5087C81.0551 40.4426 81.8053 40.6128 82.4697 41.001C83.0242 41.325 83.7359 41.1379 84.0599 40.5839C84.3839 40.0294 84.1968 39.3178 83.6428 38.9938C82.5604 38.3612 81.3343 38.0844 80.0966 38.1929C78.4486 38.3371 76.9602 39.1418 75.9067 40.459C74.8657 41.7599 74.3739 43.4079 74.5219 45.0993C74.6699 46.7907 75.4404 48.3278 76.6911 49.4285C77.8218 50.4232 79.2224 50.9555 80.6829 50.9555C80.8579 50.9555 81.0339 50.9478 81.2108 50.9324C82.5695 50.8138 83.746 50.2415 84.6129 49.2786C84.7812 49.0915 84.9388 48.888 85.0816 48.6735C85.4374 48.1393 85.2927 47.4175 84.7585 47.0616C84.2243 46.7058 83.5025 46.85 83.1467 47.3847C83.0662 47.5057 82.9779 47.6195 82.8844 47.7232C82.4119 48.2482 81.7807 48.5486 81.0078 48.6161C79.9992 48.7043 79.0112 48.3731 78.2268 47.6827C77.4269 46.9787 76.9336 45.9893 76.8382 44.8963C76.7427 43.8033 77.0566 42.7435 77.722 41.9113C78.3748 41.095 79.2899 40.5969 80.2991 40.5087Z" fill="white" style="fill:white;fill-opacity:1;"/>
<path d="M93.3304 42.0078C93.9727 42.0078 94.4929 42.5285 94.4929 43.1703C94.4929 43.8125 93.9727 44.3328 93.3304 44.3328C92.6882 44.3328 92.168 43.812 92.168 43.1703C92.168 42.5285 92.6887 42.0078 93.3304 42.0078Z" fill="#0B103F" style="fill:#0B103F;fill:color(display-p3 0.0431 0.0627 0.2471);fill-opacity:1;"/>
<path d="M95.7021 56.966L94.9432 48.2805C94.9176 47.9888 94.784 47.7203 94.5676 47.5226C94.3279 47.3042 94.0073 47.1947 93.6828 47.2236C93.3737 47.2502 93.0931 47.3967 92.8935 47.634C92.6934 47.8721 92.5994 48.1735 92.6259 48.4825L93.285 56.0099L67.8051 58.2399L65.5766 32.7614L91.0555 30.5315L91.7147 38.0589C91.7402 38.3506 91.8728 38.6206 92.0888 38.8168C92.3284 39.0352 92.6505 39.1447 92.9736 39.1167C93.6114 39.0598 94.0859 38.4947 94.0304 37.8564L93.2701 29.1708C93.2445 28.8661 93.0946 28.5778 92.8598 28.3816C92.625 28.1853 92.3145 28.0874 92.0112 28.114L66.4103 30.3531V18.1117C66.4103 17.4695 65.89 16.9492 65.2478 16.9492H37.3461C36.7038 16.9492 36.1836 17.4695 36.1836 18.1117V46.013C36.1836 46.6552 36.7038 47.1754 37.3461 47.1754H40.834V73.9142C40.834 74.5564 41.3542 75.0767 41.9964 75.0767H69.8977C70.5394 75.0767 71.0602 74.556 71.0602 73.9142V60.2881L94.6452 58.2254C94.9499 58.1989 95.2382 58.0485 95.4345 57.8137C95.6312 57.5798 95.7291 57.2708 95.7021 56.966ZM38.5085 19.2746H64.0849V30.5648C63.5135 30.6805 63.1066 31.2104 63.1582 31.8058L64.0849 42.3954V44.851H38.5085V19.2746ZM68.7357 72.7522H43.1594V47.1759H64.5038L65.5911 59.6C65.6176 59.9057 65.7676 60.1931 66.0014 60.3893C66.2107 60.5648 66.4768 60.6613 66.7512 60.6613C66.7839 60.6613 66.8172 60.6603 66.85 60.6564L68.7357 60.4915V72.7522Z" fill="#0B103F" style="fill:#0B103F;fill:color(display-p3 0.0431 0.0627 0.2471);fill-opacity:1;"/>
<path d="M28.4678 142.427C27.8727 142.427 27.3499 142.339 26.8996 142.162C26.4492 141.985 26.0149 141.703 25.5967 141.317C25.5404 141.261 25.4922 141.201 25.452 141.136C25.4198 141.064 25.4037 140.988 25.4037 140.907C25.4037 140.779 25.448 140.666 25.5364 140.57C25.6329 140.465 25.7495 140.413 25.8863 140.413C25.9988 140.413 26.0994 140.457 26.1878 140.545C26.5015 140.851 26.8393 141.084 27.2012 141.245C27.5711 141.406 27.9853 141.486 28.4437 141.486C28.7975 141.486 29.1152 141.43 29.3967 141.317C29.6862 141.205 29.9154 141.048 30.0843 140.847C30.2532 140.646 30.3376 140.413 30.3376 140.147C30.3296 139.826 30.2331 139.56 30.0481 139.351C29.8712 139.142 29.6219 138.969 29.3002 138.832C28.9865 138.688 28.6206 138.567 28.2024 138.471C27.8325 138.382 27.4907 138.273 27.177 138.145C26.8714 138.016 26.606 137.859 26.3808 137.674C26.1557 137.481 25.9787 137.252 25.8501 136.987C25.7294 136.713 25.6691 136.396 25.6691 136.034C25.6691 135.575 25.7897 135.173 26.031 134.827C26.2723 134.482 26.606 134.216 27.0323 134.031C27.4585 133.838 27.9491 133.742 28.504 133.742C28.9946 133.742 29.457 133.822 29.8913 133.983C30.3336 134.144 30.6875 134.365 30.9529 134.646C31.1137 134.799 31.1941 134.948 31.1941 135.093C31.1941 135.213 31.1418 135.326 31.0373 135.431C30.9408 135.527 30.8282 135.575 30.6995 135.575C30.6111 135.575 30.5306 135.543 30.4583 135.479C30.3215 135.326 30.1486 135.189 29.9395 135.069C29.7304 134.948 29.5012 134.851 29.2519 134.779C29.0026 134.707 28.7533 134.671 28.504 134.671C28.1341 134.671 27.8083 134.727 27.5269 134.839C27.2454 134.944 27.0242 135.097 26.8634 135.298C26.7106 135.491 26.6342 135.724 26.6342 135.998C26.6342 136.303 26.7226 136.556 26.8996 136.758C27.0765 136.951 27.3137 137.111 27.6113 137.24C27.9089 137.361 28.2386 137.469 28.6005 137.566C28.9946 137.662 29.3565 137.775 29.6862 137.904C30.024 138.024 30.3135 138.177 30.5548 138.362C30.796 138.547 30.981 138.784 31.1097 139.074C31.2464 139.355 31.3148 139.705 31.3148 140.123C31.3148 140.565 31.1901 140.96 30.9408 141.305C30.6915 141.651 30.3497 141.925 29.9154 142.126C29.4892 142.319 29.0066 142.419 28.4678 142.427ZM35.5396 135.913C35.9497 135.913 36.3197 135.957 36.6494 136.046C36.9791 136.134 37.2405 136.255 37.4335 136.408C37.6265 136.56 37.723 136.733 37.723 136.926C37.723 137.031 37.6868 137.131 37.6145 137.228C37.5421 137.324 37.4456 137.373 37.3249 137.373C37.2123 137.373 37.1199 137.353 37.0475 137.312C36.9831 137.272 36.9188 137.22 36.8545 137.156C36.7982 137.091 36.7177 137.035 36.6132 136.987C36.5167 136.93 36.376 136.886 36.191 136.854C36.006 136.822 35.821 136.806 35.6361 136.806C35.1937 136.806 34.8037 136.91 34.4659 137.119C34.1362 137.329 33.8748 137.61 33.6818 137.964C33.4888 138.318 33.3923 138.72 33.3923 139.17C33.3923 139.621 33.4848 140.023 33.6697 140.377C33.8547 140.73 34.1121 141.012 34.4418 141.221C34.7715 141.43 35.1535 141.535 35.5878 141.535C35.8693 141.535 36.0945 141.51 36.2634 141.462C36.4322 141.414 36.573 141.358 36.6856 141.293C36.8303 141.213 36.9389 141.132 37.0113 141.052C37.0917 140.972 37.1963 140.931 37.3249 140.931C37.4617 140.931 37.5662 140.976 37.6386 141.064C37.719 141.153 37.7592 141.261 37.7592 141.39C37.7592 141.535 37.6587 141.687 37.4576 141.848C37.2566 142.009 36.9831 142.146 36.6373 142.258C36.2995 142.371 35.9135 142.427 35.4792 142.427C34.868 142.427 34.3332 142.287 33.8748 142.005C33.4164 141.716 33.0585 141.325 32.8012 140.835C32.5519 140.336 32.4272 139.781 32.4272 139.17C32.4272 138.559 32.5559 138.008 32.8132 137.517C33.0786 137.027 33.4446 136.637 33.911 136.347C34.3775 136.058 34.9203 135.913 35.5396 135.913ZM42.0363 135.973C42.5671 135.973 42.9853 136.09 43.2909 136.323C43.6046 136.548 43.8257 136.854 43.9544 137.24C44.0911 137.618 44.1595 138.04 44.1595 138.507V141.812C44.1595 141.949 44.1112 142.065 44.0147 142.162C43.9262 142.258 43.8137 142.307 43.6769 142.307C43.5402 142.307 43.4236 142.258 43.3271 142.162C43.2386 142.065 43.1944 141.949 43.1944 141.812V138.507C43.1944 138.201 43.1502 137.928 43.0617 137.686C42.9732 137.437 42.8245 137.24 42.6154 137.095C42.4143 136.942 42.1369 136.866 41.783 136.866C41.4533 136.866 41.1517 136.942 40.8782 137.095C40.6048 137.24 40.3877 137.437 40.2268 137.686C40.066 137.928 39.9856 138.201 39.9856 138.507V141.812C39.9856 141.949 39.9373 142.065 39.8408 142.162C39.7523 142.258 39.6397 142.307 39.503 142.307C39.3663 142.307 39.2497 142.258 39.1532 142.162C39.0647 142.065 39.0205 141.949 39.0205 141.812V133.862C39.0205 133.726 39.0647 133.613 39.1532 133.525C39.2497 133.428 39.3663 133.38 39.503 133.38C39.6478 133.38 39.7644 133.428 39.8529 133.525C39.9413 133.613 39.9856 133.726 39.9856 133.862V137.469L39.7443 137.735C39.7845 137.526 39.873 137.316 40.0097 137.107C40.1464 136.89 40.3193 136.697 40.5284 136.528C40.7375 136.359 40.9707 136.227 41.2281 136.13C41.4854 136.026 41.7548 135.973 42.0363 135.973ZM51.8706 139.17C51.8706 139.797 51.7298 140.356 51.4484 140.847C51.1749 141.338 50.801 141.724 50.3265 142.005C49.86 142.287 49.3333 142.427 48.7462 142.427C48.1591 142.427 47.6283 142.287 47.1538 142.005C46.6793 141.724 46.3013 141.338 46.0199 140.847C45.7464 140.356 45.6097 139.797 45.6097 139.17C45.6097 138.543 45.7464 137.984 46.0199 137.493C46.3013 137.003 46.6793 136.617 47.1538 136.335C47.6283 136.054 48.1591 135.913 48.7462 135.913C49.3333 135.913 49.86 136.054 50.3265 136.335C50.801 136.617 51.1749 137.003 51.4484 137.493C51.7298 137.984 51.8706 138.543 51.8706 139.17ZM50.9055 139.17C50.9055 138.704 50.809 138.294 50.616 137.94C50.431 137.586 50.1737 137.308 49.8439 137.107C49.5223 136.906 49.1563 136.806 48.7462 136.806C48.336 136.806 47.9661 136.906 47.6363 137.107C47.3147 137.308 47.0573 137.586 46.8643 137.94C46.6713 138.294 46.5748 138.704 46.5748 139.17C46.5748 139.629 46.6713 140.035 46.8643 140.389C47.0573 140.742 47.3147 141.024 47.6363 141.233C47.9661 141.434 48.336 141.535 48.7462 141.535C49.1563 141.535 49.5223 141.434 49.8439 141.233C50.1737 141.024 50.431 140.742 50.616 140.389C50.809 140.035 50.9055 139.629 50.9055 139.17ZM59.2452 139.17C59.2452 139.797 59.1045 140.356 58.823 140.847C58.5496 141.338 58.1756 141.724 57.7011 142.005C57.2347 142.287 56.7079 142.427 56.1208 142.427C55.5338 142.427 55.003 142.287 54.5285 142.005C54.054 141.724 53.676 141.338 53.3945 140.847C53.1211 140.356 52.9844 139.797 52.9844 139.17C52.9844 138.543 53.1211 137.984 53.3945 137.493C53.676 137.003 54.054 136.617 54.5285 136.335C55.003 136.054 55.5338 135.913 56.1208 135.913C56.7079 135.913 57.2347 136.054 57.7011 136.335C58.1756 136.617 58.5496 137.003 58.823 137.493C59.1045 137.984 59.2452 138.543 59.2452 139.17ZM58.2802 139.17C58.2802 138.704 58.1837 138.294 57.9907 137.94C57.8057 137.586 57.5483 137.308 57.2186 137.107C56.8969 136.906 56.531 136.806 56.1208 136.806C55.7107 136.806 55.3407 136.906 55.011 137.107C54.6893 137.308 54.432 137.586 54.239 137.94C54.0459 138.294 53.9494 138.704 53.9494 139.17C53.9494 139.629 54.0459 140.035 54.239 140.389C54.432 140.742 54.6893 141.024 55.011 141.233C55.3407 141.434 55.7107 141.535 56.1208 141.535C56.531 141.535 56.8969 141.434 57.2186 141.233C57.5483 141.024 57.8057 140.742 57.9907 140.389C58.1837 140.035 58.2802 139.629 58.2802 139.17ZM61.7584 141.812C61.7584 141.949 61.7101 142.065 61.6136 142.162C61.5171 142.258 61.4005 142.307 61.2638 142.307C61.1271 142.307 61.0145 142.258 60.926 142.162C60.8375 142.065 60.7933 141.949 60.7933 141.812V133.862C60.7933 133.726 60.8375 133.613 60.926 133.525C61.0225 133.428 61.1391 133.38 61.2758 133.38C61.4206 133.38 61.5372 133.428 61.6257 133.525C61.7141 133.613 61.7584 133.726 61.7584 133.862V141.812ZM69.558 133.404C69.6947 133.404 69.8354 133.42 69.9802 133.452C70.133 133.484 70.2617 133.541 70.3662 133.621C70.4788 133.701 70.5351 133.81 70.5351 133.947C70.5351 134.075 70.4949 134.184 70.4145 134.272C70.3341 134.353 70.2375 134.393 70.125 134.393C70.0526 134.393 69.952 134.373 69.8234 134.333C69.6947 134.285 69.562 134.26 69.4253 134.26C69.2403 134.26 69.0875 134.301 68.9669 134.381C68.8543 134.461 68.7698 134.57 68.7135 134.707C68.6653 134.835 68.6412 134.98 68.6412 135.141V141.812C68.6412 141.949 68.5929 142.065 68.4964 142.162C68.4079 142.258 68.2953 142.307 68.1586 142.307C68.0139 142.307 67.8973 142.258 67.8088 142.162C67.7203 142.065 67.6761 141.949 67.6761 141.812V135.153C67.6761 134.614 67.841 134.188 68.1707 133.874C68.5085 133.561 68.9709 133.404 69.558 133.404ZM69.8957 136.166C70.0244 136.166 70.133 136.211 70.2215 136.299C70.3099 136.38 70.3542 136.484 70.3542 136.613C70.3542 136.741 70.3099 136.85 70.2215 136.938C70.133 137.019 70.0244 137.059 69.8957 137.059H66.8679C66.7392 137.059 66.6306 137.015 66.5421 136.926C66.4537 136.838 66.4094 136.733 66.4094 136.613C66.4094 136.476 66.4537 136.367 66.5421 136.287C66.6306 136.207 66.7392 136.166 66.8679 136.166H69.8957ZM77.1046 139.17C77.1046 139.797 76.9639 140.356 76.6824 140.847C76.409 141.338 76.035 141.724 75.5605 142.005C75.0941 142.287 74.5673 142.427 73.9802 142.427C73.3931 142.427 72.8624 142.287 72.3879 142.005C71.9134 141.724 71.5354 141.338 71.2539 140.847C70.9805 140.356 70.8438 139.797 70.8438 139.17C70.8438 138.543 70.9805 137.984 71.2539 137.493C71.5354 137.003 71.9134 136.617 72.3879 136.335C72.8624 136.054 73.3931 135.913 73.9802 135.913C74.5673 135.913 75.0941 136.054 75.5605 136.335C76.035 136.617 76.409 137.003 76.6824 137.493C76.9639 137.984 77.1046 138.543 77.1046 139.17ZM76.1396 139.17C76.1396 138.704 76.0431 138.294 75.85 137.94C75.6651 137.586 75.4077 137.308 75.078 137.107C74.7563 136.906 74.3904 136.806 73.9802 136.806C73.5701 136.806 73.2001 136.906 72.8704 137.107C72.5487 137.308 72.2914 137.586 72.0983 137.94C71.9053 138.294 71.8088 138.704 71.8088 139.17C71.8088 139.629 71.9053 140.035 72.0983 140.389C72.2914 140.742 72.5487 141.024 72.8704 141.233C73.2001 141.434 73.5701 141.535 73.9802 141.535C74.3904 141.535 74.7563 141.434 75.078 141.233C75.4077 141.024 75.6651 140.742 75.85 140.389C76.0431 140.035 76.1396 139.629 76.1396 139.17ZM79.0387 142.307C78.902 142.307 78.7854 142.258 78.6889 142.162C78.6004 142.065 78.5562 141.949 78.5562 141.812V136.552C78.5562 136.416 78.6004 136.303 78.6889 136.215C78.7854 136.118 78.902 136.07 79.0387 136.07C79.1835 136.07 79.3001 136.118 79.3886 136.215C79.477 136.303 79.5213 136.416 79.5213 136.552V138.145L79.3765 137.891C79.4247 137.642 79.5092 137.401 79.6298 137.168C79.7585 136.926 79.9193 136.713 80.1124 136.528C80.3054 136.335 80.5265 136.187 80.7758 136.082C81.0251 135.969 81.2986 135.913 81.5961 135.913C81.7731 135.913 81.9339 135.957 82.0787 136.046C82.2315 136.126 82.3079 136.243 82.3079 136.396C82.3079 136.564 82.2636 136.689 82.1752 136.77C82.0867 136.85 81.9862 136.89 81.8736 136.89C81.7691 136.89 81.6685 136.87 81.572 136.83C81.4755 136.782 81.3549 136.758 81.2101 136.758C81.0091 136.758 80.808 136.814 80.607 136.926C80.4139 137.031 80.233 137.184 80.0641 137.385C79.9033 137.586 79.7706 137.815 79.666 138.072C79.5695 138.322 79.5213 138.591 79.5213 138.881V141.812C79.5213 141.949 79.473 142.065 79.3765 142.162C79.288 142.258 79.1754 142.307 79.0387 142.307ZM87.2992 142.307C87.1544 142.307 87.0378 142.258 86.9493 142.162C86.8609 142.065 86.8166 141.949 86.8166 141.812V133.862C86.8166 133.726 86.8609 133.613 86.9493 133.525C87.0378 133.428 87.1544 133.38 87.2992 133.38C87.4359 133.38 87.5485 133.428 87.637 133.525C87.7335 133.613 87.7817 133.726 87.7817 133.862V141.812C87.7817 141.949 87.7335 142.065 87.637 142.162C87.5485 142.258 87.4359 142.307 87.2992 142.307ZM91.3042 136.034C91.4329 136.034 91.5415 136.086 91.6299 136.191C91.7264 136.287 91.7747 136.388 91.7747 136.492C91.7747 136.629 91.7103 136.749 91.5817 136.854L87.6731 140.268L87.637 139.146L90.9664 136.178C91.0629 136.082 91.1755 136.034 91.3042 136.034ZM91.4369 142.295C91.3002 142.295 91.1796 142.242 91.075 142.138L88.5055 139.399L89.2293 138.736L91.7747 141.462C91.8712 141.567 91.9194 141.687 91.9194 141.824C91.9194 141.969 91.8631 142.085 91.7506 142.174C91.638 142.254 91.5334 142.295 91.4369 142.295ZM94.2462 141.812C94.2462 141.949 94.1979 142.065 94.1014 142.162C94.0129 142.258 93.9003 142.307 93.7636 142.307C93.6189 142.307 93.5022 142.258 93.4138 142.162C93.3253 142.065 93.2811 141.949 93.2811 141.812V136.456C93.2811 136.319 93.3253 136.207 93.4138 136.118C93.5103 136.022 93.6269 135.973 93.7636 135.973C93.9003 135.973 94.0129 136.022 94.1014 136.118C94.1979 136.207 94.2462 136.319 94.2462 136.456V141.812ZM93.7636 135.165C93.5626 135.165 93.4138 135.125 93.3173 135.045C93.2208 134.964 93.1725 134.839 93.1725 134.671V134.502C93.1725 134.333 93.2248 134.208 93.3293 134.128C93.4339 134.047 93.5827 134.007 93.7757 134.007C93.9687 134.007 94.1135 134.047 94.21 134.128C94.3065 134.208 94.3547 134.333 94.3547 134.502V134.671C94.3547 134.839 94.3025 134.964 94.1979 135.045C94.1014 135.125 93.9566 135.165 93.7636 135.165ZM101.119 133.38C101.255 133.38 101.368 133.428 101.456 133.525C101.553 133.613 101.601 133.726 101.601 133.862V141.812C101.601 141.949 101.553 142.065 101.456 142.162C101.368 142.258 101.255 142.307 101.119 142.307C100.974 142.307 100.857 142.258 100.769 142.162C100.68 142.065 100.636 141.949 100.636 141.812V140.666L100.865 140.582C100.865 140.775 100.805 140.98 100.684 141.197C100.564 141.406 100.399 141.603 100.19 141.788C99.9807 141.973 99.7314 142.126 99.4419 142.246C99.1604 142.367 98.8548 142.427 98.5251 142.427C97.9862 142.427 97.4957 142.287 97.0533 142.005C96.619 141.724 96.2732 141.338 96.0159 140.847C95.7666 140.356 95.6419 139.797 95.6419 139.17C95.6419 138.535 95.7666 137.972 96.0159 137.481C96.2732 136.991 96.619 136.609 97.0533 136.335C97.4876 136.054 97.9701 135.913 98.5009 135.913C98.8387 135.913 99.1564 135.969 99.4539 136.082C99.7515 136.195 100.009 136.347 100.226 136.54C100.451 136.733 100.628 136.946 100.757 137.18C100.885 137.413 100.95 137.646 100.95 137.879L100.636 137.807V133.862C100.636 133.726 100.68 133.613 100.769 133.525C100.857 133.428 100.974 133.38 101.119 133.38ZM98.6336 141.535C99.0357 141.535 99.3896 141.434 99.6952 141.233C100.009 141.024 100.25 140.742 100.419 140.389C100.596 140.027 100.684 139.621 100.684 139.17C100.684 138.712 100.596 138.306 100.419 137.952C100.25 137.598 100.009 137.32 99.6952 137.119C99.3896 136.91 99.0357 136.806 98.6336 136.806C98.2396 136.806 97.8857 136.91 97.5721 137.119C97.2664 137.32 97.0252 137.598 96.8483 137.952C96.6713 138.306 96.5829 138.712 96.5829 139.17C96.5829 139.612 96.6713 140.015 96.8483 140.377C97.0252 140.73 97.2664 141.012 97.5721 141.221C97.8857 141.43 98.2396 141.535 98.6336 141.535ZM103.04 141.317C102.967 141.213 102.935 141.104 102.943 140.992C102.951 140.871 103.02 140.767 103.148 140.678C103.229 140.622 103.321 140.598 103.426 140.606C103.538 140.614 103.639 140.666 103.727 140.763C103.953 141.028 104.21 141.241 104.5 141.402C104.789 141.555 105.143 141.631 105.561 141.631C105.754 141.623 105.947 141.591 106.14 141.535C106.333 141.478 106.494 141.382 106.623 141.245C106.759 141.1 106.828 140.911 106.828 140.678C106.828 140.453 106.759 140.276 106.623 140.147C106.486 140.011 106.309 139.902 106.092 139.822C105.875 139.733 105.637 139.657 105.38 139.592C105.115 139.52 104.853 139.44 104.596 139.351C104.339 139.255 104.105 139.138 103.896 139.001C103.695 138.857 103.53 138.68 103.402 138.471C103.281 138.253 103.221 137.992 103.221 137.686C103.221 137.324 103.317 137.011 103.51 136.745C103.711 136.48 103.977 136.275 104.307 136.13C104.644 135.985 105.01 135.913 105.404 135.913C105.629 135.913 105.863 135.941 106.104 135.998C106.353 136.046 106.595 136.134 106.828 136.263C107.061 136.384 107.266 136.552 107.443 136.77C107.515 136.85 107.556 136.951 107.564 137.071C107.572 137.192 107.519 137.3 107.407 137.397C107.318 137.461 107.218 137.489 107.105 137.481C107.001 137.473 106.912 137.433 106.84 137.361C106.671 137.16 106.458 137.007 106.2 136.902C105.951 136.79 105.674 136.733 105.368 136.733C105.175 136.733 104.986 136.762 104.801 136.818C104.616 136.874 104.459 136.971 104.331 137.107C104.21 137.236 104.15 137.417 104.15 137.65C104.158 137.867 104.23 138.044 104.367 138.181C104.504 138.318 104.689 138.43 104.922 138.519C105.155 138.599 105.412 138.68 105.694 138.76C105.951 138.824 106.196 138.901 106.43 138.989C106.671 139.07 106.888 139.178 107.081 139.315C107.274 139.452 107.427 139.629 107.539 139.846C107.652 140.055 107.708 140.32 107.708 140.642C107.708 141.012 107.604 141.334 107.395 141.607C107.186 141.872 106.908 142.077 106.562 142.222C106.225 142.359 105.859 142.427 105.465 142.427C105.022 142.427 104.584 142.343 104.15 142.174C103.723 142.005 103.353 141.72 103.04 141.317Z" fill="#0B103F" style="fill:#0B103F;fill:color(display-p3 0.0431 0.0627 0.2471);fill-opacity:1;"/>
<path d="M120.549 139.568C120.515 140.272 119.885 140.801 119.181 140.801H111.641C110.924 140.801 110.344 140.221 110.344 139.504C110.344 138.788 110.924 138.207 111.641 138.207H119.254C119.989 138.207 120.585 138.82 120.549 139.568Z" fill="#AAB6F9" style="fill:#AAB6F9;fill:color(display-p3 0.6667 0.7137 0.9765);fill-opacity:1;"/>
<path d="M13.5141 139.503C13.5141 140.219 12.9336 140.8 12.2171 140.8H3.70711C2.90192 140.8 2.2727 140.067 2.43615 139.239C2.55717 138.626 3.13238 138.205 3.75774 138.205H12.2171C12.9331 138.206 13.5141 138.786 13.5141 139.503Z" fill="#AAB6F9" style="fill:#AAB6F9;fill:color(display-p3 0.6667 0.7137 0.9765);fill-opacity:1;"/>
</svg>
