<svg width="40" height="40" viewBox="0 0 40 40" fill="none" xmlns="http://www.w3.org/2000/svg">
<rect width="40" height="40" rx="3" fill="#1D5BBF" style="fill:#1D5BBF;fill:color(display-p3 0.1137 0.3569 0.7490);fill-opacity:1;"/>
<path d="M8.73242 12.5779C9.13691 12.5779 9.46484 12.25 9.46484 11.8455V8.46484H12.8455C13.25 8.46484 13.5779 8.13691 13.5779 7.73242C13.5779 7.32793 13.25 7 12.8455 7H8.73242C8.32793 7 8 7.32793 8 7.73242V11.8455C8 12.25 8.32793 12.5779 8.73242 12.5779Z" fill="#EEF5FF" style="fill:#EEF5FF;fill:color(display-p3 0.9333 0.9608 1.0000);fill-opacity:1;"/>
<path d="M32.2673 7H28.1543C27.7498 7 27.4219 7.32793 27.4219 7.73242C27.4219 8.13691 27.7498 8.46484 28.1543 8.46484H31.5349V11.8455C31.5349 12.25 31.8628 12.5779 32.2673 12.5779C32.6718 12.5779 32.9998 12.25 32.9998 11.8455V7.73242C32.9998 7.32793 32.6718 7 32.2673 7Z" fill="#EEF5FF" style="fill:#EEF5FF;fill:color(display-p3 0.9333 0.9608 1.0000);fill-opacity:1;"/>
<path d="M32.2673 26.4219C31.8628 26.4219 31.5349 26.7498 31.5349 27.1543V30.5349H28.1543C27.7498 30.5349 27.4219 30.8628 27.4219 31.2673C27.4219 31.6718 27.7498 31.9998 28.1543 31.9998H32.2673C32.6718 31.9998 32.9998 31.6718 32.9998 31.2673V27.1543C32.9998 26.7498 32.6718 26.4219 32.2673 26.4219Z" fill="#EEF5FF" style="fill:#EEF5FF;fill:color(display-p3 0.9333 0.9608 1.0000);fill-opacity:1;"/>
<path d="M12.8455 30.5349H9.46484V27.1543C9.46484 26.7498 9.13691 26.4219 8.73242 26.4219C8.32793 26.4219 8 26.7498 8 27.1543V31.2673C8 31.6718 8.32793 31.9998 8.73242 31.9998H12.8455C13.25 31.9998 13.5779 31.6718 13.5779 31.2673C13.5779 30.8628 13.25 30.5349 12.8455 30.5349Z" fill="#EEF5FF" style="fill:#EEF5FF;fill:color(display-p3 0.9333 0.9608 1.0000);fill-opacity:1;"/>
<path d="M28.4902 16.3457V11.7202C28.4902 11.4907 28.3042 11.3047 28.0742 11.3047H20.499H12.9238C12.6938 11.3047 12.5078 11.4907 12.5078 11.7202V16.3457C12.5078 16.5757 12.6938 16.7617 12.9238 16.7617H15.1328C15.3623 16.7617 15.5483 16.5757 15.5483 16.3457V14.7612C15.5483 14.5312 15.7349 14.3452 15.9644 14.3452H18.5625C18.7925 14.3452 18.9785 14.5312 18.9785 14.7612V26.1938C18.9785 26.4238 18.7925 26.6099 18.5625 26.6099H17.4263C17.1963 26.6099 17.0103 26.7959 17.0103 27.0259V29.2349C17.0103 29.4644 17.1963 29.6504 17.4263 29.6504H20.499H23.5718C23.8018 29.6504 23.9878 29.4644 23.9878 29.2349V27.0259C23.9878 26.7959 23.8018 26.6099 23.5718 26.6099H22.4355C22.2056 26.6099 22.0195 26.4238 22.0195 26.1938V14.7612C22.0195 14.5312 22.2056 14.3452 22.4355 14.3452H25.0337C25.2632 14.3452 25.4497 14.5312 25.4497 14.7612V16.3457C25.4497 16.5757 25.6357 16.7617 25.8652 16.7617H28.0742C28.3042 16.7617 28.4902 16.5757 28.4902 16.3457Z" fill="white" style="fill:white;fill-opacity:1;"/>
</svg>
