<svg width="22" height="22" viewBox="0 0 22 22" fill="none" xmlns="http://www.w3.org/2000/svg">
<path d="M3.23197 18.7099C4.23997 19.7119 5.41416 20.4988 6.72201 21.0487C8.0769 21.6184 9.51517 21.9072 10.9969 21.9072C12.4786 21.9072 13.9169 21.6184 15.2718 21.0487C16.5796 20.4988 17.7539 19.7119 18.7619 18.7099C19.7699 17.7078 20.5615 16.5406 21.1146 15.2404C21.6876 13.8935 21.9782 12.4637 21.9782 10.9908C21.9782 9.51771 21.6876 8.08793 21.1146 6.74106C20.5615 5.44092 19.7698 4.27366 18.7619 3.2716C17.7539 2.26954 16.5797 1.48265 15.2718 0.932759C13.9169 0.36304 12.4786 0.0742188 10.9969 0.0742188C9.51517 0.0742188 8.0769 0.363077 6.72201 0.932759C5.41416 1.48265 4.23997 2.26958 3.23197 3.2716C2.22397 4.27362 1.43241 5.44092 0.87922 6.74103C0.306197 8.08793 0.015625 9.51771 0.015625 10.9908C0.015625 12.4637 0.306197 13.8935 0.879257 15.2404C1.43241 16.5406 2.22401 17.7078 3.23197 18.7099ZM10.9969 1.66787C16.1763 1.66787 20.3751 5.84186 20.3751 10.9908C20.3751 16.1396 16.1763 20.3136 10.9969 20.3136C5.81748 20.3136 1.61873 16.1396 1.61873 10.9908C1.61873 5.84186 5.81748 1.66787 10.9969 1.66787Z" fill="#18283D"/>
<path d="M11 21.9249C9.51563 21.9249 8.07494 21.6356 6.7178 21.0649C5.4077 20.514 4.23149 19.7258 3.22185 18.7221C2.21212 17.7183 1.41922 16.549 0.865129 15.2467C0.291058 13.8975 0 12.4653 0 10.9898C0 9.51436 0.291058 8.08209 0.865092 6.73284C1.41918 5.43054 2.21212 4.26127 3.22181 3.2575C4.23149 2.25373 5.40774 1.4655 6.71776 0.914678C8.07501 0.344029 9.51575 0.0546875 11 0.0546875C12.4843 0.0546875 13.925 0.34403 15.2821 0.914715C16.5922 1.46554 17.7684 2.25381 18.7782 3.25754C19.7879 4.26138 20.5808 5.43065 21.1349 6.73288C21.7089 8.08212 22 9.51436 22 10.9898C22 12.4653 21.7089 13.8975 21.1349 15.2467C20.5808 16.549 19.788 17.7183 18.7782 18.7222C17.7685 19.7258 16.5922 20.514 15.2821 21.065C13.925 21.6356 12.4843 21.9249 11 21.9249ZM11 0.0918875C9.5208 0.0918875 8.085 0.380225 6.73239 0.94894C5.42682 1.4979 4.25458 2.28345 3.2483 3.2838C2.24199 4.28418 1.45177 5.44948 0.899556 6.74731C0.327468 8.09198 0.0374207 9.51935 0.0374207 10.9898C0.0374207 12.4602 0.327468 13.8876 0.899556 15.2323C1.45177 16.5301 2.24199 17.6954 3.2483 18.6958C4.25455 19.6961 5.42675 20.4816 6.73239 21.0307C8.08485 21.5994 9.52068 21.8877 11 21.8877C12.4793 21.8877 13.9151 21.5994 15.2676 21.0306C16.5732 20.4816 17.7455 19.6961 18.7517 18.6958C19.7581 17.6953 20.5482 16.53 21.1004 15.2323C21.6725 13.8876 21.9626 12.4603 21.9626 10.9898C21.9626 9.51935 21.6725 8.09198 21.1004 6.74739C20.5483 5.44959 19.7581 4.2843 18.7517 3.28384C17.7454 2.28349 16.5731 1.49794 15.2676 0.948977C13.9151 0.380225 12.4792 0.0918875 11 0.0918875ZM11 20.3312C8.49001 20.3312 6.13022 19.3596 4.35539 17.5952C2.58057 15.8308 1.6031 13.485 1.6031 10.9898C1.6031 8.49463 2.58053 6.14876 4.35539 4.3844C6.13022 2.62004 8.49001 1.64834 11 1.64834C13.51 1.64834 15.8697 2.62004 17.6446 4.3844C19.4194 6.1488 20.3969 8.49463 20.3969 10.9898C20.3969 13.485 19.4194 15.8309 17.6446 17.5952C15.8697 19.3596 13.51 20.3312 11 20.3312ZM11 1.68554C8.5 1.68554 6.14964 2.65337 4.38185 4.4107C2.6141 6.16807 1.64052 8.50457 1.64052 10.9898C1.64052 13.4751 2.6141 15.8116 4.38185 17.5689C6.1496 19.3262 8.5 20.294 11 20.294C13.5 20.294 15.8504 19.3262 17.6181 17.5689C19.3859 15.8116 20.3594 13.4751 20.3594 10.9898C20.3594 8.50457 19.3859 6.16803 17.6181 4.4107C15.8503 2.65333 13.5 1.68554 11 1.68554Z" fill="#18283D"/>
<path d="M8.56414 14.9674C8.71446 15.1168 8.91833 15.2007 9.13091 15.2007C9.34354 15.2007 9.54737 15.1168 9.69769 14.9674L16.5601 8.14542C16.8731 7.83424 16.8731 7.32973 16.5601 7.01855C16.2471 6.70738 15.7396 6.70734 15.4265 7.01855L9.13091 13.2771L6.56363 10.7249C6.2506 10.4137 5.7431 10.4137 5.43008 10.7249C5.11706 11.0361 5.11706 11.5406 5.43008 11.8518L8.56414 14.9674Z" fill="#18283D"/>
<path d="M9.13361 15.2184C8.91452 15.2184 8.70851 15.1336 8.55359 14.9796L5.41954 11.864C5.09974 11.5461 5.09974 11.0288 5.41954 10.7108C5.57446 10.5568 5.78046 10.4719 5.99956 10.4719C6.21865 10.4719 6.42462 10.5568 6.57958 10.7108L9.13365 13.2498L15.416 7.00445C15.5709 6.8504 15.7769 6.76562 15.996 6.76562C16.2151 6.76562 16.4211 6.85044 16.5761 7.00445C16.731 7.15846 16.8163 7.36324 16.8163 7.58105C16.8163 7.79886 16.731 8.00361 16.5761 8.15765L9.71363 14.9796C9.55875 15.1336 9.35275 15.2184 9.13361 15.2184ZM5.99956 10.5092C5.79045 10.5092 5.59388 10.5901 5.44603 10.7371C5.14083 11.0406 5.14083 11.5343 5.44603 11.8377L8.58009 14.9533C8.72794 15.1003 8.92451 15.1812 9.13361 15.1812C9.34276 15.1812 9.53933 15.1003 9.68718 14.9533L16.5496 8.13135C16.6974 7.98437 16.7789 7.78892 16.7789 7.58109C16.7789 7.37325 16.6974 7.17776 16.5496 7.03079C16.4017 6.88377 16.2051 6.80286 15.996 6.80286C15.7869 6.80286 15.5903 6.88381 15.4424 7.03079L9.13361 13.3025L6.55308 10.7371C6.40523 10.5901 6.20866 10.5092 5.99956 10.5092Z" fill="#18283D"/>
</svg>
