<svg width="50" height="50" viewBox="0 0 50 50" fill="none" xmlns="http://www.w3.org/2000/svg">
<circle cx="25" cy="25" r="25" fill="#04A6BE"/>
<path d="M17.2359 32.7619C18.2439 33.7699 19.4181 34.5614 20.7259 35.1146C22.0808 35.6877 23.5191 35.9782 25.0008 35.9782C26.4825 35.9782 27.9208 35.6877 29.2757 35.1146C30.5835 34.5614 31.7578 33.7699 32.7658 32.7619C33.7738 31.7539 34.5654 30.5797 35.1185 29.2718C35.6915 27.9169 35.9821 26.4786 35.9821 24.997C35.9821 23.5152 35.6915 22.0769 35.1185 20.722C34.5654 19.4142 33.7737 18.24 32.7658 17.232C31.7578 16.224 30.5836 15.4324 29.2757 14.8793C27.9208 14.3062 26.4825 14.0156 25.0008 14.0156C23.5191 14.0156 22.0808 14.3062 20.7259 14.8793C19.4181 15.4324 18.2439 16.224 17.2359 17.232C16.2279 18.2399 15.4363 19.4142 14.8831 20.722C14.3101 22.0769 14.0195 23.5152 14.0195 24.997C14.0195 26.4787 14.3101 27.9169 14.8832 29.2718C15.4363 30.5797 16.2279 31.7539 17.2359 32.7619ZM25.0008 15.6187C30.1803 15.6187 34.379 19.8175 34.379 24.997C34.379 30.1764 30.1803 34.3751 25.0008 34.3751C19.8214 34.3751 15.6226 30.1764 15.6226 24.997C15.6226 19.8175 19.8214 15.6187 25.0008 15.6187Z" fill="white"/>
<path d="M25 36C23.5156 36 22.0749 35.7089 20.7178 35.1349C19.4077 34.5808 18.2315 33.7879 17.2218 32.7782C16.2121 31.7685 15.4192 30.5922 14.8651 29.2822C14.2911 27.925 14 26.4842 14 25C14 23.5158 14.2911 22.075 14.8651 20.7178C15.4192 19.4078 16.2121 18.2315 17.2218 17.2218C18.2315 16.2121 19.4077 15.4192 20.7178 14.8651C22.075 14.2911 23.5157 14 25 14C26.4843 14 27.925 14.2911 29.2821 14.8651C30.5922 15.4192 31.7684 16.2122 32.7782 17.2219C33.7879 18.2317 34.5808 19.4079 35.1349 20.7178C35.7089 22.0751 36 23.5158 36 25C36 26.4842 35.7089 27.925 35.1349 29.2822C34.5808 30.5922 33.788 31.7684 32.7782 32.7783C31.7685 33.7879 30.5922 34.5808 29.2821 35.135C27.925 35.7089 26.4843 36 25 36ZM25 14.0374C23.5208 14.0374 22.085 14.3275 20.7324 14.8996C19.4268 15.4518 18.2546 16.242 17.2483 17.2483C16.242 18.2546 15.4518 19.4268 14.8996 20.7323C14.3275 22.085 14.0374 23.5208 14.0374 25C14.0374 26.4792 14.3275 27.915 14.8996 29.2677C15.4518 30.5732 16.242 31.7454 17.2483 32.7518C18.2545 33.758 19.4267 34.5482 20.7324 35.1005C22.0849 35.6725 23.5207 35.9626 25 35.9626C26.4793 35.9626 27.9151 35.6725 29.2676 35.1004C30.5732 34.5482 31.7455 33.758 32.7517 32.7518C33.7581 31.7453 34.5482 30.5731 35.1004 29.2677C35.6725 27.915 35.9626 26.4792 35.9626 25C35.9626 23.5208 35.6725 22.085 35.1004 20.7324C34.5483 19.4269 33.7581 18.2547 32.7517 17.2483C31.7454 16.242 30.5731 15.4518 29.2676 14.8996C27.9151 14.3275 26.4792 14.0374 25 14.0374ZM25 34.3969C22.49 34.3969 20.1302 33.4195 18.3554 31.6446C16.5806 29.8698 15.6031 27.51 15.6031 25C15.6031 22.49 16.5805 20.1302 18.3554 18.3554C20.1302 16.5806 22.49 15.6031 25 15.6031C27.51 15.6031 29.8697 16.5806 31.6446 18.3554C33.4194 20.1303 34.3969 22.49 34.3969 25C34.3969 27.51 33.4194 29.8698 31.6446 31.6446C29.8697 33.4195 27.51 34.3969 25 34.3969ZM25 15.6405C22.5 15.6405 20.1496 16.6141 18.3819 18.3819C16.6141 20.1497 15.6405 22.5 15.6405 25C15.6405 27.5 16.6141 29.8504 18.3819 31.6181C20.1496 33.3859 22.5 34.3595 25 34.3595C27.5 34.3595 29.8504 33.3859 31.6181 31.6181C33.3859 29.8504 34.3594 27.5 34.3594 25C34.3594 22.5 33.3859 20.1496 31.6181 18.3819C29.8503 16.6141 27.5 15.6405 25 15.6405Z" fill="white"/>
<path d="M22.568 28.9964C22.7184 29.1467 22.9222 29.2311 23.1348 29.2311C23.3474 29.2311 23.5513 29.1467 23.7016 28.9964L30.564 22.134C30.877 21.8209 30.877 21.3134 30.564 21.0004C30.251 20.6874 29.7435 20.6873 29.4304 21.0004L23.1348 27.2961L20.5675 24.7288C20.2545 24.4157 19.747 24.4157 19.434 24.7288C19.121 25.0418 19.121 25.5493 19.434 25.8623L22.568 28.9964Z" fill="white"/>
<path d="M23.1336 29.2529C22.9145 29.2529 22.7085 29.1676 22.5536 29.0127L19.4195 25.8786C19.0997 25.5588 19.0997 25.0384 19.4195 24.7186C19.5745 24.5636 19.7805 24.4783 19.9996 24.4783C20.2187 24.4783 20.4246 24.5636 20.5796 24.7186L23.1337 27.2727L29.416 20.9902C29.5709 20.8353 29.7769 20.75 29.996 20.75C30.2151 20.75 30.4211 20.8353 30.5761 20.9902C30.731 21.1452 30.8163 21.3512 30.8163 21.5703C30.8163 21.7894 30.731 21.9953 30.5761 22.1503L23.7136 29.0127C23.5588 29.1676 23.3527 29.2529 23.1336 29.2529ZM19.9996 24.5158C19.7904 24.5158 19.5939 24.5972 19.446 24.7451C19.1408 25.0503 19.1408 25.5469 19.446 25.8522L22.5801 28.9862C22.7279 29.1341 22.9245 29.2155 23.1336 29.2155C23.3428 29.2155 23.5393 29.1341 23.6872 28.9862L30.5496 22.1238C30.6974 21.976 30.7789 21.7794 30.7789 21.5703C30.7789 21.3612 30.6974 21.1646 30.5496 21.0167C30.4017 20.8688 30.2051 20.7875 29.996 20.7875C29.7869 20.7875 29.5903 20.8689 29.4424 21.0167L23.1336 27.3256L20.5531 24.7451C20.4052 24.5972 20.2087 24.5158 19.9996 24.5158Z" fill="white"/>
</svg>
