<svg width="30" height="30" viewBox="0 0 30 30" fill="none" xmlns="http://www.w3.org/2000/svg">
<path d="M26.8593 22.302C26.34 21.9157 25.606 22.0236 25.2197 22.5428C25.0072 22.8284 24.7798 23.1085 24.5439 23.3754C24.1153 23.8602 24.1608 24.6009 24.6457 25.0295C24.8687 25.2267 25.1455 25.3235 25.4214 25.3235C25.7455 25.3235 26.0683 25.1897 26.2998 24.9277C26.5793 24.6117 26.8485 24.2799 27.1001 23.9416C27.4864 23.4224 27.3787 22.6883 26.8593 22.302Z" fill="white"/>
<path d="M28.8206 16.8083C28.1886 16.6707 27.564 17.0717 27.4263 17.7041C27.3506 18.052 27.259 18.4005 27.1541 18.7401C26.963 19.3585 27.3094 20.0146 27.9278 20.2057C28.043 20.2413 28.1595 20.2582 28.2741 20.2582C28.7745 20.2582 29.2379 19.9351 29.3934 19.4319C29.518 19.0289 29.6266 18.6153 29.7165 18.2026C29.8541 17.5703 29.453 16.946 28.8206 16.8083Z" fill="white"/>
<path d="M21.2176 26.0629C20.9064 26.2366 20.5843 26.3989 20.2602 26.5453C19.6703 26.8117 19.4081 27.5058 19.6745 28.0957C19.8702 28.529 20.2967 28.7855 20.7431 28.7855C20.9044 28.7855 21.0683 28.752 21.2248 28.6814C21.6093 28.5077 21.9913 28.3152 22.3602 28.1093C22.9253 27.7938 23.1276 27.0799 22.812 26.5148C22.4966 25.9498 21.7827 25.7475 21.2176 26.0629Z" fill="white"/>
<path d="M13.8279 5.625V14.5146L9.53071 18.8118C9.0731 19.2694 9.0731 20.0114 9.53071 20.469C9.75958 20.6979 10.0594 20.8123 10.3594 20.8123C10.6593 20.8123 10.9592 20.6978 11.1881 20.469L15.8285 15.8286C16.0482 15.6089 16.1717 15.3108 16.1717 15V5.625C16.1717 4.97777 15.647 4.45312 14.9998 4.45312C14.3526 4.45312 13.8279 4.97777 13.8279 5.625Z" fill="white"/>
<path d="M28.8281 2.51953C28.1809 2.51953 27.6562 3.04418 27.6562 3.69141V6.94547C24.9286 2.66766 20.1651 0 15 0C10.9934 0 7.22654 1.56029 4.39336 4.39336C1.56029 7.22654 0 10.9934 0 15C0 19.0066 1.56029 22.7735 4.39336 25.6066C7.22654 28.4397 10.9934 30 15 30C15.0099 30 15.0195 29.9988 15.0293 29.9985C15.0391 29.9988 15.0487 30 15.0586 30C15.4809 30 15.9074 29.9822 16.3264 29.9471C16.9713 29.8931 17.4504 29.3265 17.3964 28.6816C17.3423 28.0366 16.7765 27.5573 16.1308 27.6116C15.7767 27.6412 15.416 27.6562 15.0586 27.6562C15.0487 27.6562 15.0391 27.6575 15.0293 27.6577C15.0195 27.6575 15.0099 27.6562 15 27.6562C8.02131 27.6562 2.34375 21.9787 2.34375 15C2.34375 8.02131 8.02131 2.34375 15 2.34375C19.4975 2.34375 23.6342 4.741 25.8947 8.55469H22.6724C22.0252 8.55469 21.5006 9.07934 21.5006 9.72656C21.5006 10.3738 22.0252 10.8984 22.6724 10.8984H26.25C26.9637 10.8984 27.6313 10.6979 28.1998 10.3504C28.2364 10.3296 28.2715 10.3071 28.3051 10.2829C29.3249 9.61195 30 8.45783 30 7.14844V3.69141C30 3.04418 29.4754 2.51953 28.8281 2.51953Z" fill="white"/>
</svg>
