<svg width="308" height="280" viewBox="0 0 308 280" fill="none" xmlns="http://www.w3.org/2000/svg">
<path d="M118.345 1.4495C154.351 8.54464 172.728 49.3144 230.705 85.601C288.683 121.888 275.919 263.564 184.353 240.454C96.997 218.413 92.9504 220.151 35.7449 222.186C-35.8693 224.736 4.40929 -20.9977 118.345 1.4495Z" fill="#EBF1F9" style="fill:#EBF1F9;fill:color(display-p3 0.9216 0.9451 0.9765);fill-opacity:1;"/>
<path d="M162.604 261.139C87.006 261.139 25.7227 265.365 25.7227 270.573Z" fill="#DFEFFA" style="fill:#DFEFFA;fill:color(display-p3 0.8745 0.9373 0.9804);fill-opacity:1;"/>
<path d="M25.7227 270.573C25.7227 275.781 87.006 279.999 162.604 279.999C238.203 279.999 299.478 275.781 299.478 270.573C299.478 265.365 238.195 261.139 162.604 261.139" fill="#DFEFFA" style="fill:#DFEFFA;fill:color(display-p3 0.8745 0.9373 0.9804);fill-opacity:1;"/>
<path d="M57.0507 221.936H148.032C157.975 221.936 166.035 213.875 166.035 203.933L166.035 75.7211C166.035 65.7783 157.975 57.7181 148.032 57.7181H57.0507C47.1079 57.7181 39.0477 65.7783 39.0477 75.7211L39.0477 203.933C39.0477 213.875 47.1079 221.936 57.0507 221.936Z" fill="#BDD4EE" style="fill:#BDD4EE;fill:color(display-p3 0.7412 0.8314 0.9333);fill-opacity:1;"/>
<path d="M63.3141 209.672H141.774C148.341 209.672 153.664 204.348 153.664 197.782L153.664 86.5361C153.664 79.9693 148.341 74.6459 141.774 74.6459H63.3141C56.7473 74.6459 51.4239 79.9693 51.4239 86.5361L51.4239 197.782C51.4239 204.348 56.7473 209.672 63.3141 209.672Z" fill="#F2F8FC" style="fill:#F2F8FC;fill:color(display-p3 0.9490 0.9725 0.9882);fill-opacity:1;"/>
<path d="M140.51 92.0488H137.602V159.538H140.51V92.0488Z" fill="#D1E2F4" style="fill:#D1E2F4;fill:color(display-p3 0.8196 0.8863 0.9569);fill-opacity:1;"/>
<path d="M133.283 127.344H130.375V159.537H133.283V127.344Z" fill="#D1E2F4" style="fill:#D1E2F4;fill:color(display-p3 0.8196 0.8863 0.9569);fill-opacity:1;"/>
<path d="M126.049 102.363H123.141V159.538H126.049V102.363Z" fill="#D1E2F4" style="fill:#D1E2F4;fill:color(display-p3 0.8196 0.8863 0.9569);fill-opacity:1;"/>
<path d="M118.822 133.23H115.914V159.537H118.822V133.23Z" fill="#D1E2F4" style="fill:#D1E2F4;fill:color(display-p3 0.8196 0.8863 0.9569);fill-opacity:1;"/>
<path d="M111.596 122.553H108.688V159.549H111.596V122.553Z" fill="#D1E2F4" style="fill:#D1E2F4;fill:color(display-p3 0.8196 0.8863 0.9569);fill-opacity:1;"/>
<path d="M104.369 116.969H101.461V159.54H104.369V116.969Z" fill="#D1E2F4" style="fill:#D1E2F4;fill:color(display-p3 0.8196 0.8863 0.9569);fill-opacity:1;"/>
<path d="M97.1465 85.2422H94.2383V159.546H97.1465V85.2422Z" fill="#D1E2F4" style="fill:#D1E2F4;fill:color(display-p3 0.8196 0.8863 0.9569);fill-opacity:1;"/>
<path d="M140.51 134.197H137.602V159.545H140.51V134.197Z" fill="#1D5BBF" style="fill:#1D5BBF;fill:color(display-p3 0.1137 0.3569 0.7490);fill-opacity:1;"/>
<path d="M133.283 139.344H130.375V159.545H133.283V139.344Z" fill="#1D5BBF" style="fill:#1D5BBF;fill:color(display-p3 0.1137 0.3569 0.7490);fill-opacity:1;"/>
<path d="M126.049 135.555H123.141V159.546H126.049V135.555Z" fill="#1D5BBF" style="fill:#1D5BBF;fill:color(display-p3 0.1137 0.3569 0.7490);fill-opacity:1;"/>
<path d="M118.822 143.041H115.914V159.547H118.822V143.041Z" fill="#1D5BBF" style="fill:#1D5BBF;fill:color(display-p3 0.1137 0.3569 0.7490);fill-opacity:1;"/>
<path d="M111.596 136.334H108.688V159.545H111.596V136.334Z" fill="#1D5BBF" style="fill:#1D5BBF;fill:color(display-p3 0.1137 0.3569 0.7490);fill-opacity:1;"/>
<path d="M104.369 132.834H101.461V159.546H104.369V132.834Z" fill="#1D5BBF" style="fill:#1D5BBF;fill:color(display-p3 0.1137 0.3569 0.7490);fill-opacity:1;"/>
<path d="M97.1465 131.379H94.2383V159.549H97.1465V131.379Z" fill="#1D5BBF" style="fill:#1D5BBF;fill:color(display-p3 0.1137 0.3569 0.7490);fill-opacity:1;"/>
<path d="M89.1699 119.135H86.2617V159.538H89.1699V119.135Z" fill="#D1E2F4" style="fill:#D1E2F4;fill:color(display-p3 0.8196 0.8863 0.9569);fill-opacity:1;"/>
<path d="M81.9434 127.346H79.0352V159.539H81.9434V127.346Z" fill="#D1E2F4" style="fill:#D1E2F4;fill:color(display-p3 0.8196 0.8863 0.9569);fill-opacity:1;"/>
<path d="M74.7168 121.309H71.8086V159.544H74.7168V121.309Z" fill="#D1E2F4" style="fill:#D1E2F4;fill:color(display-p3 0.8196 0.8863 0.9569);fill-opacity:1;"/>
<path d="M67.4903 106.295H64.582V159.547H67.4903V106.295Z" fill="#D1E2F4" style="fill:#D1E2F4;fill:color(display-p3 0.8196 0.8863 0.9569);fill-opacity:1;"/>
<path d="M89.1699 134.199H86.2617V159.547H89.1699V134.199Z" fill="#1D5BBF" style="fill:#1D5BBF;fill:color(display-p3 0.1137 0.3569 0.7490);fill-opacity:1;"/>
<path d="M81.9434 139.342H79.0352V159.543H81.9434V139.342Z" fill="#1D5BBF" style="fill:#1D5BBF;fill:color(display-p3 0.1137 0.3569 0.7490);fill-opacity:1;"/>
<path d="M74.7168 135.555H71.8086V159.546H74.7168V135.555Z" fill="#1D5BBF" style="fill:#1D5BBF;fill:color(display-p3 0.1137 0.3569 0.7490);fill-opacity:1;"/>
<path d="M67.4903 143.039H64.582V159.545H67.4903V143.039Z" fill="#1D5BBF" style="fill:#1D5BBF;fill:color(display-p3 0.1137 0.3569 0.7490);fill-opacity:1;"/>
<path d="M64.0472 168.567C63.0726 168.567 62.2773 167.772 62.2773 166.797C62.2773 165.823 63.0726 165.027 64.0472 165.027C65.0218 165.027 65.8171 165.823 65.8171 166.797C65.8171 167.772 65.0218 168.567 64.0472 168.567ZM64.0472 165.713C63.4469 165.713 62.9635 166.197 62.9635 166.797C62.9635 167.398 63.4469 167.881 64.0472 167.881C64.6476 167.881 65.131 167.398 65.131 166.797C65.131 166.197 64.6476 165.713 64.0472 165.713Z" fill="#62A7DB" style="fill:#62A7DB;fill:color(display-p3 0.3843 0.6549 0.8588);fill-opacity:1;"/>
<path d="M112.796 173.97H70.061L64.5486 168.458C64.4161 168.325 64.4161 168.107 64.5486 167.974C64.6812 167.842 64.8995 167.842 65.032 167.974L70.3417 173.284H112.796C112.983 173.284 113.139 173.44 113.139 173.627C113.139 173.814 112.983 173.97 112.796 173.97Z" fill="#62A7DB" style="fill:#62A7DB;fill:color(display-p3 0.3843 0.6549 0.8588);fill-opacity:1;"/>
<path d="M86.168 179.459V180.145H128.076C128.263 180.145 128.419 179.989 128.419 179.802C128.419 179.615 128.263 179.459 128.076 179.459H86.168Z" fill="#62A7DB" style="fill:#62A7DB;fill:color(display-p3 0.3843 0.6549 0.8588);fill-opacity:1;"/>
<path d="M135.27 193.135C136.244 193.135 137.04 193.93 137.04 194.905C137.04 195.879 136.244 196.675 135.27 196.675C134.295 196.675 133.5 195.879 133.5 194.905C133.5 193.93 134.295 193.135 135.27 193.135ZM135.27 195.981C135.87 195.981 136.354 195.497 136.354 194.897C136.354 194.296 135.87 193.813 135.27 193.813C134.67 193.813 134.186 194.296 134.186 194.897C134.186 195.497 134.67 195.981 135.27 195.981Z" fill="#62A7DB" style="fill:#62A7DB;fill:color(display-p3 0.3843 0.6549 0.8588);fill-opacity:1;"/>
<path d="M86.5149 187.727H129.25L134.762 193.239C134.894 193.371 134.894 193.59 134.762 193.722C134.629 193.855 134.411 193.855 134.278 193.722L128.969 188.413H86.5149C86.3278 188.413 86.1719 188.257 86.1719 188.07C86.1719 187.883 86.3278 187.727 86.5149 187.727Z" fill="#62A7DB" style="fill:#62A7DB;fill:color(display-p3 0.3843 0.6549 0.8588);fill-opacity:1;"/>
<path d="M179.941 125.113C179.941 128.465 182.655 131.179 186.007 131.179C186.943 131.179 187.824 130.968 188.619 130.594C189.578 131.483 191.582 131.974 191.582 131.974C190.771 131.288 190.319 130.345 190.077 129.619C191.309 128.504 192.081 126.898 192.081 125.105C192.081 121.752 189.368 119.039 186.015 119.039C182.663 119.039 179.949 121.752 179.949 125.105L179.941 125.113Z" fill="#98B2DC" style="fill:#98B2DC;fill:color(display-p3 0.5961 0.6980 0.8627);fill-opacity:1;"/>
<path d="M184.231 125.112C184.231 125.541 183.888 125.884 183.459 125.884C183.031 125.884 182.688 125.541 182.688 125.112C182.688 124.683 183.031 124.34 183.459 124.34C183.888 124.34 184.231 124.683 184.231 125.112Z" fill="white" style="fill:white;fill-opacity:1;"/>
<path d="M186.79 125.112C186.79 125.541 186.447 125.884 186.018 125.884C185.589 125.884 185.246 125.541 185.246 125.112C185.246 124.683 185.589 124.34 186.018 124.34C186.447 124.34 186.79 124.683 186.79 125.112Z" fill="white" style="fill:white;fill-opacity:1;"/>
<path d="M189.345 125.112C189.345 125.541 189.002 125.884 188.573 125.884C188.144 125.884 187.801 125.541 187.801 125.112C187.801 124.683 188.144 124.34 188.573 124.34C189.002 124.34 189.345 124.683 189.345 125.112Z" fill="white" style="fill:white;fill-opacity:1;"/>
<path d="M170.039 99.7484C170.039 106.633 175.622 112.216 182.506 112.216C184.424 112.216 186.241 111.787 187.863 111.007C189.835 112.839 193.944 113.845 193.944 113.845C192.283 112.426 191.348 110.5 190.849 109.011C193.383 106.727 194.973 103.421 194.973 99.7484C194.973 92.8638 189.391 87.2891 182.506 87.2891C175.622 87.2891 170.039 92.8716 170.039 99.7484Z" fill="#98B2DC" style="fill:#98B2DC;fill:color(display-p3 0.5961 0.6980 0.8627);fill-opacity:1;"/>
<path d="M178.845 99.7566C178.845 100.638 178.136 101.347 177.255 101.347C176.374 101.347 175.664 100.638 175.664 99.7566C175.664 98.8755 176.374 98.166 177.255 98.166C178.136 98.166 178.845 98.8755 178.845 99.7566Z" fill="white" style="fill:white;fill-opacity:1;"/>
<path d="M184.087 99.7566C184.087 100.638 183.378 101.347 182.497 101.347C181.616 101.347 180.906 100.638 180.906 99.7566C180.906 98.8755 181.616 98.166 182.497 98.166C183.378 98.166 184.087 98.8755 184.087 99.7566Z" fill="white" style="fill:white;fill-opacity:1;"/>
<path d="M189.341 99.7566C189.341 100.638 188.632 101.347 187.751 101.347C186.87 101.347 186.16 100.638 186.16 99.7566C186.16 98.8755 186.87 98.166 187.751 98.166C188.632 98.166 189.341 98.8755 189.341 99.7566Z" fill="white" style="fill:white;fill-opacity:1;"/>
<path d="M286.077 212.931C285.929 205.602 282.873 197.968 276.713 193.984C274.086 192.285 270.741 191.326 267.809 192.402C263.256 194.062 261.587 199.848 262.305 204.643C263.022 209.414 265.392 213.757 267.716 217.983C269.423 221.078 276.323 238.122 280.619 234.606C282.834 232.797 283.645 227.628 284.354 225.039C285.446 221.094 286.155 217.032 286.069 212.931H286.077Z" fill="#00AEBD" style="fill:#00AEBD;fill:color(display-p3 0.0000 0.6824 0.7412);fill-opacity:1;"/>
<path d="M280.513 258.135C280.56 255.523 280.529 252.888 280.443 250.261C280.357 247.633 280.225 245.005 280.037 242.378C279.663 237.131 279.11 231.891 278.322 226.691C277.94 224.087 277.48 221.498 276.965 218.917C276.459 216.336 275.866 213.771 275.219 211.222C274.58 208.672 273.823 206.146 273.02 203.643C272.202 201.14 271.274 198.677 270.276 196.244C270.229 196.135 270.276 196.002 270.393 195.963C270.502 195.916 270.627 195.963 270.673 196.08C271.71 198.513 272.677 200.977 273.535 203.479C274.377 205.982 275.172 208.508 275.85 211.066C276.537 213.615 277.168 216.188 277.714 218.777C278.268 221.365 278.759 223.962 279.188 226.574C280.053 231.79 280.685 237.045 281.129 242.316C281.355 244.951 281.527 247.594 281.651 250.237C281.776 252.88 281.846 255.523 281.838 258.19C281.838 258.556 281.542 258.853 281.176 258.845C280.809 258.837 280.513 258.549 280.521 258.182V258.167L280.513 258.135Z" fill="#E3E8EE" style="fill:#E3E8EE;fill:color(display-p3 0.8902 0.9098 0.9333);fill-opacity:1;"/>
<path d="M274.655 207.836L266.507 204.226C266.351 204.156 266.281 203.976 266.351 203.821C266.422 203.665 266.601 203.594 266.757 203.665L274.484 207.087L279.099 201.669C279.208 201.536 279.403 201.52 279.536 201.637C279.668 201.747 279.684 201.941 279.567 202.074L274.655 207.844V207.836Z" fill="white" style="fill:white;fill-opacity:1;"/>
<path d="M277.492 219.47L271.457 216.866C271.247 216.772 271.153 216.538 271.239 216.328C271.332 216.117 271.566 216.024 271.777 216.109L277.281 218.48L280.868 214.643C281.024 214.48 281.281 214.472 281.445 214.628C281.609 214.784 281.616 215.041 281.46 215.205L277.476 219.462L277.492 219.47Z" fill="white" style="fill:white;fill-opacity:1;"/>
<path d="M279.15 229.203L276.343 227.534C276.054 227.363 275.953 226.981 276.132 226.692C276.304 226.404 276.686 226.303 276.974 226.482L278.931 227.644L279.883 226.622C280.116 226.373 280.506 226.357 280.756 226.591C281.005 226.825 281.021 227.215 280.787 227.464L279.157 229.211L279.15 229.203Z" fill="white" style="fill:white;fill-opacity:1;"/>
<path d="M283.107 224.071C284.744 216.937 289.095 210.318 295.519 208.135C298.264 207.199 301.507 207.183 303.963 209.047C307.776 211.94 308.111 218.052 306.474 222.543C304.844 227.011 301.796 230.605 298.809 234.09C296.626 236.64 286.841 251.407 283.645 246.776C281.999 244.39 282.319 239.112 282.194 236.39C282.007 232.235 282.194 228.056 283.107 224.071Z" fill="#00AEBD" style="fill:#00AEBD;fill:color(display-p3 0.0000 0.6824 0.7412);fill-opacity:1;"/>
<path d="M281.332 260.673C281.956 256.26 282.923 251.964 284.084 247.706C284.388 246.646 284.677 245.586 284.997 244.525L285.995 241.368C286.72 239.286 287.421 237.196 288.248 235.154L288.848 233.61C289.043 233.095 289.277 232.596 289.495 232.089L290.805 229.056L292.232 226.078C292.474 225.587 292.692 225.08 292.957 224.597L293.737 223.139L294.517 221.681L294.906 220.955C295.031 220.714 295.164 220.472 295.312 220.238L296.996 217.4C297.284 216.932 297.549 216.449 297.854 215.989L298.766 214.617L300.598 211.864C300.66 211.771 300.793 211.74 300.887 211.81C300.98 211.872 301.011 212.005 300.949 212.098L299.171 214.874L298.282 216.254C297.986 216.714 297.729 217.205 297.456 217.673L295.826 220.527C295.686 220.761 295.561 221.002 295.437 221.252L295.062 221.985L294.314 223.45L293.565 224.908C293.316 225.392 293.105 225.899 292.871 226.398L291.499 229.384L290.244 232.417C290.041 232.924 289.815 233.423 289.628 233.937L289.059 235.481C288.271 237.524 287.608 239.606 286.922 241.687L285.987 244.829C285.69 245.882 285.418 246.942 285.137 247.995C284.856 249.055 284.622 250.123 284.365 251.184C284.123 252.252 283.905 253.32 283.679 254.388C283.266 256.525 282.884 258.692 282.634 260.829V260.852C282.587 261.203 282.268 261.46 281.917 261.413C281.566 261.367 281.309 261.055 281.355 260.696C281.355 260.696 281.355 260.688 281.355 260.68L281.332 260.673Z" fill="#E3E8EE" style="fill:#E3E8EE;fill:color(display-p3 0.8902 0.9098 0.9333);fill-opacity:1;"/>
<path d="M294.537 222.241L291.246 215.247C291.176 215.099 291.246 214.92 291.387 214.85C291.535 214.78 291.714 214.85 291.784 214.99L294.887 221.578L302.622 220.378C302.786 220.354 302.942 220.464 302.965 220.627C302.988 220.791 302.879 220.947 302.715 220.97L294.544 222.241H294.537Z" fill="white" style="fill:white;fill-opacity:1;"/>
<path d="M289.555 232.822L286.802 227.567C286.701 227.372 286.779 227.13 286.974 227.029C287.169 226.928 287.41 227.005 287.512 227.2L289.999 231.956L295.488 231.161C295.706 231.13 295.909 231.278 295.94 231.496C295.971 231.715 295.823 231.917 295.605 231.949L289.555 232.822Z" fill="white" style="fill:white;fill-opacity:1;"/>
<path d="M286.348 241.796L284.968 239.8C284.781 239.528 284.851 239.153 285.124 238.966C285.397 238.779 285.771 238.849 285.958 239.122L286.847 240.409L288.648 239.878C288.968 239.785 289.303 239.964 289.397 240.284C289.49 240.604 289.311 240.939 288.991 241.032L286.356 241.812L286.348 241.796Z" fill="white" style="fill:white;fill-opacity:1;"/>
<path d="M277.284 222.567C275 216.641 270.267 211.324 264.069 209.897C261.433 209.289 258.424 209.492 256.35 211.23C253.13 213.928 253.473 219.129 255.477 222.824C257.465 226.504 260.677 229.342 263.819 232.095C266.119 234.114 276.762 245.958 279.234 241.833C280.505 239.704 279.639 235.26 279.46 232.945C279.187 229.413 278.563 225.888 277.284 222.575V222.567Z" fill="#00AEBD" style="fill:#00AEBD;fill:color(display-p3 0.0000 0.6824 0.7412);fill-opacity:1;"/>
<path d="M281.726 253.682C281.251 251.85 280.65 250.01 280.026 248.193C279.691 247.289 279.379 246.384 279.028 245.488L278.498 244.146C278.327 243.694 278.147 243.25 277.953 242.813C277.57 241.932 277.212 241.036 276.806 240.162L275.59 237.543L274.296 234.962C274.085 234.525 273.851 234.104 273.617 233.683L272.924 232.412L272.23 231.141L271.489 229.902C270.99 229.075 270.514 228.241 270 227.422C268.939 225.816 267.926 224.171 266.772 222.627C264.573 219.454 262.078 216.507 259.521 213.614C259.451 213.528 259.458 213.411 259.536 213.349C259.614 213.279 259.731 213.287 259.794 213.364C262.406 216.218 264.971 219.142 267.232 222.3C268.417 223.836 269.462 225.473 270.561 227.071C271.091 227.882 271.59 228.716 272.105 229.535L272.869 230.775L273.586 232.038L274.304 233.301C274.545 233.722 274.787 234.143 275.005 234.58L276.354 237.16L277.625 239.78C278.046 240.653 278.428 241.55 278.826 242.431C280.385 245.994 281.773 249.612 282.841 253.401C282.927 253.705 282.748 254.025 282.444 254.111C282.139 254.197 281.82 254.017 281.734 253.713C281.734 253.713 281.734 253.713 281.734 253.705V253.682H281.726Z" fill="#E3E8EE" style="fill:#E3E8EE;fill:color(display-p3 0.8902 0.9098 0.9333);fill-opacity:1;"/>
<path d="M266.496 221.785L258.801 221.247C258.653 221.239 258.543 221.106 258.551 220.966C258.559 220.818 258.692 220.709 258.832 220.717L266.13 221.223L268.289 215.446C268.344 215.306 268.492 215.235 268.633 215.29C268.773 215.345 268.843 215.493 268.788 215.633L266.488 221.785H266.496Z" fill="white" style="fill:white;fill-opacity:1;"/>
<path d="M272.227 230.423L266.543 230.08C266.348 230.072 266.2 229.901 266.207 229.706C266.215 229.511 266.387 229.355 266.582 229.37L271.766 229.682L273.56 225.495C273.638 225.316 273.848 225.23 274.028 225.308C274.207 225.386 274.293 225.597 274.215 225.776L272.227 230.423Z" fill="white" style="fill:white;fill-opacity:1;"/>
<path d="M276.16 237.806L273.665 237.33C273.376 237.276 273.189 236.995 273.244 236.707C273.298 236.418 273.579 236.223 273.868 236.286L275.63 236.621L276.316 235.475C276.464 235.225 276.791 235.139 277.049 235.288C277.298 235.436 277.384 235.763 277.236 236.021L276.168 237.806H276.16Z" fill="white" style="fill:white;fill-opacity:1;"/>
<path d="M295.198 252.41L294.839 253.806L294.114 256.605L292.819 261.579L292.359 263.341L290.309 271.263H273.943L271.885 263.341L271.425 261.579L270.131 256.605L269.406 253.806L269.047 252.41H295.198Z" fill="#D3E1F3" style="fill:#D3E1F3;fill:color(display-p3 0.8275 0.8824 0.9529);fill-opacity:1;"/>
<g style="mix-blend-mode:multiply" opacity="0.63">
<path d="M132.27 256.348L132.995 259.139H156.97L157.695 256.348H132.27Z" fill="#DDE1F1" style="fill:#DDE1F1;fill:color(display-p3 0.8667 0.8824 0.9451);fill-opacity:1;"/>
</g>
<path d="M134.285 264.123L134.737 265.885H155.22L155.672 264.123H134.285Z" fill="#6F89C3" style="fill:#6F89C3;fill:color(display-p3 0.4353 0.5373 0.7647);fill-opacity:1;"/>
<path d="M131.898 254.955L132.624 257.746H157.332L158.057 254.955H131.898Z" fill="#6F89C3" style="fill:#6F89C3;fill:color(display-p3 0.4353 0.5373 0.7647);fill-opacity:1;"/>
<path d="M192.98 191.008C192.98 176.646 200.614 164.07 212.044 157.115Z" fill="#799CD1" style="fill:#799CD1;fill:color(display-p3 0.4745 0.6118 0.8196);fill-opacity:1;"/>
<path d="M245.295 261.919H205.188C207.051 258.06 213.694 255.074 221.99 254.45V203.42C221.99 202.258 222.941 201.307 224.11 201.307H226.379C227.541 201.307 228.5 202.258 228.5 203.42V239.542H228.469V251.362H228.5V254.45C236.796 255.082 243.439 258.06 245.302 261.919H245.295Z" fill="#86A2CA" style="fill:#86A2CA;fill:color(display-p3 0.5255 0.6353 0.7922);fill-opacity:1;"/>
<path d="M240.582 207.327C238.235 208.146 235.296 208.715 232.076 209.089C220.739 210.407 205.863 209.284 200.764 207.834C192.296 205.417 199.095 201.994 200.764 201.87C221.036 200.326 222.844 193.644 224.349 188.545C226.86 180.031 229.152 163.938 229.901 157.061C230.649 150.145 240.918 149.654 245.229 153.124C246.898 154.465 249.385 163.143 250.406 173.216C251.825 187.079 250.508 203.593 240.582 207.335V207.327Z" fill="#8BABD9" style="fill:#8BABD9;fill:color(display-p3 0.5451 0.6706 0.8510);fill-opacity:1;"/>
<path d="M212.044 157.115C213.51 171.438 212.153 188.498 201.892 192.365C199.467 193.207 196.434 193.799 193.105 194.181C193.027 193.137 192.98 192.084 192.98 191.008" fill="#799CD1" style="fill:#799CD1;fill:color(display-p3 0.4745 0.6118 0.8196);fill-opacity:1;"/>
<path d="M241.336 207C239.192 207.842 236.51 208.434 233.562 208.816C233.492 207.771 233.453 206.719 233.453 205.643C233.453 191.281 240.197 178.705 250.302 171.75C251.596 186.073 250.396 203.132 241.328 207H241.336Z" fill="#799CD1" style="fill:#799CD1;fill:color(display-p3 0.4745 0.6118 0.8196);fill-opacity:1;"/>
<path d="M217.56 97.5996C217.56 97.5996 209.818 105.396 212.453 115.439C215.089 125.481 219.33 125.536 224 121.216C228.671 116.897 231.423 112.351 232.039 107.299C232.655 102.247 224.632 90.637 217.56 97.5918V97.5996Z" fill="#EDA885" style="fill:#EDA885;fill:color(display-p3 0.9294 0.6588 0.5216);fill-opacity:1;"/>
<path d="M216.035 131.097C216.035 131.097 217.181 128.469 217.992 125.514C218.133 124.992 218.265 124.461 218.374 123.931C218.772 122.068 218.928 120.236 218.507 118.98C217.275 115.331 226.249 117.858 226.249 117.858C226.249 117.858 224.51 127.51 226.249 130.761C227.988 134.02 216.035 131.097 216.035 131.097Z" fill="#EDA885" style="fill:#EDA885;fill:color(display-p3 0.9294 0.6588 0.5216);fill-opacity:1;"/>
<path d="M220.09 103.216C220.09 103.216 223.794 109.952 226.094 112.362C228.394 114.771 228.121 116.689 228.121 116.689C228.121 116.689 237.088 105.625 230.694 98.951C224.301 92.2769 216.052 94.9668 213.635 100.799C211.225 106.631 212.106 113.765 212.106 113.765C212.106 113.765 212.177 106.919 220.09 103.216Z" fill="#294D74" style="fill:#294D74;fill:color(display-p3 0.1608 0.3020 0.4549);fill-opacity:1;"/>
<path d="M222.524 96.1587C222.524 96.1587 221.627 91.2311 229.362 89.2662C237.088 87.3092 240.566 96.2132 239.615 101.648C238.663 107.082 232.052 120.859 235.638 122.652C239.225 124.446 240.62 120.578 240.62 120.578C240.62 120.578 239.498 127.354 234.516 125.787C229.533 124.22 230.204 113.203 230.952 108.813C231.701 104.423 222.524 96.1587 222.524 96.1587Z" fill="#294D74" style="fill:#294D74;fill:color(display-p3 0.1608 0.3020 0.4549);fill-opacity:1;"/>
<path d="M225.009 120.244C224.978 120.314 223.021 124.813 217.992 125.515C218.133 124.992 218.265 124.462 218.374 123.932C218.374 123.932 221.134 124.486 225.009 120.244Z" fill="#A67861" style="fill:#A67861;fill:color(display-p3 0.6510 0.4706 0.3804);fill-opacity:1;"/>
<path d="M210.551 239.831C215.291 243.434 213.428 243.27 217.88 238.093L215.174 234.654C215.174 234.654 210.715 238.958 210.551 239.831Z" fill="#434773" style="fill:#434773;fill:color(display-p3 0.2627 0.2784 0.4510);fill-opacity:1;"/>
<path d="M213.828 242.107C214.499 246.138 212.168 248.547 211.248 251.838C211.209 252.812 211.895 256.196 216.791 251.323C226.974 241.756 225.594 243.596 217.664 238.037C217.664 238.037 216.908 239.604 213.828 242.107Z" fill="#2A2C47" style="fill:#2A2C47;fill:color(display-p3 0.1647 0.1725 0.2784);fill-opacity:1;"/>
<path d="M184.608 254.645C184 260.562 183.173 258.894 189.91 259.993L191.438 255.892C191.438 255.892 185.442 254.325 184.615 254.645H184.608Z" fill="#434773" style="fill:#434773;fill:color(display-p3 0.2627 0.2784 0.4510);fill-opacity:1;"/>
<path d="M184.379 258.621C181.291 261.295 178.017 260.563 174.726 261.49C173.877 261.966 171.343 264.313 178.056 265.958C191.521 269.661 189.236 269.435 189.852 259.775C189.852 259.775 188.121 259.947 184.379 258.629V258.621Z" fill="#2A2C47" style="fill:#2A2C47;fill:color(display-p3 0.1647 0.1725 0.2784);fill-opacity:1;"/>
<path d="M229.768 197.727C228.396 200.051 226.813 202.234 225.176 204.292C220.124 210.67 214.627 215.925 213.668 220.9C213.481 221.89 213.177 222.958 212.779 224.081C212.381 225.219 211.882 226.42 211.313 227.652C209.169 232.307 205.965 237.523 202.768 242.263C197.232 250.458 192.032 257.303 192.032 257.303L182.488 256.898C182.87 255.939 187.034 244.626 192.601 230.794C194.862 225.18 197.263 219.208 199.587 213.446C199.899 212.674 200.203 211.91 200.507 211.154C201.216 209.392 201.91 207.653 202.596 205.969C207.82 192.979 211.984 182.641 211.984 182.641C211.984 182.641 232.872 174.727 235.047 179.857C236.832 184.083 235.382 188.231 229.768 197.743V197.727Z" fill="#0F142E" style="fill:#0F142E;fill:color(display-p3 0.0588 0.0784 0.1804);fill-opacity:1;"/>
<path d="M204.849 178.875C204.849 178.875 178.628 195.209 175.704 206.187C172.78 217.165 210.587 240.579 210.587 240.579C210.587 240.579 214.735 236.923 215.468 234.24C215.468 234.24 198.377 213.766 194.674 209.174C192.397 206.351 228.333 199.42 232.73 192.59C237.12 185.76 235.553 180.013 235.553 180.013L204.864 178.883L204.849 178.875Z" fill="#0F142E" style="fill:#0F142E;fill:color(display-p3 0.0588 0.0784 0.1804);fill-opacity:1;"/>
<path d="M204.152 167.625C204.152 167.625 203.871 171.102 204.152 171.835C204.152 171.835 187.303 170.151 185.728 167.796C184.16 165.442 184.215 162.58 184.215 162.58L204.152 167.632V167.625Z" fill="#1D5BBF" style="fill:#1D5BBF;fill:color(display-p3 0.1137 0.3569 0.7490);fill-opacity:1;"/>
<path d="M227.372 129.403C226.242 129.106 225.384 128.88 225.244 128.849C225.244 128.849 225.239 128.846 225.228 128.841L217.026 128.545C217.026 128.545 211.381 129.481 207.007 131.001C202.625 132.514 196.895 140.802 196.895 140.802C196.895 140.802 204.801 159.374 206.313 164.699C207.826 170.032 206.82 178.281 206.82 178.281C211.475 180.815 217.502 180.737 222.437 180.004C227.56 179.24 231.505 177.774 231.505 177.774C230.351 173.603 230.304 168.746 230.904 165.292C230.975 164.886 231.053 164.496 231.146 164.138C231.224 163.802 231.341 163.327 231.466 162.797C231.474 162.773 231.481 162.75 231.481 162.726C231.63 162.742 231.77 162.758 231.918 162.773C231.941 162.547 231.988 162.329 232.035 162.11C232.479 160.239 232.994 158.461 233.454 156.933C233.47 156.887 233.485 156.84 233.501 156.793C233.431 156.793 233.353 156.785 233.275 156.777C233.758 155.405 234.304 154.15 234.553 153.581C234.553 153.565 234.561 153.557 234.569 153.542C234.92 152.512 235.146 151.92 235.146 151.92C235.146 151.92 238.491 133.449 227.341 129.403H227.372Z" fill="white" style="fill:white;fill-opacity:1;"/>
<path d="M234.613 153.325C234.613 153.325 234.247 154.105 233.233 157.169C232.204 148.561 232.742 144.078 232.742 144.078C232.851 148.678 234.613 153.325 234.613 153.325Z" fill="#CEBDB7" style="fill:#CEBDB7;fill:color(display-p3 0.8078 0.7412 0.7176);fill-opacity:1;"/>
<path d="M231.491 162.805C231.359 163.335 231.249 163.811 231.164 164.146C231.078 164.513 230.992 164.895 230.922 165.308C227.522 163.46 225.082 162.018 225.082 162.018C225.994 162.22 231.483 162.813 231.483 162.813L231.491 162.805Z" fill="#CEBDB7" style="fill:#CEBDB7;fill:color(display-p3 0.8078 0.7412 0.7176);fill-opacity:1;"/>
<path d="M225.695 128.959L216.043 136.826L217.033 128.538C217.033 128.538 222.663 127.322 225.695 128.959Z" fill="#EDA885" style="fill:#EDA885;fill:color(display-p3 0.9294 0.6588 0.5216);fill-opacity:1;"/>
<path d="M218.819 135.494L216.027 136.835L225.508 127.432L218.819 135.494Z" fill="#D5C4BD" style="fill:#D5C4BD;fill:color(display-p3 0.8353 0.7686 0.7412);fill-opacity:1;"/>
<path d="M235.645 180.022L225.899 183.071C224.503 183.508 223.03 182.65 222.71 181.207C222.632 180.841 222.546 180.436 222.453 180.007C221.049 173.356 218.321 159.719 217.985 151.922C217.517 141.334 225.229 128.836 225.229 128.836C225.229 128.836 225.234 128.839 225.244 128.844C226.008 128.968 226.718 129.156 227.373 129.397C238.522 133.444 235.177 151.915 235.177 151.915C235.177 151.915 234.951 152.515 234.6 153.536C234.593 153.552 234.585 153.56 234.585 153.575C234.421 154.051 234.226 154.62 234.023 155.252C233.868 155.719 233.712 156.234 233.54 156.78C233.524 156.827 233.509 156.873 233.493 156.92C233.033 158.448 232.519 160.234 232.074 162.097C232.027 162.308 231.981 162.526 231.957 162.76C231.107 168.538 235.661 180.007 235.661 180.007L235.645 180.022Z" fill="#1D5BBF" style="fill:#1D5BBF;fill:color(display-p3 0.1137 0.3569 0.7490);fill-opacity:1;"/>
<path d="M216.056 128.989L216.227 128.537C216.227 128.537 209.21 129.605 205.647 131.383C202.084 133.168 195.254 142.369 195.254 142.369L204.181 154.158C204.189 163.218 202.723 179.326 202.723 179.326L206.809 181.68C207.908 182.312 209.28 181.54 209.304 180.269C209.421 174.141 209.694 159.6 209.842 152.551C210.029 143.491 216.493 128.833 216.493 128.833C216.352 128.88 216.212 128.935 216.072 128.989H216.056Z" fill="#1D5BBF" style="fill:#1D5BBF;fill:color(display-p3 0.1137 0.3569 0.7490);fill-opacity:1;"/>
<path d="M203.336 171.477C203.336 171.477 210.072 171.742 211.117 171.477C212.162 171.212 219.148 168.186 219.569 165.192C219.99 162.198 203.336 167.874 203.336 167.874V171.477Z" fill="#EDA885" style="fill:#EDA885;fill:color(display-p3 0.9294 0.6588 0.5216);fill-opacity:1;"/>
<path d="M224.226 162.126L196.906 158.922L209.249 168.964L224.226 162.126Z" fill="#6B77B8" style="fill:#6B77B8;fill:color(display-p3 0.4196 0.4667 0.7216);fill-opacity:1;"/>
<path d="M209.249 168.965L224.227 163.858V162.127L208.742 167.086L209.249 168.965Z" fill="#323657" style="fill:#323657;fill:color(display-p3 0.1961 0.2118 0.3412);fill-opacity:1;"/>
<path d="M217.547 127.01L212.347 135.251L209.836 136.834L215.684 128.632L217.547 127.01Z" fill="#F9E4DC" style="fill:#F9E4DC;fill:color(display-p3 0.9765 0.8941 0.8627);fill-opacity:1;"/>
<path d="M212.344 135.251L216.032 136.834L217.03 128.538L217.544 127.01L212.344 135.251Z" fill="#D5C4BD" style="fill:#D5C4BD;fill:color(display-p3 0.8353 0.7686 0.7412);fill-opacity:1;"/>
<path d="M209.247 168.967L201.279 139.347L170.98 136.15L179.284 163.416L209.247 168.967Z" fill="#25273F" style="fill:#25273F;fill:color(display-p3 0.1451 0.1529 0.2471);fill-opacity:1;"/>
<path d="M225.514 127.432L218.824 135.494L222.489 138.76L226.442 129.108L225.514 127.432Z" fill="#F9E4DC" style="fill:#F9E4DC;fill:color(display-p3 0.9765 0.8941 0.8627);fill-opacity:1;"/>
<path d="M241.904 146.629C240.571 139.542 239.199 135.464 237.561 133.273C235.932 131.083 227.301 129.375 227.301 129.375L234.622 153.327C234.622 153.327 235.667 155.463 235.62 156.383C235.62 156.415 235.604 156.438 235.597 156.469C235.519 161.997 238.255 163.868 243.549 162.426C243.931 160.43 243.144 153.202 241.904 146.629Z" fill="#1D5BBF" style="fill:#1D5BBF;fill:color(display-p3 0.1137 0.3569 0.7490);fill-opacity:1;"/>
<path d="M218.591 157.105C218.591 157.105 216.33 157.105 215.067 156.848C214.085 156.653 211.652 156.926 211.036 157.472C210.412 158.017 208.44 161.854 208.073 162.087C207.699 162.321 208.26 162.859 208.923 162.594C208.923 162.594 209.523 164.271 211.005 163.639C212.486 163.015 213.5 161.643 214.272 161.401C215.051 161.16 219.574 159.943 219.574 159.943C219.574 159.943 219.761 156.7 218.591 157.105Z" fill="#EDA885" style="fill:#EDA885;fill:color(display-p3 0.9294 0.6588 0.5216);fill-opacity:1;"/>
<path d="M235.59 156.464C235.543 156.682 235.372 156.799 235.138 156.846C234.951 156.83 234.545 156.799 233.992 156.752L233.602 156.721C231.801 156.589 228.846 156.394 226.429 156.386C222.671 156.37 216.238 156.791 216.238 156.791L217.002 160.807C217.002 160.807 228.394 162.655 234.615 163.091C234.615 163.091 242.826 164.035 243.434 162.811C243.481 162.725 243.512 162.584 243.543 162.428C243.722 156.838 241.032 154.905 235.59 156.472V156.464Z" fill="#1D5BBF" style="fill:#1D5BBF;fill:color(display-p3 0.1137 0.3569 0.7490);fill-opacity:1;"/>
</svg>
