<svg width="30" height="30" viewBox="0 0 30 30" fill="none" xmlns="http://www.w3.org/2000/svg">
<path d="M15 30C23.2843 30 30 23.2843 30 15C30 6.71573 23.2843 0 15 0C6.71573 0 0 6.71573 0 15C0 23.2843 6.71573 30 15 30Z" fill="#03A9F4"/>
<path d="M24.716 8.97207C23.9852 9.29127 23.2121 9.50332 22.4206 9.60168C23.2549 9.10694 23.8786 8.32315 24.1733 7.39904C23.3924 7.86254 22.538 8.18896 21.647 8.36418C21.101 7.78026 20.3919 7.37416 19.612 7.19869C18.8321 7.02322 18.0174 7.08651 17.2739 7.38032C16.5304 7.67413 15.8926 8.18486 15.4433 8.84609C14.9941 9.50732 14.7542 10.2884 14.7549 11.0879C14.752 11.393 14.7832 11.6975 14.8476 11.9958C13.2627 11.9179 11.712 11.5066 10.2969 10.7886C8.88176 10.0707 7.634 9.0623 6.63512 7.82931C6.12168 8.70643 5.96261 9.74653 6.19042 10.737C6.41824 11.7275 7.01573 12.5936 7.86077 13.1583C7.23003 13.1413 6.61264 12.9727 6.06077 12.6668V12.7102C6.06255 13.6296 6.38078 14.5204 6.96198 15.2328C7.54318 15.9452 8.3519 16.4357 9.25222 16.6221C8.91151 16.7116 8.5604 16.7554 8.20814 16.7523C7.95449 16.757 7.70108 16.7345 7.45222 16.6852C7.71016 17.4759 8.20674 18.1673 8.87367 18.6642C9.5406 19.1611 10.3451 19.4392 11.1766 19.4602C9.7676 20.5615 8.03066 21.1597 6.24235 21.1596C5.92372 21.1623 5.60525 21.1438 5.28906 21.1043C7.11249 22.28 9.23793 22.9011 11.4075 22.8925C18.7397 22.8925 22.7483 16.8194 22.7483 11.5556C22.7483 11.38 22.7483 11.2102 22.7345 11.0405C23.5151 10.4771 24.1866 9.77617 24.716 8.97207Z" fill="white"/>
</svg>
