<svg width="20" height="17" viewBox="0 0 20 17" fill="none" xmlns="http://www.w3.org/2000/svg">
<path d="M15.4162 5.11366C15.943 4.55463 16.2404 3.82001 16.2404 3.03881C16.2404 1.36531 14.8751 0 13.2016 0C11.5281 0 10.1628 1.36173 10.1628 3.03881C10.1628 3.8236 10.4602 4.55821 10.9906 5.11724C10.6287 5.28567 10.2882 5.49709 9.97647 5.74794C10.0804 5.40034 10.1377 5.03482 10.1377 4.65855C10.1341 2.57654 8.43915 0.881541 6.35713 0.881541C4.27512 0.881541 2.5837 2.57654 2.5837 4.65497C2.5837 5.66552 2.97789 6.61156 3.68026 7.31393C1.46207 8.29222 0 10.4961 0 12.9472C0 13.3951 0.050169 13.8502 0.150507 14.3018C0.447938 15.6277 1.60541 16.5522 2.95997 16.5522H9.75429C10.3599 16.5522 10.9512 16.3587 11.4457 15.9968C12.0764 16.5235 12.8684 16.8138 13.7033 16.8138C15.6563 16.8138 17.2438 15.2263 17.2438 13.2733C17.2438 12.8899 17.1793 12.5172 17.0611 12.1588C17.1578 12.1015 17.251 12.0406 17.3334 11.9725C17.7455 11.6428 18.0358 11.1769 18.1504 10.6609C18.6665 8.37464 17.5018 6.07045 15.4162 5.11366ZM10.7326 3.03881C10.7326 1.67708 11.8399 0.57336 13.198 0.57336C14.5598 0.57336 15.6671 1.68066 15.6671 3.03881C15.6671 3.80568 15.3195 4.51521 14.7139 4.98465C14.2767 5.32508 13.7535 5.50426 13.198 5.50426C13.0583 5.50426 12.9221 5.49351 12.7895 5.47201C12.5817 5.43617 12.3846 5.37525 12.1947 5.29283C12.0155 5.214 11.8435 5.11007 11.6858 4.98823C11.0802 4.51521 10.7326 3.80568 10.7326 3.03881ZM3.15348 4.65497C3.15348 2.8883 4.59046 1.4549 6.35713 1.4549C8.1238 1.4549 9.56078 2.89189 9.56078 4.65855C9.56078 5.65477 9.10926 6.57573 8.32447 7.1885C7.75828 7.62928 7.07741 7.8622 6.35713 7.8622C6.17796 7.8622 5.99878 7.84787 5.82677 7.8192C5.70493 7.7977 5.58309 7.76903 5.46126 7.7332C5.3215 7.69378 5.18533 7.64361 5.05274 7.58627C4.81981 7.48235 4.59763 7.34976 4.38979 7.1885C3.605 6.57214 3.15348 5.65118 3.15348 4.65497ZM9.75429 15.9788H2.95997C1.87059 15.9788 0.946044 15.237 0.70595 14.1763C0.616362 13.7678 0.569777 13.3521 0.569777 12.9472C0.569777 10.6323 2.01034 8.55382 4.16761 7.7332C4.18911 7.75111 4.2142 7.76186 4.2357 7.77978C4.27512 7.80487 4.31095 7.82995 4.35037 7.85504C4.39696 7.8837 4.44354 7.91237 4.49371 7.94104C4.53313 7.96254 4.57255 7.98763 4.61197 8.00554C4.66214 8.03063 4.7123 8.05571 4.76247 8.07721C4.80189 8.09513 4.84489 8.11663 4.88431 8.13455C4.93448 8.15605 4.98823 8.17755 5.04199 8.19547C5.08499 8.2098 5.12441 8.22772 5.16741 8.24205C5.22116 8.25997 5.2785 8.27431 5.33225 8.29222C5.37167 8.30297 5.41467 8.31731 5.45409 8.32806C5.51142 8.34239 5.57234 8.35314 5.62968 8.36389C5.6691 8.37106 5.70852 8.38181 5.74794 8.38539C5.81244 8.39614 5.88053 8.40331 5.94861 8.41048C5.98086 8.41406 6.0167 8.42123 6.04895 8.42123C6.14929 8.4284 6.25321 8.43198 6.35355 8.43198C6.45747 8.43198 6.55781 8.4284 6.65815 8.42123C6.6904 8.41764 6.72623 8.41406 6.75848 8.41048C6.82657 8.40331 6.89466 8.39614 6.95916 8.38539C6.99858 8.37823 7.038 8.37106 7.07741 8.36389C7.13833 8.35314 7.19567 8.34239 7.25659 8.32806C7.29959 8.31731 7.33901 8.30656 7.37843 8.29222C7.43218 8.27789 7.48952 8.25997 7.54327 8.24205C7.58627 8.22772 7.62569 8.21339 7.66869 8.19547C7.72245 8.17755 7.77261 8.15605 7.82637 8.13455C7.86937 8.11663 7.90879 8.09871 7.94821 8.07721C7.99837 8.05213 8.04854 8.03063 8.09871 8.00554C8.13813 7.98404 8.17755 7.96254 8.21697 7.94104C8.26355 7.91237 8.31372 7.88729 8.36031 7.85504C8.39973 7.82995 8.43915 7.80487 8.47498 7.77978C8.49648 7.76545 8.52157 7.75111 8.54307 7.7332C8.61832 7.76186 8.68999 7.79053 8.76166 7.82278C8.91933 7.89087 9.06984 7.96254 9.21677 8.04496C9.26693 8.07363 9.31352 8.1023 9.36369 8.13097C9.46044 8.1883 9.5572 8.24205 9.65037 8.30297C9.7077 8.33881 9.75787 8.38181 9.81163 8.42123C9.89405 8.47856 9.97647 8.53948 10.0517 8.6004C10.1055 8.64341 10.1592 8.69357 10.213 8.74016C10.2846 8.80466 10.3599 8.86558 10.428 8.93367C10.4817 8.98384 10.5283 9.03759 10.5821 9.09134C10.6466 9.15943 10.7111 9.22752 10.7756 9.29919C10.8258 9.35652 10.8688 9.41386 10.9153 9.4712C10.9727 9.54287 11.03 9.61812 11.0874 9.69337C11.1304 9.75429 11.1734 9.8188 11.2128 9.87971C11.2629 9.95855 11.3131 10.0374 11.3633 10.1162C11.4027 10.1807 11.4385 10.2488 11.4744 10.3169C11.4995 10.3635 11.521 10.4101 11.546 10.4602C11.5102 10.4853 11.478 10.514 11.4457 10.5427C11.4278 10.557 11.4135 10.5677 11.3955 10.5821C11.3418 10.6287 11.288 10.6753 11.2379 10.7254C11.2271 10.7362 11.2164 10.7469 11.2092 10.7577C11.1698 10.7971 11.1304 10.8365 11.0909 10.8795C11.073 10.8974 11.0551 10.9189 11.0372 10.9404C11.0085 10.9727 10.9798 11.0049 10.9512 11.0408C10.9333 11.0623 10.9153 11.0874 10.8974 11.1124C10.8723 11.1447 10.8473 11.1769 10.8258 11.2092C10.8078 11.2343 10.7899 11.2594 10.772 11.2844C10.7505 11.3167 10.729 11.349 10.7075 11.3812C10.6896 11.4063 10.6752 11.435 10.6573 11.4636C10.6394 11.4959 10.6179 11.5281 10.6 11.564C10.5857 11.5926 10.5713 11.6213 10.5534 11.65C10.5355 11.6822 10.5176 11.718 10.5032 11.7503C10.4889 11.779 10.4746 11.8076 10.4638 11.8363C10.4495 11.8721 10.4352 11.9044 10.4208 11.9402C10.4101 11.9689 10.3957 12.0011 10.385 12.0298C10.3707 12.0657 10.3599 12.1015 10.3456 12.1373C10.3348 12.166 10.3241 12.1982 10.3169 12.2269C10.3061 12.2627 10.2954 12.3022 10.2846 12.338C10.2775 12.3667 10.2667 12.3989 10.2596 12.4276C10.2488 12.467 10.2416 12.5064 10.2345 12.5458C10.2273 12.5745 10.2201 12.6032 10.2166 12.6354C10.2094 12.6784 10.2022 12.7178 10.1986 12.7608C10.1951 12.7895 10.1915 12.8182 10.1879 12.8469C10.1807 12.8934 10.1771 12.94 10.1736 12.9866C10.17 13.0117 10.17 13.0332 10.1664 13.0583C10.1628 13.13 10.1592 13.2016 10.1592 13.2733C10.1592 13.388 10.1664 13.4991 10.1771 13.6137C10.1807 13.6496 10.1879 13.689 10.1915 13.7248C10.2022 13.8001 10.213 13.8753 10.2273 13.9506C10.2345 13.9936 10.2452 14.0366 10.256 14.0796C10.2703 14.1477 10.2882 14.2122 10.3061 14.2767C10.3205 14.3233 10.3348 14.3663 10.3492 14.4093C10.3707 14.4702 10.3922 14.5347 10.4172 14.5956C10.4352 14.6386 10.4531 14.6852 10.4746 14.7282C10.5032 14.7891 10.5319 14.8464 10.5606 14.9038C10.5821 14.9468 10.6036 14.9898 10.6287 15.0292C10.6609 15.0865 10.6968 15.1439 10.7326 15.2012C10.7577 15.2406 10.7828 15.2801 10.8078 15.3159C10.8508 15.3768 10.8974 15.4341 10.944 15.4915C10.9691 15.5201 10.9906 15.5524 11.0157 15.5811C11.0193 15.5846 11.0229 15.5882 11.0229 15.5918C10.6573 15.8427 10.2094 15.9788 9.75429 15.9788ZM13.7069 16.244C12.9364 16.244 12.209 15.9502 11.6535 15.4198C11.0694 14.8644 10.7326 14.0796 10.7326 13.2733C10.7326 12.2699 11.2343 11.3418 12.0692 10.7899C12.5566 10.471 13.1228 10.299 13.7033 10.299C13.9291 10.299 14.1512 10.3241 14.3627 10.3742C14.4594 10.3957 14.5526 10.4244 14.6458 10.4531C15.2406 10.6502 15.7602 11.0336 16.1258 11.546C16.1688 11.6034 16.2082 11.6643 16.244 11.7288C16.3193 11.8542 16.3874 11.9868 16.4447 12.1266C16.5952 12.4885 16.6704 12.8719 16.6704 13.2697C16.6776 14.911 15.3446 16.244 13.7069 16.244ZM17.5986 10.5355C17.5126 10.9261 17.294 11.2773 16.9786 11.5281C16.9356 11.564 16.889 11.5962 16.8425 11.6285C16.821 11.5855 16.7959 11.5425 16.7708 11.503C16.7565 11.478 16.7457 11.4529 16.7278 11.4314C16.6919 11.3705 16.6525 11.3131 16.6095 11.2522C16.6024 11.2414 16.5952 11.2307 16.588 11.2199C16.5379 11.1519 16.4877 11.0838 16.4339 11.0193C16.4232 11.0049 16.4089 10.9906 16.3945 10.9763C16.3515 10.9261 16.3121 10.8795 16.2655 10.8329C16.244 10.8114 16.2225 10.7899 16.201 10.772C16.1616 10.7326 16.1258 10.6968 16.0863 10.6609C16.0613 10.6394 16.0362 10.6179 16.0111 10.5964C15.9752 10.5642 15.9358 10.5319 15.8964 10.4997C15.8677 10.4782 15.8391 10.4567 15.814 10.4352C15.7746 10.4065 15.7387 10.3778 15.6993 10.3527C15.6707 10.3312 15.6384 10.3133 15.6097 10.2954C15.5703 10.2703 15.5309 10.2452 15.4915 10.2237C15.4592 10.2058 15.427 10.1879 15.3947 10.17C15.3553 10.1485 15.3123 10.127 15.2729 10.1055C15.2406 10.0876 15.2084 10.0732 15.1725 10.0589C15.1295 10.041 15.0865 10.0231 15.0435 10.0051C15.0113 9.9908 14.9755 9.97647 14.9396 9.96572C14.8966 9.9478 14.85 9.93347 14.807 9.91913C14.7712 9.90838 14.7389 9.89763 14.7031 9.88688C14.6565 9.87255 14.6099 9.8618 14.5633 9.85105C14.5275 9.84388 14.4953 9.83313 14.4594 9.82596C14.4093 9.81521 14.3591 9.80804 14.3089 9.79729C14.2767 9.79013 14.2444 9.78654 14.2086 9.77938C14.1512 9.77221 14.0975 9.76504 14.0402 9.76146C14.0115 9.75787 13.9828 9.75429 13.9542 9.75429C13.8681 9.74712 13.7821 9.74354 13.6961 9.74354C13.6137 9.74354 13.5349 9.74713 13.456 9.75071C13.431 9.75071 13.4059 9.75429 13.3772 9.75788C13.3235 9.76146 13.2697 9.76863 13.216 9.77579C13.1873 9.77938 13.155 9.78654 13.1264 9.79013C13.0762 9.79729 13.026 9.80804 12.9759 9.81879C12.9472 9.82596 12.9149 9.83313 12.8863 9.83671C12.8361 9.84746 12.7859 9.8618 12.7358 9.87613C12.7071 9.8833 12.682 9.89047 12.6533 9.90122C12.596 9.91913 12.5387 9.94063 12.4813 9.95855C12.4634 9.96572 12.4455 9.9693 12.4276 9.97647C12.3523 10.0051 12.2807 10.0374 12.209 10.0696C12.1875 10.0804 12.166 10.0911 12.1481 10.1019C12.1087 10.1234 12.0656 10.1413 12.0262 10.1628C12.0226 10.1556 12.0155 10.1485 12.0119 10.1377C11.9438 10.0087 11.8757 9.8833 11.8005 9.76146C11.7897 9.74712 11.7826 9.72921 11.7718 9.71129C11.6965 9.58945 11.6141 9.46761 11.5281 9.35294C11.5102 9.33144 11.4959 9.30635 11.478 9.28485C11.3919 9.17018 11.3059 9.05909 11.2128 8.95159C11.1984 8.93367 11.1805 8.91575 11.1662 8.89784C11.0694 8.78675 10.9691 8.67924 10.8616 8.57532L10.858 8.57174C10.7541 8.46781 10.643 8.37106 10.5319 8.27431C10.514 8.25997 10.4997 8.24564 10.4817 8.2313C10.3707 8.14172 10.2596 8.05213 10.1413 7.96971C10.1198 7.95537 10.0983 7.93746 10.0768 7.92312C9.95855 7.8407 9.83671 7.76186 9.71487 7.68661C9.70054 7.67586 9.68262 7.66869 9.6647 7.65794C9.53928 7.58269 9.41027 7.5146 9.28127 7.4501C9.2741 7.44652 9.27052 7.44293 9.26335 7.43935C9.75429 6.57931 10.5391 5.90203 11.4565 5.54368C11.4708 5.55443 11.4851 5.56159 11.4995 5.57235C11.5281 5.59026 11.5568 5.61176 11.5855 5.62968C11.6249 5.65477 11.6643 5.67985 11.7037 5.70135C11.7324 5.71927 11.7646 5.7336 11.7969 5.75152C11.8363 5.77302 11.8793 5.79094 11.9187 5.81244C11.951 5.82677 11.9832 5.84111 12.0155 5.85544C12.0585 5.87336 12.1015 5.89128 12.1445 5.90561C12.1767 5.91636 12.209 5.9307 12.2412 5.94145C12.2842 5.95578 12.3308 5.97011 12.3738 5.98086C12.4061 5.98803 12.4383 5.99878 12.4706 6.00595C12.5172 6.0167 12.5673 6.02745 12.6139 6.03462C12.6462 6.04178 12.6748 6.04895 12.7071 6.05253C12.7608 6.0597 12.8146 6.06687 12.8684 6.07404C12.8934 6.07762 12.9221 6.0812 12.9472 6.08479C13.0296 6.09195 13.1084 6.09554 13.1909 6.09554C13.2733 6.09554 13.3557 6.09195 13.4345 6.08479C13.4596 6.0812 13.4883 6.07762 13.5134 6.07404C13.5671 6.06687 13.6209 6.06329 13.6746 6.05253C13.7069 6.04895 13.7356 6.04178 13.7678 6.03462C13.8144 6.02387 13.8646 6.0167 13.9112 6.00595C13.9434 5.99878 13.9757 5.98803 14.0079 5.98086C14.0545 5.96653 14.0975 5.95578 14.1441 5.94145C14.1763 5.9307 14.2086 5.91994 14.2408 5.90919C14.2838 5.89486 14.3268 5.87694 14.3698 5.85903C14.4021 5.84469 14.4343 5.83036 14.463 5.81602C14.506 5.79811 14.5454 5.77661 14.5884 5.7551C14.6207 5.74077 14.6494 5.72285 14.678 5.70494C14.7174 5.68343 14.7569 5.65835 14.7963 5.63327C14.8249 5.61535 14.8536 5.59743 14.8859 5.57593C14.9002 5.56518 14.9145 5.55801 14.9289 5.54726C16.932 6.30696 18.0716 8.4284 17.5986 10.5355Z" fill="black" style="fill:black;fill-opacity:1;"/>
<path d="M11.79 13.73V12.88H15.54V13.73H11.79Z" fill="black" style="fill:black;fill-opacity:1;"/>
</svg>
