<svg width="50" height="50" viewBox="0 0 50 50" fill="none" xmlns="http://www.w3.org/2000/svg">
<circle cx="25" cy="25" r="25" fill="#04A6BE" style="fill:#04A6BE;fill:color(display-p3 0.0157 0.6510 0.7451);fill-opacity:1;"/>
<path d="M35.0925 19.9965C35.8132 19.2317 36.2202 18.2265 36.2202 17.1577C36.2202 14.868 34.3521 13 32.0625 13C29.7728 13 27.9048 14.8631 27.9048 17.1577C27.9048 18.2314 28.3117 19.2366 29.0374 20.0014C28.5422 20.2319 28.0764 20.5211 27.6498 20.8643C27.792 20.3887 27.8704 19.8886 27.8704 19.3738C27.8655 16.5252 25.5464 14.2061 22.6978 14.2061C19.8492 14.2061 17.535 16.5252 17.535 19.3689C17.535 20.7516 18.0744 22.0459 19.0353 23.0069C16.0004 24.3454 14 27.3607 14 30.7144C14 31.3272 14.0686 31.9499 14.2059 32.5677C14.6129 34.3818 16.1965 35.6467 18.0498 35.6467H27.3458C28.1744 35.6467 28.9834 35.382 29.66 34.8868C30.5229 35.6075 31.6065 36.0046 32.7489 36.0046C35.421 36.0046 37.593 33.8326 37.593 31.1605C37.593 30.6359 37.5047 30.126 37.343 29.6357C37.4753 29.5573 37.6028 29.4739 37.7156 29.3808C38.2794 28.9297 38.6766 28.2923 38.8334 27.5863C39.5395 24.4582 37.946 21.3056 35.0925 19.9965ZM28.6843 17.1577C28.6843 15.2946 30.1993 13.7845 32.0576 13.7845C33.9207 13.7845 35.4357 15.2995 35.4357 17.1577C35.4357 18.2069 34.9601 19.1777 34.1315 19.82C33.5334 20.2858 32.8175 20.5309 32.0576 20.5309C31.8664 20.5309 31.68 20.5162 31.4986 20.4868C31.2143 20.4378 30.9446 20.3544 30.6847 20.2417C30.4396 20.1338 30.2043 19.9916 29.9885 19.8249C29.1599 19.1777 28.6843 18.2069 28.6843 17.1577ZM18.3146 19.3689C18.3146 16.9518 20.2807 14.9906 22.6978 14.9906C25.115 14.9906 27.0811 16.9567 27.0811 19.3738C27.0811 20.7369 26.4633 21.9969 25.3896 22.8353C24.6149 23.4384 23.6833 23.7571 22.6978 23.7571C22.4527 23.7571 22.2075 23.7375 21.9722 23.6982C21.8055 23.6688 21.6388 23.6296 21.4721 23.5806C21.2809 23.5266 21.0946 23.458 20.9132 23.3795C20.5945 23.2374 20.2905 23.056 20.0061 22.8353C18.9324 21.992 18.3146 20.732 18.3146 19.3689ZM27.3458 34.8623H18.0498C16.5593 34.8623 15.2944 33.8473 14.9659 32.3961C14.8433 31.8371 14.7796 31.2684 14.7796 30.7144C14.7796 27.5471 16.7506 24.7033 19.7021 23.5806C19.7315 23.6051 19.7659 23.6198 19.7953 23.6443C19.8492 23.6786 19.8983 23.7129 19.9522 23.7473C20.0159 23.7865 20.0797 23.8257 20.1483 23.8649C20.2022 23.8944 20.2562 23.9287 20.3101 23.9532C20.3787 23.9875 20.4474 24.0218 20.516 24.0513C20.57 24.0758 20.6288 24.1052 20.6827 24.1297C20.7514 24.1591 20.8249 24.1885 20.8985 24.2131C20.9573 24.2327 21.0112 24.2572 21.0701 24.2768C21.1436 24.3013 21.222 24.3209 21.2956 24.3454C21.3495 24.3601 21.4084 24.3798 21.4623 24.3945C21.5407 24.4141 21.6241 24.4288 21.7025 24.4435C21.7565 24.4533 21.8104 24.468 21.8643 24.4729C21.9526 24.4876 22.0457 24.4974 22.1389 24.5072C22.183 24.5121 22.2321 24.5219 22.2762 24.5219C22.4135 24.5317 22.5556 24.5366 22.6929 24.5366C22.8351 24.5366 22.9724 24.5317 23.1097 24.5219C23.1538 24.517 23.2028 24.5121 23.247 24.5072C23.3401 24.4974 23.4333 24.4876 23.5215 24.4729C23.5755 24.4631 23.6294 24.4533 23.6833 24.4435C23.7667 24.4288 23.8451 24.4141 23.9285 24.3945C23.9873 24.3798 24.0412 24.365 24.0952 24.3454C24.1687 24.3258 24.2472 24.3013 24.3207 24.2768C24.3795 24.2572 24.4335 24.2376 24.4923 24.2131C24.5659 24.1885 24.6345 24.1591 24.708 24.1297C24.7669 24.1052 24.8208 24.0807 24.8747 24.0513C24.9434 24.0169 25.012 23.9875 25.0807 23.9532C25.1346 23.9238 25.1885 23.8944 25.2425 23.8649C25.3062 23.8257 25.3748 23.7914 25.4386 23.7473C25.4925 23.7129 25.5464 23.6786 25.5955 23.6443C25.6249 23.6247 25.6592 23.6051 25.6886 23.5806C25.7916 23.6198 25.8897 23.659 25.9877 23.7031C26.2034 23.7963 26.4094 23.8944 26.6104 24.0071C26.679 24.0463 26.7428 24.0856 26.8114 24.1248C26.9438 24.2032 27.0762 24.2768 27.2036 24.3601C27.2821 24.4092 27.3507 24.468 27.4243 24.5219C27.537 24.6004 27.6498 24.6837 27.7528 24.7671C27.8263 24.8259 27.8999 24.8946 27.9734 24.9583C28.0715 25.0466 28.1744 25.1299 28.2676 25.2231C28.3411 25.2917 28.4049 25.3652 28.4784 25.4388C28.5667 25.5319 28.6549 25.6251 28.7432 25.7232C28.8118 25.8016 28.8707 25.8801 28.9344 25.9585C29.0128 26.0566 29.0913 26.1595 29.1697 26.2625C29.2286 26.3458 29.2874 26.4341 29.3413 26.5174C29.41 26.6253 29.4786 26.7332 29.5473 26.841C29.6012 26.9293 29.6502 27.0224 29.6993 27.1156C29.7336 27.1793 29.763 27.2431 29.7973 27.3117C29.7483 27.346 29.7042 27.3853 29.66 27.4245C29.6355 27.4441 29.6159 27.4588 29.5914 27.4784C29.5178 27.5422 29.4443 27.6059 29.3757 27.6745C29.3609 27.6892 29.3462 27.704 29.3364 27.7187C29.2825 27.7726 29.2286 27.8265 29.1746 27.8854C29.1501 27.9099 29.1256 27.9393 29.1011 27.9687C29.0619 28.0128 29.0226 28.057 28.9834 28.106C28.9589 28.1354 28.9344 28.1697 28.9099 28.2041C28.8756 28.2482 28.8412 28.2923 28.8118 28.3364C28.7873 28.3708 28.7628 28.4051 28.7383 28.4394C28.7089 28.4835 28.6794 28.5276 28.65 28.5718C28.6255 28.6061 28.6059 28.6453 28.5814 28.6845C28.5569 28.7287 28.5274 28.7728 28.5029 28.8218C28.4833 28.861 28.4637 28.9003 28.4392 28.9395C28.4147 28.9836 28.3902 29.0326 28.3706 29.0768C28.3509 29.116 28.3313 29.1552 28.3166 29.1945C28.297 29.2435 28.2774 29.2876 28.2578 29.3366C28.2431 29.3759 28.2235 29.42 28.2088 29.4592C28.1891 29.5082 28.1744 29.5573 28.1548 29.6063C28.1401 29.6455 28.1254 29.6896 28.1156 29.7289C28.1009 29.7779 28.0862 29.8318 28.0715 29.8809C28.0617 29.9201 28.047 29.9642 28.0371 30.0034C28.0224 30.0574 28.0126 30.1113 28.0028 30.1652C27.993 30.2045 27.9832 30.2437 27.9783 30.2878C27.9685 30.3466 27.9587 30.4006 27.9538 30.4594C27.9489 30.4986 27.944 30.5379 27.9391 30.5771C27.9293 30.6408 27.9244 30.7046 27.9195 30.7683C27.9146 30.8026 27.9146 30.832 27.9097 30.8664C27.9048 30.9644 27.8999 31.0625 27.8999 31.1605C27.8999 31.3174 27.9097 31.4694 27.9244 31.6263C27.9293 31.6753 27.9391 31.7293 27.944 31.7783C27.9587 31.8813 27.9734 31.9842 27.993 32.0872C28.0028 32.146 28.0175 32.2049 28.0322 32.2637C28.0519 32.3569 28.0764 32.4451 28.1009 32.5334C28.1205 32.5971 28.1401 32.6559 28.1597 32.7148C28.1891 32.7981 28.2186 32.8864 28.2529 32.9697C28.2774 33.0286 28.3019 33.0923 28.3313 33.1511C28.3705 33.2345 28.4098 33.3129 28.449 33.3914C28.4784 33.4502 28.5078 33.509 28.5422 33.563C28.5863 33.6414 28.6353 33.7199 28.6843 33.7983C28.7187 33.8523 28.753 33.9062 28.7873 33.9552C28.8461 34.0386 28.9099 34.117 28.9736 34.1955C29.0079 34.2347 29.0374 34.2788 29.0717 34.318C29.0766 34.3229 29.0815 34.3278 29.0815 34.3327C28.5814 34.6759 27.9685 34.8623 27.3458 34.8623ZM32.7538 35.2251C31.6997 35.2251 30.7044 34.823 29.9444 34.0974C29.1452 33.3374 28.6843 32.2637 28.6843 31.1605C28.6843 29.7877 29.3708 28.5178 30.5131 27.7628C31.1799 27.3264 31.9546 27.0911 32.7489 27.0911C33.0578 27.0911 33.3618 27.1254 33.651 27.194C33.7834 27.2235 33.9109 27.2627 34.0384 27.3019C34.8523 27.5716 35.5632 28.0962 36.0633 28.7973C36.1221 28.8758 36.176 28.9591 36.2251 29.0474C36.328 29.219 36.4212 29.4004 36.4996 29.5916C36.7056 30.0868 36.8085 30.6114 36.8085 31.1556C36.8183 33.4012 34.9944 35.2251 32.7538 35.2251ZM38.0784 27.4147C37.9607 27.9491 37.6616 28.4296 37.2302 28.7728C37.1713 28.8218 37.1076 28.866 37.0439 28.9101C37.0145 28.8512 36.9801 28.7924 36.9458 28.7385C36.9262 28.7042 36.9115 28.6698 36.887 28.6404C36.8379 28.5571 36.784 28.4786 36.7252 28.3953C36.7154 28.3806 36.7056 28.3658 36.6958 28.3511C36.6271 28.258 36.5585 28.1648 36.4849 28.0766C36.4702 28.057 36.4506 28.0374 36.431 28.0177C36.3722 27.9491 36.3182 27.8854 36.2545 27.8216C36.2251 27.7922 36.1957 27.7628 36.1662 27.7383C36.1123 27.6843 36.0633 27.6353 36.0093 27.5863C35.975 27.5569 35.9407 27.5274 35.9064 27.498C35.8574 27.4539 35.8034 27.4098 35.7495 27.3656C35.7103 27.3362 35.671 27.3068 35.6367 27.2774C35.5828 27.2382 35.5338 27.1989 35.4798 27.1646C35.4406 27.1352 35.3965 27.1107 35.3573 27.0862C35.3033 27.0519 35.2494 27.0175 35.1955 26.9881C35.1513 26.9636 35.1072 26.9391 35.0631 26.9146C35.0091 26.8852 34.9503 26.8557 34.8964 26.8263C34.8523 26.8018 34.8081 26.7822 34.7591 26.7626C34.7003 26.7381 34.6414 26.7136 34.5826 26.689C34.5385 26.6694 34.4894 26.6498 34.4404 26.6351C34.3816 26.6106 34.3178 26.591 34.259 26.5714C34.21 26.5567 34.1658 26.542 34.1168 26.5272C34.0531 26.5076 33.9893 26.4929 33.9256 26.4782C33.8766 26.4684 33.8324 26.4537 33.7834 26.4439C33.7148 26.4292 33.6461 26.4194 33.5775 26.4047C33.5334 26.3949 33.4892 26.39 33.4402 26.3802C33.3618 26.3703 33.2882 26.3605 33.2098 26.3556C33.1705 26.3507 33.1313 26.3458 33.0921 26.3458C32.9744 26.336 32.8568 26.3311 32.7391 26.3311C32.6263 26.3311 32.5184 26.336 32.4106 26.3409C32.3763 26.3409 32.3419 26.3458 32.3027 26.3507C32.2292 26.3556 32.1556 26.3654 32.0821 26.3753C32.0429 26.3802 31.9987 26.39 31.9595 26.3949C31.8909 26.4047 31.8222 26.4194 31.7536 26.4341C31.7144 26.4439 31.6702 26.4537 31.631 26.4586C31.5624 26.4733 31.4937 26.4929 31.4251 26.5125C31.3859 26.5223 31.3515 26.5321 31.3123 26.5469C31.2339 26.5714 31.1554 26.6008 31.077 26.6253C31.0525 26.6351 31.0279 26.64 31.0034 26.6498C30.9005 26.689 30.8024 26.7332 30.7044 26.7773C30.6749 26.792 30.6455 26.8067 30.621 26.8214C30.5671 26.8508 30.5082 26.8754 30.4543 26.9048C30.4494 26.895 30.4396 26.8852 30.4347 26.8704C30.3415 26.6939 30.2484 26.5223 30.1454 26.3556C30.1307 26.336 30.1209 26.3115 30.1062 26.287C30.0032 26.1203 29.8905 25.9536 29.7728 25.7967C29.7483 25.7673 29.7287 25.733 29.7042 25.7035C29.5865 25.5467 29.4688 25.3947 29.3413 25.2476C29.3217 25.2231 29.2972 25.1985 29.2776 25.174C29.1452 25.022 29.0079 24.8749 28.8608 24.7328L28.8559 24.7279C28.7138 24.5857 28.5618 24.4533 28.4098 24.3209C28.3853 24.3013 28.3656 24.2817 28.3411 24.2621C28.1891 24.1395 28.0371 24.0169 27.8754 23.9042C27.8459 23.8846 27.8165 23.86 27.7871 23.8404C27.6253 23.7277 27.4586 23.6198 27.2919 23.5168C27.2723 23.5021 27.2478 23.4923 27.2233 23.4776C27.0517 23.3746 26.8751 23.2815 26.6986 23.1932C26.6888 23.1883 26.6839 23.1834 26.6741 23.1785C27.3458 22.0018 28.4196 21.0752 29.6747 20.5849C29.6943 20.5996 29.714 20.6094 29.7336 20.6241C29.7728 20.6486 29.812 20.678 29.8512 20.7025C29.9052 20.7369 29.9591 20.7712 30.013 20.8006C30.0523 20.8251 30.0964 20.8447 30.1405 20.8692C30.1944 20.8987 30.2533 20.9232 30.3072 20.9526C30.3513 20.9722 30.3955 20.9918 30.4396 21.0114C30.4984 21.0359 30.5573 21.0605 30.6161 21.0801C30.6602 21.0948 30.7044 21.1144 30.7485 21.1291C30.8073 21.1487 30.8711 21.1683 30.9299 21.183C30.974 21.1928 31.0181 21.2075 31.0623 21.2173C31.126 21.2321 31.1947 21.2468 31.2584 21.2566C31.3025 21.2664 31.3417 21.2762 31.3859 21.2811C31.4594 21.2909 31.533 21.3007 31.6065 21.3105C31.6408 21.3154 31.68 21.3203 31.7144 21.3252C31.8271 21.335 31.935 21.3399 32.0478 21.3399C32.1605 21.3399 32.2733 21.335 32.3812 21.3252C32.4155 21.3203 32.4547 21.3154 32.489 21.3105C32.5626 21.3007 32.6361 21.2958 32.7097 21.2811C32.7538 21.2762 32.793 21.2664 32.8371 21.2566C32.9009 21.2419 32.9695 21.2321 33.0333 21.2173C33.0774 21.2075 33.1215 21.1928 33.1656 21.183C33.2294 21.1634 33.2882 21.1487 33.3519 21.1291C33.3961 21.1144 33.4402 21.0997 33.4843 21.085C33.5432 21.0654 33.602 21.0408 33.6608 21.0163C33.705 20.9967 33.7491 20.9771 33.7883 20.9575C33.8471 20.933 33.9011 20.9036 33.9599 20.8741C34.004 20.8545 34.0433 20.83 34.0825 20.8055C34.1364 20.7761 34.1904 20.7418 34.2443 20.7074C34.2835 20.6829 34.3227 20.6584 34.3669 20.629C34.3865 20.6143 34.4061 20.6045 34.4257 20.5898C37.1664 21.6292 38.7256 24.5317 38.0784 27.4147Z" fill="white" style="fill:white;fill-opacity:1;"/>
<path d="M30 31H36" stroke="white" style="stroke:white;stroke-opacity:1;" stroke-width="0.5" stroke-linecap="round"/>
</svg>
