<svg width="60" height="60" viewBox="0 0 60 60" fill="none" xmlns="http://www.w3.org/2000/svg">
<path d="M1 13C1.553 13 2 12.553 2 12V2H12C12.553 2 13 1.553 13 1C13 0.447 12.553 0 12 0H2C0.897 0 0 0.897 0 2V12C0 12.553 0.447 13 1 13Z" fill="#C6C6C6"/>
<path d="M12 58H2V48C2 47.447 1.553 47 1 47C0.447 47 0 47.447 0 48V58C0 59.103 0.897 60 2 60H12C12.553 60 13 59.553 13 59C13 58.447 12.553 58 12 58Z" fill="#C6C6C6"/>
<path d="M59 47C58.447 47 58 47.447 58 48V58H48C47.447 58 47 58.447 47 59C47 59.553 47.447 60 48 60H58C59.103 60 60 59.103 60 58V48C60 47.447 59.553 47 59 47Z" fill="#C6C6C6"/>
<path d="M58 0H48C47.447 0 47 0.447 47 1C47 1.553 47.447 2 48 2H58V12C58 12.553 58.447 13 59 13C59.553 13 60 12.553 60 12V2C60 0.897 59.103 0 58 0Z" fill="#C6C6C6"/>
<path d="M4 31C4 31.553 4.447 32 5 32C5.553 32 6 31.553 6 31V29C6 28.447 5.553 28 5 28C4.447 28 4 28.447 4 29V31Z" fill="#C6C6C6"/>
<path d="M4 25C4 25.553 4.447 26 5 26C5.553 26 6 25.553 6 25V23C6 22.447 5.553 22 5 22C4.447 22 4 22.447 4 23V25Z" fill="#C6C6C6"/>
<path d="M4 19C4 19.553 4.447 20 5 20C5.553 20 6 19.553 6 19V17C6 16.447 5.553 16 5 16C4.447 16 4 16.447 4 17V19Z" fill="#C6C6C6"/>
<path d="M5 14C5.553 14 6 13.553 6 13V11C6 10.447 5.553 10 5 10C4.447 10 4 10.447 4 11V13C4 13.553 4.447 14 5 14Z" fill="#C6C6C6"/>
<path d="M29 6H31C31.553 6 32 5.553 32 5C32 4.447 31.553 4 31 4H29C28.447 4 28 4.447 28 5C28 5.553 28.447 6 29 6Z" fill="#C6C6C6"/>
<path d="M23 6H25C25.553 6 26 5.553 26 5C26 4.447 25.553 4 25 4H23C22.447 4 22 4.447 22 5C22 5.553 22.447 6 23 6Z" fill="#C6C6C6"/>
<path d="M17 6H19C19.553 6 20 5.553 20 5C20 4.447 19.553 4 19 4H17C16.447 4 16 4.447 16 5C16 5.553 16.447 6 17 6Z" fill="#C6C6C6"/>
<path d="M11 4C10.447 4 10 4.447 10 5C10 5.553 10.447 6 11 6H13C13.553 6 14 5.553 14 5C14 4.447 13.553 4 13 4H11Z" fill="#C6C6C6"/>
<path d="M7 4H5C4.447 4 4 4.447 4 5V7C4 7.553 4.447 8 5 8C5.553 8 6 7.553 6 7V6H7C7.553 6 8 5.553 8 5C8 4.447 7.553 4 7 4Z" fill="#C6C6C6"/>
<path d="M25 54H23C22.447 54 22 54.447 22 55C22 55.553 22.447 56 23 56H25C25.553 56 26 55.553 26 55C26 54.447 25.553 54 25 54Z" fill="#C6C6C6"/>
<path d="M19 54H17C16.447 54 16 54.447 16 55C16 55.553 16.447 56 17 56H19C19.553 56 20 55.553 20 55C20 54.447 19.553 54 19 54Z" fill="#C6C6C6"/>
<path d="M13 54H11C10.447 54 10 54.447 10 55C10 55.553 10.447 56 11 56H13C13.553 56 14 55.553 14 55C14 54.447 13.553 54 13 54Z" fill="#C6C6C6"/>
<path d="M4 37C4 37.553 4.447 38 5 38C5.553 38 6 37.553 6 37V35C6 34.447 5.553 34 5 34C4.447 34 4 34.447 4 35V37Z" fill="#C6C6C6"/>
<path d="M4 43C4 43.553 4.447 44 5 44C5.553 44 6 43.553 6 43V41C6 40.447 5.553 40 5 40C4.447 40 4 40.447 4 41V43Z" fill="#C6C6C6"/>
<path d="M4 49C4 49.553 4.447 50 5 50C5.553 50 6 49.553 6 49V47C6 46.447 5.553 46 5 46C4.447 46 4 46.447 4 47V49Z" fill="#C6C6C6"/>
<path d="M4 55C4 55.553 4.447 56 5 56H7C7.553 56 8 55.553 8 55C8 54.447 7.553 54 7 54H6V53C6 52.447 5.553 52 5 52C4.447 52 4 52.447 4 53V55Z" fill="#C6C6C6"/>
<path d="M56 35C56 34.447 55.553 34 55 34C54.447 34 54 34.447 54 35V37C54 37.553 54.447 38 55 38C55.553 38 56 37.553 56 37V35Z" fill="#C6C6C6"/>
<path d="M56 41C56 40.447 55.553 40 55 40C54.447 40 54 40.447 54 41V43C54 43.553 54.447 44 55 44C55.553 44 56 43.553 56 43V41Z" fill="#C6C6C6"/>
<path d="M55 46C54.447 46 54 46.447 54 47V49C54 49.553 54.447 50 55 50C55.553 50 56 49.553 56 49V47C56 46.447 55.553 46 55 46Z" fill="#C6C6C6"/>
<path d="M37 54H35C34.447 54 34 54.447 34 55C34 55.553 34.447 56 35 56H37C37.553 56 38 55.553 38 55C38 54.447 37.553 54 37 54Z" fill="#C6C6C6"/>
<path d="M43 54H41C40.447 54 40 54.447 40 55C40 55.553 40.447 56 41 56H43C43.553 56 44 55.553 44 55C44 54.447 43.553 54 43 54Z" fill="#C6C6C6"/>
<path d="M49 56C49.553 56 50 55.553 50 55C50 54.447 49.553 54 49 54H47C46.447 54 46 54.447 46 55C46 55.553 46.447 56 47 56H49Z" fill="#C6C6C6"/>
<path d="M53 56H55C55.553 56 56 55.553 56 55V53C56 52.447 55.553 52 55 52C54.447 52 54 52.447 54 53V54H53C52.447 54 52 54.447 52 55C52 55.553 52.447 56 53 56Z" fill="#C6C6C6"/>
<path d="M35 6H37C37.553 6 38 5.553 38 5C38 4.447 37.553 4 37 4H35C34.447 4 34 4.447 34 5C34 5.553 34.447 6 35 6Z" fill="#C6C6C6"/>
<path d="M41 6H43C43.553 6 44 5.553 44 5C44 4.447 43.553 4 43 4H41C40.447 4 40 4.447 40 5C40 5.553 40.447 6 41 6Z" fill="#C6C6C6"/>
<path d="M47 6H49C49.553 6 50 5.553 50 5C50 4.447 49.553 4 49 4H47C46.447 4 46 4.447 46 5C46 5.553 46.447 6 47 6Z" fill="#C6C6C6"/>
<path d="M56 23C56 22.447 55.553 22 55 22C54.447 22 54 22.447 54 23V25C54 25.553 54.447 26 55 26C55.553 26 56 25.553 56 25V23Z" fill="#C6C6C6"/>
<path d="M56 17C56 16.447 55.553 16 55 16C54.447 16 54 16.447 54 17V19C54 19.553 54.447 20 55 20C55.553 20 56 19.553 56 19V17Z" fill="#C6C6C6"/>
<path d="M56 11C56 10.447 55.553 10 55 10C54.447 10 54 10.447 54 11V13C54 13.553 54.447 14 55 14C55.553 14 56 13.553 56 13V11Z" fill="#C6C6C6"/>
<path d="M56 5C56 4.447 55.553 4 55 4H53C52.447 4 52 4.447 52 5C52 5.553 52.447 6 53 6H54V7C54 7.553 54.447 8 55 8C55.553 8 56 7.553 56 7V5Z" fill="#C6C6C6"/>
<path d="M31 54H29C28.447 54 28 54.447 28 55C28 55.553 28.447 56 29 56H31C31.553 56 32 55.553 32 55C32 54.447 31.553 54 31 54Z" fill="#C6C6C6"/>
<path d="M56 29C56 28.447 55.553 28 55 28C54.447 28 54 28.447 54 29V31C54 31.553 54.447 32 55 32C55.553 32 56 31.553 56 31V29Z" fill="#C6C6C6"/>
<path d="M31 28V21H29V28C29 28.553 28.553 29 28 29H21V31H28C28.553 31 29 31.447 29 32V39H31V32C31 31.447 31.447 31 32 31H39V29.003L32 29C31.447 29 31 28.553 31 28Z" fill="#C6C6C6"/>
<path d="M30 13C20.626 13 13 20.626 13 30C13 39.374 20.626 47 30 47C39.374 47 47 39.374 47 30C47 20.626 39.374 13 30 13ZM41 31C41 32.103 40.103 33 39 33H33V39C33 40.103 32.103 41 31 41H29C27.897 41 27 40.103 27 39V33H21C19.897 33 19 32.103 19 31V29C19 27.897 19.897 27 21 27H27V21C27 19.897 27.897 19 29 19H31C32.103 19 33 19.897 33 21V27H39C40.103 27 41 27.897 41 29V31Z" fill="#C6C6C6"/>
</svg>
