<svg width="45" height="45" viewBox="0 0 45 45" fill="none" xmlns="http://www.w3.org/2000/svg">
<circle cx="22.5" cy="22.5" r="22.5" fill="#1D5BBF"/>
<path d="M32.7632 24.5859C32.5552 24.5859 32.3557 24.6686 32.2086 24.8157C32.0614 24.9628 31.9788 25.1623 31.9788 25.3703V28.0491C31.9788 28.6805 31.728 29.286 31.2815 29.7325C30.8351 30.1789 30.2295 30.4298 29.5981 30.4298H15.9495C15.3181 30.4298 14.7126 30.1789 14.2661 29.7325C13.8196 29.286 13.5688 28.6805 13.5688 28.0491V25.3703C13.5688 25.1623 13.4862 24.9628 13.3391 24.8157C13.192 24.6686 12.9924 24.5859 12.7844 24.5859C12.5764 24.5859 12.3769 24.6686 12.2297 24.8157C12.0826 24.9628 12 25.1623 12 25.3703V28.0491C12.001 29.0962 12.4175 30.1002 13.1579 30.8406C13.8984 31.5811 14.9023 31.9975 15.9495 31.9986H29.5981C30.6453 31.9975 31.6492 31.5811 32.3897 30.8406C33.1301 30.1002 33.5466 29.0962 33.5476 28.0491V25.3703C33.5476 25.1623 33.465 24.9628 33.3179 24.8157C33.1708 24.6686 32.9712 24.5859 32.7632 24.5859Z" fill="white"/>
<path d="M18.8516 17.8023L21.9892 14.6646V26.3131C21.9892 26.5211 22.0718 26.7206 22.2189 26.8677C22.366 27.0148 22.5656 27.0975 22.7736 27.0975C22.9816 27.0975 23.1811 27.0148 23.3283 26.8677C23.4754 26.7206 23.558 26.5211 23.558 26.3131V14.6764L26.6956 17.814C26.7685 17.8869 26.855 17.9447 26.9502 17.9842C27.0455 18.0236 27.1475 18.0439 27.2506 18.0439C27.3537 18.0439 27.4557 18.0236 27.5509 17.9842C27.6462 17.9447 27.7327 17.8869 27.8056 17.814C27.8784 17.7411 27.9362 17.6546 27.9757 17.5594C28.0151 17.4642 28.0354 17.3621 28.0354 17.2591C28.0354 17.156 28.0151 17.0539 27.9757 16.9587C27.9362 16.8635 27.8784 16.777 27.8056 16.7041L23.3305 12.2291C23.2215 12.1233 23.086 12.0488 22.9383 12.0134C22.8114 11.99 22.6807 11.9974 22.5572 12.0349C22.4336 12.0724 22.3209 12.139 22.2284 12.2291L17.7534 16.6923C17.6289 16.8422 17.5646 17.033 17.573 17.2277C17.5814 17.4223 17.662 17.6069 17.7991 17.7454C17.9361 17.8839 18.1198 17.9664 18.3143 17.9769C18.5089 17.9875 18.7004 17.9252 18.8516 17.8023Z" fill="white"/>
</svg>
