<svg width="30" height="30" viewBox="0 0 30 30" fill="none" xmlns="http://www.w3.org/2000/svg">
<path d="M15 0C6.71602 0 0 6.71602 0 15C0 23.284 6.71602 30 15 30C23.284 30 30 23.284 30 15C30 6.71602 23.284 0 15 0ZM15 4.57031C17.9736 4.57031 20.3842 6.98086 20.3842 9.95449C20.3842 12.9281 17.9736 15.3387 15 15.3387C12.0264 15.3387 9.61582 12.9281 9.61582 9.95449C9.61582 6.98086 12.0264 4.57031 15 4.57031ZM24.0012 22.5047C21.8514 25.0799 18.617 26.7188 15 26.7188C11.383 26.7188 8.14863 25.0799 5.99883 22.5047C5.69707 22.1426 5.58574 21.6604 5.69824 21.2027C6.21387 19.1004 7.42324 17.2699 9.0709 15.9691C9.58242 15.5654 10.3072 15.5549 10.8311 15.9439C11.9449 16.7719 13.4039 17.2734 15 17.2734C16.5961 17.2734 18.0551 16.7719 19.1689 15.9439C19.6928 15.5549 20.4176 15.5654 20.9291 15.9691C22.5768 17.2699 23.7861 19.1004 24.3018 21.2027C24.4143 21.6604 24.3029 22.1426 24.0012 22.5047Z" fill="url(#paint0_linear_8676_49917)" style=""/>
<defs>
<linearGradient id="paint0_linear_8676_49917" x1="1.77122" y1="1.93548" x2="29.9075" y2="14.0944" gradientUnits="userSpaceOnUse">
<stop stop-color="#1D5BBF" style="stop-color:#1D5BBF;stop-color:color(display-p3 0.1137 0.3569 0.7490);stop-opacity:1;"/>
<stop offset="1" stop-color="#00AEBD" style="stop-color:#00AEBD;stop-color:color(display-p3 0.0000 0.6824 0.7412);stop-opacity:1;"/>
</linearGradient>
</defs>
</svg>
