<svg width="22" height="22" viewBox="0 0 22 22" fill="none" xmlns="http://www.w3.org/2000/svg">
<path d="M17.9085 0H4.09148C1.83292 0.00262109 0.00262109 1.83292 0 4.09148V17.9085C0.00262109 20.1671 1.83292 21.9974 4.09148 22H17.9085C20.1671 21.9974 21.9974 20.1671 22 17.9085V4.09148C21.9974 1.83292 20.1671 0.00262109 17.9085 0ZM20.4813 4.09148V5.41797H16.6339L13.7564 1.51873H17.9086C19.3288 1.52032 20.4797 2.67124 20.4813 4.09148ZM11.8689 1.51873L14.7464 5.41797H10.1311L7.25364 1.51873H11.8689ZM1.51873 4.09148C1.52032 2.67128 2.67124 1.52036 4.09148 1.51873H5.36615L8.2436 5.41797H1.51873V4.09148ZM17.9085 20.4813H4.09148C2.67128 20.4797 1.52036 19.3288 1.51873 17.9085V6.93675H20.4813V17.9085C20.4796 19.3287 19.3287 20.4796 17.9085 20.4813Z" fill="#1D5BBF" style="fill:#1D5BBF;fill:color(display-p3 0.1137 0.3569 0.7490);fill-opacity:1;"/>
<path d="M15.053 13.0509L9.04531 9.58233C8.68209 9.37264 8.21769 9.49708 8.008 9.86029C7.94136 9.97575 7.90625 10.1067 7.90625 10.24V17.1771C7.90625 17.5965 8.24622 17.9365 8.66559 17.9365C8.79888 17.9365 8.92985 17.9014 9.04531 17.8347L15.053 14.3662C15.4162 14.1565 15.5406 13.6921 15.3309 13.3289C15.2643 13.2134 15.1684 13.1175 15.053 13.0509ZM9.42498 15.8618V11.5552L13.1546 13.7085L9.42498 15.8618Z" fill="#1D5BBF" style="fill:#1D5BBF;fill:color(display-p3 0.1137 0.3569 0.7490);fill-opacity:1;"/>
</svg>
