<svg width="30" height="17" viewBox="0 0 30 17" fill="none" xmlns="http://www.w3.org/2000/svg">
<path d="M15.7857 17H3.64286C1.57857 17 0 15.4214 0 13.3571V3.64286C0 1.57857 1.57857 0 3.64286 0H15.7857C17.85 0 19.4286 1.57857 19.4286 3.64286V13.3571C19.4286 15.4214 17.85 17 15.7857 17ZM27.9286 15.7857H26.7143C26.35 15.7857 26.1071 15.6643 25.8643 15.4214L22.2214 11.7786C21.9786 11.5357 21.8571 11.2929 21.8571 10.9286V6.07143C21.8571 5.70714 21.9786 5.46429 22.2214 5.22143L25.8643 1.57857C26.1071 1.33571 26.35 1.21429 26.7143 1.21429H27.9286C28.6571 1.21429 29.1429 1.7 29.1429 2.42857V14.5714C29.1429 15.3 28.6571 15.7857 27.9286 15.7857Z" fill="#5B6B79" style="fill:#5B6B79;fill:color(display-p3 0.3569 0.4196 0.4745);fill-opacity:1;"/>
</svg>
