<svg width="22" height="22" viewBox="0 0 22 22" fill="none" xmlns="http://www.w3.org/2000/svg">
<path d="M22.0056 5.5691C22.0021 5.35816 21.938 5.15267 21.821 4.97714C21.704 4.8016 21.5389 4.66342 21.3456 4.57906L11.4342 0.0872405C11.2966 0.0296548 11.1489 0 10.9997 0C10.8505 0 10.7028 0.0296548 10.5652 0.0872405L0.664862 4.57173C0.470285 4.65554 0.30405 4.79376 0.186133 4.96977C0.0682158 5.14578 0.00363426 5.3521 0.00014892 5.56393C-0.00333642 5.77576 0.0544227 5.9841 0.166485 6.16389C0.278548 6.34369 0.440146 6.4873 0.631861 6.57747L4.37566 8.3962L0.672195 10.0756C0.477619 10.1594 0.311383 10.2976 0.193466 10.4736C0.0755494 10.6496 0.0109678 10.856 0.00748251 11.0678C0.00399717 11.2796 0.0617563 11.488 0.173819 11.6677C0.285882 11.8475 0.44748 11.9912 0.639194 12.0813L3.85131 13.6397L0.672195 15.0808C0.477619 15.1646 0.311383 15.3028 0.193466 15.4788C0.0755494 15.6548 0.0109678 15.8611 0.00748251 16.073C0.00399717 16.2848 0.0617563 16.4931 0.173819 16.6729C0.285882 16.8527 0.44748 16.9963 0.639194 17.0865L10.5395 21.8937C10.6851 21.9628 10.8441 21.9991 11.0052 22C11.1676 21.9996 11.3279 21.9633 11.4746 21.8937L21.3749 17.0865C21.5659 16.9966 21.7269 16.8536 21.8389 16.6746C21.9508 16.4957 22.0089 16.2883 22.0062 16.0772C22.0035 15.8661 21.9401 15.6603 21.8236 15.4843C21.7071 15.3082 21.5424 15.1694 21.3492 15.0844L18.1628 13.6397L21.3712 12.0997C21.5622 12.0097 21.7233 11.8667 21.8352 11.6878C21.9471 11.5088 22.0052 11.3014 22.0025 11.0904C21.9998 10.8793 21.9364 10.6735 21.8199 10.4974C21.7035 10.3214 21.5388 10.1826 21.3456 10.0976L17.6348 8.3962L21.3712 6.59947C21.5661 6.50853 21.7301 6.36246 21.8428 6.17934C21.9556 5.99621 22.0122 5.78405 22.0056 5.5691ZM21.0522 15.7665C21.1167 15.7946 21.1717 15.8406 21.2107 15.8991C21.2497 15.9577 21.2711 16.0261 21.2722 16.0965C21.2738 16.1678 21.2546 16.2381 21.2168 16.2987C21.179 16.3593 21.1244 16.4075 21.0596 16.4375L11.1592 21.241C11.112 21.2622 11.0607 21.2732 11.0089 21.2732C10.9571 21.2732 10.9058 21.2622 10.8585 21.241L0.958205 16.4301C0.893138 16.4015 0.837817 16.3545 0.798979 16.2949C0.760142 16.2353 0.739464 16.1657 0.739464 16.0946C0.739464 16.0235 0.760142 15.9539 0.798979 15.8944C0.837817 15.8348 0.893138 15.7878 0.958205 15.7591L4.69834 14.0651L10.5322 16.8995C10.6049 16.9334 10.6812 16.9592 10.7595 16.9765H10.7852C10.854 16.9905 10.924 16.9978 10.9942 16.9985H11.0566C11.1973 16.9919 11.3355 16.9583 11.4636 16.8995L17.2938 14.0687L21.0522 15.7665ZM16.7768 8.79954L21.0522 10.7503C21.1167 10.7784 21.1717 10.8245 21.2107 10.883C21.2497 10.9415 21.2711 11.01 21.2722 11.0803C21.2738 11.1517 21.2546 11.2219 21.2168 11.2825C21.179 11.3431 21.1244 11.3913 21.0596 11.4213L17.1434 13.3207L11.1556 16.2285C11.1083 16.2497 11.057 16.2607 11.0052 16.2607C10.9534 16.2607 10.9022 16.2497 10.8549 16.2285L4.87434 13.3207L0.950872 11.4176C0.885804 11.3889 0.830483 11.342 0.791646 11.2824C0.752808 11.2228 0.732131 11.1532 0.732131 11.0821C0.732131 11.011 0.752808 10.9414 0.791646 10.8819C0.830483 10.8223 0.885804 10.7753 0.950872 10.7466L5.23369 8.79954L10.5432 11.3663C10.6159 11.4002 10.6922 11.426 10.7705 11.4433C10.8096 11.4454 10.8488 11.4454 10.8879 11.4433C10.927 11.4454 10.9661 11.4454 11.0052 11.4433C11.0643 11.4419 11.1231 11.4358 11.1812 11.425H11.2436C11.3233 11.4068 11.4008 11.3797 11.4746 11.3443L16.7768 8.79954ZM21.0559 5.90644L11.1556 10.7136C11.1083 10.7349 11.057 10.7458 11.0052 10.7458C10.9534 10.7458 10.9022 10.7349 10.8549 10.7136L5.39869 8.06618L0.950872 5.91744C0.885804 5.88875 0.830483 5.84176 0.791646 5.78219C0.752808 5.72262 0.732131 5.65304 0.732131 5.58193C0.732131 5.51082 0.752808 5.44124 0.791646 5.38167C0.830483 5.3221 0.885804 5.27511 0.950872 5.24642L10.8512 0.76193C10.9001 0.742174 10.9525 0.732208 11.0052 0.732596C11.0517 0.732483 11.0977 0.741193 11.1409 0.758264L21.0412 5.25009C21.1057 5.2782 21.1607 5.32427 21.1997 5.38278C21.2387 5.44129 21.2601 5.50978 21.2612 5.5801C21.2631 5.64967 21.2451 5.71834 21.2094 5.77807C21.1737 5.83781 21.1217 5.88615 21.0596 5.91744L21.0559 5.90644Z" fill="#18283D"/>
</svg>
