<svg width="23" height="12" viewBox="0 0 23 12" fill="none" xmlns="http://www.w3.org/2000/svg">
<path d="M11.2871 0C5.15792 0 0.298169 5.50422 0.0943219 5.7385C-0.0314406 5.88294 -0.0314406 6.0926 0.0943219 6.23704C0.298169 6.47134 5.15792 11.9755 11.2871 11.9755C17.4163 11.9755 22.276 6.47134 22.4799 6.23704C22.6057 6.0926 22.6057 5.88294 22.4799 5.7385C22.276 5.50419 17.4163 0 11.2871 0ZM11.2871 11.1957C6.26137 11.1957 1.97625 7.05743 0.95301 5.98777C1.97625 4.9181 6.26137 0.779789 11.2871 0.779789C16.3129 0.779789 20.598 4.9181 21.6212 5.98777C20.598 7.05743 16.3129 11.1957 11.2871 11.1957Z" fill="#18283D" style="fill:#18283D;fill:color(display-p3 0.0941 0.1569 0.2392);fill-opacity:1;"/>
<path d="M15.3078 4.66562C14.8116 3.28918 13.5618 2.24507 12.0334 1.98634C11.7852 1.94368 11.5336 1.92188 11.2857 1.92188C8.93975 1.92188 7.03125 3.74596 7.03125 5.98785C7.03125 8.22975 8.93975 10.0538 11.2857 10.0538C13.6316 10.0538 15.5403 8.22972 15.5403 5.98783C15.5403 5.75176 15.5176 5.51138 15.4729 5.27455C15.4342 5.06567 15.3787 4.86225 15.3078 4.66562ZM12.1007 2.79789C13.3253 3.07329 14.3351 4.03872 14.6235 5.20895C14.305 5.46085 13.9074 5.59793 13.4837 5.59793C12.4967 5.59793 11.6937 4.83033 11.6937 3.88707C11.6937 3.48223 11.837 3.10232 12.1007 2.79789ZM11.2857 9.27401C9.38968 9.27401 7.84718 7.79972 7.84718 5.98783C7.84718 4.20783 9.33672 2.75708 11.1868 2.70645C10.9855 3.06388 10.8777 3.46614 10.8777 3.88707C10.8777 5.26033 12.0468 6.37772 13.4837 6.37772C13.9242 6.37772 14.3452 6.27471 14.7193 6.08223C14.6664 7.85025 13.1484 9.27401 11.2857 9.27401Z" fill="#18283D" style="fill:#18283D;fill:color(display-p3 0.0941 0.1569 0.2392);fill-opacity:1;"/>
</svg>
