<svg width="18" height="18" viewBox="0 0 18 18" fill="none" xmlns="http://www.w3.org/2000/svg">
<circle cx="9" cy="9" r="9" fill="#FFC7C7"/>
<path d="M12.9704 5.34904H11.6827C11.5863 4.88024 11.3313 4.45901 10.9605 4.15635C10.5897 3.85369 10.126 3.6881 9.64736 3.6875L8.81659 3.6875C8.33798 3.6881 7.87421 3.85369 7.50345 4.15635C7.13269 4.45901 6.87761 4.88024 6.7812 5.34904H5.49351C5.38334 5.34904 5.27769 5.3928 5.19979 5.4707C5.12189 5.5486 5.07812 5.65426 5.07812 5.76442C5.07812 5.87459 5.12189 5.98024 5.19979 6.05814C5.27769 6.13604 5.38334 6.17981 5.49351 6.17981H5.90889V11.5798C5.90955 12.1304 6.12858 12.6583 6.51794 13.0477C6.9073 13.437 7.43519 13.6561 7.98582 13.6567H10.4781C11.0288 13.6561 11.5566 13.437 11.946 13.0477C12.3354 12.6583 12.5544 12.1304 12.555 11.5798V6.17981H12.9704C13.0806 6.17981 13.1863 6.13604 13.2642 6.05814C13.3421 5.98024 13.3858 5.87459 13.3858 5.76442C13.3858 5.65426 13.3421 5.5486 13.2642 5.4707C13.1863 5.3928 13.0806 5.34904 12.9704 5.34904ZM8.81659 4.51827H9.64736C9.90501 4.51858 10.1563 4.59859 10.3666 4.74733C10.577 4.89607 10.7363 5.10624 10.8225 5.34904H7.64146C7.72769 5.10624 7.88691 4.89607 8.0973 4.74733C8.30769 4.59859 8.55893 4.51858 8.81659 4.51827ZM11.7243 11.5798C11.7243 11.9103 11.593 12.2273 11.3593 12.461C11.1256 12.6947 10.8086 12.826 10.4781 12.826H7.98582C7.65532 12.826 7.33835 12.6947 7.10465 12.461C6.87095 12.2273 6.73966 11.9103 6.73966 11.5798V6.17981H11.7243V11.5798Z" fill="#F17925"/>
<path d="M8.39976 11.1668C8.50993 11.1668 8.61558 11.1231 8.69348 11.0452C8.77138 10.9673 8.81514 10.8616 8.81514 10.7514V8.25913C8.81514 8.14897 8.77138 8.04331 8.69348 7.96541C8.61558 7.88751 8.50993 7.84375 8.39976 7.84375C8.28959 7.84375 8.18394 7.88751 8.10604 7.96541C8.02814 8.04331 7.98438 8.14897 7.98438 8.25913V10.7514C7.98438 10.8616 8.02814 10.9673 8.10604 11.0452C8.18394 11.1231 8.28959 11.1668 8.39976 11.1668Z" fill="#F17925"/>
<path d="M10.0638 11.1668C10.174 11.1668 10.2796 11.1231 10.3575 11.0452C10.4354 10.9673 10.4792 10.8616 10.4792 10.7514V8.25913C10.4792 8.14897 10.4354 8.04331 10.3575 7.96541C10.2796 7.88751 10.174 7.84375 10.0638 7.84375C9.95366 7.84375 9.848 7.88751 9.7701 7.96541C9.6922 8.04331 9.64844 8.14897 9.64844 8.25913V10.7514C9.64844 10.8616 9.6922 10.9673 9.7701 11.0452C9.848 11.1231 9.95366 11.1668 10.0638 11.1668Z" fill="#F17925"/>
</svg>
