<svg width="190" height="201" viewBox="0 0 190 201" fill="none" xmlns="http://www.w3.org/2000/svg">
<path opacity="0.1" d="M98.0306 72.6405C102.917 82.8076 95.2507 96.6385 80.9068 103.533C66.5629 110.427 50.9734 107.774 46.0866 97.6067C41.1998 87.4396 48.8665 73.6087 63.2104 66.7144C77.5543 59.8201 93.1438 62.4733 98.0306 72.6405Z" fill="url(#paint0_linear_742_24844)"/>
<path opacity="0.1" d="M59.4661 200.326C59.4661 200.326 18.1513 177.376 43.2506 139.156C68.3499 100.937 124.595 102.69 131.605 77.3838C138.614 52.078 204.783 94.4206 172.117 133.086C139.451 171.752 159.395 199.005 159.395 199.005L59.4661 200.326Z" fill="url(#paint1_linear_742_24844)"/>
<path d="M150.687 198.868C151.108 196.509 151.291 194.18 151.356 191.828C151.361 191.241 151.38 190.654 151.375 190.068L151.342 188.309C151.281 187.138 151.228 185.967 151.099 184.803L151.016 183.929C150.986 183.637 150.939 183.348 150.901 183.058C150.818 182.479 150.745 181.898 150.655 181.32C150.432 180.171 150.257 179.014 149.96 177.883C149.462 175.598 148.702 173.383 147.895 171.199C148.617 173.415 149.286 175.648 149.692 177.94C149.943 179.075 150.071 180.232 150.248 181.379C150.314 181.955 150.364 182.534 150.423 183.111C150.45 183.4 150.485 183.687 150.504 183.977L150.552 184.846C150.635 186.002 150.641 187.162 150.656 188.32L150.62 190.057C150.602 190.635 150.561 191.213 150.533 191.79C150.502 192.368 150.439 192.943 150.394 193.519C150.338 194.094 150.268 194.668 150.2 195.241C150.046 196.38 149.863 197.534 149.616 198.628L150.687 198.868Z" fill="url(#paint2_linear_742_24844)"/>
<path d="M154.221 198.997C154.224 197.863 154.173 196.762 154.098 195.65C154.021 194.541 153.913 193.435 153.773 192.333C153.494 190.13 153.076 187.942 152.484 185.801C151.877 183.666 151.095 181.566 149.972 179.647C149.42 178.684 148.768 177.776 148.014 176.964C147.263 176.151 146.407 175.433 145.457 174.871C146.383 175.472 147.202 176.22 147.911 177.055C148.623 177.888 149.228 178.809 149.733 179.78C150.76 181.716 151.442 183.813 151.953 185.938C152.448 188.07 152.77 190.24 152.954 192.42C153.048 193.51 153.109 194.603 153.139 195.696C153.168 196.785 153.172 197.89 153.125 198.96L154.221 198.997Z" fill="url(#paint3_linear_742_24844)"/>
<path d="M147.819 198.832C147.962 197.511 148.048 196.209 148.1 194.896C148.147 193.585 148.156 192.273 148.098 190.962C148.038 189.652 147.921 188.341 147.664 187.052C147.533 186.409 147.375 185.769 147.142 185.155C146.909 184.543 146.612 183.946 146.188 183.449C146.576 183.975 146.826 184.582 147.011 185.199C147.198 185.818 147.309 186.456 147.393 187.097C147.556 188.378 147.58 189.675 147.549 190.967C147.515 192.26 147.416 193.551 147.278 194.837C147.138 196.12 146.96 197.41 146.734 198.667L147.819 198.832Z" fill="url(#paint4_linear_742_24844)"/>
<path d="M156.315 198.628C156.231 197.32 156.211 195.979 156.235 194.652C156.259 193.321 156.337 191.991 156.484 190.669C156.634 189.347 156.857 188.031 157.211 186.747C157.393 186.108 157.609 185.477 157.88 184.868C158.152 184.26 158.478 183.672 158.899 183.148C158.444 183.642 158.073 184.212 157.757 184.808C157.441 185.404 157.178 186.028 156.949 186.664C156.502 187.94 156.185 189.259 155.942 190.588C155.701 191.918 155.53 193.261 155.413 194.608C155.297 195.958 155.224 197.299 155.219 198.672L156.315 198.628Z" fill="url(#paint5_linear_742_24844)"/>
<path d="M157.271 198.524C157.045 197.539 156.871 196.497 156.729 195.471L156.622 194.697C156.589 194.439 156.564 194.179 156.535 193.92C156.477 193.402 156.419 192.883 156.385 192.363C156.35 191.842 156.292 191.323 156.275 190.801L156.205 189.237C156.192 188.715 156.193 188.193 156.187 187.67L156.18 186.887L156.204 186.104C156.315 181.929 156.827 177.75 157.888 173.7L158.323 172.192L158.54 171.437C158.611 171.185 158.683 170.933 158.777 170.689C159.133 169.704 159.475 168.718 159.843 167.731C160.596 165.762 161.325 163.782 161.917 161.757L162.143 160.999C162.22 160.747 162.292 160.494 162.353 160.237L162.74 158.704C162.854 158.189 162.953 157.67 163.06 157.154C163.118 156.897 163.152 156.635 163.192 156.374L163.308 155.592C163.354 155.332 163.368 155.068 163.394 154.805L163.464 154.017C163.47 153.49 163.51 152.963 163.467 152.435L163.449 152.04C163.44 151.909 163.417 151.779 163.402 151.647L163.351 151.255C163.328 151.126 163.296 150.997 163.269 150.868C163.151 150.359 162.993 149.837 162.659 149.426C162.984 149.844 163.129 150.367 163.235 150.876C163.26 151.005 163.289 151.133 163.309 151.262L163.351 151.653C163.363 151.784 163.383 151.914 163.389 152.045L163.399 152.438C163.43 152.962 163.378 153.487 163.361 154.01L163.274 154.792C163.243 155.053 163.224 155.315 163.173 155.572L163.039 156.348C162.995 156.606 162.955 156.865 162.891 157.121C162.774 157.632 162.664 158.145 162.54 158.655L162.122 160.172C162.056 160.426 161.979 160.677 161.896 160.926L161.655 161.676C161.022 163.677 160.254 165.634 159.461 167.577C159.073 168.554 158.703 169.548 158.322 170.534C158.222 170.779 158.144 171.031 158.067 171.284L157.83 172.041L157.358 173.556C156.197 177.627 155.585 181.846 155.381 186.075L155.34 186.869L155.329 187.664C155.324 188.193 155.311 188.723 155.313 189.253L155.349 190.843C155.355 191.373 155.402 191.902 155.427 192.431C155.45 192.962 155.498 193.49 155.545 194.019C155.569 194.283 155.588 194.548 155.616 194.812L155.708 195.603C155.832 196.663 155.981 197.703 156.202 198.774L157.271 198.524Z" fill="url(#paint6_linear_742_24844)"/>
<path d="M132.686 198.403L131.359 198.204C131.634 196.38 138.101 153.489 139.9 149.791C141.917 145.645 148.096 147.855 148.358 147.951L147.897 149.211C147.844 149.192 142.593 147.32 141.106 150.378C139.738 153.191 135 183.022 132.686 198.403Z" fill="url(#paint7_linear_742_24844)"/>
<path d="M129.345 198.311L128.004 198.284L128.865 155.957L130.206 155.984L129.345 198.311Z" fill="url(#paint8_linear_742_24844)"/>
<path d="M124.076 198.728C124.03 198.48 119.514 173.831 118.254 163.728C117.087 154.369 111.385 154.935 111.141 154.963L110.973 153.632C111.07 153.62 113.369 153.345 115.619 155.088C117.756 156.743 119.09 159.594 119.585 163.562C120.841 173.627 125.349 198.238 125.395 198.486L124.076 198.728Z" fill="url(#paint9_linear_742_24844)"/>
<path d="M102.668 157.765C102.134 159.434 96.614 159.528 92.7022 162.704C92.0564 164.879 91.8286 165.453 91.6495 167.453C93.9439 165.381 99.2824 163.361 99.4727 164.268C99.679 165.25 93.68 169.034 91.3633 171.336C91.3659 172.944 91.5292 174.454 91.8517 175.833C94.231 173.923 97.9975 170.998 97.7701 171.811C97.5627 172.552 94.5758 175.552 92.5378 178.006C93.0918 179.368 93.837 180.545 94.7705 181.486C96.3835 179.433 99.5139 174.765 98.9305 176.316C98.434 177.635 96.67 181.055 95.7861 182.364C96.0986 182.593 96.4261 182.802 96.7705 182.986L99.5091 184.454L103.083 183.701C104.33 183.438 105.593 182.983 106.849 182.365C106.134 180.901 106.446 176.904 107.013 177.523C107.478 178.031 109.383 178.194 110.128 180.374C111.728 179.212 113.284 177.802 114.748 176.195C113.213 174.672 109.969 172.184 110.549 170.928C111.13 169.672 114.343 173.298 116.273 174.405C118.043 172.194 119.638 169.694 120.96 167.004C118.589 166.381 113.987 164.433 114.171 163.486C114.354 162.54 118.324 161.951 122.746 162.769C123.251 161.264 123.509 159.836 123.551 158.542C120.927 158.57 117.335 158.642 116.955 158.453C116.496 158.224 120.912 156.372 123.233 155.68C122.51 153.175 120.622 151.762 117.928 152.322L111.058 153.75L105.781 150.946C102.408 149.154 97.2207 152.633 94.3945 158.242C97.5574 156.643 103.202 156.096 102.668 157.765Z" fill="url(#paint10_linear_742_24844)"/>
<g opacity="0.05">
<path d="M120.303 156.724C121.338 156.313 122.418 155.924 123.237 155.68C122.514 153.175 120.626 151.762 117.932 152.322L111.062 153.75L105.785 150.946C103.389 149.673 100.078 151.062 97.3477 153.982C101.318 153.612 108.839 153.526 108.321 158.29C107.753 163.503 115.064 153.613 120.303 156.724Z" fill="#0C010C"/>
<path d="M123.554 158.543C123.108 158.548 122.634 158.554 122.152 158.56C122.558 159.164 122.936 159.9 123.282 160.784C123.441 160.003 123.531 159.252 123.554 158.543Z" fill="#0C010C"/>
</g>
<g opacity="0.05">
<path d="M115.768 169.67C117.342 168.555 119.557 167.698 120.634 167.653C120.745 167.437 120.857 167.222 120.965 167.004C119.468 166.611 117.082 165.689 115.573 164.824C115.492 166.491 115.556 168.12 115.768 169.67Z" fill="#0C010C"/>
<path d="M119.034 170.488C118.794 170.634 118.635 170.717 118.635 170.717C118.635 170.717 117.205 171.718 116.344 172.55C116.46 172.986 116.592 173.408 116.731 173.823C117.542 172.769 118.313 171.654 119.034 170.488Z" fill="#0C010C"/>
<path d="M117.428 158.527C116.803 159.427 116.297 160.539 115.973 161.802C119.19 160.763 123.19 160.063 123.167 160.935C123.155 161.37 121.913 161.879 120.348 162.451C121.118 162.512 121.925 162.615 122.747 162.768C123.252 161.263 123.51 159.835 123.552 158.541C121.384 158.564 118.56 158.616 117.428 158.527Z" fill="#0C010C"/>
<path d="M118.145 157.649C119.125 157.183 120.54 156.606 121.797 156.156C120.498 155.958 119.209 156.53 118.145 157.649Z" fill="#0C010C"/>
</g>
<path d="M126.251 158.96C126.297 159.831 121.462 161.386 118.969 162.959C118.995 164.8 119.202 166.581 119.569 168.257C121.628 166.536 124.961 165.216 124.921 166.158C124.861 167.611 122.508 169.075 122.508 169.075C122.508 169.075 121.162 170.187 120.37 171.086C120.812 172.335 121.351 173.493 121.971 174.539C124.027 172.933 125.549 171.115 125.517 171.751C125.478 172.553 124.661 175.573 123.77 176.995C124.933 178.27 126.263 179.218 127.714 179.743L130.154 180.626L132.594 179.743C133.546 179.398 134.447 178.871 135.282 178.189C133.932 175.752 134.957 173.045 136.727 176.78C137.646 175.727 138.455 174.468 139.129 173.049C137.682 171.14 135.927 168.889 135.182 168.188C133.936 167.015 139.053 167.548 140.169 170.396C140.556 169.18 140.853 167.888 141.053 166.543C139.257 164.886 136.913 163.179 134.94 163.263C133.019 162.303 138.264 161.073 141.334 163.345C141.341 163.088 141.345 162.83 141.345 162.571C141.345 160.717 140.958 159.032 140.315 157.673C139.422 157.541 138.614 157.504 138.25 157.71C137.281 158.258 135.099 158.869 134.87 158.227C134.641 157.585 137.722 156.548 139.258 156C138.059 154.572 136.473 153.929 134.849 154.511L130.154 156.195L125.459 154.511C122.608 153.488 119.871 156.24 119.149 160.399C122.274 159.107 126.205 158.089 126.251 158.96Z" fill="url(#paint11_linear_742_24844)"/>
<g opacity="0.05">
<path d="M136.727 163.601C136.114 163.368 135.51 163.238 134.937 163.263C133.016 162.302 138.261 161.072 141.331 163.345C141.338 163.088 141.342 162.83 141.342 162.57C141.342 160.717 140.955 159.032 140.312 157.672C139.419 157.541 138.611 157.503 138.247 157.709C137.278 158.258 135.097 158.868 134.867 158.226C134.638 157.584 137.72 156.547 139.256 156C139.248 155.99 139.239 155.982 139.231 155.973C136.73 156.915 133.25 157.833 131.496 159.011C131.892 161.435 132.482 163.784 133.24 166.012C134.115 165.078 135.268 164.167 136.727 163.601Z" fill="#0C010C"/>
<path d="M139.323 165.098C138.721 165.872 137.693 166.772 136.668 167.753C137.95 168.074 139.589 168.925 140.164 170.394C140.551 169.178 140.849 167.886 141.048 166.541C140.513 166.048 139.93 165.551 139.323 165.098Z" fill="#0C010C"/>
<path d="M139.128 173.05C137.951 171.497 136.57 169.718 135.695 168.73C135.356 169.088 135.035 169.453 134.75 169.824C135.653 171.807 136.694 173.649 137.843 175.317C138.312 174.619 138.743 173.862 139.128 173.05Z" fill="#0C010C"/>
</g>
<path d="M165.321 170.88C162.764 167.928 160.029 166.985 160.144 165.531C160.258 164.077 162.617 165.577 165.419 166.277C166.93 166.655 168.433 167.432 169.498 168.068C169.703 165.786 169.646 163.343 169.317 160.808C165.703 160.132 159.755 158.883 158.038 157.719C155.518 156.01 158.869 155.969 160.041 156.554C161.213 157.139 164.483 155.437 168.291 155.631C168.098 154.904 167.884 154.174 167.647 153.443C167.223 152.13 166.681 150.902 166.056 149.776C162.346 149.223 155.626 149.398 154.483 149.283C152.944 149.127 154.001 147.796 155.123 147.124C155.986 146.608 160.246 145.463 162.173 144.961C159.44 142.67 156.336 141.892 153.894 143.391L147.562 147.279L139.611 146.165C134.363 145.43 131.461 151.277 133.163 158.472C136.374 156.365 142.151 152.916 143.488 154.425C145.068 156.208 136.865 159.1 134.198 161.755C135.049 164.059 136.076 166.252 137.244 168.295C138.268 166.667 139.911 164.968 142.493 164.257C145.119 165.005 141.122 168.401 139.451 171.748C141.567 174.717 143.982 177.237 146.544 179.144C147.822 176.81 149.987 173.176 150.92 173.506C151.746 173.798 150.65 177.914 149.657 181.116C151.471 182.07 153.325 182.708 155.167 182.971L159.303 183.562L162.589 181.53C165.069 179.996 166.925 177.506 168.107 174.385C167.522 173.566 166.612 172.37 165.321 170.88Z" fill="url(#paint12_linear_742_24844)"/>
<path opacity="0.05" d="M166.074 150.472C166.201 150.489 166.324 150.502 166.444 150.514C166.319 150.264 166.191 150.017 166.057 149.776C162.348 149.223 155.627 149.398 154.484 149.283C152.946 149.127 154.003 147.796 155.125 147.124C155.987 146.608 160.248 145.463 162.175 144.961C159.441 142.67 156.338 141.892 153.896 143.391L147.564 147.279L139.613 146.165C136.471 145.725 134.171 147.646 133.195 150.801C136.808 149.682 142.934 149.071 147.61 155.222C154.548 164.652 157.037 149.257 166.074 150.472Z" fill="#0C010C"/>
<mask id="mask0_742_24844" style="mask-type:luminance" maskUnits="userSpaceOnUse" x="31" y="164" width="58" height="34">
<path d="M31.94 197.504L88.9141 197.504L88.9141 164.823L31.94 164.823L31.94 197.504Z" fill="white"/>
</mask>
<g mask="url(#mask0_742_24844)">
<path d="M62.9664 200.136C62.9664 200.136 58.648 174.861 33.2461 171.051C42.5177 178.544 54.8379 200.136 58.902 200.136C61.9503 200.644 62.9664 200.136 62.9664 200.136Z" fill="url(#paint13_linear_742_24844)"/>
<path opacity="0.05" d="M48.7266 177.293C60.5537 186.016 62.9673 200.138 62.9673 200.138C62.9673 200.138 61.9513 200.646 58.9029 200.138C58.3827 200.138 57.7267 199.783 56.9595 199.15C52.3377 193.283 49.4322 184.4 48.7266 177.293Z" fill="#0C010C"/>
<path d="M73.1276 191.089C73.1276 191.089 78.0322 179.309 78.5013 170.164C73.3818 170.545 62.9668 183.5 63.475 188.707C63.9831 193.915 63.9831 193.915 63.9831 193.915L73.1276 191.089Z" fill="url(#paint14_linear_742_24844)"/>
<path opacity="0.05" d="M71.2097 184.199C73.1827 181.536 75.2942 179.894 77.0917 178.883C75.4891 185.412 73.1278 191.085 73.1278 191.085L66.2643 193.206C65.2805 191.685 64.3286 190.199 63.4927 188.885C63.4868 188.825 63.4811 188.765 63.475 188.703C63.2236 186.127 65.6464 181.654 68.7786 177.746C70.4208 180.876 71.2097 184.199 71.2097 184.199Z" fill="#0C010C"/>
<path d="M73.6205 200.901C73.6205 200.901 84.5566 189.298 87.8101 178.293C78.5872 179.436 67.5373 188.708 67.1562 196.963C67.2833 202.298 73.6205 200.901 73.6205 200.901Z" fill="url(#paint15_linear_742_24844)"/>
<path opacity="0.05" d="M73.7288 185.352C74.7977 187.609 76.5563 192.008 76.8903 197.094C74.984 199.449 73.6205 200.896 73.6205 200.896C73.6205 200.896 67.2833 202.293 67.1562 196.959C67.3397 192.985 69.9954 188.776 73.7288 185.352Z" fill="#0C010C"/>
<path d="M71.4804 201.055C71.4804 201.055 73.854 174.227 52.8972 164.828C48.8329 172.195 55.4973 199.076 68.5271 202.21C71.4804 203.672 71.4804 201.055 71.4804 201.055Z" fill="url(#paint16_linear_742_24844)"/>
</g>
<path d="M0.25 198.891C16.0414 198.318 31.8329 198.018 47.6243 197.813L53.546 197.733L59.4677 197.679L71.3114 197.582L94.9986 197.504L118.686 197.574L130.53 197.673L136.451 197.724L142.373 197.805C158.164 198.009 173.956 198.311 189.747 198.891V199.111C173.956 199.69 158.164 199.993 142.373 200.196L136.451 200.278L130.53 200.329L118.686 200.427L94.9986 200.498L71.3114 200.42L59.4677 200.323L53.546 200.269L47.6243 200.188C31.8329 199.984 16.0414 199.684 0.25 199.111V198.891Z" fill="url(#paint17_linear_742_24844)"/>
<path d="M92.0884 188.156C92.0884 188.156 94.6166 195.35 94.3837 196.615C94.1508 197.88 92.6602 198.563 92.6602 198.563H70.4751C70.4751 198.563 68.7359 196.773 71.9126 194.757C73.6279 193.385 83.8548 188.156 83.8548 188.156H92.0884Z" fill="url(#paint18_linear_742_24844)"/>
<path d="M104.033 186.828L101.917 194.38L101.785 197.71C101.788 198.257 108.213 202.682 115.833 197.932C115.833 195.588 115.833 194.889 115.833 194.889L113.399 186.086L104.033 186.828Z" fill="url(#paint19_linear_742_24844)"/>
<path d="M103.882 83.2958L97.3843 77.3789L77.5391 84.1522L79.1701 132.237L81.952 189.048C85.5282 191.356 89.2795 190.943 93.1257 189.048L95.9401 140.238L97.9098 128.37L102.798 189.048C106.913 192.429 110.949 192.577 114.892 189.048L117.181 83.296H103.882V83.2958Z" fill="#1D5BBF"/>
<path d="M99.5428 79.3516L84.5997 81.7493L77.5391 84.1591L77.7416 90.1306C80.2807 92.7481 84.3967 96.9797 85.9676 97.4172C87.5387 97.8546 94.4802 90.2121 95.9201 90.2121C97.36 90.2121 104.489 97.1777 106.341 97.4376C107.595 97.6134 113.376 94.5508 116.98 92.5539L117.18 83.3024H103.882L99.5428 79.3516Z" fill="#27367A"/>
<path d="M131.467 109.607H129.527V102.881C129.527 102.506 129.292 102.245 129.082 102.245H110.456C110.245 102.245 110.011 102.506 110.011 102.881V108.305H108.07V102.881C108.07 101.46 109.141 100.305 110.456 100.305H129.082C130.397 100.305 131.467 101.46 131.467 102.881V109.607Z" fill="#353967"/>
<path d="M88.6964 21.8593L88.0195 29.8871C92.7349 35.5706 97.7532 35.5946 103.011 31.1323L100.708 18.0391L88.6964 21.8593Z" fill="url(#paint20_linear_742_24844)"/>
<path d="M102.909 30.5515L101.738 23.8945L96.8796 29.9813L95.5154 33.3784L94.5964 30.811L88.4467 24.8258L88.0195 29.8893C92.6184 35.4324 97.5056 35.5898 102.622 31.4547C102.719 31.1499 102.815 30.8483 102.909 30.5515Z" fill="url(#paint21_linear_742_24844)"/>
<path d="M101.459 22.3374L100.704 18.0391L95.1306 19.8115L92.582 26.8881C92.582 26.8881 98.6831 28.1513 101.459 22.3374Z" fill="url(#paint22_linear_742_24844)"/>
<path d="M84.3374 16.616C84.3374 16.616 78.6967 16.1081 78.3418 11.2092C78.421 9.26979 79.0645 5.74386 81.9515 4.36325C80.5595 4.47299 77.6012 6.23925 77.9447 11.4151C77.3929 11.337 77.4054 5.18547 80.979 3.71289C84.7268 2.47978 83.9329 2.05747 88.8441 2.75744C91.7256 2.87508 96.8145 -2.1344 100.681 2.40822C103.037 1.78289 105.889 2.62091 103.782 12.0817C101.675 21.5423 100.917 19.179 100.671 18.9481C100.425 18.7172 96.2474 15.8256 96.2474 15.8256L84.3374 16.616Z" fill="#18283D"/>
<path d="M84.3316 16.613L84.7234 16.5871C84.1275 15.5926 83.6251 14.7605 83.6251 14.7605C83.6251 14.7605 78.1064 11.4382 79.2429 7.22266C78.5914 8.61885 78.3792 10.1485 78.3359 11.2062C78.6911 16.1051 84.3316 16.613 84.3316 16.613Z" fill="#27367A"/>
<path d="M83.6323 14.7633C83.6323 14.7633 83.0478 15.7117 85.7173 19.9343C88.387 24.1569 90.673 26.7805 92.9125 26.8846C95.152 26.9888 101.529 22.6771 100.97 19.3057C100.192 18.2269 98.9534 14.4915 98.9534 14.4915C98.9534 14.4915 100.733 11.1987 98.6108 10.0648C96.4881 8.93113 97.3535 13.3792 96.3327 12.7391C95.3118 12.0991 93.1601 9.84225 91.938 10.4654C90.7158 11.0885 87.7518 15.9038 83.6323 14.7633Z" fill="#FCB0AA"/>
<path d="M93.2961 30.658L95.5112 34.3226V86.1614C95.5112 86.1614 88.3144 96.0129 85.0708 94.7827C81.8271 93.5524 76.9058 86.9531 76.7939 86.5058C76.6819 86.0585 78.248 66.2611 78.248 66.2611L77.3121 53.4444L72.4319 61.1691L57.0586 57.9019C57.0586 57.9019 62.4263 43.6867 73.4385 31.2522C75.9774 29.5691 87.3078 27.4492 87.3078 27.4492L93.2961 30.658Z" fill="url(#paint23_linear_742_24844)"/>
<path d="M77.5417 56.5783L78.2489 66.2623C78.2489 66.2623 76.683 86.0597 76.7948 86.507C76.8679 86.799 78.9895 89.7107 81.3561 92.0407C81.5314 85.4469 81.8457 74.9529 82.1019 73.501C82.4794 71.3618 77.6774 55.7578 77.6774 55.7578L77.5417 56.5783Z" fill="url(#paint24_linear_742_24844)"/>
<path opacity="0.05" d="M95.5135 34.3267L95.2286 33.8555C95.0398 34.2203 94.8267 34.7484 94.8267 35.2762C94.8267 36.0322 94.4035 72.1285 94.5701 87.3946C95.1579 86.6521 95.5135 86.1655 95.5135 86.1655V34.3267Z" fill="#353967"/>
<path d="M77.383 46.8233C77.1021 47.3 73.4515 57.2826 72.0625 61.091L72.4306 61.1692L77.3108 53.4445L77.383 54.4329C77.383 54.4314 77.7307 46.2338 77.383 46.8233Z" fill="url(#paint25_linear_742_24844)"/>
<path d="M97.3847 30.4765L95.5117 34.3224V86.1612C95.5117 86.1612 103.779 94.3621 106.037 94.0612C108.294 93.7602 115.506 87.1291 115.506 87.1291L110.702 47.7078L111.575 29.9771L103.008 27.4492L97.3847 30.4765Z" fill="url(#paint26_linear_742_24844)"/>
<path d="M103.007 27.4492L97.3838 30.4762L96.875 31.5213C96.875 31.5213 98.8893 33.9881 98.6103 35.2717C100.941 34.4464 103.684 29.1995 104.359 27.848L103.007 27.4492Z" fill="url(#paint27_linear_742_24844)"/>
<path d="M110.7 47.7097L110.821 45.2656L109.847 45.6506C109.847 45.6506 109.846 45.653 109.844 45.6579C109.102 47.1893 108.763 48.8844 108.86 50.5831C109.297 58.3053 109.864 86.5986 109.318 89.457C109.143 90.3697 109.178 91.3381 109.319 92.2582C112.164 90.2011 115.504 87.1308 115.504 87.1308L110.7 47.7097Z" fill="url(#paint28_linear_742_24844)"/>
<path d="M97.3828 30.4758C97.3828 30.4758 101.009 26.3496 101.736 23.9102C103.359 24.9069 104.181 27.5961 104.181 27.5961C102.634 30.342 101.774 32.3644 99.2498 34.0867C99.1723 32.3984 98.4377 31.3205 97.3828 30.4758Z" fill="url(#paint29_linear_742_24844)"/>
<path d="M71.5558 69.0116C71.5558 69.0116 56.3566 75.7681 53.3581 67.0884C52.4902 63.2159 53.4555 64.3557 53.4555 61.5399C53.4555 58.724 54.5995 57.3133 59.4938 56.7066C65.5599 55.9549 72.6291 58.1243 73.4551 60.3188C74.6355 63.4554 71.5558 69.0116 71.5558 69.0116Z" fill="url(#paint30_linear_742_24844)"/>
<path opacity="0.05" d="M71.5549 69.0107C71.5549 69.0107 74.6346 63.4543 73.4542 60.3179C73.0082 59.1331 70.7415 57.9566 67.7966 57.2422C63.5224 57.2828 56.2464 57.7281 55.4026 60.2534C55.7339 60.2534 55.9619 60.1759 56.1182 60.0787C55.2426 61.1915 52.9603 64.6207 54.2327 68.7956C58.5627 74.7852 71.5549 69.0107 71.5549 69.0107Z" fill="#353967"/>
<path d="M57.0533 60.59C59.5977 59.3407 64.1072 58.0577 71.2141 58.9667C77.6784 59.5863 87.3368 59.2333 88.985 59.0641C90.6331 58.8949 99.5415 55.9306 100.522 59.6172C100.952 61.4746 100.45 64.3407 100.163 64.9858C99.8767 65.6307 95.6582 64.4439 94.2252 63.799C92.7921 63.1541 79.6491 66.7771 74.0702 68.4253C68.4913 70.0734 59.8295 71.4778 55.5215 68.9268C54.6894 68.3357 54.2589 67.497 54.0625 66.6171C53.5162 64.1735 54.8055 61.6936 57.0533 60.59Z" fill="#FCB0AA"/>
<path d="M88.5827 64.5703C88.4859 62.838 88.3744 60.4546 88.3134 59.1172C87.489 59.1692 86.1604 59.2267 84.5469 59.2671C84.7435 59.6319 85.1777 60.1596 85.9993 59.9723C86.987 60.0568 87.6731 62.948 86.6847 65.0134C87.3393 64.8556 87.9751 64.7068 88.5827 64.5703Z" fill="url(#paint31_linear_742_24844)"/>
<path d="M88.5723 64.4191C87.0425 63.7286 64.9088 69.0462 59.3977 67.7078C55.3814 66.7323 55.2168 63.4893 55.4229 61.8008C54.2337 63.0712 53.6676 64.8515 54.0621 66.616C54.2587 67.4957 54.6892 68.3344 55.521 68.9257C59.829 71.4767 68.4909 70.0722 74.0698 68.4242C77.5685 67.3906 84.0413 65.5807 88.7359 64.5333C88.6904 64.4889 88.6384 64.449 88.5723 64.4191Z" fill="url(#paint32_linear_742_24844)"/>
<path d="M89.5437 64.657C89.2053 65.1008 88.1396 65.4316 87.5121 64.8978C88.2138 61.319 86.5516 59.1574 86.4805 59.0672L87.9304 57.9023C88.0242 58.018 90.4195 60.1906 89.5437 64.657Z" fill="url(#paint33_linear_742_24844)"/>
<path d="M89.2545 59.695H85.8177C85.2453 59.695 84.7812 59.231 84.7812 58.6586V58.3177C84.7812 57.7453 85.2453 57.2812 85.8177 57.2812H89.2545C89.827 57.2812 90.291 57.7453 90.291 58.3177V58.6586C90.2912 59.231 89.8272 59.695 89.2545 59.695Z" fill="#353967"/>
<path d="M111.572 29.9766C111.572 29.9766 119.18 33.5372 120.747 37.0976C121.687 39.2315 125.129 60.3017 124.72 62.0085C124.312 63.7153 112.872 65.5373 112.872 65.5373L109.602 47.8674C109.602 47.8674 110.068 35.8627 111.572 29.9766Z" fill="url(#paint34_linear_742_24844)"/>
<path d="M93.2982 30.6599L87.5091 27.5582L86.893 27.5312C86.6588 27.5767 86.3337 27.6406 85.9375 27.7202L91.098 35.5157C91.098 35.5157 92.7003 31.6786 94.2802 32.2846L93.2982 30.6599Z" fill="url(#paint35_linear_742_24844)"/>
<path d="M88.4639 24.6016C86.8164 25.293 85.7812 26.1038 85.7812 27.4815L91.0989 34.5385C91.8645 33.3916 92.0353 31.5127 93.2991 30.6587L88.4639 24.6016Z" fill="url(#paint36_linear_742_24844)"/>
<path d="M97.9559 63.995C96.6508 64.2419 94.111 63.2188 93.829 62.4726C93.5467 61.7263 92.4102 63.8319 92.4102 63.8319C93.3211 63.7063 93.9646 63.6828 94.2236 63.7994C95.6567 64.4443 99.8751 65.6311 100.162 64.9862C100.239 64.8124 100.332 64.4759 100.418 64.0422C99.7476 63.8036 98.698 63.8547 97.9559 63.995Z" fill="url(#paint37_linear_742_24844)"/>
<path d="M126.408 103.702H113.442C112.188 103.702 111.172 102.686 111.172 101.432V101.13C111.172 99.8759 112.188 98.8594 113.442 98.8594H126.408C127.662 98.8594 128.678 99.8759 128.678 101.13V101.432C128.678 102.686 127.662 103.702 126.408 103.702Z" fill="#353967"/>
<path d="M114.102 66.1016C114.102 66.1016 112.985 70.5838 113.543 73.0619C113.988 75.0402 116.335 89.4361 115.881 95.5558C115.881 95.5558 113.409 98.6236 113.76 98.8512C114.112 99.0788 116.337 98.8574 116.337 98.8574C116.337 98.8574 116.848 102.723 114.772 103.694C114.213 104.772 116.882 105.859 117.452 105.514C118.161 105.916 120.442 106.333 121.143 105.483C122.105 105.487 123.341 105.702 123.563 105.268C123.786 104.835 124.856 103.986 124.922 103.51C124.987 103.033 126.061 99.9531 123.536 97.4074C122.825 95.6574 122.956 91.4967 123.12 90.0647C123.285 88.6327 126.062 73.8749 124.386 68.6848C120.44 68.253 114.102 66.1016 114.102 66.1016Z" fill="#FCB0AA"/>
<path d="M114.102 66.1016C114.102 66.1016 112.985 70.5838 113.543 73.0619C113.896 74.6313 115.445 84.0137 115.844 90.8812V90.8814C115.844 90.8814 116.816 78.4733 115.035 71.4666C119.038 73.0599 122.669 71.4063 124.701 70.0731C124.621 69.5588 124.517 69.0922 124.386 68.6848C120.44 68.253 114.102 66.1016 114.102 66.1016Z" fill="url(#paint38_linear_742_24844)"/>
<path d="M111.009 60.8491C111.825 59.1517 126.222 58.6677 126.359 59.8508C126.495 61.0339 126.346 68.5686 124.912 69.3213C123.556 70.0327 114.416 71.3167 113.177 70.0489C113.177 70.0489 110.192 62.5464 111.009 60.8491Z" fill="url(#paint39_linear_742_24844)"/>
<path opacity="0.05" d="M125.203 59.3945C125.63 62.7027 124.332 66.0959 123.455 67.1376C122.343 68.4574 113.452 68.3185 113.129 66.4648C112.807 64.6112 120.537 64.2895 121.428 63.9016C122.318 63.5138 114.424 64.5673 112.855 64.2117C111.918 63.9995 111.52 62.0563 111.352 60.5249C111.182 60.6281 111.063 60.7367 111.009 60.8511C110.192 62.5484 113.177 70.0509 113.177 70.0509C114.416 71.3187 123.556 70.0347 124.912 69.3233C126.346 68.5707 126.495 61.0359 126.359 59.8528C126.335 59.6535 125.905 59.5014 125.203 59.3945Z" fill="#353967"/>
<path d="M116.159 96.4104C115.788 96.2361 114.555 98.0129 113.727 98.804C113.731 98.8266 113.74 98.8452 113.756 98.856C114.108 99.0836 116.332 98.8621 116.332 98.8621C116.332 98.8621 116.843 102.727 114.768 103.699C114.702 103.826 114.682 103.952 114.697 104.077C119.249 102.604 116.691 96.6606 116.159 96.4104Z" fill="url(#paint40_linear_742_24844)"/>
<path d="M123.103 90.2109C122.549 91.8659 122.105 93.5639 122.282 94.3594C122.684 96.1722 123.533 97.4158 123.533 97.4158C122.844 95.7191 122.946 91.7553 123.103 90.2109Z" fill="url(#paint41_linear_742_24844)"/>
<path d="M142.643 140.242H95.9389C94.4301 140.242 93.207 139.019 93.207 137.511V108.935C93.207 107.426 94.4301 106.203 95.9389 106.203H142.643C144.151 106.203 145.374 107.426 145.374 108.935V137.51C145.374 139.019 144.151 140.242 142.643 140.242Z" fill="url(#paint42_linear_742_24844)"/>
<path d="M142.643 106.203H95.9389C94.4301 106.203 93.207 107.426 93.207 108.935V117.355C93.207 118.863 94.4301 120.086 95.9389 120.086H142.643C144.151 120.086 145.374 118.863 145.374 117.355V108.935C145.374 107.426 144.151 106.203 142.643 106.203Z" fill="url(#paint43_linear_742_24844)"/>
<path d="M105.188 123.221C104.204 123.221 103.406 122.424 103.406 121.44V118.543C103.406 117.559 104.204 116.762 105.188 116.762C106.171 116.762 106.969 117.559 106.969 118.543V121.44C106.969 122.424 106.171 123.221 105.188 123.221Z" fill="#2A305B"/>
<path d="M133.387 123.221C132.403 123.221 131.605 122.424 131.605 121.44V118.543C131.605 117.559 132.403 116.762 133.387 116.762C134.371 116.762 135.168 117.559 135.168 118.543V121.44C135.168 122.424 134.371 123.221 133.387 123.221Z" fill="#2A305B"/>
<g opacity="0.1">
<path d="M30.6226 136.606C29.0075 136.606 27.4028 136.365 25.8571 135.876C21.2741 134.426 17.5164 130.889 15.5473 126.171C13.6812 121.701 13.5056 116.545 15.0533 111.655C16.6007 106.764 19.7102 102.648 23.8086 100.065C28.1331 97.3394 33.2416 96.608 37.8246 98.058C42.4076 99.5082 46.1653 103.046 48.1346 107.763C50.0007 112.234 50.1763 117.389 48.6289 122.28C47.0813 127.17 43.9717 131.286 39.8733 133.869C37.007 135.676 33.796 136.606 30.6226 136.606ZM33.0423 108.171C29.9303 108.171 26.6583 110.939 25.396 114.928C23.9267 119.571 25.6366 124.428 29.13 125.533C32.6241 126.64 36.8158 123.65 38.2851 119.007C39.7544 114.364 38.0443 109.507 34.5511 108.402C34.0592 108.246 33.5526 108.171 33.0423 108.171Z" fill="url(#paint44_linear_742_24844)"/>
</g>
<defs>
<linearGradient id="paint0_linear_742_24844" x1="69.349" y1="79.486" x2="89.1278" y2="120.637" gradientUnits="userSpaceOnUse">
<stop stop-color="#F07295"/>
<stop offset="0.9895" stop-color="#F0324B"/>
</linearGradient>
<linearGradient id="paint1_linear_742_24844" x1="108.142" y1="115.031" x2="108.142" y2="260.994" gradientUnits="userSpaceOnUse">
<stop stop-color="#F07295"/>
<stop offset="0.9895" stop-color="#F0324B"/>
</linearGradient>
<linearGradient id="paint2_linear_742_24844" x1="148.613" y1="198.744" x2="150.262" y2="171.118" gradientUnits="userSpaceOnUse">
<stop stop-color="#00B56C"/>
<stop offset="0.2158" stop-color="#1DBE75"/>
<stop offset="0.6813" stop-color="#68D58C"/>
<stop offset="1" stop-color="#9EE69D"/>
</linearGradient>
<linearGradient id="paint3_linear_742_24844" x1="149.136" y1="198.722" x2="150.57" y2="174.69" gradientUnits="userSpaceOnUse">
<stop stop-color="#00B56C"/>
<stop offset="0.2158" stop-color="#1DBE75"/>
<stop offset="0.6813" stop-color="#68D58C"/>
<stop offset="1" stop-color="#9EE69D"/>
</linearGradient>
<linearGradient id="paint4_linear_742_24844" x1="146.579" y1="198.758" x2="147.51" y2="183.157" gradientUnits="userSpaceOnUse">
<stop stop-color="#00B56C"/>
<stop offset="0.2158" stop-color="#1DBE75"/>
<stop offset="0.6813" stop-color="#68D58C"/>
<stop offset="1" stop-color="#9EE69D"/>
</linearGradient>
<linearGradient id="paint5_linear_742_24844" x1="155.458" y1="198.711" x2="158.104" y2="182.727" gradientUnits="userSpaceOnUse">
<stop stop-color="#00B56C"/>
<stop offset="0.2158" stop-color="#1DBE75"/>
<stop offset="0.6813" stop-color="#68D58C"/>
<stop offset="1" stop-color="#9EE69D"/>
</linearGradient>
<linearGradient id="paint6_linear_742_24844" x1="157.701" y1="198.864" x2="160.683" y2="148.895" gradientUnits="userSpaceOnUse">
<stop stop-color="#00B56C"/>
<stop offset="0.2158" stop-color="#1DBE75"/>
<stop offset="0.6813" stop-color="#68D58C"/>
<stop offset="1" stop-color="#9EE69D"/>
</linearGradient>
<linearGradient id="paint7_linear_742_24844" x1="125.843" y1="195.512" x2="148.918" y2="148.224" gradientUnits="userSpaceOnUse">
<stop stop-color="#24553A"/>
<stop offset="1" stop-color="#49BE55"/>
</linearGradient>
<linearGradient id="paint8_linear_742_24844" x1="120.558" y1="194.651" x2="137.652" y2="159.618" gradientUnits="userSpaceOnUse">
<stop stop-color="#24553A"/>
<stop offset="1" stop-color="#49BE55"/>
</linearGradient>
<linearGradient id="paint9_linear_742_24844" x1="110.383" y1="192.046" x2="126.023" y2="159.995" gradientUnits="userSpaceOnUse">
<stop stop-color="#24553A"/>
<stop offset="1" stop-color="#49BE55"/>
</linearGradient>
<linearGradient id="paint10_linear_742_24844" x1="111.329" y1="154.615" x2="100.777" y2="209.702" gradientUnits="userSpaceOnUse">
<stop stop-color="#00B56C"/>
<stop offset="0.2158" stop-color="#1DBE75"/>
<stop offset="0.6813" stop-color="#68D58C"/>
<stop offset="1" stop-color="#9EE69D"/>
</linearGradient>
<linearGradient id="paint11_linear_742_24844" x1="130.62" y1="156.834" x2="128.315" y2="187.478" gradientUnits="userSpaceOnUse">
<stop stop-color="#00B56C"/>
<stop offset="0.2158" stop-color="#1DBE75"/>
<stop offset="0.6813" stop-color="#68D58C"/>
<stop offset="1" stop-color="#9EE69D"/>
</linearGradient>
<linearGradient id="paint12_linear_742_24844" x1="147.512" y1="143.832" x2="160.661" y2="255.335" gradientUnits="userSpaceOnUse">
<stop stop-color="#00B56C"/>
<stop offset="0.2158" stop-color="#1DBE75"/>
<stop offset="0.6813" stop-color="#68D58C"/>
<stop offset="1" stop-color="#9EE69D"/>
</linearGradient>
<linearGradient id="paint13_linear_742_24844" x1="50.6974" y1="198.897" x2="42.3392" y2="155.975" gradientUnits="userSpaceOnUse">
<stop stop-color="#00B56C"/>
<stop offset="0.2158" stop-color="#1DBE75"/>
<stop offset="0.6813" stop-color="#68D58C"/>
<stop offset="1" stop-color="#9EE69D"/>
</linearGradient>
<linearGradient id="paint14_linear_742_24844" x1="72.7918" y1="189.999" x2="67.7766" y2="164.244" gradientUnits="userSpaceOnUse">
<stop stop-color="#00B56C"/>
<stop offset="0.2158" stop-color="#1DBE75"/>
<stop offset="0.6813" stop-color="#68D58C"/>
<stop offset="1" stop-color="#9EE69D"/>
</linearGradient>
<linearGradient id="paint15_linear_742_24844" x1="79.3987" y1="197.687" x2="74.6377" y2="173.237" gradientUnits="userSpaceOnUse">
<stop stop-color="#00B56C"/>
<stop offset="0.2158" stop-color="#1DBE75"/>
<stop offset="0.6813" stop-color="#68D58C"/>
<stop offset="1" stop-color="#9EE69D"/>
</linearGradient>
<linearGradient id="paint16_linear_742_24844" x1="64.6145" y1="199.419" x2="54.7507" y2="148.765" gradientUnits="userSpaceOnUse">
<stop stop-color="#00B56C"/>
<stop offset="0.2158" stop-color="#1DBE75"/>
<stop offset="0.6813" stop-color="#68D58C"/>
<stop offset="1" stop-color="#9EE69D"/>
</linearGradient>
<linearGradient id="paint17_linear_742_24844" x1="0.249912" y1="199.001" x2="189.748" y2="199.001" gradientUnits="userSpaceOnUse">
<stop stop-color="#24553A"/>
<stop offset="1" stop-color="#49BE55"/>
</linearGradient>
<linearGradient id="paint18_linear_742_24844" x1="82.1993" y1="207.006" x2="82.1993" y2="193.053" gradientUnits="userSpaceOnUse">
<stop offset="0.2656" stop-color="#42417D"/>
<stop offset="0.609" stop-color="#353967"/>
</linearGradient>
<linearGradient id="paint19_linear_742_24844" x1="108.809" y1="211.485" x2="108.809" y2="192.684" gradientUnits="userSpaceOnUse">
<stop offset="0.2656" stop-color="#42417D"/>
<stop offset="0.609" stop-color="#353967"/>
</linearGradient>
<linearGradient id="paint20_linear_742_24844" x1="95.5154" y1="21.5107" x2="95.5154" y2="37.8009" gradientUnits="userSpaceOnUse">
<stop stop-color="#FCB0AA"/>
<stop offset="1" stop-color="#F4919A"/>
</linearGradient>
<linearGradient id="paint21_linear_742_24844" x1="95.4642" y1="20.4467" x2="95.4642" y2="30.8826" gradientUnits="userSpaceOnUse">
<stop stop-color="#FCB0AA"/>
<stop offset="1" stop-color="#F4919A"/>
</linearGradient>
<linearGradient id="paint22_linear_742_24844" x1="94.6334" y1="20.9168" x2="101.737" y2="26.3857" gradientUnits="userSpaceOnUse">
<stop stop-color="#FCB0AA"/>
<stop offset="1" stop-color="#F4919A"/>
</linearGradient>
<linearGradient id="paint23_linear_742_24844" x1="76.2849" y1="5.53826" x2="76.2849" y2="101.998" gradientUnits="userSpaceOnUse">
<stop stop-color="white"/>
<stop offset="1" stop-color="#AAD7FF"/>
</linearGradient>
<linearGradient id="paint24_linear_742_24844" x1="79.4562" y1="22.0737" x2="79.4562" y2="90.6225" gradientUnits="userSpaceOnUse">
<stop offset="0.0019" stop-color="white" stop-opacity="0"/>
<stop offset="0.8727" stop-color="#B5DCFF"/>
<stop offset="1" stop-color="#AAD7FF"/>
</linearGradient>
<linearGradient id="paint25_linear_742_24844" x1="56.8337" y1="55.7022" x2="82.7105" y2="53.2403" gradientUnits="userSpaceOnUse">
<stop offset="0.0019" stop-color="white" stop-opacity="0"/>
<stop offset="0.8727" stop-color="#B5DCFF"/>
<stop offset="0.9619" stop-color="#B3DBFF"/>
<stop offset="0.994" stop-color="#ACD8FF"/>
<stop offset="1" stop-color="#AAD7FF"/>
</linearGradient>
<linearGradient id="paint26_linear_742_24844" x1="105.509" y1="-2.41814" x2="105.509" y2="108.844" gradientUnits="userSpaceOnUse">
<stop stop-color="white"/>
<stop offset="0.8727" stop-color="#B5DCFF"/>
<stop offset="1" stop-color="#AAD7FF"/>
</linearGradient>
<linearGradient id="paint27_linear_742_24844" x1="100.617" y1="40.5648" x2="100.617" y2="27.5002" gradientUnits="userSpaceOnUse">
<stop stop-color="white"/>
<stop offset="0.8727" stop-color="#B5DCFF"/>
<stop offset="1" stop-color="#AAD7FF"/>
</linearGradient>
<linearGradient id="paint28_linear_742_24844" x1="70.6525" y1="4.92064" x2="120.551" y2="85.7387" gradientUnits="userSpaceOnUse">
<stop offset="0.0019" stop-color="white" stop-opacity="0"/>
<stop offset="0.8727" stop-color="#B5DCFF"/>
<stop offset="1" stop-color="#AAD7FF"/>
</linearGradient>
<linearGradient id="paint29_linear_742_24844" x1="90.0232" y1="28.9986" x2="96.8215" y2="28.9986" gradientUnits="userSpaceOnUse">
<stop stop-color="white"/>
<stop offset="1" stop-color="#AAD7FF"/>
</linearGradient>
<linearGradient id="paint30_linear_742_24844" x1="63.6577" y1="29.3491" x2="63.3903" y2="59.9076" gradientUnits="userSpaceOnUse">
<stop stop-color="white"/>
<stop offset="1" stop-color="#AAD7FF"/>
</linearGradient>
<linearGradient id="paint31_linear_742_24844" x1="84.0082" y1="62.0654" x2="88.0439" y2="62.0654" gradientUnits="userSpaceOnUse">
<stop stop-color="#FCB0AA"/>
<stop offset="1" stop-color="#F4919A"/>
</linearGradient>
<linearGradient id="paint32_linear_742_24844" x1="81.1844" y1="54.0621" x2="54.4827" y2="80.7639" gradientUnits="userSpaceOnUse">
<stop stop-color="#FCB0AA" stop-opacity="0"/>
<stop offset="1" stop-color="#F4919A"/>
</linearGradient>
<linearGradient id="paint33_linear_742_24844" x1="88.1721" y1="53.6278" x2="88.0424" y2="68.4596" gradientUnits="userSpaceOnUse">
<stop stop-color="#353967"/>
<stop offset="1" stop-color="#2A305B"/>
</linearGradient>
<linearGradient id="paint34_linear_742_24844" x1="115.322" y1="12.236" x2="118.423" y2="83.0931" gradientUnits="userSpaceOnUse">
<stop stop-color="white"/>
<stop offset="0.8727" stop-color="#B5DCFF"/>
<stop offset="1" stop-color="#AAD7FF"/>
</linearGradient>
<linearGradient id="paint35_linear_742_24844" x1="90.1089" y1="43.2735" x2="90.1089" y2="26.3865" gradientUnits="userSpaceOnUse">
<stop offset="0.0019" stop-color="white" stop-opacity="0"/>
<stop offset="0.8727" stop-color="#B5DCFF"/>
<stop offset="0.9619" stop-color="#B3DBFF"/>
<stop offset="0.994" stop-color="#ACD8FF"/>
<stop offset="1" stop-color="#AAD7FF"/>
</linearGradient>
<linearGradient id="paint36_linear_742_24844" x1="77.6426" y1="29.57" x2="85.1606" y2="29.57" gradientUnits="userSpaceOnUse">
<stop stop-color="white"/>
<stop offset="1" stop-color="#AAD7FF"/>
</linearGradient>
<linearGradient id="paint37_linear_742_24844" x1="97.8136" y1="62.6832" x2="92.7211" y2="67.7757" gradientUnits="userSpaceOnUse">
<stop stop-color="#FCB0AA"/>
<stop offset="1" stop-color="#F4919A"/>
</linearGradient>
<linearGradient id="paint38_linear_742_24844" x1="119.044" y1="93.7094" x2="119.044" y2="60.4849" gradientUnits="userSpaceOnUse">
<stop stop-color="#FCB0AA" stop-opacity="0"/>
<stop offset="1" stop-color="#F4919A"/>
</linearGradient>
<linearGradient id="paint39_linear_742_24844" x1="118.633" y1="44.366" x2="118.633" y2="55.7521" gradientUnits="userSpaceOnUse">
<stop stop-color="white"/>
<stop offset="0.8727" stop-color="#B5DCFF"/>
<stop offset="1" stop-color="#AAD7FF"/>
</linearGradient>
<linearGradient id="paint40_linear_742_24844" x1="121.487" y1="94.397" x2="114.945" y2="100.939" gradientUnits="userSpaceOnUse">
<stop stop-color="#FCB0AA" stop-opacity="0"/>
<stop offset="1" stop-color="#F4919A"/>
</linearGradient>
<linearGradient id="paint41_linear_742_24844" x1="122.888" y1="103.262" x2="122.888" y2="93.6013" gradientUnits="userSpaceOnUse">
<stop stop-color="#FCB0AA" stop-opacity="0"/>
<stop offset="1" stop-color="#F4919A"/>
</linearGradient>
<linearGradient id="paint42_linear_742_24844" x1="119.291" y1="148.865" x2="119.291" y2="103.226" gradientUnits="userSpaceOnUse">
<stop stop-color="#353967"/>
<stop offset="1" stop-color="#2A305B"/>
</linearGradient>
<linearGradient id="paint43_linear_742_24844" x1="119.291" y1="131.351" x2="119.291" y2="112.736" gradientUnits="userSpaceOnUse">
<stop offset="0.2656" stop-color="#42417D"/>
<stop offset="0.609" stop-color="#353967"/>
</linearGradient>
<linearGradient id="paint44_linear_742_24844" x1="37.8247" y1="98.058" x2="25.8573" y2="135.876" gradientUnits="userSpaceOnUse">
<stop stop-color="#F07295"/>
<stop offset="0.9895" stop-color="#F0324B"/>
</linearGradient>
</defs>
</svg>
