<svg width="24" height="23" viewBox="0 0 24 23" fill="none" xmlns="http://www.w3.org/2000/svg">
<path d="M19.8272 3.96552V21.4138C19.8272 21.8345 19.6601 22.2379 19.3626 22.5354C19.0651 22.8329 18.6617 23 18.241 23H3.96511C3.54442 23 3.14097 22.8329 2.8435 22.5354C2.54602 22.2379 2.37891 21.8345 2.37891 21.4138V1.58621C2.37891 1.16552 2.54602 0.762061 2.8435 0.464589C3.14097 0.167118 3.54442 0 3.96511 0H16.2582V3.17241C16.2588 3.38256 16.3426 3.58393 16.4912 3.73253C16.6398 3.88113 16.8412 3.96489 17.0513 3.96552H19.8272Z" fill="#E6E7E8" style="fill:#E6E7E8;fill:color(display-p3 0.9020 0.9059 0.9098);fill-opacity:1;"/>
<path d="M19.8279 8.46484V12.9498L13.5584 19.2154L11.9404 19.8379L9.91406 20.6192L10.6953 18.5928L11.3179 16.9748L19.8279 8.46484Z" fill="#D8D7DA" style="fill:#D8D7DA;fill:color(display-p3 0.8471 0.8431 0.8549);fill-opacity:1;"/>
<path d="M20.3349 8.61328L19.8273 9.12087L11.6465 17.3057L12.7648 18.424L19.8273 11.3654L21.4572 9.73156L20.3349 8.61328Z" fill="#4A9FA6" style="fill:#4A9FA6;fill:color(display-p3 0.2911 0.6230 0.6516);fill-opacity:1;"/>
<path d="M20.3361 8.61443L19.8285 9.12202L11.6476 17.3068H11.6437L10.5254 16.1846L19.2178 7.49219L19.8285 8.10288L20.3361 8.61443Z" fill="#00AEBD" style="fill:#00AEBD;fill:color(display-p3 0.0000 0.6824 0.7412);fill-opacity:1;"/>
<path d="M20.8982 5.80469L19.8275 6.87538L19.2168 7.49003L19.8275 8.10072L20.3351 8.61227L21.4573 9.73055L23.1427 8.04917L20.8982 5.80469Z" fill="#D1D3D4" style="fill:#D1D3D4;fill:color(display-p3 0.8196 0.8275 0.8314);fill-opacity:1;"/>
<path d="M16.2578 0L19.8268 3.96552H17.0509C16.8408 3.96489 16.6394 3.88113 16.4908 3.73253C16.3422 3.58393 16.2584 3.38256 16.2578 3.17241V0Z" fill="#BCBEC0" style="fill:#BCBEC0;fill:color(display-p3 0.7373 0.7451 0.7529);fill-opacity:1;"/>
<path d="M12.7654 18.4241L11.1475 19.0467L9.90234 17.8015L10.5249 16.1836L11.6432 17.3058H11.6472L12.7654 18.4241Z" fill="#D1D3D4" style="fill:#D1D3D4;fill:color(display-p3 0.8196 0.8275 0.8314);fill-opacity:1;"/>
<path d="M11.1475 19.046L9.12109 19.8272L9.9023 17.8008L11.1475 19.046Z" fill="#ACABB1" style="fill:#ACABB1;fill:color(display-p3 0.6745 0.6706 0.6941);fill-opacity:1;"/>
<path d="M13.4824 4.75795V11.1028C13.4817 11.3129 13.398 11.5143 13.2494 11.6629C13.1008 11.8115 12.8994 11.8953 12.6893 11.8959H8.32718V14.2752L5.94787 11.8959H2.37891V3.96484H12.6893C12.8994 3.96547 13.1008 4.04923 13.2494 4.19783C13.398 4.34643 13.4817 4.5478 13.4824 4.75795Z" fill="#D8D7DA" style="fill:#D8D7DA;fill:color(display-p3 0.8471 0.8431 0.8549);fill-opacity:1;"/>
<path d="M12.6897 3.96498V10.3098C12.689 10.52 12.6053 10.7213 12.4567 10.8699C12.3081 11.0185 12.1067 11.1023 11.8966 11.1029H7.53448V13.4822L5.15517 11.1029H0.793103C0.582952 11.1023 0.381588 11.0185 0.232988 10.8699C0.0843881 10.7213 0.000627633 10.52 0 10.3098V3.96498C0.000627633 3.75483 0.0843881 3.55346 0.232988 3.40486C0.381588 3.25626 0.582952 3.1725 0.793103 3.17188H11.8966C12.1067 3.1725 12.3081 3.25626 12.4567 3.40486C12.6053 3.55346 12.689 3.75483 12.6897 3.96498Z" fill="#00AEBD" style="fill:#00AEBD;fill:color(display-p3 0.0000 0.6824 0.7412);fill-opacity:1;"/>
<path d="M1.98242 5.15625H2.77553V5.94935H1.98242V5.15625Z" fill="#73D9E2" style="fill:#73D9E2;fill:color(display-p3 0.4513 0.8505 0.8849);fill-opacity:1;"/>
<path d="M3.56836 5.15625H10.7063V5.94935H3.56836V5.15625Z" fill="#73D9E2" style="fill:#73D9E2;fill:color(display-p3 0.4513 0.8505 0.8849);fill-opacity:1;"/>
<path d="M1.98242 6.74219H10.7066V7.53529H1.98242V6.74219Z" fill="#73D9E2" style="fill:#73D9E2;fill:color(display-p3 0.4513 0.8505 0.8849);fill-opacity:1;"/>
<path d="M1.98242 8.32812H10.7066V9.12123H1.98242V8.32812Z" fill="#73D9E2" style="fill:#73D9E2;fill:color(display-p3 0.4513 0.8505 0.8849);fill-opacity:1;"/>
</svg>
