<svg width="25" height="30" viewBox="0 0 25 30" fill="none" xmlns="http://www.w3.org/2000/svg">
<path d="M23.2296 5.55769H19.5657C19.2914 4.22381 18.5656 3.02528 17.5107 2.16411C16.4557 1.30295 15.1362 0.831797 13.7744 0.830078L11.4106 0.830078C10.0488 0.831797 8.72921 1.30295 7.67428 2.16411C6.61935 3.02528 5.89356 4.22381 5.61924 5.55769H1.95534C1.64188 5.55769 1.34126 5.68221 1.11961 5.90386C0.897959 6.12551 0.773438 6.42614 0.773438 6.7396C0.773438 7.05306 0.897959 7.35368 1.11961 7.57533C1.34126 7.79698 1.64188 7.9215 1.95534 7.9215H3.13724V23.2862C3.13912 24.853 3.76233 26.355 4.87018 27.4628C5.97802 28.5707 7.48004 29.1939 9.04676 29.1958H16.1382C17.7049 29.1939 19.2069 28.5707 20.3148 27.4628C21.4226 26.355 22.0458 24.853 22.0477 23.2862V7.9215H23.2296C23.5431 7.9215 23.8437 7.79698 24.0653 7.57533C24.287 7.35368 24.4115 7.05306 24.4115 6.7396C24.4115 6.42614 24.287 6.12551 24.0653 5.90386C23.8437 5.68221 23.5431 5.55769 23.2296 5.55769ZM11.4106 3.19389H13.7744C14.5075 3.19478 15.2224 3.42244 15.821 3.84564C16.4196 4.26884 16.8726 4.86686 17.118 5.55769H8.06696C8.31231 4.86686 8.76535 4.26884 9.36397 3.84564C9.96259 3.42244 10.6775 3.19478 11.4106 3.19389ZM19.6839 23.2862C19.6839 24.2266 19.3103 25.1285 18.6454 25.7934C17.9804 26.4584 17.0786 26.832 16.1382 26.832H9.04676C8.10638 26.832 7.20452 26.4584 6.53957 25.7934C5.87462 25.1285 5.50105 24.2266 5.50105 23.2862V7.9215H19.6839V23.2862Z" fill="#FD003A"/>
</svg>
